<svg width="934" height="1019" viewBox="0 0 934 1019" fill="none" xmlns="http://www.w3.org/2000/svg">
<path opacity="0.2" fill-rule="evenodd" clip-rule="evenodd" d="M346 571.003L345.397 484.652L74.5389 327.953L74 728.953L346 571.003Z" fill="url(#paint0_radial)"/>
<path opacity="0.6" fill-rule="evenodd" clip-rule="evenodd" d="M373.789 443.037L448.27 399.339L448.546 86.4199L101 286.453L373.789 443.037Z" fill="url(#paint1_radial)"/>
<path fill-rule="evenodd" clip-rule="evenodd" d="M560.38 443.971L485.993 401.027L485.732 87.4199L833.277 287.453L560.38 443.971Z" fill="url(#paint2_radial)"/>
<path opacity="0.6" fill-rule="evenodd" clip-rule="evenodd" d="M591 570.003V483.843L862.461 326.953L863 727.953L591 570.003Z" fill="url(#paint3_radial)"/>
<path opacity="0.2" fill-rule="evenodd" clip-rule="evenodd" d="M568.38 611.994L493.993 654.938L493.732 968.545L841.277 768.512L568.38 611.994Z" fill="url(#paint4_radial)"/>
<path fill-rule="evenodd" clip-rule="evenodd" d="M467 431.953L541 474.703L467 517.453L393 474.703L467 431.953Z" fill="url(#paint5_radial)"/>
<g filter="url(#filter0_f)">
<path fill-rule="evenodd" clip-rule="evenodd" d="M465.501 323.287L633.247 420.12V613.786L465.501 710.619L297.755 613.786V420.12L465.501 323.287Z" fill="url(#paint6_radial)"/>
</g>
<path fill-rule="evenodd" clip-rule="evenodd" d="M467 517.453L541 474.703V560.203L467 602.953V517.453Z" fill="url(#paint7_radial)"/>
<path fill-rule="evenodd" clip-rule="evenodd" d="M467.002 517.453L393.277 474.703V560.203L467.002 602.953V517.453Z" fill="url(#paint8_radial)"/>
<path fill-rule="evenodd" clip-rule="evenodd" d="M466.001 450.953L508.001 475.203V523.703L466.001 547.953L424.001 523.703V475.203L466.001 450.953Z" fill="url(#paint9_radial)"/>
<path fill-rule="evenodd" clip-rule="evenodd" d="M466.999 483.953L510.249 508.203V556.703L466.999 580.953L423.749 556.703V508.203L466.999 483.953Z" fill="url(#paint10_linear)"/>
<path fill-rule="evenodd" clip-rule="evenodd" d="M456.502 548.953L468.002 555.453V568.451L456.502 574.951L445.002 568.451V555.453L456.502 548.953Z" fill="url(#paint11_linear)"/>
<path fill-rule="evenodd" clip-rule="evenodd" d="M450.89 558.311V571.648L445 568.36V555.452L450.89 558.311Z" fill="url(#paint12_linear)"/>
<path fill-rule="evenodd" clip-rule="evenodd" d="M468 555.452V568.451L456.5 574.951V561.104L468 555.452Z" fill="url(#paint13_linear)"/>
<path fill-rule="evenodd" clip-rule="evenodd" d="M456.5 548.953L468 555.453L456.5 561.056L445 555.453L456.5 548.953Z" fill="url(#paint14_linear)"/>
<g filter="url(#filter1_f)">
<path fill-rule="evenodd" clip-rule="evenodd" d="M271.531 662.192V676.522L448.998 575.027V563.389L271.531 662.192Z" fill="url(#paint15_radial)"/>
</g>
<g filter="url(#filter2_f)">
<path fill-rule="evenodd" clip-rule="evenodd" d="M265.531 659.192V673.522L442.998 572.027V560.389L265.531 659.192Z" fill="url(#paint16_radial)"/>
</g>
<g filter="url(#filter3_f)">
<path fill-rule="evenodd" clip-rule="evenodd" d="M252 681.737L268.282 690.953L458 582.169L441.718 572.953L252 681.737Z" fill="url(#paint17_radial)"/>
</g>
<path opacity="0.2" fill-rule="evenodd" clip-rule="evenodd" d="M255 680.686L262.35 684.953L456 575.22L448.65 570.953L255 680.686Z" fill="url(#paint18_radial)"/>
<path fill-rule="evenodd" clip-rule="evenodd" d="M253 678.675L260.363 682.953L453 573.232L445.637 568.953L253 678.675Z" fill="url(#paint19_radial)"/>
<g filter="url(#filter4_f)">
<path fill-rule="evenodd" clip-rule="evenodd" d="M354 628.751L334.971 640.953L327 637.139L346.029 624.953L354 628.751Z" fill="url(#paint20_linear)"/>
</g>
<g filter="url(#filter5_d)">
<path fill-rule="evenodd" clip-rule="evenodd" d="M353.955 599.953L358.91 602.896V608.782L353.955 611.725L349.001 608.782V602.896L353.955 599.953Z" fill="url(#paint21_linear)"/>
</g>
<g filter="url(#filter6_d)">
<path fill-rule="evenodd" clip-rule="evenodd" d="M353.955 599.953L358.909 602.896L353.955 605.839L349 602.896L353.955 599.953Z" fill="url(#paint22_linear)"/>
</g>
<g filter="url(#filter7_d)">
<path fill-rule="evenodd" clip-rule="evenodd" d="M354 605.905L358.909 602.942V608.859L354 611.818V605.905Z" fill="url(#paint23_linear)"/>
</g>
<path fill-rule="evenodd" clip-rule="evenodd" d="M353.955 611.752L358.909 608.828V624.016L353.955 626.953L349 624.016V608.828L353.955 611.752Z" fill="url(#paint24_linear)"/>
<path fill-rule="evenodd" clip-rule="evenodd" d="M354 605.839L359 608.783V624.009L354 626.953L354 605.839Z" fill="url(#paint25_linear)"/>
<g filter="url(#filter8_d)">
<path fill-rule="evenodd" clip-rule="evenodd" d="M469.5 918.948C610.953 918.053 734.4 841.268 801.175 727.261L764.519 706.091C704.937 807.209 595.191 875.235 469.5 875.95V918.948ZM465.5 875.95V918.953C323.647 918.415 199.789 841.557 132.851 727.305L170.236 705.675C229.762 807.023 339.637 875.234 465.5 875.95ZM469.5 186.956C595.315 187.672 705.153 255.831 764.695 357.114L800.896 336.169C734.057 222.424 610.756 145.852 469.5 144.958V186.956ZM465.5 144.953V186.956C339.322 187.674 229.212 256.226 169.79 357.994L132.825 336.645C199.757 222.369 323.629 145.491 465.5 144.953ZM803.178 723.799C835.517 667.252 854 601.761 854 531.953C854 461.948 835.413 396.285 802.904 339.629L766.702 360.574C795.525 410.935 812 469.27 812 531.453C812 593.76 795.459 652.204 766.529 702.633L803.178 723.799ZM80 531.953C80 601.779 98.4924 667.286 130.847 723.843L168.231 702.214C139.449 651.88 123 593.588 123 531.453C123 469.634 139.283 411.618 167.793 361.46L130.822 340.107C98.4828 396.654 80 462.145 80 531.953Z" fill="url(#paint26_radial)"/>
</g>
<g opacity="0.602695" filter="url(#filter9_f)">
<path fill-rule="evenodd" clip-rule="evenodd" d="M542 136.75V562.25L468 605L394 562.25L394 136.75H542Z" fill="url(#paint27_radial)"/>
</g>
<path fill-rule="evenodd" clip-rule="evenodd" d="M466 450.953V547.953L424 523.703V475.203L466 450.953Z" fill="url(#paint28_radial)"/>
<path opacity="0.6" fill-rule="evenodd" clip-rule="evenodd" d="M467.001 483.843V581.013L423.945 556.702V507.139L467.001 483.843Z" fill="url(#paint29_linear)"/>
<defs>
<filter id="filter0_f" x="244.722" y="270.255" width="441.557" height="493.396" filterUnits="userSpaceOnUse" color-interpolation-filters="sRGB">
<feFlood flood-opacity="0" result="BackgroundImageFix"/>
<feBlend mode="normal" in="SourceGraphic" in2="BackgroundImageFix" result="shape"/>
<feGaussianBlur stdDeviation="26.5161" result="effect1_foregroundBlur"/>
</filter>
<filter id="filter1_f" x="249.785" y="541.642" width="220.96" height="156.626" filterUnits="userSpaceOnUse" color-interpolation-filters="sRGB">
<feFlood flood-opacity="0" result="BackgroundImageFix"/>
<feBlend mode="normal" in="SourceGraphic" in2="BackgroundImageFix" result="shape"/>
<feGaussianBlur stdDeviation="10.8731" result="effect1_foregroundBlur"/>
</filter>
<filter id="filter2_f" x="243.785" y="538.642" width="220.96" height="156.626" filterUnits="userSpaceOnUse" color-interpolation-filters="sRGB">
<feFlood flood-opacity="0" result="BackgroundImageFix"/>
<feBlend mode="normal" in="SourceGraphic" in2="BackgroundImageFix" result="shape"/>
<feGaussianBlur stdDeviation="10.8731" result="effect1_foregroundBlur"/>
</filter>
<filter id="filter3_f" x="230.254" y="551.207" width="249.493" height="161.493" filterUnits="userSpaceOnUse" color-interpolation-filters="sRGB">
<feFlood flood-opacity="0" result="BackgroundImageFix"/>
<feBlend mode="normal" in="SourceGraphic" in2="BackgroundImageFix" result="shape"/>
<feGaussianBlur stdDeviation="10.8731" result="effect1_foregroundBlur"/>
</filter>
<filter id="filter4_f" x="316.127" y="614.08" width="48.7463" height="37.7463" filterUnits="userSpaceOnUse" color-interpolation-filters="sRGB">
<feFlood flood-opacity="0" result="BackgroundImageFix"/>
<feBlend mode="normal" in="SourceGraphic" in2="BackgroundImageFix" result="shape"/>
<feGaussianBlur stdDeviation="5.43656" result="effect1_foregroundBlur"/>
</filter>
<filter id="filter5_d" x="341" y="593.953" width="25.9091" height="27.7716" filterUnits="userSpaceOnUse" color-interpolation-filters="sRGB">
<feFlood flood-opacity="0" result="BackgroundImageFix"/>
<feColorMatrix in="SourceAlpha" type="matrix" values="0 0 0 0 0 0 0 0 0 0 0 0 0 0 0 0 0 0 127 0"/>
<feOffset dy="2"/>
<feGaussianBlur stdDeviation="4"/>
<feColorMatrix type="matrix" values="0 0 0 0 0.346398 0 0 0 0 0.938725 0 0 0 0 0.995137 0 0 0 0.695312 0"/>
<feBlend mode="normal" in2="BackgroundImageFix" result="effect1_dropShadow"/>
<feBlend mode="normal" in="SourceGraphic" in2="effect1_dropShadow" result="shape"/>
</filter>
<filter id="filter6_d" x="341" y="593.953" width="25.9091" height="21.8858" filterUnits="userSpaceOnUse" color-interpolation-filters="sRGB">
<feFlood flood-opacity="0" result="BackgroundImageFix"/>
<feColorMatrix in="SourceAlpha" type="matrix" values="0 0 0 0 0 0 0 0 0 0 0 0 0 0 0 0 0 0 127 0"/>
<feOffset dy="2"/>
<feGaussianBlur stdDeviation="4"/>
<feColorMatrix type="matrix" values="0 0 0 0 0.346398 0 0 0 0 0.938725 0 0 0 0 0.995137 0 0 0 0.695312 0"/>
<feBlend mode="normal" in2="BackgroundImageFix" result="effect1_dropShadow"/>
<feBlend mode="normal" in="SourceGraphic" in2="effect1_dropShadow" result="shape"/>
</filter>
<filter id="filter7_d" x="346" y="596.942" width="20.9091" height="24.8754" filterUnits="userSpaceOnUse" color-interpolation-filters="sRGB">
<feFlood flood-opacity="0" result="BackgroundImageFix"/>
<feColorMatrix in="SourceAlpha" type="matrix" values="0 0 0 0 0 0 0 0 0 0 0 0 0 0 0 0 0 0 127 0"/>
<feOffset dy="2"/>
<feGaussianBlur stdDeviation="4"/>
<feColorMatrix type="matrix" values="0 0 0 0 0.346398 0 0 0 0 0.938725 0 0 0 0 0.995137 0 0 0 0.695312 0"/>
<feBlend mode="normal" in2="BackgroundImageFix" result="effect1_dropShadow"/>
<feBlend mode="normal" in="SourceGraphic" in2="effect1_dropShadow" result="shape"/>
</filter>
<filter id="filter8_d" x="0" y="84.9531" width="934" height="934" filterUnits="userSpaceOnUse" color-interpolation-filters="sRGB">
<feFlood flood-opacity="0" result="BackgroundImageFix"/>
<feColorMatrix in="SourceAlpha" type="matrix" values="0 0 0 0 0 0 0 0 0 0 0 0 0 0 0 0 0 0 127 0"/>
<feOffset dy="20"/>
<feGaussianBlur stdDeviation="40"/>
<feColorMatrix type="matrix" values="0 0 0 0 0.108157 0 0 0 0 0.0443846 0 0 0 0 0.187872 0 0 0 1 0"/>
<feBlend mode="normal" in2="BackgroundImageFix" result="effect1_dropShadow"/>
<feBlend mode="normal" in="SourceGraphic" in2="effect1_dropShadow" result="shape"/>
</filter>
<filter id="filter9_f" x="258.086" y="0.835907" width="419.828" height="740.078" filterUnits="userSpaceOnUse" color-interpolation-filters="sRGB">
<feFlood flood-opacity="0" result="BackgroundImageFix"/>
<feBlend mode="normal" in="SourceGraphic" in2="BackgroundImageFix" result="shape"/>
<feGaussianBlur stdDeviation="67.957" result="effect1_foregroundBlur"/>
</filter>
<radialGradient id="paint0_radial" cx="0" cy="0" r="1" gradientUnits="userSpaceOnUse" gradientTransform="translate(99.1006 725.006) rotate(-21.5271) scale(415.86 568.518)">
<stop stop-color="#FF77F5" stop-opacity="0.01"/>
<stop offset="1" stop-color="#F9A9BC" stop-opacity="0.5"/>
</radialGradient>
<radialGradient id="paint1_radial" cx="0" cy="0" r="1" gradientUnits="userSpaceOnUse" gradientTransform="translate(116.968 306.218) rotate(38.4729) scale(415.86 568.518)">
<stop stop-color="#FF77F5" stop-opacity="0.01"/>
<stop offset="1" stop-color="#F9A9BC" stop-opacity="0.5"/>
</radialGradient>
<radialGradient id="paint2_radial" cx="0" cy="0" r="1" gradientUnits="userSpaceOnUse" gradientTransform="translate(817.309 307.218) rotate(141.527) scale(415.86 568.518)">
<stop stop-color="#FF77F5" stop-opacity="0.0530741"/>
<stop offset="1" stop-color="#F9A9BC" stop-opacity="0.5"/>
</radialGradient>
<radialGradient id="paint3_radial" cx="0" cy="0" r="1" gradientUnits="userSpaceOnUse" gradientTransform="translate(837.899 724.006) rotate(-158.473) scale(415.86 568.518)">
<stop stop-color="#FF77F5" stop-opacity="0.01"/>
<stop offset="1" stop-color="#F9A9BC" stop-opacity="0.5"/>
</radialGradient>
<radialGradient id="paint4_radial" cx="0" cy="0" r="1" gradientUnits="userSpaceOnUse" gradientTransform="translate(825.309 748.747) rotate(-141.527) scale(415.86 568.518)">
<stop stop-color="#FF77F5" stop-opacity="0.01"/>
<stop offset="1" stop-color="#F9A9BC" stop-opacity="0.5"/>
</radialGradient>
<radialGradient id="paint5_radial" cx="0" cy="0" r="1" gradientUnits="userSpaceOnUse" gradientTransform="translate(406.658 432.795) rotate(8.78675) scale(205.607 124.313)">
<stop stop-color="#FF3BF1" stop-opacity="0.01"/>
<stop offset="1" stop-color="#FFC053" stop-opacity="0.5"/>
</radialGradient>
<radialGradient id="paint6_radial" cx="0" cy="0" r="1" gradientUnits="userSpaceOnUse" gradientTransform="translate(439.551 516.953) rotate(11.7983) scale(171.366 195.78)">
<stop stop-color="#F54190" stop-opacity="0.781335"/>
<stop offset="0.228595" stop-color="#FFB8B8" stop-opacity="0.725827"/>
<stop offset="0.555817" stop-color="#FFC75E" stop-opacity="0.289232"/>
<stop offset="1" stop-color="#FF8876" stop-opacity="0.01"/>
</radialGradient>
<radialGradient id="paint7_radial" cx="0" cy="0" r="1" gradientUnits="userSpaceOnUse" gradientTransform="translate(473.829 475.965) rotate(24.8778) scale(113.237 173.083)">
<stop stop-color="#A5409E" stop-opacity="0.01"/>
<stop offset="1" stop-color="#FF7697" stop-opacity="0.5"/>
</radialGradient>
<radialGradient id="paint8_radial" cx="0" cy="0" r="1" gradientUnits="userSpaceOnUse" gradientTransform="translate(430.14 576.272) rotate(-75.9811) scale(129.805 312.213)">
<stop stop-color="#FFB5B5" stop-opacity="0.01"/>
<stop offset="1" stop-color="#FF769B" stop-opacity="0.5"/>
</radialGradient>
<radialGradient id="paint9_radial" cx="0" cy="0" r="1" gradientUnits="userSpaceOnUse" gradientTransform="translate(425.256 451.908) rotate(17.1696) scale(125.041 141.246)">
<stop stop-color="#FF2A99" stop-opacity="0.01"/>
<stop offset="1" stop-color="#F9A9BC" stop-opacity="0.5"/>
</radialGradient>
<linearGradient id="paint10_linear" x1="417.923" y1="483.953" x2="417.923" y2="579.014" gradientUnits="userSpaceOnUse">
<stop stop-color="#FF49AC" stop-opacity="0.01"/>
<stop offset="1" stop-color="#FFCEA3" stop-opacity="0.5"/>
</linearGradient>
<linearGradient id="paint11_linear" x1="435.998" y1="567.843" x2="458.936" y2="581.562" gradientUnits="userSpaceOnUse">
<stop stop-color="white" stop-opacity="0.01"/>
<stop offset="1" stop-color="white" stop-opacity="0.5"/>
</linearGradient>
<linearGradient id="paint12_linear" x1="443.15" y1="567.221" x2="450.671" y2="569.07" gradientUnits="userSpaceOnUse">
<stop stop-color="white" stop-opacity="0.01"/>
<stop offset="1" stop-color="white" stop-opacity="0.5"/>
</linearGradient>
<linearGradient id="paint13_linear" x1="452.888" y1="569.62" x2="466.323" y2="574.977" gradientUnits="userSpaceOnUse">
<stop stop-color="white" stop-opacity="0.01"/>
<stop offset="1" stop-color="white" stop-opacity="0.5"/>
</linearGradient>
<linearGradient id="paint14_linear" x1="437.775" y1="557.748" x2="449.526" y2="572.843" gradientUnits="userSpaceOnUse">
<stop stop-color="white" stop-opacity="0.01"/>
<stop offset="1" stop-color="white" stop-opacity="0.5"/>
</linearGradient>
<radialGradient id="paint15_radial" cx="0" cy="0" r="1" gradientUnits="userSpaceOnUse" gradientTransform="translate(281.565 668.934) rotate(-32.0311) scale(151.132 135.933)">
<stop stop-color="#FF77F5" stop-opacity="0.01"/>
<stop offset="1" stop-color="#F9A9BC" stop-opacity="0.5"/>
</radialGradient>
<radialGradient id="paint16_radial" cx="0" cy="0" r="1" gradientUnits="userSpaceOnUse" gradientTransform="translate(275.565 665.934) rotate(-32.0311) scale(147.201 132.397)">
<stop stop-color="#713D8E" stop-opacity="0.01"/>
<stop offset="1" stop-color="#4F137F" stop-opacity="0.5"/>
</radialGradient>
<radialGradient id="paint17_radial" cx="0" cy="0" r="1" gradientUnits="userSpaceOnUse" gradientTransform="translate(263.647 683.039) rotate(-29.3426) scale(170.612 145.784)">
<stop stop-color="#FF77F5" stop-opacity="0.01"/>
<stop offset="1" stop-color="#F9A9BC" stop-opacity="0.5"/>
</radialGradient>
<radialGradient id="paint18_radial" cx="0" cy="0" r="1" gradientUnits="userSpaceOnUse" gradientTransform="translate(266.364 677.307) rotate(-29.1006) scale(166.078 141.176)">
<stop stop-color="#FF77F5" stop-opacity="0.01"/>
<stop offset="1" stop-color="#F9A9BC" stop-opacity="0.5"/>
</radialGradient>
<radialGradient id="paint19_radial" cx="0" cy="0" r="1" gradientUnits="userSpaceOnUse" gradientTransform="translate(264.307 675.307) rotate(-29.2222) scale(165.448 141.008)">
<stop stop-color="#FF77F5" stop-opacity="0.01"/>
<stop offset="1" stop-color="#F9A9BC" stop-opacity="0.5"/>
</radialGradient>
<linearGradient id="paint20_linear" x1="344.21" y1="620.313" x2="327.745" y2="638.232" gradientUnits="userSpaceOnUse">
<stop stop-opacity="0.8"/>
<stop offset="1" stop-opacity="0.01"/>
</linearGradient>
<linearGradient id="paint21_linear" x1="348.503" y1="599.953" x2="348.503" y2="611.087" gradientUnits="userSpaceOnUse">
<stop stop-color="#68FFFF"/>
<stop offset="1" stop-color="#00FFFF" stop-opacity="0.599015"/>
</linearGradient>
<linearGradient id="paint22_linear" x1="349.268" y1="599.953" x2="349.268" y2="605.52" gradientUnits="userSpaceOnUse">
<stop stop-color="#68FFFF"/>
<stop offset="1" stop-color="#00FFFF" stop-opacity="0.599015"/>
</linearGradient>
<linearGradient id="paint23_linear" x1="354.133" y1="602.942" x2="354.133" y2="611.337" gradientUnits="userSpaceOnUse">
<stop stop-color="#68FFFF"/>
<stop offset="1" stop-color="#00FFFF" stop-opacity="0.599015"/>
</linearGradient>
<linearGradient id="paint24_linear" x1="349.198" y1="608.828" x2="349.198" y2="626.228" gradientUnits="userSpaceOnUse">
<stop stop-color="white" stop-opacity="0.4"/>
<stop offset="1" stop-color="white" stop-opacity="0.798488"/>
</linearGradient>
<linearGradient id="paint25_linear" x1="354.05" y1="605.839" x2="354.05" y2="626.531" gradientUnits="userSpaceOnUse">
<stop stop-color="white" stop-opacity="0.2"/>
<stop offset="1" stop-color="white" stop-opacity="0.5"/>
</linearGradient>
<radialGradient id="paint26_radial" cx="0" cy="0" r="1" gradientUnits="userSpaceOnUse" gradientTransform="translate(494.483 144.953) rotate(105.666) scale(683.365)">
<stop stop-color="#A5409E" stop-opacity="0.6"/>
<stop offset="0.985752" stop-color="#190736" stop-opacity="0.39756"/>
</radialGradient>
<radialGradient id="paint27_radial" cx="0" cy="0" r="1" gradientUnits="userSpaceOnUse" gradientTransform="translate(468 605) rotate(-90) scale(312.095 98.644)">
<stop stop-color="#BF30FF"/>
<stop offset="1" stop-color="#FFAE71" stop-opacity="0.6"/>
</radialGradient>
<radialGradient id="paint28_radial" cx="0" cy="0" r="1" gradientUnits="userSpaceOnUse" gradientTransform="translate(427.876 451.908) rotate(31.7136) scale(70.219 125.76)">
<stop stop-color="#FF77F5" stop-opacity="0.01"/>
<stop offset="1" stop-color="#F9A9BC" stop-opacity="0.5"/>
</radialGradient>
<linearGradient id="paint29_linear" x1="424.376" y1="483.843" x2="424.376" y2="579.07" gradientUnits="userSpaceOnUse">
<stop stop-color="white" stop-opacity="0.01"/>
<stop offset="1" stop-color="white" stop-opacity="0.5"/>
</linearGradient>
</defs>
</svg>
