<svg width="243" height="612" xmlns="http://www.w3.org/2000/svg"><g fill="none"><g><path transform="scale(3)" fill="url(#paint0_radial)" d="M0 0h81v204H0z"/><g><g><mask id="a" maskUnits="userSpaceOnUse" x="24" y="477" width="195" height="111"><path transform="matrix(3 0 0 3 24 477)" fill="url(#paint1_linear)" d="M0 0h65v37H0z"/></mask><g mask="url(#a)"><path fill="#000" d="M24 477h195v111H24z"/><path stroke="#fff" d="M37.5 477v168M31.5 477v168M25.5 477v168M43.5 477v168M49.5 477v168M61.5 477v168M67.5 477v168M73.5 477v168M55.5 477v168M85.5 477v168M91.5 477v168M97.5 477v168M79.5 477v168M109.5 477v168M115.5 477v168M121.5 477v168M103.5 477v168M133.5 477v168M139.5 477v168M145.5 477v168M127.5 477v168M157.5 477v168M163.5 477v168M169.5 477v168M151.5 477v168M181.5 477v168M187.5 477v168M193.5 477v168M175.5 477v168M205.5 477v168M211.5 477v168M217.5 477v168M199.5 477v168M24 478.5h321M24 484.5h321M24 490.5h321M24 496.5h321M24 502.5h321M24 508.5h321M24 514.5h321M24 520.5h321M24 526.5h321M24 532.5h321M24 538.5h321M24 544.5h321M24 550.5h321M24 556.5h321M24 562.5h321M24 568.5h321M24 574.5h321M24 580.5h321M24 586.5h321" stroke-width="3"/></g></g></g><g><g transform="matrix(3 0 0 3 24 24)"><circle cx="32.5" cy="32.5" r="32.5" fill="url(#paint2_radial)"/><circle cx="32.5" cy="32.5" r="31.5" stroke="url(#paint3_linear)" stroke-width="2"/></g><g filter="url(#filter0_f)"><circle cx="21.815" cy="21.815" r="21.815" transform="matrix(3 0 0 3 56.05 56.054)" fill="#EB1E78"/></g><g filter="url(#filter1_f)"><circle cx="11.13" cy="11.13" r="11.13" transform="matrix(3 0 0 3 88.113 88.11)" fill="#EB1E78"/></g><circle cx="2.226" cy="2.226" r="2.226" transform="matrix(3 0 0 3 114.82 114.822)" fill="#FFE476"/></g></g></g><defs><filter id="filter0_f" x="11.051" y="11.054" width="220.89" height="220.89" filterUnits="userSpaceOnUse" color-interpolation-filters="sRGB"><feFlood flood-opacity="0" result="BackgroundImageFix"/><feBlend in="SourceGraphic" in2="BackgroundImageFix" result="shape"/><feGaussianBlur stdDeviation="7.5" result="effect1_foregroundBlur"/></filter><filter id="filter1_f" x="82.113" y="82.11" width="78.781" height="78.781" filterUnits="userSpaceOnUse" color-interpolation-filters="sRGB"><feFlood flood-opacity="0" result="BackgroundImageFix"/><feBlend in="SourceGraphic" in2="BackgroundImageFix" result="shape"/><feGaussianBlur stdDeviation="1" result="effect1_foregroundBlur"/></filter><radialGradient id="paint0_radial" cx=".5" cy=".5" r=".5" gradientUnits="userSpaceOnUse" gradientTransform="scale(158.132 398.258) rotate(90 .628 .128)"><stop stop-color="#622970"/><stop offset="1" stop-color="#100530"/></radialGradient><linearGradient id="paint1_linear" x2="1" gradientUnits="userSpaceOnUse" gradientTransform="matrix(0 37 -65.0006 -.07566 65.5 .038)"><stop stop-color="#fff" stop-opacity=".8"/><stop offset="1" stop-color="#fff" stop-opacity=".1"/></linearGradient><radialGradient id="paint2_radial" cx=".5" cy=".5" r=".5" gradientUnits="userSpaceOnUse" gradientTransform="rotate(90 79.698 16.25) scale(126.896)"><stop stop-color="#622970"/><stop offset="1" stop-color="#100530"/></radialGradient><linearGradient id="paint3_linear" x2="1" gradientUnits="userSpaceOnUse" gradientTransform="matrix(0 65 -65 0 65 0)"><stop stop-color="#fff"/><stop offset="1" stop-color="#fff" stop-opacity=".25"/></linearGradient></defs></svg>