<svg width="30" height="30" xmlns="http://www.w3.org/2000/svg" xmlns:xlink="http://www.w3.org/1999/xlink"><use xlink:href="#path0_fill" transform="translate(1 27)" fill="#FFF"/><use xlink:href="#path1_fill" transform="translate(1 26)" fill="#FFF"/><use xlink:href="#path2_fill" transform="translate(1 1)" fill="#FFF"/><use xlink:href="#path0_fill" transform="translate(1 28)" fill="gray"/><use xlink:href="#path0_fill" transform="translate(28 2)" fill="gray"/><use xlink:href="#path3_fill" transform="translate(2 27)" fill="gray"/><use xlink:href="#path1_fill" transform="translate(27 3)" fill="gray"/><use xlink:href="#path4_fill" transform="translate(3 26)" fill="gray"/><use xlink:href="#path5_fill" transform="translate(26 4)" fill="gray"/><use xlink:href="#path0_fill" transform="translate(28 1)" fill="#FFF"/><use xlink:href="#path3_fill" transform="translate(27 1)" fill="#FFF"/><use xlink:href="#path6_fill" transform="translate(3 1)" fill="#FFF"/><use xlink:href="#path7_fill" transform="translate(13 14)"/><use xlink:href="#path8_fill" transform="translate(10 14)"/><use xlink:href="#path9_fill" transform="translate(11 13)"/><use xlink:href="#path10_fill" transform="translate(12 12)"/><use xlink:href="#path11_fill" transform="translate(13 11)"/><use xlink:href="#path1_fill" transform="translate(14 10)"/><use xlink:href="#path0_fill" transform="translate(14.5 9)"/><g transform="translate(-46280 -6921)"><use xlink:href="#path12_stroke" transform="translate(46281 6922)"/></g><defs><path id="path0_fill" d="M0 0h1v1H0V0z"/><path id="path1_fill" d="M0 0h2v1H0V0z"/><path id="path2_fill" d="M0 0h3v25H0V0z"/><path id="path3_fill" d="M0 0h1v2H0V0z"/><path id="path4_fill" d="M0 0h26v3H0V0z"/><path id="path5_fill" d="M0 0h3v24H0V0z"/><path id="path6_fill" d="M0 0h24v3H0V0z"/><path id="path7_fill" d="M0 0h4v7H0V0z"/><path id="path8_fill" d="M0 0h10v1H0V0z"/><path id="path9_fill" d="M0 0h8v1H0V0z"/><path id="path10_fill" d="M0 0h6v1H0V0z"/><path id="path11_fill" d="M0 0h4v1H0V0z"/><path id="path12_stroke" d="M0 0v-.5h-.5V0H0zm28 0h.5v-.5H28V0zm0 28v.5h.5V28H28zM0 28h-.5v.5H0V28zM0 .5h28v-1H0v1zM27.5 0v28h1V0h-1zm.5 27.5H0v1h28v-1zM.5 28V0h-1v28h1z"/></defs></svg>