<svg viewBox="0 0 522 669" fill="none" xmlns="http://www.w3.org/2000/svg">
  <path fill-rule="evenodd" clip-rule="evenodd" d="M0 0l399 187.115V356L0 168.885V0z" transform="translate(131 289)" fill="url(#paint0_linear)"/>
  <path fill-rule="evenodd" clip-rule="evenodd" d="M0 0l617.706 286.967L751 439 133.294 152.033 0 0z" transform="translate(1 140)" fill="url(#paint1_linear)"/>
  <path fill-rule="evenodd" clip-rule="evenodd" d="M0 0l176 81.6024V456L0 374.398V0z" transform="translate(1 140)" fill="url(#paint2_linear)"/>
  <path fill-rule="evenodd" clip-rule="evenodd" d="M0 0l176 81.6108V416L0 334.389V0z" transform="translate(41 160)" fill="url(#paint3_linear)"/>
  <path fill-rule="evenodd" clip-rule="evenodd" d="M0 0l87 39.6832V374L0 334.317V0z" transform="translate(39 159)" fill="url(#paint4_linear)"/>
  <path fill-rule="evenodd" clip-rule="evenodd" d="M0 0l87 40.1701V77H0V0z" transform="translate(39 169)" fill="url(#paint5_linear)"/>
  <path fill-rule="evenodd" clip-rule="evenodd" d="M0 0l87 39.7765V50L0 10.2235V0z" transform="translate(39 158)" fill="url(#paint6_linear)"/>
  <path fill-rule="evenodd" clip-rule="evenodd" d="M0 0l259 120.112V260L0 139.888V0z" transform="translate(300 399)" fill="url(#paint7_linear)"/>
  <path fill-rule="evenodd" clip-rule="evenodd" d="M0 0l259 120.112V260L0 139.888V0z" transform="translate(322 409)" fill="url(#paint8_linear)"/>
  <path fill-rule="evenodd" clip-rule="evenodd" d="M0 138.484L618.1 425 980 286.516 361.9 0 0 138.484z" transform="translate(1 1)" fill="url(#paint9_linear)"/>
  <path fill-rule="evenodd" clip-rule="evenodd" d="M0 78.4839L618.1 365 980 286.516 361.9 0 0 78.4839z" fill="url(#paint10_linear)"/>
  <path opacity=".8" fill-rule="evenodd" clip-rule="evenodd" d="M67.35833 268.7029v-9.856c0-8.512 0-10.07997-.12227-11.92859-.12227-1.96062-.61136-3.0831-2.62885-4.40933-.48908-.33848-1.52839-.87575-2.3843-1.27209-.672494-.311406-1.03931-.593266-1.03931-.985266s.427952-.3058303 1.34499.11882c3.24021 1.500426 7.09177 3.451956 8.80361 4.244646 2.5065 1.16071 6.0524 2.63469 8.8647 3.93695 7.642 3.53876 10.3931 7.16466 11.3713 8.45766 1.345 1.7988 3.0568 5.1115 3.0568 8.0795 0 7.952-6.3582 10.6078-15.0395 6.5877-.3057-.1415-.9781-.4529-1.2838-.6505-.3057-.1975-.7337-.4517-.7337-.8437 0-.448.428-.4178 1.7118.1767 3.4237 1.5853 8.1923.2655 8.1923-5.4465 0-1.848-.1834-5.6849-3.6071-10.0703-2.2008-2.8671-4.7074-4.3638-6.1135-5.01496-.9171-.42465-1.8341-.7933-2.3844-.88009-.3056-.02955-.489.22152-.489.83752v22.40003c0 5.152 0 9.576.3056 12.1255.1834 1.6529.5503 3.0548 2.3843 4.1281.8559.5083 2.2009 1.2432 3.118 1.6678.6725.3114.9782.621.9782.901 0 .392-.4891.3335-1.1616.0221-4.035-1.8685-7.8866-3.82-9.47611-4.5561-1.40613-.6511-5.25769-2.2666-7.70313-3.399-.79477-.3681-1.22272-.7342-1.22272-1.1262 0-.28.24454-.3348.97818.0049.91703.4247 1.65067.6524 2.20089.7952 1.22272.3422 1.5284-.7483 1.77294-2.259.30568-2.2105.30568-6.6345.30568-11.7865zm0 80v-9.856c0-8.512 0-10.07997-.12227-11.92859-.12227-1.96062-.61136-3.0831-2.62885-4.40933-.48908-.33848-1.52839-.87575-2.3843-1.27209-.672494-.311406-1.03931-.593266-1.03931-.985266s.427952-.3058303 1.34499.11882c1.65067.764366 3.42362 1.641356 4.95202 2.349106 1.58953.79206 2.99566 1.4992 3.85159 1.89554 1.9563.90592 14.1224 6.53961 15.284 7.02151 1.1615.4259 2.1397.7668 2.6288.8813.3057.0856.6725.0874.9782.229.3057.1415.3668.3938.3668.6738 0 .392-.3057.9225-.4891 3.4136-.0611.5316-.1834 2.939-.3057 3.5544-.0611.2517-.1834.5311-.6113.3329-.428-.1982-.5502-.5348-.5502-1.0388 0-.392-.0612-1.3723-.3669-2.1858-.4279-1.2062-1.0393-2.1613-4.0961-3.9128-1.0393-.5933-7.4586-3.67783-8.6813-4.24403-.3057-.14155-.4279-.03017-.4279.36183v14.168c0 .392.0611.6443.4279.8142 1.345.6228 8.3756 3.8784 9.7818 4.4176 1.4672.5674 2.3843.8241 2.9345.5188.428-.2498.6725-.4165.9782-.275.2445.1132.4279.3102.4279.6462s-.2445 1.1187-.4891 3.8615c-.0611 1.0917-.2445 3.2468-.2445 3.6388 0 .448 0 1.064-.5502.8092-.428-.1982-.5503-.4788-.5503-.7588-.0611-.5883-.0611-1.3163-.2445-2.1293-.3057-1.2615-1.1616-2.4979-3.4236-3.7693-1.1616-.6499-7.2141-3.5086-8.6813-4.188-.3057-.1416-.3668.0541-.3668.3901v4.424c0 1.904-.0612 7.0277 0 8.68.1222 3.9206 1.1004 5.2136 7.3363 8.1012 1.5895.7361 4.1572 1.9251 5.7468 1.9891 1.5895.0641 2.3231-.7722 2.7511-2.87.1223-.5594.2445-.7268.6725-.5286.4891.2265.4891.6745.4891 1.2345 0 1.288-.4891 4.8695-.7948 5.8479-.428 1.2579-.9782 1.0031-3.3013-.0727-4.5852-2.1232-7.9477-3.7923-10.5766-5.0656-2.6288-1.3294-4.524-2.263-6.35811-3.1123-.67249-.3114-2.01749-.9342-3.48475-1.5576-1.40613-.6512-2.99566-1.2752-4.21838-1.8414-.79477-.3681-1.22272-.7342-1.22272-1.1262 0-.28.24454-.3348.97818.0049.91703.4247 1.65067.6524 2.20089.7952 1.22272.3422 1.5284-.7483 1.77294-2.259.30568-2.2105.30568-6.6345.30568-11.7865zm-2.1836 79v-9.856c0-8.512 0-10.07997-.12227-11.92859-.12227-1.96062-.61136-3.0831-2.62885-4.40933-.48908-.33848-1.52839-.87575-2.3843-1.27209-.672494-.311406-1.03931-.593266-1.03931-.985266s.427952-.3058303 1.34499.11882c3.24021 1.500426 7.09177 3.451956 8.31449 4.018166 2.99562 1.38719 5.37992 2.32328 7.45862 3.28582C87.1837 411.7985 89.14 418.1365 89.14 421.1045c0 4.592-2.8734 6.0054-6.2358 6.9123 5.0131 3.8895 11.1267 10.6965 11.1267 17.2485 0 5.992-5.0743 9.8582-16.3233 4.6492-.7336-.3397-2.5066-1.2727-4.2795-2.1497-1.8341-.9613-3.6682-1.8666-4.58521-2.2913-.67249-.3114-2.01749-.9342-3.48475-1.5576-1.40613-.6512-2.99566-1.2752-4.21838-1.8414-.79477-.3681-1.22272-.7342-1.22272-1.1262 0-.28.24454-.3348.97818.0049.91703.4247 1.65067.6524 2.20089.7952 1.22272.3422 1.5284-.7483 1.77294-2.259.30568-2.2105.30568-6.6345.30568-11.7865zm7.33697-19.33909v13.83199c0 .448.1834.6449.428.8142.5502.3668 1.4672.8474 2.8734 1.4985 2.0174.9343 3.3624 1.3331 4.4018.9744 1.5895-.44 2.5065-2.0313 2.5065-4.7753 0-3.752-2.3843-9.7841-7.642-12.21877-.8559-.39634-1.4061-.65113-2.0175-.82223-.4279-.08617-.5502.08121-.5502.69721zm14.0002 35.93899c0-3.472-1.2839-8.7705-5.9302-13.89-1.2839-1.4345-2.69-2.4777-5.0743-3.6938-1.1005-.5655-1.7118-.8486-2.6289-1.2733-.2445-.1132-.3668-.0579-.3668.2221v13.272c0 3.696.1834 4.733 2.1398 6.3669 1.6506 1.3804 3.0568 2.0875 4.4629 2.7386 2.7511 1.274 7.3975 2.0815 7.3975-3.7425z" fill="#FFC45B"/>
  <defs>
    <linearGradient id="paint0_linear" x2="1" gradientUnits="userSpaceOnUse" gradientTransform="matrix(-159.89101 104.29656 -116.89402 -142.65985 175.43 59.7443)">
      <stop stop-color="#AA7A6F"/>
      <stop offset="1" stop-color="#AA7A6F" stop-opacity=".01"/>
    </linearGradient>
    <linearGradient id="paint1_linear" x2="1" gradientUnits="userSpaceOnUse" gradientTransform="scale(-404.972 -236.728) rotate(-83.468 -.47415954 .14088976)">
      <stop stop-color="#AA7A6F"/>
      <stop offset="1" stop-color="#AA7A6F" stop-opacity=".01"/>
    </linearGradient>
    <linearGradient id="paint2_linear" x2="1" gradientUnits="userSpaceOnUse" gradientTransform="matrix(88.00033 236.28694 -91.19866 228.00039 88 205.057)">
      <stop stop-color="#AA7A6F"/>
      <stop offset="1" stop-color="#AA7A6F" stop-opacity=".01"/>
    </linearGradient>
    <linearGradient id="paint3_linear" x2="1" gradientUnits="userSpaceOnUse" gradientTransform="matrix(-70.52839 121.87457 -51.56229 -166.70356 77.3826 69.8136)">
      <stop stop-color="#AA7A6F"/>
      <stop offset="1" stop-color="#AA7A6F" stop-opacity=".01"/>
    </linearGradient>
    <linearGradient id="paint4_linear" x2="1" gradientUnits="userSpaceOnUse" gradientTransform="matrix(0 345.041 -80.2637 0 51.8289 20.6723)">
      <stop stop-color="#E04E4E"/>
      <stop offset="1" stop-color="#AA7A6F" stop-opacity=".01"/>
    </linearGradient>
    <linearGradient id="paint5_linear" x2="1" gradientUnits="userSpaceOnUse" gradientTransform="matrix(-19.30108 52.13783 -58.90896 -17.08258 53.7089 24.8623)">
      <stop stop-color="#B64040"/>
      <stop offset=".272241" stop-color="#CC504F" stop-opacity=".667289"/>
      <stop offset="1" stop-color="#C75C59" stop-opacity=".01"/>
    </linearGradient>
    <linearGradient id="paint6_linear" x2="1" gradientUnits="userSpaceOnUse" gradientTransform="matrix(0 43.1067 -75.0056 0 51.8289 4.25667)">
      <stop stop-color="#FFDE8A"/>
      <stop offset="1" stop-color="#FFE083" stop-opacity=".496915"/>
    </linearGradient>
    <linearGradient id="paint7_linear" x2="1" gradientUnits="userSpaceOnUse" gradientTransform="matrix(0 236.767 -235.857 0 129.5 1.18645)">
      <stop stop-color="#3B1843" stop-opacity=".4"/>
      <stop offset="1" stop-color="#AA7A6F" stop-opacity=".01"/>
    </linearGradient>
    <linearGradient id="paint8_linear" x2="1" gradientUnits="userSpaceOnUse" gradientTransform="matrix(0 236.767 -235.857 0 129.5 1.18645)">
      <stop stop-color="#3B1843" stop-opacity=".4"/>
      <stop offset="1" stop-color="#AA7A6F" stop-opacity=".01"/>
    </linearGradient>
    <linearGradient id="paint9_linear" x2="1" gradientUnits="userSpaceOnUse" gradientTransform="matrix(0 403.778 -931.065 0 490 0)">
      <stop stop-color="#AA7A6F"/>
      <stop offset="1" stop-color="#AA7A6F" stop-opacity=".01"/>
    </linearGradient>
    <linearGradient id="paint10_linear" x2="1" gradientUnits="userSpaceOnUse" gradientTransform="matrix(-392.71479 106.9329 -287.10813 -146.26592 430.88100289 61.25470056)">
      <stop stop-color="#AA7A6F"/>
      <stop offset="1" stop-color="#AA7A6F" stop-opacity=".01"/>
    </linearGradient>
  </defs>
</svg>
