<svg width="125" height="190" viewBox="0 0 125 190" version="1.1" xmlns="http://www.w3.org/2000/svg" xmlns:xlink="http://www.w3.org/1999/xlink">
<title>Group 33</title>
<desc>Created using Figma</desc>
<g id="Canvas" transform="translate(-45607 -2901)">
<g id="Group 33">
<g id="Rectangle 2.9">
<use xlink:href="#path0_fill" transform="translate(45629 2923)" fill="url(#paint0_radial)"/>
</g>
<g id="Group 27">
<g id="Mask Group">
<mask id="mask0_alpha" mask-type="alpha">
<g id="Rectangle 4">
<use xlink:href="#path1_fill" transform="translate(45637 3046)" fill="url(#paint1_linear)"/>
</g>
</mask>
<g id="Rectangle 4" mask="url(#mask0_alpha)">
<use xlink:href="#path1_fill" transform="translate(45637 3046)"/>
</g>
<g id="Line" mask="url(#mask0_alpha)">
<use xlink:href="#path2_stroke" transform="matrix(6.12323e-17 1 -1 6.12323e-17 45641 3046)" fill="#FFFFFF"/>
</g>
<g id="Line" mask="url(#mask0_alpha)">
<use xlink:href="#path2_stroke" transform="matrix(6.12323e-17 1 -1 6.12323e-17 45639 3046)" fill="#FFFFFF"/>
</g>
<g id="Line" mask="url(#mask0_alpha)">
<use xlink:href="#path2_stroke" transform="matrix(6.12323e-17 1 -1 6.12323e-17 45637 3046)" fill="#FFFFFF"/>
</g>
<g id="Line" mask="url(#mask0_alpha)">
<use xlink:href="#path2_stroke" transform="matrix(6.12323e-17 1 -1 6.12323e-17 45643 3046)" fill="#FFFFFF"/>
</g>
<g id="Line" mask="url(#mask0_alpha)">
<use xlink:href="#path2_stroke" transform="matrix(6.12323e-17 1 -1 6.12323e-17 45645 3046)" fill="#FFFFFF"/>
</g>
<g id="Line" mask="url(#mask0_alpha)">
<use xlink:href="#path2_stroke" transform="matrix(6.12323e-17 1 -1 6.12323e-17 45649 3046)" fill="#FFFFFF"/>
</g>
<g id="Line" mask="url(#mask0_alpha)">
<use xlink:href="#path2_stroke" transform="matrix(6.12323e-17 1 -1 6.12323e-17 45651 3046)" fill="#FFFFFF"/>
</g>
<g id="Line" mask="url(#mask0_alpha)">
<use xlink:href="#path2_stroke" transform="matrix(6.12323e-17 1 -1 6.12323e-17 45653 3046)" fill="#FFFFFF"/>
</g>
<g id="Line" mask="url(#mask0_alpha)">
<use xlink:href="#path2_stroke" transform="matrix(6.12323e-17 1 -1 6.12323e-17 45647 3046)" fill="#FFFFFF"/>
</g>
<g id="Line" mask="url(#mask0_alpha)">
<use xlink:href="#path2_stroke" transform="matrix(6.12323e-17 1 -1 6.12323e-17 45657 3046)" fill="#FFFFFF"/>
</g>
<g id="Line" mask="url(#mask0_alpha)">
<use xlink:href="#path2_stroke" transform="matrix(6.12323e-17 1 -1 6.12323e-17 45659 3046)" fill="#FFFFFF"/>
</g>
<g id="Line" mask="url(#mask0_alpha)">
<use xlink:href="#path2_stroke" transform="matrix(6.12323e-17 1 -1 6.12323e-17 45661 3046)" fill="#FFFFFF"/>
</g>
<g id="Line" mask="url(#mask0_alpha)">
<use xlink:href="#path2_stroke" transform="matrix(6.12323e-17 1 -1 6.12323e-17 45655 3046)" fill="#FFFFFF"/>
</g>
<g id="Line" mask="url(#mask0_alpha)">
<use xlink:href="#path2_stroke" transform="matrix(6.12323e-17 1 -1 6.12323e-17 45665 3046)" fill="#FFFFFF"/>
</g>
<g id="Line" mask="url(#mask0_alpha)">
<use xlink:href="#path2_stroke" transform="matrix(6.12323e-17 1 -1 6.12323e-17 45667 3046)" fill="#FFFFFF"/>
</g>
<g id="Line" mask="url(#mask0_alpha)">
<use xlink:href="#path2_stroke" transform="matrix(6.12323e-17 1 -1 6.12323e-17 45669 3046)" fill="#FFFFFF"/>
</g>
<g id="Line" mask="url(#mask0_alpha)">
<use xlink:href="#path2_stroke" transform="matrix(6.12323e-17 1 -1 6.12323e-17 45663 3046)" fill="#FFFFFF"/>
</g>
<g id="Line" mask="url(#mask0_alpha)">
<use xlink:href="#path2_stroke" transform="matrix(6.12323e-17 1 -1 6.12323e-17 45673 3046)" fill="#FFFFFF"/>
</g>
<g id="Line" mask="url(#mask0_alpha)">
<use xlink:href="#path2_stroke" transform="matrix(6.12323e-17 1 -1 6.12323e-17 45675 3046)" fill="#FFFFFF"/>
</g>
<g id="Line" mask="url(#mask0_alpha)">
<use xlink:href="#path2_stroke" transform="matrix(6.12323e-17 1 -1 6.12323e-17 45677 3046)" fill="#FFFFFF"/>
</g>
<g id="Line" mask="url(#mask0_alpha)">
<use xlink:href="#path2_stroke" transform="matrix(6.12323e-17 1 -1 6.12323e-17 45671 3046)" fill="#FFFFFF"/>
</g>
<g id="Line" mask="url(#mask0_alpha)">
<use xlink:href="#path2_stroke" transform="matrix(6.12323e-17 1 -1 6.12323e-17 45681 3046)" fill="#FFFFFF"/>
</g>
<g id="Line" mask="url(#mask0_alpha)">
<use xlink:href="#path2_stroke" transform="matrix(6.12323e-17 1 -1 6.12323e-17 45683 3046)" fill="#FFFFFF"/>
</g>
<g id="Line" mask="url(#mask0_alpha)">
<use xlink:href="#path2_stroke" transform="matrix(6.12323e-17 1 -1 6.12323e-17 45685 3046)" fill="#FFFFFF"/>
</g>
<g id="Line" mask="url(#mask0_alpha)">
<use xlink:href="#path2_stroke" transform="matrix(6.12323e-17 1 -1 6.12323e-17 45679 3046)" fill="#FFFFFF"/>
</g>
<g id="Line" mask="url(#mask0_alpha)">
<use xlink:href="#path2_stroke" transform="matrix(6.12323e-17 1 -1 6.12323e-17 45689 3046)" fill="#FFFFFF"/>
</g>
<g id="Line" mask="url(#mask0_alpha)">
<use xlink:href="#path2_stroke" transform="matrix(6.12323e-17 1 -1 6.12323e-17 45691 3046)" fill="#FFFFFF"/>
</g>
<g id="Line" mask="url(#mask0_alpha)">
<use xlink:href="#path2_stroke" transform="matrix(6.12323e-17 1 -1 6.12323e-17 45693 3046)" fill="#FFFFFF"/>
</g>
<g id="Line" mask="url(#mask0_alpha)">
<use xlink:href="#path2_stroke" transform="matrix(6.12323e-17 1 -1 6.12323e-17 45687 3046)" fill="#FFFFFF"/>
</g>
<g id="Line" mask="url(#mask0_alpha)">
<use xlink:href="#path2_stroke" transform="matrix(6.12323e-17 1 -1 6.12323e-17 45697 3046)" fill="#FFFFFF"/>
</g>
<g id="Line" mask="url(#mask0_alpha)">
<use xlink:href="#path2_stroke" transform="matrix(6.12323e-17 1 -1 6.12323e-17 45699 3046)" fill="#FFFFFF"/>
</g>
<g id="Line" mask="url(#mask0_alpha)">
<use xlink:href="#path2_stroke" transform="matrix(6.12323e-17 1 -1 6.12323e-17 45701 3046)" fill="#FFFFFF"/>
</g>
<g id="Line" mask="url(#mask0_alpha)">
<use xlink:href="#path2_stroke" transform="matrix(6.12323e-17 1 -1 6.12323e-17 45695 3046)" fill="#FFFFFF"/>
</g>
<g id="Line 2" mask="url(#mask0_alpha)">
<use xlink:href="#path3_stroke" transform="translate(45637 3047)" fill="#FFFFFF"/>
</g>
<g id="Line 2.1" mask="url(#mask0_alpha)">
<use xlink:href="#path3_stroke" transform="translate(45637 3049)" fill="#FFFFFF"/>
</g>
<g id="Line 2.2" mask="url(#mask0_alpha)">
<use xlink:href="#path3_stroke" transform="translate(45637 3051)" fill="#FFFFFF"/>
</g>
<g id="Line 2.3" mask="url(#mask0_alpha)">
<use xlink:href="#path3_stroke" transform="translate(45637 3053)" fill="#FFFFFF"/>
</g>
<g id="Line 2.4" mask="url(#mask0_alpha)">
<use xlink:href="#path3_stroke" transform="translate(45637 3055)" fill="#FFFFFF"/>
</g>
<g id="Line 2.5" mask="url(#mask0_alpha)">
<use xlink:href="#path3_stroke" transform="translate(45637 3057)" fill="#FFFFFF"/>
</g>
<g id="Line 2.6" mask="url(#mask0_alpha)">
<use xlink:href="#path3_stroke" transform="translate(45637 3059)" fill="#FFFFFF"/>
</g>
<g id="Line 2.7" mask="url(#mask0_alpha)">
<use xlink:href="#path3_stroke" transform="translate(45637 3061)" fill="#FFFFFF"/>
</g>
<g id="Line 2.8" mask="url(#mask0_alpha)">
<use xlink:href="#path3_stroke" transform="translate(45637 3063)" fill="#FFFFFF"/>
</g>
<g id="Line 2.9" mask="url(#mask0_alpha)">
<use xlink:href="#path3_stroke" transform="translate(45637 3065)" fill="#FFFFFF"/>
</g>
<g id="Line 2.10" mask="url(#mask0_alpha)">
<use xlink:href="#path3_stroke" transform="translate(45637 3067)" fill="#FFFFFF"/>
</g>
<g id="Line 2.11" mask="url(#mask0_alpha)">
<use xlink:href="#path3_stroke" transform="translate(45637 3069)" fill="#FFFFFF"/>
</g>
<g id="Line 2.12" mask="url(#mask0_alpha)">
<use xlink:href="#path3_stroke" transform="translate(45637 3071)" fill="#FFFFFF"/>
</g>
<g id="Line 2.13" mask="url(#mask0_alpha)">
<use xlink:href="#path3_stroke" transform="translate(45637 3073)" fill="#FFFFFF"/>
</g>
<g id="Line 2.14" mask="url(#mask0_alpha)">
<use xlink:href="#path3_stroke" transform="translate(45637 3075)" fill="#FFFFFF"/>
</g>
<g id="Line 2.15" mask="url(#mask0_alpha)">
<use xlink:href="#path3_stroke" transform="translate(45637 3077)" fill="#FFFFFF"/>
</g>
<g id="Line 2.16" mask="url(#mask0_alpha)">
<use xlink:href="#path3_stroke" transform="translate(45637 3079)" fill="#FFFFFF"/>
</g>
<g id="Line 2.17" mask="url(#mask0_alpha)">
<use xlink:href="#path3_stroke" transform="translate(45637 3081)" fill="#FFFFFF"/>
</g>
<g id="Line 2.18" mask="url(#mask0_alpha)">
<use xlink:href="#path3_stroke" transform="translate(45637 3083)" fill="#FFFFFF"/>
</g>
</g>
</g>
<g id="Group 28">
<g id="Ellipse 3.2" filter="url(#filter0_f)">
<use xlink:href="#path4_fill" transform="translate(45637 2931)" fill="#EB1E78" fill-opacity="0.5"/>
</g>
<g id="Ellipse">
<use xlink:href="#path4_fill" transform="translate(45637 2931)" fill="url(#paint56_radial)"/>
<mask id="mask1_outline_ins">
<use xlink:href="#path4_fill" fill="white" transform="translate(45637 2931)"/>
</mask>
<g mask="url(#mask1_outline_ins)">
<use xlink:href="#path5_stroke_2x" transform="translate(45637 2931)" fill="url(#paint57_linear)"/>
</g>
</g>
<g id="Ellipse 3" filter="url(#filter1_f)">
<use xlink:href="#path6_fill" transform="translate(45647.7 2941.68)" fill="#EB1E78"/>
</g>
<g id="Ellipse 3.1" filter="url(#filter2_f)">
<use xlink:href="#path7_fill" transform="translate(45658.4 2952.37)" fill="#EB1E78"/>
</g>
<g id="Ellipse 2">
<use xlink:href="#path8_fill" transform="translate(45667.3 2961.27)" fill="#FFE476"/>
</g>
</g>
</g>
</g>
<defs>
<filter id="filter0_f" filterUnits="userSpaceOnUse" x="45607" y="2901" width="125" height="125" color-interpolation-filters="sRGB">
<feFlood flood-opacity="0" result="BackgroundImageFix"/>
<feBlend mode="normal" in="SourceGraphic" in2="BackgroundImageFix" result="shape"/>
<feGaussianBlur stdDeviation="15" result="effect1_foregroundBlur"/>
</filter>
<filter id="filter1_f" filterUnits="userSpaceOnUse" x="45632" y="2926" width="75" height="75" color-interpolation-filters="sRGB">
<feFlood flood-opacity="0" result="BackgroundImageFix"/>
<feBlend mode="normal" in="SourceGraphic" in2="BackgroundImageFix" result="shape"/>
<feGaussianBlur stdDeviation="7.5" result="effect1_foregroundBlur"/>
</filter>
<filter id="filter2_f" filterUnits="userSpaceOnUse" x="45656" y="2950" width="27" height="27" color-interpolation-filters="sRGB">
<feFlood flood-opacity="0" result="BackgroundImageFix"/>
<feBlend mode="normal" in="SourceGraphic" in2="BackgroundImageFix" result="shape"/>
<feGaussianBlur stdDeviation="1" result="effect1_foregroundBlur"/>
</filter>
<radialGradient id="paint0_radial" cx="0.5" cy="0.5" r="0.5" gradientUnits="userSpaceOnUse" gradientTransform="matrix(0 327.977 -158.132 0 119.566 -163.988)">
<stop offset="0" stop-color="#622970"/>
<stop offset="1" stop-color="#100530"/>
</radialGradient>
<linearGradient id="paint1_linear" x1="0" y1="0" x2="1" y2="0" gradientUnits="userSpaceOnUse" gradientTransform="matrix(1.78114e-06 37 -65.0006 -0.0756584 65.5003 0.0378315)">
<stop offset="0" stop-color="#FFFFFF" stop-opacity="0.8"/>
<stop offset="1" stop-color="#FFFFFF" stop-opacity="0.1"/>
</linearGradient>
<radialGradient id="paint56_radial" cx="0.5" cy="0.5" r="0.5" gradientUnits="userSpaceOnUse" gradientTransform="matrix(0 126.896 -126.896 0 95.9479 -63.4479)">
<stop offset="0" stop-color="#622970"/>
<stop offset="1" stop-color="#100530"/>
</radialGradient>
<linearGradient id="paint57_linear" x1="0" y1="0" x2="1" y2="0" gradientUnits="userSpaceOnUse" gradientTransform="matrix(3.9801e-15 65 -65 3.9801e-15 65 -3.9801e-15)">
<stop offset="0" stop-color="#FFFFFF"/>
<stop offset="1" stop-color="#FFFFFF" stop-opacity="0.25"/>
</linearGradient>
<path id="path0_fill" d="M 0 0L 81 0L 81 168L 0 168L 0 0Z"/>
<path id="path1_fill" d="M 0 0L 65 0L 65 37L 0 37L 0 0Z"/>
<path id="path2_stroke" d="M 0 0L 56 0L 56 -1L 0 -1L 0 0Z"/>
<path id="path3_stroke" d="M 0 -5.55112e-17L 107 -5.55112e-17L 107 -1L 0 -1L 0 -5.55112e-17Z"/>
<path id="path4_fill" d="M 65 32.5C 65 50.4493 50.4493 65 32.5 65C 14.5507 65 0 50.4493 0 32.5C 0 14.5507 14.5507 0 32.5 0C 50.4493 0 65 14.5507 65 32.5Z"/>
<path id="path5_stroke_2x" d="M 63 32.5C 63 49.3447 49.3447 63 32.5 63L 32.5 67C 51.5538 67 67 51.5538 67 32.5L 63 32.5ZM 32.5 63C 15.6553 63 2 49.3447 2 32.5L -2 32.5C -2 51.5538 13.4462 67 32.5 67L 32.5 63ZM 2 32.5C 2 15.6553 15.6553 2 32.5 2L 32.5 -2C 13.4462 -2 -2 13.4462 -2 32.5L 2 32.5ZM 32.5 2C 49.3447 2 63 15.6553 63 32.5L 67 32.5C 67 13.4462 51.5538 -2 32.5 -2L 32.5 2Z"/>
<path id="path6_fill" d="M 43.6301 21.8151C 43.6301 33.8632 33.8632 43.6301 21.8151 43.6301C 9.76694 43.6301 0 33.8632 0 21.8151C 0 9.76694 9.76694 0 21.8151 0C 33.8632 0 43.6301 9.76694 43.6301 21.8151Z"/>
<path id="path7_fill" d="M 22.2603 11.1301C 22.2603 17.2771 17.2771 22.2603 11.1301 22.2603C 4.98313 22.2603 0 17.2771 0 11.1301C 0 4.98313 4.98313 0 11.1301 0C 17.2771 0 22.2603 4.98313 22.2603 11.1301Z"/>
<path id="path8_fill" d="M 4.45205 2.22603C 4.45205 3.45543 3.45543 4.45205 2.22603 4.45205C 0.996626 4.45205 0 3.45543 0 2.22603C 0 0.996626 0.996626 0 2.22603 0C 3.45543 0 4.45205 0.996626 4.45205 2.22603Z"/>
</defs>
</svg>
