<svg xmlns="http://www.w3.org/2000/svg" fill="none" viewBox="0 0 36 16">
  <path fill="#313131" fill-rule="evenodd" d="M29.5026 3.16555C29.3734 3.10812 29.1509 2.99327 28.8351 2.821C27.9163 2.31853 26.9006 1.87349 25.788 1.48587C24.6754 1.09825 22.9634 0.753703 20.652 0.452221C18.3407 0.150739 15.369 0 11.7368 0C10.8898 0 9.33218 0.0717803 7.06388 0.215343C4.79559 0.358906 3.421 0.448631 2.94006 0.484522C2.45913 0.520413 1.98538 0.671152 1.5188 0.936743C1.05222 1.20233 0.682548 1.50022 0.409778 1.83042C0.137009 2.16061 0.000626225 2.47645 0.000626225 2.77793C0.000626225 3.32347 0.165721 3.79722 0.495916 4.19919C0.82611 4.60117 1.28909 4.90265 1.88488 5.10363C2.48066 5.30462 3.20206 5.41229 4.04908 5.42665L8.33441 5.55585L8.42055 5.85734C8.19084 6.40287 8.076 6.84073 8.076 7.17093C8.076 7.5729 8.25904 8.04307 8.62512 8.58143C8.99121 9.11979 9.27115 9.4105 9.46496 9.45357C9.65877 9.49664 9.9746 9.60072 10.4125 9.76581C10.8503 9.93091 11.1123 10.0852 11.1985 10.2288C11.0549 10.8031 10.9831 11.1978 10.9831 11.4132C10.9831 11.8295 11.098 12.2064 11.3277 12.5437C11.5574 12.8811 12.0455 13.1934 12.792 13.4805C13.2083 13.6384 13.4452 13.7748 13.5026 13.8896C13.5026 14.7079 13.7503 15.2571 14.2456 15.537C14.7409 15.817 15.2828 15.9569 15.8714 15.9569C16.417 15.9569 17.2281 15.8421 18.3048 15.6124C19.3815 15.3683 20.1855 15.2463 20.7166 15.2463C21.2191 15.2463 22.0374 15.3324 23.1716 15.5047C24.3918 15.6913 25.2819 15.7847 25.8418 15.7847C27.2057 15.7847 28.6915 15.3253 30.2994 14.4065L30.644 14.7295C31.0316 15.5765 32.2949 16 34.434 16C35.1231 16 35.5466 15.6734 35.7045 15.0202C35.8624 14.367 35.9414 12.7986 35.9414 10.3149C35.9414 9.71198 35.884 8.8865 35.7691 7.83849C35.6974 7.24988 35.6327 6.43877 35.5753 5.40511C35.4748 3.668 35.2954 2.56618 35.037 2.0996C34.7786 1.63302 34.0966 1.39973 32.9912 1.39973C31.9001 1.39973 31.1895 1.48587 30.8593 1.65814C30.5291 1.83042 30.2563 2.15343 30.041 2.62719C29.9405 2.82818 29.7611 3.00763 29.5026 3.16555ZM16.8835 1.98116C15.9217 2.38313 14.9024 2.91431 13.8257 3.5747C13.0504 4.0341 12.4977 4.2638 12.1675 4.2638C11.7368 4.2638 11.1985 4.19202 10.5524 4.04845C10.251 3.99103 10.05 3.96231 9.94948 3.96231C9.93513 3.96231 9.70902 3.99821 9.27115 4.06999C8.83328 4.14177 8.16932 4.17766 7.27923 4.17766C6.56141 4.17766 6.05536 4.13459 5.76106 4.04845C5.46675 3.96231 5.28371 3.91925 5.21193 3.91925C5.14015 3.91925 4.98941 3.9336 4.75971 3.96231C4.34338 4.01974 4.03472 4.04845 3.83374 4.04845C3.07285 4.04845 2.44118 3.92643 1.93872 3.68237C1.43624 3.43831 1.18501 3.15119 1.18501 2.821C1.18501 2.31853 1.58698 1.98475 2.39094 1.81965C3.19489 1.65455 3.71888 1.57201 3.96294 1.57201L4.80278 1.70121C4.97506 1.70121 5.27653 1.64379 5.70722 1.52894C6.02306 1.4428 6.19533 1.39973 6.22404 1.39973H7.02081L9.88488 1.52894L11.5646 1.4428C12.2967 1.41409 13.2801 1.39973 14.5148 1.39973C15.5628 1.39973 16.3811 1.51458 16.9697 1.74428L16.8835 1.98116ZM14.4286 4.67295C15.5341 3.82593 16.7436 3.16555 18.0572 2.69179C19.3708 2.21803 20.5228 1.98116 21.5134 1.98116C22.6476 1.98116 24.1549 2.27905 26.0356 2.87483C27.9163 3.47062 29.0899 4.23867 29.5565 5.179C30.0231 6.11934 30.2563 7.17092 30.2563 8.33378C30.2563 10.3293 30.242 11.6285 30.2133 12.2315C30.1846 12.8345 29.7539 13.3549 28.9212 13.7927C28.0886 14.2306 27.0621 14.4495 25.8418 14.4495C25.4973 14.4495 23.8678 14.2773 20.9535 13.9327L20.9105 13.8035C20.9105 13.6169 21.1832 13.2795 21.7288 12.7914C22.1164 12.4468 22.3102 12.2674 22.3102 12.253L22.8055 10.6164C23.0639 10.6308 23.5305 10.6667 24.2052 10.7241C25.1814 10.8246 25.9208 10.8748 26.4232 10.8748C27.4138 10.8748 27.9091 10.5949 27.9091 10.035C27.9091 9.77658 27.7512 9.64738 27.4353 9.64738C27.2487 9.64738 26.8898 9.67609 26.3586 9.73351C25.6982 9.79094 25.2173 9.81965 24.9158 9.81965C23.3223 9.81965 22.5255 9.63302 22.5255 9.25976C22.5255 9.18798 22.5722 9.08031 22.6655 8.93674C22.7588 8.79318 22.8342 8.7214 22.8916 8.7214C23.3654 8.7214 23.9611 8.75729 24.679 8.82907C25.3968 8.90085 25.9925 8.93674 26.4663 8.93674C26.7247 8.93674 27.1195 8.80036 27.6507 8.52759C28.1819 8.25482 28.4475 7.93899 28.4475 7.58008C28.4475 7.45087 28.4044 7.28578 28.3183 7.08479C27.8732 7.1135 27.1913 7.24271 26.2725 7.47241C25.1527 7.74518 24.2913 7.88156 23.6884 7.88156C22.4537 7.88156 21.8364 7.60162 21.8364 7.04172C21.8364 6.66846 22.3317 6.0655 23.3223 5.23284L23.2362 4.84522C23.0208 4.75908 22.8342 4.71602 22.6763 4.71602C22.3174 4.71602 22.0231 4.83086 21.7934 5.06057C21.2048 5.63482 20.7848 6.02243 20.5336 6.22342C20.2824 6.42441 20.0204 6.5249 19.7476 6.5249C19.403 6.5249 19.2308 6.3598 19.2308 6.02961C19.2308 5.74248 19.4174 5.3764 19.7907 4.93136C19.561 4.70166 19.3887 4.58681 19.2738 4.58681C19.0011 4.58681 18.7642 4.6873 18.5632 4.88829C17.7018 5.77838 16.4529 6.35262 14.8162 6.61104L14.6009 6.24495L14.4286 4.67295ZM32.9051 3.12248V2.90713C33.0917 2.69179 33.264 2.58412 33.4219 2.58412C33.5798 2.58412 33.7628 2.63795 33.971 2.74563C34.1792 2.8533 34.3156 2.99327 34.3802 3.16555C34.4448 3.33782 34.4771 3.6393 34.4771 4.06999C34.4771 4.31404 34.556 4.94571 34.714 5.96501C35.0298 8.16152 35.1877 9.84836 35.1877 11.0256C35.1877 11.083 35.1733 11.2194 35.1446 11.4347C35.1159 11.6501 35.1016 11.7865 35.1016 11.8439L34.8862 12.0377L34.3909 11.7147V10.2288L34.2187 9.94886L33.9602 9.99192L33.9172 10.3149L34.0033 12.4684L33.9602 12.9206L33.7018 13.3082C33.4147 13.1359 33.2712 12.9062 33.2712 12.6191C33.2712 12.5186 33.2855 12.3392 33.3142 12.0808C33.386 11.4778 33.4219 10.9323 33.4219 10.4441C33.4219 8.56347 33.2927 6.57516 33.0343 4.47914C32.9481 3.79004 32.9051 3.33782 32.9051 3.12248ZM31.2685 12.5545V8.0969C31.2685 7.98205 31.2254 7.70211 31.1393 7.25707C30.967 6.32391 30.8808 5.59175 30.8808 5.06057C30.8808 4.81651 31.0244 4.53656 31.3115 4.22073H31.613C31.9001 4.50785 32.0832 4.73755 32.1621 4.90982C32.2411 5.0821 32.3236 5.59892 32.4098 6.4603L32.7759 9.94886V12.7699L32.4528 13.0067L32.1083 12.5976V11.8439L31.8499 11.8008L31.4407 12.7268L31.2685 12.5545ZM11.4569 6.5249L11.543 6.20188C12.2465 5.61328 12.6772 5.31898 12.8351 5.31898H13.1796C13.5385 5.64917 13.718 5.91476 13.718 6.11575C13.718 6.34545 13.5888 6.56438 13.3304 6.77254C13.072 6.98071 12.8064 7.08479 12.5336 7.08479C12.0742 7.08479 11.7153 6.89816 11.4569 6.5249ZM15.5699 8.80754C15.0675 9.03724 14.4214 9.15209 13.6319 9.15209C12.3398 9.15209 11.281 8.94033 10.4555 8.51682C9.63005 8.09331 9.21732 7.58726 9.21732 6.99865C9.21732 6.82638 9.29627 6.53567 9.45419 6.12651C9.61211 5.71736 9.91359 5.4769 10.3586 5.40511C10.1864 5.85016 10.1002 6.1947 10.1002 6.43876C10.1002 6.85509 10.3909 7.23553 10.9724 7.58008C11.5538 7.92463 12.2465 8.0969 13.0504 8.0969C13.596 8.0969 14.3138 7.98206 15.2039 7.75236L15.5699 8.80754ZM16.9266 8.29071C16.6108 8.07537 16.4528 7.88156 16.4528 7.70929C16.4528 7.49394 16.5677 7.29296 16.7974 7.10633C17.0271 6.91969 17.1635 6.82638 17.2065 6.82638H17.5511C17.9674 7.07044 18.1756 7.29296 18.1756 7.49394C18.1756 7.68058 17.8956 7.94616 17.3358 8.29071H16.9266ZM18.5201 9.06595C18.9078 8.54912 19.3026 8.29071 19.7045 8.29071C19.9199 8.29071 20.1065 8.36249 20.2644 8.50606C20.4223 8.64962 20.5013 8.82189 20.5013 9.02288C20.5013 9.31001 20.3865 9.57559 20.1567 9.81965C19.927 10.0637 19.6615 10.1857 19.36 10.1857C18.8001 10.1857 18.5201 9.81248 18.5201 9.06595ZM17.2496 9.64738C17.3932 9.79094 17.508 9.95603 17.5942 10.1427L17.9818 10.961C17.9818 11.1907 17.5583 11.485 16.7113 11.8439C15.8642 12.2028 14.9383 12.3822 13.9333 12.3822C13.4452 12.3822 13.0432 12.2961 12.7274 12.1238C12.4116 11.9515 12.2537 11.729 12.2537 11.4563C12.2537 10.6954 12.7418 10.3149 13.718 10.3149L14.687 10.2719C15.0747 10.2719 15.4479 10.2144 15.8068 10.0996L17.2496 9.64738ZM20.0706 11.8008C20.0993 11.3701 20.2321 11.0722 20.469 10.9071C20.7059 10.742 20.9105 10.6595 21.0827 10.6595H21.3842C21.5565 11.0184 21.6426 11.2122 21.6426 11.2409V11.3271C21.4273 11.7003 21.1832 11.9659 20.9105 12.1238L20.5013 12.1669C20.4152 12.1669 20.2931 12.0736 20.1352 11.8869C20.1065 11.8439 20.085 11.8152 20.0706 11.8008ZM14.8593 14.1911L14.9024 13.8035C15.2613 13.502 15.6417 13.3226 16.0437 13.2651C16.6179 13.179 17.3142 12.8847 18.1325 12.3822C18.4771 12.1812 18.6924 12.0808 18.7786 12.0808C18.9221 12.0808 19.098 12.21 19.3061 12.4684C19.5143 12.7268 19.6184 12.9062 19.6184 13.0067C19.6184 13.2651 19.2164 13.624 18.4125 14.0834C17.6085 14.5428 16.8476 14.7725 16.1298 14.7725C15.7566 14.7725 15.4982 14.7079 15.3546 14.5787L14.8593 14.1911Z" clip-rule="evenodd"/>
</svg>
