<svg xmlns="http://www.w3.org/2000/svg" fill="none" viewBox="0 0 36 16">
  <path fill="#313131" fill-rule="evenodd" d="M6.43876 3.16554C6.56797 3.10812 6.79049 2.99327 7.10633 2.821C8.02513 2.31853 9.04082 1.87349 10.1534 1.48587C11.266 1.09825 12.978 0.753703 15.2894 0.452221C17.6007 0.150739 20.5724 0 24.2046 0C25.0516 0 26.6092 0.0717804 28.8775 0.215343C31.1458 0.358906 32.5204 0.448631 33.0013 0.484522C33.4823 0.520413 33.956 0.671152 34.4226 0.936743C34.8892 1.20233 35.2589 1.50022 35.5316 1.83042C35.8044 2.16061 35.9408 2.47645 35.9408 2.77793C35.9408 3.32347 35.7757 3.79722 35.4455 4.19919C35.1153 4.60117 34.6523 4.90265 34.0565 5.10363C33.4607 5.30462 32.7393 5.41229 31.8923 5.42665L27.607 5.55585L27.5209 5.85734C27.7506 6.40287 27.8654 6.84073 27.8654 7.17093C27.8654 7.5729 27.6824 8.04307 27.3163 8.58143C26.9502 9.11979 26.6703 9.4105 26.4764 9.45357C26.2826 9.49664 25.9668 9.60072 25.5289 9.76581C25.0911 9.93091 24.8291 10.0852 24.7429 10.2288C24.8865 10.8031 24.9583 11.1978 24.9583 11.4132C24.9583 11.8295 24.8434 12.2064 24.6137 12.5437C24.384 12.8811 23.8959 13.1934 23.1494 13.4805C22.7331 13.6384 22.4962 13.7748 22.4388 13.8896C22.4388 14.7079 22.1911 15.2571 21.6958 15.537C21.2005 15.817 20.6586 15.9569 20.07 15.9569C19.5244 15.9569 18.7133 15.8421 17.6366 15.6124C16.5599 15.3683 15.7559 15.2463 15.2248 15.2463C14.7223 15.2463 13.904 15.3324 12.7699 15.5047C11.5496 15.6913 10.6595 15.7847 10.0996 15.7847C8.73575 15.7847 7.2499 15.3253 5.64199 14.4065L5.29744 14.7295C4.90982 15.5765 3.64649 16 1.5074 16C0.818301 16 0.394797 15.6734 0.236878 15.0202C0.0789584 14.367 -1.01538e-09 12.7986 -1.01538e-09 10.3149C-1.01538e-09 9.71198 0.0574243 8.8865 0.172275 7.83849C0.244056 7.24989 0.308658 6.43877 0.366083 5.40511C0.466577 3.668 0.646028 2.56618 0.904442 2.0996C1.16285 1.63302 1.84477 1.39973 2.9502 1.39973C4.04128 1.39973 4.7519 1.48587 5.0821 1.65814C5.41229 1.83042 5.68506 2.15343 5.9004 2.62719C6.0009 2.82818 6.18035 3.00763 6.43876 3.16554ZM19.0579 1.98116C20.0197 2.38313 21.039 2.91431 22.1157 3.5747C22.891 4.0341 23.4437 4.2638 23.7739 4.2638C24.2046 4.2638 24.7429 4.19202 25.389 4.04845C25.6904 3.99103 25.8914 3.96231 25.9919 3.96231C26.0063 3.96231 26.2324 3.99821 26.6703 4.06999C27.1081 4.14177 27.7721 4.17766 28.6622 4.17766C29.38 4.17766 29.886 4.13459 30.1803 4.04845C30.4747 3.96231 30.6577 3.91925 30.7295 3.91925C30.8013 3.91925 30.952 3.9336 31.1817 3.96231C31.598 4.01974 31.9067 4.04845 32.1077 4.04845C32.8686 4.04845 33.5002 3.92643 34.0027 3.68237C34.5052 3.43831 34.7564 3.15119 34.7564 2.821C34.7564 2.31853 34.3544 1.98475 33.5505 1.81965C32.7465 1.65455 32.2225 1.57201 31.9785 1.57201L31.1386 1.70121C30.9664 1.70121 30.6649 1.64379 30.2342 1.52894C29.9183 1.4428 29.7461 1.39973 29.7174 1.39973H28.9206L26.0565 1.52894L24.3769 1.4428C23.6447 1.41409 22.6613 1.39973 21.4266 1.39973C20.3786 1.39973 19.5603 1.51458 18.9717 1.74428L19.0579 1.98116ZM21.5128 4.67295C20.4074 3.82593 19.1979 3.16555 17.8843 2.69179C16.5707 2.21803 15.4186 1.98116 14.428 1.98116C13.2938 1.98116 11.7865 2.27905 9.90579 2.87483C8.02511 3.47062 6.85151 4.23867 6.38493 5.179C5.91835 6.11934 5.68506 7.17092 5.68506 8.33378C5.68506 10.3293 5.69942 11.6285 5.72813 12.2315C5.75684 12.8345 6.18752 13.3549 7.02019 13.7927C7.85285 14.2306 8.87931 14.4495 10.0996 14.4495C10.4441 14.4495 12.0736 14.2773 14.9879 13.9327L15.031 13.8035C15.031 13.6169 14.7582 13.2795 14.2127 12.7914C13.825 12.4468 13.6312 12.2674 13.6312 12.253L13.1359 10.6164C12.8775 10.6308 12.4109 10.6667 11.7362 10.7241C10.76 10.8246 10.0206 10.8748 9.51817 10.8748C8.52759 10.8748 8.0323 10.5949 8.0323 10.035C8.0323 9.77658 8.19022 9.64738 8.50606 9.64738C8.69269 9.64738 9.05159 9.67609 9.58277 9.73351C10.2432 9.79094 10.7241 9.81965 11.0256 9.81965C12.6191 9.81965 13.4159 9.63302 13.4159 9.25976C13.4159 9.18798 13.3692 9.08031 13.2759 8.93674C13.1826 8.79318 13.1072 8.7214 13.0498 8.7214C12.576 8.7214 11.9803 8.75729 11.2624 8.82907C10.5446 8.90085 9.94886 8.93674 9.4751 8.93674C9.21669 8.93674 8.8219 8.80036 8.29071 8.52759C7.75953 8.25482 7.49394 7.93899 7.49394 7.58008C7.49394 7.45087 7.53701 7.28578 7.62315 7.08479C8.06819 7.1135 8.75011 7.24271 9.66891 7.47241C10.7887 7.74518 11.6501 7.88156 12.253 7.88156C13.4877 7.88156 14.105 7.60162 14.105 7.04172C14.105 6.66846 13.6097 6.0655 12.6191 5.23284L12.7052 4.84522C12.9206 4.75908 13.1072 4.71602 13.2651 4.71602C13.624 4.71602 13.9183 4.83086 14.148 5.06057C14.7367 5.63482 15.1566 6.02243 15.4078 6.22342C15.659 6.42441 15.921 6.5249 16.1938 6.5249C16.5384 6.5249 16.7106 6.3598 16.7106 6.02961C16.7106 5.74248 16.524 5.3764 16.1507 4.93136C16.3804 4.70166 16.5527 4.58681 16.6676 4.58681C16.9403 4.58681 17.1772 4.6873 17.3782 4.88829C18.2396 5.77838 19.4886 6.35262 21.1252 6.61104L21.3405 6.24495L21.5128 4.67295ZM3.03634 3.12248V2.90713C2.84971 2.69179 2.67743 2.58412 2.51952 2.58412C2.3616 2.58412 2.17856 2.63795 1.97039 2.74563C1.76222 2.8533 1.62584 2.99327 1.56124 3.16554C1.49663 3.33782 1.46433 3.6393 1.46433 4.06999C1.46433 4.31404 1.38538 4.94571 1.22746 5.96501C0.911618 8.16152 0.753701 9.84836 0.753701 11.0256C0.753701 11.083 0.768057 11.2194 0.79677 11.4347C0.825482 11.6501 0.839839 11.7865 0.839839 11.8439L1.05518 12.0377L1.55047 11.7147V10.2288L1.72275 9.94886L1.98116 9.99192L2.02423 10.3149L1.93809 12.4684L1.98116 12.9206L2.23957 13.3082C2.5267 13.1359 2.67026 12.9062 2.67026 12.6191C2.67026 12.5186 2.6559 12.3392 2.62719 12.0808C2.55541 11.4778 2.51952 10.9323 2.51952 10.4441C2.51952 8.56347 2.64872 6.57516 2.90713 4.47914C2.99327 3.79004 3.03634 3.33782 3.03634 3.12248ZM4.67295 12.5545V8.0969C4.67295 7.98205 4.71602 7.70211 4.80215 7.25707C4.97443 6.32391 5.06057 5.59175 5.06057 5.06057C5.06057 4.81651 4.917 4.53657 4.62988 4.22073H4.3284C4.04127 4.50785 3.85823 4.73755 3.77927 4.90982C3.70031 5.0821 3.61777 5.59892 3.53163 6.4603L3.16554 9.94886V12.7699L3.48856 13.0067L3.83311 12.5976V11.8439L4.09152 11.8008L4.50067 12.7268L4.67295 12.5545ZM24.4845 6.5249L24.3984 6.20188C23.6949 5.61328 23.2642 5.31898 23.1063 5.31898H22.7618C22.4029 5.64917 22.2234 5.91476 22.2234 6.11575C22.2234 6.34545 22.3526 6.56438 22.611 6.77254C22.8694 6.98071 23.135 7.08479 23.4078 7.08479C23.8672 7.08479 24.2261 6.89816 24.4845 6.5249ZM20.3715 8.80754C20.8739 9.03724 21.52 9.15209 22.3096 9.15209C23.6016 9.15209 24.6604 8.94033 25.4859 8.51682C26.3114 8.09331 26.7241 7.58726 26.7241 6.99865C26.7241 6.82638 26.6451 6.53567 26.4872 6.12651C26.3293 5.71736 26.0278 5.4769 25.5828 5.40511C25.755 5.85016 25.8412 6.19471 25.8412 6.43876C25.8412 6.85509 25.5505 7.23553 24.969 7.58008C24.3876 7.92463 23.6949 8.0969 22.891 8.0969C22.3454 8.0969 21.6276 7.98206 20.7376 7.75236L20.3715 8.80754ZM19.0148 8.29071C19.3306 8.07537 19.4886 7.88156 19.4886 7.70929C19.4886 7.49394 19.3737 7.29296 19.144 7.10633C18.9143 6.91969 18.7779 6.82638 18.7349 6.82638H18.3903C17.974 7.07044 17.7658 7.29296 17.7658 7.49394C17.7658 7.68058 18.0458 7.94616 18.6057 8.29071H19.0148ZM17.4213 9.06595C17.0336 8.54912 16.6389 8.29071 16.2369 8.29071C16.0215 8.29071 15.8349 8.36249 15.677 8.50606C15.5191 8.64962 15.4401 8.82189 15.4401 9.02288C15.4401 9.31001 15.555 9.57559 15.7847 9.81965C16.0144 10.0637 16.2799 10.1857 16.5814 10.1857C17.1413 10.1857 17.4213 9.81248 17.4213 9.06595ZM18.6918 9.64738C18.5482 9.79094 18.4334 9.95603 18.3472 10.1427L17.9596 10.961C17.9596 11.1907 18.3831 11.485 19.2301 11.8439C20.0772 12.2028 21.0031 12.3822 22.0081 12.3822C22.4962 12.3822 22.8982 12.2961 23.214 12.1238C23.5298 11.9515 23.6878 11.729 23.6878 11.4563C23.6878 10.6954 23.1996 10.3149 22.2234 10.3149L21.2544 10.2719C20.8668 10.2719 20.4935 10.2144 20.1346 10.0996L18.6918 9.64738ZM15.8708 11.8008C15.8421 11.3701 15.7093 11.0722 15.4724 10.9071C15.2355 10.742 15.031 10.6595 14.8587 10.6595H14.5572C14.3849 11.0184 14.2988 11.2122 14.2988 11.2409V11.3271C14.5141 11.7003 14.7582 11.9659 15.031 12.1238L15.4401 12.1669C15.5262 12.1669 15.6483 12.0736 15.8062 11.8869C15.8349 11.8439 15.8564 11.8152 15.8708 11.8008ZM21.0821 14.1911L21.039 13.8035C20.6801 13.502 20.2997 13.3226 19.8977 13.2651C19.3235 13.179 18.6272 12.8847 17.8089 12.3822C17.4643 12.1812 17.249 12.0808 17.1629 12.0808C17.0193 12.0808 16.8434 12.21 16.6353 12.4684C16.4271 12.7268 16.323 12.9062 16.323 13.0067C16.323 13.2651 16.725 13.624 17.5289 14.0834C18.3329 14.5428 19.0938 14.7725 19.8116 14.7725C20.1848 14.7725 20.4432 14.7079 20.5868 14.5787L21.0821 14.1911Z" clip-rule="evenodd"/>
</svg>
