<svg width="13" height="20" viewBox="0 0 13 20" fill="none" xmlns="http://www.w3.org/2000/svg">
  <path fill-rule="evenodd" clip-rule="evenodd" d="M4.838875 2.081548c0 1.05273.85156 1.90478 1.90625 1.90478 1.05078 0 1.90235-.85205 1.90235-1.90478 0-1.051763-.85157-1.90479-1.90235-1.90479-1.05469 0-1.90625.853027-1.90625 1.90479zm-1.21094 5.02197l-.5.21631-1.4414 2.20459c-.27344.42138-.839846.54052-1.257815.26709-.42187494-.27393-.539062-.83594-.265625-1.25684l1.5625-2.39453c.08594-.12793.19531-.22412.32031-.29346.0625-.05029.12891-.09619.20703-.1289l2.17969-.94043c.40234-.4668 1.04688-.6919 1.68359-.52442.64454.1709 1.09766.70166 1.20704 1.31983l1.32031 1.13623 2.61716.32959c.4961.06103.8516.51513.7891 1.01318-.0625.49756-.5156.85205-1.0117.79004l-2.83987-.35791c-.15235-.01807-.28516-.07666-.40235-.1582-.07422-.0337-.14453-.07422-.20703-.12842l-.66406-.5708-.8125 2.94969-.01172.0337-.28516.9175 1.83203 3.1689c.11329.2007.15235.4234.12891.6377l.01172.0835v3.4697c.00391.5777-.46094 1.0494-1.03516 1.0542-.57812.0049-1.05078-.4584-1.05468-1.0356v-3.4053l-.73438-1.2675-.56641 1.8017c-.04687.1597-.13671.2964-.24609.4092l-1.92578 3.0107c-.30469.4893-.94922.6368-1.441406.3301-.488281-.3066-.632813-.9517-.328125-1.4409l2.019531-3.1553 1.07031-3.4106-.375-.6494m.45703-4.02494l-.71875 2.625.71875-2.625zm-.71875 2.625c-.04687.1709-.0625.34228-.05468.50974l.05468-.50974zm-.05468.50974c-.01172.1973.03125.3994.14062.5904l-.14062-.5904z" fill="#A35C4D"/>
</svg>
