<svg width="14" height="28" viewBox="0 0 14 28" fill="none" xmlns="http://www.w3.org/2000/svg">
  <path fill-rule="evenodd" clip-rule="evenodd" d="M6.8134462 2.060549l4.10156 3.28174-.5937.70166.5195.4414.7734-.91406c-.6758 1.60449-1.2617 2.6084-1.86326 3.16553-.59375.55127-1.21484.76074-2.25.78125l-.1914-.00342-1.77735 2.37007 1.96875 2.6285v-3.5796c1.27344-.0264 2.35156-.3594 3.21486-1.15872.7969-.73877 1.4023-1.79394 2.043-3.27148l.5585.47266.3516-.41358-.6875-.58105.0313-.06934c.0937-.22217.0703-.47705-.0664-.67725-.1329-.20019-.3633-.31787-.6016-.3125-.0742.00196-.1445.01416-.2149.0376l.6446-.75879-.5235-.44043-.5937.70166-3.91407-3.499508-1.49609-.326172.5664 1.42383zm-4.0664 7.45556h-.13672c-.67188.06641-1.26172.34278-1.656253.79541-.441407.5068-.640625 1.1494-.753907 1.8467-.1640622.9805-.14062468 2.1225-.1171872 3.352v.1358c.0117188.4775.0195313.9673.0195313 1.4653-.0039063.2554.1289059.4937.3515629.6226.21875.1289.492187.1289.714843 0 .21875-.1289.35547-.3672.35156-.6226 0-.5137-.00781-1.0146-.01562-1.4946v-.2876c-.01563-1.1675-.03125-2.1948.09765-2.9468.08985-.5576.2461-.938.42188-1.1396.14062-.1607.29297-.2579.58594-.3086v3.5019l1.91015-2.5503-1.77343-2.36961zm2.27734 3.04391l-1.80859 2.4156h3.62109l-1.8125-2.4156zm3.01562 8.6949h-5.96875l.53907-5.4712h4.89062l.53906 5.4712zm-5.43359.4038v4.9726c0 .5616.45313 1.0132 1.01172 1.0132.55859 0 1.01562-.4516 1.01562-1.0132v-4.9726h-2.02734zm2.87109 4.9726v-4.9726h2.02735v4.9726c0 .5616-.45313 1.0132-1.01563 1.0132-.55859 0-1.01172-.4516-1.01172-1.0132z" fill="#A35C4D"/>
  <path d="M6.78072 6.47774C6.75734 5.40137 5.93847 4.955 5.73563 4.82742c-.01485-.00937-.02788-.01792-.04147-.0264l.50616-1.60082H4.202796L4.7249 4.78567c-.02124.01276-.04344.02649-.06713.04151-.202845.12758-1.0201305.57411-1.0434318 1.65039-.02345939 1.07629-.0383091 1.11617.0709309 1.32353.1092399.20728.0236959.59003.0081357.81321-.0155606.22319-.0387829.70161.2965202 1.18796.335381.48626.475821.59793.475821.59793l.09368-2.67879-.670764-.18338s-.109082-.01607-.109082-.07187c0-.05563.070299-.39857.070299-.48618 0-.08761-.01556-.1514.015561-.1514s1.02937.22319 1.02937.22319.11698.03189.10916.16747c-.00774.13549-.0466.3586-.08578.50225-.03894.14348-.0936.28705-.0936.28705s.25852.24717.30536.263c.03302.01122.02331.01437.02331.01542v.00049s.03878 0 .03949-.00017c.00071.00017.03949.00017.03949.00017v-.00049c0-.00105-.00418-.0042.02883-.0155.04676-.01583.31919-.263.31919-.263s-.05869-.14348-.09771-.28705c-.03894-.14357-.08017-.36676-.08791-.50225-.00782-.13566.10806-.16747.10806-.16747s.99793-.22319 1.02905-.22319c.03128 0 .01524.06371.01524.1514s.07006.43055.07006.48626c0 .05572-.10924.07179-.10924.07179l-.67076.18338.09368 2.67879s.14036-.11167.47566-.59794c.33539-.48626.31193-.96468.29637-1.18795-.01556-.22319-.10134-.60585.0079-.81321.10916-.20727.09352-.24708.07006-1.32328z" fill="#A35C4D"/>
</svg>
