<svg width="1000" height="916" viewBox="0 0 1660 1520" xmlns="http://www.w3.org/2000/svg">
  <defs>
    <radialGradient cx="53.5508178%" cy="0%" fx="53.5508178%" fy="0%" r="88.2901408%" gradientTransform="rotate(105.666 .53551125 .00000102)" id="a">
      <stop stop-color="#A5409E" stop-opacity=".6" offset="0%"/>
      <stop stop-color="#190736" stop-opacity=".39756001" offset="98.5752348%"/>
    </radialGradient>
  </defs>
  <path d="M1187 1909.99329c-179.85494-.5384-336.931782-97.87647-421.868547-242.65245l46.708464-27.11569C887.422864 1768.92564 1027.0845 1855.45727 1187 1855.99523v53.99809zm6-.01771v-54.00054c158.92492-1.60516 297.51037-88.14195 372.53427-216.38828l46.76684 27.01529c-84.3641 144.37711-240.39514 241.76546-419.30111 243.37328zm0-980.955367c178.06339 1.600247 333.46679 98.080957 418.10436 241.336497l-46.70928 27.11616C1489.11292 1070.2923 1351.12395 984.617544 1193 983.020471v-54.000258zm-6-.017997v53.99803c-159.78793.537563-299.354303 86.931624-374.979079 215.462194l-46.76743-27.01564C850.218622 1026.78554 1007.23117 929.540389 1187 929.002245zM762.584835 1662.94811C721.491148 1591.21034 698 1508.09737 698 1419.49777c0-88.68986 23.539034-171.8819 64.710479-243.66954l46.76684 27.01529C772.906011 1266.68493 752 1340.64991 752 1419.49776c0 78.71611 20.836214 152.56566 57.294152 216.33417l-46.709317 27.11618zm851.079645-488.2065C1655.22264 1246.77584 1679 1330.36007 1679 1419.49777c0 88.29794-23.33146 171.14654-64.1657 242.71719l-46.76747-27.01566C1604.30129 1571.5752 1625 1497.9537 1625 1419.49776c0-79.2542-21.12205-153.57507-58.04399-217.64047l46.70847-27.11568z" transform="translate(-355 -632)" fill="url(#a)" fill-rule="evenodd"/>
</svg>
