<svg height="916" viewBox="0 0 1660 1520" width="1000" xmlns="http://www.w3.org/2000/svg" xmlns:xlink="http://www.w3.org/1999/xlink"><linearGradient id="a" x1="53.550818%" x2="30.049404%" y1="0%" y2="83.799074%"><stop offset="0" stop-color="#1c0b30" stop-opacity=".6"/><stop offset=".966063042" stop-color="#1c0b30" stop-opacity=".201087"/></linearGradient><filter id="b" height="124.6%" width="124.6%" x="-12.3%" y="-12.3%"><feGaussianBlur in="SourceGraphic" stdDeviation="40.2645089"/></filter><path d="m1187 1909.99329c-179.85494-.5384-336.931782-97.87647-421.868547-242.65245l46.708464-27.11569c75.582947 128.70049 215.244583 215.23212 375.160083 215.77008v53.99809zm6-.01771v-54.00054c158.92492-1.60516 297.51037-88.14195 372.53427-216.38828l46.76684 27.01529c-84.3641 144.37711-240.39514 241.76546-419.30111 243.37328zm0-980.955367c178.06339 1.600247 333.46679 98.080957 418.10436 241.336497l-46.70928 27.11616c-75.28216-127.18057-213.27113-212.855326-371.39508-214.452399zm-6-.017997v53.99803c-159.78793.537563-299.354303 86.931624-374.979079 215.462194l-46.76743-27.01564c84.965131-144.66126 241.977679-241.906411 421.746509-242.444555zm-424.415165 733.945894c-41.093687-71.73777-64.584835-154.85074-64.584835-243.45034 0-88.68986 23.539034-171.8819 64.710479-243.66954l46.76684 27.01529c-36.571308 63.84141-57.477319 137.80639-57.477319 216.65424 0 78.71611 20.836214 152.56566 57.294152 216.33417zm851.079645-488.2065c41.55816 72.03423 65.33552 155.61846 65.33552 244.75616 0 88.29794-23.33146 171.14654-64.1657 242.71719l-46.76747-27.01566c36.23446-63.6241 56.93317-137.2456 56.93317-215.70154 0-79.2542-21.12205-153.57507-58.04399-217.64047z" fill="url(#a)" fill-rule="evenodd" filter="url(#b)" opacity=".8" transform="translate(-355 -632)"/></svg>
