<svg viewBox="0 0 1128 84" width="1128" height="84" xmlns="http://www.w3.org/2000/svg">
  <defs>
    <filter x="-2.2%" y="-53.3%" width="104.4%" height="206.7%" filterUnits="objectBoundingBox" id="a">
      <feGaussianBlur stdDeviation="8" in="SourceGraphic"/>
    </filter>
    <linearGradient x1="50%" y1="0%" x2="50%" y2="98.348%" id="b">
      <stop stop-color="#FFF" offset="0%"/>
      <stop stop-color="#FFF" stop-opacity="0" offset="100%"/>
    </linearGradient>
  </defs>
  <g fill="none" fill-rule="evenodd">
    <path d="M0 11.415V.953l22.45 22.5L44.842.953v45h-7.39V19.065l-15.004 15.02L0 11.414zm140.83-3.037v30.037l-7.446 7.538v-45l7.446 7.425zm105.784 16.031c-1.736 2.531-3.919 4.331-6.55 5.4l9.181 16.144h-8.565L227.69 23.397l6.662.056c2.016 0 3.751-.731 5.207-2.194 1.511-1.462 2.24-3.262 2.24-5.344 0-2.025-.729-3.768-2.24-5.23-1.456-1.463-3.191-2.195-5.207-2.195h-14.947l-.84-.843-3.863-6.694h19.65c4.087 0 7.614 1.462 10.525 4.387 2.911 2.982 4.367 6.47 4.367 10.575 0 3.15-.84 5.963-2.631 8.494zm111.27 0c-1.735 2.531-3.919 4.331-6.55 5.4l9.182 16.144h-8.566l-12.988-22.556 6.662.056c2.015 0 3.75-.731 5.206-2.194 1.512-1.462 2.24-3.262 2.24-5.344 0-2.025-.728-3.768-2.24-5.23-1.455-1.463-3.19-2.195-5.206-2.195h-14.948l-.84-.843-3.862-6.694h19.65c4.087 0 7.614 1.462 10.525 4.387 2.911 2.982 4.367 6.47 4.367 10.575 0 3.15-.84 5.963-2.632 8.494zM470.946.953c6.214 0 11.42 2.25 15.788 6.637 4.422 4.388 6.662 9.675 6.662 15.863 0 6.244-2.24 11.531-6.662 15.862-4.367 4.388-9.574 6.638-15.788 6.638s-11.42-2.25-15.787-6.638c-4.367-4.387-6.606-9.618-6.606-15.862 0-6.188 2.24-11.475 6.606-15.863 4.31-4.387 9.573-6.637 15.787-6.637zm0 7.537c-4.086 0-7.613 1.407-10.58 4.388-2.912 2.925-4.311 6.469-4.311 10.575 0 4.106 1.4 7.706 4.31 10.631 2.912 2.925 6.495 4.331 10.581 4.331 4.087 0 7.614-1.406 10.525-4.33 2.967-2.982 4.367-6.526 4.367-10.632s-1.456-7.65-4.367-10.575c-2.911-2.925-6.438-4.388-10.525-4.388zm127.73 15.92c-1.736 2.53-3.919 4.33-6.55 5.4l9.181 16.143h-8.565l-12.988-22.556 6.662.056c2.015 0 3.75-.731 5.206-2.194 1.512-1.462 2.24-3.262 2.24-5.344 0-2.025-.728-3.768-2.24-5.23-1.456-1.463-3.191-2.195-5.206-2.195h-14.948l-.84-.843-3.863-6.694h19.65c4.087 0 7.614 1.462 10.525 4.387 2.911 2.982 4.367 6.47 4.367 10.575 0 3.15-.84 5.963-2.631 8.494zm104.44 19.743c-2.743-1.181-5.094-2.813-7.165-4.838-2.016-2.08-3.64-4.443-4.815-7.2-1.176-2.756-1.791-5.625-1.791-8.662 0-3.094.615-6.019 1.791-8.775 1.176-2.7 2.8-5.063 4.815-7.088 2.071-2.08 4.422-3.656 7.165-4.837 2.688-1.181 5.599-1.8 8.678-1.8 3.079 0 5.99.562 8.677 1.744a23.22 23.22 0 0 1 7.166 4.893l-5.318 5.232c-2.967-2.925-6.494-4.332-10.525-4.332-2.072 0-4.031.394-5.822 1.125-1.848.788-3.415 1.857-4.759 3.263a15.272 15.272 0 0 0-3.191 4.725 14.754 14.754 0 0 0-1.176 5.85c0 2.081.392 3.994 1.176 5.85.784 1.8 1.847 3.375 3.247 4.725 1.344 1.406 2.911 2.475 4.703 3.262a15.555 15.555 0 0 0 5.822 1.125l8.677 5.794c-2.687 1.181-5.598 1.744-8.677 1.744-3.08 0-5.99-.619-8.678-1.8zM832.022.953c6.214 0 11.42 2.25 15.787 6.637 4.423 4.388 6.662 9.675 6.662 15.863 0 6.244-2.24 11.531-6.662 15.862-4.367 4.388-9.573 6.638-15.787 6.638-6.215 0-11.42-2.25-15.788-6.638-4.366-4.387-6.606-9.618-6.606-15.862 0-6.188 2.24-11.475 6.606-15.863 4.311-4.387 9.573-6.637 15.788-6.637zm0 7.537c-4.087 0-7.614 1.407-10.581 4.388-2.911 2.925-4.31 6.469-4.31 10.575 0 4.106 1.399 7.706 4.31 10.631 2.91 2.925 6.494 4.331 10.58 4.331 4.087 0 7.614-1.406 10.525-4.33 2.968-2.982 4.367-6.526 4.367-10.632s-1.455-7.65-4.367-10.575c-2.91-2.925-6.438-4.388-10.524-4.388zM964.174.953h7.446v45l-37.23-33.638V.953l29.784 26.944V.953zm95.987 22.444H1090v7.593h-22.393v14.963h-7.446V23.397zm0-22.444H1090V8.49h-22.393L1060.16.953z" fill="#A329BE" filter="url(#a)" transform="translate(20 20)"/>
    <path d="M0 11.415V.953l22.45 22.5L44.842.953v45h-7.39V19.065l-15.004 15.02L0 11.414zm140.83-3.037v30.037l-7.446 7.538v-45l7.446 7.425zm105.784 16.031c-1.736 2.531-3.919 4.331-6.55 5.4l9.181 16.144h-8.565L227.69 23.397l6.662.056c2.016 0 3.751-.731 5.207-2.194 1.511-1.462 2.24-3.262 2.24-5.344 0-2.025-.729-3.768-2.24-5.23-1.456-1.463-3.191-2.195-5.207-2.195h-14.947l-.84-.843-3.863-6.694h19.65c4.087 0 7.614 1.462 10.525 4.387 2.911 2.982 4.367 6.47 4.367 10.575 0 3.15-.84 5.963-2.631 8.494zm111.27 0c-1.735 2.531-3.919 4.331-6.55 5.4l9.182 16.144h-8.566l-12.988-22.556 6.662.056c2.015 0 3.75-.731 5.206-2.194 1.512-1.462 2.24-3.262 2.24-5.344 0-2.025-.728-3.768-2.24-5.23-1.455-1.463-3.19-2.195-5.206-2.195h-14.948l-.84-.843-3.862-6.694h19.65c4.087 0 7.614 1.462 10.525 4.387 2.911 2.982 4.367 6.47 4.367 10.575 0 3.15-.84 5.963-2.632 8.494zM470.946.953c6.214 0 11.42 2.25 15.788 6.637 4.422 4.388 6.662 9.675 6.662 15.863 0 6.244-2.24 11.531-6.662 15.862-4.367 4.388-9.574 6.638-15.788 6.638s-11.42-2.25-15.787-6.638c-4.367-4.387-6.606-9.618-6.606-15.862 0-6.188 2.24-11.475 6.606-15.863 4.31-4.387 9.573-6.637 15.787-6.637zm0 7.537c-4.086 0-7.613 1.407-10.58 4.388-2.912 2.925-4.311 6.469-4.311 10.575 0 4.106 1.4 7.706 4.31 10.631 2.912 2.925 6.495 4.331 10.581 4.331 4.087 0 7.614-1.406 10.525-4.33 2.967-2.982 4.367-6.526 4.367-10.632s-1.456-7.65-4.367-10.575c-2.911-2.925-6.438-4.388-10.525-4.388zm127.73 15.92c-1.736 2.53-3.919 4.33-6.55 5.4l9.181 16.143h-8.565l-12.988-22.556 6.662.056c2.015 0 3.75-.731 5.206-2.194 1.512-1.462 2.24-3.262 2.24-5.344 0-2.025-.728-3.768-2.24-5.23-1.456-1.463-3.191-2.195-5.206-2.195h-14.948l-.84-.843-3.863-6.694h19.65c4.087 0 7.614 1.462 10.525 4.387 2.911 2.982 4.367 6.47 4.367 10.575 0 3.15-.84 5.963-2.631 8.494zm104.44 19.743c-2.743-1.181-5.094-2.813-7.165-4.838-2.016-2.08-3.64-4.443-4.815-7.2-1.176-2.756-1.791-5.625-1.791-8.662 0-3.094.615-6.019 1.791-8.775 1.176-2.7 2.8-5.063 4.815-7.088 2.071-2.08 4.422-3.656 7.165-4.837 2.688-1.181 5.599-1.8 8.678-1.8 3.079 0 5.99.562 8.677 1.744a23.22 23.22 0 0 1 7.166 4.893l-5.318 5.232c-2.967-2.925-6.494-4.332-10.525-4.332-2.072 0-4.031.394-5.822 1.125-1.848.788-3.415 1.857-4.759 3.263a15.272 15.272 0 0 0-3.191 4.725 14.754 14.754 0 0 0-1.176 5.85c0 2.081.392 3.994 1.176 5.85.784 1.8 1.847 3.375 3.247 4.725 1.344 1.406 2.911 2.475 4.703 3.262a15.555 15.555 0 0 0 5.822 1.125l8.677 5.794c-2.687 1.181-5.598 1.744-8.677 1.744-3.08 0-5.99-.619-8.678-1.8zM832.022.953c6.214 0 11.42 2.25 15.787 6.637 4.423 4.388 6.662 9.675 6.662 15.863 0 6.244-2.24 11.531-6.662 15.862-4.367 4.388-9.573 6.638-15.787 6.638-6.215 0-11.42-2.25-15.788-6.638-4.366-4.387-6.606-9.618-6.606-15.862 0-6.188 2.24-11.475 6.606-15.863 4.311-4.387 9.573-6.637 15.788-6.637zm0 7.537c-4.087 0-7.614 1.407-10.581 4.388-2.911 2.925-4.31 6.469-4.31 10.575 0 4.106 1.399 7.706 4.31 10.631 2.91 2.925 6.494 4.331 10.58 4.331 4.087 0 7.614-1.406 10.525-4.33 2.968-2.982 4.367-6.526 4.367-10.632s-1.455-7.65-4.367-10.575c-2.91-2.925-6.438-4.388-10.524-4.388zM964.174.953h7.446v45l-37.23-33.638V.953l29.784 26.944V.953zm95.987 22.444H1090v7.593h-22.393v14.963h-7.446V23.397zm0-22.444H1090V8.49h-22.393L1060.16.953z" fill="url(#b)" transform="translate(20 20)"/>
  </g>
</svg>
