<svg width="1440" height="5661" viewBox="0 0 1440 5661" version="1.1" xmlns="http://www.w3.org/2000/svg" xmlns:xlink="http://www.w3.org/1999/xlink"><g id="Canvas" fill="none"><g id="Speakers-section-4" clip-path="url(#clip0)"><rect width="1440" height="5661" fill="#fff"/><g id="Rectangle"><rect width="1440" height="4961" transform="translate(0 700)" fill="url(#paint0_linear)"/></g><g id="Rectangle_2"><rect width="1440" height="700" fill="url(#paint1_linear)"/></g><g id="Subtract" filter="url(#filter0_f)"><path d="M 521.558 292C 524.475 277.291 526 262.124 526 246.622C 526 110.416 408.25 0 263 0C 117.75 0 0 110.416 0 246.622C 0 262.124 1.52458 277.291 4.44223 292L 521.558 292Z" transform="translate(457 208)" fill="#FF00D6"/></g><g id="Subtract_2"><path fill-rule="evenodd" clip-rule="evenodd" d="M 374.227 467C 379.172 464.162 384.016 461.159 388.742 458L 111.258 458C 115.984 461.159 120.828 464.162 125.773 467L 374.227 467ZM 94.793 446L 405.207 446C 410.035 442.171 414.719 438.168 419.25 434L 80.75 434C 85.2812 438.168 89.9648 442.171 94.793 446ZM 68.5703 422C 63.9961 417.178 59.6133 412.174 55.4336 407L 444.566 407C 440.387 412.174 436.004 417.178 431.43 422L 68.5703 422ZM 34.6133 377C 38.2617 383.175 42.1719 389.181 46.3203 395L 453.68 395C 457.828 389.181 461.738 383.175 465.387 377L 34.6133 377ZM 27.9609 365C 24.4219 358.178 21.1875 351.172 18.2734 344L 481.727 344C 478.812 351.172 475.578 358.178 472.039 365L 27.9609 365ZM 6.76172 308C 8.69922 316.162 11.0391 324.169 13.7578 332L 486.242 332C 488.961 324.169 491.301 316.162 493.238 308L 6.76172 308ZM 4.22266 296C 1.44922 281.09 0 265.714 0 250C 0 111.929 111.93 0 250 0C 388.07 0 500 111.929 500 250C 500 265.714 498.551 281.09 495.777 296L 4.22266 296Z" transform="translate(470 233)" fill="#F8B83D"/></g><g id="Group 7"><g id="margem esquerda"><g id="Group 8"><g id="Rectangle 2.30"><path d="M 634 0L 706 0L 102 4140.5L 0 4140.5L 634 0Z" stroke-width="4" transform="translate(-107 702.17)" stroke="#FF33DE"/></g><g id="Rectangle 2.33"><path d="M 664 0L 736 0L 102 4140.5L 0 4140.5L 664 0Z" stroke-width="4" transform="translate(-209 702.17)" stroke="#FF33DE"/></g><g id="Rectangle 2.34"><path d="M 694 0L 766 0L 102 4140.5L 0 4140.5L 694 0Z" stroke-width="4" transform="translate(-311 702.17)" stroke="#FF33DE"/></g><g id="Rectangle 2.35"><path d="M 724 0L 796 0L 102 4140.5L 0 4140.5L 724 0Z" stroke-width="4" transform="translate(-413 702.17)" stroke="#FF33DE"/></g><g id="Rectangle 2.36"><path d="M 754 0L 826 0L 102 4140.5L 0 4140.5L 754 0Z" stroke-width="4" transform="translate(-515 702.17)" stroke="#FF33DE"/></g><g id="Rectangle 2.37"><path d="M 784 0L 856 0L 102 4140.5L 0 4140.5L 784 0Z" stroke-width="4" transform="translate(-617 702.17)" stroke="#FF33DE"/></g><g id="Rectangle 2.38"><path d="M 814 0L 886 0L 102 4140.5L 0 4140.5L 814 0Z" stroke-width="4" transform="translate(-719 702.17)" stroke="#FF33DE"/></g><g id="Rectangle 2.39"><path d="M 844 0L 916 0L 102 4140.5L 0 4140.5L 844 0Z" stroke-width="4" transform="translate(-821 702.17)" stroke="#FF33DE"/></g><g id="Line"><line y1="-2" x2="593" y2="-2" stroke-width="4" transform="translate(0 751.521)" stroke="#FF33DE"/></g><g id="Line_2"><line y1="-2" x2="584" y2="-2" stroke-width="4" transform="translate(0 810.707)" stroke="#FF33DE"/></g><g id="Line_3"><line y1="-2" x2="574" y2="-2" stroke-width="4" transform="translate(0 879.823)" stroke="#FF33DE"/></g><g id="Line_4"><line y1="-2" x2="563" y2="-2" stroke-width="4" transform="translate(0 958.721)" stroke="#FF33DE"/></g><g id="Line_5"><line y1="-2" x2="550" y2="-2" stroke-width="4" transform="translate(0 1047.55)" stroke="#FF33DE"/></g><g id="Line_6"><line y1="-2" x2="535" y2="-2" stroke-width="4" transform="translate(0 1146.21)" stroke="#FF33DE"/></g><g id="Line_7"><line y1="-2" x2="519" y2="-2" stroke-width="4" transform="translate(0 1254.75)" stroke="#FF33DE"/></g><g id="Line_8"><line y1="-2" x2="502" y2="-2" stroke-width="4" transform="translate(0 1373.18)" stroke="#FF33DE"/></g><g id="Line_9"><line y1="-2" x2="483" y2="-2" stroke-width="4" transform="translate(0 1501.44)" stroke="#FF33DE"/></g><g id="Line_10"><line y1="-2" x2="464" y2="-2" stroke-width="4" transform="translate(0 1639.56)" stroke="#FF33DE"/></g><g id="Line_11"><line y1="-2" x2="442" y2="-2" stroke-width="4" transform="translate(0 1787.6)" stroke="#FF33DE"/></g><g id="Line_12"><line y1="-2" x2="419" y2="-2" stroke-width="4" transform="translate(0 1945.46)" stroke="#FF33DE"/></g><g id="Line_13"><line y1="-2" x2="394" y2="-2" stroke-width="4" transform="translate(0 2113.21)" stroke="#FF33DE"/></g><g id="Line_14"><line y1="-2" x2="369" y2="-2" stroke-width="4" transform="translate(0 2289.32)" stroke="#FF33DE"/></g><g id="Line_15"><line y1="-2" x2="341" y2="-2" stroke-width="4" transform="translate(0 2476.2)" stroke="#FF33DE"/></g><g id="Line_16"><line y1="-2" x2="312" y2="-2" stroke-width="4" transform="translate(0 2673.89)" stroke="#FF33DE"/></g><g id="Line_17"><line y1="-2" x2="282" y2="-2" stroke-width="4" transform="translate(0 2882.36)" stroke="#FF33DE"/></g><g id="Line_18"><line y1="-2" x2="250" y2="-2" stroke-width="4" transform="translate(0 3101.6)" stroke="#FF33DE"/></g><g id="Line_19"><line y1="-2" x2="216" y2="-2" stroke-width="4" transform="translate(0 3331.62)" stroke="#FF33DE"/></g><g id="Line_20"><line y1="-2" x2="181" y2="-2" stroke-width="4" transform="translate(0 3572.44)" stroke="#FF33DE"/></g><g id="Line_21"><line y1="-2" x2="145" y2="-2" stroke-width="4" transform="translate(0 3824.02)" stroke="#FF33DE"/></g><g id="Line_22"><line y1="-2" x2="106" y2="-2" stroke-width="4" transform="translate(0 4086.4)" stroke="#FF33DE"/></g><g id="Line_23"><line y1="-2" x2="67" y2="-2" stroke-width="4" transform="translate(0 4359.57)" stroke="#FF33DE"/></g><g id="Line_24"><line y1="-2" x2="25" y2="-2" stroke-width="4" transform="translate(0 4643.5)" stroke="#FF33DE"/></g><g id="Line 2"><line y1="-2" x2="24" y2="-2" stroke-width="4" transform="translate(24 695) scale(-1)" stroke="#FF33DE"/></g></g><g id="Group 8.1" filter="url(#filter1_f)"><g id="Rectangle 2.30_2"><path d="M 634 0L 706 0L 102 4140.5L 0 4140.5L 634 0Z" stroke-width="4" transform="translate(-107 702.17)" stroke="#FFA1F0"/></g><g id="Rectangle 2.33_2"><path d="M 664 0L 736 0L 102 4140.5L 0 4140.5L 664 0Z" stroke-width="4" transform="translate(-209 702.17)" stroke="#FFA1F0"/></g><g id="Rectangle 2.34_2"><path d="M 694 0L 766 0L 102 4140.5L 0 4140.5L 694 0Z" stroke-width="4" transform="translate(-311 702.17)" stroke="#FFA1F0"/></g><g id="Rectangle 2.35_2"><path d="M 724 0L 796 0L 102 4140.5L 0 4140.5L 724 0Z" stroke-width="4" transform="translate(-413 702.17)" stroke="#FFA1F0"/></g><g id="Rectangle 2.36_2"><path d="M 754 0L 826 0L 102 4140.5L 0 4140.5L 754 0Z" stroke-width="4" transform="translate(-515 702.17)" stroke="#FFA1F0"/></g><g id="Rectangle 2.37_2"><path d="M 784 0L 856 0L 102 4140.5L 0 4140.5L 784 0Z" stroke-width="4" transform="translate(-617 702.17)" stroke="#FFA1F0"/></g><g id="Rectangle 2.38_2"><path d="M 814 0L 886 0L 102 4140.5L 0 4140.5L 814 0Z" stroke-width="4" transform="translate(-719 702.17)" stroke="#FFA1F0"/></g><g id="Rectangle 2.39_2"><path d="M 844 0L 916 0L 102 4140.5L 0 4140.5L 844 0Z" stroke-width="4" transform="translate(-821 702.17)" stroke="#FFA1F0"/></g><g id="Line_25"><line y1="-2" x2="593" y2="-2" stroke-width="4" transform="translate(0 751.521)" stroke="#FFA1F0"/></g><g id="Line_26"><line y1="-2" x2="584" y2="-2" stroke-width="4" transform="translate(0 810.707)" stroke="#FFA1F0"/></g><g id="Line_27"><line y1="-2" x2="574" y2="-2" stroke-width="4" transform="translate(0 879.823)" stroke="#FFA1F0"/></g><g id="Line_28"><line y1="-2" x2="563" y2="-2" stroke-width="4" transform="translate(0 958.721)" stroke="#FFA1F0"/></g><g id="Line_29"><line y1="-2" x2="550" y2="-2" stroke-width="4" transform="translate(0 1047.55)" stroke="#FFA1F0"/></g><g id="Line_30"><line y1="-2" x2="535" y2="-2" stroke-width="4" transform="translate(0 1146.21)" stroke="#FFA1F0"/></g><g id="Line_31"><line y1="-2" x2="519" y2="-2" stroke-width="4" transform="translate(0 1254.75)" stroke="#FFA1F0"/></g><g id="Line_32"><line y1="-2" x2="502" y2="-2" stroke-width="4" transform="translate(0 1373.18)" stroke="#FFA1F0"/></g><g id="Line_33"><line y1="-2" x2="483" y2="-2" stroke-width="4" transform="translate(0 1501.44)" stroke="#FFA1F0"/></g><g id="Line_34"><line y1="-2" x2="464" y2="-2" stroke-width="4" transform="translate(0 1639.56)" stroke="#FFA1F0"/></g><g id="Line_35"><line y1="-2" x2="442" y2="-2" stroke-width="4" transform="translate(0 1787.6)" stroke="#FFA1F0"/></g><g id="Line_36"><line y1="-2" x2="419" y2="-2" stroke-width="4" transform="translate(0 1945.46)" stroke="#FFA1F0"/></g><g id="Line_37"><line y1="-2" x2="394" y2="-2" stroke-width="4" transform="translate(0 2113.21)" stroke="#FFA1F0"/></g><g id="Line_38"><line y1="-2" x2="369" y2="-2" stroke-width="4" transform="translate(0 2289.32)" stroke="#FFA1F0"/></g><g id="Line_39"><line y1="-2" x2="341" y2="-2" stroke-width="4" transform="translate(0 2476.2)" stroke="#FFA1F0"/></g><g id="Line_40"><line y1="-2" x2="312" y2="-2" stroke-width="4" transform="translate(0 2673.89)" stroke="#FFA1F0"/></g><g id="Line_41"><line y1="-2" x2="282" y2="-2" stroke-width="4" transform="translate(0 2882.36)" stroke="#FFA1F0"/></g><g id="Line_42"><line y1="-2" x2="250" y2="-2" stroke-width="4" transform="translate(0 3101.6)" stroke="#FFA1F0"/></g><g id="Line_43"><line y1="-2" x2="216" y2="-2" stroke-width="4" transform="translate(0 3331.62)" stroke="#FFA1F0"/></g><g id="Line_44"><line y1="-2" x2="181" y2="-2" stroke-width="4" transform="translate(0 3572.44)" stroke="#FFA1F0"/></g><g id="Line_45"><line y1="-2" x2="145" y2="-2" stroke-width="4" transform="translate(0 3824.02)" stroke="#FFA1F0"/></g><g id="Line_46"><line y1="-2" x2="106" y2="-2" stroke-width="4" transform="translate(0 4086.4)" stroke="#FFA1F0"/></g><g id="Line_47"><line y1="-2" x2="67" y2="-2" stroke-width="4" transform="translate(0 4359.57)" stroke="#FFA1F0"/></g><g id="Line_48"><line y1="-2" x2="25" y2="-2" stroke-width="4" transform="translate(0 4643.5)" stroke="#FFA1F0"/></g><g id="Line 2_2"><line y1="-2" x2="24" y2="-2" stroke-width="4" transform="translate(24 695) scale(-1)" stroke="#FFA1F0"/></g></g></g><g id="margem direita"><g id="Group 9"><g id="Rectangle 2.31"><path d="M 634 0L 706 0L 102 4140.5L 0 4140.5L 634 0Z" stroke-width="4" transform="translate(1548 702.17) scale(-1 1)" stroke="#FF33DE"/></g><g id="Rectangle 2.32"><path d="M 664 0L 736 0L 102 4140.5L 0 4140.5L 664 0Z" stroke-width="4" transform="translate(1650 702.17) scale(-1 1)" stroke="#FF33DE"/></g><g id="Group 7_2"><g id="Rectangle 2.40"><path d="M 694 0L 766 0L 102 4140.5L 0 4140.5L 694 0Z" stroke-width="4" transform="translate(1752 702.17) scale(-1 1)" stroke="#FF33DE"/></g><g id="Rectangle 2.41"><path d="M 724 0L 796 0L 102 4140.5L 0 4140.5L 724 0Z" stroke-width="4" transform="translate(1854 702.17) scale(-1 1)" stroke="#FF33DE"/></g><g id="Rectangle 2.42"><path d="M 754 0L 826 0L 102 4140.5L 0 4140.5L 754 0Z" stroke-width="4" transform="translate(1956 702.17) scale(-1 1)" stroke="#FF33DE"/></g><g id="Rectangle 2.43"><path d="M 784 0L 856 0L 102 4140.5L 0 4140.5L 784 0Z" stroke-width="4" transform="translate(2058 702.17) scale(-1 1)" stroke="#FF33DE"/></g><g id="Rectangle 2.44"><path d="M 814 0L 886 0L 102 4140.5L 0 4140.5L 814 0Z" stroke-width="4" transform="translate(2160 702.17) scale(-1 1)" stroke="#FF33DE"/></g><g id="Rectangle 2.45"><path d="M 844 0L 916 0L 102 4140.5L 0 4140.5L 844 0Z" stroke-width="4" transform="translate(2262 702.17) scale(-1 1)" stroke="#FF33DE"/></g></g><g id="Line_49"><line y1="-2" x2="593" y2="-2" stroke-width="4" transform="translate(847 751.521)" stroke="#FF33DE"/></g><g id="Line_50"><line y1="-2" x2="584" y2="-2" stroke-width="4" transform="translate(856 810.707)" stroke="#FF33DE"/></g><g id="Line_51"><line y1="-2" x2="574" y2="-2" stroke-width="4" transform="translate(866 879.823)" stroke="#FF33DE"/></g><g id="Line_52"><line y1="-2" x2="563" y2="-2" stroke-width="4" transform="translate(877 958.721)" stroke="#FF33DE"/></g><g id="Line_53"><line y1="-2" x2="550" y2="-2" stroke-width="4" transform="translate(890 1047.55)" stroke="#FF33DE"/></g><g id="Line_54"><line y1="-2" x2="535" y2="-2" stroke-width="4" transform="translate(905 1146.21)" stroke="#FF33DE"/></g><g id="Line_55"><line y1="-2" x2="519" y2="-2" stroke-width="4" transform="translate(921 1254.75)" stroke="#FF33DE"/></g><g id="Line_56"><line y1="-2" x2="502" y2="-2" stroke-width="4" transform="translate(938 1373.18)" stroke="#FF33DE"/></g><g id="Line_57"><line y1="-2" x2="483" y2="-2" stroke-width="4" transform="translate(957 1501.44)" stroke="#FF33DE"/></g><g id="Line_58"><line y1="-2" x2="464" y2="-2" stroke-width="4" transform="translate(976 1639.56)" stroke="#FF33DE"/></g><g id="Line_59"><line y1="-2" x2="442" y2="-2" stroke-width="4" transform="translate(998 1787.6)" stroke="#FF33DE"/></g><g id="Line_60"><line y1="-2" x2="419" y2="-2" stroke-width="4" transform="translate(1021 1945.46)" stroke="#FF33DE"/></g><g id="Line_61"><line y1="-2" x2="394" y2="-2" stroke-width="4" transform="translate(1046 2113.21)" stroke="#FF33DE"/></g><g id="Line_62"><line y1="-2" x2="369" y2="-2" stroke-width="4" transform="translate(1071 2289.32)" stroke="#FF33DE"/></g><g id="Line_63"><line y1="-2" x2="341" y2="-2" stroke-width="4" transform="translate(1099 2476.2)" stroke="#FF33DE"/></g><g id="Line_64"><line y1="-2" x2="312" y2="-2" stroke-width="4" transform="translate(1128 2673.89)" stroke="#FF33DE"/></g><g id="Line_65"><line y1="-2" x2="282" y2="-2" stroke-width="4" transform="translate(1158 2882.36)" stroke="#FF33DE"/></g><g id="Line_66"><line y1="-2" x2="250" y2="-2" stroke-width="4" transform="translate(1190 3101.6)" stroke="#FF33DE"/></g><g id="Line_67"><line y1="-2" x2="216" y2="-2" stroke-width="4" transform="translate(1224 3331.62)" stroke="#FF33DE"/></g><g id="Line_68"><line y1="-2" x2="181" y2="-2" stroke-width="4" transform="translate(1259 3572.44)" stroke="#FF33DE"/></g><g id="Line_69"><line y1="-2" x2="145" y2="-2" stroke-width="4" transform="translate(1295 3824.02)" stroke="#FF33DE"/></g><g id="Line_70"><line y1="-2" x2="106" y2="-2" stroke-width="4" transform="translate(1334 4086.4)" stroke="#FF33DE"/></g><g id="Line_71"><line y1="-2" x2="67" y2="-2" stroke-width="4" transform="translate(1373 4359.57)" stroke="#FF33DE"/></g><g id="Line_72"><line y1="-2" x2="25" y2="-2" stroke-width="4" transform="translate(1415 4643.5)" stroke="#FF33DE"/></g><g id="Line 2.1"><line y1="-2" x2="24" y2="-2" stroke-width="4" transform="translate(1440 695) scale(-1)" stroke="#FF33DE"/></g></g><g id="Group 9.1" filter="url(#filter2_f)"><g id="Rectangle 2.31_2"><path d="M 634 0L 706 0L 102 4140.5L 0 4140.5L 634 0Z" stroke-width="4" transform="translate(1548 702.17) scale(-1 1)" stroke="#FFA1F0"/></g><g id="Rectangle 2.32_2"><path d="M 664 0L 736 0L 102 4140.5L 0 4140.5L 664 0Z" stroke-width="4" transform="translate(1650 702.17) scale(-1 1)" stroke="#FFA1F0"/></g><g id="Group 7_3"><g id="Rectangle 2.40_2"><path d="M 694 0L 766 0L 102 4140.5L 0 4140.5L 694 0Z" stroke-width="4" transform="translate(1752 702.17) scale(-1 1)" stroke="#FFA1F0"/></g><g id="Rectangle 2.41_2"><path d="M 724 0L 796 0L 102 4140.5L 0 4140.5L 724 0Z" stroke-width="4" transform="translate(1854 702.17) scale(-1 1)" stroke="#FFA1F0"/></g><g id="Rectangle 2.42_2"><path d="M 754 0L 826 0L 102 4140.5L 0 4140.5L 754 0Z" stroke-width="4" transform="translate(1956 702.17) scale(-1 1)" stroke="#FFA1F0"/></g><g id="Rectangle 2.43_2"><path d="M 784 0L 856 0L 102 4140.5L 0 4140.5L 784 0Z" stroke-width="4" transform="translate(2058 702.17) scale(-1 1)" stroke="#FFA1F0"/></g><g id="Rectangle 2.44_2"><path d="M 814 0L 886 0L 102 4140.5L 0 4140.5L 814 0Z" stroke-width="4" transform="translate(2160 702.17) scale(-1 1)" stroke="#FFA1F0"/></g><g id="Rectangle 2.45_2"><path d="M 844 0L 916 0L 102 4140.5L 0 4140.5L 844 0Z" stroke-width="4" transform="translate(2262 702.17) scale(-1 1)" stroke="#FFA1F0"/></g></g><g id="Line_73"><line y1="-2" x2="593" y2="-2" stroke-width="4" transform="translate(847 751.521)" stroke="#FFA1F0"/></g><g id="Line_74"><line y1="-2" x2="584" y2="-2" stroke-width="4" transform="translate(856 810.707)" stroke="#FFA1F0"/></g><g id="Line_75"><line y1="-2" x2="574" y2="-2" stroke-width="4" transform="translate(866 879.823)" stroke="#FFA1F0"/></g><g id="Line_76"><line y1="-2" x2="563" y2="-2" stroke-width="4" transform="translate(877 958.721)" stroke="#FFA1F0"/></g><g id="Line_77"><line y1="-2" x2="550" y2="-2" stroke-width="4" transform="translate(890 1047.55)" stroke="#FFA1F0"/></g><g id="Line_78"><line y1="-2" x2="535" y2="-2" stroke-width="4" transform="translate(905 1146.21)" stroke="#FFA1F0"/></g><g id="Line_79"><line y1="-2" x2="519" y2="-2" stroke-width="4" transform="translate(921 1254.75)" stroke="#FFA1F0"/></g><g id="Line_80"><line y1="-2" x2="502" y2="-2" stroke-width="4" transform="translate(938 1373.18)" stroke="#FFA1F0"/></g><g id="Line_81"><line y1="-2" x2="483" y2="-2" stroke-width="4" transform="translate(957 1501.44)" stroke="#FFA1F0"/></g><g id="Line_82"><line y1="-2" x2="464" y2="-2" stroke-width="4" transform="translate(976 1639.56)" stroke="#FFA1F0"/></g><g id="Line_83"><line y1="-2" x2="442" y2="-2" stroke-width="4" transform="translate(998 1787.6)" stroke="#FFA1F0"/></g><g id="Line_84"><line y1="-2" x2="419" y2="-2" stroke-width="4" transform="translate(1021 1945.46)" stroke="#FFA1F0"/></g><g id="Line_85"><line y1="-2" x2="394" y2="-2" stroke-width="4" transform="translate(1046 2113.21)" stroke="#FFA1F0"/></g><g id="Line_86"><line y1="-2" x2="369" y2="-2" stroke-width="4" transform="translate(1071 2289.32)" stroke="#FFA1F0"/></g><g id="Line_87"><line y1="-2" x2="341" y2="-2" stroke-width="4" transform="translate(1099 2476.2)" stroke="#FFA1F0"/></g><g id="Line_88"><line y1="-2" x2="312" y2="-2" stroke-width="4" transform="translate(1128 2673.89)" stroke="#FFA1F0"/></g><g id="Line_89"><line y1="-2" x2="282" y2="-2" stroke-width="4" transform="translate(1158 2882.36)" stroke="#FFA1F0"/></g><g id="Line_90"><line y1="-2" x2="250" y2="-2" stroke-width="4" transform="translate(1190 3101.6)" stroke="#FFA1F0"/></g><g id="Line_91"><line y1="-2" x2="216" y2="-2" stroke-width="4" transform="translate(1224 3331.62)" stroke="#FFA1F0"/></g><g id="Line_92"><line y1="-2" x2="181" y2="-2" stroke-width="4" transform="translate(1259 3572.44)" stroke="#FFA1F0"/></g><g id="Line_93"><line y1="-2" x2="145" y2="-2" stroke-width="4" transform="translate(1295 3824.02)" stroke="#FFA1F0"/></g><g id="Line_94"><line y1="-2" x2="106" y2="-2" stroke-width="4" transform="translate(1334 4086.4)" stroke="#FFA1F0"/></g><g id="Line_95"><line y1="-2" x2="67" y2="-2" stroke-width="4" transform="translate(1373 4359.57)" stroke="#FFA1F0"/></g><g id="Line_96"><line y1="-2" x2="25" y2="-2" stroke-width="4" transform="translate(1415 4643.5)" stroke="#FFA1F0"/></g><g id="Line 2.1_2"><line y1="-2" x2="24" y2="-2" stroke-width="4" transform="translate(1440 695) scale(-1)" stroke="#FFA1F0"/></g></g></g><g id="Rectangle_3"><rect width="1440" height="4306.07" transform="translate(0 697.933)" fill="url(#paint2_linear)"/></g></g><g id="Group 2"><g id="Vector"><path d="M 0 246L 419 246L 338.911 153.262L 293.984 11.7143L 279.333 0L 197.291 6.83333L 126.97 49.7857L 67.3916 161.071L 0 246Z" transform="translate(176 456)" fill="#55125B"/></g><g id="Vector_2"><path d="M 0 246L 419 246L 338.911 153.262L 293.984 11.7143L 279.333 0L 197.291 6.83333L 126.97 49.7857" stroke-width="4" transform="translate(176 456)" stroke="#FF33DE"/></g><g id="Vector 2.1"><path d="M 0 0L 65.4382 77.119L 128.923 171.81L 176.781 239.167" stroke-width="4" transform="translate(373.293 462.833)" stroke="#FF33DE"/></g><g id="Vector 3.1"><path d="M 40.0443 0L 21.4872 82L 0 246" stroke-width="4" transform="translate(415.289 456)" stroke="#FF33DE"/></g><g id="Vector 4.1"><path d="M 0 196.214L 29.3007 113.238L 62.5082 0" stroke-width="4" transform="translate(240.461 505.786)" stroke="#FF33DE"/></g><g id="Vector 5.1"><path d="M 53.7179 0L 22.4639 160.095L 0 239.167" stroke-width="4" transform="translate(319.574 462.833)" stroke="#FF33DE"/></g><g id="Vector 6.1"><path d="M 0 0L 72.2751 3.90476L 145.527 83.9524" stroke-width="4" transform="translate(269.762 618.048)" stroke="#FF33DE"/></g><g id="Vector 7.1"><path d="M 0 92.7381L 7.81352 26.3571L 21.4872 0" stroke-width="4" transform="translate(493.426 609.262)" stroke="#FF33DE"/></g><g id="Vector 8.1"><path d="M 0 19.5238L 4.88345 0" stroke-width="4" transform="translate(573.512 682.476)" stroke="#FF33DE"/></g><g id="Group 2_2"><g id="Vector_3"><path d="M 0 246L 419 246L 338.911 153.262L 293.984 11.7143L 279.333 0L 197.291 6.83333L 126.97 49.7857" stroke-width="4" transform="translate(176 456)" stroke="#FF33DE"/></g><g id="Vector 2.2"><path d="M 0 0L 65.4382 77.119L 128.923 171.81L 176.781 239.167" stroke-width="4" transform="translate(373.293 462.833)" stroke="#FF33DE"/></g><g id="Vector 3.2"><path d="M 40.0443 0L 21.4872 82L 0 246" stroke-width="4" transform="translate(415.289 456)" stroke="#FF33DE"/></g><g id="Vector 4.2"><path d="M 0 196.214L 29.3007 113.238L 62.5082 0" stroke-width="4" transform="translate(240.461 505.786)" stroke="#FF33DE"/></g><g id="Vector 5.2"><path d="M 53.7179 0L 22.4639 160.095L 0 239.167" stroke-width="4" transform="translate(319.574 462.833)" stroke="#FF33DE"/></g><g id="Vector 6.2"><path d="M 0 0L 72.2751 3.90476L 145.527 83.9524" stroke-width="4" transform="translate(269.762 618.048)" stroke="#FF33DE"/></g><g id="Vector 7.2"><path d="M 0 92.7381L 7.81352 26.3571L 21.4872 0" stroke-width="4" transform="translate(493.426 609.262)" stroke="#FF33DE"/></g><g id="Vector 8.2"><path d="M 0 19.5238L 4.88345 0" stroke-width="4" transform="translate(573.512 682.476)" stroke="#FF33DE"/></g></g><g id="Group" filter="url(#filter3_f)"><g id="Vector_4"><path d="M 0 246L 419 246L 338.911 153.262L 293.984 11.7143L 279.333 0L 197.291 6.83333L 126.97 49.7857" stroke-width="4" transform="translate(176 456)" stroke="#FFA1F0"/></g><g id="Vector 2.2_2"><path d="M 0 0L 65.4382 77.119L 128.923 171.81L 176.781 239.167" stroke-width="4" transform="translate(373.293 462.833)" stroke="#FFA1F0"/></g><g id="Vector 3.2_2"><path d="M 40.0443 0L 21.4872 82L 0 246" stroke-width="4" transform="translate(415.289 456)" stroke="#FFA1F0"/></g><g id="Vector 4.2_2"><path d="M 0 196.214L 29.3007 113.238L 62.5082 0" stroke-width="4" transform="translate(240.461 505.786)" stroke="#FFA1F0"/></g><g id="Vector 5.2_2"><path d="M 53.7179 0L 22.4639 160.095L 0 239.167" stroke-width="4" transform="translate(319.574 462.833)" stroke="#FFA1F0"/></g><g id="Vector 6.2_2"><path d="M 0 0L 72.2751 3.90476L 145.527 83.9524" stroke-width="4" transform="translate(269.762 618.048)" stroke="#FFA1F0"/></g><g id="Vector 7.2_2"><path d="M 0 92.7381L 7.81352 26.3571L 21.4872 0" stroke-width="4" transform="translate(493.426 609.262)" stroke="#FFA1F0"/></g><g id="Vector 8.2_2"><path d="M 0 19.5238L 4.88345 0" stroke-width="4" transform="translate(573.512 682.476)" stroke="#FFA1F0"/></g></g></g><g id="Group 3.1"><g id="Vector 12.1"><path d="M 66.5331 514.145L 0 568.725L 490.818 570.908L 438.464 508.687L 415.559 430.091L 345.754 301.282L 319.577 94.9694L 277.04 0L 195.236 229.237L 66.5331 514.145Z" transform="translate(-124.816 240.092)" fill="#55125B"/></g><g id="Group 2_3"><g id="Vector 16.1"><path d="M 0 26.1985L 74.1681 0L 143.973 70.9542L 224.686 104.794" stroke-width="4" transform="translate(116.227 704.022)" stroke="#FF33DE"/></g><g id="Vector 16.2"><path d="M 92.7101 235.786L 43.6283 77.5038L 0 0" stroke-width="4" transform="translate(97.6855 468.236)" stroke="#FF33DE"/></g><g id="Vector 9.1"><path d="M 0 0L 491.909 0" stroke-width="4" transform="translate(-127 808.816)" stroke="#FF33DE"/></g><g id="Vector 9.2"><path d="M 0 570.908L 37.084 439.916L 76.3495 231.42L 130.885 0" stroke-width="4" transform="translate(21.3379 239)" stroke="#FF33DE"/></g><g id="Vector 10.1"><path d="M 0 342.763L 40.3562 209.588L 134.157 0" stroke-width="4" transform="translate(-35.3789 466.053)" stroke="#FF33DE"/></g><g id="Vector 11.1"><path d="M 11.9978 568.725L 0 490.13L 25.0863 305.649L 53.4446 155.008L 78.5309 94.9694L 34.9026 0" stroke-width="4" transform="translate(116.227 240.092)" stroke="#FF33DE"/></g><g id="Vector 13.1"><path d="M 0 133.176L 23.9955 78.5954L 87.2565 0L 141.792 2.18321L 198.509 54.5801" stroke-width="4" transform="translate(-82.2852 675.641)" stroke="#FF33DE"/></g><g id="Vector 14.1"><path d="M 0 261.985L 28.3584 136.45L 88.3473 0L 127.613 62.2213L 188.692 315.473L 321.759 477.03" stroke-width="4" transform="translate(42.0586 331.786)" stroke="#FF33DE"/></g><g id="Vector 15.1"><path d="M 121.068 415.901L 95.9822 335.122L 27.2677 207.404L 0 0" stroke-width="4" transform="translate(194.762 335.061)" stroke="#FF33DE"/></g><g id="Vector 16.3"><path d="M 7.63495 0L 0 33.8397" stroke-width="4" transform="translate(252.562 774.978)" stroke="#FF33DE"/></g><g id="Vector 17.1"><path d="M 0 56.7633L 40.3562 0L 100.345 22.9237" stroke-width="4" transform="translate(190.396 647.26)" stroke="#FF33DE"/></g><g id="Vector 18.1"><path d="M 0 0L 52.3539 148.458" stroke-width="4" transform="translate(169.672 394.008)" stroke="#FF33DE"/></g></g><g id="Group 2.1" filter="url(#filter4_f)"><g id="Vector 16.1_2"><path d="M 0 26.1985L 74.1681 0L 143.973 70.9542L 224.686 104.794" stroke-width="4" transform="translate(116.227 704.022)" stroke="#FFA1F0"/></g><g id="Vector 16.2_2"><path d="M 92.7101 235.786L 43.6283 77.5038L 0 0" stroke-width="4" transform="translate(97.6855 468.236)" stroke="#FFA1F0"/></g><g id="Vector 9.1_2"><path d="M 0 0L 491.909 0" stroke-width="4" transform="translate(-127 808.816)" stroke="#FFA1F0"/></g><g id="Vector 9.2_2"><path d="M 0 570.908L 37.084 439.916L 76.3495 231.42L 130.885 0" stroke-width="4" transform="translate(21.3379 239)" stroke="#FFA1F0"/></g><g id="Vector 10.1_2"><path d="M 0 342.763L 40.3562 209.588L 134.157 0" stroke-width="4" transform="translate(-35.3789 466.053)" stroke="#FFA1F0"/></g><g id="Vector 11.1_2"><path d="M 11.9978 568.725L 0 490.13L 25.0863 305.649L 53.4446 155.008L 78.5309 94.9694L 34.9026 0" stroke-width="4" transform="translate(116.227 240.092)" stroke="#FFA1F0"/></g><g id="Vector 13.1_2"><path d="M 0 133.176L 23.9955 78.5954L 87.2565 0L 141.792 2.18321L 198.509 54.5801" stroke-width="4" transform="translate(-82.2852 675.641)" stroke="#FFA1F0"/></g><g id="Vector 14.1_2"><path d="M 0 261.985L 28.3584 136.45L 88.3473 0L 127.613 62.2213L 188.692 315.473L 321.759 477.03" stroke-width="4" transform="translate(42.0586 331.786)" stroke="#FFA1F0"/></g><g id="Vector 15.1_2"><path d="M 121.068 415.901L 95.9822 335.122L 27.2677 207.404L 0 0" stroke-width="4" transform="translate(194.762 335.061)" stroke="#FFA1F0"/></g><g id="Vector 16.3_2"><path d="M 7.63495 0L 0 33.8397" stroke-width="4" transform="translate(252.562 774.978)" stroke="#FFA1F0"/></g><g id="Vector 17.1_2"><path d="M 0 56.7633L 40.3562 0L 100.345 22.9237" stroke-width="4" transform="translate(190.396 647.26)" stroke="#FFA1F0"/></g><g id="Vector 18.1_2"><path d="M 0 0L 52.3539 148.458" stroke-width="4" transform="translate(169.672 394.008)" stroke="#FFA1F0"/></g></g></g><g id="Group 5"><g id="Vector 19.2"><path d="M 46.8418 415.125L 0 484.734L 376 484.734L 355.744 402.469L 248.135 293.625L 196.229 81L 186.101 0L 148.121 32.9062L 122.801 198.703L 94.9495 227.812L 81.0236 310.078L 46.8418 415.125Z" transform="translate(851 265)" fill="#55125B"/></g><g id="Group 4"><g id="Vector 26.1"><path d="M 0 0L 10.1279 110.109L 5.06397 178.453" stroke-width="4" transform="translate(953.547 571.281)" stroke="#FF33DE"/></g><g id="Vector 26.2"><path d="M 0 122.766L 30.3838 139.219L 65.8316 122.766L 100.013 116.437L 137.993 63.2812L 179.771 18.9844L 201.293 0" stroke-width="4" transform="translate(897.842 558.625)" stroke="#FF33DE"/></g><g id="Vector 19.3"><path d="M 196.229 81L 186.101 0L 148.121 32.9062L 122.801 198.703L 94.9495 227.812L 81.0236 310.078L 46.8418 415.125L 0 484.734L 376 484.734L 355.744 402.469" stroke-width="4" transform="translate(851 265)" stroke="#FF33DE"/></g><g id="Vector 20.1"><path d="M 0 0L 13.9259 97.4531L 29.1178 197.437L 36.7138 324L 102.545 451.828" stroke-width="4" transform="translate(999.123 297.906)" stroke="#FF33DE"/></g><g id="Vector 21.1"><path d="M 0 0L 6.32997 31.6406L 16.4579 116.437L 24.0539 210.094L 10.1279 284.766" stroke-width="4" transform="translate(973.805 464.969)" stroke="#FF33DE"/></g><g id="Vector 22.1"><path d="M 0 146.812L 34.1818 150.609L 67.0976 48.0937L 101.279 0" stroke-width="4" transform="translate(945.953 346)" stroke="#FF33DE"/></g><g id="Vector 23.1"><path d="M 0 256.922L 24.0539 205.031L 48.1077 77.2031L 41.7778 0" stroke-width="4" transform="translate(905.439 492.812)" stroke="#FF33DE"/></g><g id="Vector 24.1"><path d="M 0 75.9375L 36.7138 89.8593L 74.6936 0L 124.067 83.5312L 253.199 173.391" stroke-width="4" transform="translate(953.547 494.078)" stroke="#FF33DE"/></g><g id="Vector 25.1"><path d="M 30.3838 230.344L 16.4579 192.375L 0 0" stroke-width="4" transform="translate(1047.23 347.266)" stroke="#FF33DE"/></g><g id="Vector 26.3"><path d="M 0 0L 77.2256 48.0937L 169.643 45.5625" stroke-width="4" transform="translate(1035.84 621.906)" stroke="#FF33DE"/></g><g id="Vector 27.1"><path d="M 113.939 81L 43.0438 18.9844L 0 0" stroke-width="4" transform="translate(1113.06 670)" stroke="#FF33DE"/></g><g id="Vector 28.1"><path d="M 208.889 8.85937L 158.249 30.375L 55.7037 0L 0 16.4531" stroke-width="4" transform="translate(997.855 658.609)" stroke="#FF33DE"/></g></g><g id="Group 4.1" filter="url(#filter5_f)"><g id="Vector 26.1_2"><path d="M 0 0L 10.1279 110.109L 5.06397 178.453" stroke-width="4" transform="translate(953.547 571.281)" stroke="#FFA1F0"/></g><g id="Vector 26.2_2"><path d="M 0 122.766L 30.3838 139.219L 65.8316 122.766L 100.013 116.437L 137.993 63.2812L 179.771 18.9844L 201.293 0" stroke-width="4" transform="translate(897.842 558.625)" stroke="#FFA1F0"/></g><g id="Vector 19.3_2"><path d="M 196.229 81L 186.101 0L 148.121 32.9062L 122.801 198.703L 94.9495 227.812L 81.0236 310.078L 46.8418 415.125L 0 484.734L 376 484.734L 355.744 402.469" stroke-width="4" transform="translate(851 265)" stroke="#FFA1F0"/></g><g id="Vector 20.1_2"><path d="M 0 0L 13.9259 97.4531L 29.1178 197.437L 36.7138 324L 102.545 451.828" stroke-width="4" transform="translate(999.123 297.906)" stroke="#FFA1F0"/></g><g id="Vector 21.1_2"><path d="M 0 0L 6.32997 31.6406L 16.4579 116.437L 24.0539 210.094L 10.1279 284.766" stroke-width="4" transform="translate(973.805 464.969)" stroke="#FFA1F0"/></g><g id="Vector 22.1_2"><path d="M 0 146.812L 34.1818 150.609L 67.0976 48.0937L 101.279 0" stroke-width="4" transform="translate(945.953 346)" stroke="#FFA1F0"/></g><g id="Vector 23.1_2"><path d="M 0 256.922L 24.0539 205.031L 48.1077 77.2031L 41.7778 0" stroke-width="4" transform="translate(905.439 492.812)" stroke="#FFA1F0"/></g><g id="Vector 24.1_2"><path d="M 0 75.9375L 36.7138 89.8593L 74.6936 0L 124.067 83.5312L 253.199 173.391" stroke-width="4" transform="translate(953.547 494.078)" stroke="#FFA1F0"/></g><g id="Vector 25.1_2"><path d="M 30.3838 230.344L 16.4579 192.375L 0 0" stroke-width="4" transform="translate(1047.23 347.266)" stroke="#FFA1F0"/></g><g id="Vector 26.3_2"><path d="M 0 0L 77.2256 48.0937L 169.643 45.5625" stroke-width="4" transform="translate(1035.84 621.906)" stroke="#FFA1F0"/></g><g id="Vector 27.1_2"><path d="M 113.939 81L 43.0438 18.9844L 0 0" stroke-width="4" transform="translate(1113.06 670)" stroke="#FFA1F0"/></g><g id="Vector 28.1_2"><path d="M 208.889 8.85937L 158.249 30.375L 55.7037 0L 0 16.4531" stroke-width="4" transform="translate(997.855 658.609)" stroke="#FFA1F0"/></g></g></g><g id="Group 6.1"><g id="Vector 29.2"><path d="M 0 308L 468.921 308L 408.36 223.213L 404.899 166.112L 332.225 100.36L 282.045 17.3034L 185.146 0L 131.506 22.4944L 109.011 96.8989L 64.0225 157.461L 48.2108 238.787L 0 308Z" transform="translate(1042 572)" fill="#55125B"/></g><g id="Group 5_2"><g id="Vector 32"><path d="M 0 32.8764L 105.551 0" stroke-width="4" transform="translate(1268.67 674.09)" stroke="#FF33DE"/></g><g id="Vector 29.4"><path d="M 404.899 166.112L 408.36 223.213L 468.921 308L 0 308L 48.4494 238.787L 64.0225 157.461L 109.011 96.8989L 131.506 22.4944L 185.146 0L 282.045 17.3034" stroke-width="4" transform="translate(1042 572)" stroke="#FF33DE"/></g><g id="Vector 32.1"><path d="M 0 0L 55.3708 69.2135" stroke-width="4" transform="translate(1090.45 810.786)" stroke="#FF33DE"/></g><g id="Vector 31.2"><path d="M 0 179.955L 32.8764 74.4045L 76.1348 0" stroke-width="4" transform="translate(1145.82 700.045)" stroke="#FF33DE"/></g><g id="Vector 31.3"><path d="M 0 0L 72.6742 44.9888L 178.225 19.0337" stroke-width="4" transform="translate(1106.02 729.461)" stroke="#FF33DE"/></g><g id="Vector 31.4"><path d="M 0 10.382L 160.921 0" stroke-width="4" transform="translate(1282.52 738.112)" stroke="#FF33DE"/></g><g id="Vector 31.5"><path d="M 55.3708 84.7865L 0 27.6854L 51.9101 0" stroke-width="4" transform="translate(1396.72 795.214)" stroke="#FF33DE"/></g><g id="Vector 29.2_2"><path d="M 0 0L 34.6067 25.9551L 43.2584 136.697L 57.1011 176.494L 34.6067 308" stroke-width="4" transform="translate(1227.15 572)" stroke="#FF33DE"/></g><g id="Vector 29.3"><path d="M 0 0L 34.6067 41.5281L 48.4494 105.551" stroke-width="4" transform="translate(1173.51 594.494)" stroke="#FF33DE"/></g><g id="Vector 30.1"><path d="M 0 77.8652L 57.1011 44.9888L 110.742 6.92135L 173.034 0" stroke-width="4" transform="translate(1151.01 591.034)" stroke="#FF33DE"/></g><g id="Vector 31.9"><path d="M 0 0L 122.854 17.3034" stroke-width="4" transform="translate(1273.87 805.596)" stroke="#FF33DE"/></g><g id="Vector 33"><path d="M 0 0L 48.4494 6.92135" stroke-width="4" transform="translate(1220.22 700.045)" stroke="#FF33DE"/></g></g><g id="Group 5.1" filter="url(#filter6_f)"><g id="Vector 32_2"><path d="M 0 32.8764L 105.551 0" stroke-width="4" transform="translate(1268.67 674.09)" stroke="#FFA1F0"/></g><g id="Vector 29.4_2"><path d="M 404.899 166.112L 408.36 223.213L 468.921 308L 0 308L 48.4494 238.787L 64.0225 157.461L 109.011 96.8989L 131.506 22.4944L 185.146 0L 282.045 17.3034" stroke-width="4" transform="translate(1042 572)" stroke="#FFA1F0"/></g><g id="Vector 32.1_2"><path d="M 0 0L 55.3708 69.2135" stroke-width="4" transform="translate(1090.45 810.786)" stroke="#FFA1F0"/></g><g id="Vector 31.2_2"><path d="M 0 179.955L 32.8764 74.4045L 76.1348 0" stroke-width="4" transform="translate(1145.82 700.045)" stroke="#FFA1F0"/></g><g id="Vector 31.3_2"><path d="M 0 0L 72.6742 44.9888L 178.225 19.0337" stroke-width="4" transform="translate(1106.02 729.461)" stroke="#FFA1F0"/></g><g id="Vector 31.4_2"><path d="M 0 10.382L 160.921 0" stroke-width="4" transform="translate(1282.52 738.112)" stroke="#FFA1F0"/></g><g id="Vector 31.5_2"><path d="M 55.3708 84.7865L 0 27.6854L 51.9101 0" stroke-width="4" transform="translate(1396.72 795.214)" stroke="#FFA1F0"/></g><g id="Vector 29.2_3"><path d="M 0 0L 34.6067 25.9551L 43.2584 136.697L 57.1011 176.494L 34.6067 308" stroke-width="4" transform="translate(1227.15 572)" stroke="#FFA1F0"/></g><g id="Vector 29.3_2"><path d="M 0 0L 34.6067 41.5281L 48.4494 105.551" stroke-width="4" transform="translate(1173.51 594.494)" stroke="#FFA1F0"/></g><g id="Vector 30.1_2"><path d="M 0 77.8652L 57.1011 44.9888L 110.742 6.92135L 173.034 0" stroke-width="4" transform="translate(1151.01 591.034)" stroke="#FFA1F0"/></g><g id="Vector 31.9_2"><path d="M 0 0L 122.854 17.3034" stroke-width="4" transform="translate(1273.87 805.596)" stroke="#FFA1F0"/></g><g id="Vector 33_2"><path d="M 0 0L 48.4494 6.92135" stroke-width="4" transform="translate(1220.22 700.045)" stroke="#FFA1F0"/></g></g></g><g id="Subtract_3"><path fill-rule="evenodd" clip-rule="evenodd" d="M 32.3477 50.9243L 32.2188 31.9243L 31.7812 31.9243L 31.6523 50.9243L 32.3477 50.9243ZM 32 0L 32.1172 16.9243L 31.8828 16.9243L 32 0ZM 31.0664 135.924L 30.7852 176.924L 33.2148 176.924L 32.9336 135.924L 31.0664 135.924ZM 30.0234 287.891L 30.4414 226.924L 33.5586 226.924L 33.9766 287.891L 30.0234 287.891ZM 29.5312 359.891L 28.9297 447.75L 35.0703 447.75L 34.4688 359.891L 29.5312 359.891ZM 27.4883 658.314L 28.2109 552.75L 35.7891 552.75L 36.5117 658.314L 27.4883 658.314ZM 26.4414 811.314L 25.1797 995.336L 38.8203 995.336L 37.5586 811.314L 26.4414 811.314ZM 21.8438 1482.82L 23.668 1216.34L 40.332 1216.34L 42.1562 1482.82L 21.8438 1482.82ZM 19.6523 1802.82L 17.0117 2188.24L 46.9883 2188.24L 44.3477 1802.82L 19.6523 1802.82ZM 10.043 3206L 13.8477 2650.24L 50.1523 2650.24L 53.957 3206L 10.043 3206ZM 5.48047 3872L 0 4672L 64 4672L 58.5195 3872L 5.48047 3872ZM 32.6992 101.924L 32.5078 73.9243L 31.4922 73.9243L 31.3008 101.924L 32.6992 101.924Z" transform="translate(688 700)" fill="#FF33DE"/></g><g id="Subtract_4" filter="url(#filter7_f)"><path d="M 32.3477 50.9243L 32.2188 31.9243L 31.7812 31.9243L 31.6523 50.9243L 32.3477 50.9243ZM 32 0L 32.1172 16.9243L 31.8828 16.9243L 32 0ZM 31.0664 135.924L 30.7852 176.924L 33.2148 176.924L 32.9336 135.924L 31.0664 135.924ZM 30.0234 287.891L 30.4414 226.924L 33.5586 226.924L 33.9766 287.891L 30.0234 287.891ZM 29.5312 359.891L 28.9297 447.75L 35.0703 447.75L 34.4688 359.891L 29.5312 359.891ZM 27.4883 658.314L 28.2109 552.75L 35.7891 552.75L 36.5117 658.314L 27.4883 658.314ZM 26.4414 811.314L 25.1797 995.336L 38.8203 995.336L 37.5586 811.314L 26.4414 811.314ZM 21.8438 1482.82L 23.668 1216.34L 40.332 1216.34L 42.1562 1482.82L 21.8438 1482.82ZM 19.6523 1802.82L 17.0117 2188.24L 46.9883 2188.24L 44.3477 1802.82L 19.6523 1802.82ZM 10.043 3206L 13.8477 2650.24L 50.1523 2650.24L 53.957 3206L 10.043 3206ZM 5.48047 3872L 0 4672L 64 4672L 58.5195 3872L 5.48047 3872ZM 32.6992 101.924L 32.5078 73.9243L 31.4922 73.9243L 31.3008 101.924L 32.6992 101.924Z" stroke-width="4" transform="translate(688 700)" stroke="#FFA1F0"/></g></g></g><defs><filter id="filter0_f" x="377" y="128" width="686" height="452" filterUnits="userSpaceOnUse" color-interpolation-filters="sRGB"><feFlood flood-opacity="0" result="BackgroundImageFix"/><feBlend mode="normal" in="SourceGraphic" in2="BackgroundImageFix" result="shape"/><feGaussianBlur stdDeviation="40" result="effect1_foregroundBlur"/></filter><filter id="filter1_f" x="-853.449" y="665" width="1484.76" height="4209.67" filterUnits="userSpaceOnUse" color-interpolation-filters="sRGB"><feFlood flood-opacity="0" result="BackgroundImageFix"/><feBlend mode="normal" in="SourceGraphic" in2="BackgroundImageFix" result="shape"/><feGaussianBlur stdDeviation="15" result="effect1_foregroundBlur"/></filter><filter id="filter2_f" x="809.688" y="665" width="1484.76" height="4209.67" filterUnits="userSpaceOnUse" color-interpolation-filters="sRGB"><feFlood flood-opacity="0" result="BackgroundImageFix"/><feBlend mode="normal" in="SourceGraphic" in2="BackgroundImageFix" result="shape"/><feGaussianBlur stdDeviation="15" result="effect1_foregroundBlur"/></filter><filter id="filter3_f" x="156" y="433.941" width="463.37" height="290.059" filterUnits="userSpaceOnUse" color-interpolation-filters="sRGB"><feFlood flood-opacity="0" result="BackgroundImageFix"/><feBlend mode="normal" in="SourceGraphic" in2="BackgroundImageFix" result="shape"/><feGaussianBlur stdDeviation="10" result="effect1_foregroundBlur"/></filter><filter id="filter4_f" x="-147" y="218.541" width="532.361" height="612.275" filterUnits="userSpaceOnUse" color-interpolation-filters="sRGB"><feFlood flood-opacity="0" result="BackgroundImageFix"/><feBlend mode="normal" in="SourceGraphic" in2="BackgroundImageFix" result="shape"/><feGaussianBlur stdDeviation="10" result="effect1_foregroundBlur"/></filter><filter id="filter5_f" x="827.244" y="241.037" width="422.309" height="531.469" filterUnits="userSpaceOnUse" color-interpolation-filters="sRGB"><feFlood flood-opacity="0" result="BackgroundImageFix"/><feBlend mode="normal" in="SourceGraphic" in2="BackgroundImageFix" result="shape"/><feGaussianBlur stdDeviation="10" result="effect1_foregroundBlur"/></filter><filter id="filter6_f" x="1018.16" y="549.927" width="516.649" height="352.073" filterUnits="userSpaceOnUse" color-interpolation-filters="sRGB"><feFlood flood-opacity="0" result="BackgroundImageFix"/><feBlend mode="normal" in="SourceGraphic" in2="BackgroundImageFix" result="shape"/><feGaussianBlur stdDeviation="10" result="effect1_foregroundBlur"/></filter><filter id="filter7_f" x="655.986" y="669.986" width="128.027" height="4734.01" filterUnits="userSpaceOnUse" color-interpolation-filters="sRGB"><feFlood flood-opacity="0" result="BackgroundImageFix"/><feBlend mode="normal" in="SourceGraphic" in2="BackgroundImageFix" result="shape"/><feGaussianBlur stdDeviation="15" result="effect1_foregroundBlur"/></filter><linearGradient id="paint0_linear" x2="1" gradientUnits="userSpaceOnUse" gradientTransform="matrix(0 4961 -1440 0 1440 0)"><stop stop-color="#430E47"/><stop offset="1" stop-color="#A10B53"/></linearGradient><linearGradient id="paint1_linear" x2="1" gradientUnits="userSpaceOnUse" gradientTransform="matrix(0 700 -1440 0 1440 0)"><stop stop-color="#55125B"/><stop offset=".339" stop-color="#C50E66"/><stop offset=".708" stop-color="#EA4F0D"/><stop offset="1" stop-color="#F8B83D"/></linearGradient><linearGradient id="paint2_linear" x2="1" gradientUnits="userSpaceOnUse" gradientTransform="matrix(-8.56553e-05 4333.93 -1449.32 -0.000246341 1444.66 0.000124199)"><stop stop-color="#600D4B" stop-opacity="0"/><stop offset="1" stop-color="#950B51"/></linearGradient><clipPath id="clip0"><rect width="1440" height="5661" fill="#fff"/></clipPath></defs></svg>
