<svg xmlns="http://www.w3.org/2000/svg" fill="none" viewBox="0 0 320 329">
  <path fill="url(#paint0_linear)" d="M34.3458 4.8752C33.013 4.73978 31.5776 4.65514 30.0397 4.62128C28.536 4.55357 26.9127 4.51972 25.1698 4.51972C23.256 4.51972 21.2739 4.5705 19.2234 4.67207L14.1484 23.5127C12.8498 28.354 11.6195 32.5521 10.4575 36.107C9.29557 39.6618 8.32159 42.658 7.53557 45.0956C8.83421 40.0511 10.1329 34.228 11.4315 27.6261C12.7643 20.9905 14.1313 13.3899 15.5325 4.82442C12.7643 5.02755 10.1499 5.26454 7.68935 5.53538C5.22876 5.77237 2.83652 6.094 0.512624 6.50027L0 0.812533C0.888547 0.744823 1.79418 0.694039 2.7169 0.660184C3.63963 0.626327 4.61361 0.609399 5.63886 0.609399C7.27925 0.609399 8.97091 0.660182 10.7138 0.76175C12.4568 0.82946 14.3022 0.947956 16.2502 1.11724L16.4552 0L20.1974 1.11724L20.0436 1.57428C22.5042 1.87898 24.8622 2.21754 27.1178 2.58995C29.4075 2.96236 31.6289 3.40248 33.7819 3.91032L34.3458 4.8752Z" transform="translate(75 126.904)"/>
  <path fill="url(#paint1_linear)" d="M33.7919 30.5716C32.8692 32.1967 31.7414 33.7879 30.4086 35.3452C29.0758 36.8687 27.5379 38.3922 25.795 39.9157L23.3856 35.5484C24.7868 32.1289 26.0171 28.9465 27.0765 26.0011C28.1701 23.0556 29.0929 20.2626 29.8447 17.6218C29.0245 19.5516 28.0334 21.5491 26.8715 23.6143C25.7437 25.6456 24.5134 27.6431 23.1806 29.6067C21.882 31.5703 20.515 33.4324 19.0796 35.1929C17.6784 36.9534 16.3114 38.5107 14.9786 39.8649L14.2609 36.107C15.252 32.0104 16.2431 28.2017 17.2342 24.6807C18.2252 21.1259 19.2847 17.7572 20.4124 14.5748L23.6932 16.3015C22.3604 19.4839 21.1301 22.5647 20.0023 25.544C18.9087 28.5233 17.9347 31.4349 17.0804 34.2788C18.6182 32.7553 19.9852 31.2656 21.1814 29.8098C22.3775 28.354 23.4369 26.9152 24.3596 25.4932C24.9406 24.613 25.7266 23.2926 26.7177 21.5321C27.7088 19.7378 28.922 17.4695 30.3573 14.7272L34.0995 16.403C32.049 22.497 29.5713 28.9465 26.6664 35.7515C28.6486 34.939 31.0237 33.2123 33.7919 30.5716Z" transform="translate(75 126.904)"/>
  <path fill="url(#paint2_linear)" d="M45.5494 30.47C44.49 32.1628 43.2255 33.9233 41.756 35.7515C40.3206 37.5458 38.6802 39.4587 36.8348 41.49L33.7591 38.5446C34.5109 35.4637 35.3653 32.4506 36.3222 29.5051C37.3132 26.5597 38.4581 23.5973 39.7568 20.618L38.3727 19.2469L30.5295 29.2512L39.2954 10.9692L39.0391 16.4538L42.1661 19.3485C39.9447 26.2889 38.6461 31.8412 38.2701 36.0054C39.603 35.3283 42.0294 33.4832 45.5494 30.47Z" transform="translate(75 126.904)"/>
  <path fill="url(#paint3_linear)" d="M60.2977 18.0281C59.4775 19.8563 58.6403 21.5152 57.7859 23.0049C56.9657 24.4945 55.9575 26.018 54.7614 27.5754C53.5995 29.1327 52.1812 30.8086 50.5066 32.6029C48.8321 34.3973 46.7645 36.4963 44.3039 38.9001L42.7148 45.0956C43.8425 35.2437 45.107 26.5936 46.5082 19.1453C47.9435 11.6971 49.4985 5.31533 51.173 0L55.8892 1.11724C55.1032 3.18243 54.2317 5.62003 53.2748 8.43004C52.3179 11.2401 51.2927 14.4733 50.1991 18.1297C50.5066 17.8927 50.8996 17.6049 51.3781 17.2663C51.8907 16.9278 52.5229 16.5723 53.2748 16.1999L56.4018 14.7272L60.2977 18.0281ZM55.7867 18.7898C54.7614 18.9591 53.9241 19.1115 53.2748 19.2469C52.6255 19.3823 52.0616 19.5177 51.5831 19.6532C51.1389 19.7547 50.7459 19.8902 50.4041 20.0594C50.0965 20.2287 49.7719 20.4318 49.4301 20.6688C48.6441 23.4111 47.8581 26.1534 47.0721 28.8957C46.286 31.6042 45.5171 34.3803 44.7652 37.2242C46.5082 35.159 47.9606 33.3477 49.1225 31.7904C50.2845 30.1992 51.2756 28.7095 52.0958 27.3214C52.916 25.9334 53.5995 24.5791 54.1463 23.2588C54.7272 21.9046 55.274 20.4149 55.7867 18.7898Z" transform="translate(75 126.904)"/>
  <path fill="url(#paint4_linear)" d="M57.3397 36.7672C57.579 31.4518 58.7067 27.0675 60.7231 23.6143C62.7394 20.161 65.7639 17.4018 69.7965 15.3366L74 17.8757C74 20.5165 73.795 22.9033 73.3849 25.0362C72.9748 27.1691 72.2742 29.1158 71.2831 30.8763C70.3262 32.6029 69.0276 34.2111 67.3872 35.7007C65.7809 37.1565 63.7817 38.5615 61.3895 39.9157L57.3397 36.7672ZM70.2066 22.4462C70.2066 20.3133 69.8478 18.6883 69.1301 17.571C66.567 19.3992 64.619 21.6845 63.2862 24.4268C61.9875 27.1352 61.3382 30.0807 61.3382 33.2631C61.3382 33.9741 61.3724 34.6681 61.4407 35.3452C61.5091 36.0223 61.6116 36.6994 61.7483 37.3766C63.0469 36.6994 64.2089 35.8361 65.2341 34.7866C66.2936 33.7032 67.1821 32.5183 67.8998 31.2318C68.6516 29.9114 69.2155 28.5064 69.5914 27.0167C70.0015 25.5271 70.2066 24.0036 70.2066 22.4462Z" transform="translate(75 126.904)"/>
  <path fill="#000" fill-opacity=".15" d="M34.3458 4.8752C33.013 4.73978 31.5776 4.65514 30.0397 4.62128C28.536 4.55357 26.9127 4.51972 25.1698 4.51972C23.256 4.51972 21.2739 4.5705 19.2234 4.67207L14.1484 23.5127C12.8498 28.354 11.6195 32.5521 10.4575 36.107C9.29557 39.6618 8.32159 42.658 7.53557 45.0956C8.83421 40.0511 10.1329 34.228 11.4315 27.6261C12.7643 20.9905 14.1313 13.3899 15.5325 4.82442C12.7643 5.02755 10.1499 5.26454 7.68935 5.53538C5.22876 5.77237 2.83652 6.094 0.512624 6.50027L0 0.812533C0.888547 0.744823 1.79418 0.694039 2.7169 0.660184C3.63963 0.626327 4.61361 0.609399 5.63886 0.609399C7.27925 0.609399 8.97091 0.660182 10.7138 0.76175C12.4568 0.82946 14.3022 0.947956 16.2502 1.11724L16.4552 0L20.1974 1.11724L20.0436 1.57428C22.5042 1.87898 24.8622 2.21754 27.1178 2.58995C29.4075 2.96236 31.6289 3.40248 33.7819 3.91032L34.3458 4.8752Z" transform="translate(75 126.904)"/>
  <path fill="#000" fill-opacity=".15" d="M33.7919 30.5716C32.8692 32.1967 31.7414 33.7879 30.4086 35.3452C29.0758 36.8687 27.5379 38.3922 25.795 39.9157L23.3856 35.5484C24.7868 32.1289 26.0171 28.9465 27.0765 26.0011C28.1701 23.0556 29.0929 20.2626 29.8447 17.6218C29.0245 19.5516 28.0334 21.5491 26.8715 23.6143C25.7437 25.6456 24.5134 27.6431 23.1806 29.6067C21.882 31.5703 20.515 33.4324 19.0796 35.1929C17.6784 36.9534 16.3114 38.5107 14.9786 39.8649L14.2609 36.107C15.252 32.0104 16.2431 28.2017 17.2342 24.6807C18.2252 21.1259 19.2847 17.7572 20.4124 14.5748L23.6932 16.3015C22.3604 19.4839 21.1301 22.5647 20.0023 25.544C18.9087 28.5233 17.9347 31.4349 17.0804 34.2788C18.6182 32.7553 19.9852 31.2656 21.1814 29.8098C22.3775 28.354 23.4369 26.9152 24.3596 25.4932C24.9406 24.613 25.7266 23.2926 26.7177 21.5321C27.7088 19.7378 28.922 17.4695 30.3573 14.7272L34.0995 16.403C32.049 22.497 29.5713 28.9465 26.6664 35.7515C28.6486 34.939 31.0237 33.2123 33.7919 30.5716Z" transform="translate(75 126.904)"/>
  <path fill="#000" fill-opacity=".15" d="M45.5494 30.47C44.49 32.1628 43.2255 33.9233 41.756 35.7515C40.3206 37.5458 38.6802 39.4587 36.8348 41.49L33.7591 38.5446C34.5109 35.4637 35.3653 32.4506 36.3222 29.5051C37.3132 26.5597 38.4581 23.5973 39.7568 20.618L38.3727 19.2469L30.5295 29.2512L39.2954 10.9692L39.0391 16.4538L42.1661 19.3485C39.9447 26.2889 38.6461 31.8412 38.2701 36.0054C39.603 35.3283 42.0294 33.4832 45.5494 30.47Z" transform="translate(75 126.904)"/>
  <path fill="#000" fill-opacity=".15" d="M60.2977 18.0281C59.4775 19.8563 58.6403 21.5152 57.7859 23.0049C56.9657 24.4945 55.9575 26.018 54.7614 27.5754C53.5995 29.1327 52.1812 30.8086 50.5066 32.6029C48.8321 34.3973 46.7645 36.4963 44.3039 38.9001L42.7148 45.0956C43.8425 35.2437 45.107 26.5936 46.5082 19.1453C47.9435 11.6971 49.4985 5.31533 51.173 0L55.8892 1.11724C55.1032 3.18243 54.2317 5.62003 53.2748 8.43004C52.3179 11.2401 51.2927 14.4733 50.1991 18.1297C50.5066 17.8927 50.8996 17.6049 51.3781 17.2663C51.8907 16.9278 52.5229 16.5723 53.2748 16.1999L56.4018 14.7272L60.2977 18.0281ZM55.7867 18.7898C54.7614 18.9591 53.9241 19.1115 53.2748 19.2469C52.6255 19.3823 52.0616 19.5177 51.5831 19.6532C51.1389 19.7547 50.7459 19.8902 50.4041 20.0594C50.0965 20.2287 49.7719 20.4318 49.4301 20.6688C48.6441 23.4111 47.8581 26.1534 47.0721 28.8957C46.286 31.6042 45.5171 34.3803 44.7652 37.2242C46.5082 35.159 47.9606 33.3477 49.1225 31.7904C50.2845 30.1992 51.2756 28.7095 52.0958 27.3214C52.916 25.9334 53.5995 24.5791 54.1463 23.2588C54.7272 21.9046 55.274 20.4149 55.7867 18.7898Z" transform="translate(75 126.904)"/>
  <path fill="#000" fill-opacity=".15" d="M57.3397 36.7672C57.579 31.4518 58.7067 27.0675 60.7231 23.6143C62.7394 20.161 65.7639 17.4018 69.7965 15.3366L74 17.8757C74 20.5165 73.795 22.9033 73.3849 25.0362C72.9748 27.1691 72.2742 29.1158 71.2831 30.8763C70.3262 32.6029 69.0276 34.2111 67.3872 35.7007C65.7809 37.1565 63.7817 38.5615 61.3895 39.9157L57.3397 36.7672ZM70.2066 22.4462C70.2066 20.3133 69.8478 18.6883 69.1301 17.571C66.567 19.3992 64.619 21.6845 63.2862 24.4268C61.9875 27.1352 61.3382 30.0807 61.3382 33.2631C61.3382 33.9741 61.3724 34.6681 61.4407 35.3452C61.5091 36.0223 61.6116 36.6994 61.7483 37.3766C63.0469 36.6994 64.2089 35.8361 65.2341 34.7866C66.2936 33.7032 67.1821 32.5183 67.8998 31.2318C68.6516 29.9114 69.2155 28.5064 69.5914 27.0167C70.0015 25.5271 70.2066 24.0036 70.2066 22.4462Z" transform="translate(75 126.904)"/>
  <path fill="url(#paint5_linear)" stroke="url(#paint6_linear)" stroke-width=".5" d="M45.2956 36.2028C45.1706 36.3528 45.0439 36.5043 44.9156 36.6572C45.6195 34.0111 46.3383 31.4239 47.0721 28.8957L49.4301 20.6688M45.2956 36.2028C45.2446 36.3933 45.1937 36.5841 45.1429 36.7753C46.719 34.8955 48.0456 33.2339 49.1225 31.7904C50.2845 30.1992 51.2756 28.7095 52.0958 27.3214C52.916 25.9334 53.5995 24.5791 54.1463 23.2588C54.6952 21.9792 55.2136 20.5787 55.7016 19.0574C55.6074 19.073 55.5148 19.0885 55.4239 19.1039M45.2956 36.2028C45.9548 33.7387 46.627 31.3263 47.3121 28.9654L47.3124 28.9646L49.6457 20.8239M45.2956 36.2028C46.719 34.4943 47.9275 32.974 48.9216 31.6417M55.4239 19.1039C55.4527 19.015 55.4813 18.9257 55.5098 18.8359C54.6097 18.9869 53.8647 19.1239 53.2748 19.2469C52.6255 19.3823 52.0616 19.5177 51.5831 19.6532C51.1389 19.7547 50.7459 19.8902 50.4041 20.0594M55.4239 19.1039C54.9497 20.5713 54.4471 21.9233 53.9165 23.1602L53.9153 23.1631C53.3735 24.4714 52.6955 25.8151 51.8805 27.1943C51.0654 28.5737 50.0794 30.0561 48.9216 31.6417M55.4239 19.1039C54.5827 19.2461 53.8835 19.3753 53.3258 19.4916C52.6805 19.6262 52.1225 19.7603 51.6512 19.8937L51.6389 19.8972L51.6389 19.8969C51.2123 19.9944 50.84 20.1231 50.5199 20.2811M50.4041 20.0594C50.0965 20.2287 49.7719 20.4318 49.4301 20.6688M50.4041 20.0594L50.5246 20.2785C50.5231 20.2793 50.5215 20.2802 50.5199 20.2811M50.4041 20.0594L50.5151 20.2835C50.5167 20.2827 50.5183 20.2819 50.5199 20.2811M49.4301 20.6688L49.6704 20.7377L49.6457 20.8239M49.4301 20.6688L49.5726 20.8743C49.5971 20.8573 49.6215 20.8405 49.6457 20.8239M49.6457 20.8239C49.9529 20.6138 50.2443 20.433 50.5199 20.2811M48.9216 31.6417C48.9213 31.6421 48.921 31.6425 48.9206 31.643L49.1225 31.7903L48.9222 31.6409C48.922 31.6411 48.9218 31.6414 48.9216 31.6417ZM61.9787 37.2537C61.9616 37.1677 61.9451 37.0817 61.9292 36.9957C61.8527 37.038 61.7757 37.0796 61.6982 37.1205L61.9787 37.2537ZM61.9787 37.2537C61.9024 37.2953 61.8256 37.3363 61.7483 37.3766L61.9787 37.2537ZM34.3205 5.12392L34.8097 5.17363L34.5616 4.74906L33.9977 3.78418L33.9436 3.69161L33.8393 3.66699C31.6804 3.15777 29.4533 2.71653 27.1582 2.34323C24.9921 1.98561 22.7321 1.65922 20.3781 1.36403L20.4343 1.19696L20.5168 0.95171L20.2689 0.877684L16.5267 -0.239552L16.2596 -0.319294L16.2093 -0.0451294L16.0453 0.848678C14.178 0.689533 12.4048 0.577296 10.726 0.512032C8.97935 0.410294 7.28364 0.359399 5.63886 0.359399C4.61088 0.359399 3.63383 0.376372 2.70774 0.410352C1.78185 0.444324 0.872939 0.495287 -0.0189958 0.563256L-0.271744 0.582516L-0.248991 0.834974L0.263633 6.52271L0.288023 6.79333L0.555676 6.74654C2.87295 6.34143 5.25882 6.02064 7.71332 5.78423L7.71332 5.78426L7.71671 5.78388C10.0801 5.52374 12.586 5.29482 15.2345 5.09716C13.8516 13.5326 12.5022 21.0258 11.1864 27.5769L11.1862 27.5779C9.88824 34.1763 8.59062 39.9946 7.29346 45.0333L7.7735 45.1724C8.55939 42.7352 9.53326 39.7393 10.6951 36.1846C11.8589 32.6244 13.0904 28.4218 14.3899 23.5775L19.4174 4.91289C21.3995 4.81743 23.317 4.76972 25.1698 4.76972C26.9096 4.76972 28.5291 4.80351 30.0285 4.87103L30.0285 4.8711L30.0342 4.87122C31.5664 4.90496 32.9951 4.98926 34.3205 5.12392ZM34.0093 30.695L33.6193 30.3907C31.1258 32.7695 28.9686 34.3876 27.1456 35.2641C29.9454 28.6692 32.3425 22.4087 34.3364 16.4828L34.4088 16.2676L34.2017 16.1749L30.4595 14.499L30.2449 14.4029L30.1358 14.6112C28.7012 17.3522 27.4891 19.6185 26.4993 21.4105C25.5093 23.1691 24.7269 24.483 24.151 25.3555L24.1499 25.3572C23.2328 26.7704 22.179 28.2018 20.9882 29.6511C19.9846 30.8725 18.8594 32.1189 17.6121 33.3901C18.3928 30.8575 19.2676 28.2712 20.2366 25.6314C21.3631 22.6554 22.5922 19.5776 23.9238 16.398L24.0123 16.1869L23.8096 16.0802L20.5289 14.3536L20.2733 14.2191L20.1768 14.4913C19.047 17.6795 17.9859 21.0536 16.9934 24.6133C16.0014 28.1376 15.0096 31.9492 14.018 36.0482L14.0052 36.1007L14.0154 36.1539L14.7331 39.9118L14.8225 40.38L15.1568 40.0403C16.4965 38.6791 17.8689 37.1154 19.2743 35.3497C20.7144 33.5833 22.0857 31.7153 23.3883 29.7459C24.7247 27.7768 25.9585 25.7736 27.0897 23.7363C27.615 22.8026 28.1057 21.8824 28.5617 20.9756C28.0455 22.5707 27.4723 24.2168 26.8422 25.9141L26.8413 25.9165C25.7833 28.8579 24.5543 32.0369 23.1543 35.4536L23.1089 35.5643L23.1667 35.6691L25.5761 40.0365L25.7259 40.3081L25.9595 40.104C27.7097 38.5741 29.2556 37.0428 30.5968 35.5098L30.5985 35.5078C31.9407 33.9394 33.078 32.3352 34.0093 30.695ZM50.6561 17.4764C51.6677 14.1185 52.6195 11.13 53.5115 8.51063C54.4677 5.70253 55.3381 3.26784 56.1228 1.20616L56.2242 0.939693L55.9468 0.873968L51.2307 -0.243267L51.0045 -0.296857L50.9346 -0.0751216C49.2563 5.25192 47.6992 11.6435 46.2627 19.098L46.2625 19.0991C45.558 22.8439 44.8882 26.8916 44.2529 31.2421C41.6578 33.4225 39.7648 34.8564 38.5648 35.5584C38.9905 31.4753 40.2678 26.0994 42.4042 19.4247L42.4527 19.2731L42.3359 19.165L39.2942 16.3493L39.5451 10.9809L39.07 10.8611L30.3041 29.1431L30.7263 29.4055L38.3962 19.6221L39.4592 20.6752C38.186 23.6079 37.0613 26.5246 36.0852 29.4254L36.0844 29.4279C35.1255 32.3794 34.2695 35.3985 33.5162 38.4853L33.482 38.6254L33.5861 38.7251L36.6619 41.6706L36.8473 41.8481L37.0198 41.6581C38.868 39.6238 40.5118 37.7071 41.9508 35.9081C42.6699 35.0136 43.3403 34.1348 43.9622 33.2717C43.4393 36.9913 42.9407 40.9232 42.4664 45.0672L42.9569 45.1577L44.5287 39.03C46.969 36.6449 49.0228 34.5593 50.6894 32.7735C52.3682 30.9746 53.7923 29.2922 54.9608 27.7262C56.1625 26.1615 57.1771 24.6285 58.0039 23.1273C58.8626 21.6299 59.7032 19.9642 60.5258 18.1304L60.6028 17.9589L60.4593 17.8374L56.5634 14.5364L56.4407 14.4325L56.2953 14.501L53.1683 15.9737L53.1683 15.9737L53.1638 15.9759C52.4058 16.3513 51.764 16.7119 51.2403 17.0577L51.2402 17.0576L51.2337 17.0623C51.0253 17.2097 50.8328 17.3478 50.6561 17.4764ZM57.09 36.7559L57.0842 36.8851L57.1863 36.9645L61.236 40.1131L61.3676 40.2154L61.5126 40.1333C63.9169 38.7723 65.9321 37.3569 67.5551 35.8859L67.5552 35.8858C69.2133 34.3801 70.5299 32.751 71.5016 30.9978C72.5065 29.2124 73.2156 27.2403 73.6304 25.0834C74.044 22.932 74.25 20.5291 74.25 17.8757V17.7347L74.1293 17.6618L69.9258 15.1226L69.8065 15.0506L69.6825 15.1141C65.6132 17.198 62.5506 19.9884 60.5072 23.4882C58.4648 26.9861 57.3305 31.413 57.09 36.7559ZM65.2341 34.7866C66.2936 33.7032 67.1821 32.5183 67.8998 31.2318L65.2341 34.7866ZM63.5113 24.5355C64.787 21.9109 66.6341 19.7106 69.0562 17.9331L63.5113 24.5355ZM67.8996 31.2317L67.8997 31.2317L67.8996 31.2317Z" transform="translate(75 125)"/>
  <g filter="url(#filter0_f)">
    <line x2="320" y1="-2" y2="-2" stroke="#936E8D" stroke-width="4" transform="translate(0 24)"/>
  </g>
  <g filter="url(#filter1_f)">
    <line x2="320" y1="-2" y2="-2" stroke="#936E8D" stroke-width="4" transform="translate(0 64)"/>
  </g>
  <g filter="url(#filter2_f)">
    <line x2="320" y1="-2" y2="-2" stroke="#936E8D" stroke-width="4" transform="translate(0 104)"/>
  </g>
  <g filter="url(#filter3_f)">
    <line x2="320" y1="-2" y2="-2" stroke="#936E8D" stroke-width="4" transform="translate(0 204)"/>
  </g>
  <g filter="url(#filter4_f)">
    <line x2="320" y1="-2" y2="-2" stroke="#936E8D" stroke-width="4" transform="translate(0 144)"/>
  </g>
  <g filter="url(#filter5_f)">
    <line x2="320" y1="-2" y2="-2" stroke="#936E8D" stroke-width="4" transform="translate(0 244)"/>
  </g>
  <g filter="url(#filter6_f)">
    <ellipse cx="204" cy="31" fill="url(#paint7_radial)" rx="204" ry="31" transform="translate(-44 213)"/>
  </g>
  <path fill="url(#paint8_linear)" d="M3.73174e-06 41.5775V4.66144e-07H26.3822V9.19532H10.8525V15.6107H25.4957V24.7754H10.8525V32.3822H27.2076V41.5775H3.73174e-06Z" transform="translate(88.7461 179.869)"/>
  <path fill="url(#paint9_linear)" d="M3.73174e-06 40.9665V4.66144e-07H25.7708V8.58433H10.2411V15.6107H24.8843V24.1644H10.2411V32.3822H26.5962V40.9665H3.73174e-06Z" transform="translate(89.0508 180.174)"/>
  <path fill="url(#paint10_linear)" d="M23.6615 22.9425H9.01826V32.3822H25.3734V39.7446H3.73174e-06V4.66144e-07H24.548V7.36237H9.01826V15.6107H23.6615V22.9425Z" transform="translate(89.6602 180.786)"/>
  <path fill="url(#paint11_linear)" d="M3.73174e-06 41.5775V4.66144e-07H26.3822V9.19532H10.8525V15.6107H25.4957V24.7754H10.8525V32.3822H27.2076V41.5775H3.73174e-06Z" transform="translate(203.656 179.869)"/>
  <path fill="url(#paint12_linear)" d="M3.73174e-06 40.9665V4.66144e-07H25.7708V8.58433H10.2411V15.6107H24.8843V24.1644H10.2411V32.3822H26.5962V40.9665H3.73174e-06Z" transform="translate(203.965 180.175)"/>
  <path fill="url(#paint13_linear)" d="M23.6615 22.9425H9.01826V32.3822H25.3734V39.7446H3.73174e-06V4.66144e-07H24.548V7.36237H9.01826V15.6107H23.6615V22.9425Z" transform="translate(204.574 180.786)"/>
  <path fill="url(#paint14_linear)" d="M22.4081 41.5775L13.0841 25.1115L10.7302 28.0136V41.5775H-9.32934e-07V0H10.7302V15.519C10.8525 15.3357 10.9748 15.1219 11.097 14.9386C11.3722 14.5109 11.6473 14.0832 11.9224 13.6555L21.2464 0H34.6362L20.7267 17.9019L35.1254 41.5775H22.4081Z" transform="translate(163.309 179.869)"/>
  <path fill="url(#paint15_linear)" d="M22.3164 40.9665L12.8396 24.2866L10.1188 27.6165V40.9971H1.86587e-06V0H10.1188V16.2827C10.4245 15.7634 10.7608 15.2746 11.0665 14.7858C11.3416 14.3581 11.6167 13.9305 11.8919 13.5028L21.1241 0H33.7191L20.0542 17.5658L34.2694 40.9665H22.3164Z" transform="translate(163.582 180.174)"/>
  <path fill="url(#paint16_linear)" d="M0 0H8.89598V17.5658H9.0794C9.96594 16.0383 10.9136 14.6025 11.8002 13.1973L20.8184 0H31.8543L18.7091 16.9243L32.588 39.7446H22.0718L12.3199 22.5759L8.89598 26.7611V39.7446H0V0Z" transform="translate(164.191 180.786)"/>
  <path fill="url(#paint17_linear)" d="M-7.46347e-06 41.8525V0.947025L0.764252 0.82483C4.03528 0.274944 8.19287 1.86458e-06 13.0841 1.86458e-06C18.8008 1.86458e-06 22.9584 1.09977 25.8014 3.39096C28.7056 5.68216 30.387 9.31752 30.387 13.3195C30.387 17.4131 28.9807 21.0179 26.4434 23.4313C23.3558 26.3334 18.6785 27.8609 12.9007 27.8609C12.1059 27.8609 11.4027 27.8304 10.7608 27.7998V41.9135H-7.46347e-06V41.8525ZM10.7608 19.0016C11.311 19.0627 11.9836 19.0933 12.8396 19.0933C17.1805 19.0933 19.6568 17.077 19.6568 13.5333C19.6568 9.25642 15.8355 8.61488 13.5427 8.61488C12.2282 8.61488 11.311 8.70653 10.7302 8.79818V19.0016H10.7608Z" transform="translate(50.7773 179.869)"/>
  <path fill="url(#paint18_linear)" d="M-7.46347e-06 41.2415V0.916479L0.519693 0.82483C3.76015 0.274944 7.88717 1.86458e-06 12.7784 1.86458e-06C18.4339 1.86458e-06 22.5304 1.09977 25.3123 3.32987C28.1553 5.59051 29.8061 9.10368 29.8061 13.014C29.8061 17.0159 28.4305 20.5291 25.9543 22.8814C22.9278 25.7225 18.3117 27.2499 12.595 27.2499C11.6779 27.2499 10.8525 27.2194 10.1494 27.1583V41.3026H-7.46347e-06V41.2415ZM10.1494 18.9711C10.7608 19.0627 11.4945 19.0933 12.5338 19.0933C16.9971 19.0933 19.6568 16.8937 19.6568 13.2278C19.6568 9.89795 17.3334 8.0039 13.237 8.0039C11.6779 8.0039 10.6691 8.1261 10.1188 8.24829V18.9711H10.1494Z" transform="translate(51.082 180.175)"/>
  <path fill="url(#paint19_linear)" d="M-7.46347e-06 0.824828C2.7819 0.36659 6.66435 0 12.167 0C17.7003 0 21.6744 1.06922 24.334 3.17712C26.8714 5.19337 28.5833 8.49269 28.5833 12.3724C28.5833 16.2522 27.2993 19.5821 24.9149 21.8122C21.8578 24.7143 17.3028 25.9974 11.9836 25.9974C10.7913 25.9974 9.75195 25.9363 8.92655 25.8141V40.0195H0.0305741V0.824828H-7.46347e-06ZM8.92655 18.8794C9.69081 19.0627 10.6385 19.1238 11.9224 19.1238C16.6914 19.1238 19.6568 16.7104 19.6568 12.6474C19.6568 8.98147 17.1194 6.81248 12.6256 6.81248C10.7914 6.81248 9.56853 6.99577 8.89598 7.17907V18.8794H8.92655Z" transform="translate(51.6953 180.755)"/>
  <path fill="url(#paint20_linear)" d="M21.2158 41.883L20.9407 41.4248C20.5127 40.6916 19.7485 38.8892 18.0671 31.924C17.0277 27.1277 15.5298 26.3029 12.5033 26.2418H10.7302V41.883H-2.33233e-07V0.947022L0.764259 0.824827C4.03529 0.30549 8.43742 3.72915e-06 12.9007 3.72915e-06C19.2899 3.72915e-06 23.4169 1.03868 26.3211 3.32987C28.9807 5.46831 30.3258 8.49269 30.3258 12.3724C30.3258 17.077 27.4828 20.5596 24.2729 22.3315C26.2294 23.7062 27.6356 26.0279 28.5833 29.5411C28.9196 30.7631 29.2559 32.0462 29.5921 33.2987C30.4175 36.3841 31.2429 39.5307 31.7626 40.5694L32.4352 41.883H21.2158ZM13.3593 17.9324C17.2417 17.9324 19.5956 16.13 19.5956 13.1362C19.5956 10.1118 17.6697 8.55379 13.9095 8.52324C12.7173 8.52324 11.6473 8.58434 10.7608 8.67598V17.9324H13.3593Z" transform="translate(239.457 179.869)"/>
  <path fill="url(#paint21_linear)" d="M21.063 41.272L20.8796 40.9665C20.2376 39.8362 19.2899 36.7507 18.0365 31.5574C16.9666 26.6084 15.3158 25.6919 12.1976 25.6614H10.1188V41.3026H-2.33233e-07V0.916481L0.519696 0.824827C3.76016 0.30549 8.16229 3.72915e-06 12.595 3.72915e-06C18.8925 3.72915e-06 22.9889 1.00812 25.832 3.26877C28.3999 5.34611 29.7144 8.27885 29.7144 12.067C29.7144 16.8632 26.6574 20.3763 23.3558 21.9955C25.4957 23.2785 26.9631 25.6308 28.0025 29.3273C28.3387 30.5492 28.675 31.8323 29.0113 33.0848C29.8673 36.323 30.6621 39.3474 31.2124 40.4166L31.6403 41.3026H21.063V41.272ZM13.0536 17.9324C17.15 17.9324 19.5956 16.0078 19.5956 12.8307C19.5956 8.82873 16.3246 7.9428 13.6038 7.91225C12.2587 7.91225 11.097 7.97335 10.1494 8.12609V17.9629H13.0536V17.9324Z" transform="translate(239.762 180.175)"/>
  <path fill="url(#paint22_linear)" d="M-2.33233e-07 0.824827C2.90419 0.366589 7.21461 3.72915e-06 11.9836 3.72915e-06C17.8837 3.72915e-06 22.0107 0.885926 24.8537 3.11602C27.2076 5.01007 28.5222 7.75951 28.5222 11.4254C28.5222 16.4966 24.9149 19.9792 21.491 21.2012V21.3845C24.2729 22.5148 25.8014 25.1726 26.8102 28.8079C28.0636 33.2987 29.2864 38.492 30.0507 40.0195H20.849C20.207 38.8892 19.2593 35.651 18.0671 30.7631C16.9971 25.8141 15.2852 24.4394 11.6473 24.4088H8.92655V40.05H-2.33233e-07V0.824827ZM8.89598 17.9324H12.4421C16.936 17.9324 19.5956 15.7023 19.5956 12.2197C19.5956 8.55379 17.1194 6.72083 12.9924 6.69028C10.8219 6.69028 9.56853 6.87358 8.92655 6.99578V17.9324H8.89598Z" transform="translate(240.371 180.786)"/>
  <path fill="url(#paint23_linear)" d="M12.3199 42.7995C7.4286 42.7995 2.81248 41.4859 0.611409 40.2639L9.32934e-07 39.9278L2.26221 30.702L3.3016 31.2213C4.40214 31.7712 8.28457 33.6041 12.8701 33.6041C14.4904 33.6041 18.2811 33.2681 18.2811 30.2132C18.2811 28.533 17.3028 27.311 12.2282 25.4781C4.58556 22.8203 0.703121 18.5739 0.703121 12.8918C0.703121 9.25641 2.23164 5.98765 5.04411 3.66591C7.91773 1.28307 11.953 1.86458e-06 16.6609 1.86458e-06C20.5739 1.86458e-06 24.12 0.702631 27.1771 2.07735L27.8802 2.41339L25.3734 11.4865L24.3952 10.9977C21.919 9.80631 19.2593 9.19532 16.4774 9.19532C13.5121 9.19532 11.6167 10.3256 11.6167 12.0975C11.6167 13.961 13.2981 14.908 18.4034 16.8326C25.8625 19.5821 29.317 23.6146 29.317 29.5411C29.317 33.2376 27.819 36.5674 25.0677 38.8892C22.0412 41.4553 17.6391 42.7995 12.3199 42.7995Z" transform="translate(14 179.258)"/>
  <path fill="url(#paint24_linear)" d="M11.953 42.219C7.1229 42.219 2.56791 40.936 0.397416 39.714L0 39.5002L2.13993 30.8547L2.81247 31.2213C5.74723 32.7182 9.3851 33.6347 12.5033 33.6347C16.1412 33.6347 18.2199 32.2905 18.2199 29.9382C18.2199 27.8609 16.6303 26.5778 11.953 24.8976C4.43271 22.2704 0.64198 18.1462 0.64198 12.5863C0.64198 9.04258 2.13992 5.83491 4.86069 3.57426C7.70373 1.22197 11.6473 0 16.294 0C20.1459 0 23.6615 0.702636 26.6879 2.0468L27.1771 2.26064L24.8231 10.7228L24.1506 10.4173C21.6438 9.19532 18.9231 8.58434 16.08 8.58434C12.9313 8.58434 10.9136 9.83685 10.9136 11.792C10.9136 13.8388 12.6561 14.8469 17.8837 16.8326C25.19 19.521 28.6139 23.4924 28.6139 29.2662C28.6139 32.871 27.1465 36.1092 24.4563 38.4004C21.5215 40.9054 17.2111 42.219 11.953 42.219Z" transform="translate(14.3672 179.533)"/>
  <path fill="url(#paint25_linear)" d="M1.83422 31.1297C4.24928 32.3822 7.97887 33.6041 11.8002 33.6041C15.9272 33.6041 18.1282 31.8934 18.1282 29.2967C18.1282 26.8222 16.2329 25.417 11.4639 23.7062C4.86069 21.415 0.550267 17.7491 0.550267 11.9753C0.550267 5.19337 6.20578 1.86458e-06 15.5909 1.86458e-06C20.0847 1.86458e-06 23.3863 0.94703 25.7403 2.01625L23.7226 9.25642C22.133 8.49268 19.2899 7.36237 15.4075 7.36237C11.525 7.36237 9.62967 9.13422 9.62967 11.181C9.62967 13.7166 11.8613 14.8469 16.9971 16.7715C24.0283 19.3682 27.3299 23.0341 27.3299 28.6246C27.3299 35.2844 22.1941 40.936 11.2805 40.936C6.72548 40.936 2.26221 39.7446 -9.32934e-07 38.5226L1.83422 31.1297Z" transform="translate(15.0391 180.174)"/>
  <path fill="url(#paint26_linear)" d="M12.3199 42.7995C7.4286 42.7995 2.81248 41.4859 0.611409 40.2639L9.32934e-07 39.9278L2.26221 30.702L3.3016 31.2213C4.40214 31.7712 8.28457 33.6041 12.8701 33.6041C14.4904 33.6041 18.2811 33.2681 18.2811 30.2132C18.2811 28.533 17.3028 27.311 12.2282 25.4781C4.58556 22.8203 0.703121 18.5739 0.703121 12.8918C0.703121 9.25641 2.23164 5.98765 5.04411 3.66591C7.91773 1.28307 11.953 1.86458e-06 16.6609 1.86458e-06C20.5739 1.86458e-06 24.12 0.702631 27.1771 2.07735L27.8802 2.41339L25.3734 11.4865L24.3952 10.9977C21.919 9.80631 19.2593 9.19532 16.4774 9.19532C13.5121 9.19532 11.6167 10.3256 11.6167 12.0975C11.6167 13.961 13.2981 14.908 18.4034 16.8326C25.8625 19.5821 29.317 23.6146 29.317 29.5411C29.317 33.2376 27.819 36.5674 25.0677 38.8892C22.0412 41.4553 17.6391 42.7995 12.3199 42.7995Z" transform="translate(274.461 179.258)"/>
  <path fill="url(#paint27_linear)" d="M11.953 42.219C7.1229 42.219 2.56791 40.936 0.397416 39.714L0 39.5002L2.13993 30.8547L2.81247 31.2213C5.74723 32.7182 9.3851 33.6347 12.5033 33.6347C16.1412 33.6347 18.2199 32.2905 18.2199 29.9382C18.2199 27.8609 16.6303 26.5778 11.953 24.8976C4.43271 22.2704 0.64198 18.1462 0.64198 12.5863C0.64198 9.04258 2.13992 5.83491 4.86069 3.57426C7.70373 1.22197 11.6473 0 16.294 0C20.1459 0 23.6615 0.702636 26.6879 2.0468L27.1771 2.26064L24.8231 10.7228L24.1506 10.4173C21.6438 9.19532 18.9231 8.58434 16.08 8.58434C12.9313 8.58434 10.9136 9.83685 10.9136 11.792C10.9136 13.8388 12.6561 14.8469 17.8837 16.8326C25.19 19.521 28.6139 23.4924 28.6139 29.2662C28.6139 32.871 27.1465 36.1092 24.4563 38.4004C21.5215 40.9054 17.2111 42.219 11.953 42.219Z" transform="translate(274.828 179.533)"/>
  <path fill="url(#paint28_linear)" d="M1.83422 31.1297C4.24928 32.3822 7.97887 33.6041 11.8002 33.6041C15.9272 33.6041 18.1282 31.8934 18.1282 29.2967C18.1282 26.8222 16.2329 25.417 11.4639 23.7062C4.86069 21.415 0.550267 17.7491 0.550267 11.9753C0.550267 5.19337 6.20578 1.86458e-06 15.5909 1.86458e-06C20.0847 1.86458e-06 23.3863 0.94703 25.7403 2.01625L23.7226 9.25642C22.133 8.49268 19.2899 7.36237 15.4075 7.36237C11.525 7.36237 9.62967 9.13422 9.62967 11.181C9.62967 13.7166 11.8613 14.8469 16.9971 16.7715C24.0283 19.3682 27.3299 23.0341 27.3299 28.6246C27.3299 35.2844 22.1941 40.936 11.2805 40.936C6.72548 40.936 2.26221 39.7446 -9.32934e-07 38.5226L1.83422 31.1297Z" transform="translate(275.5 180.174)"/>
  <path fill="url(#paint29_linear)" d="M27.1771 41.5775L24.12 31.3741H14.0929L11.2499 41.5775H-2.33233e-07L12.7173 4.66144e-07H25.8625L38.7632 41.5775H27.1771ZM22.2552 22.8203L20.1153 15.5496C19.7179 14.2359 19.3205 12.7696 18.9536 11.3032C18.6174 12.7696 18.2811 14.2665 17.9142 15.5496L15.866 22.8203H22.2552Z" transform="translate(119.312 179.869)"/>
  <path fill="url(#paint30_linear)" d="M26.9936 40.9665L23.9366 30.7631H13.451L10.6385 40.9665H-4.66467e-07L12.5339 4.66144e-07H25.2511L37.9684 40.9665H26.9936ZM22.2552 22.8203L19.993 15.183C19.5039 13.5028 18.9842 11.5476 18.5256 9.68411C18.4645 9.95905 18.4034 10.234 18.3422 10.5395C17.9754 12.128 17.6085 13.7777 17.2111 15.183L15.0712 22.8508H22.2552V22.8203Z" transform="translate(119.711 180.175)"/>
  <path fill="url(#paint31_linear)" d="M12.167 29.5411L9.32397 39.7446H-2.33233e-07L12.167 4.66144e-07H23.9672L36.3176 39.7446H26.6268L23.5698 29.5411H12.167ZM22.2552 22.8203L19.779 14.3887C19.0759 12.0364 18.3728 9.07312 17.7614 6.72083H17.6391C17.0583 9.07312 16.4469 12.0975 15.8049 14.3887L13.451 22.8203H22.2552Z" transform="translate(120.535 180.786)"/>
  <g filter="url(#filter7_f)">
    <path fill="#fff" d="M5.14716 4.97724C6.314 4.81959 7.64441 4.74076 9.17111 4.74076C7.64441 4.74076 6.314 4.65068 5.14716 4.49303C5.86689 3.53586 6.7502 2.49988 7.8298 1.38507C6.7502 2.49988 5.74694 3.412 4.82001 4.1552C4.66734 2.95031 4.5801 1.5765 4.5801 0C4.5801 1.5765 4.49286 2.95031 4.3511 4.1552C3.42417 3.412 2.42091 2.49988 1.34132 1.38507C2.42091 2.49988 3.30422 3.53586 4.02395 4.49303C2.85711 4.65068 1.5267 4.74076 0 4.74076C1.5267 4.74076 2.85711 4.83085 4.02395 4.97724C3.30422 5.9344 2.42091 6.97038 1.34132 8.08519C2.42091 6.97038 3.42417 6.05826 4.3511 5.31506C4.50377 6.51995 4.5801 7.89376 4.5801 9.47026C4.5801 7.89376 4.66734 6.51995 4.82001 5.31506C5.74694 6.05826 6.7502 6.97038 7.8298 8.08519C6.7502 6.97038 5.86689 5.9344 5.14716 4.97724Z" transform="translate(153.477 216.53)"/>
  </g>
  <path fill="#fff" d="M4.11773 3.85334C5.0512 3.73129 6.11553 3.67027 7.33689 3.67027C6.11553 3.67027 5.0512 3.60052 4.11773 3.47847C4.69352 2.73744 5.40016 1.93539 6.26384 1.07231C5.40016 1.93539 4.59755 2.64155 3.85601 3.21693C3.73387 2.28411 3.66408 1.22052 3.66408 0C3.66408 1.22052 3.59429 2.28411 3.48088 3.21693C2.73934 2.64155 1.93673 1.93539 1.07305 1.07231C1.93673 1.93539 2.64337 2.73744 3.21916 3.47847C2.28569 3.60052 1.22136 3.67027 0 3.67027C1.22136 3.67027 2.28569 3.74001 3.21916 3.85334C2.64337 4.59437 1.93673 5.39643 1.07305 6.25951C1.93673 5.39643 2.73934 4.69027 3.48088 4.11488C3.60302 5.04771 3.66408 6.1113 3.66408 7.33182C3.66408 6.1113 3.73387 5.04771 3.85601 4.11488C4.59755 4.69027 5.40016 5.39643 6.26384 6.25951C5.40016 5.39643 4.69352 4.59437 4.11773 3.85334Z" transform="translate(154.27 217.751)"/>
  <g filter="url(#filter8_f)">
    <path fill="#fff" d="M5.14716 4.97724C6.314 4.81959 7.64441 4.74076 9.17111 4.74076C7.64441 4.74076 6.314 4.65068 5.14716 4.49303C5.86689 3.53586 6.7502 2.49988 7.8298 1.38507C6.7502 2.49988 5.74694 3.412 4.82001 4.1552C4.66734 2.95031 4.5801 1.5765 4.5801 0C4.5801 1.5765 4.49286 2.95031 4.3511 4.1552C3.42417 3.412 2.42091 2.49988 1.34132 1.38507C2.42091 2.49988 3.30422 3.53586 4.02395 4.49303C2.85711 4.65068 1.5267 4.74076 0 4.74076C1.5267 4.74076 2.85711 4.83085 4.02395 4.97724C3.30422 5.9344 2.42091 6.97038 1.34132 8.08519C2.42091 6.97038 3.42417 6.05826 4.3511 5.31506C4.50377 6.51995 4.5801 7.89376 4.5801 9.47026C4.5801 7.89376 4.66734 6.51995 4.82001 5.31506C5.74694 6.05826 6.7502 6.97038 7.8298 8.08519C6.7502 6.97038 5.86689 5.9344 5.14716 4.97724Z" transform="translate(297.828 177.045)"/>
  </g>
  <path fill="#fff" d="M4.11773 3.85334C5.0512 3.73129 6.11553 3.67027 7.33689 3.67027C6.11553 3.67027 5.0512 3.60052 4.11773 3.47847C4.69352 2.73744 5.40016 1.93539 6.26384 1.07231C5.40016 1.93539 4.59755 2.64155 3.85601 3.21693C3.73387 2.28411 3.66408 1.22052 3.66408 0C3.66408 1.22052 3.59429 2.28411 3.48088 3.21693C2.73934 2.64155 1.93673 1.93539 1.07305 1.07231C1.93673 1.93539 2.64337 2.73744 3.21916 3.47847C2.28569 3.60052 1.22136 3.67027 0 3.67027C1.22136 3.67027 2.28569 3.74001 3.21916 3.85334C2.64337 4.59437 1.93673 5.39643 1.07305 6.25951C1.93673 5.39643 2.73934 4.69027 3.48088 4.11488C3.60302 5.04771 3.66408 6.1113 3.66408 7.33182C3.66408 6.1113 3.73387 5.04771 3.85601 4.11488C4.59755 4.69027 5.40016 5.39643 6.26384 6.25951C5.40016 5.39643 4.69352 4.59437 4.11773 3.85334Z" transform="translate(298.746 178.267)"/>
  <defs>
    <filter id="filter0_f" width="360" height="44" x="-20" y="0" color-interpolation-filters="sRGB" filterUnits="userSpaceOnUse">
      <feFlood flood-opacity="0" result="BackgroundImageFix"/>
      <feBlend in="SourceGraphic" in2="BackgroundImageFix" result="shape"/>
      <feGaussianBlur result="effect1_foregroundBlur" stdDeviation="10"/>
    </filter>
    <filter id="filter1_f" width="360" height="44" x="-20" y="40" color-interpolation-filters="sRGB" filterUnits="userSpaceOnUse">
      <feFlood flood-opacity="0" result="BackgroundImageFix"/>
      <feBlend in="SourceGraphic" in2="BackgroundImageFix" result="shape"/>
      <feGaussianBlur result="effect1_foregroundBlur" stdDeviation="10"/>
    </filter>
    <filter id="filter2_f" width="360" height="44" x="-20" y="80" color-interpolation-filters="sRGB" filterUnits="userSpaceOnUse">
      <feFlood flood-opacity="0" result="BackgroundImageFix"/>
      <feBlend in="SourceGraphic" in2="BackgroundImageFix" result="shape"/>
      <feGaussianBlur result="effect1_foregroundBlur" stdDeviation="10"/>
    </filter>
    <filter id="filter3_f" width="360" height="44" x="-20" y="180" color-interpolation-filters="sRGB" filterUnits="userSpaceOnUse">
      <feFlood flood-opacity="0" result="BackgroundImageFix"/>
      <feBlend in="SourceGraphic" in2="BackgroundImageFix" result="shape"/>
      <feGaussianBlur result="effect1_foregroundBlur" stdDeviation="10"/>
    </filter>
    <filter id="filter4_f" width="360" height="44" x="-20" y="120" color-interpolation-filters="sRGB" filterUnits="userSpaceOnUse">
      <feFlood flood-opacity="0" result="BackgroundImageFix"/>
      <feBlend in="SourceGraphic" in2="BackgroundImageFix" result="shape"/>
      <feGaussianBlur result="effect1_foregroundBlur" stdDeviation="10"/>
    </filter>
    <filter id="filter5_f" width="360" height="44" x="-20" y="220" color-interpolation-filters="sRGB" filterUnits="userSpaceOnUse">
      <feFlood flood-opacity="0" result="BackgroundImageFix"/>
      <feBlend in="SourceGraphic" in2="BackgroundImageFix" result="shape"/>
      <feGaussianBlur result="effect1_foregroundBlur" stdDeviation="10"/>
    </filter>
    <filter id="filter6_f" width="516" height="170" x="-98" y="159" color-interpolation-filters="sRGB" filterUnits="userSpaceOnUse">
      <feFlood flood-opacity="0" result="BackgroundImageFix"/>
      <feBlend in="SourceGraphic" in2="BackgroundImageFix" result="shape"/>
      <feGaussianBlur result="effect1_foregroundBlur" stdDeviation="27"/>
    </filter>
    <filter id="filter7_f" width="13.1711" height="13.4703" x="151.477" y="214.53" color-interpolation-filters="sRGB" filterUnits="userSpaceOnUse">
      <feFlood flood-opacity="0" result="BackgroundImageFix"/>
      <feBlend in="SourceGraphic" in2="BackgroundImageFix" result="shape"/>
      <feGaussianBlur result="effect1_foregroundBlur" stdDeviation="1"/>
    </filter>
    <filter id="filter8_f" width="13.1711" height="13.4703" x="295.828" y="175.045" color-interpolation-filters="sRGB" filterUnits="userSpaceOnUse">
      <feFlood flood-opacity="0" result="BackgroundImageFix"/>
      <feBlend in="SourceGraphic" in2="BackgroundImageFix" result="shape"/>
      <feGaussianBlur result="effect1_foregroundBlur" stdDeviation="1"/>
    </filter>
    <linearGradient id="paint0_linear" x2="1" gradientTransform="matrix(5.1581 34.2784 -56.2477 8.47464 57.4888 -2.12824)" gradientUnits="userSpaceOnUse">
      <stop stop-color="#FFC7F6"/>
      <stop offset=".143299" stop-color="#FF82EB"/>
      <stop offset=".772364" stop-color="#FF82EB"/>
      <stop offset="1" stop-color="#E336C7"/>
    </linearGradient>
    <linearGradient id="paint1_linear" x2="1" gradientTransform="matrix(5.1581 34.2784 -56.2477 8.47464 57.4888 -2.12824)" gradientUnits="userSpaceOnUse">
      <stop stop-color="#FFC7F6"/>
      <stop offset=".143299" stop-color="#FF82EB"/>
      <stop offset=".772364" stop-color="#FF82EB"/>
      <stop offset="1" stop-color="#E336C7"/>
    </linearGradient>
    <linearGradient id="paint2_linear" x2="1" gradientTransform="matrix(5.1581 34.2784 -56.2477 8.47464 57.4888 -2.12824)" gradientUnits="userSpaceOnUse">
      <stop stop-color="#FFC7F6"/>
      <stop offset=".143299" stop-color="#FF82EB"/>
      <stop offset=".772364" stop-color="#FF82EB"/>
      <stop offset="1" stop-color="#E336C7"/>
    </linearGradient>
    <linearGradient id="paint3_linear" x2="1" gradientTransform="matrix(5.1581 34.2784 -56.2477 8.47464 57.4888 -2.12824)" gradientUnits="userSpaceOnUse">
      <stop stop-color="#FFC7F6"/>
      <stop offset=".143299" stop-color="#FF82EB"/>
      <stop offset=".772364" stop-color="#FF82EB"/>
      <stop offset="1" stop-color="#E336C7"/>
    </linearGradient>
    <linearGradient id="paint4_linear" x2="1" gradientTransform="matrix(5.1581 34.2784 -56.2477 8.47464 57.4888 -2.12824)" gradientUnits="userSpaceOnUse">
      <stop stop-color="#FFC7F6"/>
      <stop offset=".143299" stop-color="#FF82EB"/>
      <stop offset=".772364" stop-color="#FF82EB"/>
      <stop offset="1" stop-color="#E336C7"/>
    </linearGradient>
    <linearGradient id="paint5_linear" x2="1" gradientTransform="matrix(5.1581 34.2784 -56.2477 8.47464 57.4888 -2.12824)" gradientUnits="userSpaceOnUse">
      <stop stop-color="#FFC7F6"/>
      <stop offset=".143299" stop-color="#F77EE4"/>
      <stop offset=".772364" stop-color="#F77EE4"/>
      <stop offset="1" stop-color="#E336C7"/>
    </linearGradient>
    <linearGradient id="paint6_linear" x2="1" gradientTransform="matrix(3.83267 13.7957 -22.6382 6.3689 43.0123 23.8136)" gradientUnits="userSpaceOnUse">
      <stop stop-color="#fff"/>
      <stop offset="1" stop-color="#F971E3"/>
    </linearGradient>
    <radialGradient id="paint7_radial" cx=".5" cy=".5" r=".5" gradientTransform="translate(408) scale(408 62) rotate(90)" gradientUnits="userSpaceOnUse">
      <stop offset=".370166" stop-color="#fff"/>
      <stop offset="1" stop-color="#FFA1F0" stop-opacity="0"/>
    </radialGradient>
    <linearGradient id="paint8_linear" x2="1" gradientTransform="translate(33.4611 -0.0205365) scale(39.7652 41.5959) rotate(90)" gradientUnits="userSpaceOnUse">
      <stop stop-color="#F6FADE"/>
      <stop offset=".486188" stop-color="#080465"/>
      <stop offset="1" stop-color="#F6FADE"/>
    </linearGradient>
    <linearGradient id="paint9_linear" x2="1" gradientTransform="translate(33.2521 -0.0212476) scale(39.9128 41.0161) rotate(90)" gradientUnits="userSpaceOnUse">
      <stop stop-color="#F2F7D4"/>
      <stop offset=".19337" stop-color="#090565"/>
      <stop offset=".497238" stop-color="#fff"/>
      <stop offset=".497338" stop-color="#F2F7D4"/>
      <stop offset=".762431" stop-color="#090565"/>
      <stop offset="1" stop-color="#F2F7D4"/>
    </linearGradient>
    <linearGradient id="paint10_linear" x2="1" gradientTransform="translate(31.7232 -0.0206138) scale(38.0777 39.7926) rotate(90)" gradientUnits="userSpaceOnUse">
      <stop stop-color="#135A8A"/>
      <stop offset=".0773481" stop-color="#388EC7"/>
      <stop offset=".4999" stop-color="#F3F7D4"/>
      <stop offset=".5" stop-color="#040263"/>
      <stop offset=".640884" stop-color="#FF8ABE"/>
      <stop offset="1" stop-color="#E9E6D5"/>
    </linearGradient>
    <linearGradient id="paint11_linear" x2="1" gradientTransform="translate(33.4611 -0.0205365) scale(39.7652 41.5959) rotate(90)" gradientUnits="userSpaceOnUse">
      <stop stop-color="#F6FADE"/>
      <stop offset=".486188" stop-color="#080465"/>
      <stop offset="1" stop-color="#F6FADE"/>
    </linearGradient>
    <linearGradient id="paint12_linear" x2="1" gradientTransform="translate(33.2521 -0.0212476) scale(39.9128 41.0161) rotate(90)" gradientUnits="userSpaceOnUse">
      <stop stop-color="#F2F7D4"/>
      <stop offset=".19337" stop-color="#090565"/>
      <stop offset=".497238" stop-color="#fff"/>
      <stop offset=".497338" stop-color="#F2F7D4"/>
      <stop offset=".762431" stop-color="#090565"/>
      <stop offset="1" stop-color="#F2F7D4"/>
    </linearGradient>
    <linearGradient id="paint13_linear" x2="1" gradientTransform="translate(31.7232 -0.0206138) scale(38.0777 39.7926) rotate(90)" gradientUnits="userSpaceOnUse">
      <stop stop-color="#135A8A"/>
      <stop offset=".0773481" stop-color="#388EC7"/>
      <stop offset=".4999" stop-color="#F3F7D4"/>
      <stop offset=".5" stop-color="#040263"/>
      <stop offset=".640884" stop-color="#FF8ABE"/>
      <stop offset="1" stop-color="#E9E6D5"/>
    </linearGradient>
    <linearGradient id="paint14_linear" x2="1" gradientTransform="translate(43.1987 -0.0205365) scale(51.3373 41.5959) rotate(90)" gradientUnits="userSpaceOnUse">
      <stop stop-color="#F6FADE"/>
      <stop offset=".486188" stop-color="#080465"/>
      <stop offset="1" stop-color="#F6FADE"/>
    </linearGradient>
    <linearGradient id="paint15_linear" x2="1" gradientTransform="translate(42.8455 -0.0212634) scale(51.4279 41.0467) rotate(90)" gradientUnits="userSpaceOnUse">
      <stop stop-color="#F2F7D4"/>
      <stop offset=".19337" stop-color="#090565"/>
      <stop offset=".497238" stop-color="#fff"/>
      <stop offset=".497338" stop-color="#F2F7D4"/>
      <stop offset=".762431" stop-color="#090565"/>
      <stop offset="1" stop-color="#F2F7D4"/>
    </linearGradient>
    <linearGradient id="paint16_linear" x2="1" gradientTransform="translate(40.7433 -0.0206138) scale(48.9047 39.7926) rotate(90)" gradientUnits="userSpaceOnUse">
      <stop stop-color="#135A8A"/>
      <stop offset=".0773481" stop-color="#388EC7"/>
      <stop offset=".4999" stop-color="#F3F7D4"/>
      <stop offset=".5" stop-color="#040263"/>
      <stop offset=".640884" stop-color="#FF8ABE"/>
      <stop offset="1" stop-color="#E9E6D5"/>
    </linearGradient>
    <linearGradient id="paint17_linear" x2="1" gradientTransform="translate(37.3712 -0.0207025) scale(44.4119 41.9321) rotate(90)" gradientUnits="userSpaceOnUse">
      <stop stop-color="#F6FADE"/>
      <stop offset=".486188" stop-color="#080465"/>
      <stop offset="1" stop-color="#F6FADE"/>
    </linearGradient>
    <linearGradient id="paint18_linear" x2="1" gradientTransform="translate(37.2652 -0.0214219) scale(44.7299 41.3525) rotate(90)" gradientUnits="userSpaceOnUse">
      <stop stop-color="#F2F7D4"/>
      <stop offset=".19337" stop-color="#090565"/>
      <stop offset=".497238" stop-color="#fff"/>
      <stop offset=".497338" stop-color="#F2F7D4"/>
      <stop offset=".762431" stop-color="#090565"/>
      <stop offset="1" stop-color="#F2F7D4"/>
    </linearGradient>
    <linearGradient id="paint19_linear" x2="1" gradientTransform="translate(35.7364 -0.0207564) scale(42.8948 40.0679) rotate(90)" gradientUnits="userSpaceOnUse">
      <stop stop-color="#135A8A"/>
      <stop offset=".0773481" stop-color="#388EC7"/>
      <stop offset=".4999" stop-color="#F3F7D4"/>
      <stop offset=".5" stop-color="#040263"/>
      <stop offset=".640884" stop-color="#FF8ABE"/>
      <stop offset="1" stop-color="#E9E6D5"/>
    </linearGradient>
    <linearGradient id="paint20_linear" x2="1" gradientTransform="translate(39.8902 -0.0206874) scale(47.4054 41.9016) rotate(90)" gradientUnits="userSpaceOnUse">
      <stop stop-color="#F6FADE"/>
      <stop offset=".486188" stop-color="#080465"/>
      <stop offset="1" stop-color="#F6FADE"/>
    </linearGradient>
    <linearGradient id="paint21_linear" x2="1" gradientTransform="translate(39.5585 -0.0214219) scale(47.4825 41.3525) rotate(90)" gradientUnits="userSpaceOnUse">
      <stop stop-color="#F2F7D4"/>
      <stop offset=".19337" stop-color="#090565"/>
      <stop offset=".497238" stop-color="#fff"/>
      <stop offset=".497338" stop-color="#F2F7D4"/>
      <stop offset=".762431" stop-color="#090565"/>
      <stop offset="1" stop-color="#F2F7D4"/>
    </linearGradient>
    <linearGradient id="paint22_linear" x2="1" gradientTransform="translate(37.571 -0.0207722) scale(45.0969 40.0985) rotate(90)" gradientUnits="userSpaceOnUse">
      <stop stop-color="#135A8A"/>
      <stop offset=".0773481" stop-color="#388EC7"/>
      <stop offset=".4999" stop-color="#F3F7D4"/>
      <stop offset=".5" stop-color="#040263"/>
      <stop offset=".640884" stop-color="#FF8ABE"/>
      <stop offset="1" stop-color="#E9E6D5"/>
    </linearGradient>
    <linearGradient id="paint23_linear" x2="1" gradientTransform="translate(36.0553 -0.0211401) scale(42.8481 42.8184) rotate(90)" gradientUnits="userSpaceOnUse">
      <stop stop-color="#F6FADE"/>
      <stop offset=".486188" stop-color="#080465"/>
      <stop offset="1" stop-color="#F6FADE"/>
    </linearGradient>
    <linearGradient id="paint24_linear" x2="1" gradientTransform="translate(35.7746 -0.0218972) scale(42.9407 42.2701) rotate(90)" gradientUnits="userSpaceOnUse">
      <stop stop-color="#F2F7D4"/>
      <stop offset=".19337" stop-color="#090565"/>
      <stop offset=".497238" stop-color="#fff"/>
      <stop offset=".497338" stop-color="#F2F7D4"/>
      <stop offset=".762431" stop-color="#090565"/>
      <stop offset="1" stop-color="#F2F7D4"/>
    </linearGradient>
    <linearGradient id="paint25_linear" x2="1" gradientTransform="translate(34.1693 -0.0212317) scale(41.0139 40.9855) rotate(90)" gradientUnits="userSpaceOnUse">
      <stop stop-color="#135A8A"/>
      <stop offset=".0773481" stop-color="#388EC7"/>
      <stop offset=".4999" stop-color="#F3F7D4"/>
      <stop offset=".5" stop-color="#040263"/>
      <stop offset=".640884" stop-color="#FF8ABE"/>
      <stop offset="1" stop-color="#E9E6D5"/>
    </linearGradient>
    <linearGradient id="paint26_linear" x2="1" gradientTransform="translate(36.0553 -0.0211401) scale(42.8481 42.8184) rotate(90)" gradientUnits="userSpaceOnUse">
      <stop stop-color="#F6FADE"/>
      <stop offset=".486188" stop-color="#080465"/>
      <stop offset="1" stop-color="#F6FADE"/>
    </linearGradient>
    <linearGradient id="paint27_linear" x2="1" gradientTransform="translate(35.7746 -0.0218972) scale(42.9407 42.2701) rotate(90)" gradientUnits="userSpaceOnUse">
      <stop stop-color="#F2F7D4"/>
      <stop offset=".19337" stop-color="#090565"/>
      <stop offset=".497238" stop-color="#fff"/>
      <stop offset=".497338" stop-color="#F2F7D4"/>
      <stop offset=".762431" stop-color="#090565"/>
      <stop offset="1" stop-color="#F2F7D4"/>
    </linearGradient>
    <linearGradient id="paint28_linear" x2="1" gradientTransform="translate(34.1693 -0.0212317) scale(41.0139 40.9855) rotate(90)" gradientUnits="userSpaceOnUse">
      <stop stop-color="#135A8A"/>
      <stop offset=".0773481" stop-color="#388EC7"/>
      <stop offset=".4999" stop-color="#F3F7D4"/>
      <stop offset=".5" stop-color="#040263"/>
      <stop offset=".640884" stop-color="#FF8ABE"/>
      <stop offset="1" stop-color="#E9E6D5"/>
    </linearGradient>
    <linearGradient id="paint29_linear" x2="1" gradientTransform="translate(47.6727 -0.0205365) scale(56.6542 41.5959) rotate(90)" gradientUnits="userSpaceOnUse">
      <stop stop-color="#F6FADE"/>
      <stop offset=".486188" stop-color="#080465"/>
      <stop offset="1" stop-color="#F6FADE"/>
    </linearGradient>
    <linearGradient id="paint30_linear" x2="1" gradientTransform="translate(47.4702 -0.0212476) scale(56.979 41.0161) rotate(90)" gradientUnits="userSpaceOnUse">
      <stop stop-color="#F2F7D4"/>
      <stop offset=".19337" stop-color="#090565"/>
      <stop offset=".497238" stop-color="#fff"/>
      <stop offset=".497338" stop-color="#F2F7D4"/>
      <stop offset=".762431" stop-color="#090565"/>
      <stop offset="1" stop-color="#F2F7D4"/>
    </linearGradient>
    <linearGradient id="paint31_linear" x2="1" gradientTransform="translate(45.4063 -0.0206138) scale(54.5016 39.7926) rotate(90)" gradientUnits="userSpaceOnUse">
      <stop stop-color="#135A8A"/>
      <stop offset=".0773481" stop-color="#388EC7"/>
      <stop offset=".4999" stop-color="#F3F7D4"/>
      <stop offset=".5" stop-color="#040263"/>
      <stop offset=".640884" stop-color="#FF8ABE"/>
      <stop offset="1" stop-color="#E9E6D5"/>
    </linearGradient>
  </defs>
</svg>
