<svg width="28" height="28" xmlns="http://www.w3.org/2000/svg" xmlns:xlink="http://www.w3.org/1999/xlink"><use xlink:href="#path0_fill" transform="matrix(-1 0 0 1 28 1)"/><use xlink:href="#path0_fill" transform="matrix(-1 0 0 1 1 1)"/><use xlink:href="#path1_fill" transform="matrix(-1 0 0 1 27 0)"/><use xlink:href="#path1_fill" transform="matrix(-1 0 0 1 27 27)"/><use xlink:href="#path2_fill" transform="matrix(-1 0 0 1 27 25)" fill="#FFF"/><use xlink:href="#path3_fill" transform="matrix(-1 0 0 1 27 24)" fill="#FFF"/><use xlink:href="#path4_fill" transform="matrix(-1 0 0 1 27 1)" fill="#FFF"/><use xlink:href="#path2_fill" transform="matrix(-1 0 0 1 27 26)" fill="gray"/><use xlink:href="#path2_fill" transform="matrix(-1 0 0 1 2 2)" fill="gray"/><use xlink:href="#path5_fill" transform="matrix(-1 0 0 1 26 25)" fill="gray"/><use xlink:href="#path3_fill" transform="matrix(-1 0 0 1 3 3)" fill="gray"/><use xlink:href="#path6_fill" transform="matrix(-1 0 0 1 25 24)" fill="gray"/><use xlink:href="#path4_fill" transform="matrix(-1 0 0 1 4 4)" fill="gray"/><use xlink:href="#path2_fill" transform="matrix(-1 0 0 1 2 1)" fill="#FFF"/><use xlink:href="#path5_fill" transform="matrix(-1 0 0 1 3 1)" fill="#FFF"/><use xlink:href="#path7_fill" transform="matrix(-1 0 0 1 25 1)" fill="#FFF"/><use xlink:href="#path2_fill" transform="translate(9 13.5)" fill="#1813C7"/><use xlink:href="#path5_fill" transform="translate(10 13)" fill="#1813C7"/><use xlink:href="#path8_fill" transform="translate(11 12)" fill="#1813C7"/><use xlink:href="#path9_fill" transform="translate(13 11)" fill="#1813C7"/><use xlink:href="#path10_fill" transform="translate(15 10)" fill="#1813C7"/><use xlink:href="#path11_fill" transform="translate(17 9)" fill="#1813C7"/><defs><path id="path0_fill" d="M0 0h1v26H0V0z"/><path id="path1_fill" d="M0 0h26v1H0V0z"/><path id="path2_fill" d="M0 0h1v1H0V0z"/><path id="path3_fill" d="M0 0h2v1H0V0z"/><path id="path4_fill" d="M0 0h3v23H0V0z"/><path id="path5_fill" d="M0 0h1v2H0V0z"/><path id="path6_fill" d="M0 0h24v3H0V0z"/><path id="path7_fill" d="M0 0h22v3H0V0z"/><path id="path8_fill" d="M0 0h2v4H0V0z"/><path id="path9_fill" d="M0 0h2v6H0V0z"/><path id="path10_fill" d="M0 0h2v8H0V0z"/><path id="path11_fill" d="M0 0h2v10H0V0z"/></defs></svg>