<svg xmlns="http://www.w3.org/2000/svg" fill="none" viewBox="0 0 60 60">
  <path fill="#fff" fill-rule="evenodd" d="M60 0V58L44 42V16H18L2 0H60ZM53.2 58.4L51.6 60H54.7L53.2 58.4ZM53.2 55.3L51.6 56.9L53.2 58.5L54.8 56.9L53.2 55.3ZM36 47.4L34.4 45.8L32.8 47.4L34.4 49L36 47.4ZM26.6 47.4L25 45.8L23.4 47.4L25 49L26.6 47.4ZM35.7 44H33.2L32.9 44.3L34.5 45.9L36.1 44.3L35.7 44ZM29.7 47.4L28.1 45.8L26.5 47.4L28.1 49L29.7 47.4ZM29.4 44H26.9L26.6 44.3L28.2 45.9L29.8 44.3L29.4 44ZM21.8 45.8L20.2 47.4L21.8 49L23.4 47.4L21.8 45.8ZM23.1 44H20.6L20.3 44.3L21.9 45.9L23.5 44.3L23.1 44ZM32.8 47.4L31.2 45.8L29.6 47.4L31.2 49L32.8 47.4ZM42.3 47.4L40.7 45.8L39.1 47.4L40.7 49L42.3 47.4ZM45.4 47.4L43.8 45.8L42.2 47.4L43.8 49L45.4 47.4ZM37.5 49L39.1 47.4L37.5 45.8L35.9 47.4L37.5 49ZM39.1 44.3L38.8 44H36.3L36 44.3L37.6 45.9L39.1 44.3ZM48.5 60H51.6L50 58.4L48.5 60ZM43.8 55.3L45.4 53.7L43.8 52.1L42.2 53.7L43.8 55.3ZM50.1 52.1L48.5 53.7L50.1 55.3L51.7 53.7L50.1 52.1ZM42.3 56.8L43.9 58.4L45.5 56.8L43.9 55.2L42.3 56.8ZM43.8 52.1L45.4 50.5L43.8 49L42.2 50.6L43.8 52.1ZM48.5 50.6L47 49L45.4 50.6L47 52.2L48.5 50.6ZM39.1 50.6L40.7 52.2L42.3 50.6L40.7 49L39.1 50.6ZM36 50.6L37.6 52.2L39.2 50.6L37.6 49L36 50.6ZM42.3 60H45.4L43.8 58.4L42.3 60ZM50.1 55.3L48.5 56.9L50.1 58.5L51.7 56.9L50.1 55.3ZM36 60H39.1L37.5 58.4L36 60ZM45.4 56.8L47 58.4L48.6 56.8L47 55.3L45.4 56.8ZM37.5 55.3L39.1 53.7L37.5 52.1L35.9 53.7L37.5 55.3ZM36 56.8L37.6 58.4L39.2 56.8L37.6 55.2L36 56.8ZM39.1 56.8L40.7 58.4L42.3 56.8L40.7 55.2L39.1 56.8ZM20.3 56.8L21.9 58.4L23.5 56.8L21.9 55.2L20.3 56.8ZM32.8 60H35.9L34.3 58.4L32.8 60ZM34.4 49L32.8 50.6L34.4 52.2L36 50.6L34.4 49ZM29.7 50.6L31.3 52.2L32.9 50.6L31.3 49L29.7 50.6ZM26.6 60H29.7L28.1 58.4L26.6 60ZM26.6 50.6L28.2 52.2L29.8 50.6L28.2 49L26.6 50.6ZM29.7 56.8L31.3 58.4L32.9 56.8L31.3 55.2L29.7 56.8ZM34.4 52.1L32.8 53.7L34.4 55.3L36 53.7L34.4 52.1ZM34.4 55.3L32.8 56.9L34.4 58.5L36 56.9L34.4 55.3ZM21.8 49L20.2 50.6L21.8 52.2L23.4 50.6L21.8 49ZM21.8 52.1L20.2 53.7L21.8 55.3L23.4 53.7L21.8 52.1ZM23.4 56.8L25 58.4L26.6 56.8L25 55.2L23.4 56.8ZM23.4 50.6L25 52.2L26.6 50.6L25 49L23.4 50.6ZM26.6 56.8L28.2 58.4L29.8 56.8L28.2 55.2L26.6 56.8ZM28.1 55.3L29.7 53.7L28.1 52.1L26.5 53.7L28.1 55.3ZM20.3 60H23.4L21.8 58.4L20.3 60ZM3 11.3L1.4 12.9L3 14.5L4.6 12.9L3 11.3ZM0 11.2L1.5 9.7L0 8.2V11.2ZM3 8.2L1.4 9.8L3 11.4L4.6 9.8L3 8.2ZM0 17.5L1.5 16L0 14.5V17.5ZM3 14.4L1.4 16L3 17.6L4.6 16L3 14.4ZM3 5L1.4 6.6L3 8.2L4.6 6.6L3 5ZM0 2V4.9L1.5 3.4L0 2ZM10.9 16L9.3 14.4L7.7 16L9.3 17.6L10.9 16ZM6.1 14.4L7.7 12.8L6.1 11.2L4.5 12.8L6.1 14.4ZM6.1 17.6L7.7 16L6.1 14.4L4.5 16L6.1 17.6ZM14 16L12.4 14.4L10.8 16L12.4 17.6L14 16ZM7.7 9.7L6.1 8.1L4.5 9.7L6.1 11.3L7.7 9.7ZM16 20.3V18L15.6 17.6L14 19.2L15.6 20.8L16 20.3ZM7.7 31.7L9.3 33.3L10.9 31.7L9.3 30.1L7.7 31.7ZM12.4 20.7L14 19.1L12.4 17.5L10.8 19.1L12.4 20.7ZM16 26.6V24.3L15.6 23.9L14 25.5L15.6 27.1L16 26.6ZM12.4 23.9L14 22.3L12.4 20.7L10.8 22.3L12.4 23.9ZM12.4 27L14 25.4L12.4 23.8L10.8 25.4L12.4 27ZM16 32.8V30.5L15.6 30.1L14 31.7L15.6 33.3L16 32.8ZM10.9 25.4L9.3 23.8L7.7 25.4L9.3 27L10.9 25.4ZM6.1 20.7L4.5 22.3L6.1 23.9L7.7 22.3L6.1 20.7ZM6.1 23.9L4.5 25.5L6.1 27.1L7.7 25.5L6.1 23.9ZM10.9 19.1L9.3 17.5L7.7 19.1L9.3 20.7L10.9 19.1ZM6.1 17.6L4.5 19.2L6.1 20.8L7.7 19.2L6.1 17.6ZM12.4 33.3L14 31.7L12.4 30.1L10.8 31.7L12.4 33.3ZM4.6 31.7L6.2 33.3L7.8 31.7L6.2 30.1L4.6 31.7ZM6.1 27L4.5 28.6L6.1 30.2L7.7 28.6L6.1 27ZM12.4 30.1L14 28.5L12.4 26.9L10.8 28.5L12.4 30.1ZM3 23.9L1.4 25.5L3 27.1L4.6 25.5L3 23.9ZM3 20.7L1.4 22.3L3 23.9L4.6 22.3L3 20.7ZM3 17.6L1.4 19.2L3 20.8L4.6 19.2L3 17.6ZM0 20.6L1.5 19.1L0 17.6V20.6ZM0 30.2V33.1L1.5 31.6L0 30.2ZM0 26.9L1.5 25.4L0 24V26.9ZM3 27L1.4 28.6L3 30.2L4.6 28.6L3 27ZM4.6 31.7L3 30.1L1.4 31.7L3 33.3L4.6 31.7ZM0 48.9L1.5 47.4L0 45.9V48.9ZM3 45.8L1.4 47.4L3 49L4.6 47.4L3 45.8ZM0 42.6L1.5 41.1L0 39.6V42.6ZM3 42.7L1.4 44.3L3 45.9L4.6 44.3L3 42.7ZM0 36.3L1.5 34.8L0 33.3V36.3ZM3 39.6L1.4 41.2L3 42.8L4.6 41.2L3 39.6ZM3 36.4L1.4 38L3 39.6L4.6 38L3 36.4ZM3 33.3L1.4 34.9L3 36.5L4.6 34.9L3 33.3ZM12.4 42.7L14 41.1L12.4 39.5L10.8 41.1L12.4 42.7ZM12.4 45.8L14 44.2L12.4 42.6L10.8 44.2L12.4 45.8ZM17.1 47.4L15.5 45.8L13.9 47.4L15.5 49L17.1 47.4ZM18.7 45.8L17.1 47.4L18.7 49L20.3 47.4L18.7 45.8ZM12.4 49L14 47.4L12.4 45.8L10.8 47.4L12.4 49ZM16 42.3V40L15.6 39.6L14 41.2L15.6 42.8L16 42.3ZM16 36V33.7L15.6 33.3L14 34.9L15.6 36.5L16 36ZM6.1 42.7L4.5 44.3L6.1 45.9L7.7 44.3L6.1 42.7ZM6.1 45.8L4.5 47.4L6.1 49L7.7 47.4L6.1 45.8ZM20 44H17.5L17.2 44.3L18.8 45.9L20.4 44.3L20 44ZM7.7 34.8L6.1 33.2L4.5 34.8L6.1 36.4L7.7 34.8ZM6.1 39.6L4.5 41.2L6.1 42.8L7.7 41.2L6.1 39.6ZM6.1 36.4L4.5 38L6.1 39.6L7.7 38L6.1 36.4ZM10.9 34.8L9.3 33.2L7.7 34.8L9.3 36.4L10.9 34.8ZM14 34.8L12.4 33.2L10.8 34.8L12.4 36.4L14 34.8ZM10.9 41.1L9.3 39.5L7.7 41.1L9.3 42.7L10.9 41.1ZM10.9 47.4L9.3 45.8L7.7 47.4L9.3 49L10.9 47.4ZM12.4 39.6L14 38L12.4 36.4L10.8 38L12.4 39.6ZM4.6 50.6L6.2 52.2L7.8 50.6L6.2 49L4.6 50.6ZM7.7 50.6L9.3 52.2L10.9 50.6L9.3 49L7.7 50.6ZM10.9 50.6L12.5 52.2L14.1 50.6L12.5 49L10.9 50.6ZM6.1 55.3L7.7 53.7L6.1 52.1L4.5 53.7L6.1 55.3ZM15.6 52.1L17.2 50.5L15.6 48.9L14 50.5L15.6 52.1ZM4.6 60H7.7L6.1 58.4L4.6 60ZM18.7 58.4L20.3 56.8L18.7 55.2L17.1 56.8L18.7 58.4ZM18.7 55.3L20.3 53.7L18.7 52.1L17.1 53.7L18.7 55.3ZM4.6 56.8L6.2 58.4L7.8 56.8L6.2 55.2L4.6 56.8ZM7.7 56.8L9.3 58.4L10.9 56.8L9.3 55.2L7.7 56.8ZM10.9 56.8L12.5 58.4L14.1 56.8L12.5 55.2L10.9 56.8ZM10.9 60H14L12.4 58.4L10.9 60ZM14 56.8L15.6 58.4L17.2 56.8L15.6 55.2L14 56.8ZM17.2 60H20.3L18.7 58.4L17.2 60ZM18.7 52.1L20.3 50.5L18.7 48.9L17.1 50.5L18.7 52.1ZM12.4 55.3L14 53.7L12.4 52.1L10.8 53.7L12.4 55.3ZM0 52L1.5 50.5L0 49V52ZM3 55.3L1.4 56.9L3 58.5L4.6 56.9L3 55.3ZM3 49L1.4 50.6L3 52.2L4.6 50.6L3 49ZM0 58.3L1.5 56.8L0 55.3V58.3ZM3 52.1L1.4 53.7L3 55.3L4.6 53.7L3 52.1ZM1.4 60H4.5L2.9 58.4L1.4 60ZM54.8 60H57.7L56.2 58.5L54.8 60Z" clip-rule="evenodd"/>
</svg>
