<svg viewBox="0 0 1383 559" fill="none" xmlns="http://www.w3.org/2000/svg">
<g opacity="0.4">
<g filter="url(#filter0_d)">
<path fill-rule="evenodd" clip-rule="evenodd" d="M3 4.5L1.23664 5.42705L1.57342 3.46353L0.14683 2.07295L2.11832 1.78647L3 0L3.88168 1.78647L5.85317 2.07295L4.42658 3.46353L4.76336 5.42705L3 4.5Z" transform="translate(107.031 265.073) rotate(-17)" fill="url(#paint0_linear)"/>
</g>
<g filter="url(#filter1_d)">
<path fill-rule="evenodd" clip-rule="evenodd" d="M3 4.5L1.23664 5.42705L1.57342 3.46353L0.14683 2.07295L2.11832 1.78647L3 0L3.88168 1.78647L5.85317 2.07295L4.42658 3.46353L4.76336 5.42705L3 4.5Z" transform="translate(149.793 199.715) rotate(-17)" fill="url(#paint1_linear)"/>
</g>
<g opacity="0.4" filter="url(#filter2_d)">
<path fill-rule="evenodd" clip-rule="evenodd" d="M3 4.5L1.23664 5.42705L1.57342 3.46353L0.14683 2.07295L2.11832 1.78647L3 0L3.88168 1.78647L5.85317 2.07295L4.42658 3.46353L4.76336 5.42705L3 4.5Z" transform="translate(292.992 291.874) rotate(-17)" fill="url(#paint2_linear)"/>
</g>
<g opacity="0.4" filter="url(#filter3_d)">
<path fill-rule="evenodd" clip-rule="evenodd" d="M2 3L0.82443 3.61803L1.04894 2.30902L0.097887 1.38197L1.41221 1.19098L2 0L2.58779 1.19098L3.90211 1.38197L2.95106 2.30902L3.17557 3.61803L2 3Z" transform="translate(146.855 279.04) rotate(-17)" fill="url(#paint3_linear)"/>
</g>
<g filter="url(#filter4_d)">
<path fill-rule="evenodd" clip-rule="evenodd" d="M3 4.5L1.23664 5.42705L1.57342 3.46353L0.14683 2.07295L2.11832 1.78647L3 0L3.88168 1.78647L5.85317 2.07295L4.42658 3.46353L4.76336 5.42705L3 4.5Z" transform="translate(206.141 387.443) rotate(-17)" fill="url(#paint4_linear)"/>
</g>
<g filter="url(#filter5_d)">
<path fill-rule="evenodd" clip-rule="evenodd" d="M3 4.5L1.23664 5.42705L1.57342 3.46353L0.14683 2.07295L2.11832 1.78647L3 0L3.88168 1.78647L5.85317 2.07295L4.42658 3.46353L4.76336 5.42705L3 4.5Z" transform="translate(248.898 322.086) rotate(-17)" fill="url(#paint5_linear)"/>
</g>
<g filter="url(#filter6_d)">
<path fill-rule="evenodd" clip-rule="evenodd" d="M3 4.5L1.23664 5.42705L1.57342 3.46353L0.14683 2.07295L2.11832 1.78647L3 0L3.88168 1.78647L5.85317 2.07295L4.42658 3.46353L4.76336 5.42705L3 4.5Z" transform="translate(536.699 425.458) rotate(-17)" fill="url(#paint6_linear)"/>
</g>
<g filter="url(#filter7_d)">
<path fill-rule="evenodd" clip-rule="evenodd" d="M3 4.5L1.23664 5.42705L1.57342 3.46353L0.14683 2.07295L2.11832 1.78647L3 0L3.88168 1.78647L5.85317 2.07295L4.42658 3.46353L4.76336 5.42705L3 4.5Z" transform="translate(3.8125 180.559) rotate(-17)" fill="url(#paint7_linear)"/>
</g>
<g opacity="0.4" filter="url(#filter8_d)">
<path fill-rule="evenodd" clip-rule="evenodd" d="M3 4.5L1.23664 5.42705L1.57342 3.46353L0.14683 2.07295L2.11832 1.78647L3 0L3.88168 1.78647L5.85317 2.07295L4.42658 3.46353L4.76336 5.42705L3 4.5Z" transform="translate(392.102 414.245) rotate(-17)" fill="url(#paint8_linear)"/>
</g>
<g opacity="0.4" filter="url(#filter9_d)">
<path fill-rule="evenodd" clip-rule="evenodd" d="M2 3L0.82443 3.61803L1.04894 2.30902L0.097887 1.38197L1.41221 1.19098L2 0L2.58779 1.19098L3.90211 1.38197L2.95106 2.30902L3.17557 3.61803L2 3Z" transform="translate(245.965 401.411) rotate(-17)" fill="url(#paint9_linear)"/>
</g>
<g opacity="0.4" filter="url(#filter10_d)">
<path fill-rule="evenodd" clip-rule="evenodd" d="M2 3L0.82443 3.61803L1.04894 2.30902L0.097887 1.38197L1.41221 1.19098L2 0L2.58779 1.19098L3.90211 1.38197L2.95106 2.30902L3.17557 3.61803L2 3Z" transform="translate(200.672 239.582) rotate(-17)" fill="url(#paint10_linear)"/>
</g>
</g>
<g opacity="0.4">
<g filter="url(#filter11_d)">
<path fill-rule="evenodd" clip-rule="evenodd" d="M3 4.5L1.23664 5.42705L1.57342 3.46353L0.14683 2.07295L2.11832 1.78647L3 0L3.88168 1.78647L5.85317 2.07295L4.42658 3.46353L4.76336 5.42705L3 4.5Z" transform="translate(1169.03 215.073) rotate(-17)" fill="url(#paint11_linear)"/>
</g>
<g filter="url(#filter12_d)">
<path fill-rule="evenodd" clip-rule="evenodd" d="M3 4.5L1.23664 5.42705L1.57342 3.46353L0.14683 2.07295L2.11832 1.78647L3 0L3.88168 1.78647L5.85317 2.07295L4.42658 3.46353L4.76336 5.42705L3 4.5Z" transform="translate(1211.79 149.715) rotate(-17)" fill="url(#paint12_linear)"/>
</g>
<g opacity="0.4" filter="url(#filter13_d)">
<path fill-rule="evenodd" clip-rule="evenodd" d="M3 4.5L1.23664 5.42705L1.57342 3.46353L0.14683 2.07295L2.11832 1.78647L3 0L3.88168 1.78647L5.85317 2.07295L4.42658 3.46353L4.76336 5.42705L3 4.5Z" transform="translate(1354.99 241.874) rotate(-17)" fill="url(#paint13_linear)"/>
</g>
<g opacity="0.4" filter="url(#filter14_d)">
<path fill-rule="evenodd" clip-rule="evenodd" d="M2 3L0.82443 3.61803L1.04894 2.30902L0.097887 1.38197L1.41221 1.19098L2 0L2.58779 1.19098L3.90211 1.38197L2.95106 2.30902L3.17557 3.61803L2 3Z" transform="translate(1208.86 229.04) rotate(-17)" fill="url(#paint14_linear)"/>
</g>
<g filter="url(#filter15_d)">
<path fill-rule="evenodd" clip-rule="evenodd" d="M3 4.5L1.23664 5.42705L1.57342 3.46353L0.14683 2.07295L2.11832 1.78647L3 0L3.88168 1.78647L5.85317 2.07295L4.42658 3.46353L4.76336 5.42705L3 4.5Z" transform="translate(1268.14 337.443) rotate(-17)" fill="url(#paint15_linear)"/>
</g>
<g filter="url(#filter16_d)">
<path fill-rule="evenodd" clip-rule="evenodd" d="M3 4.5L1.23664 5.42705L1.57342 3.46353L0.14683 2.07295L2.11832 1.78647L3 0L3.88168 1.78647L5.85317 2.07295L4.42658 3.46353L4.76336 5.42705L3 4.5Z" transform="translate(1310.9 272.086) rotate(-17)" fill="url(#paint16_linear)"/>
</g>
<g filter="url(#filter17_d)">
<path fill-rule="evenodd" clip-rule="evenodd" d="M3 4.5L1.23664 5.42705L1.57342 3.46353L0.14683 2.07295L2.11832 1.78647L3 0L3.88168 1.78647L5.85317 2.07295L4.42658 3.46353L4.76336 5.42705L3 4.5Z" transform="translate(1065.81 130.559) rotate(-17)" fill="url(#paint17_linear)"/>
</g>
<g opacity="0.4" filter="url(#filter18_d)">
<path fill-rule="evenodd" clip-rule="evenodd" d="M2 3L0.82443 3.61803L1.04894 2.30902L0.097887 1.38197L1.41221 1.19098L2 0L2.58779 1.19098L3.90211 1.38197L2.95106 2.30902L3.17557 3.61803L2 3Z" transform="translate(1307.96 351.411) rotate(-17)" fill="url(#paint18_linear)"/>
</g>
<g opacity="0.4" filter="url(#filter19_d)">
<path fill-rule="evenodd" clip-rule="evenodd" d="M2 3L0.82443 3.61803L1.04894 2.30902L0.097887 1.38197L1.41221 1.19098L2 0L2.58779 1.19098L3.90211 1.38197L2.95106 2.30902L3.17557 3.61803L2 3Z" transform="translate(1262.67 189.582) rotate(-17)" fill="url(#paint19_linear)"/>
</g>
</g>
<defs>
<filter id="filter0_d" x="103.777" y="260.196" width="13.457" height="13.7055" filterUnits="userSpaceOnUse" color-interpolation-filters="sRGB">
<feFlood flood-opacity="0" result="BackgroundImageFix"/>
<feColorMatrix in="SourceAlpha" type="matrix" values="0 0 0 0 0 0 0 0 0 0 0 0 0 0 0 0 0 0 255 0"/>
<feOffset/>
<feGaussianBlur stdDeviation="2"/>
<feColorMatrix type="matrix" values="0 0 0 0 1 0 0 0 0 0 0 0 0 0 0.76002 0 0 0 1 0"/>
<feBlend mode="normal" in2="BackgroundImageFix" result="effect1_dropShadow"/>
<feBlend mode="normal" in="SourceGraphic" in2="effect1_dropShadow" result="shape"/>
</filter>
<filter id="filter1_d" x="146.539" y="194.838" width="13.457" height="13.7055" filterUnits="userSpaceOnUse" color-interpolation-filters="sRGB">
<feFlood flood-opacity="0" result="BackgroundImageFix"/>
<feColorMatrix in="SourceAlpha" type="matrix" values="0 0 0 0 0 0 0 0 0 0 0 0 0 0 0 0 0 0 255 0"/>
<feOffset/>
<feGaussianBlur stdDeviation="2"/>
<feColorMatrix type="matrix" values="0 0 0 0 1 0 0 0 0 0 0 0 0 0 0.76002 0 0 0 1 0"/>
<feBlend mode="normal" in2="BackgroundImageFix" result="effect1_dropShadow"/>
<feBlend mode="normal" in="SourceGraphic" in2="effect1_dropShadow" result="shape"/>
</filter>
<filter id="filter2_d" x="289.738" y="286.997" width="13.457" height="13.7055" filterUnits="userSpaceOnUse" color-interpolation-filters="sRGB">
<feFlood flood-opacity="0" result="BackgroundImageFix"/>
<feColorMatrix in="SourceAlpha" type="matrix" values="0 0 0 0 0 0 0 0 0 0 0 0 0 0 0 0 0 0 255 0"/>
<feOffset/>
<feGaussianBlur stdDeviation="2"/>
<feColorMatrix type="matrix" values="0 0 0 0 1 0 0 0 0 0 0 0 0 0 0.76002 0 0 0 1 0"/>
<feBlend mode="normal" in2="BackgroundImageFix" result="effect1_dropShadow"/>
<feBlend mode="normal" in="SourceGraphic" in2="effect1_dropShadow" result="shape"/>
</filter>
<filter id="filter3_d" x="143.352" y="274.455" width="11.638" height="11.8036" filterUnits="userSpaceOnUse" color-interpolation-filters="sRGB">
<feFlood flood-opacity="0" result="BackgroundImageFix"/>
<feColorMatrix in="SourceAlpha" type="matrix" values="0 0 0 0 0 0 0 0 0 0 0 0 0 0 0 0 0 0 255 0"/>
<feOffset/>
<feGaussianBlur stdDeviation="2"/>
<feColorMatrix type="matrix" values="0 0 0 0 1 0 0 0 0 0 0 0 0 0 0.76002 0 0 0 1 0"/>
<feBlend mode="normal" in2="BackgroundImageFix" result="effect1_dropShadow"/>
<feBlend mode="normal" in="SourceGraphic" in2="effect1_dropShadow" result="shape"/>
</filter>
<filter id="filter4_d" x="202.887" y="382.566" width="13.457" height="13.7055" filterUnits="userSpaceOnUse" color-interpolation-filters="sRGB">
<feFlood flood-opacity="0" result="BackgroundImageFix"/>
<feColorMatrix in="SourceAlpha" type="matrix" values="0 0 0 0 0 0 0 0 0 0 0 0 0 0 0 0 0 0 255 0"/>
<feOffset/>
<feGaussianBlur stdDeviation="2"/>
<feColorMatrix type="matrix" values="0 0 0 0 1 0 0 0 0 0 0 0 0 0 0.76002 0 0 0 1 0"/>
<feBlend mode="normal" in2="BackgroundImageFix" result="effect1_dropShadow"/>
<feBlend mode="normal" in="SourceGraphic" in2="effect1_dropShadow" result="shape"/>
</filter>
<filter id="filter5_d" x="245.645" y="317.209" width="13.457" height="13.7055" filterUnits="userSpaceOnUse" color-interpolation-filters="sRGB">
<feFlood flood-opacity="0" result="BackgroundImageFix"/>
<feColorMatrix in="SourceAlpha" type="matrix" values="0 0 0 0 0 0 0 0 0 0 0 0 0 0 0 0 0 0 255 0"/>
<feOffset/>
<feGaussianBlur stdDeviation="2"/>
<feColorMatrix type="matrix" values="0 0 0 0 1 0 0 0 0 0 0 0 0 0 0.76002 0 0 0 1 0"/>
<feBlend mode="normal" in2="BackgroundImageFix" result="effect1_dropShadow"/>
<feBlend mode="normal" in="SourceGraphic" in2="effect1_dropShadow" result="shape"/>
</filter>
<filter id="filter6_d" x="533.445" y="420.582" width="13.457" height="13.7055" filterUnits="userSpaceOnUse" color-interpolation-filters="sRGB">
<feFlood flood-opacity="0" result="BackgroundImageFix"/>
<feColorMatrix in="SourceAlpha" type="matrix" values="0 0 0 0 0 0 0 0 0 0 0 0 0 0 0 0 0 0 255 0"/>
<feOffset/>
<feGaussianBlur stdDeviation="2"/>
<feColorMatrix type="matrix" values="0 0 0 0 1 0 0 0 0 0 0 0 0 0 0.76002 0 0 0 1 0"/>
<feBlend mode="normal" in2="BackgroundImageFix" result="effect1_dropShadow"/>
<feBlend mode="normal" in="SourceGraphic" in2="effect1_dropShadow" result="shape"/>
</filter>
<filter id="filter7_d" x="0.558594" y="175.682" width="13.457" height="13.7055" filterUnits="userSpaceOnUse" color-interpolation-filters="sRGB">
<feFlood flood-opacity="0" result="BackgroundImageFix"/>
<feColorMatrix in="SourceAlpha" type="matrix" values="0 0 0 0 0 0 0 0 0 0 0 0 0 0 0 0 0 0 255 0"/>
<feOffset/>
<feGaussianBlur stdDeviation="2"/>
<feColorMatrix type="matrix" values="0 0 0 0 1 0 0 0 0 0 0 0 0 0 0.76002 0 0 0 1 0"/>
<feBlend mode="normal" in2="BackgroundImageFix" result="effect1_dropShadow"/>
<feBlend mode="normal" in="SourceGraphic" in2="effect1_dropShadow" result="shape"/>
</filter>
<filter id="filter8_d" x="388.848" y="409.368" width="13.457" height="13.7055" filterUnits="userSpaceOnUse" color-interpolation-filters="sRGB">
<feFlood flood-opacity="0" result="BackgroundImageFix"/>
<feColorMatrix in="SourceAlpha" type="matrix" values="0 0 0 0 0 0 0 0 0 0 0 0 0 0 0 0 0 0 255 0"/>
<feOffset/>
<feGaussianBlur stdDeviation="2"/>
<feColorMatrix type="matrix" values="0 0 0 0 1 0 0 0 0 0 0 0 0 0 0.76002 0 0 0 1 0"/>
<feBlend mode="normal" in2="BackgroundImageFix" result="effect1_dropShadow"/>
<feBlend mode="normal" in="SourceGraphic" in2="effect1_dropShadow" result="shape"/>
</filter>
<filter id="filter9_d" x="242.461" y="396.826" width="11.638" height="11.8036" filterUnits="userSpaceOnUse" color-interpolation-filters="sRGB">
<feFlood flood-opacity="0" result="BackgroundImageFix"/>
<feColorMatrix in="SourceAlpha" type="matrix" values="0 0 0 0 0 0 0 0 0 0 0 0 0 0 0 0 0 0 255 0"/>
<feOffset/>
<feGaussianBlur stdDeviation="2"/>
<feColorMatrix type="matrix" values="0 0 0 0 1 0 0 0 0 0 0 0 0 0 0.76002 0 0 0 1 0"/>
<feBlend mode="normal" in2="BackgroundImageFix" result="effect1_dropShadow"/>
<feBlend mode="normal" in="SourceGraphic" in2="effect1_dropShadow" result="shape"/>
</filter>
<filter id="filter10_d" x="197.168" y="234.997" width="11.638" height="11.8036" filterUnits="userSpaceOnUse" color-interpolation-filters="sRGB">
<feFlood flood-opacity="0" result="BackgroundImageFix"/>
<feColorMatrix in="SourceAlpha" type="matrix" values="0 0 0 0 0 0 0 0 0 0 0 0 0 0 0 0 0 0 255 0"/>
<feOffset/>
<feGaussianBlur stdDeviation="2"/>
<feColorMatrix type="matrix" values="0 0 0 0 1 0 0 0 0 0 0 0 0 0 0.76002 0 0 0 1 0"/>
<feBlend mode="normal" in2="BackgroundImageFix" result="effect1_dropShadow"/>
<feBlend mode="normal" in="SourceGraphic" in2="effect1_dropShadow" result="shape"/>
</filter>
<filter id="filter11_d" x="1165.78" y="210.196" width="13.457" height="13.7055" filterUnits="userSpaceOnUse" color-interpolation-filters="sRGB">
<feFlood flood-opacity="0" result="BackgroundImageFix"/>
<feColorMatrix in="SourceAlpha" type="matrix" values="0 0 0 0 0 0 0 0 0 0 0 0 0 0 0 0 0 0 255 0"/>
<feOffset/>
<feGaussianBlur stdDeviation="2"/>
<feColorMatrix type="matrix" values="0 0 0 0 1 0 0 0 0 0 0 0 0 0 0.76002 0 0 0 1 0"/>
<feBlend mode="normal" in2="BackgroundImageFix" result="effect1_dropShadow"/>
<feBlend mode="normal" in="SourceGraphic" in2="effect1_dropShadow" result="shape"/>
</filter>
<filter id="filter12_d" x="1208.54" y="144.838" width="13.457" height="13.7055" filterUnits="userSpaceOnUse" color-interpolation-filters="sRGB">
<feFlood flood-opacity="0" result="BackgroundImageFix"/>
<feColorMatrix in="SourceAlpha" type="matrix" values="0 0 0 0 0 0 0 0 0 0 0 0 0 0 0 0 0 0 255 0"/>
<feOffset/>
<feGaussianBlur stdDeviation="2"/>
<feColorMatrix type="matrix" values="0 0 0 0 1 0 0 0 0 0 0 0 0 0 0.76002 0 0 0 1 0"/>
<feBlend mode="normal" in2="BackgroundImageFix" result="effect1_dropShadow"/>
<feBlend mode="normal" in="SourceGraphic" in2="effect1_dropShadow" result="shape"/>
</filter>
<filter id="filter13_d" x="1351.74" y="236.997" width="13.457" height="13.7055" filterUnits="userSpaceOnUse" color-interpolation-filters="sRGB">
<feFlood flood-opacity="0" result="BackgroundImageFix"/>
<feColorMatrix in="SourceAlpha" type="matrix" values="0 0 0 0 0 0 0 0 0 0 0 0 0 0 0 0 0 0 255 0"/>
<feOffset/>
<feGaussianBlur stdDeviation="2"/>
<feColorMatrix type="matrix" values="0 0 0 0 1 0 0 0 0 0 0 0 0 0 0.76002 0 0 0 1 0"/>
<feBlend mode="normal" in2="BackgroundImageFix" result="effect1_dropShadow"/>
<feBlend mode="normal" in="SourceGraphic" in2="effect1_dropShadow" result="shape"/>
</filter>
<filter id="filter14_d" x="1205.35" y="224.455" width="11.638" height="11.8036" filterUnits="userSpaceOnUse" color-interpolation-filters="sRGB">
<feFlood flood-opacity="0" result="BackgroundImageFix"/>
<feColorMatrix in="SourceAlpha" type="matrix" values="0 0 0 0 0 0 0 0 0 0 0 0 0 0 0 0 0 0 255 0"/>
<feOffset/>
<feGaussianBlur stdDeviation="2"/>
<feColorMatrix type="matrix" values="0 0 0 0 1 0 0 0 0 0 0 0 0 0 0.76002 0 0 0 1 0"/>
<feBlend mode="normal" in2="BackgroundImageFix" result="effect1_dropShadow"/>
<feBlend mode="normal" in="SourceGraphic" in2="effect1_dropShadow" result="shape"/>
</filter>
<filter id="filter15_d" x="1264.89" y="332.566" width="13.457" height="13.7055" filterUnits="userSpaceOnUse" color-interpolation-filters="sRGB">
<feFlood flood-opacity="0" result="BackgroundImageFix"/>
<feColorMatrix in="SourceAlpha" type="matrix" values="0 0 0 0 0 0 0 0 0 0 0 0 0 0 0 0 0 0 255 0"/>
<feOffset/>
<feGaussianBlur stdDeviation="2"/>
<feColorMatrix type="matrix" values="0 0 0 0 1 0 0 0 0 0 0 0 0 0 0.76002 0 0 0 1 0"/>
<feBlend mode="normal" in2="BackgroundImageFix" result="effect1_dropShadow"/>
<feBlend mode="normal" in="SourceGraphic" in2="effect1_dropShadow" result="shape"/>
</filter>
<filter id="filter16_d" x="1307.64" y="267.209" width="13.457" height="13.7055" filterUnits="userSpaceOnUse" color-interpolation-filters="sRGB">
<feFlood flood-opacity="0" result="BackgroundImageFix"/>
<feColorMatrix in="SourceAlpha" type="matrix" values="0 0 0 0 0 0 0 0 0 0 0 0 0 0 0 0 0 0 255 0"/>
<feOffset/>
<feGaussianBlur stdDeviation="2"/>
<feColorMatrix type="matrix" values="0 0 0 0 1 0 0 0 0 0 0 0 0 0 0.76002 0 0 0 1 0"/>
<feBlend mode="normal" in2="BackgroundImageFix" result="effect1_dropShadow"/>
<feBlend mode="normal" in="SourceGraphic" in2="effect1_dropShadow" result="shape"/>
</filter>
<filter id="filter17_d" x="1062.56" y="125.682" width="13.457" height="13.7055" filterUnits="userSpaceOnUse" color-interpolation-filters="sRGB">
<feFlood flood-opacity="0" result="BackgroundImageFix"/>
<feColorMatrix in="SourceAlpha" type="matrix" values="0 0 0 0 0 0 0 0 0 0 0 0 0 0 0 0 0 0 255 0"/>
<feOffset/>
<feGaussianBlur stdDeviation="2"/>
<feColorMatrix type="matrix" values="0 0 0 0 1 0 0 0 0 0 0 0 0 0 0.76002 0 0 0 1 0"/>
<feBlend mode="normal" in2="BackgroundImageFix" result="effect1_dropShadow"/>
<feBlend mode="normal" in="SourceGraphic" in2="effect1_dropShadow" result="shape"/>
</filter>
<filter id="filter18_d" x="1304.46" y="346.826" width="11.638" height="11.8036" filterUnits="userSpaceOnUse" color-interpolation-filters="sRGB">
<feFlood flood-opacity="0" result="BackgroundImageFix"/>
<feColorMatrix in="SourceAlpha" type="matrix" values="0 0 0 0 0 0 0 0 0 0 0 0 0 0 0 0 0 0 255 0"/>
<feOffset/>
<feGaussianBlur stdDeviation="2"/>
<feColorMatrix type="matrix" values="0 0 0 0 1 0 0 0 0 0 0 0 0 0 0.76002 0 0 0 1 0"/>
<feBlend mode="normal" in2="BackgroundImageFix" result="effect1_dropShadow"/>
<feBlend mode="normal" in="SourceGraphic" in2="effect1_dropShadow" result="shape"/>
</filter>
<filter id="filter19_d" x="1259.17" y="184.997" width="11.638" height="11.8036" filterUnits="userSpaceOnUse" color-interpolation-filters="sRGB">
<feFlood flood-opacity="0" result="BackgroundImageFix"/>
<feColorMatrix in="SourceAlpha" type="matrix" values="0 0 0 0 0 0 0 0 0 0 0 0 0 0 0 0 0 0 255 0"/>
<feOffset/>
<feGaussianBlur stdDeviation="2"/>
<feColorMatrix type="matrix" values="0 0 0 0 1 0 0 0 0 0 0 0 0 0 0.76002 0 0 0 1 0"/>
<feBlend mode="normal" in2="BackgroundImageFix" result="effect1_dropShadow"/>
<feBlend mode="normal" in="SourceGraphic" in2="effect1_dropShadow" result="shape"/>
</filter>
<linearGradient id="paint0_linear" x2="1" gradientUnits="userSpaceOnUse" gradientTransform="translate(2.85317) scale(5.70634 5.42705) rotate(90)">
<stop stop-color="#F4B8FF"/>
<stop offset="0.986169" stop-color="#B862CF" stop-opacity="0.01"/>
</linearGradient>
<linearGradient id="paint1_linear" x2="1" gradientUnits="userSpaceOnUse" gradientTransform="translate(2.85317) scale(5.70634 5.42705) rotate(90)">
<stop stop-color="#F4B8FF"/>
<stop offset="0.986169" stop-color="#B862CF" stop-opacity="0.01"/>
</linearGradient>
<linearGradient id="paint2_linear" x2="1" gradientUnits="userSpaceOnUse" gradientTransform="translate(2.85317) scale(5.70634 5.42705) rotate(90)">
<stop stop-color="#F4B8FF"/>
<stop offset="0.986169" stop-color="#B862CF" stop-opacity="0.01"/>
</linearGradient>
<linearGradient id="paint3_linear" x2="1" gradientUnits="userSpaceOnUse" gradientTransform="translate(1.90211) scale(3.80423 3.61803) rotate(90)">
<stop stop-color="#F4B8FF"/>
<stop offset="0.986169" stop-color="#B862CF" stop-opacity="0.01"/>
</linearGradient>
<linearGradient id="paint4_linear" x2="1" gradientUnits="userSpaceOnUse" gradientTransform="translate(2.85317) scale(5.70634 5.42705) rotate(90)">
<stop stop-color="#F4B8FF"/>
<stop offset="0.986169" stop-color="#B862CF" stop-opacity="0.01"/>
</linearGradient>
<linearGradient id="paint5_linear" x2="1" gradientUnits="userSpaceOnUse" gradientTransform="translate(2.85317) scale(5.70634 5.42705) rotate(90)">
<stop stop-color="#F4B8FF"/>
<stop offset="0.986169" stop-color="#B862CF" stop-opacity="0.01"/>
</linearGradient>
<linearGradient id="paint6_linear" x2="1" gradientUnits="userSpaceOnUse" gradientTransform="translate(2.85317) scale(5.70634 5.42705) rotate(90)">
<stop stop-color="#F4B8FF"/>
<stop offset="0.986169" stop-color="#B862CF" stop-opacity="0.01"/>
</linearGradient>
<linearGradient id="paint7_linear" x2="1" gradientUnits="userSpaceOnUse" gradientTransform="translate(2.85317) scale(5.70634 5.42705) rotate(90)">
<stop stop-color="#F4B8FF"/>
<stop offset="0.986169" stop-color="#B862CF" stop-opacity="0.01"/>
</linearGradient>
<linearGradient id="paint8_linear" x2="1" gradientUnits="userSpaceOnUse" gradientTransform="translate(2.85317) scale(5.70634 5.42705) rotate(90)">
<stop stop-color="#F4B8FF"/>
<stop offset="0.986169" stop-color="#B862CF" stop-opacity="0.01"/>
</linearGradient>
<linearGradient id="paint9_linear" x2="1" gradientUnits="userSpaceOnUse" gradientTransform="translate(1.90211) scale(3.80423 3.61803) rotate(90)">
<stop stop-color="#F4B8FF"/>
<stop offset="0.986169" stop-color="#B862CF" stop-opacity="0.01"/>
</linearGradient>
<linearGradient id="paint10_linear" x2="1" gradientUnits="userSpaceOnUse" gradientTransform="translate(1.90211) scale(3.80423 3.61803) rotate(90)">
<stop stop-color="#F4B8FF"/>
<stop offset="0.986169" stop-color="#B862CF" stop-opacity="0.01"/>
</linearGradient>
<linearGradient id="paint11_linear" x2="1" gradientUnits="userSpaceOnUse" gradientTransform="translate(2.85317) scale(5.70634 5.42705) rotate(90)">
<stop stop-color="#F4B8FF"/>
<stop offset="0.986169" stop-color="#B862CF" stop-opacity="0.01"/>
</linearGradient>
<linearGradient id="paint12_linear" x2="1" gradientUnits="userSpaceOnUse" gradientTransform="translate(2.85317) scale(5.70634 5.42705) rotate(90)">
<stop stop-color="#F4B8FF"/>
<stop offset="0.986169" stop-color="#B862CF" stop-opacity="0.01"/>
</linearGradient>
<linearGradient id="paint13_linear" x2="1" gradientUnits="userSpaceOnUse" gradientTransform="translate(2.85317) scale(5.70634 5.42705) rotate(90)">
<stop stop-color="#F4B8FF"/>
<stop offset="0.986169" stop-color="#B862CF" stop-opacity="0.01"/>
</linearGradient>
<linearGradient id="paint14_linear" x2="1" gradientUnits="userSpaceOnUse" gradientTransform="translate(1.90211) scale(3.80423 3.61803) rotate(90)">
<stop stop-color="#F4B8FF"/>
<stop offset="0.986169" stop-color="#B862CF" stop-opacity="0.01"/>
</linearGradient>
<linearGradient id="paint15_linear" x2="1" gradientUnits="userSpaceOnUse" gradientTransform="translate(2.85317) scale(5.70634 5.42705) rotate(90)">
<stop stop-color="#F4B8FF"/>
<stop offset="0.986169" stop-color="#B862CF" stop-opacity="0.01"/>
</linearGradient>
<linearGradient id="paint16_linear" x2="1" gradientUnits="userSpaceOnUse" gradientTransform="translate(2.85317) scale(5.70634 5.42705) rotate(90)">
<stop stop-color="#F4B8FF"/>
<stop offset="0.986169" stop-color="#B862CF" stop-opacity="0.01"/>
</linearGradient>
<linearGradient id="paint17_linear" x2="1" gradientUnits="userSpaceOnUse" gradientTransform="translate(2.85317) scale(5.70634 5.42705) rotate(90)">
<stop stop-color="#F4B8FF"/>
<stop offset="0.986169" stop-color="#B862CF" stop-opacity="0.01"/>
</linearGradient>
<linearGradient id="paint18_linear" x2="1" gradientUnits="userSpaceOnUse" gradientTransform="translate(1.90211) scale(3.80423 3.61803) rotate(90)">
<stop stop-color="#F4B8FF"/>
<stop offset="0.986169" stop-color="#B862CF" stop-opacity="0.01"/>
</linearGradient>
<linearGradient id="paint19_linear" x2="1" gradientUnits="userSpaceOnUse" gradientTransform="translate(1.90211) scale(3.80423 3.61803) rotate(90)">
<stop stop-color="#F4B8FF"/>
<stop offset="0.986169" stop-color="#B862CF" stop-opacity="0.01"/>
</linearGradient>
</defs>
</svg>
