<svg width="137" height="40" fill="none" xmlns="http://www.w3.org/2000/svg"><path fill-rule="evenodd" clip-rule="evenodd" d="M45.402 5.18v19.824h10.136c2.974 0 6.171-2.11 6.171-5.5 0-3.23-2.462-4.38-3.517-4.732-.064-.032-.128-.032-.128-.096 0-.032.032-.064.032-.064.032 0 2.718-.96 2.718-4.029 0-3.389-2.302-5.403-6.14-5.403h-9.272zm4.764 7.801V9.272c0-.032.033-.064.065-.064h3.645c1.183 0 1.95.8 1.95 1.95 0 .928-.735 1.887-2.046 1.887h-3.581s-.032-.032-.032-.064zm0 7.93v-3.933c0-.032.033-.064.065-.064h3.58c1.727 0 2.686.736 2.686 2.015 0 1.343-.895 2.046-2.621 2.046H50.23a.069.069 0 0 1-.065-.064z" fill="url(#paint0_linear)"/><path fill-rule="evenodd" clip-rule="evenodd" d="M63.435 15.06c0 6.235 3.678 10.392 9.113 10.392 5.436 0 9.113-4.189 9.113-10.392 0-6.235-3.677-10.392-9.113-10.392-5.435 0-9.113 4.19-9.113 10.392zm4.829 0c0-3.485 1.694-5.723 4.316-5.723s4.349 2.238 4.349 5.723-1.695 5.755-4.349 5.755c-2.686 0-4.316-2.206-4.316-5.755z" fill="url(#paint1_linear)"/><path fill-rule="evenodd" clip-rule="evenodd" d="M83.643 10.871c0 3.07 2.015 5.18 5.692 5.947l.703.16c2.526.544 3.613.896 3.613 2.27 0 1.215-1.119 2.047-2.75 2.047-1.982 0-3.74-.864-5.051-2.526-.096.096-3.006 2.942-3.102 3.037 1.599 1.919 3.741 3.677 8.217 3.677 3.805 0 7.642-2.206 7.642-6.458 0-4.7-3.74-5.5-6.235-6.011l-.703-.16c-1.567-.32-3.102-.768-3.102-2.079 0-1.343 1.247-1.918 2.494-1.918 1.503 0 2.974.671 4.093 1.822l3.006-2.973c-1.247-1.407-3.517-3.07-7.195-3.07-4.348.032-7.322 2.526-7.322 6.235z" fill="url(#paint2_linear)"/><path fill-rule="evenodd" clip-rule="evenodd" d="M100.398 14.964c0 6.203 3.773 10.52 9.177 10.52 4.061 0 5.883-1.503 7.802-4.253-.096-.064-3.837-2.59-3.965-2.654-.863 1.407-1.759 2.27-3.613 2.27-2.206 0-4.572-1.822-4.572-5.883 0-3.677 2.238-5.596 4.412-5.596 1.631 0 2.75.672 3.645 2.207.096-.064 3.805-2.526 3.933-2.622C115.235 6.01 112.9 4.7 109.639 4.7c-6.395 0-9.241 5.148-9.241 10.264z" fill="url(#paint3_linear)"/><path fill-rule="evenodd" clip-rule="evenodd" d="M130.773 5.18v7.29a.069.069 0 0 1-.064.064h-6.043a.069.069 0 0 1-.064-.064V5.18h-5.116v19.824h5.116v-7.802c0-.032.032-.064.064-.064h6.043c.032 0 .064.032.064.064v7.802h5.116V5.18h-5.116z" fill="url(#paint4_linear)"/><path d="M.096 15.092c0 8.281 6.746 15.028 15.028 15.028 8.281 0 15.027-6.747 15.027-15.028S23.405.064 15.124.064C6.842.032.096 6.78.096 15.092zm1.502 0c0-7.45 6.076-13.525 13.526-13.525s13.525 6.075 13.525 13.525-6.075 13.525-13.525 13.525S1.598 22.542 1.598 15.092zm18.77-9.72v5.052c0 .128-.033.256-.352.256h-9.784c-.32 0-.352-.128-.352-.256V5.372a.219.219 0 0 0-.224-.224l-.096.032-.288.16c-3.517 2.174-5.531 5.691-5.531 9.752 0 3.997 2.046 7.642 5.467 9.72l.288.192.096.032a.219.219 0 0 0 .224-.224V19.76c0-.128.032-.256.352-.256h9.784c.32 0 .351.128.351.256v5.052c0 .128.096.224.224.224l.096-.032.384-.192c3.421-2.11 5.467-5.723 5.467-9.72 0-3.965-2.046-7.61-5.467-9.72l-.288-.16-.096-.032c-.128-.032-.256.064-.256.192zM8.248 21.998l-.064-.064c-1.79-1.854-2.75-4.284-2.75-6.874s.992-5.02 2.75-6.874l.192-.192-.032.287c-.128.736-.16 1.503-.16 2.303v8.952c0 .8.064 1.6.16 2.303l.032.287-.128-.128zm1.599-4.7v-4.412c0-.256.224-.48.48-.48h9.56c.256 0 .48.224.48.48v4.412c0 .256-.224.48-.48.48h-9.56a.492.492 0 0 1-.48-.48zm12.022 4.637v-.064c.128-.704.16-1.503.16-2.303v-8.952c0-.832-.064-1.6-.16-2.303l-.032-.287.192.192c1.79 1.854 2.75 4.284 2.75 6.874s-.991 5.02-2.75 6.874l-.192.192.032-.224z" fill="url(#paint5_linear)"/><path fill-rule="evenodd" clip-rule="evenodd" d="M56.435 18.929c0-1.151-.863-1.95-2.622-1.95h-3.581v3.932h3.645c1.503 0 2.558-.544 2.558-1.982zm-.64-7.77c0-1.12-.767-1.887-1.886-1.887h-3.645v3.71h3.581c1.247 0 1.95-.96 1.95-1.823zm5.98 8.345c0 3.357-3.102 5.564-6.235 5.564h-10.2V5.116h9.368c3.581 0 6.203 1.79 6.203 5.467 0 3.166-2.75 4.093-2.75 4.093-.031.032 3.614.863 3.614 4.828z" fill="url(#paint6_linear)"/><path fill-rule="evenodd" clip-rule="evenodd" d="M76.834 15.06c0-3.134-1.439-5.66-4.252-5.66-2.846 0-4.253 2.526-4.253 5.66 0 3.165 1.407 5.691 4.253 5.691 2.813 0 4.252-2.526 4.252-5.691zm4.892 0c0 5.85-3.357 10.455-9.176 10.455-5.788 0-9.177-4.604-9.177-10.455 0-5.852 3.39-10.456 9.177-10.456 5.819 0 9.176 4.636 9.176 10.456z" fill="url(#paint7_linear)"/><path fill-rule="evenodd" clip-rule="evenodd" d="M98.673 19.024c0 4.38-3.964 6.523-7.705 6.523-4.317 0-6.555-1.663-8.314-3.74l3.198-3.134c1.343 1.694 3.101 2.558 5.052 2.558 1.598 0 2.686-.8 2.686-1.983 0-1.279-.96-1.662-3.582-2.206l-.703-.16c-3.134-.671-5.723-2.462-5.723-6.011 0-3.933 3.197-6.267 7.386-6.267 3.58 0 5.883 1.535 7.29 3.133l-3.102 3.07c-.959-1.023-2.43-1.854-4.093-1.854-1.15 0-2.43.543-2.43 1.854 0 1.215 1.343 1.663 3.038 2.014l.703.16c2.878.576 6.3 1.44 6.3 6.043z" fill="url(#paint8_linear)"/><path fill-rule="evenodd" clip-rule="evenodd" d="M117.443 21.199c-2.046 2.941-3.933 4.348-7.898 4.348-5.627 0-9.24-4.668-9.24-10.583 0-5.628 3.261-10.328 9.304-10.328 3.294 0 5.66 1.311 7.674 4.349l-4.029 2.686c-.831-1.407-1.886-2.239-3.613-2.239-2.206 0-4.348 1.983-4.348 5.532 0 3.997 2.302 5.82 4.508 5.82 1.887 0 2.782-.928 3.581-2.303l4.061 2.718z" fill="url(#paint9_linear)"/><path fill-rule="evenodd" clip-rule="evenodd" d="M135.955 25.068h-5.244v-7.866h-6.043v7.866h-5.244V5.116h5.244v7.322h6.043V5.116h5.244v19.952z" fill="url(#paint10_linear)"/><path d="M8.25 21.902a9.791 9.791 0 0 1-2.75-6.81c0-2.558.959-4.988 2.75-6.81l.063-.065v.064c-.128.736-.16 1.503-.16 2.303v8.952c0 .8.064 1.599.16 2.302v.064H8.25zm1.662-4.604v-4.412c0-.224.192-.416.416-.416h9.56c.224 0 .416.192.416.416v4.412a.423.423 0 0 1-.416.416h-9.56a.423.423 0 0 1-.416-.416zm12.054 4.572c.128-.735.16-1.502.16-2.302v-8.953c0-.799-.064-1.598-.16-2.302V8.25l.064.064a9.791 9.791 0 0 1 2.75 6.81c0 2.559-.96 4.989-2.75 6.811l-.064.064v-.128zM0 15.092C0 6.747 6.779 0 15.092 0c8.345 0 15.092 6.779 15.092 15.092 0 8.345-6.779 15.092-15.092 15.092S0 23.437 0 15.092zm1.663 0c0 7.418 6.043 13.461 13.46 13.461 7.419 0 13.462-6.043 13.462-13.461S22.542 1.63 15.124 1.63 1.663 7.674 1.663 15.09zm18.64-9.72v5.052c0 .064 0 .192-.287.192h-9.784c-.288 0-.288-.096-.288-.192V5.372a.287.287 0 0 0-.288-.288c-.064 0-.096 0-.16.032-.128.064-.191.096-.287.192-3.486 2.142-5.5 5.755-5.5 9.784 0 4.029 2.11 7.706 5.5 9.784a.907.907 0 0 1 .287.192c.032.032.096.032.16.032.16 0 .288-.128.288-.288V19.76c0-.064 0-.16.288-.16h9.784c.288 0 .288.096.288.16v5.052c0 .16.128.288.287.288.064 0 .096 0 .16-.032.128-.096.16-.096.288-.192 3.453-2.11 5.5-5.755 5.5-9.784 0-4.029-2.047-7.642-5.5-9.784-.128-.064-.192-.096-.288-.16-.032-.032-.096-.032-.16-.032-.16-.032-.287.096-.287.256z" fill="url(#paint11_linear)"/><path d="M47.097 32.263h-2.046v-.64h4.828v.64h-2.014v5.947h-.768v-5.947z" fill="url(#paint12_linear)"/><path d="M53.46 37.186c-.416.736-1.023 1.087-1.918 1.087-1.343 0-2.27-.99-2.27-2.462 0-1.47.895-2.494 2.174-2.494s2.046.896 2.046 2.398v.256h-3.39c.033.736.193 1.12.544 1.407.224.192.544.288.928.288.607 0 .927-.224 1.279-.8l.607.32zm-.703-1.854c-.064-.64-.192-.928-.48-1.151-.192-.16-.48-.224-.8-.224-.767 0-1.214.447-1.374 1.375h2.654z" fill="url(#paint13_linear)"/><path d="M58.704 37.186c-.447.768-1.087 1.12-1.95 1.12-1.311 0-2.238-1.024-2.238-2.495 0-1.502.895-2.494 2.206-2.494.831 0 1.407.32 1.854 1.056l-.607.415c-.384-.607-.704-.831-1.247-.831-.895 0-1.439.703-1.439 1.886 0 1.183.512 1.823 1.439 1.823.607 0 .96-.224 1.375-.831l.607.351z" fill="url(#paint14_linear)"/><path d="M59.918 33.413h.767v.736c.288-.544.768-.832 1.471-.832 1.023 0 1.599.672 1.599 1.919v2.973h-.768v-3.037c0-.831-.32-1.183-1.023-1.183-.767 0-1.279.511-1.279 1.279v2.941h-.767v-4.796z" fill="url(#paint15_linear)"/><path d="M69.48 35.811c0 1.44-.96 2.494-2.27 2.494-1.311 0-2.27-1.055-2.27-2.494 0-1.438.959-2.494 2.302-2.494 1.279 0 2.238 1.056 2.238 2.494zm-3.773 0c0 1.12.575 1.855 1.47 1.855.896 0 1.503-.704 1.503-1.855 0-1.119-.575-1.854-1.47-1.854-.928 0-1.503.703-1.503 1.854z" fill="url(#paint16_linear)"/><path d="M70.758 31.303h.767v6.907h-.767v-6.907z" fill="url(#paint17_linear)"/><path d="M77.314 35.811c0 1.44-.96 2.494-2.27 2.494-1.311 0-2.27-1.055-2.27-2.494 0-1.438.959-2.494 2.302-2.494 1.279 0 2.238 1.056 2.238 2.494zm-3.741 0c0 1.12.575 1.855 1.47 1.855.896 0 1.503-.704 1.503-1.855 0-1.119-.575-1.854-1.47-1.854-.96 0-1.503.703-1.503 1.854z" fill="url(#paint18_linear)"/><path d="M80.862 37.154c1.087 0 1.694.48 1.694 1.311 0 .96-.863 1.535-2.27 1.535-1.31 0-2.11-.512-2.11-1.31 0-.449.256-.768.831-1.024-.32-.16-.48-.416-.48-.767 0-.352.16-.608.512-.832-.384-.32-.575-.703-.575-1.183 0-.927.703-1.567 1.758-1.567.352 0 .64.064.96.192.415-.064.863-.128 1.374-.192v.704h-.703c.224.288.32.575.32.927 0 .96-.704 1.535-1.823 1.535-.32 0-.575-.032-.863-.16-.16.16-.256.288-.256.448 0 .32.16.415.703.415h.928v-.032zm-1.024.672c-.063 0-.223 0-.287-.032-.416.224-.608.447-.608.8 0 .51.48.798 1.407.798.991 0 1.503-.32 1.503-.895 0-.447-.32-.671-.96-.671h-1.055zm-.607-2.942c0 .608.416.96 1.119.96.672 0 1.055-.352 1.055-.96 0-.575-.415-.96-1.087-.96-.703 0-1.087.353-1.087.96z" fill="url(#paint19_linear)"/><path d="M84.668 32.007a.505.505 0 0 1-.512.511.505.505 0 0 1-.512-.511c0-.288.224-.512.512-.512.288 0 .512.224.512.512zm-.896 1.407h.768v4.796h-.768v-4.796z" fill="url(#paint20_linear)"/><path d="M90.07 38.241h-.256c-.511 0-.83-.223-.99-.703-.416.512-.896.735-1.472.735-.895 0-1.502-.543-1.502-1.31 0-.704.48-1.216 1.31-1.44.448-.127.8-.16 1.631-.191v-.288c0-.735-.287-1.087-.959-1.087-.512 0-.895.16-1.375.607l-.447-.511c.575-.512 1.087-.736 1.822-.736 1.12 0 1.695.608 1.695 1.727v2.142c0 .352.128.448.543.448v.607zm-1.279-2.366c-1.534.064-2.174.352-2.174 1.056 0 .48.32.735.895.735.768 0 1.311-.448 1.311-1.055v-.736h-.032z" fill="url(#paint21_linear)"/><path d="M92.98 33.414h.768v.799c.383-.576.927-.863 1.599-.863 1.247 0 2.046.959 2.046 2.462 0 1.502-.8 2.494-2.046 2.494-.704 0-1.247-.288-1.6-.864v2.43h-.766v-6.458zm.736 2.398c0 1.183.543 1.854 1.503 1.854.927 0 1.407-.607 1.407-1.822 0-1.183-.512-1.887-1.375-1.887-.96 0-1.535.704-1.535 1.855z" fill="url(#paint22_linear)"/><path d="M102.316 38.241h-.255c-.512 0-.832-.223-.992-.703-.415.512-.895.735-1.47.735-.896 0-1.503-.543-1.503-1.31 0-.704.48-1.216 1.31-1.44.448-.127.8-.16 1.631-.191v-.288c0-.735-.287-1.087-.959-1.087-.511 0-.895.16-1.375.607l-.447-.511c.575-.512 1.087-.736 1.822-.736 1.087 0 1.695.608 1.695 1.727v2.142c0 .352.128.448.543.448v.607zm-1.279-2.366c-1.534.064-2.174.352-2.174 1.056 0 .48.32.735.895.735.768 0 1.311-.448 1.311-1.055v-.736h-.032z" fill="url(#paint23_linear)"/><path d="M103.5 33.413h.767v.768c.32-.576.736-.864 1.279-.864.288 0 .512.064.768.192l-.32.64c-.224-.096-.352-.16-.576-.16-.735 0-1.183.607-1.183 1.567v2.653h-.735v-4.796z" fill="url(#paint24_linear)"/><path d="M110.918 38.241h-.256c-.512 0-.831-.223-.991-.703-.416.512-.895.735-1.471.735-.895 0-1.503-.543-1.503-1.31 0-.704.48-1.216 1.311-1.44.448-.127.8-.16 1.631-.191v-.288c0-.735-.288-1.087-.959-1.087-.512 0-.896.16-1.375.607l-.448-.511c.576-.512 1.087-.736 1.823-.736 1.119 0 1.694.608 1.694 1.727v2.142c0 .352.128.448.544.448v.607zm-1.311-2.366c-1.535.064-2.174.352-2.174 1.056 0 .48.319.735.895.735.767 0 1.311-.448 1.311-1.055v-.736h-.032z" fill="url(#paint25_linear)"/><path d="M117.408 38.241h-.256c-.511 0-.831-.223-.991-.703-.416.512-.895.735-1.471.735-.895 0-1.502-.543-1.502-1.31 0-.704.479-1.216 1.31-1.44.448-.127.8-.16 1.631-.191v-.288c0-.735-.288-1.087-.959-1.087-.512 0-.895.16-1.375.607l-.448-.511c.576-.512 1.088-.736 1.823-.736 1.087 0 1.695.608 1.695 1.727v2.142c0 .352.127.448.543.448v.607zm-1.311-2.366c-1.535.064-2.174.352-2.174 1.056 0 .48.32.735.895.735.768 0 1.311-.448 1.311-1.055v-.736h-.032z" fill="url(#paint26_linear)"/><path d="M119.52 33.414h.831l1.279 4.028 1.247-4.028h.799l-1.631 4.796h-.895l-1.63-4.796z" fill="url(#paint27_linear)"/><path d="M125.691 32.007a.505.505 0 0 1-.511.511.505.505 0 0 1-.512-.511c0-.288.224-.512.512-.512.287 0 .511.224.511.512zm-.863 1.407h.767v4.796h-.767v-4.796z" fill="url(#paint28_linear)"/><path d="M130.422 37.442c-.351.576-.895.864-1.598.864-1.247 0-2.047-.992-2.047-2.494 0-1.503.832-2.462 2.047-2.462.671 0 1.247.287 1.598.863v-2.91h.768v6.907h-.768v-.768zm-2.877-1.598c0 1.215.447 1.822 1.375 1.822.959 0 1.502-.671 1.502-1.854 0-1.151-.575-1.855-1.47-1.855-.896 0-1.407.672-1.407 1.887z" fill="url(#paint29_linear)"/><path d="M136.498 38.241h-.256c-.511 0-.831-.223-.991-.703-.416.512-.895.735-1.471.735-.895 0-1.503-.543-1.503-1.31 0-.704.48-1.216 1.311-1.44.448-.127.8-.16 1.631-.191v-.288c0-.735-.288-1.087-.959-1.087-.512 0-.896.16-1.375.607l-.448-.511c.576-.512 1.087-.736 1.823-.736 1.119 0 1.694.608 1.694 1.727v2.142c0 .352.128.448.544.448v.607zm-1.311-2.366c-1.535.064-2.174.352-2.174 1.056 0 .48.319.735.895.735.767 0 1.311-.448 1.311-1.055v-.736h-.032z" fill="url(#paint30_linear)"/><defs><linearGradient id="paint0_linear" x1="54.3" y1="25.004" x2="57.548" y2="5.727" gradientUnits="userSpaceOnUse"><stop stop-color="#8A5C16"/><stop offset="1" stop-color="#8A5C16" stop-opacity=".2"/></linearGradient><linearGradient id="paint1_linear" x1="73.381" y1="25.452" x2="76.585" y2="5.175" gradientUnits="userSpaceOnUse"><stop stop-color="#8A5C16"/><stop offset="1" stop-color="#8A5C16" stop-opacity=".2"/></linearGradient><linearGradient id="paint2_linear" x1="91.402" y1="25.484" x2="95.078" y2="5.306" gradientUnits="userSpaceOnUse"><stop stop-color="#8A5C16"/><stop offset="1" stop-color="#8A5C16" stop-opacity=".2"/></linearGradient><linearGradient id="paint3_linear" x1="109.663" y1="25.484" x2="113.09" y2="5.282" gradientUnits="userSpaceOnUse"><stop stop-color="#8A5C16"/><stop offset="1" stop-color="#8A5C16" stop-opacity=".2"/></linearGradient><linearGradient id="paint4_linear" x1="128.437" y1="25.004" x2="131.667" y2="5.721" gradientUnits="userSpaceOnUse"><stop stop-color="#8A5C16"/><stop offset="1" stop-color="#8A5C16" stop-opacity=".2"/></linearGradient><linearGradient id="paint5_linear" x1="16.496" y1="30.12" x2="20.583" y2=".63" gradientUnits="userSpaceOnUse"><stop stop-color="#8A5C16"/><stop offset="1" stop-color="#8A5C16" stop-opacity=".2"/></linearGradient><linearGradient id="paint6_linear" x1="54.308" y1="25.068" x2="57.572" y2="5.665" gradientUnits="userSpaceOnUse"><stop stop-color="#8A5C16"/><stop offset="1" stop-color="#8A5C16" stop-opacity=".2"/></linearGradient><linearGradient id="paint7_linear" x1="73.388" y1="25.515" x2="76.609" y2="5.113" gradientUnits="userSpaceOnUse"><stop stop-color="#8A5C16"/><stop offset="1" stop-color="#8A5C16" stop-opacity=".2"/></linearGradient><linearGradient id="paint8_linear" x1="91.395" y1="25.547" x2="95.07" y2="5.27" gradientUnits="userSpaceOnUse"><stop stop-color="#8A5C16"/><stop offset="1" stop-color="#8A5C16" stop-opacity=".2"/></linearGradient><linearGradient id="paint9_linear" x1="109.656" y1="25.547" x2="113.094" y2="5.218" gradientUnits="userSpaceOnUse"><stop stop-color="#8A5C16"/><stop offset="1" stop-color="#8A5C16" stop-opacity=".2"/></linearGradient><linearGradient id="paint10_linear" x1="128.444" y1="25.068" x2="131.691" y2="5.659" gradientUnits="userSpaceOnUse"><stop stop-color="#8A5C16"/><stop offset="1" stop-color="#8A5C16" stop-opacity=".2"/></linearGradient><linearGradient id="paint11_linear" x1="16.47" y1="30.184" x2="20.575" y2=".569" gradientUnits="userSpaceOnUse"><stop stop-color="#8A5C16"/><stop offset="1" stop-color="#8A5C16" stop-opacity=".2"/></linearGradient><linearGradient id="paint12_linear" x1="47.685" y1="38.21" x2="48.888" y2="31.85" gradientUnits="userSpaceOnUse"><stop stop-color="#8A5C16"/><stop offset="1" stop-color="#8A5C16" stop-opacity=".2"/></linearGradient><linearGradient id="paint13_linear" x1="51.575" y1="38.273" x2="52.36" y2="33.445" gradientUnits="userSpaceOnUse"><stop stop-color="#8A5C16"/><stop offset="1" stop-color="#8A5C16" stop-opacity=".2"/></linearGradient><linearGradient id="paint14_linear" x1="56.801" y1="38.305" x2="57.603" y2="33.45" gradientUnits="userSpaceOnUse"><stop stop-color="#8A5C16"/><stop offset="1" stop-color="#8A5C16" stop-opacity=".2"/></linearGradient><linearGradient id="paint15_linear" x1="62.012" y1="38.209" x2="62.85" y2="33.465" gradientUnits="userSpaceOnUse"><stop stop-color="#8A5C16"/><stop offset="1" stop-color="#8A5C16" stop-opacity=".2"/></linearGradient><linearGradient id="paint16_linear" x1="67.417" y1="38.305" x2="68.159" y2="33.43" gradientUnits="userSpaceOnUse"><stop stop-color="#8A5C16"/><stop offset="1" stop-color="#8A5C16" stop-opacity=".2"/></linearGradient><linearGradient id="paint17_linear" x1="71.177" y1="38.21" x2="74.547" y2="35.507" gradientUnits="userSpaceOnUse"><stop stop-color="#8A5C16"/><stop offset="1" stop-color="#8A5C16" stop-opacity=".2"/></linearGradient><linearGradient id="paint18_linear" x1="75.251" y1="38.305" x2="75.993" y2="33.43" gradientUnits="userSpaceOnUse"><stop stop-color="#8A5C16"/><stop offset="1" stop-color="#8A5C16" stop-opacity=".2"/></linearGradient><linearGradient id="paint19_linear" x1="80.566" y1="40" x2="81.918" y2="33.603" gradientUnits="userSpaceOnUse"><stop stop-color="#8A5C16"/><stop offset="1" stop-color="#8A5C16" stop-opacity=".2"/></linearGradient><linearGradient id="paint20_linear" x1="84.203" y1="38.21" x2="87.545" y2="34.535" gradientUnits="userSpaceOnUse"><stop stop-color="#8A5C16"/><stop offset="1" stop-color="#8A5C16" stop-opacity=".2"/></linearGradient><linearGradient id="paint21_linear" x1="88.153" y1="38.273" x2="88.938" y2="33.445" gradientUnits="userSpaceOnUse"><stop stop-color="#8A5C16"/><stop offset="1" stop-color="#8A5C16" stop-opacity=".2"/></linearGradient><linearGradient id="paint22_linear" x1="95.388" y1="39.872" x2="96.671" y2="33.612" gradientUnits="userSpaceOnUse"><stop stop-color="#8A5C16"/><stop offset="1" stop-color="#8A5C16" stop-opacity=".2"/></linearGradient><linearGradient id="paint23_linear" x1="100.399" y1="38.273" x2="101.184" y2="33.445" gradientUnits="userSpaceOnUse"><stop stop-color="#8A5C16"/><stop offset="1" stop-color="#8A5C16" stop-opacity=".2"/></linearGradient><linearGradient id="paint24_linear" x1="105.035" y1="38.209" x2="106.149" y2="33.586" gradientUnits="userSpaceOnUse"><stop stop-color="#8A5C16"/><stop offset="1" stop-color="#8A5C16" stop-opacity=".2"/></linearGradient><linearGradient id="paint25_linear" x1="109" y1="38.273" x2="109.786" y2="33.445" gradientUnits="userSpaceOnUse"><stop stop-color="#8A5C16"/><stop offset="1" stop-color="#8A5C16" stop-opacity=".2"/></linearGradient><linearGradient id="paint26_linear" x1="115.491" y1="38.273" x2="116.276" y2="33.445" gradientUnits="userSpaceOnUse"><stop stop-color="#8A5C16"/><stop offset="1" stop-color="#8A5C16" stop-opacity=".2"/></linearGradient><linearGradient id="paint27_linear" x1="121.788" y1="38.21" x2="122.536" y2="33.533" gradientUnits="userSpaceOnUse"><stop stop-color="#8A5C16"/><stop offset="1" stop-color="#8A5C16" stop-opacity=".2"/></linearGradient><linearGradient id="paint28_linear" x1="125.226" y1="38.21" x2="128.569" y2="34.535" gradientUnits="userSpaceOnUse"><stop stop-color="#8A5C16"/><stop offset="1" stop-color="#8A5C16" stop-opacity=".2"/></linearGradient><linearGradient id="paint29_linear" x1="129.185" y1="38.306" x2="130.654" y2="31.626" gradientUnits="userSpaceOnUse"><stop stop-color="#8A5C16"/><stop offset="1" stop-color="#8A5C16" stop-opacity=".2"/></linearGradient><linearGradient id="paint30_linear" x1="134.58" y1="38.273" x2="135.366" y2="33.445" gradientUnits="userSpaceOnUse"><stop stop-color="#8A5C16"/><stop offset="1" stop-color="#8A5C16" stop-opacity=".2"/></linearGradient></defs></svg>