<svg width="116" height="20" fill="none" xmlns="http://www.w3.org/2000/svg"><path fill-rule="evenodd" clip-rule="evenodd" d="M96.155 2.415C96.155 1.04 97.25 0 98.701 0c1.456 0 2.57 1.04 2.57 2.415 0 1.377-1.114 2.39-2.57 2.39-1.451 0-2.546-1.013-2.546-2.39zm.235 3.689h4.648v13.584H96.39V6.104zm-81.221 0v8.856c0 3.429 1.948 5.04 4.572 5.04 2.257 0 3.583-1.014 4.31-2.416v2.103h4.65V6.104h-4.65v7.816c0 1.742-.91 2.573-2.31 2.573-1.324 0-1.924-.754-1.924-2.287V6.104H15.17zm4-5.819c-1.22 0-2.208.987-2.208 2.183 0 1.194.987 2.156 2.208 2.156 1.248 0 2.232-.962 2.232-2.156 0-1.196-.984-2.183-2.232-2.183zm5.531 0a2.184 2.184 0 0 0-2.209 2.183c0 1.194.961 2.156 2.21 2.156 1.247 0 2.233-.962 2.233-2.156 0-1.196-.986-2.183-2.234-2.183zm-16.415.832H0v18.57h8.363c4.595 0 6.752-1.842 6.752-5.169v-.103c0-2.57-1.428-3.947-3.713-4.337 2.078-.545 3.143-1.923 3.143-4v-.104c0-2.883-1.871-4.857-6.26-4.857zm1.223 5.48c0 1.325-.625 1.896-2.288 1.896H5.193V4.65H7.22c1.613 0 2.288.571 2.288 1.844v.105zm.361 7.378c0 1.376-.778 2.155-2.467 2.155H5.193v-4.39h2.054c1.87 0 2.622.727 2.622 2.131v.104zm19.636-7.871h4.648v2.7c.858-2.025 2.285-2.908 4.39-2.882V9.57c1.185-2.413 3.71-3.83 6.727-3.83 3.408 0 6.175 1.777 7.084 4.767.924-3.058 3.674-4.766 6.919-4.766 3.322 0 6.387 1.455 6.645 5.585h-4.361c-.21-1.274-.832-1.975-2.181-1.975-1.639 0-2.602 1.17-2.602 3.455v.208c0 2.363.911 3.583 2.68 3.583 1.296 0 2.206-.778 2.361-2.259h4.128V6.104h4.65v2.7c.858-2.025 2.287-2.908 4.39-2.882v2.964c.874-2.106 3.12-3.146 6.104-3.146 2.795 0 4.836.855 5.69 2.792V6.104h1.635V3.273h4.648v2.831h2.677v3.169h-2.676v5.61c0 .986.493 1.429 1.377 1.429.519 0 .909-.078 1.326-.236v3.533c-.183.047-.391.102-.623.155a8.677 8.677 0 0 1-1.95.236c-3.066 0-4.779-1.48-4.779-4.675V9.273h-1.38c.123.482.187 1.018.187 1.61v8.805h-4.522v-1.585C82.05 19.088 80.856 20 78.674 20c-2.44 0-4.597-1.196-4.597-4.08 0-3.192 2.701-4.44 7.22-4.44h1.298v-.311c0-1.298-.31-2.156-1.791-2.156-1.274 0-1.742.753-1.844 1.61h-4.364a6.26 6.26 0 0 1 .034-.368c-2.607.004-4.036.902-4.036 2.991v6.442h-4.65v-4.704C65.56 18.044 63.275 20 59.167 20c-3.32 0-5.996-1.587-6.855-4.675C51.36 18.29 48.604 20 45.246 20c-4.183 0-7.43-2.547-7.43-6.936v-.206c0-.948.154-1.82.436-2.603-2.645-.01-4.099.885-4.099 2.991v6.442h-4.648V6.104zm18.44 6.674v.208c0 2.26-.933 3.558-2.675 3.558-1.792 0-2.699-1.273-2.699-3.609v-.208c0-2.285.96-3.506 2.7-3.506 1.766 0 2.674 1.272 2.674 3.557zm34.65 2.157v-.831h-1.221c-1.871 0-2.7.363-2.7 1.478 0 .782.516 1.276 1.61 1.276 1.322 0 2.31-.756 2.31-1.923zM106.504.131h-4.649v19.557h4.649V13.74l3.662 5.948h5.195l-4.804-7.481 4.44-6.103h-4.831l-3.662 5.376V.13z" fill="url(#paint0_linear)"/><defs><linearGradient id="paint0_linear" x1="62.949" y1="20" x2="63.429" y2=".012" gradientUnits="userSpaceOnUse"><stop stop-color="#8A5C16"/><stop offset="1" stop-color="#8A5C16" stop-opacity=".2"/></linearGradient></defs></svg>