<svg width="48" height="28" viewBox="0 0 48 28" fill="none" xmlns="http://www.w3.org/2000/svg">
<path fill-rule="evenodd" clip-rule="evenodd" d="M31.1301 0H28.8251V12.4471H31.1301V8.27382L34.2844 12.4471H37.1232L33.6293 8.05545L36.832 4.53726H34.0903L31.1301 8.05545V0ZM22.2496 22.104C27.3449 22.104 31.8822 19.7019 34.7938 15.9653L39.4281 19.5806C35.4489 24.7002 29.2375 28 22.2496 28C15.2618 28 9.05034 24.7002 5.07115 19.5806L9.70546 15.9653C12.6171 19.7019 17.1543 22.104 22.2496 22.104ZM38.6275 7.69149C38.7245 7.20622 38.9186 6.818 39.2098 6.57537C39.5252 6.30847 39.9377 6.18715 40.4472 6.18715C40.9568 6.18715 41.3692 6.30847 41.6604 6.57537C41.9516 6.84227 42.1457 7.20622 42.1942 7.69149H38.6275ZM43.4316 5.41072C42.7037 4.65856 41.7089 4.29461 40.4472 4.29461C39.2341 4.29461 38.2393 4.70709 37.4628 5.48352C36.6864 6.28421 36.2982 7.30327 36.2982 8.5407C36.2982 9.82666 36.6621 10.8457 37.4143 11.6222C38.1665 12.3743 39.1613 12.7625 40.4472 12.7625C41.2964 12.7625 42.0243 12.5927 42.6309 12.253C43.2375 11.9133 43.7713 11.4038 44.1838 10.7001L42.3398 9.77813C42.1457 10.0936 41.8788 10.3605 41.5876 10.506C41.2964 10.6759 40.9325 10.7487 40.4958 10.7487C39.9377 10.7487 39.501 10.6031 39.1855 10.3362C38.8701 10.045 38.6517 9.63255 38.5547 9.0745H44.475C44.4992 8.90465 44.4992 8.78333 44.4992 8.71054V8.46791C44.5235 7.18195 44.1595 6.16289 43.4316 5.41072ZM20.0417 4.53727V12.4471V12.4714H22.3225V9.00174V8.68631C22.3225 8.20104 22.3467 7.83709 22.4195 7.59446C22.468 7.35182 22.5651 7.13346 22.7107 6.93935C22.8805 6.69671 23.0989 6.5026 23.3658 6.38129C23.6327 6.25997 23.9239 6.18718 24.2393 6.18718C24.7973 6.18718 25.1855 6.33276 25.4039 6.64819C25.6223 6.96361 25.7436 7.59446 25.7436 8.56499V12.4714H28.0244V7.86136V7.61872C28.0244 7.0364 28.0001 6.59966 27.9516 6.33276C27.903 6.0416 27.8303 5.79897 27.7089 5.5806C27.4663 5.14386 27.1266 4.82843 26.7141 4.63433C26.3017 4.41596 25.7921 4.3189 25.1855 4.3189C24.6032 4.3189 24.0937 4.44021 23.6084 4.68285C23.1474 4.90122 22.7107 5.26518 22.3225 5.75044V4.53727H20.0417ZM6.79375 9.43847C6.18717 10.0451 5.2409 10.3362 3.90641 10.3362H2.52339V2.83883H3.93067C5.24089 2.83883 6.21143 3.12999 6.81802 3.73657C7.4246 4.34316 7.71576 5.28943 7.71576 6.57539C7.69149 7.88562 7.40034 8.83189 6.79375 9.43847ZM9.72962 3.83363C9.36567 3.03294 8.83188 2.35356 8.10397 1.81977C7.54592 1.40729 6.91507 1.11613 6.18717 0.946282C5.45926 0.776438 4.46446 0.679387 3.20276 0.679387H0V12.4471H2.52339H3.42114C4.68284 12.4471 5.65337 12.3743 6.30848 12.2045C6.9636 12.0347 7.57018 11.7678 8.10397 11.3795C8.83188 10.8457 9.36567 10.1906 9.75388 9.38995C10.1178 8.58926 10.3119 7.66724 10.3119 6.62392C10.2877 5.55633 10.0936 4.63432 9.72962 3.83363ZM15.0918 10.7244C15.7227 10.7244 16.2322 10.5061 16.5719 10.1179C16.9116 9.72965 17.1057 9.17159 17.0814 8.46795C17.0814 7.76431 16.9116 7.20625 16.5476 6.79377C16.2079 6.35703 15.7227 6.16292 15.1161 6.16292C14.4852 6.16292 14 6.35703 13.636 6.76951C13.2721 7.18199 13.1022 7.74004 13.1022 8.44368C13.1022 9.17159 13.2963 9.72965 13.636 10.1179C13.9757 10.5303 14.461 10.7244 15.0918 10.7244ZM16.9601 5.75045V4.56154H19.1924V12.4714H16.9844V11.3068C16.669 11.792 16.3293 12.156 15.8925 12.3986C15.4558 12.617 14.922 12.7383 14.2911 12.7383C13.2478 12.7383 12.3986 12.3501 11.7677 11.5737C11.1126 10.7972 10.7972 9.77817 10.7972 8.49221C10.7972 7.15773 11.1126 6.13867 11.7435 5.3865C12.3743 4.63434 13.2478 4.27038 14.3639 4.27038C14.9463 4.27038 15.4558 4.3917 15.8925 4.6586C16.305 4.90123 16.669 5.26518 16.9601 5.75045ZM46.0277 4.36743C45.227 4.36743 44.5719 3.71232 44.5719 2.91163C44.5719 2.11094 45.227 1.45583 46.0277 1.45583C46.8284 1.45583 47.4835 2.11094 47.4835 2.91163C47.4835 3.71232 46.8284 4.36743 46.0277 4.36743ZM46.0277 1.23746C45.1057 1.23746 44.3293 1.98962 44.3293 2.9359C44.3293 3.8579 45.0814 4.63433 46.0277 4.63433C46.9497 4.63433 47.7262 3.88217 47.7262 2.9359C47.7262 1.98962 46.974 1.23746 46.0277 1.23746ZM45.688 2.86309H45.9792C46.3189 2.86309 46.3674 2.76604 46.3674 2.54767C46.3674 2.3293 46.2946 2.25651 45.9792 2.25651H45.688V2.86309ZM46.5373 3.5182C46.5615 3.56673 46.6101 3.56673 46.6586 3.56673H46.7071V3.7851C46.7071 3.7851 46.6343 3.80936 46.5373 3.80936C46.4159 3.80936 46.3674 3.76084 46.2704 3.61526L46.0035 3.10573H45.688V3.7851H45.4211V2.03814C45.4211 2.03814 45.7123 2.01387 45.9792 2.01387C46.61 2.01387 46.6828 2.20798 46.6828 2.54767C46.6828 2.83883 46.61 3.03294 46.2704 3.08146L46.5373 3.5182Z" fill="url(#paint0_linear)"/>
<defs>
<linearGradient id="paint0_linear" x1="26.0427" y1="28.0002" x2="28.3043" y2="0.183883" gradientUnits="userSpaceOnUse">
<stop stop-color="#8A5C16"/>
<stop offset="1" stop-color="#8A5C16" stop-opacity="0.2"/>
</linearGradient>
</defs>
</svg>
