<svg width="300" height="40" viewBox="0 0 300 40" fill="none" xmlns="http://www.w3.org/2000/svg">
<path d="M8 0L0 8V40H8V24H20.0755V16H8V8H24V0H8Z" fill="url(#paint0_linear)"/>
<path d="M54.415 0H46.415L38.415 8V40H46.415V24H54.415V40H62.415V8L54.415 0ZM54.415 16H46.415V8H54.415V16Z" fill="url(#paint1_linear)"/>
<path d="M291.471 0V16H283.547V0H275.547V40H283.547V24H291.471V40H299.547V0H291.471Z" fill="url(#paint2_linear)"/>
<path d="M79.8486 0V40H87.8486V24H95.9241V40H103.924V24L95.9241 16H87.8486V8H95.9241V16H103.924V8L95.9241 0H79.8486Z" fill="url(#paint3_linear)"/>
<path d="M121.283 8V40H129.283V24H141.283V16H129.283V8H145.283V0H129.283L121.283 8Z" fill="url(#paint4_linear)"/>
<path d="M198.565 8H206.565V40H214.565V8H222.565V0H198.565V8Z" fill="url(#paint5_linear)"/>
<path d="M166.565 32V24H178.565V16H166.565V8H182.565V0H166.565L158.565 8V32L166.565 40H182.565V32H166.565Z" fill="url(#paint6_linear)"/>
<path d="M245.283 8H261.283V0H245.283L237.283 8V32L245.283 40H261.283V32H245.283V8Z" fill="url(#paint7_linear)"/>
<defs>
<linearGradient id="paint0_linear" x1="12.0663" y1="4.01852e-08" x2="21.2425" y2="31.4929" gradientUnits="userSpaceOnUse">
<stop stop-color="#F7FCFF" stop-opacity="0.3"/>
<stop offset="1" stop-color="#F7FCFF" stop-opacity="0.1"/>
</linearGradient>
<linearGradient id="paint1_linear" x1="50.4813" y1="4.01852e-08" x2="59.6576" y2="31.4929" gradientUnits="userSpaceOnUse">
<stop stop-color="#F7FCFF" stop-opacity="0.3"/>
<stop offset="1" stop-color="#F7FCFF" stop-opacity="0.1"/>
</linearGradient>
<linearGradient id="paint2_linear" x1="287.613" y1="4.01852e-08" x2="296.789" y2="31.4929" gradientUnits="userSpaceOnUse">
<stop stop-color="#F7FCFF" stop-opacity="0.3"/>
<stop offset="1" stop-color="#F7FCFF" stop-opacity="0.1"/>
</linearGradient>
<linearGradient id="paint3_linear" x1="91.9529" y1="4.01852e-08" x2="101.105" y2="31.5084" gradientUnits="userSpaceOnUse">
<stop stop-color="#F7FCFF" stop-opacity="0.3"/>
<stop offset="1" stop-color="#F7FCFF" stop-opacity="0.1"/>
</linearGradient>
<linearGradient id="paint4_linear" x1="133.349" y1="4.01852e-08" x2="142.526" y2="31.4929" gradientUnits="userSpaceOnUse">
<stop stop-color="#F7FCFF" stop-opacity="0.3"/>
<stop offset="1" stop-color="#F7FCFF" stop-opacity="0.1"/>
</linearGradient>
<linearGradient id="paint5_linear" x1="210.632" y1="4.01852e-08" x2="219.808" y2="31.4929" gradientUnits="userSpaceOnUse">
<stop stop-color="#F7FCFF" stop-opacity="0.3"/>
<stop offset="1" stop-color="#F7FCFF" stop-opacity="0.1"/>
</linearGradient>
<linearGradient id="paint6_linear" x1="170.632" y1="4.01852e-08" x2="179.808" y2="31.4929" gradientUnits="userSpaceOnUse">
<stop stop-color="#F7FCFF" stop-opacity="0.3"/>
<stop offset="1" stop-color="#F7FCFF" stop-opacity="0.1"/>
</linearGradient>
<linearGradient id="paint7_linear" x1="249.35" y1="4.01852e-08" x2="258.526" y2="31.4929" gradientUnits="userSpaceOnUse">
<stop stop-color="#F7FCFF" stop-opacity="0.3"/>
<stop offset="1" stop-color="#F7FCFF" stop-opacity="0.1"/>
</linearGradient>
</defs>
</svg>
