<svg width="300" height="40" fill="none" xmlns="http://www.w3.org/2000/svg"><path d="M8 0L0 8v32h8V24h12.076v-8H8V8h16V0H8z" fill="url(#paint0_linear)"/><path d="M54.415 0h-8l-8 8v32h8V24h8v16h8V8l-8-8zm0 16h-8V8h8v8z" fill="url(#paint1_linear)"/><path d="M291.471 0v16h-7.924V0h-8v40h8V24h7.924v16h8.076V0h-8.076z" fill="url(#paint2_linear)"/><path d="M79.849 0v40h8V24h8.075v16h8V24l-8-8H87.85V8h8.075v8h8V8l-8-8H79.85z" fill="url(#paint3_linear)"/><path d="M121.283 8v32h8V24h12v-8h-12V8h16V0h-16l-8 8z" fill="url(#paint4_linear)"/><path d="M198.565 8h8v32h8V8h8V0h-24v8z" fill="url(#paint5_linear)"/><path d="M166.565 32v-8h12v-8h-12V8h16V0h-16l-8 8v24l8 8h16v-8h-16z" fill="url(#paint6_linear)"/><path d="M245.283 8h16V0h-16l-8 8v24l8 8h16v-8h-16V8z" fill="url(#paint7_linear)"/><defs><linearGradient id="paint0_linear" x1="12.066" x2="21.242" y2="31.493" gradientUnits="userSpaceOnUse"><stop stop-color="#F7FCFF" stop-opacity=".3"/><stop offset="1" stop-color="#F7FCFF" stop-opacity=".1"/></linearGradient><linearGradient id="paint1_linear" x1="50.481" x2="59.658" y2="31.493" gradientUnits="userSpaceOnUse"><stop stop-color="#F7FCFF" stop-opacity=".3"/><stop offset="1" stop-color="#F7FCFF" stop-opacity=".1"/></linearGradient><linearGradient id="paint2_linear" x1="287.613" x2="296.789" y2="31.493" gradientUnits="userSpaceOnUse"><stop stop-color="#F7FCFF" stop-opacity=".3"/><stop offset="1" stop-color="#F7FCFF" stop-opacity=".1"/></linearGradient><linearGradient id="paint3_linear" x1="91.953" x2="101.105" y2="31.508" gradientUnits="userSpaceOnUse"><stop stop-color="#F7FCFF" stop-opacity=".3"/><stop offset="1" stop-color="#F7FCFF" stop-opacity=".1"/></linearGradient><linearGradient id="paint4_linear" x1="133.349" x2="142.526" y2="31.493" gradientUnits="userSpaceOnUse"><stop stop-color="#F7FCFF" stop-opacity=".3"/><stop offset="1" stop-color="#F7FCFF" stop-opacity=".1"/></linearGradient><linearGradient id="paint5_linear" x1="210.632" x2="219.808" y2="31.493" gradientUnits="userSpaceOnUse"><stop stop-color="#F7FCFF" stop-opacity=".3"/><stop offset="1" stop-color="#F7FCFF" stop-opacity=".1"/></linearGradient><linearGradient id="paint6_linear" x1="170.632" x2="179.808" y2="31.493" gradientUnits="userSpaceOnUse"><stop stop-color="#F7FCFF" stop-opacity=".3"/><stop offset="1" stop-color="#F7FCFF" stop-opacity=".1"/></linearGradient><linearGradient id="paint7_linear" x1="249.35" x2="258.526" y2="31.493" gradientUnits="userSpaceOnUse"><stop stop-color="#F7FCFF" stop-opacity=".3"/><stop offset="1" stop-color="#F7FCFF" stop-opacity=".1"/></linearGradient></defs></svg>