<svg width="123" height="40" fill="none" xmlns="http://www.w3.org/2000/svg"><path fill-rule="evenodd" clip-rule="evenodd" d="M122.51 6.025a6.025 6.025 0 1 1-12.05 0 6.025 6.025 0 0 1 12.05 0zm0 8.368a6.027 6.027 0 0 1-6.025 6.025c-3.326 0-6.025-2.715-6.025-6.025h12.05z" fill="url(#paint0_linear)"/><path fill-rule="evenodd" clip-rule="evenodd" d="M95.732 13.891c2.21 0 4.05.87 5.356 2.276v-1.774h3.347V31.13h-3.347v-1.774c-1.306 1.405-3.147 2.276-5.356 2.276-4.753 0-8.703-3.95-8.703-8.87 0-4.921 3.95-8.87 8.703-8.87zm-5.355 8.854c0 3.07 2.443 5.506 5.355 5.506 2.912 0 5.356-2.436 5.356-5.506 0-3.07-2.444-5.54-5.356-5.54s-5.355 2.47-5.355 5.54z" fill="url(#paint1_linear)"/><path d="M80.334 10.879l-3.347 1.205v3.983h-6.694v-5.188l-3.348 1.205v12.15c0 4.117 3.247 7.398 7.364 7.398v-3.348c-2.041 0-3.682-1.573-3.95-3.347a12.76 12.76 0 0 1-.066-1.372v-4.486h6.694v5.155c0 4.117 3.247 7.398 7.364 7.398v-3.348c-2.042 0-3.715-1.573-3.95-3.347a12.728 12.728 0 0 1-.067-1.372v-4.486h5.021v-3.012h-5.02v-5.188z" fill="url(#paint2_linear)"/><path fill-rule="evenodd" clip-rule="evenodd" d="M46.862 22.761c0-4.92 3.95-8.87 8.703-8.87 4.753 0 8.703 3.95 8.703 8.87 0 .402-.033.804-.067 1.172H50.344c.502 2.51 2.677 4.351 5.221 4.351 2.276 0 3.883-.903 4.854-2.31l3.08 1.407c-1.54 2.577-4.319 4.25-7.934 4.25-4.753 0-8.703-3.95-8.703-8.87zm13.858-1.506c-.636-2.343-2.745-4.05-5.155-4.05s-4.519 1.707-5.155 4.05h10.31z" fill="url(#paint3_linear)"/><path d="M36.82 13.891c-2.21 0-4.017.77-5.355 2.176v-1.674h-3.348V31.13h3.348V22.76c0-.736.1-1.606.267-2.142.636-2.008 2.343-3.414 4.586-3.414 2.98 0 4.854 2.21 4.854 5.556v8.369h3.347V22.76c0-5.322-3.013-8.87-7.699-8.87z" fill="url(#paint4_linear)"/><path fill-rule="evenodd" clip-rule="evenodd" d="M24.937 10.544a2.176 2.176 0 1 1-4.351 0 2.176 2.176 0 0 1 4.351 0zm-.502 20.586V14.393h-3.347V31.13h3.347z" fill="url(#paint5_linear)"/><path fill-rule="evenodd" clip-rule="evenodd" d="M8.703 13.891c2.21 0 4.05.87 5.356 2.276v-1.774h3.347V31.13c0 4.92-3.95 8.87-8.703 8.87-3.749 0-6.996-2.477-8.2-5.891l3.146-1.138c.702 2.142 2.744 3.682 5.054 3.682 2.61 0 4.753-1.942 5.222-4.352.1-.535.134-1.707.134-2.176v-.77c-1.306 1.406-3.147 2.277-5.356 2.277-4.753 0-8.703-3.95-8.703-8.87 0-4.921 3.95-8.87 8.703-8.87zm-5.356 8.887c0 3.07 2.444 5.506 5.356 5.506s5.356-2.436 5.356-5.506c0-3.07-2.444-5.54-5.356-5.54s-5.356 2.47-5.356 5.54z" fill="url(#paint6_linear)"/><defs><linearGradient id="paint0_linear" x1="116.518" x2="121.268" y2="16.034" gradientUnits="userSpaceOnUse"><stop stop-color="#F7FCFF" stop-opacity=".3"/><stop offset="1" stop-color="#F7FCFF" stop-opacity=".1"/></linearGradient><linearGradient id="paint1_linear" x1="95.78" y1="13.891" x2="98.397" y2="28.578" gradientUnits="userSpaceOnUse"><stop stop-color="#F7FCFF" stop-opacity=".3"/><stop offset="1" stop-color="#F7FCFF" stop-opacity=".1"/></linearGradient><linearGradient id="paint2_linear" x1="76.201" y1="10.879" x2="79.564" y2="27.943" gradientUnits="userSpaceOnUse"><stop stop-color="#F7FCFF" stop-opacity=".3"/><stop offset="1" stop-color="#F7FCFF" stop-opacity=".1"/></linearGradient><linearGradient id="paint3_linear" x1="55.613" y1="13.891" x2="58.23" y2="28.578" gradientUnits="userSpaceOnUse"><stop stop-color="#F7FCFF" stop-opacity=".3"/><stop offset="1" stop-color="#F7FCFF" stop-opacity=".1"/></linearGradient><linearGradient id="paint4_linear" x1="36.363" y1="13.891" x2="38.98" y2="28.135" gradientUnits="userSpaceOnUse"><stop stop-color="#F7FCFF" stop-opacity=".3"/><stop offset="1" stop-color="#F7FCFF" stop-opacity=".1"/></linearGradient><linearGradient id="paint5_linear" x1="22.774" y1="8.368" x2="32.456" y2="18.956" gradientUnits="userSpaceOnUse"><stop stop-color="#F7FCFF" stop-opacity=".3"/><stop offset="1" stop-color="#F7FCFF" stop-opacity=".1"/></linearGradient><linearGradient id="paint6_linear" x1="8.751" y1="13.891" x2="14.223" y2="34.757" gradientUnits="userSpaceOnUse"><stop stop-color="#F7FCFF" stop-opacity=".3"/><stop offset="1" stop-color="#F7FCFF" stop-opacity=".1"/></linearGradient></defs></svg>