<svg width="352" height="40" fill="none" xmlns="http://www.w3.org/2000/svg"><path d="M26.004.326v16.152H10.939V.326H0v39.5h10.939V24.704h15.065v15.12h10.939V.325h-10.94z" fill="url(#paint0_linear)"/><path d="M82.963 2.99c0 1.693-1.242 2.992-2.88 2.992-1.636 0-2.878-1.3-2.878-2.991C77.205 1.24 78.447 0 80.083 0c1.638 0 2.88 1.24 2.88 2.99zm-.678 7.18v29.66h-4.346V10.17h4.346z" fill="url(#paint1_linear)"/><path d="M118.646 21.541V39.83h-4.404V22.67c0-5.308-3.162-8.468-8.41-8.468-5.871.058-9.483 3.952-9.99 9.711V39.83h-4.404V10.168h4.403v6.519c2.089-4.516 6.096-6.662 11.516-6.718 7.111 0 11.289 4.347 11.289 11.572z" fill="url(#paint2_linear)"/><path d="M142.177 37.798c-2.088 1.41-4.346 2.201-6.716 2.201-4.347.056-7.564-2.54-7.564-8.41V14.485h-4.29V11.04h4.29V3.252h4.346v7.788h9.427v3.446h-9.427v16.368c0 3.612 1.412 5.081 3.952 5.081 1.524-.058 3.105-.566 4.742-1.525l1.24 3.388z" fill="url(#paint3_linear)"/><path d="M172.908 26.623h-24.271c.733 5.87 4.967 9.706 10.779 9.706 3.671 0 6.888-1.354 9.202-3.78l2.428 2.54c-2.822 3.105-7 4.911-11.967 4.911-8.75 0-14.789-6.152-14.789-15.017 0-8.861 6.095-14.957 14.733-15.013 9.595 0 14.337 6.604 13.885 16.653zm-3.95-3.502c-.282-5.758-4.122-9.483-9.935-9.483-5.7 0-9.764 3.725-10.386 9.483h20.321z" fill="url(#paint4_linear)"/><path d="M194.609 9.97v4.29c-6.266-.115-10.162 3.782-10.67 9.764v15.805h-4.402V10.167h4.402v6.575c1.976-4.347 5.645-6.716 10.67-6.772z" fill="url(#paint5_linear)"/><path d="M218.565 39.83v-4.628C216.195 38.42 212.413 40 207.671 40c-6.152 0-10.103-3.894-10.103-8.976 0-5.193 4.121-8.466 11.12-8.524h9.765v-1.862c0-4.346-2.709-7-7.958-7-3.275 0-6.322 1.243-9.427 3.443l-1.862-3.104c3.838-2.541 7.055-4.008 12.134-4.008 7.34 0 11.404 3.894 11.46 10.216l.058 19.644h-4.293zm-.056-10.216V26h-9.257c-4.967 0-7.563 1.525-7.563 4.854 0 3.274 2.654 5.474 6.83 5.474 5.023 0 8.861-2.481 9.99-6.716z" fill="url(#paint6_linear)"/><path d="M244.023 13.92c-6.152 0-10.553 4.516-10.553 11.063 0 6.606 4.401 11.123 10.553 11.123 3.897 0 7.114-1.355 9.202-3.841l2.539 2.598C253.113 38.08 248.991 40 243.855 40c-8.636 0-14.734-6.152-14.734-15.017 0-8.805 6.155-15.013 14.734-15.013 4.798 0 8.748 1.636 11.457 4.401l-2.425 3.05c-2.257-2.202-5.251-3.5-8.864-3.5z" fill="url(#paint7_linear)"/><path d="M278.612 37.798c-2.089 1.41-4.347 2.201-6.718 2.201-4.346.056-7.565-2.54-7.565-8.41V14.485h-4.288V11.04h4.288V3.252h4.348v7.788h9.427v3.446h-9.427v16.368c0 3.612 1.41 5.081 3.95 5.081 1.525-.058 3.105-.566 4.742-1.525l1.243 3.388z" fill="url(#paint8_linear)"/><path d="M289.035 2.99c0 1.693-1.241 2.992-2.879 2.992-1.637 0-2.877-1.3-2.877-2.991 0-1.75 1.241-2.991 2.877-2.991 1.638 0 2.879 1.24 2.879 2.99zm-.678 7.18v29.66h-4.346V10.17h4.346z" fill="url(#paint9_linear)"/><path d="M297.902 10.17l9.471 25.2 9.413-25.2h4.46l-11.673 29.66h-4.572l-11.784-29.66h4.685z" fill="url(#paint10_linear)"/><path d="M351.01 26.623h-24.271c.733 5.87 4.968 9.706 10.782 9.706 3.669 0 6.885-1.354 9.199-3.78l2.428 2.54c-2.824 3.105-7 4.911-11.967 4.911-8.75 0-14.79-6.152-14.79-15.017 0-8.861 6.098-14.957 14.734-15.013 9.595 0 14.337 6.604 13.885 16.653zm-3.95-3.502c-.283-5.758-4.12-9.483-9.934-9.483-5.703 0-9.767 3.725-10.387 9.483h20.321z" fill="url(#paint11_linear)"/><path d="M43.76 16.491v23.334h10.942V10.183L43.76 16.49z" fill="url(#paint12_linear)"/><path d="M54.49 7.215l-9.138 5.276a1.055 1.055 0 0 1-1.583-.914V1.025a.986.986 0 0 1 1.478-.854l9.243 5.337a.986.986 0 0 1 0 1.707z" fill="url(#paint13_linear)"/><defs><linearGradient id="paint0_linear" x1="18.573" y1=".326" x2="24.667" y2="32.926" gradientUnits="userSpaceOnUse"><stop stop-color="#F7FCFF" stop-opacity=".3"/><stop offset="1" stop-color="#F7FCFF" stop-opacity=".1"/></linearGradient><linearGradient id="paint1_linear" x1="80.1" x2="96.808" y2="13.815" gradientUnits="userSpaceOnUse"><stop stop-color="#F7FCFF" stop-opacity=".3"/><stop offset="1" stop-color="#F7FCFF" stop-opacity=".1"/></linearGradient><linearGradient id="paint2_linear" x1="105.117" y1="9.969" x2="109.837" y2="34.569" gradientUnits="userSpaceOnUse"><stop stop-color="#F7FCFF" stop-opacity=".3"/><stop offset="1" stop-color="#F7FCFF" stop-opacity=".1"/></linearGradient><linearGradient id="paint3_linear" x1="132.944" y1="3.252" x2="142.642" y2="31.285" gradientUnits="userSpaceOnUse"><stop stop-color="#F7FCFF" stop-opacity=".3"/><stop offset="1" stop-color="#F7FCFF" stop-opacity=".1"/></linearGradient><linearGradient id="paint4_linear" x1="158.693" y1="9.97" x2="163.241" y2="34.787" gradientUnits="userSpaceOnUse"><stop stop-color="#F7FCFF" stop-opacity=".3"/><stop offset="1" stop-color="#F7FCFF" stop-opacity=".1"/></linearGradient><linearGradient id="paint5_linear" x1="187.115" y1="9.97" x2="195.002" y2="32.742" gradientUnits="userSpaceOnUse"><stop stop-color="#F7FCFF" stop-opacity=".3"/><stop offset="1" stop-color="#F7FCFF" stop-opacity=".1"/></linearGradient><linearGradient id="paint6_linear" x1="210.283" y1="9.969" x2="215.388" y2="34.561" gradientUnits="userSpaceOnUse"><stop stop-color="#F7FCFF" stop-opacity=".3"/><stop offset="1" stop-color="#F7FCFF" stop-opacity=".1"/></linearGradient><linearGradient id="paint7_linear" x1="242.516" y1="9.97" x2="247.382" y2="34.662" gradientUnits="userSpaceOnUse"><stop stop-color="#F7FCFF" stop-opacity=".3"/><stop offset="1" stop-color="#F7FCFF" stop-opacity=".1"/></linearGradient><linearGradient id="paint8_linear" x1="269.378" y1="3.252" x2="279.076" y2="31.286" gradientUnits="userSpaceOnUse"><stop stop-color="#F7FCFF" stop-opacity=".3"/><stop offset="1" stop-color="#F7FCFF" stop-opacity=".1"/></linearGradient><linearGradient id="paint9_linear" x1="286.173" x2="302.88" y2="13.81" gradientUnits="userSpaceOnUse"><stop stop-color="#F7FCFF" stop-opacity=".3"/><stop offset="1" stop-color="#F7FCFF" stop-opacity=".1"/></linearGradient><linearGradient id="paint10_linear" x1="307.309" y1="10.169" x2="311.841" y2="34.666" gradientUnits="userSpaceOnUse"><stop stop-color="#F7FCFF" stop-opacity=".3"/><stop offset="1" stop-color="#F7FCFF" stop-opacity=".1"/></linearGradient><linearGradient id="paint11_linear" x1="336.794" y1="9.97" x2="341.342" y2="34.787" gradientUnits="userSpaceOnUse"><stop stop-color="#F7FCFF" stop-opacity=".3"/><stop offset="1" stop-color="#F7FCFF" stop-opacity=".1"/></linearGradient><linearGradient id="paint12_linear" x1="49.261" y1="10.183" x2="59.056" y2="30.864" gradientUnits="userSpaceOnUse"><stop stop-color="#F7FCFF" stop-opacity=".3"/><stop offset="1" stop-color="#F7FCFF" stop-opacity=".1"/></linearGradient><linearGradient id="paint13_linear" x1="49.407" y1=".038" x2="51.441" y2="10.398" gradientUnits="userSpaceOnUse"><stop stop-color="#F7FCFF" stop-opacity=".3"/><stop offset="1" stop-color="#F7FCFF" stop-opacity=".1"/></linearGradient></defs></svg>