<svg width="182" height="40" fill="none" xmlns="http://www.w3.org/2000/svg"><mask id="a" maskUnits="userSpaceOnUse" x="0" y="0" width="182" height="40"><path d="M66.928 6.36c-3.584 0-6.355 2.688-6.355 6.057v.033c0 3.368 2.737 6.023 6.322 6.023 3.584 0 6.354-2.688 6.354-6.056v-.034c0-3.368-2.737-6.023-6.321-6.023zm2.406 6.09c0 1.36-.93 2.588-2.406 2.588-1.494 0-2.44-1.244-2.44-2.621v-.034c0-1.36.93-2.588 2.407-2.588 1.493 0 2.439 1.244 2.439 2.622v.033zm26.22-5.84H85.422a.294.294 0 0 0-.294.293V9.6c0 .163.131.295.294.295h3.124v8.035c0 .162.131.294.294.294h3.294a.295.295 0 0 0 .294-.294V9.895h3.124a.294.294 0 0 0 .294-.295V6.903a.294.294 0 0 0-.294-.294zm-16 4.114c-1.228-.232-1.543-.431-1.543-.746v-.033c0-.283.266-.482.846-.482 1.005 0 2.212.303 3.258.988.13.085.304.05.395-.076l1.555-2.155a.296.296 0 0 0-.07-.414c-1.302-.942-2.896-1.413-5.005-1.413-3.202 0-4.928 1.71-4.928 3.916v.034c0 2.455 2.29 3.202 4.895 3.733 1.244.249 1.61.431 1.61.763v.033c0 .316-.3.498-.996.498a6.664 6.664 0 0 1-3.852-1.205.292.292 0 0 0-.39.055l-1.707 2.035a.296.296 0 0 0 .043.422c1.463 1.166 3.488 1.763 5.723 1.763 3.12 0 5.127-1.494 5.127-3.933v-.033c0-2.34-1.99-3.202-4.961-3.75zm94.822-4.115h-4.152a.294.294 0 0 0-.294.294V17.93c0 .162.131.294.294.294h4.02c4.695 0 7.051-2.44 7.051-5.874v-.033c0-3.434-2.306-5.708-6.919-5.708zm3.004 5.824c0 1.676-1.145 2.406-2.921 2.406h-.647V9.994h.647c1.776 0 2.921.73 2.921 2.406v.033zM59.217 6.609h-3.294a.294.294 0 0 0-.294.294v3.805h-3.551V6.903a.294.294 0 0 0-.294-.294H48.49a.294.294 0 0 0-.295.294V17.93c0 .162.132.294.295.294h3.294a.294.294 0 0 0 .294-.294v-3.87h3.55v3.87c0 .162.133.294.295.294h3.294a.295.295 0 0 0 .295-.294V6.903a.294.294 0 0 0-.295-.294zm74.702 0h-3.374a.294.294 0 0 0-.282.211l-1.316 4.467a.294.294 0 0 1-.561.01l-1.511-4.52a.295.295 0 0 0-.279-.201h-2.928a.294.294 0 0 0-.279.201l-1.511 4.52a.294.294 0 0 1-.561-.01l-1.316-4.467a.295.295 0 0 0-.283-.21h-3.44c-.2 0-.341.194-.279.384l3.608 11.11a.293.293 0 0 0 .28.203h2.963a.295.295 0 0 0 .277-.196l1.694-4.793a.294.294 0 0 1 .555 0l1.694 4.793a.295.295 0 0 0 .277.196h2.963a.293.293 0 0 0 .28-.203l3.609-11.11a.294.294 0 0 0-.28-.385zm34.787 8.297h-5.164V6.903a.294.294 0 0 0-.294-.294h-3.294a.294.294 0 0 0-.295.294V17.93c0 .162.132.294.295.294h8.752a.295.295 0 0 0 .295-.294V15.2a.294.294 0 0 0-.295-.294zm-61.954.132h-5.878v-.293-.968h5.381a.294.294 0 0 0 .294-.294v-2.216a.295.295 0 0 0-.294-.294h-5.381V9.795h5.796a.294.294 0 0 0 .294-.294V6.903a.294.294 0 0 0-.294-.294h-9.318a.294.294 0 0 0-.294.294V17.93c0 .162.132.294.294.294h9.4a.295.295 0 0 0 .295-.294v-2.597a.295.295 0 0 0-.295-.295zm33.412-8.678c-3.584 0-6.355 2.688-6.355 6.057v.033c0 3.368 2.738 6.023 6.322 6.023s6.355-2.688 6.355-6.056v-.034c0-3.368-2.738-6.023-6.322-6.023zm2.406 6.09c0 1.36-.929 2.588-2.406 2.588-1.493 0-2.439-1.244-2.439-2.621v-.034c0-1.36.929-2.588 2.406-2.588 1.493 0 2.439 1.244 2.439 2.622v.033zm13.709 2.098a.293.293 0 0 1 .099-.422c1.242-.697 2.004-1.827 2.004-3.402v-.033c0-1.195-.365-2.057-1.062-2.754-.813-.813-2.123-1.328-4.181-1.328h-5.381a.294.294 0 0 0-.294.294V17.93c0 .162.132.294.294.294h3.294a.295.295 0 0 0 .295-.294v-3.024h.829l2.104 3.186a.292.292 0 0 0 .245.132h3.714a.294.294 0 0 0 .242-.46l-2.202-3.216zm-1.763-3.542c0 .714-.564 1.128-1.493 1.128h-1.676V9.861h1.692c.896 0 1.477.366 1.477 1.112v.033zm-37.377 3.9h-5.165V6.903a.294.294 0 0 0-.294-.294h-3.294a.294.294 0 0 0-.294.294V17.93c0 .162.132.294.294.294h8.753a.295.295 0 0 0 .294-.294V15.2a.294.294 0 0 0-.294-.294z" fill="#F37349"/><path fill-rule="evenodd" clip-rule="evenodd" d="M34.435 40A5.565 5.565 0 0 0 40 34.435V5.565A5.565 5.565 0 0 0 34.435 0H5.565A5.565 5.565 0 0 0 0 5.565v28.87A5.565 5.565 0 0 0 5.564 40h28.871zM14.35 14.294c0 .067.027.129.07.173l5.1 5.194a.535.535 0 0 1 0 .679l-5.1 5.193a.244.244 0 0 0 .158.417h.886v7.152a.538.538 0 0 1-.538.538h-8.02a.537.537 0 0 1-.538-.538V6.898c0-.297.24-.538.537-.538h8.02c.298 0 .539.241.539.538v7.153h-.885a.244.244 0 0 0-.23.242zM25.095 6.36h8c.299 0 .539.241.539.538v26.204c0 .297-.24.538-.538.538h-8.001a.537.537 0 0 1-.537-.538V25.95h.892a.244.244 0 0 0 .23-.243.236.236 0 0 0-.052-.145l-5.124-5.22a.53.53 0 0 1 0-.684l5.124-5.22a.238.238 0 0 0 .053-.145.244.244 0 0 0-.23-.242h-.893V6.898c0-.297.24-.538.537-.538z" fill="#F37349"/><path d="M64.418 29.06a.498.498 0 0 0 .137-.152c.048-.08.081-.166.147-.232.136-.137.351-.2.464-.36.106-.15.05-.35 0-.508-.075-.238.039-.463-.048-.684-.02-.052-.007-.124-.04-.16a.732.732 0 0 1-.177-.554c.01-.152.097-.3.157-.446.029-.07.093-.126.104-.202.006-.04-.005-.076.003-.118.019-.088.035-.198.141-.204.088-.004.21-.168.24-.28.064-.231.328-.25.405-.236.26.049.447-.076.633-.18.29-.163.612-.206.917-.309.176-.059.358-.095.535-.152.271-.087.54-.251.81-.253.256-.003.5-.125.785-.03.156.05.38.001.574.072.154.056.104.193.164.277.11.156-.006.157-.094.231-.062.052-.121.105-.18.16-.122.114-.24.234-.358.352-.049.05-.091.106-.151.141-.072.041-.144.08-.218.117-.292.147-.599.264-.904.382l-.69.265c-.084.032-.207.056-.25.145-.035.074.005.152.065.199.113.088.107.119-.01.203-.086.063-.162.131-.107.273.022.057-.058.153-.09.232-.067.167-.15.33-.196.503-.123.463-.232.929-.343 1.394-.028.114.008.2.14.196.364-.013.728-.032 1.091-.05.445-.02.827-.25 1.241-.366.323-.09.635-.213.96-.298.168-.044.312.08.264.254-.042.15-.125.295-.221.418a5.93 5.93 0 0 1-.486.526 2.153 2.153 0 0 1-.322.265 15.3 15.3 0 0 1-.364.234c-.112.07-.248.135-.344.227-.09.086-.218.131-.33.185a19.387 19.387 0 0 1-.743.337c-.108.046-.237.08-.336.144-.047.031-.095.007-.144.01-.061.002-.128.037-.188.051-.033.008-.068.008-.1.02-.1.04-.099.154-.088.244.056.485.361.693.692.915.122.082.29.042.432.067.312.054.612.031.92-.02.412-.07.832-.09 1.244-.159.484-.081.959-.127 1.424.081.063.029.137.033.204.056.159.054.195.192.094.319-.11.135-.205.281-.32.411-.079.09-.204.144-.267.24-.214.326-.613.36-.89.585a.406.406 0 0 1-.242.093c-.361-.008-.64.235-.974.303-.25.05-.506.083-.76.12-.448.066-.913.074-1.337.21-.337.108-.635.052-.949.006-.15-.022-.28-.051-.365-.237-.066-.144-.26-.235-.407-.335-.311-.213-.55-.498-.639-.853-.094-.376-.106-.774-.145-1.163-.016-.152-.054-.3-.063-.453a.854.854 0 0 1 .016-.235c.014-.06.048-.12.028-.183-.02-.062-.082-.108-.116-.162-.071-.11-.141-.22-.209-.333-.06-.101-.188-.053-.21-.026-.29.377-.653.679-1.027.962-.318.24-.651.468-1.003.655-.364.194-.75.352-1.14.487-.196.067-.422.04-.631.071-.113.018-.25.026-.343.101-.134.109-.013.337.047.458.13.264.304.517.613.561.256.037.509.12.787.044.277-.076.577-.062.863-.11.252-.04.496-.125.747-.164.307-.047.619-.082.93-.09a1.63 1.63 0 0 1 .526.096c.102.032.267.148.228.28-.013.046-.076.104-.112.134-.187.154-.409.272-.574.445-.31.326-.737.377-1.122.525-.414.16-.836.3-1.257.44-.345.116-.688.248-1.042.322-.65.135-1.312.163-1.92-.157-.328-.172-.59-.436-.652-.841-.03-.188-.122-.37-.128-.555-.009-.348-.047-.697-.058-1.044-.008-.272-.032-.557-.04-.836-.008-.212.047-.43.021-.638-.018-.152.02-.303.026-.455a.728.728 0 0 0-.025-.232c-.023-.083-.005-.146.019-.23.018-.06.033-.131.01-.192-.024-.063-.057-.105-.054-.176.004-.122.08-.226.1-.345.06-.375.255-.711.34-1.094.058-.263.096-.531.145-.797.025-.137.053-.273.087-.407.025-.095.06-.191.048-.29-.01-.089-.078-.166-.101-.254-.04-.15-.038-.309-.054-.462a.396.396 0 0 1 .057-.239c.04-.068.114-.112.128-.191.018-.096-.043-.223.131-.236.03-.003.05-.073.083-.101.052-.045.116-.076.168-.12.081-.066.15-.153.237-.207.098-.06.21-.094.319-.136.109-.042.216-.097.33-.117.17-.03.346-.036.52-.054.1-.01.2-.026.3-.04.392-.057.779.024 1.167.037.292.01.52.154.782.198.196.034.342.148.356.309a.68.68 0 0 1-.16.46c-.122.139-.305.239-.48.315-.2.088-.379.208-.644.181a1.723 1.723 0 0 0-.53.043c-.142.03-.294.051-.43.11-.1.044-.15.178-.22.259-.22.253-.301.576-.363.883-.133.658-.273 1.327-.279 1.994-.003.347.168.733.658.875.251.073.5.149.743.127.248-.023.496-.138.725-.251.216-.105.407-.261.61-.393.297-.192.587-.383.833-.65.165-.18.36-.328.561-.466.157-.108.328-.196.486-.303.015-.01.03-.02.042-.03zM96.4 31.097c-.033.216-.077.431-.096.649-.08.928-.177 1.85-.28 2.777-.021.181-.029.5-.165.642-.108.112-.332.127-.468.22-.173.118-.538.118-.732-.075-.212-.212-.45-.43-.497-.754-.023-.162-.003-.33-.013-.495-.013-.204-.054-.408-.052-.611 0-.282.025-.564.05-.845.02-.23.033-.463.072-.69.012-.076.02-.127-.066-.154-.1-.032-.205.004-.3.037-.206.07-.408.149-.614.217l-.501.166c-.164.055-.34.097-.5.166a1.732 1.732 0 0 1-.182.069c-.03.01-.179.052-.179.094-.112.12-.167.298-.236.456-.163.371-.305.752-.484 1.115-.102.207-.664.354-.884.272-.233-.086-.205-.313-.24-.483-.085-.428-.147-.863-.056-1.302.007-.038 0-.079 0-.127-.272-.067-.51-.17-.678-.402a.441.441 0 0 1-.02-.5.692.692 0 0 0 .117-.342.604.604 0 0 1 .186-.364c.049-.051.101-.1.15-.15.063-.064.128-.145.116-.235-.007-.055-.003-.113.048-.145.089-.057.213-.011.31-.046.028-.01.061-.01.094-.014.09-.522.18-1.039.265-1.557.034-.208.098-.425.065-.624a3.485 3.485 0 0 1-.048-.478c-.003-.108.071-.216.094-.328.016-.08-.001-.168.006-.252a.24.24 0 0 1 .046-.126c.098-.117.207-.226.302-.346.042-.054-.004-.12-.053-.137a.574.574 0 0 0-.201-.033c-.07.001-.12.028-.184.048-.147.044-.29.096-.439.137-.113.03-.23.055-.347.062-.093.006-.186-.01-.259.061a.755.755 0 0 0-.1.125c-.04.061-.117.17-.099.25.01.041.005.103-.02.133-.197.235-.207.542-.32.795-.088.194-.03.41-.187.606-.137.17-.11.479-.137.728-.05.477-.085.955-.129 1.432-.018.201-.107.388-.118.593-.005.101-.043.186-.05.287-.017.203.071.405.024.607-.01.049-.046.093-.054.141-.058.377-.128.753-.165 1.131-.037.373-.455.822-.834.856-.203.018-.42-.182-.469-.42-.059-.29-.135-.578-.187-.87-.033-.188-.03-.383-.057-.572-.02-.138-.09-.273-.088-.409a16.67 16.67 0 0 1 .162-1.975c.035-.263.084-.523.12-.785.012-.097-.003-.198.008-.295.026-.208.023-.43.1-.619.087-.209.07-.425.125-.63.03-.11.165-.19.208-.302.048-.126.103-.3.052-.4-.069-.137-.199-.035-.309.035a.611.611 0 0 1-.319.093c-.557-.008-1.078.198-1.62.268-.378.049-.76.163-1.13.134-.459-.035-.888.08-1.33.12-.368.034-.73.032-1.074-.103-.139-.054-.215-.184-.147-.358.116-.298.194-.614.337-.896.165-.325.37-.633.588-.926.063-.084.228-.124.349-.129.379-.015.76.007 1.138-.006.145-.005.287-.079.433-.098.205-.028.413-.04.62-.049.12-.005.245.031.363.014.285-.042.566-.122.853-.153.306-.032.62-.006.925-.042.35-.042.694-.13 1.043-.185.21-.032.423-.037.635-.055.18-.014.36-.027.539-.042.238-.02.477-.037.715-.06.188-.02.376-.049.564-.07.27-.033.538-.061.807-.094.198-.024.395-.056.594-.078.217-.024.436-.034.653-.062.392-.052.78-.102 1.12-.345.086-.061.272-.026.395.016.37.125.486.549.218.831-.32.34-.647.682-1.154.747-.094.012-.217.068-.259.143-.055.1-.07.236.116.284.182.047.206.17.121.338-.079.16-.114.342-.197.5-.242.46-.19.984-.32 1.47-.087.317-.063.664-.105.995a6.5 6.5 0 0 1-.137.7c-.041.172-.117.336-.156.508-.041.184.1.302.323.285.283-.02.571-.019.849-.071.208-.04.403-.15.603-.23.06-.025.115-.064.176-.09a.836.836 0 0 0 .518-.566c.11-.38.277-.75.33-1.135.023-.176.082-.344.114-.519a.96.96 0 0 0 .017-.273.501.501 0 0 1 .02-.262c.022-.061.01-.134.002-.196-.017-.145-.017-.28.131-.355.045-.022.093-.11.084-.157-.063-.337.189-.476.367-.684a.744.744 0 0 1 .315-.22c.095-.03.193-.082.291-.101.102-.02.234.008.334.026a.21.21 0 0 1 .102.038c.024.02.033.048.059.067.037.028.137.09.186.059.226-.146.275.093.34.138.018.012.029.1.035.123l.038.137a.646.646 0 0 1 .023.267c-.006.043-.03.088-.043.13-.031.107-.063.213-.131.303-.135.176-.127.46-.184.697-.064.269-.109.54-.204.806-.083.23-.085.49-.132.735-.08.412-.164.822-.252 1.232-.027.125-.072.245-.108.367a.37.37 0 0 1-.004.024zM104.04 33.286c-.06-.154-.245-.332-.442-.352-.049-.005-.1-.015-.155-.026a1.283 1.283 0 0 0-.466-.023c-.253.047-.511.06-.785.074-.139.008-.278.015-.416.026-.136.012-.272.028-.409.043-.168.018-.342.038-.512.049-.126.008-.252 0-.387-.008l-.126-.007c-.14-.007-.28-.016-.42-.025l-.2-.013c-.221-.014-.38-.066-.476-.154a1.143 1.143 0 0 1-.285-.453 2.3 2.3 0 0 1-.092-.652c-.004-.13.006-.264.017-.388l.02-.214v-.03c.085-.005.171-.005.262-.006.153 0 .312 0 .471-.026.28-.046.556-.112.824-.175l.328-.077c.028-.006.081-.018.13-.047l.073-.045a.47.47 0 0 1 .137-.072l.044.001a.407.407 0 0 0 .087-.009c.058-.014.117-.032.191-.063.164-.065.308-.152.449-.236l.151-.09c.235-.134.454-.293.667-.446l.12-.087c.064-.045.144-.1.201-.189.073-.116.061-.249.055-.316-.006-.067-.014-.157-.049-.235a.29.29 0 0 0-.277-.173c-.047 0-.089.009-.121.015l-.016.003c-.119.02-.235.049-.348.076-.088.02-.175.042-.264.06l-.096.018c-.313.063-.636.128-.955.178a6.752 6.752 0 0 1-.834.094c-.134.004-.271-.014-.417-.032-.086-.01-.172-.022-.258-.029a.695.695 0 0 1-.078-.009.653.653 0 0 1 .029-.067c.037-.076.045-.153.052-.215a.525.525 0 0 1 .01-.071c.086-.099.093-.203.098-.266a.296.296 0 0 1 .006-.049c.025-.098.055-.195.088-.298l.04-.127c.004-.015.008-.031.014-.047l.07-.174.134-.348c.016-.041.03-.085.042-.128a.722.722 0 0 1 .046-.132c.03-.06.055-.119.079-.177.038-.09.074-.176.124-.24a.238.238 0 0 1 .11-.079 1.399 1.399 0 0 0 .414-.202c.027-.02.053-.038.082-.055.037-.02.073-.041.11-.06l.059-.033c.124-.068.254-.146.367-.252.099-.093.245-.159.399-.228l.1-.045c.103-.048.21-.09.323-.133a6.125 6.125 0 0 0 .58-.254c.029-.013.057-.03.087-.045a.85.85 0 0 1 .126-.061.597.597 0 0 0 .343-.309.443.443 0 0 0-.012-.417.505.505 0 0 0-.254-.197l-.047-.021c-.187-.1-.412-.206-.675-.195-.076.004-.148.02-.211.034-.063.015-.118.029-.164.024-.252-.026-.455.071-.63.155-.046.022-.092.045-.138.064-.238.098-.445.247-.645.392l-.175.125-.09.06c-.138.091-.294.195-.4.345-.104.148-.183.178-.27.178a.553.553 0 0 1-.143-.023.706.706 0 0 0-.188-.024c-.084 0-.24.014-.348.11-.145.127-.243.297-.33.447l-.022.038c-.124.213-.24.432-.342.653a4.135 4.135 0 0 0-.14.353l-.06.165-.09.232c-.066.165-.133.335-.194.506a.61.61 0 0 0-.03.175.39.39 0 0 1-.007.064c-.015.04-.037.082-.06.126a2.007 2.007 0 0 0-.069.14.74.74 0 0 0-.057.21l-.003.033v.009a.5.5 0 0 0-.032.023.418.418 0 0 1-.05.034c-.074.045-.259.156-.234.388l-.006.013c-.01.026-.022.051-.034.077a1.868 1.868 0 0 0-.059.139l-.024.075c-.009.028-.016.054-.026.074a.788.788 0 0 0-.056.245l-.004.033c-.01.079-.017.16-.02.24-.003.088 0 .173.003.255.002.062.004.124.003.186 0 .085-.023.18-.047.28-.017.07-.034.143-.046.22-.02.14-.048.287-.077.443-.15.813-.337 1.824.257 2.535.368.44.748.664 1.17.682l.082.002a.639.639 0 0 0 .177-.021.36.36 0 0 0 .105.06.855.855 0 0 0 .297.048 1.8 1.8 0 0 0 .128-.005c.14-.01.283.007.437.025.076.009.152.018.228.024a1.927 1.927 0 0 0 .234.003c.201-.014.401-.032.602-.05l.033-.002c.066-.006.134-.01.201-.015.169-.011.343-.022.516-.056.243-.047.482-.115.712-.18l.152-.043c.221-.062.444-.131.658-.198l.069-.021c.068-.021.136-.046.204-.071l.072-.027c.345-.124.592-.277.775-.481.109-.121.186-.358.119-.53zM136.982 33.784c-.079-.023-.208.007-.268.023-.111.031-.213.083-.316.132a7.643 7.643 0 0 1-1.111.428c-.062.018-.125.033-.186.053-.043.013-.094.05-.138.052-.387.011-.774.03-1.161.022-.192-.004-.384-.053-.574-.093a1.23 1.23 0 0 1-.67-.385c-.256-.309-.58-.618-.502-1.11.053-.337.036-.685.055-1.027.005-.097.021-.195.041-.29.058-.274.174-.547.169-.82-.005-.316.094-.604.13-.906.061-.515.117-1.03.198-1.542.075-.472.203-.937.262-1.411.043-.338.126-.67.093-1.023-.031-.334.168-.615.345-.896a.692.692 0 0 1 .411-.284c.08-.024.162-.04.243-.062.086-.023.16-.045.247-.006.101.045.196.122.29.18.102.062.204.124.305.188.081.05.161.1.241.153.055.037.119.079.13.15.023.14-.074.273-.118.4-.048.143-.082.29-.109.438-.053.293-.078.59-.138.883-.089.443-.074.896-.191 1.334-.062.232-.05.483-.084.724-.035.247-.097.49-.125.739-.045.406-.084.814-.102 1.222-.013.292-.009.587.025.877.027.227.068.475.187.659.073.111.302.159.466.169.534.033 1.045-.119 1.555-.256.085-.024.156-.1.241-.123.225-.058.239-.238.261-.414.037-.307.042-.62.11-.92.065-.288.209-.557.289-.843.059-.21.064-.434.105-.65.051-.272.113-.542.172-.812.044-.206.094-.411.132-.619.049-.267.064-.543.142-.801.058-.194.128-.427.123-.582-.009-.224.097-.365.155-.539.098-.297.169-.616.33-.877.128-.209.296-.415.54-.547.174-.094.296-.288.517-.314.273-.031.548-.099.817-.078.193.014.385.047.574.084.168.033.342.058.499.122.295.121.602.21.894.343a6.056 6.056 0 0 1 .638.334c.024.015.193.101.193.125.278.19.568.363.848.55.119.08.227.175.335.267.149.128.309.246.436.394.243.282.452.594.7.871.331.37.469.837.687 1.264.121.235.227.48.288.738.063.261.066.511.026.774-.006.041-.023.067-.038.106l-.141.339c-.096.222-.197.44-.308.655-.067.13-.134.263-.211.388-.059.097-.134.2-.217.279-.049.046-.109.078-.154.125-.099.105-.192.217-.297.317a2.713 2.713 0 0 1-.705.487c-.257.12-.484.305-.732.447-.193.11-.4.196-.6.295-.218.109-.429.236-.654.326-.231.092-.476.145-.713.222-.259.085-.511.192-.773.265-.254.07-.517.11-.775.166-.313.069-.621.168-.937.201a2.227 2.227 0 0 1-.753-.048 1.443 1.443 0 0 0-.526-.047c-.253.037-.448-.076-.652-.175a.69.69 0 0 1-.364-.473 1.461 1.461 0 0 1-.028-.147c-.005-.038.003-.116-.016-.15-.011-.02-.032-.033-.058-.04zm3.652-7.723a.235.235 0 0 0-.063.075c-.028.057-.007.122-.026.181-.088.282-.229.55-.3.834-.129.51-.214 1.031-.333 1.544-.123.533-.301 1.055-.388 1.594-.087.533-.103 1.079-.124 1.62-.013.332.009.627.12.94.089.253.306.291.552.323.228.03.46.025.685-.023l.912-.192c.092-.019.188-.03.274-.065.527-.214 1.052-.43 1.531-.748.497-.331.935-.685 1.076-1.316.119-.527.108-1.042-.107-1.526-.2-.448-.466-.866-.71-1.294-.083-.145-.167-.3-.287-.411a17.726 17.726 0 0 0-1.066-.934 2.82 2.82 0 0 0-.669-.405c-.252-.105-.524-.145-.787-.211-.08-.02-.167-.056-.246-.015a.245.245 0 0 0-.044.029zM50.063 31.414c-.016.097-.006.284-.009.327-.008.156-.02.312-.02.468-.008.439-.07.924-.022 1.359.04.367.105.633-.217.91-.126.108-.202.274-.305.41-.109.146-.196.338-.342.415a.666.666 0 0 1-.51.02c-.186-.08-.328-.258-.443-.355.017-.345-.038-.67.064-.934.136-.355.012-.706.107-1.058.087-.325.026-.686.047-1.03.022-.358.072-.715.095-1.074.022-.33.02-.66.038-.991.013-.26.026-.52.062-.776.023-.165.056-.33.09-.494.03-.146.059-.328.028-.474-.037-.18-.02-.338.012-.519.023-.137.017-.276.024-.415.003-.062 0-.137.024-.196.099-.255.012-.535.068-.797.031-.14.051-.284.07-.427.017-.14.05-.29.048-.432-.002-.266.128-.544.199-.8.034-.125.054-.255.104-.373.05-.12.137-.226.19-.346.06-.128.055-.316.198-.39.096-.05.233-.046.339-.056.125-.012.276-.032.396.009.127.043.248.102.365.168.203.115.188.31.24.473.1.324.038.669.084 1 .04.293.1.582.137.874.034.27.04.544.073.814.026.204.116.39.098.596-.018.2.046.43.136.607.086.173.149.39.192.58.06.262.097.528.15.791.07.337.078.682.236 1.005.098.199.094.445.158.663.053.182.098.374.196.535.342-.171.486-.668.557-1.014.04-.197.13-.38.175-.577.022-.105.036-.197.072-.298.214-.587.404-1.184.595-1.779.022-.067.007-.147.025-.216.11-.429.229-.855.339-1.284.053-.206.092-.416.14-.623.053-.22.109-.44.165-.659.03-.117.087-.233.092-.35.021-.438.5-1.055.918-1.13.118-.022.252.027.376.055.192.042.39.073.57.146.157.065.185.228.168.388-.026.253-.074.504-.082.757-.013.439.01.88-.007 1.318-.018.453-.071.904-.099 1.356-.014.232.001.464-.01.695-.025.527-.064 1.053-.085 1.58-.011.277.064.574-.012.83-.09.304-.02.601-.075.897-.071.378.053.763-.058 1.15-.054.188.041.418.058.63.03.394.037.79.084 1.184.04.337.286.64.242.986-.016.124-.162.234-.265.294a3.37 3.37 0 0 1-.662.307c-.118.037-.24.065-.364.079-.175.02-.28-.038-.392-.167-.087-.1-.202-.243-.214-.381-.025-.283-.074-.564-.106-.847-.016-.14-.014-.284-.024-.425l-.086-1.068c-.022-.264-.06-.527-.061-.791-.002-.158.065-.315.076-.475.014-.183.054-.465-.05-.63-.016-.026-.044-.048-.075-.05-.119-.005-.197.333-.23.416-.07.173-.14.345-.235.504-.115.192-.314.332-.468.502-.114.125-.21.267-.325.391-.192.205-.393.398-.685.458-.586.121-1.017-.13-1.447-.505-.393-.343-.509-.785-.644-1.24-.036-.12-.071-.242-.123-.357-.02-.043-.079-.202-.138-.203-.015 0-.024.023-.03.059zM111.587 30.221c.081-.286.084-.608.105-.893.019-.265.044-.534.123-.79.081-.263.253-.451.42-.667.099-.128.229-.233.317-.366.084-.13.194-.115.304-.094.098.018.199.042.299.046.073.004.148-.027.217-.007.196.057.413.242.569.368.049.04.064.146.063.221-.008.427-.05.855-.031 1.28.012.273.125.54.166.813.065.43.084.87.168 1.297.057.288.191.56.29.84.015.044.018.093.041.132.059.101.139.19.24.055.109-.145.202-.303.288-.462.118-.216.237-.433.329-.66.085-.21.136-.436.202-.654.022-.075.043-.15.067-.223.074-.233.161-.462.219-.698.038-.155.029-.321.051-.48.037-.284.058-.573.13-.848.145-.56.131-1.131.18-1.699.046-.54.081-1.08.106-1.622.005-.099-.002-.194-.009-.291-.007-.106.024-.218.041-.323l.117-.717a1.67 1.67 0 0 1 .118-.446c.078-.162.205-.216.344-.318.162-.12.311-.058.492-.028.373.06.565.334.639.602.048.17.118.365.104.544-.005.058-.021.11-.016.17.008.088.033.175.043.263.013.108.045.213.032.315-.033.255-.071.51-.091.766-.015.178-.021.358-.027.537-.004.145-.041.313.003.455a.501.501 0 0 1 .024.22c-.017.15-.087.29-.095.44-.006.115-.053.227-.061.342-.018.253-.008.51-.037.761-.038.32-.098.64-.157.957-.041.22-.085.441-.149.655-.099.33-.233.65-.321.983-.083.31-.265.572-.394.856-.221.491-.468.99-.852 1.383-.202.208-.461.36-.691.54-.096.076-.175.176-.275.245-.297.206-.58.45-.907.585a1.362 1.362 0 0 1-.929.035.27.27 0 0 1-.136-.09c-.158-.24-.314-.481-.459-.73a1.43 1.43 0 0 1-.167-.379c-.113-.473-.211-.95-.314-1.424-.013-.06-.016-.151-.074-.188-.035-.022-.07-.012-.098.013a1.911 1.911 0 0 1-.164.127c-.38.273-.718.612-1.171.774-.236.084-.48.144-.711.24a1.454 1.454 0 0 1-.93.053c-.156-.041-.306-.1-.452-.168-.062-.027-.129-.076-.192-.096-.081-.024-.172-.007-.255-.036-.164-.055-.225-.187-.315-.32-.102-.153-.211-.3-.302-.46-.193-.34-.272-.725-.355-1.102a5.145 5.145 0 0 1-.093-.887c-.018-.426-.015-.854-.014-1.282 0-.18-.002-.366.036-.54.034-.152-.058-.345-.032-.399.11-.23-.143-.474.062-.693.053-.056-.027-.22 0-.322.041-.153.105-.306.191-.44.133-.207.298-.395.438-.598.033-.047.007-.133.036-.186.169-.317.699-.396 1.02-.235.388.193.389.511.373.846-.012.25-.082.497-.099.747-.048.707-.03 1.41.227 2.087.058.153.083.318.122.477.094.384.189.768.436 1.088.165.211.372.395.51.62.125.206.266.098.348.034.258-.197.501-.44.644-.735.033-.068.06-.141.081-.216zM131.462 33.255c.04.15.032.351-.142.387a24.66 24.66 0 0 1-.744.141c-.236.042-.421.084-.657.009a2.722 2.722 0 0 0-.446-.11c-.157-.024-.32-.114-.47-.165-.131-.045-.266-.08-.394-.129-.181-.07-.367-.133-.535-.227-.327-.183-.628-.409-.945-.607a.57.57 0 0 0-.254-.107c-.325-.024-.32.55-.378.758a2.09 2.09 0 0 1-.189.504c-.078.133-.226.224-.318.352-.153.213-.38.276-.613.33-.163.04-.33.083-.496.088-.392.013-.529-.167-.418-.543.058-.202.148-.394.208-.595.156-.519.32-1.037.447-1.564.077-.319.078-.656.136-.981.072-.407.177-.809.252-1.215.06-.334.097-.671.146-1.006.01-.07.028-.137.038-.207.056-.384.087-.774.172-1.152.113-.503.212-1.023.427-1.484.126-.271.277-.59.513-.78.077-.063.135-.152.209-.22.165-.152.352-.273.524-.415.167-.138.333-.282.537-.366.377-.154.731-.19 1.113-.189.188 0 .38-.027.562.004.131.023.245.129.371.188.331.155.682.276.991.466.252.155.483.368.672.597.227.275.43.577.449.963.018.349.048.69-.137 1.016-.07.123-.06.288-.105.428-.126.401-.392.719-.656 1.032a4.961 4.961 0 0 1-.553.536c-.199.172-.405.34-.626.483a6.31 6.31 0 0 1-.696.373c-.295.143-.597.271-.895.407-.23.105-.254.4-.063.573.317.289.607.61.938.881.234.193.421.453.695.59.258.13.507.278.744.441.201.138.444.185.556.43a.456.456 0 0 1 .03.085zm-4.188-3.982c.033.028.105.012.146.01.079-.004.159-.01.238-.023.144-.021.284-.062.416-.122.426-.195.882-.323 1.258-.623.281-.225.595-.473.619-.825.029-.415.141-.842-.148-1.272-.286-.426-.56-.77-1.095-.844-.27-.037-.472.1-.488.378a.42.42 0 0 1-.032.145c-.075.166-.169.325-.229.496-.055.16-.066.333-.115.494-.103.335-.234.662-.322 1-.07.265-.124.532-.177.8l-.043.213c-.007.034-.048.108-.045.138a.052.052 0 0 0 .017.035z" fill="#F37348"/><path d="M74.363 28.733l-.005-.004c-.017-.014.156-.39.173-.43l.177-.44.18-.448.092-.23c.021-.05.066-.119.05-.177-.02-.063-.138-.025-.194-.02-.14.01-.28.02-.418.04-.481.07-.968.116-1.437.233-.57.14-1.166.135-1.718.38-.16.071-.34.047-.504.005-.065-.018-.195-.035-.246-.08-.047-.043-.071-.137-.084-.196-.017-.078-.037-.155-.056-.233-.044-.172-.04-.335.082-.476.089-.104.105-.274.145-.417.035-.128.062-.247.213-.301.043-.016.075-.122.074-.185a.46.46 0 0 1 .227-.406c.067-.044.145-.062.215-.098a.822.822 0 0 1 .3-.087c.29-.03.58.03.871.02.3-.011.594-.066.893-.084.473-.027.943-.102 1.414-.157.224-.026.45-.024.675-.045.116-.01.231-.028.343-.058.067-.018.15-.03.191-.091.035-.05.016-.135.09-.154.106-.03.195.115.3.093.16-.034.342.057.516.083.244.036.465.149.739.076.237-.063.507-.007.763.004.252.01.504.049.755.041a.406.406 0 0 1 .334.137c.071.084.17.223.075.325-.044.049-.102.089-.152.131a4.93 4.93 0 0 0-.29.262c-.066.066-.098.128-.18.178-.094.058-.19.112-.288.162-.123.063-.23.15-.355.21-.244.116-.515.152-.781.18a1.462 1.462 0 0 0-.603.207c-.106.066-.155.244-.2.382-.115.352-.228.707-.317 1.066-.093.378-.176.76-.228 1.145-.056.409-.042.828-.108 1.234-.073.439-.042.868-.02 1.306.014.3-.062.606-.098.91-.006.056-.02.111-.026.167-.037.437-.66.972-1.094.925-.093-.01-.178-.09-.264-.142-.1-.06-.199-.123-.293-.192a.426.426 0 0 1-.116-.128c-.047-.086-.066-.186-.122-.267-.074-.104-.213-.147-.218-.287-.006-.174-.02-.347-.028-.52a5.394 5.394 0 0 1 .044-1.106c.039-.23.004-.474.053-.702.087-.402.214-.797.32-1.195.025-.098.026-.202.049-.3.017-.074.052-.144.09-.246zM124.629 27.594c-.054-.116-.108-.234-.178-.34-.072-.108-.184-.193-.245-.304-.1-.184-.156-.39-.26-.57a3.901 3.901 0 0 0-.913-1.1c-.223-.18-.497-.3-.736-.463-.341-.231-.709-.276-1.106-.195-.105.022-.197.012-.292.074-.083.054-.147.133-.226.193-.135.101-.26.198-.305.367-.043.157-.111.308-.139.469-.023.126.036.253.009.368a.148.148 0 0 1-.008.029c-.113.314-.341.6-.542.865a6.82 6.82 0 0 0-.862 1.528c-.111.268-.172.555-.267.83-.148.431-.32.856-.283 1.326.025.328.081.663.042.985-.042.333.11.557.294.79.031.04.038.098.07.138.143.177.265.385.444.518.21.155.468.251.712.358.172.074.351.147.535.176.201.032.416-.016.614.021.608.114 1.151-.09 1.699-.282 1.153-.403 1.813-1.483 2.054-2.609.209-.98.307-2.256-.111-3.172zm-1.69 3.729a1.944 1.944 0 0 1-.088.154.323.323 0 0 1-.058.097c-.004.006-.011.01-.016.015-.159.222-.366.411-.618.522-.696.308-1.49-.226-1.697-.9-.214-.694-.246-1.42.063-2.133.208-.478.315-.987.51-1.47.066-.163.159-.316.255-.467.045-.072.102-.143.141-.217.026-.048.029-.101.055-.15a.144.144 0 0 1 .129-.075c.04.003.073.024.101.051l.028.03c.198.226.296.468.38.735.084.263.252.521.378.773.261.517.596 1.075.74 1.636.114.443-.096.99-.303 1.399z" fill="#F37348"/></mask><g mask="url(#a)"><path fill="url(#paint0_linear)" d="M-24 0h356v40H-24z"/></g><defs><linearGradient id="paint0_linear" x1="154.983" x2="155.654" y2="34.154" gradientUnits="userSpaceOnUse"><stop stop-color="#F7FCFF" stop-opacity=".3"/><stop offset="1" stop-color="#F7FCFF" stop-opacity=".1"/></linearGradient></defs></svg>