<svg width="91" height="20" viewBox="0 0 91 20" fill="none" xmlns="http://www.w3.org/2000/svg">
<mask id="mask0" mask-type="alpha" maskUnits="userSpaceOnUse" x="0" y="0" width="91" height="20">
<path d="M33.4639 3.18018C31.672 3.18018 30.2865 4.52408 30.2865 6.20836V6.22487C30.2865 7.90893 31.6553 9.23633 33.4474 9.23633C35.2392 9.23633 36.6247 7.89242 36.6247 6.20836V6.19164C36.6247 4.50758 35.2557 3.18018 33.4639 3.18018ZM34.6667 6.22487C34.6667 6.90518 34.2023 7.51905 33.4639 7.51905C32.7171 7.51905 32.2443 6.89682 32.2443 6.20836V6.19164C32.2443 5.51154 32.709 4.89746 33.4474 4.89746C34.1939 4.89746 34.6667 5.51969 34.6667 6.20836V6.22487ZM47.7766 3.30471H42.7113C42.6301 3.30471 42.5643 3.37051 42.5643 3.45174V4.80015C42.5643 4.88139 42.6301 4.9474 42.7113 4.9474H44.2734V8.96476C44.2734 9.046 44.3392 9.11202 44.4204 9.11202H46.0674C46.1487 9.11202 46.2147 9.046 46.2147 8.96476V4.9474H47.7766C47.8578 4.9474 47.9236 4.88139 47.9236 4.80015V3.45174C47.9236 3.37051 47.8578 3.30471 47.7766 3.30471ZM39.777 5.36215C39.1631 5.24598 39.0054 5.14631 39.0054 4.98877V4.97227C39.0054 4.83102 39.1383 4.73156 39.4285 4.73156C39.9311 4.73156 40.5343 4.88289 41.0573 5.22562C41.1222 5.26805 41.2094 5.25048 41.2549 5.18746L42.0323 4.10976C42.0805 4.0431 42.0638 3.95115 41.9971 3.90293C41.3466 3.43224 40.5495 3.19668 39.4949 3.19668C37.8938 3.19668 37.0309 4.05125 37.0309 5.15467V5.17139C37.0309 6.39912 38.1759 6.7725 39.4784 7.03785C40.1007 7.16239 40.2831 7.25369 40.2831 7.41959V7.4361C40.2831 7.59385 40.1337 7.68494 39.7854 7.68494C39.143 7.68494 38.4637 7.50747 37.8593 7.08265C37.7976 7.03936 37.7127 7.05243 37.6643 7.11009L36.8108 8.12756C36.7572 8.19143 36.7675 8.28659 36.8326 8.33846C37.5639 8.92125 38.5767 9.21983 39.6941 9.21983C41.2538 9.21983 42.2575 8.47307 42.2575 7.25369V7.23698C42.2575 6.06711 41.2622 5.63586 39.777 5.36215ZM87.1882 3.30471H85.1119C85.0307 3.30471 84.9649 3.37051 84.9649 3.45174V8.96476C84.9649 9.046 85.0307 9.11202 85.1119 9.11202H87.1218C89.4697 9.11202 90.6477 7.89242 90.6477 6.17514V6.15842C90.6477 4.44135 89.4945 3.30471 87.1882 3.30471ZM88.6899 6.21651C88.6899 7.05457 88.1174 7.41959 87.2296 7.41959H86.9061V4.99692H87.2296C88.1174 4.99692 88.6899 5.36215 88.6899 6.2V6.21651ZM29.6085 3.30471H27.9615C27.8803 3.30471 27.8143 3.37051 27.8143 3.45174V5.35379H26.0389V3.45174C26.0389 3.37051 25.9731 3.30471 25.8919 3.30471H24.2449C24.1635 3.30471 24.0977 3.37051 24.0977 3.45174V8.96476C24.0977 9.046 24.1635 9.11202 24.2449 9.11202H25.8919C25.9731 9.11202 26.0389 9.046 26.0389 8.96476V7.02971H27.8143V8.96476C27.8143 9.046 27.8803 9.11202 27.9615 9.11202H29.6085C29.6898 9.11202 29.7558 9.046 29.7558 8.96476V3.45174C29.7558 3.37051 29.6898 3.30471 29.6085 3.30471ZM66.9595 3.30471H65.2727C65.2073 3.30471 65.1498 3.34757 65.1314 3.41016L64.4736 5.64336C64.4329 5.7814 64.2385 5.78483 64.1928 5.64829L63.4375 3.38851C63.4173 3.3285 63.3612 3.28799 63.298 3.28799H61.8338C61.7706 3.28799 61.7144 3.3285 61.6945 3.38851L60.9389 5.64829C60.8933 5.78483 60.6989 5.7814 60.6584 5.64336L60.0003 3.41016C59.9819 3.34757 59.9245 3.30471 59.8591 3.30471H58.1392C58.0391 3.30471 57.9684 3.40223 57.9993 3.49718L59.8034 9.05179C59.8231 9.11244 59.8797 9.15338 59.9433 9.15338H61.4248C61.4872 9.15338 61.5427 9.11416 61.5635 9.05543L62.4106 6.6589C62.4569 6.52794 62.6416 6.52794 62.6879 6.6589L63.535 9.05543C63.5558 9.11416 63.6115 9.15338 63.6737 9.15338H65.1552C65.2191 9.15338 65.2754 9.11244 65.2952 9.05179L67.0995 3.49718C67.1303 3.40223 67.0594 3.30471 66.9595 3.30471ZM84.3532 7.45281H81.771V3.45174C81.771 3.37051 81.705 3.30471 81.6238 3.30471H79.9768C79.8955 3.30471 79.8297 3.37051 79.8297 3.45174V8.96476C79.8297 9.046 79.8955 9.11202 79.9768 9.11202H84.3532C84.4346 9.11202 84.5004 9.046 84.5004 8.96476V7.59985C84.5004 7.51862 84.4346 7.45281 84.3532 7.45281ZM53.3762 7.51905H50.4372V7.37265C50.4372 7.37265 50.4372 7.37222 50.4372 7.37201V7.03571C50.4372 7.03571 50.4372 7.03528 50.4372 7.03507V6.88846H53.1273C53.2086 6.88846 53.2746 6.82266 53.2746 6.74142V5.63372C53.2746 5.55248 53.2086 5.48647 53.1273 5.48647H50.4372V5.34007V5.33943V5.04471V5.04385V4.89746H53.3348C53.4161 4.89746 53.4819 4.83166 53.4819 4.75042V3.45174C53.4819 3.37051 53.4161 3.30471 53.3348 3.30471H48.6762C48.5949 3.30471 48.5291 3.37051 48.5291 3.45174V8.96476C48.5291 9.046 48.5949 9.11202 48.6762 9.11202H53.3762C53.4576 9.11202 53.5234 9.046 53.5234 8.96476V7.6663C53.5234 7.58485 53.4576 7.51905 53.3762 7.51905ZM70.082 3.18018C68.2901 3.18018 66.9046 4.52408 66.9046 6.20836V6.22487C66.9046 7.90893 68.2734 9.23633 70.0655 9.23633C71.8574 9.23633 73.2429 7.89242 73.2429 6.20836V6.19164C73.2429 4.50758 71.8739 3.18018 70.082 3.18018ZM71.2849 6.22487C71.2849 6.90518 70.8204 7.51905 70.082 7.51905C69.3355 7.51905 68.8624 6.89682 68.8624 6.20836V6.19164C68.8624 5.51154 69.3271 4.89746 70.0655 4.89746C70.8121 4.89746 71.2849 5.51969 71.2849 6.20836V6.22487ZM78.1394 7.27384C78.0908 7.20268 78.1137 7.10537 78.1888 7.06315C78.8101 6.71463 79.191 6.14963 79.191 5.36215V5.34543C79.191 4.74807 79.0086 4.31682 78.6601 3.9683C78.2535 3.56191 77.5983 3.30471 76.5694 3.30471H73.8792C73.798 3.30471 73.7322 3.37051 73.7322 3.45174V8.96476C73.7322 9.046 73.798 9.11202 73.8792 9.11202H75.5262C75.6075 9.11202 75.6735 9.046 75.6735 8.96476V7.45281H76.0882L77.1398 9.04578C77.167 9.08715 77.2131 9.11202 77.2626 9.11202H79.1194C79.2377 9.11202 79.3076 8.97934 79.2407 8.88181L78.1394 7.27384ZM77.2581 5.50318C77.2581 5.85985 76.976 6.06711 76.5113 6.06711H75.6735V4.93068H76.5197C76.9677 4.93068 77.2581 5.1133 77.2581 5.48647V5.50318ZM58.5694 7.45281H55.9871V3.45174C55.9871 3.37051 55.9213 3.30471 55.84 3.30471H54.193C54.1118 3.30471 54.0458 3.37051 54.0458 3.45174V8.96476C54.0458 9.046 54.1118 9.11202 54.193 9.11202H58.5694C58.6507 9.11202 58.7167 9.046 58.7167 8.96476V7.59985C58.7167 7.51862 58.6507 7.45281 58.5694 7.45281Z" fill="#F37349"/>
<path fill-rule="evenodd" clip-rule="evenodd" d="M17.2178 20C18.7539 20 20 18.7542 20 17.2178V2.78223C20 1.24585 18.7539 0 17.2178 0H2.78223C1.24609 0 0 1.24585 0 2.78223V17.2178C0 18.7542 1.24609 20 2.78223 20H17.2178ZM7.1748 7.14673C7.1748 7.18066 7.18848 7.21118 7.20996 7.23364L9.75879 9.83032C9.7998 9.87988 9.81934 9.93994 9.81934 10C9.81934 10.0603 9.7998 10.1204 9.75879 10.1697L7.20996 12.7666C7.18848 12.7888 7.1748 12.8196 7.1748 12.8535C7.1748 12.9187 7.22559 12.9705 7.28906 12.9749H7.73145V16.5513C7.73145 16.6997 7.61035 16.8198 7.46289 16.8198H3.45215C3.36426 16.8198 3.28613 16.7781 3.2373 16.7134C3.2041 16.6685 3.18359 16.6123 3.18359 16.5513V3.44897C3.18359 3.375 3.21289 3.30811 3.26172 3.25952C3.31055 3.21045 3.37793 3.18018 3.45215 3.18018H7.46289C7.61035 3.18018 7.73145 3.30054 7.73145 3.44897V7.02539H7.28906C7.22559 7.02979 7.1748 7.08154 7.1748 7.14673ZM12.5469 3.18018H16.5479C16.6963 3.18018 16.8164 3.30054 16.8164 3.44897V16.5513C16.8164 16.6997 16.6963 16.8198 16.5479 16.8198H12.5469C12.3984 16.8198 12.2783 16.6997 12.2783 16.5513V12.9749H12.7256C12.7891 12.9705 12.8398 12.9187 12.8398 12.8535C12.8398 12.8259 12.8291 12.8018 12.8145 12.7812L10.252 10.1711C10.2109 10.1216 10.1904 10.0608 10.1895 10C10.1904 9.93945 10.2109 9.87866 10.252 9.82886L12.8145 7.21899C12.8291 7.19849 12.8398 7.17407 12.8398 7.14673C12.8398 7.08154 12.7891 7.02979 12.7256 7.02539H12.2783V3.44897C12.2783 3.30054 12.3984 3.18018 12.5469 3.18018Z" fill="#F37349"/>
<path d="M32.2092 14.5296C32.2377 14.5081 32.2567 14.4873 32.2773 14.4537C32.3015 14.4142 32.3183 14.3707 32.3508 14.3377C32.4188 14.2693 32.5266 14.2374 32.583 14.1581C32.6359 14.0833 32.6083 13.9832 32.583 13.9037C32.5455 13.7847 32.6025 13.6724 32.5592 13.5618C32.5491 13.5361 32.5553 13.4999 32.539 13.4816C32.4677 13.4015 32.4432 13.3027 32.4503 13.2049C32.4559 13.1291 32.4992 13.0551 32.5292 12.9818C32.5433 12.9473 32.5755 12.9188 32.5813 12.8809C32.5843 12.8605 32.5785 12.8427 32.5828 12.8219C32.592 12.7778 32.5999 12.7227 32.6531 12.7199C32.697 12.7177 32.7579 12.6361 32.7733 12.5799C32.8052 12.4644 32.9368 12.4547 32.9756 12.462C33.1055 12.4863 33.1992 12.4239 33.292 12.3716C33.4371 12.2901 33.5981 12.2689 33.7507 12.2175C33.8384 12.1879 33.9297 12.1697 34.018 12.1414C34.1536 12.0979 34.2876 12.0158 34.4229 12.0147C34.551 12.0136 34.6728 11.9523 34.8153 11.9995C34.8938 12.0252 35.0052 12.0006 35.1025 12.0359C35.1793 12.0638 35.1544 12.1324 35.1844 12.1746C35.2395 12.2524 35.1814 12.2526 35.1373 12.2899C35.1066 12.3156 35.0768 12.3424 35.0474 12.3699C34.9864 12.4271 34.9276 12.4869 34.8685 12.5461C34.844 12.5707 34.8228 12.599 34.7928 12.6164C34.7572 12.6369 34.7208 12.6564 34.6839 12.6749C34.5377 12.7484 34.3847 12.8071 34.2321 12.8659C34.117 12.91 34.0019 12.9542 33.887 12.9983C33.8452 13.0144 33.7835 13.0262 33.7623 13.071C33.7447 13.1081 33.7646 13.1469 33.7946 13.1702C33.8512 13.2142 33.8478 13.2298 33.7897 13.272C33.7464 13.3033 33.7083 13.3374 33.7359 13.4086C33.7468 13.4371 33.707 13.4849 33.6911 13.5243C33.6577 13.6079 33.6161 13.6896 33.5932 13.7762C33.5314 14.0072 33.4772 14.2402 33.4215 14.4728C33.4077 14.5298 33.4258 14.5728 33.4918 14.5707C33.6737 14.5645 33.8555 14.5548 34.0373 14.5463C34.2595 14.536 34.4503 14.4205 34.6576 14.3628C34.8192 14.3176 34.975 14.2565 35.137 14.2138C35.2215 14.1918 35.2935 14.2537 35.2693 14.3409C35.2487 14.4155 35.2069 14.4884 35.1589 14.5497C35.0854 14.6434 35.0007 14.7287 34.9163 14.8129C34.8674 14.8618 34.8127 14.9068 34.7551 14.9454C34.6951 14.9855 34.6342 15.024 34.5731 15.0624C34.5172 15.0978 34.4488 15.1299 34.401 15.1758C34.356 15.2189 34.2919 15.2414 34.2362 15.2682C34.1719 15.299 34.1076 15.329 34.0426 15.3584C33.9837 15.3852 33.9243 15.4113 33.8645 15.4369C33.8105 15.46 33.7458 15.4771 33.6967 15.5091C33.6731 15.5245 33.6491 15.5125 33.6247 15.5138C33.594 15.5151 33.5606 15.5324 33.5306 15.5395C33.5138 15.5436 33.4965 15.5432 33.4802 15.5496C33.4309 15.5691 33.4311 15.6261 33.4365 15.6711C33.4646 15.9138 33.6172 16.0177 33.7826 16.1287C33.8437 16.1697 33.9273 16.1497 33.9985 16.1622C34.1545 16.1894 34.3043 16.178 34.4587 16.1521C34.6646 16.1174 34.8745 16.1075 35.0805 16.073C35.3224 16.0323 35.5599 16.0091 35.7925 16.1135C35.8242 16.1277 35.8609 16.13 35.8943 16.1412C35.9738 16.1682 35.9923 16.2374 35.9415 16.3006C35.8868 16.3682 35.839 16.4415 35.7816 16.5064C35.7421 16.551 35.6797 16.5782 35.648 16.6264C35.5411 16.7895 35.3413 16.8063 35.2031 16.919C35.1707 16.9452 35.1225 16.9664 35.0822 16.9653C34.9015 16.9614 34.7617 17.0828 34.5952 17.1166C34.4696 17.1424 34.3418 17.1584 34.2147 17.1769C33.9912 17.2097 33.7586 17.2139 33.5464 17.2819C33.378 17.3359 33.2292 17.3078 33.0721 17.2849C32.9973 17.274 32.9321 17.2592 32.8897 17.1666C32.8565 17.0946 32.7596 17.0489 32.6861 16.9987C32.5305 16.8922 32.4111 16.7497 32.3665 16.5724C32.3195 16.3842 32.3133 16.1855 32.2938 15.9911C32.2861 15.915 32.2668 15.8407 32.2625 15.7641C32.2604 15.7249 32.2621 15.6855 32.2707 15.6471C32.2775 15.6173 32.2945 15.5865 32.2846 15.5552C32.275 15.5243 32.2437 15.5014 32.2265 15.4744C32.1909 15.4193 32.1558 15.3642 32.1221 15.308C32.0917 15.2572 32.0278 15.2812 32.0173 15.295C31.872 15.4836 31.6907 15.6343 31.5033 15.7757C31.3443 15.8958 31.1778 16.0098 31.002 16.1034C30.82 16.2003 30.6267 16.2794 30.4316 16.3467C30.3341 16.3806 30.221 16.3664 30.1164 16.3825C30.0598 16.3913 29.9912 16.3954 29.9449 16.4329C29.8778 16.4873 29.9387 16.6011 29.9687 16.662C30.0336 16.7938 30.1206 16.9203 30.275 16.9424C30.4031 16.9608 30.5294 17.0028 30.6685 16.9644C30.807 16.9265 30.9568 16.9332 31.1002 16.9098C31.2258 16.8892 31.3479 16.8468 31.4735 16.8275C31.6272 16.8039 31.7828 16.7863 31.938 16.7825C32.0257 16.7803 32.117 16.8031 32.2014 16.8303C32.2525 16.8466 32.3352 16.9046 32.3157 16.9704C32.3088 16.9932 32.2775 17.0225 32.2595 17.0373C32.1661 17.1143 32.0551 17.1732 31.9725 17.2598C31.8171 17.4227 31.6039 17.4484 31.4116 17.5226C31.2046 17.6023 30.9934 17.6722 30.783 17.7425C30.6104 17.8002 30.4392 17.8664 30.2621 17.9033C29.9367 17.971 29.6062 17.9851 29.3019 17.825C29.1381 17.7389 29.0069 17.6066 28.9759 17.4043C28.9613 17.3106 28.9148 17.2197 28.9122 17.1267C28.9075 16.9527 28.8886 16.7784 28.883 16.6048C28.8788 16.4687 28.8672 16.3264 28.8627 16.187C28.8593 16.0807 28.8865 15.9723 28.8736 15.8679C28.8644 15.7918 28.8835 15.7161 28.8867 15.6403C28.8884 15.6006 28.8848 15.5627 28.874 15.5245C28.8623 15.4829 28.8715 15.4512 28.8835 15.4096C28.8925 15.3792 28.9002 15.3438 28.8884 15.3132C28.8764 15.2819 28.8601 15.2611 28.8614 15.2255C28.8633 15.1644 28.9019 15.1123 28.9116 15.0528C28.9418 14.8652 29.0389 14.6972 29.0811 14.506C29.1102 14.3742 29.1293 14.2402 29.1538 14.1075C29.1664 14.0391 29.1803 13.971 29.1977 13.9037C29.2099 13.8563 29.2277 13.8083 29.2217 13.7586C29.2166 13.7144 29.1825 13.6758 29.1709 13.6317C29.1514 13.5569 29.1523 13.4774 29.1441 13.4006C29.1396 13.359 29.1518 13.3173 29.1726 13.2815C29.1923 13.2472 29.2294 13.2253 29.2367 13.1856C29.2457 13.1379 29.2148 13.0746 29.3021 13.0678C29.3171 13.0665 29.3267 13.0313 29.3434 13.0172C29.3696 12.9951 29.4013 12.9795 29.4277 12.9576C29.4682 12.9242 29.5021 12.8811 29.5462 12.8541C29.5949 12.8243 29.6515 12.8069 29.7055 12.7859C29.7599 12.7647 29.8135 12.7375 29.8703 12.7274C29.9558 12.712 30.0437 12.7096 30.1305 12.7004C30.1807 12.695 30.2306 12.6873 30.2805 12.68C30.4767 12.6517 30.67 12.6925 30.8642 12.6989C31.0099 12.7038 31.1235 12.7756 31.2551 12.7981C31.3529 12.8146 31.4258 12.8719 31.433 12.9522C31.4401 13.0273 31.4039 13.1239 31.3533 13.182C31.2922 13.2517 31.2007 13.3016 31.1135 13.34C31.0127 13.3841 30.9236 13.4439 30.7911 13.4304C30.7026 13.4214 30.613 13.4334 30.5262 13.4519C30.4548 13.4669 30.3789 13.4776 30.3114 13.5069C30.2608 13.529 30.2362 13.5957 30.2008 13.6364C30.0908 13.7626 30.0503 13.9245 30.0195 14.0777C29.9532 14.407 29.8832 14.7415 29.8802 15.0746C29.8787 15.2485 29.9637 15.4414 30.2089 15.5123C30.3346 15.5487 30.4591 15.5869 30.5806 15.5757C30.7047 15.5642 30.8286 15.5067 30.9433 15.4504C31.0511 15.3976 31.1465 15.3196 31.2483 15.254C31.3966 15.158 31.5415 15.0624 31.6645 14.9289C31.7471 14.8391 31.8448 14.7647 31.9451 14.6957C32.0238 14.6417 32.1089 14.5977 32.1882 14.5443C32.1957 14.5392 32.2027 14.5345 32.2092 14.5296Z" fill="#F37348"/>
<path d="M48.1996 15.5483C48.1829 15.6565 48.161 15.7641 48.1516 15.873C48.1115 16.3368 48.0629 16.7979 48.0112 17.2613C48.0009 17.3522 47.9971 17.5119 47.9291 17.5824C47.8749 17.6385 47.7628 17.6458 47.6948 17.6925C47.6085 17.7517 47.4259 17.7515 47.3292 17.655C47.2229 17.5489 47.1039 17.44 47.0808 17.2782C47.069 17.197 47.0793 17.113 47.0741 17.0307C47.0677 16.9284 47.0471 16.8266 47.0478 16.7248C47.0484 16.584 47.0606 16.4432 47.0728 16.3025C47.0827 16.1879 47.0898 16.0708 47.1088 15.9572C47.1151 15.9195 47.1187 15.894 47.0763 15.8805C47.0261 15.8647 46.9734 15.8827 46.926 15.8989C46.8231 15.9343 46.722 15.9733 46.6191 16.0076C46.5355 16.0353 46.4521 16.0629 46.3685 16.0906C46.2864 16.118 46.1981 16.1392 46.1186 16.1737C46.0879 16.187 46.0599 16.198 46.0273 16.208C46.0127 16.2125 45.9381 16.2342 45.9381 16.2552C45.8818 16.3154 45.8543 16.4041 45.8198 16.4828C45.7384 16.6686 45.6674 16.8592 45.578 17.0407C45.527 17.1443 45.246 17.2173 45.1359 17.1766C45.0195 17.1335 45.0336 17.0202 45.0165 16.9351C44.9736 16.7209 44.9423 16.5034 44.9877 16.2839C44.9916 16.265 44.9884 16.2447 44.9884 16.2202C44.8521 16.187 44.7331 16.1356 44.6491 16.0196C44.5878 15.9347 44.597 15.8383 44.6394 15.7699C44.6757 15.7118 44.6924 15.6642 44.6973 15.5984C44.7029 15.5264 44.7425 15.4677 44.7908 15.4167C44.815 15.391 44.8411 15.367 44.8658 15.3415C44.8969 15.3095 44.9294 15.2688 44.9234 15.224C44.9198 15.1963 44.9222 15.1674 44.9474 15.1513C44.992 15.123 45.054 15.146 45.1022 15.1284C45.1168 15.123 45.1333 15.1237 45.1496 15.1215C45.1941 14.8607 45.2398 14.6022 45.282 14.3431C45.299 14.2391 45.3311 14.1304 45.3146 14.031C45.3013 13.9512 45.2925 13.8709 45.2904 13.792C45.2891 13.738 45.3262 13.684 45.3373 13.6282C45.3455 13.5877 45.3369 13.544 45.3405 13.5022C45.3425 13.4806 45.3498 13.4555 45.3633 13.4392C45.4123 13.3805 45.4668 13.326 45.5144 13.2662C45.5356 13.2392 45.5127 13.2062 45.4882 13.1976C45.4559 13.1863 45.4218 13.1803 45.3875 13.1809C45.353 13.1816 45.3279 13.1951 45.2955 13.2049C45.2222 13.227 45.1502 13.2531 45.0763 13.2733C45.0195 13.2887 44.9614 13.3007 44.9024 13.3044C44.8561 13.3074 44.8096 13.2992 44.7732 13.3352C44.7543 13.3539 44.738 13.3753 44.7235 13.3976C44.7031 13.428 44.6647 13.4825 44.6735 13.5221C44.6782 13.5431 44.6761 13.5742 44.6634 13.5892C44.5653 13.7065 44.5599 13.8599 44.5031 13.9864C44.4594 14.0837 44.4885 14.1919 44.4099 14.2895C44.3413 14.3741 44.3546 14.5289 44.3415 14.6536C44.3164 14.8918 44.2989 15.1308 44.277 15.3693C44.268 15.4701 44.2236 15.5637 44.2183 15.6662C44.2155 15.7168 44.1964 15.7592 44.1925 15.8094C44.1846 15.9109 44.2286 16.0119 44.2052 16.1131C44.1996 16.1373 44.182 16.1594 44.1782 16.1836C44.1488 16.3718 44.1141 16.5598 44.0954 16.749C44.077 16.9357 43.8678 17.1599 43.6786 17.1771C43.577 17.1861 43.4683 17.0862 43.4443 16.9672C43.4145 16.8217 43.3766 16.6779 43.3506 16.5317C43.3339 16.4378 43.3356 16.3407 43.3221 16.246C43.3123 16.1769 43.2771 16.1094 43.2782 16.0415C43.281 15.8591 43.294 15.6765 43.3088 15.4945C43.3208 15.3472 43.3395 15.2004 43.359 15.0538C43.3763 14.9226 43.4008 14.7927 43.4186 14.6616C43.425 14.6131 43.4175 14.5628 43.4233 14.5141C43.4359 14.4101 43.4346 14.2989 43.4734 14.2046C43.5165 14.1 43.5079 13.9922 43.5356 13.8899C43.5504 13.8342 43.6179 13.7941 43.6396 13.7384C43.6636 13.6756 43.6912 13.5888 43.6657 13.5386C43.6312 13.4703 43.566 13.5211 43.5112 13.5562C43.4662 13.5849 43.4053 13.6029 43.3517 13.6023C43.0728 13.5987 42.8126 13.7013 42.5411 13.7365C42.3524 13.7609 42.1617 13.8179 41.9763 13.8036C41.7471 13.786 41.5324 13.8432 41.3114 13.8636C41.1277 13.8805 40.9466 13.8794 40.7745 13.8121C40.705 13.7849 40.6671 13.7198 40.7012 13.6327C40.759 13.4838 40.7978 13.326 40.8696 13.1848C40.9519 13.0223 41.0546 12.8686 41.1635 12.7222C41.195 12.68 41.2777 12.6601 41.338 12.6577C41.5274 12.6502 41.7178 12.6609 41.9073 12.6545C41.9797 12.6519 42.0504 12.6153 42.1235 12.6054C42.2262 12.5915 42.3302 12.5853 42.4337 12.581C42.4939 12.5786 42.5561 12.5966 42.615 12.5878C42.7578 12.567 42.8981 12.527 43.0413 12.5115C43.1946 12.4952 43.3513 12.5085 43.5041 12.4905C43.6792 12.4697 43.8511 12.4251 44.0256 12.3981C44.1302 12.3819 44.2371 12.3793 44.343 12.3707C44.4328 12.3634 44.5226 12.3568 44.6124 12.3495C44.7316 12.3398 44.8508 12.3313 44.9697 12.3195C45.064 12.3098 45.1579 12.2953 45.252 12.2841C45.3866 12.268 45.5212 12.2539 45.6556 12.2374C45.7547 12.2254 45.8532 12.2095 45.9525 12.1986C46.0612 12.1866 46.1707 12.1817 46.2791 12.1673C46.4748 12.1416 46.6686 12.1165 46.839 11.995C46.8821 11.9643 46.9749 11.9821 47.0364 12.0029C47.2214 12.0657 47.2792 12.2775 47.1457 12.4185C46.9852 12.588 46.8218 12.7593 46.5683 12.7919C46.5216 12.7979 46.4598 12.8262 46.4392 12.8633C46.4114 12.9138 46.4037 12.9816 46.4971 13.0056C46.588 13.0289 46.5998 13.0905 46.5578 13.1745C46.5181 13.2544 46.5003 13.3453 46.459 13.4242C46.3381 13.6548 46.3644 13.9165 46.2986 14.1594C46.2556 14.3182 46.2678 14.4914 46.2466 14.6571C46.2316 14.7747 46.206 14.8918 46.1782 15.0073C46.1574 15.0932 46.1192 15.1749 46.1 15.2611C46.0794 15.353 46.1501 15.4118 46.2613 15.4036C46.403 15.3931 46.5471 15.3942 46.6857 15.3678C46.7899 15.3481 46.8876 15.2934 46.9877 15.2529C47.018 15.2405 47.0452 15.2208 47.0756 15.2083C47.2068 15.1545 47.2945 15.0637 47.3345 14.925C47.3892 14.7353 47.4732 14.5503 47.4992 14.3574C47.5109 14.2695 47.5405 14.1853 47.5564 14.0981C47.5643 14.0537 47.5703 14.0063 47.5652 13.9613C47.5592 13.911 47.5581 13.8773 47.5752 13.8304C47.5862 13.7999 47.5798 13.7637 47.5761 13.7326C47.5675 13.6597 47.5675 13.5924 47.6417 13.5551C47.6642 13.5438 47.6882 13.4998 47.6837 13.4763C47.6522 13.3082 47.7778 13.2384 47.8672 13.1344C47.9073 13.0877 47.966 13.0431 48.0245 13.0244C48.0721 13.0092 48.1212 12.9833 48.1702 12.9739C48.221 12.964 48.2869 12.9781 48.337 12.9871C48.3542 12.9901 48.3745 12.994 48.388 13.0058C48.3998 13.0159 48.4045 13.0298 48.4174 13.0394C48.436 13.0534 48.4862 13.0842 48.5104 13.0688C48.6236 12.9959 48.6478 13.1155 48.6806 13.138C48.6894 13.144 48.6947 13.1882 48.698 13.1993C48.7044 13.2223 48.7108 13.2452 48.7172 13.2681C48.7292 13.311 48.735 13.3569 48.7284 13.4015C48.7254 13.4229 48.7134 13.4456 48.707 13.4666C48.6913 13.5198 48.6757 13.5732 48.6414 13.6179C48.5741 13.706 48.5781 13.8481 48.5496 13.9662C48.5173 14.1009 48.4952 14.237 48.4476 14.3694C48.406 14.485 48.4052 14.6144 48.3816 14.7368C48.3417 14.9428 48.2993 15.1481 48.2553 15.3532C48.2421 15.4154 48.2196 15.4756 48.2013 15.5367C48.2009 15.5406 48.2003 15.5444 48.1996 15.5483Z" fill="#F37348"/>
<path d="M52.0206 16.6433C51.9906 16.5664 51.8978 16.4772 51.7997 16.4671C51.775 16.4646 51.7493 16.4594 51.7221 16.4541C51.6548 16.441 51.5694 16.4277 51.4891 16.4425C51.3626 16.4661 51.2334 16.4727 51.0964 16.4798C51.027 16.4834 50.9577 16.4871 50.8887 16.4929C50.8205 16.4987 50.7524 16.5064 50.6842 16.5139C50.6 16.5233 50.5128 16.5329 50.4279 16.5385C50.3649 16.5428 50.3021 16.5387 50.2343 16.5347C50.2133 16.5334 50.1925 16.5321 50.1717 16.531C50.1014 16.5276 50.0316 16.5231 49.9613 16.5186L49.8614 16.5122C49.751 16.5053 49.6711 16.4794 49.6237 16.435C49.563 16.3784 49.5099 16.2937 49.4811 16.2084C49.446 16.1038 49.4381 15.9851 49.4351 15.8826C49.4331 15.8173 49.4379 15.7508 49.4434 15.6885L49.4531 15.5817C49.4535 15.5768 49.4537 15.5716 49.4539 15.5667C49.4961 15.5641 49.5392 15.5639 49.5847 15.5637C49.6612 15.5637 49.7403 15.5635 49.8202 15.5504C49.9598 15.5275 50.0982 15.4947 50.232 15.463C50.2866 15.4501 50.3413 15.4372 50.3961 15.4248C50.4101 15.4216 50.4362 15.4158 50.4611 15.4012C50.4727 15.3944 50.4849 15.3867 50.4973 15.3785C50.5196 15.3642 50.5501 15.3444 50.5659 15.3427L50.588 15.3432C50.6036 15.3432 50.6176 15.3417 50.6313 15.3386C50.6604 15.3318 50.69 15.3224 50.7271 15.3074C50.8088 15.2748 50.8812 15.2311 50.9513 15.189C50.9764 15.1738 51.0014 15.1588 51.0267 15.1442C51.1444 15.0772 51.2542 14.9976 51.3603 14.9209L51.4205 14.8778C51.4526 14.8553 51.4925 14.8275 51.5208 14.7833C51.5577 14.725 51.5517 14.6588 51.5487 14.6249C51.5454 14.5919 51.5414 14.5465 51.5242 14.5079C51.5004 14.4536 51.4486 14.4213 51.3855 14.4213C51.3622 14.4213 51.3408 14.4254 51.3251 14.4284L51.3167 14.4301C51.2576 14.4406 51.1993 14.4545 51.1431 14.468C51.0992 14.4785 51.0553 14.489 51.0109 14.4978L50.9631 14.5072C50.8066 14.5385 50.6448 14.5711 50.4855 14.5964C50.3511 14.6176 50.208 14.6388 50.0684 14.6431C50.0013 14.645 49.933 14.6363 49.8601 14.627C49.817 14.6217 49.7739 14.6163 49.7309 14.6129C49.7137 14.6116 49.7011 14.6099 49.6918 14.6082C49.6948 14.5996 49.6996 14.5887 49.7064 14.5745C49.7251 14.5366 49.7289 14.4982 49.7323 14.4674C49.7334 14.4558 49.7353 14.4389 49.7375 14.4316C49.7804 14.3823 49.7842 14.3302 49.7866 14.2987C49.7872 14.2888 49.7879 14.28 49.7894 14.2742C49.802 14.2249 49.8172 14.1765 49.8333 14.1253L49.853 14.0618C49.8554 14.0539 49.8575 14.046 49.8607 14.0383L49.895 13.951C49.918 13.8931 49.9409 13.8353 49.9628 13.7772C49.9707 13.7564 49.9771 13.7345 49.9833 13.7131C49.9904 13.688 49.9973 13.6647 50.0063 13.6471C50.0217 13.6173 50.0339 13.5877 50.0459 13.5588C50.065 13.5136 50.0828 13.4707 50.1081 13.439C50.1237 13.4197 50.1422 13.4064 50.1632 13.3993C50.223 13.3794 50.2817 13.3584 50.3404 13.3189C50.3505 13.3121 50.3604 13.305 50.3702 13.2981C50.3835 13.2885 50.3966 13.2788 50.4112 13.2705C50.4294 13.2602 50.4476 13.2501 50.4658 13.2403L50.4956 13.2242C50.5573 13.1901 50.6225 13.1513 50.6789 13.0982C50.7286 13.0517 50.8015 13.0189 50.8786 12.9841C50.8954 12.9764 50.9121 12.9689 50.9284 12.9614C50.98 12.9374 51.0334 12.9168 51.09 12.895C51.1433 12.8744 51.1986 12.8532 51.2529 12.8285C51.2955 12.809 51.338 12.7889 51.38 12.7683C51.3943 12.7614 51.4087 12.7535 51.4233 12.7456C51.4464 12.7329 51.4681 12.7211 51.4867 12.7149C51.5596 12.6907 51.6205 12.636 51.6582 12.5606C51.6908 12.4957 51.6884 12.4157 51.6518 12.3523C51.6194 12.2963 51.5649 12.2717 51.5251 12.2539C51.5169 12.2502 51.509 12.2468 51.5017 12.2429C51.408 12.1932 51.2953 12.1403 51.1641 12.1456C51.1258 12.1476 51.0898 12.1557 51.0583 12.1628C51.027 12.1701 50.9993 12.1771 50.9764 12.1746C50.8503 12.1617 50.7487 12.2102 50.6615 12.2522C50.6384 12.2633 50.6154 12.2745 50.5923 12.2841C50.4735 12.333 50.3702 12.4078 50.2701 12.48C50.241 12.501 50.2118 12.5222 50.1825 12.5426C50.1679 12.5527 50.1527 12.5625 50.1374 12.5726C50.0686 12.6183 49.9904 12.6699 49.9375 12.7449C49.8854 12.8189 49.8459 12.8339 49.8026 12.8339C49.7821 12.8339 49.7581 12.83 49.7309 12.8225C49.7026 12.8146 49.67 12.8105 49.637 12.8105C49.5952 12.8105 49.5172 12.8176 49.4631 12.8652C49.3907 12.929 49.3414 13.0139 49.2981 13.0889L49.2872 13.108C49.225 13.2145 49.1674 13.3243 49.1159 13.4347C49.0885 13.4934 49.0668 13.5532 49.046 13.6111C49.0362 13.6387 49.0263 13.6664 49.0156 13.6938C49.0008 13.7324 48.9856 13.771 48.9706 13.8096C48.938 13.8919 48.9046 13.977 48.8739 14.0625C48.8623 14.0948 48.8604 14.1255 48.8589 14.1504C48.8583 14.1611 48.8572 14.1771 48.8555 14.1821C48.8478 14.2022 48.8368 14.2232 48.8251 14.2453C48.813 14.2685 48.801 14.2916 48.791 14.3154C48.7755 14.3525 48.7661 14.3868 48.7627 14.42L48.7612 14.4367C48.761 14.4382 48.761 14.4395 48.7608 14.441C48.7552 14.4449 48.7498 14.4489 48.7451 14.4528C48.7399 14.4573 48.7297 14.4635 48.7196 14.4695C48.6827 14.492 48.5906 14.5477 48.603 14.6637C48.6019 14.6661 48.6009 14.6682 48.6 14.6703C48.5946 14.6832 48.5888 14.6958 48.5828 14.7085C48.5723 14.7314 48.5621 14.7544 48.5535 14.7779C48.549 14.7906 48.5451 14.8032 48.5413 14.8154C48.537 14.8298 48.5333 14.8425 48.5286 14.8525C48.5098 14.8937 48.5046 14.9376 48.5003 14.9753L48.4984 14.9914C48.4933 15.0311 48.4898 15.0716 48.4885 15.1115C48.487 15.1554 48.4885 15.198 48.4898 15.2392C48.4909 15.2701 48.492 15.3009 48.4915 15.332C48.4911 15.3749 48.48 15.4222 48.468 15.4722C48.4596 15.5073 48.4508 15.5438 48.445 15.5821C48.4345 15.6518 48.421 15.7257 48.4064 15.8038C48.3316 16.2099 48.2382 16.7154 48.535 17.0712C48.7189 17.2915 48.9088 17.403 49.1202 17.4122C49.1333 17.4128 49.1472 17.4132 49.1611 17.4132C49.1937 17.4132 49.2201 17.4102 49.2443 17.4038C49.2462 17.4034 49.2477 17.403 49.2492 17.4025C49.2608 17.4117 49.2777 17.4244 49.3017 17.433C49.345 17.4488 49.3937 17.4565 49.4505 17.4565C49.4719 17.4565 49.4934 17.4555 49.5144 17.454C49.5849 17.4488 49.6558 17.4576 49.7328 17.4666C49.7709 17.4711 49.8091 17.4754 49.8472 17.4784C49.8719 17.4803 49.8965 17.4816 49.9214 17.4816C49.9355 17.4816 49.9497 17.4812 49.9638 17.4801C50.0644 17.473 50.1647 17.4643 50.2652 17.4555L50.2813 17.454C50.3147 17.4512 50.3484 17.4488 50.382 17.4467C50.4662 17.4411 50.5535 17.4355 50.6401 17.4188C50.7616 17.3952 50.8808 17.3614 50.9959 17.3286L51.0718 17.3071C51.1826 17.2761 51.2938 17.2416 51.4012 17.2083L51.4353 17.1976C51.4696 17.1871 51.5034 17.1745 51.5373 17.162L51.5733 17.1487C51.7461 17.0864 51.8693 17.0099 51.961 16.908C52.0157 16.8476 52.0541 16.7291 52.0206 16.6433Z" fill="#F37348"/>
<path d="M68.4917 16.8919C68.4518 16.8803 68.3873 16.8953 68.3573 16.9037C68.3022 16.9191 68.251 16.945 68.1993 16.9697C68.0806 17.0265 67.9591 17.0771 67.835 17.1212C67.772 17.1437 67.7081 17.1645 67.6438 17.1834C67.6129 17.1926 67.5814 17.1999 67.5508 17.2097C67.5295 17.2166 67.504 17.2355 67.482 17.2361C67.2886 17.2417 67.0949 17.2511 66.9015 17.247C66.8055 17.2451 66.7093 17.2205 66.6143 17.2007C66.4819 17.1733 66.353 17.097 66.2793 17.0078C66.1516 16.8537 65.9895 16.6988 66.0283 16.4529C66.0551 16.2846 66.0463 16.1106 66.0557 15.9393C66.0583 15.8909 66.0663 15.8423 66.0763 15.7949C66.1055 15.6577 66.1633 15.5207 66.161 15.3844C66.1584 15.2265 66.2081 15.0826 66.2261 14.9313C66.2566 14.6741 66.2847 14.4165 66.3252 14.1605C66.3625 13.9243 66.4263 13.6918 66.4561 13.4549C66.4776 13.286 66.5192 13.1199 66.5026 12.9433C66.4872 12.7768 66.5867 12.6362 66.6752 12.4956C66.7226 12.4201 66.7969 12.3781 66.8805 12.3534C66.9206 12.3417 66.9615 12.3331 67.0018 12.3224C67.0449 12.311 67.0818 12.2999 67.1253 12.3194C67.1759 12.3419 67.2233 12.3805 67.2704 12.4092C67.3214 12.4405 67.3726 12.4716 67.4232 12.5033C67.4635 12.5284 67.5036 12.5539 67.5433 12.58C67.5709 12.5984 67.6028 12.6194 67.6086 12.6548C67.6202 12.7249 67.5715 12.7913 67.5497 12.8552C67.5253 12.9266 67.5083 13.0001 67.4948 13.0741C67.4682 13.2205 67.4558 13.3694 67.4262 13.5154C67.3814 13.7368 67.3892 13.9634 67.3306 14.1826C67.2996 14.2986 67.3053 14.424 67.2884 14.5444C67.271 14.6681 67.2398 14.7898 67.226 14.9137C67.2033 15.1169 67.184 15.321 67.1748 15.525C67.1684 15.671 67.1703 15.8187 67.1875 15.9634C67.201 16.0767 67.2215 16.2008 67.2811 16.2928C67.3173 16.3487 67.4322 16.3723 67.5139 16.3772C67.7812 16.394 68.0367 16.3181 68.2915 16.2493C68.3342 16.2377 68.3695 16.1991 68.4122 16.188C68.5243 16.159 68.5316 16.069 68.5423 15.9811C68.5612 15.8275 68.5635 15.6706 68.5976 15.5207C68.6302 15.3769 68.702 15.2423 68.7421 15.0994C68.7714 14.9945 68.7742 14.8824 68.7944 14.7746C68.8201 14.6385 68.8512 14.5037 68.8803 14.3685C68.9024 14.2654 68.9275 14.1629 68.9465 14.0592C68.9712 13.9256 68.9785 13.7874 69.0173 13.6583C69.0464 13.5617 69.0816 13.4451 69.0788 13.3675C69.0747 13.2556 69.1274 13.1851 69.1564 13.0981C69.2057 12.9493 69.2408 12.7898 69.3214 12.6593C69.3857 12.5551 69.4693 12.4523 69.5917 12.386C69.6787 12.3389 69.7394 12.242 69.8502 12.2291C69.9863 12.2133 70.1239 12.1796 70.2583 12.1899C70.355 12.1972 70.4508 12.2133 70.5457 12.2319C70.6295 12.2484 70.7166 12.2609 70.7948 12.293C70.9427 12.3537 71.0959 12.3985 71.2421 12.4645C71.315 12.4975 71.387 12.5329 71.4571 12.5714C71.492 12.5907 71.5268 12.6107 71.5608 12.6317C71.5731 12.6392 71.6575 12.682 71.6575 12.6943C71.7966 12.7894 71.9417 12.8756 72.0817 12.9695C72.1408 13.0091 72.1948 13.0563 72.2489 13.1026C72.3232 13.1664 72.4036 13.2256 72.4669 13.2993C72.5884 13.4404 72.6928 13.5964 72.8169 13.7351C72.9826 13.9203 73.0514 14.1533 73.1607 14.367C73.2211 14.4846 73.2738 14.607 73.3045 14.736C73.3358 14.8666 73.3373 14.9918 73.3176 15.1231C73.3146 15.1437 73.3062 15.1564 73.2985 15.1759C73.2753 15.2325 73.2522 15.289 73.228 15.3454C73.1802 15.4562 73.1294 15.5658 73.0741 15.6731C73.0404 15.7383 73.0072 15.8045 72.9686 15.8669C72.9388 15.9153 72.9015 15.9672 72.8599 16.0064C72.8357 16.0294 72.8055 16.0454 72.783 16.069C72.7333 16.1218 72.6872 16.1773 72.6343 16.2274C72.5299 16.3258 72.4122 16.41 72.2819 16.4709C72.1533 16.5311 72.0401 16.6235 71.916 16.6943C71.8193 16.7491 71.716 16.7924 71.6161 16.8421C71.507 16.8964 71.4016 16.9598 71.2888 17.0048C71.1737 17.0509 71.0509 17.0775 70.9326 17.1161C70.8031 17.1587 70.6769 17.2119 70.5459 17.2485C70.419 17.2839 70.2874 17.3034 70.1584 17.3315C70.0022 17.3658 69.8478 17.4155 69.6899 17.4322C69.5666 17.4453 69.4387 17.4378 69.3135 17.4078C69.2282 17.3874 69.1354 17.3724 69.0503 17.3846C68.924 17.4031 68.8265 17.3467 68.7247 17.297C68.6276 17.2494 68.5687 17.1643 68.5427 17.0608C68.5365 17.0366 68.5322 17.0117 68.5286 16.9868C68.526 16.9677 68.5299 16.9287 68.5206 16.9122C68.5149 16.9019 68.5046 16.8955 68.4917 16.8919ZM70.3177 13.0303C70.3044 13.0411 70.2926 13.0543 70.2859 13.0681C70.2722 13.0963 70.2823 13.1291 70.2731 13.1585C70.2289 13.2995 70.1586 13.4331 70.1228 13.5756C70.0585 13.8307 70.0159 14.0911 69.9565 14.3475C69.8948 14.6139 69.8058 14.8752 69.7623 15.1444C69.719 15.4108 69.7111 15.6839 69.7004 15.9546C69.6939 16.1205 69.7049 16.2679 69.7604 16.4248C69.805 16.5509 69.9136 16.5701 70.0362 16.586C70.1503 16.601 70.2664 16.5982 70.3792 16.5746C70.5312 16.5429 70.6831 16.511 70.8349 16.4786C70.881 16.469 70.929 16.4636 70.9721 16.4463C71.2357 16.3391 71.498 16.2311 71.7375 16.0718C71.9859 15.9063 72.2049 15.7295 72.2757 15.4142C72.3348 15.1506 72.3295 14.8932 72.2219 14.6512C72.1222 14.4272 71.9889 14.218 71.8669 14.0041C71.8255 13.9316 71.7835 13.8543 71.7237 13.7983C71.5516 13.6367 71.3748 13.4792 71.1905 13.3317C71.0893 13.2507 70.9753 13.1787 70.8561 13.1289C70.7301 13.0764 70.594 13.0567 70.4626 13.0233C70.4227 13.0132 70.379 12.9956 70.3395 13.0158C70.3322 13.0196 70.3247 13.0245 70.3177 13.0303Z" fill="#F37348"/>
<path d="M25.0315 15.7071C25.0234 15.7557 25.0283 15.8492 25.027 15.8708C25.023 15.9487 25.017 16.0267 25.017 16.1045C25.0131 16.324 24.9825 16.5668 25.006 16.7841C25.0262 16.9676 25.0583 17.1005 24.8976 17.239C24.8346 17.2932 24.7964 17.3762 24.745 17.4445C24.6905 17.517 24.6472 17.613 24.5741 17.6518C24.5047 17.6887 24.3915 17.6925 24.3187 17.6614C24.2261 17.622 24.1549 17.5326 24.0977 17.4844C24.1062 17.3114 24.0786 17.1492 24.1294 17.0169C24.1973 16.8397 24.1356 16.6641 24.183 16.4879C24.2263 16.3259 24.1958 16.145 24.2063 15.9731C24.2173 15.7939 24.2423 15.6156 24.2541 15.4364C24.2651 15.2713 24.2644 15.1057 24.273 14.9404C24.2796 14.8109 24.2861 14.681 24.3041 14.5529C24.3157 14.4699 24.3322 14.3878 24.3493 14.3057C24.3643 14.2324 24.3782 14.1418 24.363 14.0687C24.3444 13.9791 24.3532 13.8994 24.3688 13.8093C24.3806 13.7407 24.3774 13.6711 24.3808 13.6019C24.3823 13.5706 24.3815 13.5333 24.3928 13.5037C24.4423 13.3764 24.3988 13.2362 24.4271 13.1052C24.4425 13.0347 24.4526 12.9633 24.4616 12.8917C24.4706 12.8214 24.4869 12.7464 24.4863 12.6757C24.485 12.5426 24.5499 12.4035 24.5853 12.2753C24.6024 12.2131 24.6127 12.1482 24.6374 12.0893C24.6627 12.0288 24.706 11.9761 24.733 11.9163C24.7621 11.852 24.76 11.7583 24.8316 11.721C24.8794 11.6959 24.9482 11.6981 25.0009 11.6932C25.0635 11.6872 25.1389 11.6771 25.1989 11.6974C25.2624 11.7189 25.3233 11.7487 25.3813 11.7815C25.4829 11.8391 25.4757 11.9369 25.5012 12.0183C25.5515 12.1799 25.5205 12.3525 25.5434 12.5186C25.5635 12.6645 25.5935 12.809 25.612 12.9552C25.6289 13.0902 25.6321 13.227 25.6486 13.362C25.6613 13.4642 25.7065 13.5571 25.6975 13.6604C25.6887 13.76 25.7206 13.8749 25.7652 13.9639C25.8083 14.05 25.8398 14.1589 25.8615 14.2539C25.8915 14.3846 25.9101 14.5177 25.9369 14.6491C25.9714 14.8174 25.9755 14.9901 26.0546 15.1515C26.1035 15.251 26.1017 15.374 26.1335 15.4833C26.1598 15.5742 26.1828 15.67 26.2314 15.7508C26.4027 15.6651 26.4745 15.4167 26.5101 15.2437C26.5304 15.1449 26.5754 15.0534 26.5973 14.955C26.6087 14.9029 26.6153 14.8568 26.6337 14.8062C26.7405 14.5126 26.8354 14.2142 26.9312 13.9167C26.9422 13.8829 26.9344 13.8432 26.9435 13.8085C26.999 13.5941 27.0579 13.3809 27.113 13.1665C27.1394 13.0634 27.1589 12.9588 27.1833 12.8553C27.2094 12.7451 27.2375 12.6354 27.2656 12.5257C27.2806 12.4669 27.3089 12.4093 27.3117 12.3503C27.322 12.1315 27.5612 11.8233 27.7704 11.7853C27.8295 11.7746 27.8964 11.7993 27.9586 11.813C28.0546 11.834 28.1536 11.8494 28.2434 11.8863C28.3221 11.9184 28.336 12.0003 28.3277 12.0803C28.3146 12.2065 28.2906 12.3321 28.2867 12.4586C28.2799 12.678 28.2916 12.8984 28.2831 13.1179C28.2741 13.3442 28.2475 13.5697 28.2336 13.7958C28.2265 13.9114 28.234 14.0277 28.2286 14.1433C28.2162 14.4067 28.1967 14.6697 28.186 14.9329C28.1804 15.0718 28.2179 15.2203 28.1802 15.3481C28.1352 15.5 28.1701 15.6488 28.1425 15.7965C28.1069 15.9857 28.1688 16.178 28.1133 16.3715C28.0863 16.4659 28.1341 16.5805 28.1423 16.6864C28.1573 16.8836 28.1609 17.0821 28.1843 17.2784C28.2042 17.4469 28.3277 17.5988 28.3056 17.7716C28.2976 17.8335 28.2246 17.8886 28.1729 17.9186C28.0677 17.9795 27.9583 18.0352 27.8422 18.0721C27.7828 18.0908 27.7219 18.1047 27.6602 18.1116C27.5725 18.1214 27.5196 18.0927 27.4639 18.0282C27.4204 17.9782 27.3629 17.9064 27.3569 17.8374C27.3447 17.6959 27.3198 17.5556 27.3038 17.4143C27.2958 17.3438 27.2971 17.2722 27.2918 17.2015C27.2782 17.0233 27.2637 16.8454 27.2491 16.6675C27.2382 16.5357 27.2193 16.4039 27.2182 16.2721C27.2176 16.1932 27.2508 16.1145 27.2566 16.0348C27.2635 15.9431 27.2834 15.802 27.232 15.72C27.2234 15.7067 27.2097 15.6955 27.1938 15.6949C27.1346 15.6921 27.0954 15.8612 27.0787 15.9028C27.0444 15.9889 27.009 16.0749 26.9615 16.1546C26.904 16.2504 26.8046 16.3205 26.7274 16.4054C26.6706 16.468 26.6226 16.5392 26.5649 16.6011C26.4691 16.7036 26.3686 16.8 26.2224 16.8302C25.9296 16.8907 25.7142 16.7649 25.4992 16.5777C25.3025 16.4063 25.2446 16.1849 25.1769 15.9574C25.1589 15.8972 25.1413 15.8368 25.1154 15.7793C25.1055 15.7575 25.0761 15.6779 25.0468 15.6775C25.0393 15.6775 25.0345 15.6893 25.0315 15.7071Z" fill="#F37348"/>
<path d="M55.794 15.1104C55.8343 14.9672 55.8362 14.8064 55.8465 14.6641C55.8559 14.5312 55.8686 14.3968 55.908 14.2691C55.9487 14.1373 56.0347 14.0432 56.1181 13.9352C56.1674 13.8715 56.2325 13.819 56.2765 13.7521C56.3187 13.6876 56.3733 13.6951 56.4286 13.7054C56.4777 13.7146 56.5279 13.7262 56.5778 13.7285C56.6143 13.7303 56.6518 13.7146 56.6867 13.7249C56.7844 13.7532 56.8929 13.8458 56.9709 13.9088C56.9956 13.9287 57.0031 13.9819 57.0024 14.0194C56.9986 14.2329 56.9776 14.4468 56.9872 14.6594C56.9932 14.7957 57.0496 14.929 57.0702 15.0658C57.1025 15.2812 57.1122 15.5009 57.154 15.7144C57.1822 15.8582 57.2495 15.9947 57.2988 16.1345C57.3066 16.1564 57.3081 16.181 57.3194 16.2003C57.3488 16.2511 57.3889 16.2957 57.4397 16.2279C57.4939 16.1555 57.5404 16.0764 57.5837 15.9967C57.6424 15.8889 57.702 15.7804 57.7479 15.6668C57.7905 15.5616 57.8158 15.449 57.8488 15.3397C57.86 15.3026 57.8707 15.2653 57.8825 15.2283C57.9196 15.1119 57.9631 14.9974 57.992 14.8791C58.0111 14.8017 58.0066 14.7188 58.0173 14.639C58.0362 14.4974 58.0465 14.3531 58.0823 14.2155C58.1549 13.9358 58.1481 13.6497 58.1723 13.3661C58.1954 13.096 58.213 12.8255 58.2257 12.555C58.228 12.5055 58.2244 12.4579 58.2209 12.4093C58.2173 12.3566 58.2332 12.3004 58.2417 12.2479C58.2612 12.1285 58.2807 12.0089 58.3002 11.8895C58.3127 11.8138 58.3257 11.736 58.3592 11.6664C58.3982 11.5851 58.4616 11.5586 58.5311 11.5071C58.6119 11.4473 58.6865 11.4786 58.7769 11.4934C58.9636 11.5238 59.0596 11.6602 59.0967 11.7941C59.1203 11.8794 59.1555 11.9767 59.1484 12.0665C59.146 12.0955 59.1379 12.1218 59.1405 12.1514C59.1443 12.1954 59.157 12.2389 59.1621 12.2828C59.1685 12.3368 59.1846 12.3893 59.178 12.4401C59.1612 12.5677 59.1426 12.695 59.1323 12.8232C59.125 12.9125 59.122 13.0021 59.119 13.0917C59.1169 13.1646 59.0987 13.2482 59.1205 13.3194C59.1319 13.3569 59.1375 13.3905 59.1327 13.4297C59.1239 13.5046 59.0892 13.574 59.0852 13.6494C59.0819 13.7067 59.0586 13.7628 59.0545 13.8203C59.0457 13.9469 59.0506 14.0749 59.0361 14.2009C59.0172 14.3613 58.987 14.5205 58.9574 14.6796C58.9368 14.7895 58.915 14.8999 58.883 15.0069C58.8335 15.1719 58.7664 15.332 58.7223 15.4983C58.6811 15.6533 58.5898 15.7843 58.5257 15.9264C58.4149 16.172 58.2915 16.4211 58.0996 16.618C57.9984 16.7218 57.8688 16.7974 57.7539 16.8881C57.7059 16.926 57.6667 16.9758 57.6167 17.0105C57.4682 17.1132 57.3265 17.2358 57.1627 17.3031C57.0221 17.3607 56.855 17.371 56.6985 17.3202C56.6734 17.3121 56.6443 17.2966 56.6305 17.2759C56.5514 17.1558 56.4736 17.0347 56.401 16.9108C56.366 16.8515 56.3332 16.7872 56.3174 16.7209C56.2608 16.4845 56.2121 16.2462 56.1605 16.0087C56.1541 15.9793 56.1523 15.9332 56.1236 15.915C56.1058 15.9039 56.0887 15.9088 56.0745 15.9214C56.0488 15.9442 56.0203 15.9647 55.9927 15.9847C55.8023 16.1212 55.6336 16.2907 55.4071 16.3718C55.2892 16.4138 55.1668 16.444 55.0515 16.4916C54.9021 16.5531 54.742 16.5587 54.5864 16.5182C54.5084 16.4978 54.4333 16.468 54.3603 16.4346C54.3294 16.4206 54.2962 16.3962 54.2644 16.3866C54.2239 16.3743 54.1787 16.3827 54.1371 16.3686C54.055 16.3407 54.0244 16.2747 53.9796 16.208C53.9284 16.1321 53.8739 16.0584 53.8287 15.9787C53.732 15.8083 53.6924 15.6158 53.651 15.4274C53.6193 15.2831 53.6103 15.1325 53.6043 14.9841C53.5955 14.7707 53.5968 14.5567 53.5974 14.343C53.5976 14.2526 53.5964 14.1598 53.6156 14.0725C53.6326 13.9967 53.5867 13.9002 53.5996 13.8736C53.6547 13.7581 53.5278 13.6362 53.6304 13.5271C53.6568 13.499 53.6169 13.4171 53.6306 13.3661C53.651 13.2894 53.6832 13.2126 53.726 13.146C53.7927 13.0422 53.8748 12.9483 53.9449 12.8467C53.9614 12.8232 53.9485 12.7805 53.9629 12.7537C54.0473 12.5953 54.3122 12.5561 54.4732 12.6363C54.667 12.7329 54.6674 12.892 54.6597 13.0594C54.6537 13.1843 54.6183 13.3078 54.61 13.4327C54.5862 13.7866 54.5952 14.1377 54.7236 14.4764C54.7525 14.5527 54.7649 14.6354 54.7846 14.7151C54.8316 14.9068 54.8787 15.099 55.0026 15.2587C55.0849 15.3646 55.1883 15.4561 55.2573 15.5693C55.3199 15.6717 55.3904 15.6177 55.4317 15.586C55.5603 15.4876 55.6819 15.3657 55.7535 15.2186C55.7702 15.1843 55.7835 15.1479 55.794 15.1104Z" fill="#F37348"/>
<path d="M65.731 16.6275C65.7512 16.7027 65.7471 16.8032 65.6601 16.8212C65.5364 16.8469 65.4121 16.8699 65.2878 16.8917C65.1699 16.9125 65.0773 16.9335 64.9594 16.896C64.8835 16.8718 64.8143 16.8521 64.7367 16.8407C64.658 16.8292 64.5764 16.7841 64.5014 16.7584C64.436 16.7359 64.3687 16.7188 64.3044 16.6941C64.2139 16.6594 64.1209 16.6275 64.0369 16.5805C63.8734 16.4892 63.7231 16.3763 63.5647 16.2772C63.5253 16.2526 63.4839 16.2273 63.4376 16.2239C63.2751 16.2116 63.2777 16.4984 63.2486 16.6026C63.2243 16.689 63.1988 16.7781 63.154 16.8544C63.1148 16.9211 63.0411 16.9665 62.9952 17.0304C62.9183 17.1372 62.8049 17.1687 62.6887 17.1959C62.6068 17.2152 62.5234 17.237 62.4403 17.2398C62.2444 17.2463 62.1762 17.156 62.2313 16.968C62.2607 16.8673 62.3055 16.7713 62.3355 16.6708C62.4135 16.4112 62.4956 16.1523 62.559 15.8888C62.5976 15.7292 62.598 15.5607 62.627 15.398C62.6632 15.1944 62.7155 14.9938 62.7528 14.7904C62.7832 14.6238 62.8017 14.4551 62.8259 14.2877C62.831 14.253 62.8398 14.2189 62.845 14.1842C62.8728 13.9919 62.8885 13.7969 62.9309 13.6079C62.9875 13.3566 63.037 13.0969 63.1444 12.8662C63.2076 12.7303 63.2831 12.5715 63.4012 12.4759C63.4395 12.4446 63.4685 12.4 63.5056 12.3658C63.5879 12.2901 63.6813 12.2294 63.7675 12.1585C63.8511 12.0895 63.9342 12.0175 64.0358 11.9759C64.2247 11.8985 64.4015 11.8803 64.5925 11.8811C64.6863 11.8816 64.7826 11.8674 64.8735 11.8833C64.9388 11.8946 64.9959 11.9476 65.0591 11.9772C65.2246 12.0547 65.4001 12.115 65.5546 12.2101C65.6807 12.2877 65.7958 12.394 65.8905 12.5085C66.0041 12.6461 66.1053 12.7972 66.1151 12.9901C66.1239 13.1646 66.1391 13.335 66.0465 13.4981C66.0116 13.5594 66.0165 13.6421 65.9942 13.7122C65.9308 13.9126 65.7979 14.0715 65.6659 14.2279C65.5834 14.3257 65.4865 14.4121 65.3896 14.4961C65.2899 14.582 65.187 14.6663 65.0767 14.7376C64.9665 14.809 64.8469 14.8669 64.7284 14.9241C64.5809 14.9955 64.4302 15.0598 64.281 15.1277C64.1659 15.1802 64.1541 15.3279 64.2493 15.4143C64.4081 15.5586 64.5532 15.7189 64.7185 15.8548C64.8357 15.9512 64.9292 16.0809 65.0662 16.1499C65.1952 16.2146 65.3195 16.2884 65.4382 16.3703C65.5383 16.4393 65.6599 16.4628 65.716 16.5855C65.7218 16.5979 65.727 16.612 65.731 16.6275ZM63.6369 14.6367C63.6534 14.6508 63.6895 14.6425 63.7098 14.6416C63.7497 14.6397 63.7893 14.6363 63.8288 14.6302C63.9008 14.6195 63.9709 14.5994 64.0371 14.5692C64.2502 14.4714 64.4778 14.4076 64.6658 14.2575C64.8066 14.1452 64.9635 14.0213 64.9755 13.8451C64.9898 13.6374 65.046 13.4242 64.9015 13.209C64.7586 12.9961 64.6216 12.8238 64.3539 12.7869C64.2191 12.7685 64.1179 12.8371 64.1098 12.976C64.1085 13.0004 64.1038 13.0263 64.0939 13.0484C64.0566 13.1318 64.0095 13.2113 63.9795 13.2968C63.9518 13.3761 63.9464 13.463 63.9218 13.5435C63.8706 13.7112 63.8052 13.8747 63.7608 14.044C63.7261 14.1761 63.6991 14.3098 63.6723 14.4436C63.6652 14.4791 63.6579 14.5147 63.6509 14.5503C63.6474 14.5672 63.6269 14.6043 63.6284 14.6193C63.6294 14.6273 63.6324 14.6328 63.6369 14.6367Z" fill="#F37348"/>
<path d="M37.1816 14.3665C37.1811 14.3663 37.1666 14.354 37.179 14.3643C37.1706 14.3575 37.2572 14.1697 37.2654 14.1496C37.2949 14.0763 37.3243 14.003 37.3539 13.9297C37.3839 13.8549 37.4139 13.7803 37.4439 13.7055C37.4593 13.6671 37.4748 13.6287 37.4902 13.5904C37.5005 13.5651 37.5232 13.531 37.5147 13.5023C37.5054 13.4708 37.4463 13.4894 37.4182 13.4915C37.3483 13.4969 37.2782 13.5018 37.2088 13.5119C36.9685 13.5468 36.725 13.57 36.4903 13.6283C36.2059 13.6988 35.9073 13.6962 35.6317 13.8186C35.5519 13.8542 35.4613 13.8422 35.3794 13.8208C35.3468 13.8122 35.2821 13.8034 35.2566 13.7807C35.233 13.7595 35.2208 13.7127 35.2144 13.683C35.206 13.6439 35.1961 13.6054 35.1865 13.5666C35.1646 13.4804 35.1668 13.399 35.2274 13.3284C35.272 13.2766 35.2797 13.1913 35.2999 13.1199C35.3177 13.0562 35.331 12.9964 35.4064 12.9694C35.4278 12.9617 35.4441 12.9088 35.4435 12.877C35.4413 12.7892 35.4853 12.7214 35.5571 12.6741C35.5903 12.6518 35.6293 12.6432 35.6647 12.6248C35.7114 12.6003 35.7622 12.5866 35.8145 12.5812C35.9592 12.5662 36.1049 12.5967 36.25 12.5913C36.3997 12.5857 36.5471 12.5583 36.6965 12.5497C36.9329 12.5358 37.1681 12.4987 37.4036 12.4711C37.5157 12.458 37.6289 12.4591 37.7412 12.4486C37.7991 12.4432 37.8565 12.4346 37.9127 12.4196C37.9461 12.4106 37.9871 12.4042 38.0081 12.3738C38.0254 12.3489 38.0162 12.3067 38.0529 12.2968C38.1062 12.2825 38.1504 12.3547 38.2033 12.3435C38.2826 12.3266 38.3741 12.3718 38.4612 12.3849C38.5829 12.4029 38.6935 12.4593 38.8305 12.4231C38.9492 12.3918 39.0843 12.4194 39.2118 12.4248C39.3378 12.4301 39.4639 12.4494 39.5895 12.4456C39.654 12.4436 39.714 12.4638 39.7564 12.5137C39.7922 12.556 39.8417 12.6254 39.7941 12.6766C39.7719 12.7008 39.7429 12.7208 39.7178 12.7422C39.6683 12.7844 39.6188 12.8271 39.5727 12.8732C39.5399 12.906 39.5239 12.9368 39.4829 12.9621C39.436 12.9911 39.388 13.0181 39.3389 13.0431C39.2774 13.0747 39.2244 13.1182 39.1616 13.148C39.0397 13.2058 38.9038 13.2238 38.7709 13.2384C38.6667 13.2498 38.5572 13.286 38.4693 13.3413C38.4164 13.3745 38.3919 13.4637 38.3694 13.5325C38.3118 13.7087 38.2556 13.8859 38.2113 14.0658C38.1647 14.2546 38.1227 14.4456 38.0968 14.6378C38.0689 14.8423 38.0762 15.0519 38.0428 15.2551C38.0068 15.4744 38.022 15.6892 38.0327 15.9078C38.04 16.0583 38.0023 16.2111 37.9841 16.3628C37.9808 16.3909 37.9735 16.4186 37.9712 16.4466C37.9523 16.6648 37.6413 16.9323 37.4238 16.9088C37.3777 16.9036 37.3348 16.8644 37.292 16.8382C37.242 16.8078 37.1925 16.7763 37.1456 16.7418C37.1228 16.7249 37.1012 16.7026 37.0875 16.6779C37.0639 16.635 37.0547 16.5849 37.0264 16.5444C36.9895 16.4925 36.9201 16.4711 36.9177 16.401C36.9147 16.3142 36.9074 16.2274 36.9034 16.1406C36.8956 15.967 36.8946 15.7918 36.9205 15.6195C36.922 15.609 36.9237 15.5985 36.9254 15.5882C36.9449 15.4729 36.9274 15.3507 36.9518 15.2371C36.9953 15.0359 37.059 14.8387 37.1117 14.6393C37.1246 14.5905 37.125 14.5384 37.1363 14.4891C37.1449 14.4524 37.1623 14.4177 37.1816 14.3665Z" fill="#F37348"/>
<path d="M62.3148 13.7969C62.2882 13.7389 62.2612 13.6799 62.2258 13.6268C62.1898 13.573 62.1339 13.5305 62.1034 13.4748C62.0535 13.3831 62.0256 13.28 61.9735 13.1899C61.8533 12.9827 61.7058 12.7919 61.517 12.6395C61.4056 12.5495 61.2686 12.4897 61.1488 12.4085C60.9784 12.2927 60.7943 12.2702 60.5962 12.3111C60.5433 12.3221 60.4976 12.3171 60.45 12.3478C60.4084 12.375 60.3767 12.4145 60.3371 12.4443C60.2693 12.4951 60.2072 12.5435 60.1842 12.6277C60.163 12.7062 60.1291 12.7821 60.1148 12.8622C60.1034 12.9252 60.1328 12.9889 60.1197 13.0465C60.1186 13.0513 60.1174 13.056 60.1157 13.0607C60.0589 13.218 59.945 13.3608 59.8443 13.4934C59.6651 13.7301 59.5254 13.9866 59.4137 14.2573C59.3582 14.3913 59.3273 14.5347 59.2802 14.6723C59.206 14.8879 59.1198 15.1001 59.1383 15.3353C59.1511 15.4992 59.179 15.6666 59.1593 15.8278C59.1387 15.9946 59.2144 16.1065 59.3063 16.2233C59.3217 16.2432 59.3254 16.2719 59.3412 16.2916C59.4128 16.3804 59.4739 16.4843 59.5637 16.5508C59.6685 16.6282 59.7974 16.6766 59.9193 16.7298C60.0053 16.767 60.0951 16.8035 60.187 16.8181C60.2873 16.8339 60.3949 16.8099 60.4942 16.8286C60.7979 16.8854 61.0692 16.7831 61.3436 16.6873C61.9202 16.4858 62.25 15.9461 62.3703 15.3831C62.4751 14.8933 62.5238 14.2548 62.3148 13.7969ZM61.4698 15.6613C61.4566 15.6876 61.4418 15.7134 61.4261 15.7386C61.4188 15.756 61.4098 15.7723 61.3972 15.7869C61.3948 15.7897 61.3914 15.7918 61.3888 15.7946C61.3093 15.9054 61.2062 15.9999 61.0802 16.0554C60.7319 16.2091 60.3349 15.9423 60.2314 15.6058C60.1246 15.2585 60.1084 14.8954 60.2631 14.5388C60.3669 14.2998 60.4204 14.0454 60.518 13.804C60.5508 13.7226 60.5973 13.6458 60.6453 13.5702C60.668 13.5344 60.6965 13.4988 60.716 13.4619C60.7289 13.4377 60.7304 13.4111 60.7437 13.3869C60.7552 13.3655 60.7803 13.3477 60.808 13.3494C60.8281 13.3507 60.8446 13.3616 60.8583 13.3749C60.8635 13.3796 60.8682 13.3848 60.8727 13.3899C60.9717 13.5031 61.0204 13.6238 61.0626 13.7575C61.1044 13.8889 61.1886 14.0181 61.2516 14.1437C61.3818 14.4025 61.5496 14.6813 61.6216 14.9621C61.6786 15.1833 61.5734 15.4572 61.4698 15.6613Z" fill="#F37348"/>
</mask>
<g mask="url(#mask0)">
<rect x="-12" width="178" height="20" fill="url(#paint0_linear)"/>
</g>
<defs>
<linearGradient id="paint0_linear" x1="77.4917" y1="2.00926e-08" x2="77.8271" y2="17.0767" gradientUnits="userSpaceOnUse">
<stop stop-color="#F7FCFF" stop-opacity="0.3"/>
<stop offset="1" stop-color="#F7FCFF" stop-opacity="0.1"/>
</linearGradient>
</defs>
</svg>
