<svg width="182" height="40" viewBox="0 0 182 40" fill="none" xmlns="http://www.w3.org/2000/svg">
<mask id="mask0" mask-type="alpha" maskUnits="userSpaceOnUse" x="0" y="0" width="182" height="40">
<path d="M66.9277 6.36035C63.344 6.36035 60.573 9.04816 60.573 12.4167V12.4497C60.573 15.8179 63.3105 18.4727 66.8947 18.4727C70.4785 18.4727 73.2494 15.7848 73.2494 12.4167V12.3833C73.2494 9.01516 70.5115 6.36035 66.9277 6.36035ZM69.3335 12.4497C69.3335 13.8104 68.4045 15.0381 66.9277 15.0381C65.4342 15.0381 64.4885 13.7936 64.4885 12.4167V12.3833C64.4885 11.0231 65.4179 9.79492 66.8947 9.79492C68.3878 9.79492 69.3335 11.0394 69.3335 12.4167V12.4497ZM95.5532 6.60941H85.4226C85.2601 6.60941 85.1285 6.74102 85.1285 6.90349V9.6003C85.1285 9.76277 85.2601 9.8948 85.4226 9.8948H88.5468V17.9295C88.5468 18.092 88.6784 18.224 88.8409 18.224H92.1349C92.2973 18.224 92.4294 18.092 92.4294 17.9295V9.8948H95.5532C95.7156 9.8948 95.8472 9.76277 95.8472 9.6003V6.90349C95.8472 6.74102 95.7156 6.60941 95.5532 6.60941ZM79.554 10.7243C78.3263 10.492 78.0108 10.2926 78.0108 9.97754V9.94453C78.0108 9.66203 78.2765 9.46312 78.857 9.46312C79.8622 9.46312 81.0685 9.76577 82.1145 10.4512C82.2444 10.5361 82.4189 10.501 82.5097 10.3749L84.0646 8.21953C84.161 8.08621 84.1276 7.90231 83.9943 7.80585C82.6932 6.86447 81.099 6.39336 78.9899 6.39336C75.7876 6.39336 74.0618 8.1025 74.0618 10.3093V10.3428C74.0618 12.7982 76.3518 13.545 78.9569 14.0757C80.2013 14.3248 80.5661 14.5074 80.5661 14.8392V14.8722C80.5661 15.1877 80.2673 15.3699 79.5707 15.3699C78.286 15.3699 76.9275 15.0149 75.7186 14.1653C75.5952 14.0787 75.4254 14.1049 75.3285 14.2202L73.6215 16.2551C73.5144 16.3829 73.5349 16.5732 73.6652 16.6769C75.1279 17.8425 77.1534 18.4397 79.3881 18.4397C82.5076 18.4397 84.5151 16.9461 84.5151 14.5074V14.474C84.5151 12.1342 82.5243 11.2717 79.554 10.7243ZM174.376 6.60941H170.224C170.061 6.60941 169.93 6.74102 169.93 6.90349V17.9295C169.93 18.092 170.061 18.224 170.224 18.224H174.244C178.939 18.224 181.295 15.7848 181.295 12.3503V12.3168C181.295 8.88269 178.989 6.60941 174.376 6.60941ZM177.38 12.433C177.38 14.1091 176.235 14.8392 174.459 14.8392H173.812V9.99383H174.459C176.235 9.99383 177.38 10.7243 177.38 12.4V12.433ZM59.2171 6.60941H55.9231C55.7606 6.60941 55.6286 6.74102 55.6286 6.90349V10.7076H52.0778V6.90349C52.0778 6.74102 51.9463 6.60941 51.7838 6.60941H48.4898C48.3269 6.60941 48.1953 6.74102 48.1953 6.90349V17.9295C48.1953 18.092 48.3269 18.224 48.4898 18.224H51.7838C51.9463 18.224 52.0778 18.092 52.0778 17.9295V14.0594H55.6286V17.9295C55.6286 18.092 55.7606 18.224 55.9231 18.224H59.2171C59.3795 18.224 59.5116 18.092 59.5116 17.9295V6.90349C59.5116 6.74102 59.3795 6.60941 59.2171 6.60941ZM133.919 6.60941H130.545C130.415 6.60941 130.3 6.69515 130.263 6.82032L128.947 11.2867C128.866 11.5628 128.477 11.5697 128.386 11.2966L126.875 6.77703C126.835 6.657 126.722 6.57597 126.596 6.57597H123.668C123.541 6.57597 123.429 6.657 123.389 6.77703L121.878 11.2966C121.787 11.5697 121.398 11.5628 121.317 11.2867L120.001 6.82032C119.964 6.69515 119.849 6.60941 119.718 6.60941H116.278C116.078 6.60941 115.937 6.80446 115.999 6.99436L119.607 18.1036C119.646 18.2249 119.759 18.3068 119.887 18.3068H122.85C122.974 18.3068 123.085 18.2283 123.127 18.1109L124.821 13.3178C124.914 13.0559 125.283 13.0559 125.376 13.3178L127.07 18.1109C127.112 18.2283 127.223 18.3068 127.347 18.3068H130.31C130.438 18.3068 130.551 18.2249 130.59 18.1036L134.199 6.99436C134.261 6.80446 134.119 6.60941 133.919 6.60941ZM168.706 14.9056H163.542V6.90349C163.542 6.74102 163.41 6.60941 163.248 6.60941H159.954C159.791 6.60941 159.659 6.74102 159.659 6.90349V17.9295C159.659 18.092 159.791 18.224 159.954 18.224H168.706C168.869 18.224 169.001 18.092 169.001 17.9295V15.1997C169.001 15.0372 168.869 14.9056 168.706 14.9056ZM106.752 15.0381H100.874V14.7453C100.874 14.7453 100.874 14.7444 100.874 14.744V14.0714C100.874 14.0714 100.874 14.0706 100.874 14.0701V13.7769H106.255C106.417 13.7769 106.549 13.6453 106.549 13.4828V11.2674C106.549 11.105 106.417 10.9729 106.255 10.9729H100.874V10.6801V10.6789V10.0894V10.0877V9.79492H106.67C106.832 9.79492 106.964 9.66332 106.964 9.50085V6.90349C106.964 6.74102 106.832 6.60941 106.67 6.60941H97.3523C97.1898 6.60941 97.0582 6.74102 97.0582 6.90349V17.9295C97.0582 18.092 97.1898 18.224 97.3523 18.224H106.752C106.915 18.224 107.047 18.092 107.047 17.9295V15.3326C107.047 15.1697 106.915 15.0381 106.752 15.0381ZM140.164 6.36035C136.58 6.36035 133.809 9.04816 133.809 12.4167V12.4497C133.809 15.8179 136.547 18.4727 140.131 18.4727C143.715 18.4727 146.486 15.7848 146.486 12.4167V12.3833C146.486 9.01516 143.748 6.36035 140.164 6.36035ZM142.57 12.4497C142.57 13.8104 141.641 15.0381 140.164 15.0381C138.671 15.0381 137.725 13.7936 137.725 12.4167V12.3833C137.725 11.0231 138.654 9.79492 140.131 9.79492C141.624 9.79492 142.57 11.0394 142.57 12.4167V12.4497ZM156.279 14.5477C156.182 14.4054 156.227 14.2107 156.378 14.1263C157.62 13.4293 158.382 12.2993 158.382 10.7243V10.6909C158.382 9.49613 158.017 8.63364 157.32 7.9366C156.507 7.12383 155.197 6.60941 153.139 6.60941H147.758C147.596 6.60941 147.464 6.74102 147.464 6.90349V17.9295C147.464 18.092 147.596 18.224 147.758 18.224H151.052C151.215 18.224 151.347 18.092 151.347 17.9295V14.9056H152.176L154.28 18.0916C154.334 18.1743 154.426 18.224 154.525 18.224H158.239C158.475 18.224 158.615 17.9587 158.481 17.7636L156.279 14.5477ZM154.516 11.0064C154.516 11.7197 153.952 12.1342 153.023 12.1342H151.347V9.86137H153.039C153.935 9.86137 154.516 10.2266 154.516 10.9729V11.0064ZM117.139 14.9056H111.974V6.90349C111.974 6.74102 111.843 6.60941 111.68 6.60941H108.386C108.224 6.60941 108.092 6.74102 108.092 6.90349V17.9295C108.092 18.092 108.224 18.224 108.386 18.224H117.139C117.301 18.224 117.433 18.092 117.433 17.9295V15.1997C117.433 15.0372 117.301 14.9056 117.139 14.9056Z" fill="#F37349"/>
<path fill-rule="evenodd" clip-rule="evenodd" d="M34.4355 40C37.5088 40 40 37.5085 40 34.4353V5.5647C40 2.49146 37.5088 0 34.4355 0H5.56445C2.49121 0 0 2.49146 0 5.5647V34.4353C0 37.5085 2.49121 40 5.56445 40H34.4355ZM14.3486 14.2935C14.3486 14.3613 14.376 14.4226 14.4199 14.4675L19.5186 19.6606C19.5996 19.7595 19.6396 19.8801 19.6396 20C19.6396 20.1206 19.5996 20.241 19.5186 20.3396L14.4199 25.533C14.376 25.5776 14.3486 25.6394 14.3486 25.707C14.3486 25.8374 14.4512 25.9412 14.5781 25.9497H15.4629V33.1025C15.4629 33.3992 15.2217 33.6396 14.9248 33.6396H6.9043C6.60742 33.6396 6.36719 33.3992 6.36719 33.1025V6.89795C6.36719 6.60132 6.60742 6.36035 6.9043 6.36035H14.9248C15.2217 6.36035 15.4629 6.60132 15.4629 6.89795V14.0508H14.5781C14.4512 14.0593 14.3486 14.1631 14.3486 14.2935ZM25.0947 6.36035H33.0957C33.3936 6.36035 33.6338 6.60132 33.6338 6.89795V33.1025C33.6338 33.3992 33.3936 33.6396 33.0957 33.6396H25.0947C24.7979 33.6396 24.5576 33.3992 24.5576 33.1025V25.9497H25.4502C25.5781 25.9412 25.6807 25.8374 25.6807 25.707C25.6807 25.6519 25.6592 25.6033 25.6279 25.5625L20.5039 20.342C20.4209 20.2432 20.3799 20.1218 20.3799 20C20.3799 19.8787 20.4209 19.7573 20.5039 19.658L25.6279 14.438C25.6592 14.3967 25.6807 14.3484 25.6807 14.2935C25.6807 14.1631 25.5781 14.0593 25.4502 14.0508H24.5576V6.89795C24.5576 6.60132 24.7979 6.36035 25.0947 6.36035Z" fill="#F37349"/>
<path d="M64.4183 29.0594C64.4753 29.0165 64.5135 28.9749 64.5546 28.9076C64.6031 28.8287 64.6365 28.7417 64.7017 28.6757C64.8376 28.5389 65.0532 28.4751 65.1659 28.3165C65.2718 28.1668 65.2165 27.9666 65.1659 27.8076C65.0909 27.5697 65.2049 27.3451 65.1184 27.1239C65.0982 27.0724 65.1106 27 65.0781 26.9635C64.9353 26.8032 64.8864 26.6056 64.9006 26.4101C64.9117 26.2584 64.9983 26.1105 65.0583 25.9639C65.0866 25.8948 65.1509 25.8378 65.1625 25.762C65.1685 25.7212 65.1569 25.6857 65.1655 25.6441C65.184 25.5558 65.1998 25.4456 65.3061 25.44C65.394 25.4357 65.5157 25.2724 65.5466 25.1601C65.6105 24.929 65.8737 24.9097 65.9513 24.9243C66.2111 24.9728 66.3984 24.848 66.584 24.7434C66.8742 24.5805 67.1962 24.5381 67.5014 24.4352C67.6767 24.376 67.8593 24.3396 68.0359 24.283C68.3073 24.196 68.5752 24.0318 68.8457 24.0297C69.1021 24.0275 69.3456 23.9049 69.6306 23.9992C69.7875 24.0507 70.0104 24.0014 70.2051 24.0721C70.3585 24.1278 70.3088 24.265 70.3688 24.3495C70.479 24.5051 70.3628 24.5055 70.2745 24.5801C70.2132 24.6315 70.1536 24.6851 70.0949 24.74C69.9727 24.8544 69.8553 24.974 69.7369 25.0924C69.6881 25.1417 69.6456 25.1982 69.5856 25.233C69.5145 25.2741 69.4416 25.3131 69.3678 25.35C69.0755 25.497 68.7694 25.6145 68.4642 25.7319C68.234 25.8203 68.0038 25.9086 67.774 25.9969C67.6904 26.029 67.567 26.0526 67.5245 26.1422C67.4894 26.2164 67.5292 26.2939 67.5893 26.3407C67.7024 26.4286 67.6956 26.4598 67.5794 26.5443C67.4928 26.6069 67.4165 26.675 67.4718 26.8174C67.4937 26.8744 67.4139 26.97 67.3822 27.0489C67.3153 27.216 67.2322 27.3794 67.1863 27.5525C67.0628 28.0147 66.9544 28.4806 66.8429 28.9458C66.8155 29.0598 66.8515 29.1459 66.9835 29.1417C67.3475 29.1292 67.711 29.1099 68.0745 29.0928C68.5191 29.0722 68.9006 28.8412 69.3151 28.7258C69.6383 28.6354 69.95 28.5132 70.2741 28.4279C70.443 28.3838 70.587 28.5076 70.5386 28.6821C70.4974 28.8313 70.4138 28.977 70.3178 29.0997C70.1708 29.287 70.0014 29.4576 69.8325 29.6261C69.7348 29.7238 69.6255 29.8138 69.5102 29.891C69.3901 29.9712 69.2684 30.0483 69.1462 30.125C69.0343 30.1958 68.8976 30.2601 68.802 30.3518C68.712 30.438 68.5838 30.483 68.4723 30.5366C68.3437 30.5983 68.2151 30.6583 68.0853 30.7171C67.9674 30.7706 67.8486 30.8229 67.729 30.8739C67.621 30.9202 67.4915 30.9545 67.3934 31.0184C67.3462 31.0493 67.2982 31.0253 67.2493 31.0278C67.188 31.0304 67.1211 31.0651 67.0611 31.0793C67.0277 31.0874 66.993 31.0866 66.9604 31.0994C66.8618 31.1384 66.8622 31.2525 66.8729 31.3425C66.9291 31.8278 67.2343 32.0357 67.5653 32.2577C67.6874 32.3396 67.8546 32.2997 67.9969 32.3246C68.309 32.379 68.6087 32.3563 68.9173 32.3045C69.3293 32.235 69.7489 32.2153 70.1609 32.1463C70.6449 32.0648 71.1199 32.0185 71.585 32.2273C71.6484 32.2556 71.7217 32.2603 71.7886 32.2826C71.9476 32.3366 71.9845 32.4751 71.8829 32.6015C71.7736 32.7366 71.678 32.8832 71.5631 33.0131C71.4842 33.1022 71.3595 33.1567 71.296 33.2531C71.0821 33.5793 70.6826 33.6128 70.4061 33.8383C70.3414 33.8906 70.2449 33.933 70.1643 33.9309C69.803 33.9231 69.5235 34.1658 69.1904 34.2335C68.9392 34.2849 68.6837 34.3171 68.4295 34.354C67.9824 34.4196 67.5173 34.4281 67.0929 34.564C66.7559 34.672 66.4584 34.6159 66.1442 34.57C65.9946 34.5482 65.8643 34.5186 65.7794 34.3334C65.7129 34.1894 65.5192 34.098 65.3721 33.9977C65.0609 33.7847 64.8221 33.4996 64.733 33.1451C64.6391 32.7687 64.6267 32.3713 64.5876 31.9825C64.5722 31.8303 64.5336 31.6816 64.5251 31.5285C64.5208 31.4501 64.5242 31.3712 64.5414 31.2945C64.5551 31.2349 64.5889 31.1732 64.5692 31.1106C64.5499 31.0488 64.4873 31.003 64.453 30.949C64.3819 30.8388 64.3116 30.7286 64.2443 30.6163C64.1834 30.5147 64.0557 30.5627 64.0347 30.5902C63.744 30.9674 63.3814 31.2688 63.0067 31.5517C62.6886 31.7918 62.3555 32.0198 62.004 32.2071C61.6401 32.4009 61.2534 32.5591 60.8633 32.6937C60.6682 32.7614 60.4419 32.7331 60.2327 32.7653C60.1195 32.7829 59.9824 32.791 59.8898 32.866C59.7556 32.9749 59.8773 33.2025 59.9373 33.3243C60.0672 33.5879 60.2413 33.8408 60.5499 33.885C60.8063 33.9219 61.0588 34.0059 61.337 33.9291C61.6139 33.8533 61.9136 33.8666 62.2003 33.8198C62.4515 33.7787 62.6959 33.6938 62.9471 33.6552C63.2545 33.6081 63.5657 33.5729 63.8761 33.5652C64.0514 33.5609 64.234 33.6063 64.4029 33.6608C64.5049 33.6934 64.6704 33.8095 64.6314 33.9411C64.6177 33.9866 64.5551 34.0453 64.5191 34.0749C64.3322 34.2288 64.1101 34.3467 63.9451 34.5199C63.6343 34.8457 63.2077 34.8971 62.8232 35.0454C62.4091 35.2049 61.9869 35.3446 61.5659 35.4852C61.2208 35.6006 60.8783 35.733 60.5242 35.8068C59.8735 35.9422 59.2125 35.9705 58.6037 35.6503C58.2762 35.478 58.0139 35.2135 57.9517 34.8088C57.9226 34.6215 57.8295 34.4397 57.8244 34.2537C57.815 33.9056 57.7772 33.557 57.7661 33.2098C57.7575 32.9376 57.7344 32.653 57.7254 32.3743C57.7185 32.1617 57.7729 31.9448 57.7472 31.736C57.7288 31.5838 57.7669 31.4325 57.7734 31.2808C57.7768 31.2015 57.7695 31.1256 57.7481 31.0493C57.7245 30.9661 57.7429 30.9027 57.767 30.8195C57.785 30.7586 57.8004 30.6879 57.7768 30.6266C57.7528 30.564 57.7202 30.5224 57.7228 30.4513C57.7267 30.3291 57.8038 30.2249 57.8231 30.1058C57.8835 29.7307 58.0777 29.3946 58.1622 29.0122C58.2205 28.7486 58.2586 28.4806 58.3075 28.2153C58.3328 28.0785 58.3607 27.9422 58.3954 27.8076C58.4198 27.7129 58.4554 27.6168 58.4434 27.5174C58.4331 27.4291 58.365 27.3519 58.3418 27.2636C58.3028 27.114 58.3045 26.955 58.2882 26.8015C58.2792 26.7183 58.3037 26.6347 58.3452 26.5632C58.3847 26.4946 58.4588 26.4508 58.4734 26.3715C58.4914 26.2759 58.4297 26.1495 58.6042 26.1358C58.6342 26.1332 58.6535 26.0629 58.6869 26.0346C58.7392 25.9904 58.8026 25.9591 58.8554 25.9154C58.9364 25.8485 59.0041 25.7624 59.0924 25.7084C59.1897 25.6488 59.3029 25.6141 59.4109 25.5721C59.5198 25.5296 59.627 25.4752 59.7406 25.455C59.9116 25.4242 60.0874 25.4194 60.261 25.401C60.3613 25.3903 60.4612 25.3749 60.5611 25.3603C60.9533 25.3037 61.34 25.3851 61.7284 25.398C62.0199 25.4079 62.2471 25.5515 62.5103 25.5965C62.7058 25.6295 62.8515 25.744 62.8661 25.9047C62.8802 26.0547 62.8078 26.2481 62.7066 26.3643C62.5844 26.5036 62.4014 26.6035 62.2269 26.6802C62.0254 26.7685 61.8471 26.8881 61.5822 26.8611C61.4051 26.8431 61.226 26.8671 61.0523 26.904C60.9096 26.934 60.7578 26.9554 60.6228 27.0141C60.5216 27.0583 60.4723 27.1916 60.4016 27.273C60.1817 27.5255 60.1007 27.8492 60.0389 28.1557C59.9065 28.8142 59.7663 29.4833 59.7603 30.1495C59.7573 30.4971 59.9275 30.883 60.4179 31.0248C60.6691 31.0977 60.9182 31.174 61.1612 31.1517C61.4094 31.1286 61.6572 31.0137 61.8865 30.901C62.1022 30.7955 62.2929 30.6395 62.4966 30.5083C62.7932 30.3162 63.083 30.125 63.3291 29.858C63.4941 29.6784 63.6896 29.5296 63.8902 29.3916C64.0475 29.2836 64.2177 29.1957 64.3763 29.0889C64.3913 29.0786 64.4055 29.0692 64.4183 29.0594Z" fill="#F37348"/>
<path d="M96.4002 31.0966C96.3668 31.3131 96.3231 31.5283 96.3042 31.746C96.224 32.6737 96.1267 33.5958 96.0234 34.5226C96.0028 34.7043 95.9951 35.0237 95.8592 35.1647C95.7508 35.2771 95.5266 35.2916 95.3907 35.3851C95.2179 35.5034 94.8527 35.503 94.6593 35.3101C94.4467 35.0979 94.2088 34.8801 94.1625 34.5564C94.1389 34.394 94.1595 34.2259 94.1492 34.0613C94.1364 33.8568 94.0952 33.6532 94.0965 33.4496C94.0978 33.1679 94.1222 32.8863 94.1467 32.6051C94.1664 32.3758 94.1805 32.1417 94.2187 31.9145C94.2311 31.839 94.2384 31.788 94.1535 31.761C94.0532 31.7293 93.9477 31.7653 93.853 31.7979C93.6472 31.8686 93.4449 31.9466 93.2391 32.0152C93.072 32.0705 92.9052 32.1258 92.738 32.1811C92.5738 32.236 92.3972 32.2784 92.2382 32.3475C92.1769 32.374 92.1207 32.3959 92.0556 32.416C92.0264 32.4251 91.8772 32.4683 91.8772 32.5104C91.7645 32.6308 91.7096 32.8083 91.6406 32.9656C91.4777 33.3373 91.3358 33.7184 91.157 34.0815C91.055 34.2885 90.493 34.4347 90.2727 34.3532C90.0399 34.2671 90.0682 34.0403 90.0339 33.8701C89.9482 33.4419 89.8856 33.0068 89.9765 32.5678C89.9842 32.5301 89.9778 32.4893 89.9778 32.4405C89.7051 32.374 89.4672 32.2712 89.2992 32.0392C89.1765 31.8695 89.195 31.6766 89.2799 31.5398C89.3523 31.4237 89.3857 31.3285 89.3956 31.1969C89.4068 31.0529 89.4861 30.9354 89.5825 30.8334C89.631 30.7819 89.6832 30.7339 89.7325 30.6829C89.7947 30.619 89.8599 30.5376 89.8479 30.448C89.8406 30.3927 89.8453 30.3348 89.8959 30.3027C89.985 30.2461 90.1089 30.2919 90.2054 30.2568C90.2345 30.2461 90.2675 30.2474 90.3001 30.2431C90.3893 29.7214 90.4806 29.2044 90.565 28.6861C90.5989 28.4782 90.6632 28.2609 90.6302 28.062C90.6036 27.9025 90.586 27.7417 90.5818 27.584C90.5792 27.476 90.6533 27.3679 90.6756 27.2565C90.6919 27.1755 90.6748 27.088 90.6821 27.0044C90.6859 26.9611 90.7005 26.911 90.7275 26.8784C90.8257 26.7609 90.9346 26.652 91.0297 26.5324C91.0722 26.4784 91.0263 26.4124 90.9774 26.3953C90.9127 26.3725 90.8445 26.3605 90.776 26.3618C90.7069 26.3631 90.6568 26.3901 90.592 26.4098C90.4454 26.454 90.3014 26.5063 90.1535 26.5466C90.0399 26.5774 89.9237 26.6015 89.8059 26.6087C89.7133 26.6147 89.6202 26.5985 89.5474 26.6705C89.5096 26.7078 89.4771 26.7506 89.4479 26.7952C89.4072 26.8561 89.3304 26.965 89.348 27.0443C89.3575 27.0863 89.3532 27.1484 89.3279 27.1785C89.1315 27.4129 89.1208 27.7199 89.0072 27.9728C88.9198 28.1674 88.9781 28.3839 88.8207 28.5789C88.6836 28.7483 88.7101 29.0578 88.684 29.3073C88.6338 29.7835 88.5987 30.2615 88.555 30.7386C88.537 30.9401 88.4482 31.1274 88.4375 31.3323C88.4319 31.4335 88.3938 31.5184 88.3861 31.6187C88.3702 31.8219 88.4581 32.0238 88.4114 32.2261C88.4002 32.2746 88.3651 32.3187 88.3573 32.3672C88.2986 32.7436 88.2292 33.1195 88.1919 33.498C88.155 33.8714 87.7366 34.3198 87.3581 34.3541C87.1549 34.3721 86.9376 34.1723 86.8895 33.9344C86.83 33.6434 86.7541 33.3557 86.7022 33.0634C86.6688 32.8756 86.6722 32.6814 86.6452 32.4919C86.6255 32.3539 86.5552 32.2189 86.5573 32.083C86.5629 31.7182 86.589 31.3529 86.6186 30.989C86.6426 30.6945 86.6799 30.4008 86.7189 30.1076C86.7537 29.8453 86.8025 29.5855 86.8381 29.3231C86.851 29.2263 86.836 29.1255 86.8475 29.0282C86.8728 28.8203 86.8703 28.5978 86.9479 28.4092C87.034 28.2 87.0169 27.9844 87.0722 27.7799C87.1017 27.6684 87.2368 27.5883 87.2801 27.4768C87.3281 27.3512 87.3834 27.1776 87.3324 27.0773C87.2634 26.9405 87.133 27.0421 87.0233 27.1124C86.9333 27.1699 86.8115 27.2059 86.7044 27.2046C86.1466 27.1973 85.6262 27.4026 85.0831 27.473C84.7059 27.5218 84.3243 27.6359 83.9535 27.6071C83.4953 27.572 83.0657 27.6864 82.6238 27.7272C82.2564 27.761 81.8942 27.7589 81.5499 27.6243C81.411 27.5698 81.3352 27.4395 81.4033 27.2655C81.5191 26.9675 81.5967 26.652 81.7403 26.3695C81.9049 26.0446 82.1102 25.7372 82.328 25.4444C82.391 25.36 82.5565 25.3201 82.6769 25.3154C83.0559 25.3004 83.4365 25.3218 83.8155 25.309C83.9604 25.3038 84.1019 25.2305 84.248 25.2108C84.4534 25.183 84.6613 25.1705 84.8683 25.162C84.9888 25.1572 85.1131 25.1932 85.231 25.1757C85.5165 25.1341 85.7973 25.0539 86.0836 25.0231C86.3901 24.9905 86.7035 25.0171 87.0091 24.981C87.3594 24.9395 87.7032 24.8503 88.0521 24.7963C88.2613 24.7637 88.4752 24.7586 88.687 24.7414C88.8666 24.7268 89.0462 24.7136 89.2259 24.699C89.4642 24.6797 89.7025 24.6625 89.9405 24.639C90.1291 24.6197 90.3168 24.5905 90.505 24.5682C90.7742 24.5361 91.0434 24.5078 91.3122 24.4748C91.5103 24.4508 91.7075 24.419 91.9059 24.3972C92.1233 24.3732 92.3423 24.3633 92.5593 24.3346C92.9506 24.2832 93.3382 24.233 93.679 23.9899C93.7651 23.9286 93.9507 23.9642 94.0738 24.0058C94.4437 24.1314 94.5595 24.5549 94.2924 24.837C93.9713 25.1761 93.6447 25.5186 93.1375 25.5838C93.0441 25.5958 92.9206 25.6524 92.8795 25.7265C92.8237 25.8277 92.8083 25.9632 92.9952 26.0112C93.177 26.0579 93.2006 26.1809 93.1165 26.349C93.0372 26.5089 93.0016 26.6906 92.9189 26.8484C92.6771 27.3096 92.7299 27.833 92.5983 28.3187C92.5121 28.6364 92.5365 28.9828 92.4941 29.3141C92.4641 29.5495 92.4131 29.7835 92.3573 30.0146C92.3158 30.1865 92.2395 30.3498 92.2009 30.5221C92.1597 30.7061 92.3012 30.8235 92.5237 30.8072C92.807 30.7862 93.0951 30.7884 93.3725 30.7356C93.5808 30.6962 93.7763 30.5869 93.9765 30.5059C94.0369 30.481 94.0914 30.4416 94.1522 30.4167C94.4146 30.3091 94.5899 30.1273 94.6701 29.85C94.7794 29.4706 94.9474 29.1006 94.9993 28.7148C95.0229 28.5391 95.082 28.3706 95.1137 28.1961C95.1296 28.1074 95.1416 28.0127 95.1313 27.9226C95.1193 27.8219 95.1172 27.7546 95.1515 27.6607C95.1733 27.5998 95.1605 27.5274 95.1532 27.4652C95.136 27.3195 95.136 27.1849 95.2844 27.1103C95.3294 27.0876 95.3774 26.9997 95.3684 26.9525C95.3054 26.6165 95.5566 26.4767 95.7353 26.2688C95.8155 26.1753 95.9329 26.0862 96.05 26.0489C96.1451 26.0185 96.2433 25.9666 96.3415 25.9477C96.4431 25.928 96.5747 25.9563 96.675 25.9743C96.7093 25.9803 96.75 25.988 96.777 26.0116C96.8006 26.0317 96.81 26.0596 96.8357 26.0789C96.873 26.1068 96.9734 26.1685 97.0218 26.1376C97.2481 25.9919 97.2966 26.2311 97.3622 26.2761C97.3798 26.2881 97.3905 26.3764 97.3969 26.3987C97.4098 26.4446 97.4226 26.4904 97.4355 26.5363C97.4595 26.622 97.471 26.7138 97.4578 26.8029C97.4518 26.8458 97.4278 26.8912 97.4149 26.9332C97.3836 27.0396 97.3523 27.1463 97.2837 27.2359C97.1491 27.4121 97.1573 27.6963 97.1002 27.9325C97.0355 28.2017 96.9914 28.4739 96.8962 28.7388C96.813 28.9699 96.8113 29.2288 96.7642 29.4736C96.6844 29.8856 96.5996 30.2962 96.5117 30.7065C96.4851 30.8308 96.4401 30.9513 96.4036 31.0734C96.4028 31.0811 96.4015 31.0889 96.4002 31.0966Z" fill="#F37348"/>
<path d="M104.04 33.2864C103.98 33.1325 103.795 32.9542 103.598 32.934C103.549 32.9289 103.498 32.9186 103.443 32.9079C103.309 32.8818 103.138 32.8552 102.977 32.8848C102.724 32.9319 102.466 32.9452 102.192 32.9593C102.053 32.9666 101.914 32.9739 101.776 32.9855C101.64 32.9971 101.504 33.0125 101.367 33.0275C101.199 33.0464 101.025 33.0657 100.855 33.0768C100.729 33.0854 100.603 33.0772 100.468 33.0691C100.426 33.0665 100.384 33.0639 100.342 33.0618C100.202 33.0549 100.062 33.0459 99.9215 33.0369L99.7218 33.0241C99.501 33.0104 99.3411 32.9585 99.2464 32.8697C99.1251 32.7566 99.0187 32.5872 98.9613 32.4166C98.891 32.2074 98.8752 31.97 98.8692 31.765C98.8653 31.6343 98.8747 31.5014 98.8859 31.3767L98.9052 31.1632C98.906 31.1533 98.9064 31.143 98.9069 31.1332C98.9913 31.128 99.0775 31.1276 99.1684 31.1272C99.3214 31.1272 99.4796 31.1267 99.6395 31.1006C99.9186 31.0547 100.195 30.9891 100.463 30.9257C100.572 30.9 100.682 30.8742 100.791 30.8494C100.819 30.843 100.872 30.8314 100.921 30.8022C100.944 30.7885 100.969 30.7731 100.994 30.7568C101.038 30.7281 101.099 30.6886 101.131 30.6852L101.175 30.6861C101.206 30.6861 101.234 30.6831 101.262 30.6771C101.32 30.6633 101.379 30.6445 101.453 30.6145C101.617 30.5493 101.761 30.4619 101.902 30.3778C101.952 30.3474 102.002 30.3174 102.053 30.2882C102.288 30.1541 102.507 29.995 102.72 29.8416L102.84 29.7554C102.904 29.7104 102.984 29.6547 103.041 29.5664C103.114 29.4498 103.102 29.3173 103.096 29.2496C103.09 29.1835 103.082 29.0927 103.047 29.0155C103 28.907 102.896 28.8423 102.77 28.8423C102.723 28.8423 102.681 28.8505 102.649 28.8565L102.633 28.8599C102.514 28.8809 102.398 28.9088 102.285 28.9358C102.197 28.9568 102.11 28.9778 102.021 28.9954L101.925 29.0142C101.612 29.0768 101.289 29.142 100.97 29.1925C100.701 29.235 100.415 29.2774 100.136 29.286C100.002 29.2899 99.865 29.2723 99.7192 29.2538C99.633 29.2431 99.5469 29.2324 99.4607 29.2255C99.4264 29.223 99.4011 29.2196 99.3827 29.2161C99.3887 29.199 99.3981 29.1771 99.4119 29.1488C99.4491 29.0729 99.4569 28.9962 99.4637 28.9345C99.4659 28.9113 99.4697 28.8775 99.474 28.8629C99.5597 28.7643 99.5674 28.6601 99.5722 28.5971C99.5734 28.5774 99.5747 28.5598 99.5777 28.5482C99.603 28.4496 99.6335 28.3528 99.6656 28.2503L99.7051 28.1234C99.7098 28.1076 99.7141 28.0917 99.7205 28.0763L99.7891 27.9018C99.835 27.786 99.8808 27.6703 99.9245 27.5541C99.9404 27.5126 99.9533 27.4688 99.9657 27.426C99.9798 27.3758 99.9936 27.3291 100.012 27.2939C100.042 27.2343 100.067 27.1752 100.091 27.1173C100.129 27.0269 100.165 26.9411 100.215 26.8777C100.246 26.8391 100.283 26.8125 100.325 26.7984C100.445 26.7585 100.562 26.7165 100.68 26.6376C100.7 26.6239 100.72 26.6098 100.739 26.596C100.766 26.5767 100.792 26.5575 100.821 26.5407C100.858 26.5202 100.894 26.5 100.931 26.4803L100.99 26.4481C101.114 26.38 101.244 26.3024 101.357 26.1961C101.456 26.1031 101.602 26.0375 101.756 25.968C101.79 25.9526 101.823 25.9376 101.856 25.9226C101.959 25.8746 102.066 25.8334 102.179 25.7897C102.286 25.7485 102.396 25.7061 102.505 25.6568C102.59 25.6178 102.675 25.5775 102.759 25.5363C102.788 25.5226 102.816 25.5068 102.846 25.4909C102.892 25.4656 102.935 25.442 102.972 25.4296C103.118 25.3812 103.24 25.2718 103.315 25.121C103.381 24.9911 103.376 24.8312 103.303 24.7043C103.238 24.5924 103.129 24.5431 103.049 24.5075C103.033 24.5002 103.017 24.4934 103.002 24.4857C102.815 24.3862 102.59 24.2803 102.327 24.291C102.251 24.2949 102.179 24.3112 102.116 24.3253C102.053 24.3399 101.998 24.354 101.952 24.3489C101.7 24.3232 101.497 24.4201 101.322 24.5041C101.276 24.5264 101.23 24.5487 101.184 24.568C100.946 24.6657 100.739 24.8153 100.539 24.9598C100.481 25.0018 100.423 25.0442 100.364 25.0849C100.335 25.1051 100.304 25.1248 100.274 25.145C100.136 25.2363 99.9799 25.3396 99.874 25.4896C99.7698 25.6375 99.6909 25.6675 99.6043 25.6675C99.5632 25.6675 99.5152 25.6598 99.4607 25.6448C99.4041 25.6289 99.339 25.6208 99.2729 25.6208C99.1894 25.6208 99.0333 25.6349 98.9253 25.7301C98.7804 25.8579 98.6818 26.0276 98.5952 26.1776L98.5734 26.2158C98.449 26.4289 98.3337 26.6483 98.2308 26.8691C98.176 26.9866 98.1327 27.1062 98.0911 27.2219C98.0714 27.2772 98.0516 27.3325 98.0302 27.3874C98.0006 27.4645 97.9702 27.5417 97.9402 27.6189C97.875 27.7835 97.8082 27.9537 97.7469 28.1247C97.7237 28.1894 97.7198 28.2507 97.7168 28.3005C97.7156 28.3219 97.7134 28.354 97.71 28.3639C97.6946 28.4042 97.6727 28.4462 97.6491 28.4904C97.6251 28.5367 97.6011 28.583 97.581 28.6305C97.5501 28.7047 97.5312 28.7733 97.5244 28.8397L97.5214 28.8732C97.5209 28.8762 97.521 28.8788 97.5205 28.8818C97.5094 28.8895 97.4986 28.8976 97.4892 28.9053C97.4789 28.9143 97.4584 28.9268 97.4382 28.9388C97.3645 28.9838 97.1801 29.0952 97.205 29.3271C97.2029 29.3319 97.2007 29.3361 97.199 29.3404C97.1883 29.3662 97.1767 29.3914 97.1647 29.4167C97.1437 29.4626 97.1231 29.5085 97.106 29.5556C97.097 29.5809 97.0893 29.6062 97.0815 29.6307C97.073 29.6594 97.0657 29.6847 97.0563 29.7048C97.0185 29.7871 97.0082 29.875 96.9997 29.9504L96.9958 29.9826C96.9855 30.0619 96.9787 30.1429 96.9761 30.2227C96.9731 30.3105 96.9761 30.3958 96.9787 30.4782C96.9808 30.5399 96.9829 30.6016 96.9821 30.6638C96.9812 30.7495 96.9589 30.8442 96.9349 30.9441C96.9182 31.0144 96.9007 31.0873 96.8891 31.164C96.8681 31.3034 96.8411 31.4512 96.8119 31.6073C96.6623 32.4196 96.4754 33.4305 97.0691 34.1421C97.4369 34.5827 97.8167 34.8057 98.2394 34.8241C98.2655 34.8254 98.2934 34.8262 98.3213 34.8262C98.3865 34.8262 98.4392 34.8202 98.4876 34.8074C98.4915 34.8065 98.4945 34.8057 98.4975 34.8048C98.5206 34.8232 98.5545 34.8485 98.6025 34.8657C98.6891 34.8974 98.7864 34.9128 98.9 34.9128C98.9429 34.9128 98.9857 34.9107 99.0278 34.9077C99.1688 34.8974 99.3107 34.915 99.4646 34.933C99.5409 34.942 99.6172 34.9506 99.6935 34.9566C99.7428 34.9604 99.7921 34.963 99.8418 34.963C99.8701 34.963 99.8984 34.9621 99.9267 34.96C100.128 34.9458 100.328 34.9283 100.529 34.9107L100.562 34.9077C100.628 34.9021 100.696 34.8974 100.763 34.8931C100.932 34.882 101.106 34.8708 101.279 34.8374C101.522 34.7902 101.761 34.7225 101.991 34.6569L102.143 34.614C102.364 34.5519 102.587 34.4829 102.801 34.4164L102.87 34.395C102.938 34.374 103.006 34.3487 103.074 34.3238L103.146 34.2972C103.491 34.1725 103.738 34.0195 103.921 33.8158C104.03 33.695 104.107 33.4579 104.04 33.2864Z" fill="#F37348"/>
<path d="M136.982 33.7837C136.903 33.7606 136.774 33.7906 136.714 33.8073C136.603 33.8382 136.501 33.8901 136.398 33.9394C136.16 34.053 135.917 34.1541 135.669 34.2424C135.543 34.2874 135.415 34.329 135.287 34.3667C135.225 34.3852 135.162 34.3998 135.101 34.4195C135.058 34.4332 135.007 34.4709 134.963 34.4722C134.576 34.4833 134.189 34.5022 133.802 34.4941C133.61 34.4902 133.418 34.4409 133.228 34.4015C132.963 34.3466 132.705 34.194 132.558 34.0157C132.302 33.7074 131.978 33.3975 132.056 32.9058C132.109 32.5693 132.092 32.2212 132.111 31.8787C132.116 31.7818 132.132 31.6845 132.152 31.5898C132.21 31.3154 132.326 31.0415 132.321 30.7688C132.316 30.4529 132.415 30.1653 132.451 29.8626C132.512 29.3482 132.568 28.8329 132.649 28.3211C132.724 27.8487 132.852 27.3836 132.911 26.9099C132.954 26.5721 133.037 26.2399 133.004 25.8866C132.973 25.5535 133.172 25.2723 133.349 24.9911C133.444 24.8402 133.593 24.7562 133.76 24.7069C133.84 24.6833 133.922 24.6662 134.003 24.6447C134.089 24.622 134.163 24.5997 134.25 24.6387C134.351 24.6838 134.446 24.7609 134.54 24.8184C134.642 24.8809 134.744 24.9431 134.845 25.0065C134.926 25.0567 135.006 25.1077 135.086 25.16C135.141 25.1969 135.205 25.2389 135.216 25.3096C135.239 25.4498 135.142 25.5827 135.098 25.7104C135.05 25.8532 135.016 26.0002 134.989 26.1481C134.936 26.4409 134.911 26.7388 134.851 27.0308C134.762 27.4736 134.777 27.9267 134.66 28.3652C134.598 28.5972 134.61 28.8479 134.576 29.0889C134.541 29.3362 134.479 29.5797 134.451 29.8275C134.406 30.2339 134.367 30.642 134.349 31.0501C134.336 31.342 134.34 31.6374 134.374 31.9267C134.401 32.1535 134.442 32.4017 134.561 32.5856C134.634 32.6975 134.863 32.7446 135.027 32.7545C135.561 32.7879 136.072 32.6362 136.582 32.4986C136.667 32.4754 136.738 32.3983 136.823 32.376C137.048 32.3181 137.062 32.138 137.084 31.9623C137.121 31.6549 137.126 31.3411 137.194 31.0415C137.259 30.7538 137.403 30.4846 137.483 30.1987C137.542 29.9891 137.547 29.7649 137.588 29.5493C137.639 29.277 137.701 29.0074 137.76 28.7369C137.804 28.5307 137.854 28.3258 137.892 28.1183C137.941 27.8513 137.956 27.5748 138.034 27.3167C138.092 27.1234 138.162 26.8902 138.157 26.735C138.148 26.5112 138.254 26.3702 138.312 26.1961C138.41 25.8986 138.481 25.5797 138.642 25.3186C138.77 25.1103 138.938 24.9045 139.182 24.7721C139.356 24.6778 139.478 24.484 139.699 24.4583C139.972 24.4265 140.247 24.3592 140.516 24.3798C140.709 24.3944 140.901 24.4265 141.09 24.4638C141.258 24.4969 141.432 24.5217 141.589 24.586C141.884 24.7073 142.191 24.7969 142.483 24.929C142.629 24.995 142.773 25.0657 142.913 25.1429C142.983 25.1815 143.053 25.2213 143.121 25.2633C143.145 25.2783 143.314 25.3641 143.314 25.3885C143.592 25.5788 143.882 25.7512 144.162 25.9389C144.281 26.0182 144.389 26.1125 144.497 26.2051C144.646 26.3329 144.806 26.4512 144.933 26.5987C145.176 26.8807 145.385 27.1928 145.633 27.4702C145.964 27.8405 146.102 28.3065 146.32 28.7339C146.441 28.9693 146.547 29.214 146.608 29.4721C146.671 29.7332 146.674 29.9835 146.634 30.2463C146.628 30.2874 146.611 30.3127 146.596 30.3517C146.55 30.4649 146.503 30.5781 146.455 30.6908C146.359 30.9125 146.258 31.1315 146.147 31.3463C146.08 31.4766 146.013 31.6091 145.936 31.7338C145.877 31.8307 145.802 31.9344 145.719 32.0129C145.67 32.0587 145.61 32.0909 145.565 32.138C145.466 32.2435 145.373 32.3545 145.268 32.4548C145.059 32.6516 144.823 32.8201 144.563 32.9418C144.306 33.0623 144.079 33.247 143.831 33.3885C143.638 33.4982 143.431 33.5848 143.231 33.6843C143.013 33.7927 142.802 33.9196 142.577 34.0097C142.346 34.1018 142.101 34.155 141.864 34.2321C141.605 34.3174 141.353 34.4238 141.091 34.4971C140.837 34.5678 140.574 34.6068 140.316 34.663C140.003 34.7316 139.695 34.831 139.379 34.8644C139.132 34.8906 138.876 34.8756 138.626 34.8156C138.455 34.7748 138.27 34.7448 138.1 34.7693C137.847 34.8061 137.652 34.6934 137.448 34.5939C137.254 34.4988 137.136 34.3286 137.084 34.1215C137.072 34.0731 137.063 34.0234 137.056 33.9736C137.051 33.9355 137.059 33.8575 137.04 33.8245C137.029 33.8039 137.008 33.791 136.982 33.7837ZM140.634 26.0607C140.608 26.0821 140.584 26.1087 140.571 26.1361C140.543 26.1927 140.564 26.2583 140.545 26.317C140.457 26.5991 140.316 26.8662 140.245 27.1512C140.116 27.6614 140.031 28.1822 139.912 28.6949C139.789 29.2277 139.611 29.7503 139.524 30.2887C139.437 30.8216 139.421 31.3677 139.4 31.9091C139.387 32.2409 139.409 32.5359 139.52 32.8497C139.609 33.1017 139.826 33.1403 140.072 33.172C140.3 33.202 140.532 33.1965 140.757 33.1493C141.061 33.0859 141.365 33.022 141.669 32.9572C141.761 32.938 141.857 32.9272 141.943 32.8925C142.47 32.6782 142.995 32.4621 143.474 32.1436C143.971 31.8127 144.409 31.459 144.55 30.8284C144.669 30.3012 144.658 29.7863 144.443 29.3023C144.243 28.8544 143.977 28.436 143.733 28.0082C143.65 27.8633 143.566 27.7085 143.446 27.5966C143.102 27.2734 142.749 26.9583 142.38 26.6634C142.178 26.5014 141.95 26.3573 141.711 26.2579C141.459 26.1528 141.187 26.1134 140.924 26.0465C140.844 26.0264 140.757 25.9912 140.678 26.0315C140.663 26.0392 140.648 26.0491 140.634 26.0607Z" fill="#F37348"/>
<path d="M50.0631 31.4139C50.0468 31.5113 50.0567 31.6982 50.0541 31.7414C50.0459 31.8971 50.0339 32.0531 50.0339 32.2087C50.0262 32.6477 49.9649 33.1334 50.0121 33.568C50.0524 33.935 50.1167 34.2008 49.7952 34.4777C49.6691 34.5862 49.5928 34.7521 49.49 34.8888C49.3811 35.0337 49.2945 35.2257 49.1483 35.3033C49.0094 35.3771 48.7831 35.3848 48.6373 35.3226C48.4521 35.2438 48.3098 35.065 48.1953 34.9685C48.2125 34.6226 48.1572 34.2981 48.2588 34.0336C48.3947 33.6791 48.2712 33.328 48.366 32.9756C48.4525 32.6515 48.3917 32.2897 48.4127 31.9459C48.4345 31.5876 48.4847 31.2309 48.5083 30.8725C48.5301 30.5424 48.5289 30.2111 48.546 29.8806C48.5593 29.6216 48.5721 29.3619 48.6082 29.1055C48.6313 28.9396 48.6643 28.7754 48.6986 28.6112C48.7286 28.4646 48.7565 28.2833 48.726 28.1371C48.6887 27.9579 48.7063 27.7985 48.7376 27.6184C48.7612 27.4812 48.7548 27.3419 48.7616 27.2035C48.7646 27.1409 48.7629 27.0663 48.7856 27.0071C48.8847 26.7525 48.7976 26.4721 48.8542 26.2102C48.8851 26.0692 48.9052 25.9264 48.9232 25.7832C48.9412 25.6426 48.9738 25.4926 48.9725 25.3511C48.97 25.0849 49.0999 24.8067 49.1706 24.5504C49.2049 24.426 49.2255 24.2962 49.2747 24.1783C49.3253 24.0574 49.4119 23.9519 49.4659 23.8323C49.5242 23.7037 49.52 23.5164 49.6631 23.4418C49.7587 23.3916 49.8963 23.3959 50.0018 23.3861C50.127 23.3741 50.2779 23.3539 50.3979 23.3946C50.5248 23.4375 50.6465 23.4971 50.7627 23.5627C50.9659 23.678 50.9513 23.8735 51.0023 24.0364C51.1031 24.3596 51.0409 24.7047 51.0868 25.0369C51.1271 25.3288 51.1871 25.6178 51.2239 25.9101C51.2578 26.1802 51.2643 26.4537 51.2973 26.7238C51.3226 26.9282 51.413 27.1139 51.395 27.3205C51.3774 27.5198 51.4413 27.7496 51.5305 27.9275C51.6166 28.0998 51.6796 28.3176 51.7229 28.5075C51.7829 28.769 51.8203 29.0352 51.8738 29.298C51.9429 29.6345 51.951 29.98 52.1092 30.3028C52.2069 30.5017 52.2035 30.7478 52.2669 30.9664C52.3197 31.1482 52.3655 31.3398 52.4628 31.5014C52.8054 31.3299 52.949 30.8331 53.0201 30.4871C53.0608 30.2895 53.1509 30.1065 53.1946 29.9097C53.2173 29.8055 53.2306 29.7134 53.2675 29.6122C53.4809 29.0249 53.6708 28.4282 53.8625 27.8332C53.8843 27.7655 53.8689 27.6862 53.8869 27.6167C53.9979 27.188 54.1158 26.7615 54.226 26.3328C54.2787 26.1266 54.3177 25.9174 54.3666 25.7104C54.4189 25.49 54.475 25.2705 54.5312 25.0511C54.5612 24.9336 54.6178 24.8183 54.6234 24.7004C54.644 24.2627 55.1224 23.6463 55.5407 23.5704C55.6591 23.549 55.7928 23.5983 55.9171 23.6257C56.1092 23.6677 56.3072 23.6986 56.4868 23.7723C56.6442 23.8366 56.672 24.0004 56.6553 24.1603C56.6292 24.4128 56.5811 24.664 56.5734 24.9169C56.5597 25.3559 56.5833 25.7965 56.5661 26.2355C56.5481 26.6882 56.495 27.1392 56.4671 27.5914C56.453 27.8225 56.468 28.0552 56.4573 28.2863C56.4324 28.8131 56.3934 29.3391 56.372 29.8656C56.3608 30.1433 56.4358 30.4404 56.3604 30.6959C56.2704 30.9998 56.3402 31.2973 56.2849 31.5927C56.2138 31.9712 56.3377 32.3557 56.2266 32.7428C56.1726 32.9315 56.2682 33.1608 56.2845 33.3726C56.3145 33.767 56.3218 34.1639 56.3685 34.5566C56.4084 34.8935 56.6553 35.1975 56.6112 35.543C56.5953 35.6669 56.4491 35.777 56.3458 35.837C56.1353 35.9588 55.9167 36.0702 55.6843 36.144C55.5656 36.1813 55.4439 36.2091 55.3204 36.2229C55.1451 36.2426 55.0392 36.1851 54.9277 36.0561C54.8407 35.9562 54.7258 35.8126 54.7138 35.6746C54.6894 35.3916 54.6397 35.1109 54.6075 34.8284C54.5917 34.6873 54.5942 34.5442 54.5835 34.4027C54.5565 34.0465 54.5273 33.6907 54.4982 33.3349C54.4763 33.0712 54.4386 32.8076 54.4365 32.5439C54.4352 32.3862 54.5016 32.2289 54.5132 32.0694C54.5269 31.8859 54.5668 31.6038 54.4639 31.4397C54.4468 31.4131 54.4193 31.3908 54.3876 31.3895C54.2693 31.3839 54.1908 31.7222 54.1574 31.8053C54.0888 31.9777 54.0181 32.1496 53.9229 32.309C53.808 32.5006 53.6091 32.6408 53.4548 32.8106C53.3412 32.9357 53.2452 33.0781 53.1299 33.202C52.9382 33.4069 52.7372 33.5998 52.4448 33.6602C51.8593 33.7811 51.4284 33.5295 50.9985 33.1552C50.6049 32.8123 50.4892 32.3695 50.3537 31.9146C50.3177 31.7942 50.2826 31.6733 50.2307 31.5584C50.211 31.5147 50.1523 31.3556 50.0935 31.3548C50.0785 31.3548 50.0691 31.3784 50.0631 31.4139Z" fill="#F37348"/>
<path d="M111.587 30.221C111.668 29.9346 111.671 29.6131 111.692 29.3285C111.711 29.0627 111.736 28.7939 111.815 28.5384C111.896 28.2748 112.068 28.0866 112.235 27.8706C112.334 27.7432 112.464 27.6382 112.552 27.5045C112.636 27.3754 112.746 27.3904 112.856 27.411C112.954 27.4295 113.055 27.4526 113.155 27.4573C113.228 27.4607 113.303 27.4295 113.372 27.45C113.568 27.5066 113.785 27.6918 113.941 27.8178C113.99 27.8577 114.005 27.964 114.004 28.039C113.996 28.466 113.954 28.8938 113.973 29.3191C113.985 29.5917 114.098 29.8583 114.139 30.1318C114.204 30.5627 114.223 31.0021 114.307 31.429C114.364 31.7167 114.498 31.9897 114.597 32.2692C114.612 32.313 114.615 32.3623 114.638 32.4008C114.697 32.5024 114.777 32.5916 114.878 32.4561C114.987 32.3112 115.08 32.1531 115.166 31.9936C115.284 31.778 115.403 31.5611 115.495 31.3339C115.58 31.1234 115.631 30.8983 115.697 30.6797C115.719 30.6055 115.74 30.5309 115.764 30.4568C115.838 30.224 115.925 29.9951 115.983 29.7585C116.021 29.6037 116.012 29.4378 116.034 29.2783C116.071 28.995 116.092 28.7065 116.164 28.4313C116.309 27.8718 116.295 27.2996 116.344 26.7324C116.39 26.1923 116.425 25.6513 116.45 25.1103C116.455 25.0113 116.448 24.9161 116.441 24.8188C116.434 24.7133 116.465 24.601 116.482 24.496C116.521 24.2572 116.56 24.018 116.599 23.7793C116.624 23.6279 116.651 23.4723 116.717 23.333C116.795 23.1705 116.922 23.1174 117.061 23.0145C117.223 22.8949 117.372 22.9575 117.553 22.9871C117.926 23.0479 118.118 23.3206 118.192 23.5885C118.24 23.7591 118.31 23.9537 118.296 24.1333C118.291 24.1912 118.275 24.2439 118.28 24.3031C118.288 24.391 118.313 24.478 118.323 24.5659C118.336 24.6739 118.368 24.7789 118.355 24.8805C118.322 25.1356 118.284 25.3902 118.264 25.6466C118.249 25.8253 118.243 26.0045 118.237 26.1837C118.233 26.3295 118.196 26.4966 118.24 26.639C118.263 26.714 118.274 26.7813 118.264 26.8597C118.247 27.0093 118.177 27.1482 118.169 27.2991C118.163 27.4136 118.116 27.5259 118.108 27.6408C118.09 27.8941 118.1 28.1501 118.071 28.4021C118.033 28.7228 117.973 29.0413 117.914 29.3594C117.873 29.5793 117.829 29.8 117.765 30.014C117.666 30.344 117.532 30.6643 117.444 30.9969C117.361 31.3069 117.179 31.5688 117.05 31.853C116.829 32.3443 116.582 32.8424 116.198 33.2363C115.996 33.4438 115.737 33.5951 115.507 33.7765C115.411 33.8523 115.332 33.9518 115.232 34.0212C114.935 34.2266 114.652 34.4718 114.325 34.6064C114.043 34.7217 113.709 34.7423 113.396 34.6407C113.346 34.6244 113.288 34.5935 113.26 34.5519C113.102 34.3119 112.946 34.0697 112.801 33.8219C112.731 33.7032 112.666 33.5746 112.634 33.4421C112.521 32.9693 112.423 32.4926 112.32 32.0176C112.307 31.9589 112.304 31.8667 112.246 31.8303C112.211 31.808 112.176 31.8178 112.148 31.8431C112.097 31.8886 112.04 31.9297 111.984 31.9696C111.604 32.2427 111.266 32.5817 110.813 32.7438C110.577 32.8278 110.333 32.8882 110.102 32.9834C109.803 33.1064 109.483 33.1176 109.172 33.0366C109.016 32.9958 108.866 32.9363 108.72 32.8694C108.658 32.8415 108.591 32.7927 108.528 32.7734C108.447 32.7489 108.356 32.7656 108.273 32.7374C108.109 32.6816 108.048 32.5496 107.958 32.4163C107.856 32.2645 107.747 32.1171 107.656 31.9576C107.463 31.6168 107.384 31.2318 107.301 30.855C107.238 30.5665 107.22 30.2652 107.208 29.9685C107.19 29.5416 107.193 29.1137 107.194 28.6863C107.194 28.5054 107.192 28.3198 107.23 28.1453C107.264 27.9936 107.172 27.8007 107.198 27.7475C107.308 27.5165 107.055 27.2726 107.26 27.0544C107.313 26.9982 107.233 26.8344 107.26 26.7324C107.301 26.579 107.365 26.4255 107.451 26.2922C107.584 26.0847 107.749 25.8969 107.889 25.6937C107.922 25.6466 107.896 25.5613 107.925 25.5077C108.094 25.1909 108.624 25.1124 108.945 25.2728C109.333 25.4661 109.334 25.7842 109.318 26.119C109.306 26.3689 109.236 26.6158 109.219 26.8657C109.171 27.5735 109.189 28.2757 109.446 28.953C109.504 29.1056 109.529 29.2711 109.568 29.4305C109.662 29.8138 109.757 30.1983 110.004 30.5176C110.169 30.7294 110.376 30.9125 110.514 31.1388C110.639 31.3437 110.78 31.2357 110.862 31.1722C111.12 30.9755 111.363 30.7316 111.506 30.4375C111.539 30.3689 111.566 30.296 111.587 30.221Z" fill="#F37348"/>
<path d="M131.462 33.2547C131.502 33.4051 131.494 33.6062 131.32 33.6422C131.073 33.6936 130.824 33.7395 130.576 33.7832C130.34 33.8248 130.155 33.8668 129.919 33.7918C129.767 33.7434 129.629 33.7039 129.473 33.6812C129.316 33.6581 129.153 33.568 129.003 33.5166C128.872 33.4716 128.737 33.4373 128.609 33.388C128.428 33.3186 128.242 33.2547 128.074 33.1608C127.747 32.9782 127.446 32.7523 127.129 32.5542C127.051 32.5049 126.968 32.4543 126.875 32.4475C126.55 32.423 126.555 32.9966 126.497 33.205C126.449 33.3777 126.398 33.556 126.308 33.7087C126.23 33.842 126.082 33.9329 125.99 34.0606C125.837 34.2741 125.61 34.3371 125.377 34.3915C125.214 34.4301 125.047 34.4738 124.881 34.4794C124.489 34.4923 124.352 34.3118 124.463 33.9359C124.521 33.7344 124.611 33.5423 124.671 33.3413C124.827 32.8221 124.991 32.3043 125.118 31.7775C125.195 31.4581 125.196 31.1211 125.254 30.7958C125.326 30.3885 125.431 29.9873 125.506 29.5805C125.566 29.2474 125.603 28.91 125.652 28.5752C125.662 28.5058 125.68 28.4376 125.69 28.3682C125.746 27.9836 125.777 27.5936 125.862 27.2155C125.975 26.713 126.074 26.1935 126.289 25.7322C126.415 25.4605 126.566 25.1428 126.802 24.9516C126.879 24.889 126.937 24.7999 127.011 24.7313C127.176 24.5799 127.363 24.4586 127.535 24.3167C127.702 24.1787 127.868 24.0347 128.072 23.9515C128.449 23.7967 128.803 23.7603 129.185 23.762C129.373 23.7629 129.565 23.7346 129.747 23.7663C129.878 23.789 129.992 23.8949 130.118 23.9541C130.449 24.1093 130.8 24.2297 131.109 24.42C131.361 24.5752 131.592 24.7879 131.781 25.0168C132.008 25.292 132.211 25.5942 132.23 25.98C132.248 26.3289 132.278 26.6698 132.093 26.996C132.023 27.1186 132.033 27.284 131.988 27.4242C131.862 27.825 131.596 28.1427 131.332 28.4556C131.167 28.6511 130.973 28.8239 130.779 28.9919C130.58 29.1638 130.374 29.3323 130.153 29.475C129.933 29.6178 129.694 29.7335 129.457 29.848C129.162 29.9907 128.86 30.1193 128.562 30.2552C128.332 30.3602 128.308 30.6556 128.499 30.8284C128.816 31.1169 129.106 31.4375 129.437 31.7093C129.671 31.9022 129.858 32.1616 130.132 32.2996C130.39 32.429 130.639 32.5765 130.876 32.7403C131.077 32.8783 131.32 32.9255 131.432 33.1707C131.444 33.1955 131.454 33.2238 131.462 33.2547ZM127.274 29.2731C127.307 29.3014 127.379 29.2847 127.42 29.283C127.499 29.2791 127.579 29.2723 127.658 29.2603C127.802 29.2388 127.942 29.1985 128.074 29.1381C128.5 28.9426 128.956 28.8149 129.332 28.5148C129.613 28.2902 129.927 28.0424 129.951 27.69C129.98 27.2746 130.092 26.8481 129.803 26.4177C129.517 25.992 129.243 25.6473 128.708 25.5736C128.438 25.5368 128.236 25.6739 128.22 25.9517C128.217 26.0006 128.208 26.0525 128.188 26.0966C128.113 26.2634 128.019 26.4224 127.959 26.5934C127.904 26.7521 127.893 26.9257 127.844 27.0869C127.741 27.4221 127.61 27.7492 127.522 28.0878C127.452 28.3519 127.398 28.6194 127.345 28.8869C127.33 28.958 127.316 29.0292 127.302 29.1004C127.295 29.1342 127.254 29.2084 127.257 29.2384C127.259 29.2543 127.265 29.2654 127.274 29.2731Z" fill="#F37348"/>
<path d="M74.3631 28.733C74.3623 28.7325 74.3331 28.7081 74.358 28.7287C74.3413 28.715 74.5144 28.3394 74.5307 28.2991C74.5899 28.1525 74.6486 28.0059 74.7078 27.8593C74.7678 27.7097 74.8278 27.5605 74.8878 27.4109C74.9187 27.3342 74.9496 27.2574 74.9804 27.1807C75.001 27.1301 75.0464 27.062 75.0293 27.0045C75.0109 26.9415 74.8925 26.9788 74.8364 26.9831C74.6966 26.9938 74.5565 27.0037 74.4176 27.0238C73.937 27.0937 73.45 27.14 72.9806 27.2566C72.4118 27.3976 71.8146 27.3925 71.2634 27.6373C71.1039 27.7084 70.9226 27.6844 70.7588 27.6415C70.6936 27.6244 70.5642 27.6068 70.5132 27.5614C70.466 27.5189 70.4416 27.4255 70.4287 27.3659C70.412 27.2879 70.3923 27.2107 70.373 27.1331C70.3293 26.9608 70.3335 26.7979 70.4549 26.6569C70.544 26.5531 70.5595 26.3825 70.5998 26.2398C70.6353 26.1124 70.6619 25.9928 70.8128 25.9388C70.8557 25.9234 70.8883 25.8175 70.887 25.7541C70.8827 25.5783 70.9706 25.4428 71.1142 25.3481C71.1806 25.3035 71.2586 25.2864 71.3294 25.2495C71.4228 25.2006 71.5244 25.1732 71.629 25.1625C71.9184 25.1325 72.2099 25.1934 72.5001 25.1826C72.7993 25.1715 73.0942 25.1166 73.393 25.0995C73.8659 25.0716 74.3361 24.9975 74.8072 24.9422C75.0314 24.916 75.2578 24.9181 75.4824 24.8971C75.5981 24.8864 75.713 24.8693 75.8254 24.8393C75.8922 24.8213 75.9741 24.8084 76.0161 24.7475C76.0508 24.6978 76.0324 24.6134 76.1057 24.5936C76.2124 24.5649 76.3008 24.7094 76.4066 24.6871C76.5652 24.6532 76.7483 24.7437 76.9223 24.7698C77.1658 24.8058 77.387 24.9186 77.661 24.8461C77.8984 24.7835 78.1685 24.8388 78.4236 24.8496C78.6756 24.8603 78.9277 24.8989 79.1789 24.8911C79.3079 24.8873 79.428 24.9276 79.5128 25.0275C79.5844 25.1119 79.6835 25.2508 79.5883 25.3533C79.5437 25.4017 79.4858 25.4416 79.4357 25.4844C79.3367 25.5689 79.2376 25.6542 79.1455 25.7464C79.0799 25.8119 79.0477 25.8737 78.9659 25.9243C78.872 25.9821 78.7759 26.0361 78.6778 26.0863C78.5547 26.1493 78.4489 26.2363 78.3233 26.2959C78.0793 26.4117 77.8076 26.4477 77.5418 26.4768C77.3334 26.4995 77.1144 26.572 76.9386 26.6826C76.8327 26.749 76.7839 26.9274 76.7389 27.065C76.6235 27.4173 76.5112 27.7719 76.4225 28.1315C76.3295 28.5092 76.2455 28.8911 76.1936 29.2757C76.1379 29.6846 76.1524 30.1039 76.0856 30.5103C76.0135 30.9488 76.044 31.3783 76.0654 31.8156C76.08 32.1165 76.0045 32.4222 75.9681 32.7257C75.9617 32.7818 75.9471 32.8371 75.9424 32.8933C75.9047 33.3297 75.2826 33.8647 74.8475 33.8175C74.7554 33.8072 74.6696 33.7288 74.5839 33.6765C74.484 33.6156 74.385 33.5526 74.2911 33.4836C74.2457 33.4497 74.2024 33.4051 74.1749 33.3558C74.1278 33.2701 74.1094 33.1698 74.0528 33.0888C73.979 32.985 73.8401 32.9422 73.8354 32.802C73.8294 32.6284 73.8148 32.4547 73.8067 32.2811C73.7913 31.9339 73.7891 31.5837 73.841 31.239C73.844 31.218 73.8474 31.197 73.8509 31.1764C73.8899 30.9458 73.8547 30.7015 73.9036 30.4743C73.9906 30.0717 74.1179 29.6773 74.2234 29.2787C74.2491 29.1809 74.25 29.0768 74.2727 28.9782C74.2898 28.9049 74.3245 28.8354 74.3631 28.733Z" fill="#F37348"/>
<path d="M124.629 27.5941C124.575 27.478 124.521 27.3601 124.451 27.2538C124.379 27.1462 124.267 27.0613 124.206 26.9498C124.106 26.7664 124.05 26.5602 123.946 26.3801C123.706 25.9656 123.411 25.5841 123.033 25.2793C122.81 25.0992 122.536 24.9796 122.297 24.8172C121.956 24.5857 121.588 24.5407 121.191 24.6225C121.086 24.6444 120.994 24.6345 120.899 24.6958C120.816 24.7503 120.752 24.8292 120.673 24.8887C120.538 24.9903 120.413 25.0872 120.368 25.2557C120.325 25.4126 120.257 25.5643 120.229 25.7247C120.206 25.8507 120.265 25.978 120.238 26.0933C120.236 26.1028 120.234 26.1122 120.23 26.1216C120.117 26.4363 119.889 26.7218 119.688 26.9871C119.329 27.4604 119.05 27.9735 118.826 28.5149C118.715 28.7829 118.654 29.0697 118.559 29.3449C118.411 29.7761 118.239 30.2005 118.276 30.6708C118.301 30.9987 118.357 31.3335 118.318 31.6559C118.276 31.9894 118.428 32.2131 118.612 32.4468C118.643 32.4866 118.65 32.5441 118.682 32.5835C118.825 32.761 118.947 32.9689 119.126 33.1018C119.336 33.2566 119.594 33.3534 119.838 33.4597C120.01 33.5343 120.189 33.6072 120.373 33.6364C120.574 33.6681 120.789 33.6201 120.987 33.6574C121.595 33.771 122.138 33.5665 122.686 33.3749C123.839 32.9719 124.499 31.8925 124.74 30.7664C124.949 29.7868 125.047 28.5098 124.629 27.5941ZM122.939 31.3228C122.912 31.3755 122.883 31.427 122.851 31.4775C122.837 31.5123 122.819 31.5448 122.793 31.574C122.789 31.5796 122.782 31.5838 122.777 31.5894C122.618 31.811 122.411 32.0001 122.159 32.1111C121.463 32.4185 120.669 31.8848 120.462 31.2118C120.248 30.5173 120.216 29.7911 120.525 29.0778C120.733 28.5998 120.84 28.091 121.035 27.6083C121.101 27.4454 121.194 27.2919 121.29 27.1406C121.335 27.069 121.392 26.9978 121.431 26.9241C121.457 26.8757 121.46 26.8225 121.486 26.7741C121.51 26.7312 121.56 26.6956 121.615 26.6991C121.655 26.7016 121.688 26.7235 121.716 26.7501C121.726 26.7595 121.735 26.7698 121.744 26.7801C121.942 27.0064 122.04 27.2478 122.124 27.5153C122.208 27.778 122.376 28.0365 122.502 28.2877C122.763 28.8052 123.098 29.3629 123.242 29.9244C123.356 30.3668 123.146 30.9147 122.939 31.3228Z" fill="#F37348"/>
</mask>
<g mask="url(#mask0)">
<rect x="-24" width="356" height="40" fill="url(#paint0_linear)"/>
</g>
<defs>
<linearGradient id="paint0_linear" x1="154.983" y1="4.01852e-08" x2="155.654" y2="34.1535" gradientUnits="userSpaceOnUse">
<stop stop-color="#F7FCFF" stop-opacity="0.3"/>
<stop offset="1" stop-color="#F7FCFF" stop-opacity="0.1"/>
</linearGradient>
</defs>
</svg>
