<svg width="108" height="21" viewBox="0 0 108 21" fill="none" xmlns="http://www.w3.org/2000/svg">
<path d="M6.28616 10.555C6.24238 9.52929 6.60586 8.52786 7.29735 7.76903C7.98884 7.01019 8.95226 6.55547 9.97762 6.50401C11.003 6.45254 12.0071 6.8085 12.7711 7.49428C13.5351 8.18007 13.997 9.14006 14.0562 10.165C14.1609 11.194 13.8526 12.2226 13.199 13.0243C12.5455 13.826 11.6002 14.3352 10.5712 14.44C9.54211 14.5448 8.5136 14.2364 7.71188 13.5829C6.91017 12.9293 6.40092 11.984 6.29616 10.955L6.28616 10.555V10.555ZM10.1662 20.975C11.5703 21.0184 12.9689 20.7793 14.2789 20.2719C15.5889 19.7644 16.7836 18.9991 17.7922 18.0212C18.8007 17.0433 19.6026 15.8727 20.1502 14.579C20.6978 13.2853 20.98 11.8948 20.98 10.49C20.98 9.08518 20.6978 7.69466 20.1502 6.40096C19.6026 5.10726 18.8007 3.93673 17.7922 2.95882C16.7836 1.98092 15.5889 1.21555 14.2789 0.708148C12.9689 0.200742 11.5703 -0.038369 10.1662 0.00500031C7.44141 0.089158 4.85645 1.23071 2.95883 3.18784C1.06121 5.14498 0 7.76396 0 10.49C0 13.216 1.06121 15.835 2.95883 17.7922C4.85645 19.7493 7.44141 20.8908 10.1662 20.975Z" fill="url(#paint0_linear)"/>
<path d="M33.1165 10.4349C33.1165 13.6249 30.9065 15.0149 28.8165 15.0149C26.4865 15.0149 24.6865 13.3149 24.6865 10.5849C24.6865 7.69488 26.5765 6.00488 28.9665 6.00488C31.4365 6.00488 33.1165 7.80488 33.1165 10.4349ZM28.8865 13.8449C30.3865 13.8449 31.5065 12.4349 31.5065 10.4949C31.5065 9.03488 30.7765 7.17488 28.9265 7.17488C27.0665 7.17488 26.2765 8.88488 26.2765 10.5249C26.2765 12.4149 27.3565 13.8449 28.8865 13.8449Z" fill="url(#paint1_linear)"/>
<path d="M42.9565 12.2749C42.9565 13.1649 42.9765 13.9549 43.0265 14.6249H41.6365L41.5565 13.2249H41.5165C41.2251 13.7195 40.8079 14.1282 40.3073 14.4092C39.8067 14.6903 39.2406 14.8337 38.6665 14.8249C37.3065 14.8249 35.6865 14.0749 35.6865 11.0549V6.00488H37.2565V10.7749C37.2565 12.4149 37.7565 13.5249 39.1765 13.5249C40.2265 13.5249 40.9565 12.7949 41.2465 12.0949C41.3465 11.8349 41.3865 11.5649 41.3865 11.2949V6.00488H42.9565V12.2749Z" fill="url(#paint2_linear)"/>
<path d="M51.0765 13.2149C51.5465 13.5149 52.3665 13.8449 53.1465 13.8449C54.2865 13.8449 54.8265 13.2749 54.8265 12.5549C54.8265 11.8049 54.3765 11.4049 53.2165 10.9749C51.6665 10.4249 50.9365 9.56488 50.9365 8.53488C50.9365 7.14488 52.0565 6.00488 53.9165 6.00488C54.7865 6.00488 55.5565 6.25488 56.0365 6.54488L55.6465 7.67488C55.1139 7.34829 54.5013 7.17525 53.8765 7.17488C52.9465 7.17488 52.4365 7.71488 52.4365 8.35488C52.4365 9.06488 52.9465 9.38488 54.0765 9.81488C55.5665 10.3849 56.3365 11.1349 56.3365 12.4149C56.3365 13.9349 55.1565 15.0149 53.1065 15.0149C52.2621 15.0224 51.4296 14.816 50.6865 14.4149L51.0765 13.2149Z" fill="url(#paint3_linear)"/>
<path d="M66.0765 13.2249C66.5465 13.5249 67.3665 13.8449 68.1465 13.8449C69.2865 13.8449 69.8265 13.2749 69.8265 12.5649C69.8265 11.8149 69.3765 11.4049 68.2165 10.9749C66.6665 10.4249 65.9365 9.56488 65.9365 8.53488C65.9365 7.14488 67.0565 6.00488 68.9165 6.00488C69.7865 6.00488 70.5565 6.25488 71.0365 6.54488L70.6465 7.68488C70.115 7.35585 69.5017 7.18261 68.8765 7.18488C67.9465 7.18488 67.4365 7.71488 67.4365 8.35488C67.4365 9.06488 67.9465 9.39488 69.0765 9.81488C70.5665 10.3849 71.3365 11.1349 71.3365 12.4249C71.3365 13.9349 70.1565 15.0249 68.1065 15.0249C67.1665 15.0249 66.2965 14.7749 65.6865 14.4149L66.0765 13.2249Z" fill="url(#paint4_linear)"/>
<path d="M87.7565 8.53501C87.7565 7.64501 87.7365 6.91501 87.6865 6.20501H89.0565L89.1265 7.59501H89.1765C89.4344 7.10311 89.825 6.69336 90.304 6.4123C90.7831 6.13125 91.3313 5.99014 91.8865 6.00501C93.0665 6.00501 93.9565 6.71501 94.3265 7.73501H94.3665C94.6065 7.29501 94.9365 6.91501 95.3265 6.61501C95.8732 6.19642 96.5484 5.98079 97.2365 6.00501C98.3765 6.00501 100.067 6.75501 100.067 9.74501V14.825H98.5365V9.94501C98.5365 8.28501 97.9365 7.28501 96.6665 7.28501C95.7765 7.28501 95.0865 7.94501 94.8165 8.71501C94.7365 8.96501 94.6965 9.23501 94.6865 9.50501V14.825H93.1565V9.65501C93.1565 8.28501 92.5465 7.28501 91.3565 7.28501C90.3765 7.28501 89.6665 8.07501 89.4165 8.85501C89.3365 9.10501 89.2865 9.36501 89.2965 9.62501V14.825H87.7565V8.53501Z" fill="url(#paint5_linear)"/>
<path d="M102.077 13.2249C102.547 13.5249 103.367 13.8449 104.147 13.8449C105.287 13.8449 105.827 13.2749 105.827 12.5649C105.827 11.8149 105.377 11.4049 104.217 10.9749C102.667 10.4249 101.937 9.56488 101.937 8.53488C101.937 7.14488 103.057 6.00488 104.917 6.00488C105.787 6.00488 106.557 6.25488 107.037 6.54488L106.647 7.68488C106.115 7.35585 105.502 7.18261 104.877 7.18488C103.947 7.18488 103.437 7.71488 103.437 8.35488C103.437 9.06488 103.947 9.39488 105.077 9.81488C106.567 10.3849 107.337 11.1349 107.337 12.4249C107.337 13.9349 106.157 15.0249 104.107 15.0249C103.167 15.0249 102.297 14.7749 101.687 14.4149L102.077 13.2249Z" fill="url(#paint6_linear)"/>
<path d="M63.1365 6.00488L61.4265 11.0649C61.2065 11.6849 61.0365 12.4049 60.8765 12.8549H60.8365C60.6965 12.4049 60.4765 11.6649 60.2865 11.0949L58.3965 6.00488H56.6865L59.8765 13.9649C59.9465 14.1649 59.9865 14.2949 59.9865 14.3849C59.9865 14.4749 59.9265 14.6049 59.8565 14.7649C59.5606 15.4441 59.1083 16.0437 58.5365 16.5149C58.1365 16.8549 57.6665 17.1149 57.1665 17.2749L57.5965 18.5949C57.9965 18.5149 58.7465 18.2449 59.4865 17.5849C60.5565 16.6549 61.3265 15.1249 62.4465 12.1649L64.7965 6.00488H63.1365Z" fill="url(#paint7_linear)"/>
<path d="M80.1865 10.8049V10.8649C80.2065 11.1849 80.3465 12.6949 81.5065 13.4049C81.7765 13.5549 82.0565 13.6649 82.3565 13.7249C83.3936 13.855 84.4462 13.6813 85.3865 13.2249L85.7765 14.4149C84.8865 14.8349 83.9165 15.0449 82.9365 15.0449C80.2765 15.0449 78.6865 13.2749 78.6865 10.6649C78.6865 8.06488 80.2265 6.00488 82.7465 6.00488C85.5665 6.00488 86.3165 8.48488 86.3165 10.0749C86.3165 10.3249 86.2965 10.5649 86.2565 10.8049H80.1865ZM82.6165 7.13488C81.0265 7.13488 80.3365 8.68488 80.2065 9.68488H84.7965C84.8165 8.68488 84.3865 7.13488 82.6165 7.13488Z" fill="url(#paint8_linear)"/>
<path d="M49.2065 13.0949C49.2065 13.0949 48.6665 13.4949 48.2365 13.4849C47.6865 13.4749 47.3265 13.1049 47.3265 12.0449V7.18488H49.5565V6.06488H47.3265V3.00488L45.6865 4.17488V11.9549C45.6865 12.9749 45.8865 13.7449 46.3365 14.2049C46.5565 14.4549 46.8765 14.6549 47.2365 14.7649C48.5465 15.2149 49.5865 14.2949 49.5865 14.2949L49.2065 13.0949Z" fill="url(#paint9_linear)"/>
<path d="M77.2065 13.0949C77.2065 13.0949 76.6665 13.4949 76.2365 13.4849C75.6865 13.4749 75.3265 13.1049 75.3265 12.0449V7.18488H77.5565V6.06488H75.3265V3.00488L73.6865 4.17488V11.9549C73.6865 12.9749 73.8865 13.7449 74.3365 14.2049C74.5565 14.4549 74.8765 14.6549 75.2365 14.7649C76.5465 15.2149 77.5865 14.2949 77.5865 14.2949L77.2065 13.0949Z" fill="url(#paint10_linear)"/>
<defs>
<linearGradient id="paint0_linear" x1="10.548" y1="2.10771e-08" x2="13.588" y2="17.3889" gradientUnits="userSpaceOnUse">
<stop stop-color="#F7FCFF" stop-opacity="0.3"/>
<stop offset="1" stop-color="#F7FCFF" stop-opacity="0.1"/>
</linearGradient>
<linearGradient id="paint1_linear" x1="28.9248" y1="6.00488" x2="30.3143" y2="13.4413" gradientUnits="userSpaceOnUse">
<stop stop-color="#F7FCFF" stop-opacity="0.3"/>
<stop offset="1" stop-color="#F7FCFF" stop-opacity="0.1"/>
</linearGradient>
<linearGradient id="paint2_linear" x1="39.3768" y1="6.00488" x2="40.8927" y2="13.2205" gradientUnits="userSpaceOnUse">
<stop stop-color="#F7FCFF" stop-opacity="0.3"/>
<stop offset="1" stop-color="#F7FCFF" stop-opacity="0.1"/>
</linearGradient>
<linearGradient id="paint3_linear" x1="53.5271" y1="6.00488" x2="55.5181" y2="13.146" gradientUnits="userSpaceOnUse">
<stop stop-color="#F7FCFF" stop-opacity="0.3"/>
<stop offset="1" stop-color="#F7FCFF" stop-opacity="0.1"/>
</linearGradient>
<linearGradient id="paint4_linear" x1="68.5271" y1="6.00488" x2="70.5221" y2="13.1527" gradientUnits="userSpaceOnUse">
<stop stop-color="#F7FCFF" stop-opacity="0.3"/>
<stop offset="1" stop-color="#F7FCFF" stop-opacity="0.1"/>
</linearGradient>
<linearGradient id="paint5_linear" x1="93.9107" y1="6.00317" x2="94.8351" y2="13.4233" gradientUnits="userSpaceOnUse">
<stop stop-color="#F7FCFF" stop-opacity="0.3"/>
<stop offset="1" stop-color="#F7FCFF" stop-opacity="0.1"/>
</linearGradient>
<linearGradient id="paint6_linear" x1="104.527" y1="6.00488" x2="106.522" y2="13.1527" gradientUnits="userSpaceOnUse">
<stop stop-color="#F7FCFF" stop-opacity="0.3"/>
<stop offset="1" stop-color="#F7FCFF" stop-opacity="0.1"/>
</linearGradient>
<linearGradient id="paint7_linear" x1="60.7639" y1="6.00488" x2="63.4823" y2="16.0211" gradientUnits="userSpaceOnUse">
<stop stop-color="#F7FCFF" stop-opacity="0.3"/>
<stop offset="1" stop-color="#F7FCFF" stop-opacity="0.1"/>
</linearGradient>
<linearGradient id="paint8_linear" x1="82.5226" y1="6.00488" x2="84.0562" y2="13.4089" gradientUnits="userSpaceOnUse">
<stop stop-color="#F7FCFF" stop-opacity="0.3"/>
<stop offset="1" stop-color="#F7FCFF" stop-opacity="0.1"/>
</linearGradient>
<linearGradient id="paint9_linear" x1="47.6473" y1="3.00488" x2="51.8595" y2="10.9118" gradientUnits="userSpaceOnUse">
<stop stop-color="#F7FCFF" stop-opacity="0.3"/>
<stop offset="1" stop-color="#F7FCFF" stop-opacity="0.1"/>
</linearGradient>
<linearGradient id="paint10_linear" x1="75.6473" y1="3.00488" x2="79.8595" y2="10.9118" gradientUnits="userSpaceOnUse">
<stop stop-color="#F7FCFF" stop-opacity="0.3"/>
<stop offset="1" stop-color="#F7FCFF" stop-opacity="0.1"/>
</linearGradient>
</defs>
</svg>
