<svg width="109" height="20" fill="none" xmlns="http://www.w3.org/2000/svg"><path fill-rule="evenodd" clip-rule="evenodd" d="M1.053 2.661C3.273-.05 7.217-.708 10.052.771c4.067 2.137 4.642 6.739 3.245 10.313-2.095 5.383-7.067 6.369-9.86 3.945-.37 1.314-.658 2.547-.74 3.574a3.256 3.256 0 0 0 0 .904c.041.164-.042.493-.411.493-.863 0-2.096-.657-2.26-1.808-.082-.452.041-.904.205-1.438.1-.324.204-.651.309-.981.703-2.223 1.432-4.532 1.54-6.25v-.822c1.027-.452 3.04-1.11 2.959 0a20.91 20.91 0 0 1-.7 3.328c.084.945.576 1.767 2.096 2.096.823.164 3.287-.452 4.356-3.328.986-2.671.903-6.739-3.041-8.382-2.013-.863-4.807 0-5.711 2.547C1.669 5.99.313 3.69.765 3.072a1.46 1.46 0 0 1 .288-.41zm41.21 11.628c1.027 0 2.424-.863 3.369-2.013.493-.617.863-1.192 1.15-1.685-.295 1.082-.59 2.111-.822 2.921l-.163.572c-.946 1.15-2.26 2.218-4.11 2.218-1.232 0-2.218-1.191-2.547-3.246-1.48 1.644-3.862 3.37-6.327 3.287-1.561-.04-2.466-.863-2.876-2.013.39-.567.075-1.318-.15-1.857a8.504 8.504 0 0 1-.097-.238l-.03.03.056.14.026.067.012.029.018.046c.223.546.5 1.23.124 1.742v.041c-.739.986-1.972 1.931-3.574 1.931-1.48 0-2.548-1.068-3.41-2.506a.858.858 0 0 1-.164-.247c-.782.699-1.603 1.274-2.26 1.726-1.11.74-2.055 1.068-2.918 1.068-3.162 0-3.084-2.561-3.042-3.931l.002-.054c.041-2.26 1.11-5.506 1.315-5.835.41-1.15 3.04-1.232 3-.739-.041.041-1.11 1.849-1.685 5.547-.33 1.972-.288 3.163.821 3.245.37.042 1.11-.205 1.808-.698l.064-.048c.372-.278 1.23-.917 2.196-1.883-.863-2.383-1.397-5.3-1.274-5.547.411-.945 2.014-.986 2.424-.945h.01c.043-.003.123-.008.237.411 0 .124.123 2.054.534 4.068 1.001-1.517 1.822-3.236 2.17-3.964l.01-.021.004-.007a5.89 5.89 0 0 1 .158-.322c.287-.411 2.794-.247 2.794.986 0 .493-2.342 3.657-4.479 5.71.494 1.357 1.192 2.384 2.137 2.384 1.12 0 2.24-1.552 2.7-2.189.08-.11.14-.193.176-.235.14-3.762 2.886-6.862 5.957-6.862 1.233 0 2.342.945 2.3 2.301-.082 3.698-5.464 5.218-5.464 5.218s.082.288.33.616c.286.37.738.617 1.355.617 1.848.04 3.739-1.52 4.93-2.876v-.206c.205-3.739 2.547-10.806 5.67-10.97 1.52-.082 2.465.78 2.219 2.835-.417 3.208-2.713 5.515-4.442 7.252l-.018.018c-.479.48-.913.917-1.25 1.317-.248 2.054.45 2.794 1.025 2.794zM44.85 3.36c.041-.369.082-.903-.452-.862-.534 0-2.219 3.821-2.958 7.026 1.15-1.48 3.122-4.15 3.41-6.163zm-9.039 4.438c-.205-.534-1.15-.452-1.561-.205-2.63 1.643-2.096 4.15-2.096 4.15s4.314-2.178 3.657-3.945zm-16.598-4.19c.78-.493 1.068-1.397.699-2.014-.411-.616-1.357-.78-2.137-.287-.78.493-1.068 1.397-.698 2.013.41.657 1.355.78 2.136.287zm74.818 5.382a.987.987 0 0 1-.452-.247c-.41.945-1.479 3-3 4.273-.903.78-2.013 1.15-2.957 1.069-.575-.083-.987-.288-1.233-.699-.206-.37-.247-.616-.247-.616s5.218-1.15 5.588-4.808c.123-1.355-.821-2.341-1.971-2.465-2.507-.287-5.794 2.712-6.205 6.533-.04.247-.04.534-.04.78-.659.74-1.316 1.275-2.014 1.275-.905 0-1.15-1.15-1.15-2.22 0-1.237.479-3.331.875-5.062l.11-.484c2.795-.329 3.657-1.027 3.657-2.095 0-1.11-.903-1.603-.903-1.603s-.207.945-2.26 1.644c.07-.335.143-.641.212-.921.132-.544.239-.986.239-1.34 0-1.52-1.191-1.848-2.424-1.848 0 0 .041 1.233-.04 2.26-.056.695-.187 1.314-.292 1.808l-.003.014c-.049.23-.092.433-.117.602-.903.123-2.013.205-3.287.205h-.328c.205-.986.452-2.342.452-2.958 0-.904-.33-1.52-2.055-1.561-.123 0-.37.205-.37.329.082.451.124.986.124 1.438 0 .739-.165 1.93-.288 2.711-.986-.082-1.52-.205-1.52-.205s-.452.329-.452.863.493.821 1.685.903c-.106.436-.223.89-.34 1.352-.429 1.672-.879 3.433-.975 4.688v.083c-.699.862-1.562 1.602-2.301 1.52-.246-.041-.698-.123-.493-1.438.066-.489.181-.81.298-1.137.1-.279.202-.562.277-.959.077-.54-.208-.537-.413-.534h-.04c-1.355 0-1.725.288-1.848.534-.328.658-.493 1.274-.616 1.85-.493.657-1.11 1.437-2.013 1.437-.945 0-1.644-.945-1.561-2.3.123-2.466 1.971-4.11 3.903-4.027.78.04 1.52.246 2.095.698.165.124 1.027-.287.822-1.314-.164-.535-.575-1.397-2.137-1.48-4.026-.164-6.45 3.287-6.78 6.41-2.423 3.328-2.834 2.26-2.793 2.013.032-.656.382-1.512.766-2.448l.003-.01c.601-1.465 1.282-3.125.956-4.527-.205-.903-1.027-1.397-1.848-1.438-1.15-.04-2.465 1.274-3.451 2.63 0-1.685-.617-2.63-1.726-2.67-1.274-.083-2.425.985-3.451 2.423.041-.205.082-.492.082-.698.082-1.356-1.15-1.644-1.932-1.644h-.369c.164 1.52-.206 3.41-.616 5.136a52.484 52.484 0 0 1-.743 2.668c-.091.303-.174.58-.243.825-.123.452-.206.78-.206.986-.041.863.452 1.15 1.068 1.15.822 0 1.644-.246 1.644-.246-.123-.493.165-2.301.616-3.862.616-2.178 2.26-4.766 3.04-4.725.494.04.617.904.576 1.766-.023.638-.398 1.969-.743 3.19l-.006.02c-.276.976-.53 1.878-.567 2.296-.123 1.561 1.685 1.561 1.973 1.561.193 0 .295-.611.46-1.59.185-1.114.451-2.703 1.02-4.409.45-1.396 1.89-2.752 2.506-2.711.452.04.616.822.452 1.52-.154.732-.434 1.456-.715 2.183l-.004.01c-.397 1.025-.795 2.052-.843 3.107-.082 1.356.698 1.85 1.48 1.89.575.041 1.109-.164 1.725-.575.452-.329 1.726-1.356 2.095-1.931.411 1.315 1.438 2.588 3.041 2.588 1.11 0 2.013-.616 2.465-1.602.04.205.082.288.082.288l.04-.041c.248.534.659 1.191 1.521 1.314 1.11.124 2.465-.945 3.534-2.095.288 1.438 1.068 2.095 2.095 2.095 1.274 0 2.794-1.561 3.74-2.917.164 1.808 1.19 2.917 2.464 2.917 1.11 0 2.301-.986 3.37-2.136.329 1.11 1.109 1.972 2.505 2.095 1.685.206 3.699-.822 5.301-2.177 1.849-1.562 3.328-3.904 3.74-4.972l-.7-.109.658.068.206.041c.493 0 1.068-.04 1.726-.123h.041c.041 0 .123.04.123.082.041.082 0 .164-.04.205-.453.37-.946.986-1.48 1.808-.535.822-.74 1.685-.863 2.507-.165 1.355 1.027 2.67 2.342 2.67 1.603 0 2.712-.986 3.245-1.643.037.049.074.102.112.156.089.127.184.263.299.378.658.657 1.603 1.15 2.835 1.15 2.548 0 3.699-1.356 3.945-2.753.329-2.013-1.685-3.122-3.04-3.862-.864-.493-1.151-.862-1.069-1.602.041-.575.657-1.315 1.562-1.315 1.56 0 1.56 1.685 1.56 1.726 0 .164.042.246.083.246 0 0 .699-.082 1.027-.616.206-.329.534-1.356-.617-2.178-.493-.37-1.232-.616-2.053-.616-1.398 0-3.246.452-3.657 2.917-.206 1.315.616 2.219 1.766 3l.254.161c.947.6 1.876 1.186 1.801 2.016-.082.74-.616 1.315-1.356 1.274h-.083c-1.067-.082-1.684-.945-1.56-2.178 0-.061.011-.133.02-.205.01-.072.021-.144.021-.206 0-.048.013-.096.025-.136a.263.263 0 0 0 .016-.069c0-.205 0-.329-.082-.452a.55.55 0 0 0-.411-.164h-.082c-.371 0-.74.123-1.151.37-.288.205-.493.451-.575.862-.057.066-.123.204-.208.379-.286.59-.772 1.593-1.724 1.593-.534 0-1.109-.287-.862-1.972.164-1.191.986-2.342 1.52-2.999l.13-.158c.354-.429.779-.943.815-1.198.123-1.15-.945-1.89-1.89-1.274-.698.452-1.438.74-2.095.822-.041 0-.124 0-.165-.04-.04-.042-.082-.124-.04-.165.369-.452.739-1.89-.412-2.096-1.766-.328-2.136 1.11-2.177 1.685-.082.698.123 1.232.575 1.602.102.069.233.137.369.206zm-16.023 2.177c-.658 1.233-1.439 2.342-2.383 2.342-.74 0-1.15-.698-1.15-1.972 0-1.057.45-3.052.81-4.644l.004-.018.089-.392c.943 0 1.697-.013 2.34-.025.476-.008.891-.016 1.276-.016-.11.564-.256 1.204-.403 1.85l-.013.06-.005.023c-.233 1.022-.467 2.05-.566 2.792zm8.011-.616c.123-.288.205-.534.246-.78.288-.74.905-1.603 2.014-2.22.411-.246 1.314-.246 1.439.33.492 1.807-3.78 3.656-3.78 3.656s-.042-.37.081-.986z" fill="url(#paint0_linear)"/><defs><linearGradient id="paint0_linear" x1="59.001" y1="20" x2="59.514" y2=".013" gradientUnits="userSpaceOnUse"><stop stop-color="#8A5C16"/><stop offset="1" stop-color="#8A5C16" stop-opacity=".2"/></linearGradient></defs></svg>