<svg width="116" height="28" viewBox="0 0 116 28" fill="none" xmlns="http://www.w3.org/2000/svg">
<path d="M115.971 0H54.5542L54.5508 28H109.449V24.6599H115.971V0Z" fill="black"/>
<path d="M59.9446 10.1626H60.9272V11.1453H61.9101V12.1281H63.8755V10.1626H62.8928V9.17983H61.9101V7.21427H62.8928V6.23155H63.8755V4.26611H61.9101V5.24883H60.9272V6.23155H59.9446V7.21427H58.9619V9.17983H59.9446V10.1626Z" fill="url(#paint0_linear)"/>
<path d="M59.9446 10.1626H60.9272V11.1453H61.9101V12.1281H63.8755V10.1626H62.8928V9.17983H61.9101V7.21427H62.8928V6.23155H63.8755V4.26611H61.9101V5.24883H60.9272V6.23155H59.9446V7.21427H58.9619V9.17983H59.9446V10.1626Z" fill="url(#paint1_linear)"/>
<path d="M71.8157 8.19711H72.7984V5.24895H71.8157V4.26611H64.9365V12.1281H66.9019V9.17983H71.8157V8.19711ZM70.8328 7.21439H66.9019V6.23167H70.8328V7.21439Z" fill="url(#paint2_linear)"/>
<path d="M71.8157 8.19711H72.7984V5.24895H71.8157V4.26611H64.9365V12.1281H66.9019V9.17983H71.8157V8.19711ZM70.8328 7.21439H66.9019V6.23167H70.8328V7.21439Z" fill="url(#paint3_linear)"/>
<path d="M79.7569 12.1281H81.7223V9.17983H80.7396V8.19711H81.7223V5.24895H80.7396V4.26611H73.8604V12.1281H75.8259V9.17983H79.7569V12.1281ZM75.8259 6.23167H79.7569V7.21439H75.8259V6.23167Z" fill="url(#paint4_linear)"/>
<path d="M79.7569 12.1281H81.7223V9.17983H80.7396V8.19711H81.7223V5.24895H80.7396V4.26611H73.8604V12.1281H75.8259V9.17983H79.7569V12.1281ZM75.8259 6.23167H79.7569V7.21439H75.8259V6.23167Z" fill="url(#paint5_linear)"/>
<path d="M83.766 12.1281H89.6625V11.1454H90.6451V5.24895H89.6625V4.26611H83.766V5.24895H82.7832V11.1454H83.766V12.1281ZM84.7488 6.23167H88.6798V10.1627H84.7488V6.23167Z" fill="url(#paint6_linear)"/>
<path d="M83.766 12.1281H89.6625V11.1454H90.6451V5.24895H89.6625V4.26611H83.766V5.24895H82.7832V11.1454H83.766V12.1281ZM84.7488 6.23167H88.6798V10.1627H84.7488V6.23167Z" fill="url(#paint7_linear)"/>
<path d="M99.5689 10.1626H93.6725V9.17983H98.5862V8.19699H99.5689V4.26611H91.707V6.23155H97.6034V7.21427H92.6898V8.19699H91.707V12.1281H99.5689V10.1626Z" fill="url(#paint8_linear)"/>
<path d="M99.5689 10.1626H93.6725V9.17983H98.5862V8.19699H99.5689V4.26611H91.707V6.23155H97.6034V7.21427H92.6898V8.19699H91.707V12.1281H99.5689V10.1626Z" fill="url(#paint9_linear)"/>
<path d="M102.595 4.26611H100.63V12.1281H102.595V4.26611Z" fill="url(#paint10_linear)"/>
<path d="M102.595 4.26611H100.63V12.1281H102.595V4.26611Z" fill="url(#paint11_linear)"/>
<path d="M111.519 6.23167V4.26611H104.64V5.24895H103.657V8.19711H104.64V9.17983H109.554V10.1627H103.657V12.1281H110.537V11.1454H111.519V8.19711H110.537V7.21439H105.623V6.23167H111.519Z" fill="url(#paint12_linear)"/>
<path d="M111.519 6.23167V4.26611H104.64V5.24895H103.657V8.19711H104.64V9.17983H109.554V10.1627H103.657V12.1281H110.537V11.1454H111.519V8.19711H110.537V7.21439H105.623V6.23167H111.519Z" fill="url(#paint13_linear)"/>
<path d="M58.9619 15.4101H61.9102V21.3067H63.8756V15.4101H66.8239V13.4446H58.9619V15.4101Z" fill="url(#paint14_linear)"/>
<path d="M58.9619 15.4101H61.9102V21.3067H63.8756V15.4101H66.8239V13.4446H58.9619V15.4101Z" fill="url(#paint15_linear)"/>
<path d="M68.6976 14.4273H67.7148V20.3239H68.6976V21.3066H75.5768V19.341H69.6803V18.3583H74.5941V16.3929H69.6803V15.41H75.5768V13.4446H68.6976V14.4273Z" fill="url(#paint16_linear)"/>
<path d="M68.6976 14.4273H67.7148V20.3239H68.6976V21.3066H75.5768V19.341H69.6803V18.3583H74.5941V16.3929H69.6803V15.41H75.5768V13.4446H68.6976V14.4273Z" fill="url(#paint17_linear)"/>
<path d="M84.4997 18.3583H82.5341V19.341H78.6031V15.41H82.5341V16.3927H84.4997V14.4273H83.517V13.4446H77.6204V14.4273H76.6377V20.3239H77.6204V21.3066H83.517V20.3239H84.4997V18.3583Z" fill="url(#paint18_linear)"/>
<path d="M84.4997 18.3583H82.5341V19.341H78.6031V15.41H82.5341V16.3927H84.4997V14.4273H83.517V13.4446H77.6204V14.4273H76.6377V20.3239H77.6204V21.3066H83.517V20.3239H84.4997V18.3583Z" fill="url(#paint19_linear)"/>
<path d="M91.46 16.3929H87.529V13.4446H85.5635V21.3066H87.529V18.3584H91.46V21.3066H93.4256V13.4446H91.46V16.3929Z" fill="url(#paint20_linear)"/>
<path d="M91.46 16.3929H87.529V13.4446H85.5635V21.3066H87.529V18.3584H91.46V21.3066H93.4256V13.4446H91.46V16.3929Z" fill="url(#paint21_linear)"/>
<path d="M100.382 14.4273H99.3992V15.41H98.4163V16.3929H97.4335V17.3756H96.4509V18.3583H95.4682V19.341H94.4854V21.3066H96.4509V20.3239H97.4335V19.341H98.4163V18.3583H99.3992V17.3756H100.382V16.3929H101.365V15.41H102.347V13.4446H100.382V14.4273Z" fill="url(#paint22_linear)"/>
<path d="M100.382 14.4273H99.3992V15.41H98.4163V16.3929H97.4335V17.3756H96.4509V18.3583H95.4682V19.341H94.4854V21.3066H96.4509V20.3239H97.4335V19.341H98.4163V18.3583H99.3992V17.3756H100.382V16.3929H101.365V15.41H102.347V13.4446H100.382V14.4273Z" fill="url(#paint23_linear)"/>
<path d="M107.339 15.4101H106.356V14.4274H105.374V13.4446H103.408V15.4101H104.391V16.3929H105.374V18.3584H104.391V19.3411H103.408V21.3067H105.374V20.3239H106.356V19.3411H107.339V18.3584H108.322V16.3929H107.339V15.4101Z" fill="url(#paint24_linear)"/>
<path d="M107.339 15.4101H106.356V14.4274H105.374V13.4446H103.408V15.4101H104.391V16.3929H105.374V18.3584H104.391V19.3411H103.408V21.3067H105.374V20.3239H106.356V19.3411H107.339V18.3584H108.322V16.3929H107.339V15.4101Z" fill="url(#paint25_linear)"/>
<path d="M62.3815 23.8025H61.9062V25.5227H62.4034C62.8806 25.5227 63.2088 25.2464 63.2088 24.6547C63.2088 24.0637 62.8806 23.8025 62.3815 23.8025ZM62.3599 25.2092H62.2955V24.116H62.3599C62.6274 24.116 62.8095 24.2439 62.8095 24.6547C62.8095 25.0663 62.6274 25.2092 62.3599 25.2092Z" fill="url(#paint26_linear)"/>
<path d="M62.3815 23.8025H61.9062V25.5227H62.4034C62.8806 25.5227 63.2088 25.2464 63.2088 24.6547C63.2088 24.0637 62.8806 23.8025 62.3815 23.8025ZM62.3599 25.2092H62.2955V24.116H62.3599C62.6274 24.116 62.8095 24.2439 62.8095 24.6547C62.8095 25.0663 62.6274 25.2092 62.3599 25.2092Z" fill="url(#paint27_linear)"/>
<path d="M67.4785 24.1291H67.8802V25.1964H67.4785V25.5228H68.6713V25.1964H68.2696V24.1291H68.6713V23.8027H67.4785V24.1291Z" fill="url(#paint28_linear)"/>
<path d="M67.4785 24.1291H67.8802V25.1964H67.4785V25.5228H68.6713V25.1964H68.2696V24.1291H68.6713V23.8027H67.4785V24.1291Z" fill="url(#paint29_linear)"/>
<path d="M73.7903 24.6038C73.7418 24.7919 73.7045 24.9658 73.6525 25.1549H73.6419C73.5901 24.9658 73.5554 24.7919 73.5042 24.6038L73.2975 23.8027H72.8848L73.4048 25.5228H73.873L74.3916 23.8027H73.9932L73.7903 24.6038Z" fill="url(#paint30_linear)"/>
<path d="M73.7903 24.6038C73.7418 24.7919 73.7045 24.9658 73.6525 25.1549H73.6419C73.5901 24.9658 73.5554 24.7919 73.5042 24.6038L73.2975 23.8027H72.8848L73.4048 25.5228H73.873L74.3916 23.8027H73.9932L73.7903 24.6038Z" fill="url(#paint31_linear)"/>
<path d="M78.6035 24.1291H79.0054V25.1964H78.6035V25.5228H79.7963V25.1964H79.3946V24.1291H79.7963V23.8027H78.6035V24.1291Z" fill="url(#paint32_linear)"/>
<path d="M78.6035 24.1291H79.0054V25.1964H78.6035V25.5228H79.7963V25.1964H79.3946V24.1291H79.7963V23.8027H78.6035V24.1291Z" fill="url(#paint33_linear)"/>
<path d="M85.0576 24.5533L84.8472 24.464C84.6822 24.4022 84.5668 24.3643 84.5668 24.2608C84.5668 24.1603 84.6538 24.1071 84.7821 24.1071C84.9502 24.1071 85.0575 24.1545 85.1785 24.2416L85.3747 23.9962C85.2194 23.8485 85.0104 23.771 84.8033 23.771C84.4296 23.771 84.173 23.9986 84.173 24.2836C84.173 24.5339 84.3469 24.68 84.5376 24.7525L84.7616 24.8482C84.9245 24.9164 85.0267 24.9464 85.0267 25.0701C85.0267 25.1543 84.9504 25.2183 84.7853 25.2183C84.6184 25.2183 84.4579 25.1452 84.3278 25.0388L84.1045 25.3061C84.2868 25.4695 84.5269 25.5544 84.7594 25.5544C85.1852 25.5544 85.4251 25.3069 85.4251 25.0209C85.4251 24.7782 85.2828 24.6378 85.0576 24.5533Z" fill="url(#paint34_linear)"/>
<path d="M85.0576 24.5533L84.8472 24.464C84.6822 24.4022 84.5668 24.3643 84.5668 24.2608C84.5668 24.1603 84.6538 24.1071 84.7821 24.1071C84.9502 24.1071 85.0575 24.1545 85.1785 24.2416L85.3747 23.9962C85.2194 23.8485 85.0104 23.771 84.8033 23.771C84.4296 23.771 84.173 23.9986 84.173 24.2836C84.173 24.5339 84.3469 24.68 84.5376 24.7525L84.7616 24.8482C84.9245 24.9164 85.0267 24.9464 85.0267 25.0701C85.0267 25.1543 84.9504 25.2183 84.7853 25.2183C84.6184 25.2183 84.4579 25.1452 84.3278 25.0388L84.1045 25.3061C84.2868 25.4695 84.5269 25.5544 84.7594 25.5544C85.1852 25.5544 85.4251 25.3069 85.4251 25.0209C85.4251 24.7782 85.2828 24.6378 85.0576 24.5533Z" fill="url(#paint35_linear)"/>
<path d="M89.7295 24.1291H90.1312V25.1964H89.7295V25.5228H90.9222V25.1964H90.5205V24.1291H90.9222V23.8027H89.7295V24.1291Z" fill="url(#paint36_linear)"/>
<path d="M89.7295 24.1291H90.1312V25.1964H89.7295V25.5228H90.9222V25.1964H90.5205V24.1291H90.9222V23.8027H89.7295V24.1291Z" fill="url(#paint37_linear)"/>
<path d="M95.8882 23.771C95.4785 23.771 95.1963 24.08 95.1963 24.6548C95.1963 25.2433 95.4785 25.5544 95.8882 25.5544C96.2979 25.5544 96.5801 25.2433 96.5801 24.6548C96.58 24.08 96.2979 23.771 95.8882 23.771ZM95.8882 25.2183C95.7088 25.2183 95.5955 25.0258 95.5955 24.6548C95.5955 24.2973 95.7088 24.1071 95.8882 24.1071C96.0676 24.1071 96.1809 24.2973 96.1809 24.6548C96.1808 25.0258 96.0675 25.2183 95.8882 25.2183Z" fill="url(#paint38_linear)"/>
<path d="M95.8882 23.771C95.4785 23.771 95.1963 24.08 95.1963 24.6548C95.1963 25.2433 95.4785 25.5544 95.8882 25.5544C96.2979 25.5544 96.5801 25.2433 96.5801 24.6548C96.58 24.08 96.2979 23.771 95.8882 23.771ZM95.8882 25.2183C95.7088 25.2183 95.5955 25.0258 95.5955 24.6548C95.5955 24.2973 95.7088 24.1071 95.8882 24.1071C96.0676 24.1071 96.1809 24.2973 96.1809 24.6548C96.1808 25.0258 96.0675 25.2183 95.8882 25.2183Z" fill="url(#paint39_linear)"/>
<path d="M101.697 24.4108C101.697 24.6139 101.733 24.8549 101.75 25.036H101.741L101.594 24.658L101.232 23.8027H100.833V25.523H101.204V24.9127C101.204 24.7104 101.168 24.4799 101.15 24.2897H101.16L101.307 24.6658L101.669 25.523H102.068V23.8027H101.697V24.4108Z" fill="url(#paint40_linear)"/>
<path d="M101.697 24.4108C101.697 24.6139 101.733 24.8549 101.75 25.036H101.741L101.594 24.658L101.232 23.8027H100.833V25.523H101.204V24.9127C101.204 24.7104 101.168 24.4799 101.15 24.2897H101.16L101.307 24.6658L101.669 25.523H102.068V23.8027H101.697V24.4108Z" fill="url(#paint41_linear)"/>
<path d="M54.5542 0H0.00293753L0 28H54.5542V0Z" fill="url(#paint42_linear)"/>
<path d="M47.5722 9.32397H42.7704C41.6687 9.32397 40.7288 10.217 40.6708 11.3187L40.3913 16.6375C40.3332 17.7392 41.1794 18.6324 42.281 18.6324H47.0828C48.1843 18.6324 49.1244 17.7392 49.1822 16.6375L49.4618 11.3187C49.5198 10.217 48.6737 9.32397 47.5722 9.32397ZM44.0995 14.0664C44.0734 14.5595 43.6535 14.9589 43.16 14.9589C42.6663 14.9589 42.2881 14.5595 42.3141 14.0664C42.34 13.5728 42.7603 13.1733 43.2539 13.1733C43.7475 13.1733 44.1252 13.5728 44.0995 14.0664ZM47.4505 14.0664C47.4411 14.2445 47.3622 14.4129 47.2292 14.5397L45.3496 16.3252C45.2117 16.4562 45.0369 16.5218 44.8652 16.5218C44.6938 16.5218 44.5259 16.4562 44.4023 16.3252C44.1544 16.0639 44.1762 15.64 44.452 15.3788L45.8332 14.0657L44.5899 12.7534V12.754C44.342 12.4926 44.3644 12.0682 44.6397 11.8066C44.9147 11.5451 45.3388 11.5451 45.5865 11.8066L47.2789 13.5925C47.3987 13.7191 47.4599 13.8873 47.4505 14.0664ZM20.928 9.33008H22.0868C22.6311 9.33008 23.0417 9.36968 23.3184 9.44875C23.8375 9.59797 24.1663 9.936 24.3053 10.4626C24.3859 10.7699 24.407 11.2834 24.3692 12.0033L24.167 15.8484C24.1287 16.5772 24.0625 17.0907 23.9677 17.3891C23.7988 17.9248 23.4728 18.2847 22.9892 18.4688C22.7116 18.5745 22.2784 18.6268 21.69 18.6268H20.6633C20.0311 18.6268 19.5475 18.5567 19.2124 18.4164C18.7403 18.2142 18.4563 17.8546 18.3604 17.3367C18.3262 17.152 18.3211 16.8362 18.3447 16.3882L18.5836 11.8452C18.6209 11.1344 18.7136 10.6208 18.8621 10.3048C19.0599 9.87467 19.3736 9.58916 19.8022 9.44875C20.0439 9.36968 20.4186 9.33008 20.928 9.33008ZM21.5942 16.691L21.8794 11.2659H21.1554L20.8701 16.691H21.5942ZM27.2268 16.691C27.311 15.9275 27.6062 15.3173 28.1131 14.8608L29.4674 13.6494C29.9544 13.0699 30.225 12.2668 30.2789 11.2395L30.3794 9.33008H24.9802L24.8783 11.2659L27.8684 11.2526C27.798 11.9199 27.495 12.5081 26.9591 13.0172C26.2301 13.6931 25.723 14.154 25.4379 14.4001C24.8963 15.0146 24.6012 15.7826 24.5528 16.7045L24.4519 18.6268H29.996L30.0977 16.691H27.2268ZM30.3715 18.6268H32.9129L33.4017 9.33008H30.8602L30.3715 18.6268ZM9.60678 14.9134C10.0985 14.9134 10.4732 14.8786 10.7318 14.808C11.2214 14.6764 11.5656 14.3914 11.7643 13.9523C11.8937 13.6624 11.9745 13.2103 12.0068 12.5958L12.0706 11.3845C12.1156 10.5242 11.9046 9.94469 11.4375 9.64626C11.1061 9.43559 10.5324 9.33008 9.71605 9.33008H8.77974C7.99476 9.33537 7.42844 9.4397 7.08359 9.64532C6.58507 9.94364 6.31307 10.5231 6.26783 11.3836L6.00899 16.3077C5.97668 16.9221 6.01005 17.3743 6.1091 17.6641C6.26149 18.1031 6.57567 18.3882 7.05163 18.5199C7.3026 18.5901 7.67388 18.6252 8.16548 18.6252H8.41069L8.60584 14.9134H9.60678ZM8.7976 11.2659H9.57447L9.46802 13.2937H8.69091L8.7976 11.2659ZM39.1562 13.7447C39.0809 13.6052 38.9883 13.484 38.8735 13.386C38.537 13.105 37.987 12.9648 37.2233 12.9648H36.1827L36.2722 11.2659H39.2821C39.302 10.4718 39.0921 9.92954 38.6471 9.64532C38.324 9.4397 37.7688 9.33537 36.9844 9.33008H36.0482C35.9722 9.33008 35.9005 9.33208 35.8285 9.33384C35.7901 9.33502 35.7505 9.33502 35.7131 9.33737C35.7042 9.3376 35.6957 9.33819 35.6872 9.33866C34.4551 9.41715 33.8073 10.0593 33.7438 11.2659L33.6629 12.8067C33.5924 14.1497 34.2548 14.8213 35.6507 14.8213H36.8492L36.7508 16.691H33.6162C33.5978 17.4821 33.8074 18.0223 34.2513 18.3058C34.5745 18.5112 35.1295 18.6158 35.9143 18.6208L36.3763 18.6235L36.3761 18.6252H36.6212C36.6305 18.6252 36.6389 18.6249 36.648 18.6249L36.9913 18.6268C38.1328 18.6268 38.8419 18.2496 39.1186 17.4943C39.2108 17.2397 39.2681 16.8974 39.2908 16.4674L39.3691 14.9794C39.3962 14.4646 39.3237 14.0548 39.1562 13.7447ZM18.2069 10.7015C18.2025 10.6595 18.1988 10.6171 18.1925 10.581C18.0521 9.74707 17.3497 9.33008 16.0856 9.33008H12.4907L12.0019 18.6268H14.5566L14.7551 14.8478H15.5191L15.3205 18.6268H17.796L17.9504 15.6905C17.953 15.6427 17.9511 15.5989 17.9519 15.5532C17.961 14.8159 17.7229 14.3285 17.2311 14.0969C17.1365 14.0532 16.9767 14.0048 16.7512 13.9523C17.3586 13.759 17.7612 13.4431 17.9599 13.0042C18.0226 12.8674 18.0745 12.6755 18.1159 12.4305C18.1596 12.1721 18.1915 11.8549 18.2113 11.4766C18.2285 11.1517 18.2264 10.8958 18.2069 10.7015ZM15.6105 13.1094H14.8465L14.9436 11.2659H15.7074L15.6105 13.1094Z" fill="black"/>
<path d="M47.5721 9.32397H42.7704C41.6687 9.32397 40.7288 10.217 40.6708 11.3187L40.3913 16.6375C40.3332 17.7392 41.1794 18.6324 42.281 18.6324H47.0828C48.1843 18.6324 49.1244 17.7392 49.1822 16.6375L49.4618 11.3187C49.5198 10.217 48.6737 9.32397 47.5721 9.32397ZM44.0995 14.0664C44.0734 14.5595 43.6535 14.9589 43.16 14.9589C42.6663 14.9589 42.2881 14.5595 42.3141 14.0664C42.34 13.5728 42.7603 13.1733 43.2539 13.1733C43.7475 13.1733 44.1252 13.5728 44.0995 14.0664ZM47.4505 14.0664C47.4411 14.2445 47.3622 14.4129 47.2292 14.5397L45.3496 16.3252C45.2117 16.4562 45.0369 16.5218 44.8652 16.5218C44.6938 16.5218 44.5259 16.4562 44.4023 16.3252C44.1544 16.0639 44.1762 15.64 44.452 15.3788L45.8332 14.0657L44.5899 12.7534V12.754C44.342 12.4926 44.3644 12.0682 44.6397 11.8066C44.9147 11.5451 45.3388 11.5451 45.5865 11.8066L47.2789 13.5925C47.3987 13.7191 47.4599 13.8873 47.4505 14.0664ZM20.928 9.33008H22.0868C22.6311 9.33008 23.0418 9.36968 23.3184 9.44875C23.8375 9.59797 24.1663 9.936 24.3053 10.4626C24.3859 10.7699 24.407 11.2834 24.3692 12.0033L24.167 15.8484C24.1287 16.5772 24.0625 17.0907 23.9677 17.3891C23.7988 17.9248 23.4728 18.2847 22.9892 18.4688C22.7116 18.5745 22.2784 18.6268 21.69 18.6268H20.6633C20.0311 18.6268 19.5475 18.5567 19.2124 18.4164C18.7403 18.2142 18.4563 17.8546 18.3604 17.3367C18.3262 17.152 18.3211 16.8362 18.3447 16.3882L18.5836 11.8452C18.6209 11.1344 18.7136 10.6208 18.8621 10.3048C19.0599 9.87467 19.3736 9.58916 19.8022 9.44875C20.0439 9.36968 20.4186 9.33008 20.928 9.33008ZM21.5942 16.691L21.8794 11.2659H21.1554L20.8701 16.691H21.5942ZM27.2268 16.691C27.311 15.9275 27.6062 15.3173 28.1131 14.8608L29.4674 13.6494C29.9544 13.0699 30.225 12.2668 30.2789 11.2395L30.3794 9.33008H24.9802L24.8783 11.2659L27.8684 11.2526C27.798 11.9199 27.495 12.5081 26.9591 13.0172C26.2301 13.6931 25.723 14.154 25.4379 14.4001C24.8963 15.0146 24.6012 15.7826 24.5528 16.7045L24.4519 18.6268H29.996L30.0977 16.691H27.2268V16.691ZM30.3715 18.6268H32.9129L33.4017 9.33008H30.8602L30.3715 18.6268ZM9.60678 14.9134C10.0985 14.9134 10.4732 14.8786 10.7318 14.808C11.2214 14.6764 11.5656 14.3914 11.7643 13.9523C11.8937 13.6624 11.9745 13.2103 12.0068 12.5958L12.0706 11.3845C12.1156 10.5242 11.9046 9.94469 11.4375 9.64626C11.1061 9.43559 10.5324 9.33008 9.71605 9.33008H8.77974C7.99476 9.33537 7.42844 9.4397 7.08359 9.64532C6.58507 9.94364 6.31307 10.5231 6.26783 11.3836L6.00899 16.3077C5.97668 16.9221 6.01005 17.3743 6.1091 17.6641C6.26149 18.1031 6.57567 18.3882 7.05163 18.5199C7.3026 18.5901 7.67388 18.6252 8.16548 18.6252H8.41069L8.60584 14.9134H9.60678ZM8.7976 11.2659H9.57447L9.46802 13.2937H8.69091L8.7976 11.2659ZM39.1562 13.7447C39.0809 13.6052 38.9883 13.484 38.8735 13.386C38.537 13.105 37.987 12.9648 37.2233 12.9648H36.1827L36.2722 11.2659H39.2821C39.302 10.4718 39.0921 9.92954 38.6471 9.64532C38.324 9.4397 37.7688 9.33537 36.9844 9.33008H36.0482C35.9722 9.33008 35.9005 9.33208 35.8285 9.33384C35.7901 9.33502 35.7505 9.33502 35.7131 9.33737C35.7042 9.3376 35.6957 9.33819 35.6872 9.33866C34.4551 9.41715 33.8073 10.0593 33.7438 11.2659L33.6629 12.8067C33.5924 14.1497 34.2548 14.8213 35.6507 14.8213H36.8492L36.7508 16.691H33.6162C33.5978 17.4821 33.8074 18.0223 34.2513 18.3058C34.5745 18.5112 35.1295 18.6158 35.9143 18.6208L36.3763 18.6235L36.3761 18.6252H36.6212C36.6305 18.6252 36.6389 18.6249 36.648 18.6249L36.9913 18.6268C38.1328 18.6268 38.8419 18.2496 39.1186 17.4943C39.2108 17.2397 39.2681 16.8974 39.2908 16.4674L39.3691 14.9794C39.3962 14.4646 39.3237 14.0548 39.1562 13.7447ZM18.2069 10.7015C18.2025 10.6595 18.1988 10.6171 18.1925 10.581C18.0521 9.74707 17.3497 9.33008 16.0856 9.33008H12.4907L12.0019 18.6268H14.5566L14.7551 14.8478H15.5191L15.3205 18.6268H17.796L17.9504 15.6905C17.953 15.6427 17.9511 15.5989 17.9519 15.5532C17.961 14.8159 17.7229 14.3285 17.2311 14.0969C17.1365 14.0532 16.9767 14.0048 16.7512 13.9523C17.3586 13.759 17.7612 13.4431 17.9599 13.0042C18.0226 12.8674 18.0745 12.6755 18.1159 12.4305C18.1596 12.1721 18.1915 11.8549 18.2113 11.4766C18.2285 11.1517 18.2264 10.8958 18.2069 10.7015ZM15.6105 13.1094H14.8465L14.9436 11.2659H15.7074L15.6105 13.1094Z" stroke="#EC2024" stroke-width="0.04" stroke-miterlimit="10"/>
<defs>
<linearGradient id="paint0_linear" x1="61.6431" y1="12.1282" x2="63.3048" y2="4.63458" gradientUnits="userSpaceOnUse">
<stop stop-color="#8A5C16"/>
<stop offset="1" stop-color="#8A5C16" stop-opacity="0.2"/>
</linearGradient>
<linearGradient id="paint1_linear" x1="61.6431" y1="12.1282" x2="63.3048" y2="4.63458" gradientUnits="userSpaceOnUse">
<stop stop-color="#8A5C16"/>
<stop offset="1" stop-color="#8A5C16" stop-opacity="0.2"/>
</linearGradient>
<linearGradient id="paint2_linear" x1="69.2265" y1="12.1282" x2="70.2956" y2="4.41427" gradientUnits="userSpaceOnUse">
<stop stop-color="#8A5C16"/>
<stop offset="1" stop-color="#8A5C16" stop-opacity="0.2"/>
</linearGradient>
<linearGradient id="paint3_linear" x1="69.2265" y1="12.1282" x2="70.2956" y2="4.41427" gradientUnits="userSpaceOnUse">
<stop stop-color="#8A5C16"/>
<stop offset="1" stop-color="#8A5C16" stop-opacity="0.2"/>
</linearGradient>
<linearGradient id="paint4_linear" x1="78.1504" y1="12.1282" x2="79.2194" y2="4.41427" gradientUnits="userSpaceOnUse">
<stop stop-color="#8A5C16"/>
<stop offset="1" stop-color="#8A5C16" stop-opacity="0.2"/>
</linearGradient>
<linearGradient id="paint5_linear" x1="78.1504" y1="12.1282" x2="79.2194" y2="4.41427" gradientUnits="userSpaceOnUse">
<stop stop-color="#8A5C16"/>
<stop offset="1" stop-color="#8A5C16" stop-opacity="0.2"/>
</linearGradient>
<linearGradient id="paint6_linear" x1="87.0732" y1="12.1282" x2="88.1422" y2="4.41427" gradientUnits="userSpaceOnUse">
<stop stop-color="#8A5C16"/>
<stop offset="1" stop-color="#8A5C16" stop-opacity="0.2"/>
</linearGradient>
<linearGradient id="paint7_linear" x1="87.0732" y1="12.1282" x2="88.1422" y2="4.41427" gradientUnits="userSpaceOnUse">
<stop stop-color="#8A5C16"/>
<stop offset="1" stop-color="#8A5C16" stop-opacity="0.2"/>
</linearGradient>
<linearGradient id="paint8_linear" x1="95.997" y1="12.1282" x2="97.0661" y2="4.41427" gradientUnits="userSpaceOnUse">
<stop stop-color="#8A5C16"/>
<stop offset="1" stop-color="#8A5C16" stop-opacity="0.2"/>
</linearGradient>
<linearGradient id="paint9_linear" x1="95.997" y1="12.1282" x2="97.0661" y2="4.41427" gradientUnits="userSpaceOnUse">
<stop stop-color="#8A5C16"/>
<stop offset="1" stop-color="#8A5C16" stop-opacity="0.2"/>
</linearGradient>
<linearGradient id="paint10_linear" x1="101.702" y1="12.1282" x2="105.036" y2="6.11411" gradientUnits="userSpaceOnUse">
<stop stop-color="#8A5C16"/>
<stop offset="1" stop-color="#8A5C16" stop-opacity="0.2"/>
</linearGradient>
<linearGradient id="paint11_linear" x1="101.702" y1="12.1282" x2="105.036" y2="6.11411" gradientUnits="userSpaceOnUse">
<stop stop-color="#8A5C16"/>
<stop offset="1" stop-color="#8A5C16" stop-opacity="0.2"/>
</linearGradient>
<linearGradient id="paint12_linear" x1="107.947" y1="12.1282" x2="109.016" y2="4.41427" gradientUnits="userSpaceOnUse">
<stop stop-color="#8A5C16"/>
<stop offset="1" stop-color="#8A5C16" stop-opacity="0.2"/>
</linearGradient>
<linearGradient id="paint13_linear" x1="107.947" y1="12.1282" x2="109.016" y2="4.41427" gradientUnits="userSpaceOnUse">
<stop stop-color="#8A5C16"/>
<stop offset="1" stop-color="#8A5C16" stop-opacity="0.2"/>
</linearGradient>
<linearGradient id="paint14_linear" x1="63.252" y1="21.3067" x2="64.321" y2="13.5927" gradientUnits="userSpaceOnUse">
<stop stop-color="#8A5C16"/>
<stop offset="1" stop-color="#8A5C16" stop-opacity="0.2"/>
</linearGradient>
<linearGradient id="paint15_linear" x1="63.252" y1="21.3067" x2="64.321" y2="13.5927" gradientUnits="userSpaceOnUse">
<stop stop-color="#8A5C16"/>
<stop offset="1" stop-color="#8A5C16" stop-opacity="0.2"/>
</linearGradient>
<linearGradient id="paint16_linear" x1="72.0049" y1="21.3066" x2="73.0739" y2="13.5927" gradientUnits="userSpaceOnUse">
<stop stop-color="#8A5C16"/>
<stop offset="1" stop-color="#8A5C16" stop-opacity="0.2"/>
</linearGradient>
<linearGradient id="paint17_linear" x1="72.0049" y1="21.3066" x2="73.0739" y2="13.5927" gradientUnits="userSpaceOnUse">
<stop stop-color="#8A5C16"/>
<stop offset="1" stop-color="#8A5C16" stop-opacity="0.2"/>
</linearGradient>
<linearGradient id="paint18_linear" x1="80.9277" y1="21.3066" x2="81.9968" y2="13.5927" gradientUnits="userSpaceOnUse">
<stop stop-color="#8A5C16"/>
<stop offset="1" stop-color="#8A5C16" stop-opacity="0.2"/>
</linearGradient>
<linearGradient id="paint19_linear" x1="80.9277" y1="21.3066" x2="81.9968" y2="13.5927" gradientUnits="userSpaceOnUse">
<stop stop-color="#8A5C16"/>
<stop offset="1" stop-color="#8A5C16" stop-opacity="0.2"/>
</linearGradient>
<linearGradient id="paint20_linear" x1="89.8536" y1="21.3066" x2="90.9226" y2="13.5927" gradientUnits="userSpaceOnUse">
<stop stop-color="#8A5C16"/>
<stop offset="1" stop-color="#8A5C16" stop-opacity="0.2"/>
</linearGradient>
<linearGradient id="paint21_linear" x1="89.8536" y1="21.3066" x2="90.9226" y2="13.5927" gradientUnits="userSpaceOnUse">
<stop stop-color="#8A5C16"/>
<stop offset="1" stop-color="#8A5C16" stop-opacity="0.2"/>
</linearGradient>
<linearGradient id="paint22_linear" x1="98.7754" y1="21.3066" x2="99.8444" y2="13.5927" gradientUnits="userSpaceOnUse">
<stop stop-color="#8A5C16"/>
<stop offset="1" stop-color="#8A5C16" stop-opacity="0.2"/>
</linearGradient>
<linearGradient id="paint23_linear" x1="98.7754" y1="21.3066" x2="99.8444" y2="13.5927" gradientUnits="userSpaceOnUse">
<stop stop-color="#8A5C16"/>
<stop offset="1" stop-color="#8A5C16" stop-opacity="0.2"/>
</linearGradient>
<linearGradient id="paint24_linear" x1="106.089" y1="21.3067" x2="107.751" y2="13.813" gradientUnits="userSpaceOnUse">
<stop stop-color="#8A5C16"/>
<stop offset="1" stop-color="#8A5C16" stop-opacity="0.2"/>
</linearGradient>
<linearGradient id="paint25_linear" x1="106.089" y1="21.3067" x2="107.751" y2="13.813" gradientUnits="userSpaceOnUse">
<stop stop-color="#8A5C16"/>
<stop offset="1" stop-color="#8A5C16" stop-opacity="0.2"/>
</linearGradient>
<linearGradient id="paint26_linear" x1="62.617" y1="25.5227" x2="62.9217" y2="23.8582" gradientUnits="userSpaceOnUse">
<stop stop-color="#8A5C16"/>
<stop offset="1" stop-color="#8A5C16" stop-opacity="0.2"/>
</linearGradient>
<linearGradient id="paint27_linear" x1="62.617" y1="25.5227" x2="62.9217" y2="23.8582" gradientUnits="userSpaceOnUse">
<stop stop-color="#8A5C16"/>
<stop offset="1" stop-color="#8A5C16" stop-opacity="0.2"/>
</linearGradient>
<linearGradient id="paint28_linear" x1="68.1294" y1="25.5229" x2="68.46" y2="23.8688" gradientUnits="userSpaceOnUse">
<stop stop-color="#8A5C16"/>
<stop offset="1" stop-color="#8A5C16" stop-opacity="0.2"/>
</linearGradient>
<linearGradient id="paint29_linear" x1="68.1294" y1="25.5229" x2="68.46" y2="23.8688" gradientUnits="userSpaceOnUse">
<stop stop-color="#8A5C16"/>
<stop offset="1" stop-color="#8A5C16" stop-opacity="0.2"/>
</linearGradient>
<linearGradient id="paint30_linear" x1="73.707" y1="25.5229" x2="73.9725" y2="23.8447" gradientUnits="userSpaceOnUse">
<stop stop-color="#8A5C16"/>
<stop offset="1" stop-color="#8A5C16" stop-opacity="0.2"/>
</linearGradient>
<linearGradient id="paint31_linear" x1="73.707" y1="25.5229" x2="73.9725" y2="23.8447" gradientUnits="userSpaceOnUse">
<stop stop-color="#8A5C16"/>
<stop offset="1" stop-color="#8A5C16" stop-opacity="0.2"/>
</linearGradient>
<linearGradient id="paint32_linear" x1="79.2544" y1="25.5229" x2="79.585" y2="23.8688" gradientUnits="userSpaceOnUse">
<stop stop-color="#8A5C16"/>
<stop offset="1" stop-color="#8A5C16" stop-opacity="0.2"/>
</linearGradient>
<linearGradient id="paint33_linear" x1="79.2544" y1="25.5229" x2="79.585" y2="23.8688" gradientUnits="userSpaceOnUse">
<stop stop-color="#8A5C16"/>
<stop offset="1" stop-color="#8A5C16" stop-opacity="0.2"/>
</linearGradient>
<linearGradient id="paint34_linear" x1="84.8251" y1="25.5545" x2="85.1476" y2="23.8314" gradientUnits="userSpaceOnUse">
<stop stop-color="#8A5C16"/>
<stop offset="1" stop-color="#8A5C16" stop-opacity="0.2"/>
</linearGradient>
<linearGradient id="paint35_linear" x1="84.8251" y1="25.5545" x2="85.1476" y2="23.8314" gradientUnits="userSpaceOnUse">
<stop stop-color="#8A5C16"/>
<stop offset="1" stop-color="#8A5C16" stop-opacity="0.2"/>
</linearGradient>
<linearGradient id="paint36_linear" x1="90.3803" y1="25.5229" x2="90.7109" y2="23.8688" gradientUnits="userSpaceOnUse">
<stop stop-color="#8A5C16"/>
<stop offset="1" stop-color="#8A5C16" stop-opacity="0.2"/>
</linearGradient>
<linearGradient id="paint37_linear" x1="90.3803" y1="25.5229" x2="90.7109" y2="23.8688" gradientUnits="userSpaceOnUse">
<stop stop-color="#8A5C16"/>
<stop offset="1" stop-color="#8A5C16" stop-opacity="0.2"/>
</linearGradient>
<linearGradient id="paint38_linear" x1="95.9514" y1="25.5545" x2="96.2601" y2="23.8261" gradientUnits="userSpaceOnUse">
<stop stop-color="#8A5C16"/>
<stop offset="1" stop-color="#8A5C16" stop-opacity="0.2"/>
</linearGradient>
<linearGradient id="paint39_linear" x1="95.9514" y1="25.5545" x2="96.2601" y2="23.8261" gradientUnits="userSpaceOnUse">
<stop stop-color="#8A5C16"/>
<stop offset="1" stop-color="#8A5C16" stop-opacity="0.2"/>
</linearGradient>
<linearGradient id="paint40_linear" x1="101.507" y1="25.523" x2="101.827" y2="23.8646" gradientUnits="userSpaceOnUse">
<stop stop-color="#8A5C16"/>
<stop offset="1" stop-color="#8A5C16" stop-opacity="0.2"/>
</linearGradient>
<linearGradient id="paint41_linear" x1="101.507" y1="25.523" x2="101.827" y2="23.8646" gradientUnits="userSpaceOnUse">
<stop stop-color="#8A5C16"/>
<stop offset="1" stop-color="#8A5C16" stop-opacity="0.2"/>
</linearGradient>
<linearGradient id="paint42_linear" x1="29.7686" y1="28.0002" x2="31.7502" y2="0.140951" gradientUnits="userSpaceOnUse">
<stop stop-color="#8A5C16"/>
<stop offset="1" stop-color="#8A5C16" stop-opacity="0.2"/>
</linearGradient>
</defs>
</svg>
