<svg width="116" height="28" fill="none" xmlns="http://www.w3.org/2000/svg"><path d="M115.971 0H54.554l-.003 28h54.898v-3.34h6.522V0z" fill="#000"/><path d="M59.945 10.163h.982v.982h.983v.983h1.966v-1.965h-.983V9.18h-.983V7.214h.983v-.982h.983V4.266H61.91v.983h-.983v.983h-.982v.982h-.983V9.18h.983v.983z" fill="url(#paint0_linear)"/><path d="M59.945 10.163h.982v.982h.983v.983h1.966v-1.965h-.983V9.18h-.983V7.214h.983v-.982h.983V4.266H61.91v.983h-.983v.983h-.982v.982h-.983V9.18h.983v.983z" fill="url(#paint1_linear)"/><path d="M71.816 8.197h.982V5.25h-.982v-.983h-6.88v7.862h1.966V9.18h4.914v-.983zm-.983-.983h-3.931v-.982h3.93v.982z" fill="url(#paint2_linear)"/><path d="M71.816 8.197h.982V5.25h-.982v-.983h-6.88v7.862h1.966V9.18h4.914v-.983zm-.983-.983h-3.931v-.982h3.93v.982z" fill="url(#paint3_linear)"/><path d="M79.757 12.128h1.965V9.18h-.982v-.983h.982V5.25h-.982v-.983h-6.88v7.862h1.966V9.18h3.93v2.948zm-3.931-5.896h3.93v.982h-3.93v-.982z" fill="url(#paint4_linear)"/><path d="M79.757 12.128h1.965V9.18h-.982v-.983h.982V5.25h-.982v-.983h-6.88v7.862h1.966V9.18h3.93v2.948zm-3.931-5.896h3.93v.982h-3.93v-.982z" fill="url(#paint5_linear)"/><path d="M83.766 12.128h5.896v-.983h.983V5.25h-.983v-.983h-5.896v.983h-.983v5.896h.983v.983zm.983-5.896h3.93v3.93h-3.93v-3.93z" fill="url(#paint6_linear)"/><path d="M83.766 12.128h5.896v-.983h.983V5.25h-.983v-.983h-5.896v.983h-.983v5.896h.983v.983zm.983-5.896h3.93v3.93h-3.93v-3.93z" fill="url(#paint7_linear)"/><path d="M99.569 10.163h-5.897V9.18h4.914v-.983h.983v-3.93h-7.862v1.965h5.896v.982H92.69v.983h-.983v3.931h7.862v-1.965z" fill="url(#paint8_linear)"/><path d="M99.569 10.163h-5.897V9.18h4.914v-.983h.983v-3.93h-7.862v1.965h5.896v.982H92.69v.983h-.983v3.931h7.862v-1.965z" fill="url(#paint9_linear)"/><path d="M102.595 4.266h-1.965v7.862h1.965V4.266z" fill="url(#paint10_linear)"/><path d="M102.595 4.266h-1.965v7.862h1.965V4.266z" fill="url(#paint11_linear)"/><path d="M111.519 6.232V4.266h-6.879v.983h-.983v2.948h.983v.983h4.914v.983h-5.897v1.965h6.88v-.983h.982V8.197h-.982v-.983h-4.914v-.982h5.896z" fill="url(#paint12_linear)"/><path d="M111.519 6.232V4.266h-6.879v.983h-.983v2.948h.983v.983h4.914v.983h-5.897v1.965h6.88v-.983h.982V8.197h-.982v-.983h-4.914v-.982h5.896z" fill="url(#paint13_linear)"/><path d="M58.962 15.41h2.948v5.897h1.966V15.41h2.948v-1.965h-7.862v1.965z" fill="url(#paint14_linear)"/><path d="M58.962 15.41h2.948v5.897h1.966V15.41h2.948v-1.965h-7.862v1.965z" fill="url(#paint15_linear)"/><path d="M68.698 14.427h-.983v5.897h.983v.983h6.879V19.34H69.68v-.983h4.914v-1.965H69.68v-.983h5.897v-1.965h-6.88v.982z" fill="url(#paint16_linear)"/><path d="M68.698 14.427h-.983v5.897h.983v.983h6.879V19.34H69.68v-.983h4.914v-1.965H69.68v-.983h5.897v-1.965h-6.88v.982z" fill="url(#paint17_linear)"/><path d="M84.5 18.358h-1.966v.983h-3.93V15.41h3.93v.983H84.5v-1.966h-.983v-.982H77.62v.982h-.982v5.897h.982v.983h5.897v-.983h.983v-1.966z" fill="url(#paint18_linear)"/><path d="M84.5 18.358h-1.966v.983h-3.93V15.41h3.93v.983H84.5v-1.966h-.983v-.982H77.62v.982h-.982v5.897h.982v.983h5.897v-.983h.983v-1.966z" fill="url(#paint19_linear)"/><path d="M91.46 16.393h-3.931v-2.948h-1.965v7.862h1.965v-2.949h3.931v2.949h1.966v-7.862H91.46v2.948z" fill="url(#paint20_linear)"/><path d="M91.46 16.393h-3.931v-2.948h-1.965v7.862h1.965v-2.949h3.931v2.949h1.966v-7.862H91.46v2.948z" fill="url(#paint21_linear)"/><path d="M100.382 14.427h-.983v.983h-.983v.983h-.983v.983h-.982v.982h-.983v.983h-.983v1.966h1.966v-.983h.983v-.983h.982v-.983h.983v-.982h.983v-.983h.983v-.983h.982v-1.965h-1.965v.982z" fill="url(#paint22_linear)"/><path d="M100.382 14.427h-.983v.983h-.983v.983h-.983v.983h-.982v.982h-.983v.983h-.983v1.966h1.966v-.983h.983v-.983h.982v-.983h.983v-.982h.983v-.983h.983v-.983h.982v-1.965h-1.965v.982z" fill="url(#paint23_linear)"/><path d="M107.339 15.41h-.983v-.983h-.982v-.982h-1.966v1.965h.983v.983h.983v1.965h-.983v.983h-.983v1.966h1.966v-.983h.982v-.983h.983v-.983h.983v-1.965h-.983v-.983z" fill="url(#paint24_linear)"/><path d="M107.339 15.41h-.983v-.983h-.982v-.982h-1.966v1.965h.983v.983h.983v1.965h-.983v.983h-.983v1.966h1.966v-.983h.982v-.983h.983v-.983h.983v-1.965h-.983v-.983z" fill="url(#paint25_linear)"/><path d="M62.382 23.802h-.476v1.72h.497c.478 0 .806-.276.806-.867s-.328-.853-.828-.853zm-.022 1.407h-.065v-1.093h.065c.267 0 .45.128.45.539 0 .411-.183.554-.45.554z" fill="url(#paint26_linear)"/><path d="M62.382 23.802h-.476v1.72h.497c.478 0 .806-.276.806-.867s-.328-.853-.828-.853zm-.022 1.407h-.065v-1.093h.065c.267 0 .45.128.45.539 0 .411-.183.554-.45.554z" fill="url(#paint27_linear)"/><path d="M67.478 24.13h.402v1.066h-.401v.327h1.192v-.327h-.401V24.13h.401v-.326h-1.193v.326z" fill="url(#paint28_linear)"/><path d="M67.478 24.13h.402v1.066h-.401v.327h1.192v-.327h-.401V24.13h.401v-.326h-1.193v.326z" fill="url(#paint29_linear)"/><path d="M73.79 24.604c-.048.188-.086.362-.138.55h-.01c-.052-.188-.087-.362-.138-.55l-.207-.801h-.412l.52 1.72h.468l.519-1.72h-.399l-.203.8z" fill="url(#paint30_linear)"/><path d="M73.79 24.604c-.048.188-.086.362-.138.55h-.01c-.052-.188-.087-.362-.138-.55l-.207-.801h-.412l.52 1.72h.468l.519-1.72h-.399l-.203.8z" fill="url(#paint31_linear)"/><path d="M78.603 24.13h.402v1.066h-.401v.327h1.192v-.327h-.401V24.13h.401v-.326h-1.193v.326z" fill="url(#paint32_linear)"/><path d="M78.603 24.13h.402v1.066h-.401v.327h1.192v-.327h-.401V24.13h.401v-.326h-1.193v.326z" fill="url(#paint33_linear)"/><path d="M85.058 24.553l-.21-.089c-.166-.062-.281-.1-.281-.203 0-.1.087-.154.215-.154.168 0 .276.047.397.135l.196-.246a.833.833 0 0 0-.572-.225c-.373 0-.63.228-.63.513 0 .25.174.396.365.469l.224.095c.162.068.265.098.265.222 0 .084-.077.148-.242.148a.737.737 0 0 1-.457-.18l-.224.268a.99.99 0 0 0 .655.248c.426 0 .666-.247.666-.533 0-.243-.142-.383-.367-.468z" fill="url(#paint34_linear)"/><path d="M85.058 24.553l-.21-.089c-.166-.062-.281-.1-.281-.203 0-.1.087-.154.215-.154.168 0 .276.047.397.135l.196-.246a.833.833 0 0 0-.572-.225c-.373 0-.63.228-.63.513 0 .25.174.396.365.469l.224.095c.162.068.265.098.265.222 0 .084-.077.148-.242.148a.737.737 0 0 1-.457-.18l-.224.268a.99.99 0 0 0 .655.248c.426 0 .666-.247.666-.533 0-.243-.142-.383-.367-.468z" fill="url(#paint35_linear)"/><path d="M89.73 24.13h.401v1.066h-.401v.327h1.192v-.327h-.401V24.13h.401v-.326H89.73v.326z" fill="url(#paint36_linear)"/><path d="M89.73 24.13h.401v1.066h-.401v.327h1.192v-.327h-.401V24.13h.401v-.326H89.73v.326z" fill="url(#paint37_linear)"/><path d="M95.888 23.771c-.41 0-.692.309-.692.884 0 .588.282.9.692.9s.692-.312.692-.9c0-.575-.282-.884-.692-.884zm0 1.447c-.18 0-.293-.192-.293-.563 0-.358.114-.548.293-.548.18 0 .293.19.293.548 0 .37-.114.563-.293.563z" fill="url(#paint38_linear)"/><path d="M95.888 23.771c-.41 0-.692.309-.692.884 0 .588.282.9.692.9s.692-.312.692-.9c0-.575-.282-.884-.692-.884zm0 1.447c-.18 0-.293-.192-.293-.563 0-.358.114-.548.293-.548.18 0 .293.19.293.548 0 .37-.114.563-.293.563z" fill="url(#paint39_linear)"/><path d="M101.697 24.41c0 .204.036.445.053.626h-.009l-.147-.378-.362-.855h-.399v1.72h.371v-.61c0-.203-.036-.433-.054-.623h.01l.147.376.362.857h.399v-1.72h-.371v.608z" fill="url(#paint40_linear)"/><path d="M101.697 24.41c0 .204.036.445.053.626h-.009l-.147-.378-.362-.855h-.399v1.72h.371v-.61c0-.203-.036-.433-.054-.623h.01l.147.376.362.857h.399v-1.72h-.371v.608z" fill="url(#paint41_linear)"/><path d="M54.554 0H.003L0 28h54.554V0z" fill="url(#paint42_linear)"/><path d="M47.572 9.324H42.77a2.127 2.127 0 0 0-2.1 1.995l-.279 5.318a1.873 1.873 0 0 0 1.89 1.995h4.802a2.127 2.127 0 0 0 2.1-1.995l.279-5.318a1.873 1.873 0 0 0-1.89-1.995zM44.1 14.066a.951.951 0 0 1-.939.893.838.838 0 0 1-.846-.893.951.951 0 0 1 .94-.893c.494 0 .871.4.846.893zm3.352 0a.706.706 0 0 1-.222.474l-1.88 1.785a.704.704 0 0 1-.484.197.631.631 0 0 1-.463-.197c-.248-.261-.226-.685.05-.946l1.381-1.313-1.243-1.313v.001c-.248-.261-.226-.686.05-.947.275-.262.699-.262.947 0l1.692 1.785c.12.127.18.295.171.474zM20.927 9.33h1.159c.544 0 .955.04 1.231.119.52.149.848.487.987 1.014.08.307.102.82.064 1.54l-.202 3.845c-.038.73-.105 1.243-.2 1.541-.168.536-.494.896-.978 1.08-.277.105-.71.158-1.299.158h-1.027c-.632 0-1.116-.07-1.45-.21-.473-.203-.757-.562-.853-1.08-.034-.185-.039-.5-.015-.949l.239-4.543c.037-.71.13-1.224.278-1.54.198-.43.512-.716.94-.856.242-.08.617-.119 1.126-.119zm.666 7.361l.285-5.425h-.724l-.285 5.425h.724zm5.633 0c.084-.763.38-1.374.886-1.83l1.354-1.212c.487-.58.758-1.382.812-2.41l.1-1.909H24.98l-.102 1.936 2.99-.013c-.07.667-.373 1.255-.909 1.764a68.835 68.835 0 0 1-1.521 1.383c-.542.615-.837 1.383-.885 2.304l-.101 1.923h5.544l.102-1.936h-2.871zm3.145 1.936h2.54l.49-9.297H30.86l-.488 9.297zM9.607 14.913c.492 0 .866-.034 1.125-.105.49-.132.834-.417 1.032-.856.13-.29.21-.742.243-1.356l.064-1.212c.045-.86-.166-1.44-.633-1.738-.332-.21-.906-.316-1.722-.316H8.78c-.785.005-1.352.11-1.696.315-.499.299-.77.878-.816 1.739l-.259 4.924c-.032.614.001 1.066.1 1.356.152.44.467.724.943.856.25.07.622.105 1.113.105h.246l.195-3.712h1zm-.81-3.647h.777l-.106 2.028h-.777l.107-2.028zm30.36 2.479a1.236 1.236 0 0 0-.283-.359c-.337-.281-.887-.421-1.65-.421h-1.041l.09-1.7h3.01c.019-.793-.19-1.335-.636-1.62-.323-.205-.878-.31-1.663-.315h-.936c-.076 0-.148.002-.22.004-.038.001-.078.001-.115.003l-.026.002c-1.232.078-1.88.72-1.943 1.927l-.081 1.54c-.07 1.344.592 2.015 1.988 2.015h1.198l-.098 1.87h-3.135c-.018.791.191 1.331.635 1.615.324.205.879.31 1.663.315l.462.003v.001h.272l.343.002c1.142 0 1.85-.377 2.128-1.133.092-.254.15-.597.172-1.027l.078-1.488c.027-.514-.045-.924-.213-1.234zm-20.95-3.043c-.005-.043-.008-.085-.015-.121-.14-.834-.842-1.25-2.106-1.25H12.49L12 18.626h2.556l.198-3.78h.764l-.199 3.78h2.476l.154-2.936c.003-.048.001-.092.002-.138.009-.737-.23-1.225-.72-1.456a2.756 2.756 0 0 0-.48-.145c.607-.193 1.01-.509 1.208-.948a2.38 2.38 0 0 0 .156-.573c.044-.259.076-.576.095-.954.018-.325.015-.581-.004-.776zm-2.597 2.407h-.763l.097-1.843h.763l-.097 1.843z" fill="#000"/><path d="M47.572 9.324H42.77a2.127 2.127 0 0 0-2.1 1.995l-.279 5.318a1.873 1.873 0 0 0 1.89 1.995h4.802a2.127 2.127 0 0 0 2.1-1.995l.279-5.318a1.873 1.873 0 0 0-1.89-1.995zM44.1 14.066a.951.951 0 0 1-.939.893.838.838 0 0 1-.846-.893.951.951 0 0 1 .94-.893c.494 0 .871.4.846.893zm3.352 0a.706.706 0 0 1-.222.474l-1.88 1.785a.704.704 0 0 1-.484.197.631.631 0 0 1-.463-.197c-.248-.261-.226-.685.05-.946l1.381-1.313-1.243-1.313v.001c-.248-.261-.226-.686.05-.947.275-.262.699-.262.947 0l1.692 1.785c.12.127.18.295.171.474zM20.927 9.33h1.159c.544 0 .955.04 1.231.119.52.149.848.487.987 1.014.08.307.102.82.064 1.54l-.202 3.845c-.038.73-.105 1.243-.2 1.541-.168.536-.494.896-.978 1.08-.277.105-.71.158-1.299.158h-1.027c-.632 0-1.116-.07-1.45-.21-.473-.203-.757-.562-.853-1.08-.034-.185-.039-.5-.015-.949l.239-4.543c.037-.71.13-1.224.278-1.54.198-.43.512-.716.94-.856.242-.08.617-.119 1.126-.119zm.666 7.361l.285-5.425h-.724l-.285 5.425h.724zm5.633 0c.084-.763.38-1.374.886-1.83l1.354-1.212c.487-.58.758-1.382.812-2.41l.1-1.909H24.98l-.102 1.936 2.99-.013c-.07.667-.373 1.255-.909 1.764a68.835 68.835 0 0 1-1.521 1.383c-.542.615-.837 1.383-.885 2.304l-.101 1.923h5.544l.102-1.936h-2.871zm3.145 1.936h2.54l.49-9.297H30.86l-.488 9.297zM9.607 14.913c.492 0 .866-.034 1.125-.105.49-.132.834-.417 1.032-.856.13-.29.21-.742.243-1.356l.064-1.212c.045-.86-.166-1.44-.633-1.738-.332-.21-.906-.316-1.722-.316H8.78c-.785.005-1.352.11-1.696.315-.499.299-.77.878-.816 1.739l-.259 4.924c-.032.614.001 1.066.1 1.356.152.44.467.724.943.856.25.07.622.105 1.113.105h.246l.195-3.712h1zm-.81-3.647h.777l-.106 2.028h-.777l.107-2.028zm30.36 2.479a1.236 1.236 0 0 0-.283-.359c-.337-.281-.887-.421-1.65-.421h-1.041l.09-1.7h3.01c.019-.793-.19-1.335-.636-1.62-.323-.205-.878-.31-1.663-.315h-.936c-.076 0-.148.002-.22.004-.038.001-.078.001-.115.003l-.026.002c-1.232.078-1.88.72-1.943 1.927l-.081 1.54c-.07 1.344.592 2.015 1.988 2.015h1.198l-.098 1.87h-3.135c-.018.791.191 1.331.635 1.615.324.205.879.31 1.663.315l.462.003v.001h.272l.343.002c1.142 0 1.85-.377 2.128-1.133.092-.254.15-.597.172-1.027l.078-1.488c.027-.514-.045-.924-.213-1.234zm-20.95-3.043c-.005-.043-.008-.085-.015-.121-.14-.834-.842-1.25-2.106-1.25H12.49L12 18.626h2.556l.198-3.78h.764l-.199 3.78h2.476l.154-2.936c.003-.048.001-.092.002-.138.009-.737-.23-1.225-.72-1.456a2.756 2.756 0 0 0-.48-.145c.607-.193 1.01-.509 1.208-.948a2.38 2.38 0 0 0 .156-.573c.044-.259.076-.576.095-.954.018-.325.015-.581-.004-.776zm-2.597 2.407h-.763l.097-1.843h.763l-.097 1.843z" stroke="#EC2024" stroke-width=".04" stroke-miterlimit="10"/><defs><linearGradient id="paint0_linear" x1="61.643" y1="12.128" x2="63.305" y2="4.635" gradientUnits="userSpaceOnUse"><stop stop-color="#8A5C16"/><stop offset="1" stop-color="#8A5C16" stop-opacity=".2"/></linearGradient><linearGradient id="paint1_linear" x1="61.643" y1="12.128" x2="63.305" y2="4.635" gradientUnits="userSpaceOnUse"><stop stop-color="#8A5C16"/><stop offset="1" stop-color="#8A5C16" stop-opacity=".2"/></linearGradient><linearGradient id="paint2_linear" x1="69.227" y1="12.128" x2="70.296" y2="4.414" gradientUnits="userSpaceOnUse"><stop stop-color="#8A5C16"/><stop offset="1" stop-color="#8A5C16" stop-opacity=".2"/></linearGradient><linearGradient id="paint3_linear" x1="69.227" y1="12.128" x2="70.296" y2="4.414" gradientUnits="userSpaceOnUse"><stop stop-color="#8A5C16"/><stop offset="1" stop-color="#8A5C16" stop-opacity=".2"/></linearGradient><linearGradient id="paint4_linear" x1="78.15" y1="12.128" x2="79.219" y2="4.414" gradientUnits="userSpaceOnUse"><stop stop-color="#8A5C16"/><stop offset="1" stop-color="#8A5C16" stop-opacity=".2"/></linearGradient><linearGradient id="paint5_linear" x1="78.15" y1="12.128" x2="79.219" y2="4.414" gradientUnits="userSpaceOnUse"><stop stop-color="#8A5C16"/><stop offset="1" stop-color="#8A5C16" stop-opacity=".2"/></linearGradient><linearGradient id="paint6_linear" x1="87.073" y1="12.128" x2="88.142" y2="4.414" gradientUnits="userSpaceOnUse"><stop stop-color="#8A5C16"/><stop offset="1" stop-color="#8A5C16" stop-opacity=".2"/></linearGradient><linearGradient id="paint7_linear" x1="87.073" y1="12.128" x2="88.142" y2="4.414" gradientUnits="userSpaceOnUse"><stop stop-color="#8A5C16"/><stop offset="1" stop-color="#8A5C16" stop-opacity=".2"/></linearGradient><linearGradient id="paint8_linear" x1="95.997" y1="12.128" x2="97.066" y2="4.414" gradientUnits="userSpaceOnUse"><stop stop-color="#8A5C16"/><stop offset="1" stop-color="#8A5C16" stop-opacity=".2"/></linearGradient><linearGradient id="paint9_linear" x1="95.997" y1="12.128" x2="97.066" y2="4.414" gradientUnits="userSpaceOnUse"><stop stop-color="#8A5C16"/><stop offset="1" stop-color="#8A5C16" stop-opacity=".2"/></linearGradient><linearGradient id="paint10_linear" x1="101.702" y1="12.128" x2="105.036" y2="6.114" gradientUnits="userSpaceOnUse"><stop stop-color="#8A5C16"/><stop offset="1" stop-color="#8A5C16" stop-opacity=".2"/></linearGradient><linearGradient id="paint11_linear" x1="101.702" y1="12.128" x2="105.036" y2="6.114" gradientUnits="userSpaceOnUse"><stop stop-color="#8A5C16"/><stop offset="1" stop-color="#8A5C16" stop-opacity=".2"/></linearGradient><linearGradient id="paint12_linear" x1="107.947" y1="12.128" x2="109.016" y2="4.414" gradientUnits="userSpaceOnUse"><stop stop-color="#8A5C16"/><stop offset="1" stop-color="#8A5C16" stop-opacity=".2"/></linearGradient><linearGradient id="paint13_linear" x1="107.947" y1="12.128" x2="109.016" y2="4.414" gradientUnits="userSpaceOnUse"><stop stop-color="#8A5C16"/><stop offset="1" stop-color="#8A5C16" stop-opacity=".2"/></linearGradient><linearGradient id="paint14_linear" x1="63.252" y1="21.307" x2="64.321" y2="13.593" gradientUnits="userSpaceOnUse"><stop stop-color="#8A5C16"/><stop offset="1" stop-color="#8A5C16" stop-opacity=".2"/></linearGradient><linearGradient id="paint15_linear" x1="63.252" y1="21.307" x2="64.321" y2="13.593" gradientUnits="userSpaceOnUse"><stop stop-color="#8A5C16"/><stop offset="1" stop-color="#8A5C16" stop-opacity=".2"/></linearGradient><linearGradient id="paint16_linear" x1="72.005" y1="21.307" x2="73.074" y2="13.593" gradientUnits="userSpaceOnUse"><stop stop-color="#8A5C16"/><stop offset="1" stop-color="#8A5C16" stop-opacity=".2"/></linearGradient><linearGradient id="paint17_linear" x1="72.005" y1="21.307" x2="73.074" y2="13.593" gradientUnits="userSpaceOnUse"><stop stop-color="#8A5C16"/><stop offset="1" stop-color="#8A5C16" stop-opacity=".2"/></linearGradient><linearGradient id="paint18_linear" x1="80.928" y1="21.307" x2="81.997" y2="13.593" gradientUnits="userSpaceOnUse"><stop stop-color="#8A5C16"/><stop offset="1" stop-color="#8A5C16" stop-opacity=".2"/></linearGradient><linearGradient id="paint19_linear" x1="80.928" y1="21.307" x2="81.997" y2="13.593" gradientUnits="userSpaceOnUse"><stop stop-color="#8A5C16"/><stop offset="1" stop-color="#8A5C16" stop-opacity=".2"/></linearGradient><linearGradient id="paint20_linear" x1="89.854" y1="21.307" x2="90.923" y2="13.593" gradientUnits="userSpaceOnUse"><stop stop-color="#8A5C16"/><stop offset="1" stop-color="#8A5C16" stop-opacity=".2"/></linearGradient><linearGradient id="paint21_linear" x1="89.854" y1="21.307" x2="90.923" y2="13.593" gradientUnits="userSpaceOnUse"><stop stop-color="#8A5C16"/><stop offset="1" stop-color="#8A5C16" stop-opacity=".2"/></linearGradient><linearGradient id="paint22_linear" x1="98.775" y1="21.307" x2="99.844" y2="13.593" gradientUnits="userSpaceOnUse"><stop stop-color="#8A5C16"/><stop offset="1" stop-color="#8A5C16" stop-opacity=".2"/></linearGradient><linearGradient id="paint23_linear" x1="98.775" y1="21.307" x2="99.844" y2="13.593" gradientUnits="userSpaceOnUse"><stop stop-color="#8A5C16"/><stop offset="1" stop-color="#8A5C16" stop-opacity=".2"/></linearGradient><linearGradient id="paint24_linear" x1="106.089" y1="21.307" x2="107.751" y2="13.813" gradientUnits="userSpaceOnUse"><stop stop-color="#8A5C16"/><stop offset="1" stop-color="#8A5C16" stop-opacity=".2"/></linearGradient><linearGradient id="paint25_linear" x1="106.089" y1="21.307" x2="107.751" y2="13.813" gradientUnits="userSpaceOnUse"><stop stop-color="#8A5C16"/><stop offset="1" stop-color="#8A5C16" stop-opacity=".2"/></linearGradient><linearGradient id="paint26_linear" x1="62.617" y1="25.523" x2="62.922" y2="23.858" gradientUnits="userSpaceOnUse"><stop stop-color="#8A5C16"/><stop offset="1" stop-color="#8A5C16" stop-opacity=".2"/></linearGradient><linearGradient id="paint27_linear" x1="62.617" y1="25.523" x2="62.922" y2="23.858" gradientUnits="userSpaceOnUse"><stop stop-color="#8A5C16"/><stop offset="1" stop-color="#8A5C16" stop-opacity=".2"/></linearGradient><linearGradient id="paint28_linear" x1="68.129" y1="25.523" x2="68.46" y2="23.869" gradientUnits="userSpaceOnUse"><stop stop-color="#8A5C16"/><stop offset="1" stop-color="#8A5C16" stop-opacity=".2"/></linearGradient><linearGradient id="paint29_linear" x1="68.129" y1="25.523" x2="68.46" y2="23.869" gradientUnits="userSpaceOnUse"><stop stop-color="#8A5C16"/><stop offset="1" stop-color="#8A5C16" stop-opacity=".2"/></linearGradient><linearGradient id="paint30_linear" x1="73.707" y1="25.523" x2="73.972" y2="23.845" gradientUnits="userSpaceOnUse"><stop stop-color="#8A5C16"/><stop offset="1" stop-color="#8A5C16" stop-opacity=".2"/></linearGradient><linearGradient id="paint31_linear" x1="73.707" y1="25.523" x2="73.972" y2="23.845" gradientUnits="userSpaceOnUse"><stop stop-color="#8A5C16"/><stop offset="1" stop-color="#8A5C16" stop-opacity=".2"/></linearGradient><linearGradient id="paint32_linear" x1="79.254" y1="25.523" x2="79.585" y2="23.869" gradientUnits="userSpaceOnUse"><stop stop-color="#8A5C16"/><stop offset="1" stop-color="#8A5C16" stop-opacity=".2"/></linearGradient><linearGradient id="paint33_linear" x1="79.254" y1="25.523" x2="79.585" y2="23.869" gradientUnits="userSpaceOnUse"><stop stop-color="#8A5C16"/><stop offset="1" stop-color="#8A5C16" stop-opacity=".2"/></linearGradient><linearGradient id="paint34_linear" x1="84.825" y1="25.555" x2="85.148" y2="23.831" gradientUnits="userSpaceOnUse"><stop stop-color="#8A5C16"/><stop offset="1" stop-color="#8A5C16" stop-opacity=".2"/></linearGradient><linearGradient id="paint35_linear" x1="84.825" y1="25.555" x2="85.148" y2="23.831" gradientUnits="userSpaceOnUse"><stop stop-color="#8A5C16"/><stop offset="1" stop-color="#8A5C16" stop-opacity=".2"/></linearGradient><linearGradient id="paint36_linear" x1="90.38" y1="25.523" x2="90.711" y2="23.869" gradientUnits="userSpaceOnUse"><stop stop-color="#8A5C16"/><stop offset="1" stop-color="#8A5C16" stop-opacity=".2"/></linearGradient><linearGradient id="paint37_linear" x1="90.38" y1="25.523" x2="90.711" y2="23.869" gradientUnits="userSpaceOnUse"><stop stop-color="#8A5C16"/><stop offset="1" stop-color="#8A5C16" stop-opacity=".2"/></linearGradient><linearGradient id="paint38_linear" x1="95.951" y1="25.555" x2="96.26" y2="23.826" gradientUnits="userSpaceOnUse"><stop stop-color="#8A5C16"/><stop offset="1" stop-color="#8A5C16" stop-opacity=".2"/></linearGradient><linearGradient id="paint39_linear" x1="95.951" y1="25.555" x2="96.26" y2="23.826" gradientUnits="userSpaceOnUse"><stop stop-color="#8A5C16"/><stop offset="1" stop-color="#8A5C16" stop-opacity=".2"/></linearGradient><linearGradient id="paint40_linear" x1="101.507" y1="25.523" x2="101.827" y2="23.865" gradientUnits="userSpaceOnUse"><stop stop-color="#8A5C16"/><stop offset="1" stop-color="#8A5C16" stop-opacity=".2"/></linearGradient><linearGradient id="paint41_linear" x1="101.507" y1="25.523" x2="101.827" y2="23.865" gradientUnits="userSpaceOnUse"><stop stop-color="#8A5C16"/><stop offset="1" stop-color="#8A5C16" stop-opacity=".2"/></linearGradient><linearGradient id="paint42_linear" x1="29.769" y1="28" x2="31.75" y2=".141" gradientUnits="userSpaceOnUse"><stop stop-color="#8A5C16"/><stop offset="1" stop-color="#8A5C16" stop-opacity=".2"/></linearGradient></defs></svg>