<svg width="178" height="40" fill="none" xmlns="http://www.w3.org/2000/svg"><path fill-rule="evenodd" clip-rule="evenodd" d="M58.658 6.39L61.98 0h9.585v6.39H58.658zM52.27 19.297H36.04v-6.901h19.68l2.94-6.006h-29.01v32.332h12.907l3.323-6.517h25.687v-6.517H49.074l-3.195 6.517h-9.84v-7.03h13.29l2.94-5.878zm0 0l3.196-6.517h15.974v6.517H52.27zm47.286-3.706l4.6-4.473c-2.811-3.067-7.029-4.856-12.14-5.112-9.841 0-16.997 7.03-16.997 16.742 0 10.48 7.923 16.741 16.869 16.741 9.073 0 15.718-6.9 15.718-16.613 0-.265 0-.508-.008-.747a6.394 6.394 0 0 0-.119-1.043H92.653v5.368h8.18c-.895 4.6-3.962 7.156-9.202 7.156-5.623 0-10.096-4.217-10.096-10.735 0-6.262 4.345-10.607 10.224-10.607 3.323 0 6.007 1.15 7.796 3.323zm34.887 23.515L117.189 17.51v21.597h-6.517V6.774h6.007l17.38 21.598V6.774h6.517v32.332h-6.134zm26.454-5.623c-5.879 0-10.224-4.345-10.224-10.607 0-6.263 4.217-10.48 10.224-10.607 6.006 0 10.223 4.344 10.223 10.607 0 6.262-4.217 10.607-10.223 10.607zm-.128 6.134c9.967 0 16.997-7.029 16.997-16.741 0-9.585-7.03-16.614-16.997-16.742-9.84 0-16.87 7.157-16.87 16.742 0 9.712 6.902 16.74 16.87 16.74zM16.358 20.064l-1.79-.256c-1.916-.255-3.45-.639-4.6-1.15-.767-.383-1.278-.767-1.661-1.278a2.152 2.152 0 0 1-.383-1.278c0-1.661 1.15-2.811 3.066-3.45.767-.256 1.662-.384 2.557-.384h.51c3.579 0 6.646 1.15 9.202 2.684l3.067-5.24c-3.195-1.917-6.007-2.939-9.329-3.195-.767-.127-1.533-.127-2.3-.127h-.767c-6.9 0-12.908 3.45-12.908 10.223 0 3.323 1.406 5.623 3.579 7.03.308.23.663.415 1.036.61l.014.008c.243.125.49.255.739.404 1.278.51 2.811 1.022 4.345 1.278l2.044.383c4.474.767 6.902 1.534 6.902 3.834 0 2.428-2.684 3.834-6.39 3.834-4.218 0-7.924-1.662-10.224-3.45L0 35.91C3.45 38.594 8.563 40 13.291 40c6.9 0 13.163-3.451 13.163-10.48.256-6.007-4.346-8.563-10.096-9.457z" fill="url(#paint0_linear)"/><defs><linearGradient id="paint0_linear" x1="89.373" x2="90.715" y2="34.114" gradientUnits="userSpaceOnUse"><stop stop-color="#F7FCFF" stop-opacity=".3"/><stop offset="1" stop-color="#F7FCFF" stop-opacity=".1"/></linearGradient></defs></svg>