<svg width="240" height="20" viewBox="0 0 240 20" fill="none" xmlns="http://www.w3.org/2000/svg">
<path d="M236.481 15.9259H239.815V0.185182H236.481V15.9259ZM228.704 16.1111C231.944 16.1111 234.444 13.5185 234.444 10.3704C234.444 7.22223 231.852 4.62963 228.704 4.62963C225.463 4.62963 222.963 7.22223 222.963 10.3704C222.963 13.5185 225.555 16.1111 228.704 16.1111ZM228.704 12.963C227.315 12.963 226.296 11.8519 226.296 10.3704C226.296 8.8889 227.315 7.77777 228.704 7.77777C230.093 7.77777 231.111 8.8889 231.111 10.3704C231.111 11.8519 230.093 12.963 228.704 12.963ZM215.833 16.1111C219.074 16.1111 221.574 13.5185 221.574 10.3704C221.574 7.22223 218.981 4.62963 215.833 4.62963C212.685 4.62963 210.093 7.22223 210.093 10.3704C210.093 13.5185 212.685 16.1111 215.833 16.1111ZM215.833 12.963C214.444 12.963 213.426 11.8519 213.426 10.3704C213.426 8.8889 214.444 7.77777 215.833 7.77777C217.222 7.77777 218.241 8.8889 218.241 10.3704C218.241 11.8519 217.222 12.963 215.833 12.963ZM204.722 15.9259H208.055V4.81481H200.648V0.185182H197.315V15.9259H200.648V8.14815H204.722V15.9259ZM190.833 16.1111C192.87 16.1111 194.722 15.0926 195.741 13.5185L193.055 11.6667C192.593 12.5 191.852 13.0556 190.833 13.0556C189.444 13.0556 188.426 11.9444 188.426 10.4629C188.426 8.98147 189.444 7.87037 190.833 7.87037C191.852 7.87037 192.593 8.42592 193.055 9.25926L195.741 7.40741C194.722 5.83333 192.963 4.81481 190.833 4.81481C187.593 4.81481 185.093 7.4074 185.093 10.5555C185.093 13.5185 187.685 16.1111 190.833 16.1111ZM173.241 9.72222H179.537V12.4074H173.241V15.9259H183.056V6.2963H176.759V3.6111H183.056V0.0925982H173.148V9.72222H173.241ZM162.315 15.9259H165.648V0.185182H162.315V15.9259ZM154.444 13.0556C152.87 13.0556 151.852 11.8519 151.852 10.3704C151.852 8.8889 152.778 7.68519 154.444 7.68519C155.278 7.68519 155.833 8.05554 156.296 8.6111V12.1296C155.926 12.6852 155.278 13.0556 154.444 13.0556ZM156.389 15.9259H159.722V4.81481H156.389V5.46296C155.741 4.9074 154.815 4.62963 153.981 4.62963C150.648 4.62963 148.611 7.31482 148.611 10.3704C148.611 13.4259 150.741 16.1111 153.981 16.1111C154.907 16.1111 155.741 15.8333 156.389 15.2778V15.9259ZM139.167 7.68519H140.648V12.4074C140.648 14.537 141.944 15.8333 144.074 15.8333H147.13V12.7778H145.278C144.352 12.7778 143.981 12.4074 143.981 11.4815V7.68519H146.759L147.5 4.72223H143.981V1.38889L140.648 3.05556V4.72223H138.426L139.167 7.68519ZM133.981 15.9259H137.315V4.81481H133.981V15.9259ZM126.018 12.2222C124.537 12.2222 123.704 11.1111 123.704 9.99999C123.704 8.88888 124.537 7.77777 126.018 7.77777C126.852 7.77777 127.5 8.14814 128.056 8.7037V11.3889C127.5 11.8518 126.759 12.2222 126.018 12.2222ZM121.759 20H131.389V4.81481H128.056V5.46296C127.407 4.9074 126.481 4.62963 125.648 4.62963C122.315 4.62963 120.37 7.22221 120.37 9.99999C120.37 12.6852 122.222 15.3704 125.648 15.3704C126.574 15.3704 127.407 15.0926 128.056 14.537V16.7593H121.852V20H121.759ZM115 15.9259H118.333V4.81481H115V15.9259ZM99.4444 15.9259H105C109.444 15.9259 113.056 12.4074 113.056 8.05555C113.056 3.7037 109.444 0.185182 105 0.185182H99.4444V15.9259ZM102.963 12.6852V3.42592H104.907C107.593 3.42592 109.352 5.55555 109.352 8.05555C109.352 10.5555 107.593 12.6852 104.907 12.6852H102.963ZM78.7037 15.9259H88.0555L92.037 9.90742V4.81481H88.7037V8.88889L86.2963 12.5926H85.0926V4.81481H81.7592V12.5926H80.6481L78.2407 8.88889V4.81481H74.7222V9.90742L78.7037 15.9259ZM67.5926 7.31481C68.7037 7.31481 69.6296 7.87038 69.8148 8.98149H65.2777C65.5555 7.68519 66.7592 7.31481 67.5926 7.31481ZM67.6852 16.1111C69.9074 16.1111 71.6666 15 72.6852 13.4259L70 11.6667C69.537 12.5 68.7963 13.0556 67.5926 13.0556C66.574 13.0556 65.3704 12.5 65.1852 11.0185H72.9629C72.9629 10.6481 73.0555 10.3704 73.0555 9.99999C73.0555 6.48147 70.5555 4.62963 67.6852 4.62963C64.2592 4.62963 61.9444 7.12964 61.9444 10.3704C62.037 13.7963 64.7222 16.1111 67.6852 16.1111ZM56.2963 15.9259H59.8148V0.185182H56.2963V7.96297L46.2963 0V15.9259H49.8148V7.5L56.2037 12.5926V15.9259H56.2963ZM33.7963 7.31481C34.9074 7.31481 35.8333 7.87038 36.0185 8.98149H31.4815C31.7592 7.68519 32.9629 7.31481 33.7963 7.31481ZM33.8889 16.1111C36.1111 16.1111 37.8703 15 38.8889 13.4259L36.2037 11.6667C35.7407 12.5 35 13.0556 33.7963 13.0556C32.7778 13.0556 31.5741 12.5 31.3889 11.0185H39.1667C39.1667 10.6481 39.2593 10.3704 39.2593 9.99999C39.2593 6.48147 36.7592 4.62963 33.8889 4.62963C30.4629 4.62963 28.1481 7.12964 28.1481 10.3704C28.2407 13.7963 31.0185 16.1111 33.8889 16.1111ZM22.963 15.9259H26.2963V4.81481H18.8889V0.185182H15.5556V15.9259H18.8889V8.14815H22.963V15.9259ZM6.38888 15.9259H10V6.48148L7.59259 3.7037H13.7963V0.185182H0L6.38888 7.59259V15.9259Z" fill="url(#paint0_linear)"/>
<defs>
<linearGradient id="paint0_linear" x1="130.86" y1="20.0001" x2="131.091" y2="0.00267155" gradientUnits="userSpaceOnUse">
<stop stop-color="#8A5C16"/>
<stop offset="1" stop-color="#8A5C16" stop-opacity="0.2"/>
</linearGradient>
</defs>
</svg>
