<svg width="156" height="56" viewBox="0 0 156 56" fill="none" xmlns="http://www.w3.org/2000/svg">
<g opacity="0.2">
<mask id="mask0" mask-type="alpha" maskUnits="userSpaceOnUse" x="7" y="1" width="51" height="31">
<path fill-rule="evenodd" clip-rule="evenodd" d="M7.65332 1.2627L57.2297 10.3534V31.9885L7.65332 22.8979V1.2627Z" fill="white"/>
</mask>
<g mask="url(#mask0)">
<path fill-rule="evenodd" clip-rule="evenodd" d="M22.7276 53.0703C5.56696 48.8674 -2.26603 33.0901 0.539318 22.7634C3.34466 12.4366 23.1937 2.18092 39.6043 8.72698C56.015 15.273 62.5621 28.1472 58.3453 38.5241C54.1285 48.901 39.8882 57.2732 22.7276 53.0703ZM24.3526 48.728C39.1811 52.4945 52.6032 46.8644 56.8577 37.6383C61.1122 28.4123 50.0193 18.414 37.0526 14.5408C24.0859 10.6675 4.44628 14.3697 1.61543 22.6649C-1.21543 30.9601 9.52402 44.9614 24.3526 48.728Z" fill="white"/>
<mask id="mask1" mask-type="alpha" maskUnits="userSpaceOnUse" x="-1" y="6" width="61" height="49">
<path fill-rule="evenodd" clip-rule="evenodd" d="M22.7276 53.0703C5.56696 48.8674 -2.26603 33.0901 0.539318 22.7634C3.34466 12.4366 23.1937 2.18092 39.6043 8.72698C56.015 15.273 62.5621 28.1472 58.3453 38.5241C54.1285 48.901 39.8882 57.2732 22.7276 53.0703ZM24.3526 48.728C39.1811 52.4945 52.6032 46.8644 56.8577 37.6383C61.1122 28.4123 50.0193 18.414 37.0526 14.5408C24.0859 10.6675 4.44628 14.3697 1.61543 22.6649C-1.21543 30.9601 9.52402 44.9614 24.3526 48.728Z" fill="white"/>
</mask>
<g mask="url(#mask1)">
<g style="mix-blend-mode:multiply" opacity="0.24">
<path fill-rule="evenodd" clip-rule="evenodd" d="M23.566 49.1111C27.0329 50.1113 30.6057 50.5474 34.0861 50.4722C42.6049 50.4066 49.943 47.2634 54.2991 42.3929C55.1963 41.4196 55.3249 40.3424 55.9796 39.2156C61.4456 29.8084 51.257 19.1108 37.0774 15.0735C22.8978 11.0362 4.13521 14.392 1.53019 23.3184C0.227029 27.7838 2.47611 33.2938 6.68334 38.1573C8.85409 40.7005 11.5876 43.0876 14.7292 45.0577C17.4813 46.8111 20.4829 48.2216 23.566 49.1111ZM22.1084 51.5947C9.51521 47.3545 -1.80088 34.2137 1.00214 23.8725C3.80517 13.5314 26.9906 6.81687 40.4642 11.241C53.9378 15.6652 61.133 31.432 56.866 39.5684C52.5989 47.7047 34.7017 55.8349 22.1084 51.5947Z" fill="white"/>
</g>
</g>
</g>
<path fill-rule="evenodd" clip-rule="evenodd" d="M16.8989 53.6557C25.1778 56.7886 34.059 54.4456 46.8158 39.129C59.5727 23.8124 55.0352 13.1426 48.5457 7.42585C42.0563 1.7091 25.9897 2.55739 14.1675 19.4332C2.34527 36.3089 8.62005 50.5228 16.8989 53.6557ZM14.3554 54.4221C23.0755 58.2856 40.0572 55.3609 50.3795 42.2318C60.7018 29.1026 57.9549 14.3818 48.9527 5.86547C39.9505 -2.65089 23.2774 -3.32818 11.4552 13.5476C-0.367006 30.4234 5.63517 50.5586 14.3554 54.4221Z" fill="white"/>
<mask id="mask2" mask-type="alpha" maskUnits="userSpaceOnUse" x="4" y="0" width="53" height="56">
<path fill-rule="evenodd" clip-rule="evenodd" d="M16.8989 53.6557C25.1778 56.7886 34.059 54.4456 46.8158 39.129C59.5727 23.8124 55.0352 13.1426 48.5457 7.42585C42.0563 1.7091 25.9897 2.55739 14.1675 19.4332C2.34527 36.3089 8.62005 50.5228 16.8989 53.6557ZM14.3554 54.4221C23.0755 58.2856 40.0572 55.3609 50.3795 42.2318C60.7018 29.1026 57.9549 14.3818 48.9527 5.86547C39.9505 -2.65089 23.2774 -3.32818 11.4552 13.5476C-0.367006 30.4234 5.63517 50.5586 14.3554 54.4221Z" fill="white"/>
</mask>
<g mask="url(#mask2)">
<g style="mix-blend-mode:multiply" opacity="0.24">
<path fill-rule="evenodd" clip-rule="evenodd" d="M46.827 39.0725C34.0709 54.3832 25.5273 56.4652 17.2435 53.329C8.95969 50.1928 2.33572 36.2342 14.1561 19.364C25.9765 2.4938 42.0498 1.65222 48.5445 7.37143C55.0392 13.0906 59.583 23.7619 46.827 39.0725ZM48.4865 41.4116C37.7782 54.8761 23.326 57.6201 15.554 53.6411C7.78193 49.662 0.154326 34.1151 11.9747 17.2449C23.7951 0.374695 39.8293 -1.43766 48.839 7.08208C57.8487 15.6018 59.1948 27.9471 48.4865 41.4116Z" fill="white"/>
</g>
</g>
<path fill-rule="evenodd" clip-rule="evenodd" d="M0.569225 22.884C1.58088 19.085 4.86526 15.2989 9.42239 12.3376V15.8476C5.52768 17.6995 2.68897 20.2109 1.75087 23.1689C-1.21589 31.3864 9.52356 45.4931 24.4734 49.3428C39.1806 53.0828 52.6028 47.4103 56.934 38.2474C58.3336 35.089 58.0945 31.7222 56.6379 28.5V22.1698C59.8764 27.5895 60.4987 33.5083 58.4083 38.8159C54.1261 49.1535 39.8858 57.5758 22.7015 53.3253C5.56454 49.1197 -2.26844 33.2479 0.569225 22.884Z" fill="white"/>
<mask id="mask3" mask-type="alpha" maskUnits="userSpaceOnUse" x="0" y="12" width="60" height="43">
<path fill-rule="evenodd" clip-rule="evenodd" d="M0.569225 22.884C1.58088 19.085 4.86526 15.2989 9.42239 12.3376V15.8476C5.52768 17.6995 2.68897 20.2109 1.75087 23.1689C-1.21589 31.3864 9.52356 45.4931 24.4734 49.3428C39.1806 53.0828 52.6028 47.4103 56.934 38.2474C58.3336 35.089 58.0945 31.7222 56.6379 28.5V22.1698C59.8764 27.5895 60.4987 33.5083 58.4083 38.8159C54.1261 49.1535 39.8858 57.5758 22.7015 53.3253C5.56454 49.1197 -2.26844 33.2479 0.569225 22.884Z" fill="white"/>
</mask>
<g mask="url(#mask3)">
<g style="mix-blend-mode:multiply" opacity="0.24">
<path fill-rule="evenodd" clip-rule="evenodd" d="M23.3218 48.8238C26.3602 49.6259 30.4125 50.2829 34.0264 50.2132C42.428 50.1419 49.3241 47.2738 53.6699 42.5178C54.5846 41.4238 55.3707 40.3702 56.0341 39.1005C61.4997 29.8252 51.4063 18.1358 37.1207 14.04C23.0086 10.0528 4.42151 15.2221 1.73892 24.292C0.508024 28.628 3.1056 33.5565 7.40376 38.5131C9.49224 40.971 11.409 42.9253 14.5624 44.9126C17.3107 46.6527 20.3205 47.9165 23.3218 48.8238ZM21.7538 51.915C9.14529 47.6961 -1.9989 34.5252 0.67426 24.2915C3.62007 13.7955 26.2995 5.981 40.0762 11.7613C53.9143 17.4199 61.1237 29.4769 56.9209 39.9544C52.6777 50.3074 34.3898 56.1959 21.7538 51.915Z" fill="white"/>
</g>
</g>
</g>
<path fill-rule="evenodd" clip-rule="evenodd" d="M92.373 39.4034H89.3833V27.9255H85.4385V25.3078H96.3178V27.9255H92.373V39.4034ZM111.154 39.4032L108.696 34.2684C110.059 34.0267 110.699 33.1206 110.699 31.5298V28.1267C110.699 26.2138 109.77 25.3076 107.807 25.3076H100.185V39.4032H103.159V34.4295H105.556L107.952 39.4032H111.154ZM107.322 31.8738H103.151V27.9341H107.322C107.633 27.9341 107.737 28.0351 107.737 28.3382V31.4698C107.737 31.7728 107.633 31.8738 107.322 31.8738ZM123.173 39.4032H118.107C116.134 39.4032 115.2 38.497 115.2 36.5841V25.3076H118.19V36.3424C118.19 36.6445 118.294 36.7451 118.605 36.7451H122.675C122.986 36.7451 123.09 36.6445 123.09 36.3424V25.3076H126.08V36.5841C126.08 38.497 125.145 39.4032 123.173 39.4032ZM138.117 39.4032H133.373C131.414 39.4032 130.485 38.497 130.485 36.5841V34.812H133.373V36.3827C133.373 36.6847 133.476 36.7854 133.786 36.7854H137.622C137.932 36.7854 138.035 36.6847 138.035 36.3827V34.6912C138.035 34.2482 137.87 34.1274 137.333 34.0066L133.497 33.2011C131.682 32.8185 130.527 32.1138 130.527 30.3015V28.1267C130.527 26.2138 131.455 25.3076 133.414 25.3076H137.87C139.829 25.3076 140.758 26.2138 140.758 28.1267V29.7376H137.87V28.3281C137.87 28.026 137.767 27.9254 137.457 27.9254H133.909C133.6 27.9254 133.497 28.026 133.497 28.3281V29.8585C133.497 30.3015 133.662 30.4223 134.198 30.5431L138.035 31.3486C139.85 31.7312 141.005 32.4359 141.005 34.2482V36.5841C141.005 38.497 140.077 39.4032 138.117 39.4032ZM151.355 39.4032H148.366V27.9254H144.421V25.3076H155.3V27.9254H151.355V39.4032ZM78.8037 39.4035H73.7377C71.7653 39.4035 70.8311 38.4974 70.8311 36.5844V25.308H73.8208V36.3428C73.8208 36.6448 73.9246 36.7455 74.236 36.7455H78.3054C78.6168 36.7455 78.7206 36.6448 78.7206 36.3428V25.308H81.7104V36.5844C81.7104 38.4974 80.7761 39.4035 78.8037 39.4035Z" fill="url(#paint0_linear)"/>
<path fill-rule="evenodd" clip-rule="evenodd" d="M28.1465 36.946H31.2871V23.882H35.4156V21.1318H24.0693V23.882H28.1465V36.946Z" fill="url(#paint1_linear)"/>
<path fill-rule="evenodd" clip-rule="evenodd" d="M27.1652 40.7463H32.4486C34.5056 40.7463 35.48 39.8133 35.48 37.8438V24.9321L32.4646 24.9321V37.6929C32.4646 38.0039 32.3564 38.1075 32.0316 38.1075H27.5822C27.2574 38.1075 27.1492 38.0039 27.1492 37.6929V24.9321L24.1338 24.9321V37.8438C24.1338 39.8133 25.1082 40.7463 27.1652 40.7463Z" fill="url(#paint2_linear)"/>
<defs>
<linearGradient id="paint0_linear" x1="113.299" y1="25.3076" x2="113.65" y2="37.3376" gradientUnits="userSpaceOnUse">
<stop stop-color="#F7FCFF" stop-opacity="0.3"/>
<stop offset="1" stop-color="#F7FCFF" stop-opacity="0.1"/>
</linearGradient>
<linearGradient id="paint1_linear" x1="29.7738" y1="21.1318" x2="32.8808" y2="33.8827" gradientUnits="userSpaceOnUse">
<stop stop-color="#F7FCFF" stop-opacity="0.3"/>
<stop offset="1" stop-color="#F7FCFF" stop-opacity="0.1"/>
</linearGradient>
<linearGradient id="paint2_linear" x1="29.8382" y1="24.9321" x2="32.9452" y2="37.683" gradientUnits="userSpaceOnUse">
<stop stop-color="#F7FCFF" stop-opacity="0.3"/>
<stop offset="1" stop-color="#F7FCFF" stop-opacity="0.1"/>
</linearGradient>
</defs>
</svg>
