<svg width="102" height="40" fill="none" xmlns="http://www.w3.org/2000/svg"><path d="M10.287 22.464l4.139-7.703c.191-.383.383-.67.885-.67h4.378c.191 0 .335.072.407.215a.482.482 0 0 1 0 .502L13.66 26.532v.048l6.794 12.297a.623.623 0 0 1 .072.263.404.404 0 0 1-.072.239c-.071.143-.215.215-.406.215H15.67c-.502 0-.67-.287-.885-.67l-4.498-8.277-.024-.024s-.024 0-.024.024l-4.497 8.277c-.192.383-.383.67-.886.67H.478c-.19 0-.334-.072-.406-.215a.475.475 0 0 1 0-.502l6.794-12.297v-.024L.431 14.832a.475.475 0 0 1 0-.502c.071-.143.215-.215.406-.215h4.378c.55 0 .718.335.885.67l4.14 7.703c.023-.024.023 0 .047-.024 0 0 0 .024 0 0z" fill="url(#paint0_linear)"/><path d="M44.45 29.354c.023 0 .023-.024.023-.024V14.76c0-.382.287-.645.646-.645h3.493c.383 0 .646.287.646.646v24.186a.629.629 0 0 1-.646.646h-3.636c-.479 0-.718-.359-.885-.67l-7.56-14.569-.024-.024c-.024 0-.024.024-.024.024v14.57a.629.629 0 0 1-.646.645h-3.493a.629.629 0 0 1-.646-.646V14.761c0-.383.287-.646.646-.646h3.636c.55 0 .718.335.886.67l7.56 14.569h.023z" fill="url(#paint1_linear)"/><path d="M22.99 38.923V14.761c0-.383.287-.646.646-.646h3.493c.383 0 .646.287.646.646v24.186a.629.629 0 0 1-.646.646h-3.493c-.383 0-.646-.287-.646-.67z" fill="url(#paint2_linear)"/><path d="M63.708 18.206c-1.938 0-3.421.43-4.641 2.081-1.149 1.555-1.77 3.54-1.77 6.435 0 2.728.119 4.976 1.052 6.46.933 1.483 2.392 2.392 4.306 2.392 2.105 0 3.66-.55 3.684-.574l.024-.024v-5.383c0-.024 0-.024-.023-.024h-3.637c-.383 0-.646-.287-.646-.67v-3.134c0-.382.287-.67.646-.67h7.823c.383 0 .67.288.67.67v12.273C70.933 38.182 67.153 40 62.44 40c-3.9 0-6.124-1.483-7.68-3.517-1.794-2.368-2.44-6.196-2.44-9.785 0-2.512.335-4.88 1.22-6.89.933-2.153 2.393-3.732 3.996-4.665 1.77-1.028 3.923-1.387 5.933-1.387h.574c3.182 0 5.12.765 5.765 1.076.503.264.67.455.67.79v3.014c0 .216-.072.383-.191.479-.12.095-.287.143-.503.072-1.244-.407-3.11-.981-5.646-.981h-.43z" fill="url(#paint3_linear)"/><path d="M97.13.024c-.598 0-.837.383-1.053.742 0 0-8.516 15.12-8.804 15.622.024.023 5.622 10.31 5.622 10.31.192.36.503.766 1.1.766h3.948c.24 0 .43-.096.527-.263.095-.168.095-.383 0-.622l-5.575-10.191v-.024L101.651.885c.12-.215.12-.43 0-.622-.095-.167-.287-.263-.526-.263H97.13v.024z" fill="url(#paint4_linear)"/><path d="M80.503 5.43c-.24 0-.431.096-.527.264-.095.167-.095.383 0 .622l2.68 4.617v.024l-4.21 7.416c-.12.216-.12.43 0 .622.095.168.286.263.526.263h3.97c.599 0 .862-.382 1.053-.765 0 0 4.115-7.273 4.283-7.536-.024-.024-2.728-4.737-2.728-4.737-.19-.359-.502-.765-1.1-.765h-3.947V5.43z" fill="url(#paint5_linear)"/><defs><linearGradient id="paint0_linear" x1="10.32" y1="14.091" x2="14.838" y2="34.893" gradientUnits="userSpaceOnUse"><stop stop-color="#F7FCFF" stop-opacity=".3"/><stop offset="1" stop-color="#F7FCFF" stop-opacity=".1"/></linearGradient><linearGradient id="paint1_linear" x1="40.527" y1="14.115" x2="45.713" y2="34.562" gradientUnits="userSpaceOnUse"><stop stop-color="#F7FCFF" stop-opacity=".3"/><stop offset="1" stop-color="#F7FCFF" stop-opacity=".1"/></linearGradient><linearGradient id="paint2_linear" x1="25.396" y1="14.115" x2="36.249" y2="25.773" gradientUnits="userSpaceOnUse"><stop stop-color="#F7FCFF" stop-opacity=".3"/><stop offset="1" stop-color="#F7FCFF" stop-opacity=".1"/></linearGradient><linearGradient id="paint3_linear" x1="61.81" y1="13.756" x2="66.955" y2="34.922" gradientUnits="userSpaceOnUse"><stop stop-color="#F7FCFF" stop-opacity=".3"/><stop offset="1" stop-color="#F7FCFF" stop-opacity=".1"/></linearGradient><linearGradient id="paint4_linear" x1="94.547" x2="101.56" y2="21.131" gradientUnits="userSpaceOnUse"><stop stop-color="#F7FCFF" stop-opacity=".3"/><stop offset="1" stop-color="#F7FCFF" stop-opacity=".1"/></linearGradient><linearGradient id="paint5_linear" x1="83.344" y1="5.431" x2="86.06" y2="16.58" gradientUnits="userSpaceOnUse"><stop stop-color="#F7FCFF" stop-opacity=".3"/><stop offset="1" stop-color="#F7FCFF" stop-opacity=".1"/></linearGradient></defs></svg>