<svg viewBox="0 0 1440 900" fill="none" xmlns="http://www.w3.org/2000/svg">
<g clip-path="url(#clip0)">
<mask id="mask0" mask-type="alpha" maskUnits="userSpaceOnUse" x="144" y="0" width="1152" height="288">
<rect width="1152" height="287.994" transform="translate(144)" fill="url(#paint0_linear)"/>
</mask>
<g mask="url(#mask0)">
<rect width="1152" height="287.994" transform="translate(144)" fill="url(#paint1_linear)"/>
<g opacity="0.8">
<g filter="url(#filter0_d)">
<path fill-rule="evenodd" clip-rule="evenodd" d="M2.20108 3.29028L0.907316 3.96811L1.1544 2.53244L0.107728 1.51568L1.5542 1.30622L2.20108 0L2.84796 1.30622L4.29442 1.51568L3.24775 2.53244L3.49484 3.96811L2.20108 3.29028Z" transform="matrix(0.752658 0.658411 -0.729338 0.684154 1165.02 40.3975)" fill="url(#paint2_linear)"/>
</g>
<g filter="url(#filter1_d)">
<path fill-rule="evenodd" clip-rule="evenodd" d="M2.20108 3.29028L0.907316 3.96811L1.1544 2.53244L0.107728 1.51568L1.5542 1.30622L2.20108 0L2.84796 1.30622L4.29442 1.51568L3.24775 2.53244L3.49484 3.96811L2.20108 3.29028Z" transform="matrix(0.752658 0.658411 -0.729338 0.684154 1224.82 44.3701)" fill="url(#paint3_linear)"/>
</g>
<g opacity="0.4" filter="url(#filter2_d)">
<path fill-rule="evenodd" clip-rule="evenodd" d="M2.20108 3.29028L0.907316 3.96811L1.1544 2.53244L0.107728 1.51568L1.5542 1.30622L2.20108 0L2.84796 1.30622L4.29442 1.51568L3.24775 2.53244L3.49484 3.96811L2.20108 3.29028Z" transform="matrix(0.752658 0.658411 -0.729338 0.684154 1216.23 162.538)" fill="url(#paint4_linear)"/>
</g>
<g opacity="0.4" filter="url(#filter3_d)">
<path fill-rule="evenodd" clip-rule="evenodd" d="M1.46738 2.19352L0.604878 2.64541L0.769602 1.68829L0.0718189 1.01046L1.03613 0.870815L1.46738 0L1.89864 0.870815L2.86295 1.01046L2.16517 1.68829L2.32989 2.64541L1.46738 2.19352Z" transform="matrix(0.752658 0.658411 -0.729338 0.684154 1170.46 69.3281)" fill="url(#paint5_linear)"/>
</g>
<g filter="url(#filter4_d)">
<path fill-rule="evenodd" clip-rule="evenodd" d="M2.20108 3.29028L0.907316 3.96811L1.1544 2.53244L0.107728 1.51568L1.5542 1.30622L2.20108 0L2.84796 1.30622L4.29442 1.51568L3.24775 2.53244L3.49484 3.96811L2.20108 3.29028Z" transform="matrix(0.752658 0.658411 -0.729338 0.684154 1119.74 141.934)" fill="url(#paint6_linear)"/>
</g>
<g filter="url(#filter5_d)">
<path fill-rule="evenodd" clip-rule="evenodd" d="M2.20108 3.29028L0.907316 3.96811L1.1544 2.53244L0.107728 1.51568L1.5542 1.30622L2.20108 0L2.84796 1.30622L4.29442 1.51568L3.24775 2.53244L3.49484 3.96811L2.20108 3.29028Z" transform="matrix(0.752658 0.658411 -0.729338 0.684154 1179.54 145.906)" fill="url(#paint7_linear)"/>
</g>
<g opacity="0.4" filter="url(#filter6_d)">
<path fill-rule="evenodd" clip-rule="evenodd" d="M2.20108 3.29028L0.907316 3.96811L1.1544 2.53244L0.107728 1.51568L1.5542 1.30622L2.20108 0L2.84796 1.30622L4.29442 1.51568L3.24775 2.53244L3.49484 3.96811L2.20108 3.29028Z" transform="matrix(0.752658 0.658411 -0.729338 0.684154 1170.96 264.074)" fill="url(#paint8_linear)"/>
</g>
<g opacity="0.4" filter="url(#filter7_d)">
<path fill-rule="evenodd" clip-rule="evenodd" d="M1.46738 2.19352L0.604878 2.64541L0.769602 1.68829L0.0718189 1.01046L1.03613 0.870815L1.46738 0L1.89864 0.870815L2.86295 1.01046L2.16517 1.68829L2.32989 2.64541L1.46738 2.19352Z" transform="matrix(0.752658 0.658411 -0.729338 0.684154 1125.18 170.863)" fill="url(#paint9_linear)"/>
</g>
<g opacity="0.4" filter="url(#filter8_d)">
<path fill-rule="evenodd" clip-rule="evenodd" d="M1.46738 2.19352L0.604878 2.64541L0.769602 1.68829L0.0718189 1.01046L1.03613 0.870815L1.46738 0L1.89864 0.870815L2.86295 1.01046L2.16517 1.68829L2.32989 2.64541L1.46738 2.19352Z" transform="matrix(0.752658 0.658411 -0.729338 0.684154 1216.98 88.7559)" fill="url(#paint10_linear)"/>
</g>
</g>
<g opacity="0.6" filter="url(#filter9_f)">
<path fill-rule="evenodd" clip-rule="evenodd" d="M0 198.331C0 198.331 314.155 -150.485 642.271 77.0697C699.469 142.939 703.809 262.93 709.008 322.93C865.46 642.068 969.392 239.876 1105.71 318.587C1331.55 448.995 1241.96 588.947 1241.96 588.947" transform="matrix(0.914701 -0.404132 0.47407 0.880487 -32 172.744)" fill="#F95D5D"/>
</g>
<path d="M20.888 8.684C20.9253 9.16933 20.8227 9.61733 20.58 10.028C20.356 10.4387 20.1133 10.8307 19.852 11.204C19.124 12.1747 18.34 13.0987 17.5 13.976C16.66 14.8347 15.8013 15.684 14.924 16.524C14.028 17.42 13.1227 18.2973 12.208 19.156C11.312 19.996 10.388 20.8453 9.436 21.704C7.66267 23.3093 5.87067 24.896 4.06 26.464C2.268 28.0133 0.438667 29.544 -1.428 31.056C-1.036 30.944 -0.644 30.832 -0.252 30.72C0.14 30.608 0.532 30.5053 0.924 30.412C2.156 30.1133 3.37867 29.8427 4.592 29.6C5.824 29.3387 7.056 29.0867 8.288 28.844C9.42667 28.6387 10.5653 28.424 11.704 28.2C12.8613 27.9573 14.056 27.7707 15.288 27.64C15.4 27.6213 15.5213 27.6027 15.652 27.584C15.7827 27.5653 15.904 27.5747 16.016 27.612C16.128 27.6493 16.128 27.7053 16.016 27.78C15.904 27.8547 15.8293 27.9013 15.792 27.92C15.4933 28.0693 15.1853 28.2 14.868 28.312C14.5507 28.424 14.196 28.5453 13.804 28.676C13.4307 28.788 13.0013 28.9093 12.516 29.04C12.0493 29.1707 11.5173 29.3293 10.92 29.516C9.70667 29.8893 8.50267 30.244 7.308 30.58C6.11333 30.916 4.9 31.2427 3.668 31.56C2.436 31.8773 1.22267 32.1573 0.028 32.4C-0.196 32.4373 -0.532 32.5027 -0.98 32.596C-1.44667 32.6893 -1.92267 32.7733 -2.408 32.848C-2.912 32.9227 -3.388 32.96 -3.836 32.96C-4.284 32.96 -4.61067 32.8947 -4.816 32.764C-4.90933 32.708 -4.94667 32.652 -4.928 32.596C-4.928 32.54 -4.9 32.4747 -4.844 32.4C-4.788 32.344 -4.71333 32.288 -4.62 32.232C-4.54533 32.1947 -4.48933 32.1667 -4.452 32.148C-4.20933 32.0173 -3.96667 31.9053 -3.724 31.812C-3.5 31.7187 -3.29467 31.6347 -3.108 31.56C-2.97733 31.448 -2.83733 31.336 -2.688 31.224C-2.576 31.1307 -2.45467 31.028 -2.324 30.916C-2.19333 30.804 -2.08133 30.7013 -1.988 30.608C-0.326667 28.9467 1.33467 27.3133 2.996 25.708C4.676 24.1027 6.356 22.4787 8.036 20.836C8.932 19.9587 9.81867 19.0813 10.696 18.204C11.592 17.3267 12.4787 16.4307 13.356 15.516C14.252 14.62 15.12 13.696 15.96 12.744C16.128 12.5573 16.3613 12.3053 16.66 11.988C16.9587 11.652 17.2573 11.2973 17.556 10.924C17.8733 10.5507 18.1533 10.1867 18.396 9.832C18.6387 9.45867 18.788 9.15067 18.844 8.908C18.8813 8.72133 18.76 8.6 18.48 8.544C18.2187 8.46933 17.9107 8.432 17.556 8.432C17.22 8.432 16.884 8.46 16.548 8.516C16.212 8.55333 15.988 8.58133 15.876 8.6C14.6813 8.84267 13.524 9.216 12.404 9.72C11.3027 10.224 10.248 10.8027 9.24 11.456C8.43733 11.9413 7.672 12.4827 6.944 13.08C6.23467 13.6773 5.50667 14.2747 4.76 14.872C4.704 14.928 4.65733 14.9653 4.62 14.984C4.58267 15.0213 4.55467 15.04 4.536 15.04C4.51733 15.04 4.51733 15.0213 4.536 14.984C4.66667 14.592 4.90933 14.172 5.264 13.724C5.61867 13.276 6.01067 12.828 6.44 12.38C6.888 11.932 7.336 11.512 7.784 11.12C8.232 10.7093 8.624 10.364 8.96 10.084C9.87467 9.356 10.8453 8.712 11.872 8.152C12.8987 7.57333 13.9813 7.12533 15.12 6.808C15.68 6.65867 16.2587 6.54667 16.856 6.472C17.4533 6.39733 18.0507 6.40667 18.648 6.5C19.2267 6.612 19.7307 6.85467 20.16 7.228C20.608 7.58267 20.8507 8.068 20.888 8.684ZM23.9393 15.768C23.902 15.7493 23.902 15.6933 23.9393 15.6C23.9767 15.5067 24.0233 15.4133 24.0793 15.32C24.154 15.2267 24.2193 15.1427 24.2753 15.068C24.35 14.9747 24.3967 14.9187 24.4153 14.9C25.666 13.2573 27.0473 11.7547 28.5593 10.392C30.09 9.02933 31.7047 7.88133 33.4033 6.948C33.8513 6.70533 34.3367 6.472 34.8593 6.248C35.4007 6.024 35.942 5.856 36.4833 5.744C37.0433 5.632 37.594 5.604 38.1353 5.66C38.6767 5.716 39.19 5.90267 39.6753 6.22C40.0673 6.48133 40.3753 6.808 40.5993 7.2C40.8233 7.57333 40.982 7.97467 41.0753 8.404C41.1687 8.83333 41.206 9.28133 41.1873 9.748C41.1687 10.196 41.1127 10.6347 41.0193 11.064C40.478 13.472 39.5913 15.7493 38.3593 17.896C37.146 20.0427 35.7367 22.04 34.1313 23.888C33.31 24.8213 32.4513 25.708 31.5553 26.548C30.6593 27.388 29.7167 28.1813 28.7273 28.928C27.7753 29.6373 26.758 30.2907 25.6753 30.888C24.5927 31.4667 23.4633 31.868 22.2873 32.092C21.7833 32.1667 21.2887 32.1853 20.8033 32.148C20.318 32.1293 19.8607 32.0453 19.4313 31.896C19.0207 31.7467 18.638 31.5227 18.2833 31.224C17.9473 30.9253 17.6673 30.5333 17.4433 30.048C17.182 29.488 17.0233 28.9093 16.9673 28.312C16.8927 27.696 16.8833 27.08 16.9393 26.464C16.9767 25.848 17.07 25.2413 17.2193 24.644C17.35 24.0467 17.4993 23.4773 17.6673 22.936C18.022 21.76 18.4513 20.6213 18.9553 19.52C19.4593 18.4187 20.0287 17.3453 20.6633 16.3C21.2607 15.292 21.9047 14.3213 22.5953 13.388C23.3047 12.4547 24.0793 11.568 24.9193 10.728C25.6473 10 26.422 9.31867 27.2433 8.684C28.0647 8.04933 28.9513 7.536 29.9033 7.144C29.922 7.12533 29.9593 7.10667 30.0153 7.088C30.0713 7.06933 30.1087 7.07867 30.1273 7.116C30.1647 7.15333 30.1553 7.19067 30.0993 7.228C30.062 7.26533 30.034 7.29333 30.0153 7.312C29.754 7.57333 29.4927 7.816 29.2313 8.04C28.97 8.24533 28.7087 8.46933 28.4473 8.712C27.122 9.888 25.946 11.1667 24.9193 12.548C23.9113 13.9107 22.9967 15.3293 22.1753 16.804C21.9327 17.2333 21.634 17.8027 21.2793 18.512C20.9247 19.2213 20.5607 20.0147 20.1873 20.892C19.814 21.7507 19.4687 22.656 19.1513 23.608C18.834 24.5413 18.6007 25.4467 18.4513 26.324C18.302 27.2013 18.2647 28.0133 18.3393 28.76C18.4327 29.5067 18.694 30.104 19.1233 30.552C19.4967 30.9627 19.9447 31.1867 20.4673 31.224C21.0087 31.28 21.5873 31.196 22.2033 30.972C22.838 30.7293 23.5007 30.3933 24.1913 29.964C24.882 29.516 25.5727 29.0213 26.2633 28.48C26.954 27.92 27.626 27.3413 28.2793 26.744C28.9327 26.1467 29.53 25.5773 30.0713 25.036C30.6127 24.4947 31.0793 24.0093 31.4713 23.58C31.882 23.132 32.19 22.796 32.3953 22.572C33.2167 21.6573 33.982 20.7147 34.6913 19.744C35.4007 18.7547 36.054 17.728 36.6513 16.664C36.8193 16.384 37.034 16.0107 37.2953 15.544C37.5753 15.0587 37.8553 14.536 38.1353 13.976C38.434 13.416 38.714 12.8373 38.9753 12.24C39.2553 11.624 39.4793 11.0267 39.6473 10.448C39.8153 9.86933 39.918 9.33733 39.9553 8.852C39.9927 8.36667 39.9273 7.96533 39.7593 7.648C39.498 7.2 39.106 6.948 38.5833 6.892C38.0793 6.81733 37.5007 6.87333 36.8473 7.06C36.2127 7.228 35.5407 7.48933 34.8313 7.844C34.1407 8.19867 33.478 8.572 32.8433 8.964C32.2273 9.356 31.6767 9.72 31.1913 10.056C30.706 10.392 30.3607 10.6347 30.1553 10.784C29.5393 11.2507 28.9327 11.7267 28.3353 12.212C27.7567 12.6973 27.1687 13.1827 26.5713 13.668C26.5153 13.724 26.3567 13.8733 26.0953 14.116C25.834 14.34 25.5447 14.5827 25.2273 14.844C24.9287 15.1053 24.6487 15.3387 24.3873 15.544C24.126 15.7307 23.9767 15.8053 23.9393 15.768ZM58.1556 6.892C58.3236 7.13467 58.3609 7.35867 58.2676 7.564C58.1742 7.76933 58.0529 7.97467 57.9036 8.18C57.4182 8.87067 56.9236 9.56133 56.4196 10.252C55.9156 10.924 55.4022 11.6147 54.8796 12.324C54.1889 13.276 53.4982 14.228 52.8076 15.18C52.1356 16.1133 51.4449 17.056 50.7356 18.008C49.3356 19.9307 47.9356 21.8347 46.5356 23.72C45.1356 25.6053 43.7076 27.4813 42.2516 29.348C43.3716 29.0867 44.4729 28.844 45.5556 28.62C46.6382 28.3773 47.7396 28.1533 48.8596 27.948C49.3822 27.8547 49.8956 27.7613 50.3996 27.668C50.9036 27.5747 51.4169 27.4907 51.9396 27.416C52.1822 27.3787 52.4156 27.3507 52.6396 27.332C52.8636 27.2947 53.0969 27.276 53.3396 27.276C53.3582 27.276 53.4049 27.276 53.4796 27.276C53.5542 27.276 53.6289 27.2853 53.7036 27.304C53.7782 27.304 53.8342 27.3227 53.8716 27.36C53.9276 27.3787 53.9276 27.416 53.8716 27.472C53.7596 27.6213 53.5916 27.7427 53.3676 27.836C53.1622 27.9107 52.9662 27.9853 52.7796 28.06C52.0702 28.3213 51.3609 28.564 50.6516 28.788C49.9609 29.012 49.2422 29.236 48.4956 29.46C47.3569 29.796 46.2182 30.1133 45.0796 30.412C43.9596 30.692 42.8209 30.9627 41.6636 31.224C41.4956 31.2613 41.3276 31.2893 41.1596 31.308C41.0102 31.3453 40.8609 31.3827 40.7116 31.42C40.6182 31.4387 40.5529 31.476 40.5156 31.532C40.3102 31.7373 40.1142 31.952 39.9276 32.176C39.7596 32.4 39.5542 32.6147 39.3116 32.82C39.2742 32.8573 39.2182 32.8853 39.1436 32.904C39.0689 32.9413 39.0502 32.904 39.0876 32.792C39.1249 32.5867 39.1996 32.3907 39.3116 32.204C39.4236 32.0173 39.5262 31.84 39.6196 31.672C38.7236 31.8587 37.8369 32.0267 36.9596 32.176C36.0822 32.344 35.1956 32.5027 34.2996 32.652C33.7582 32.7267 33.2262 32.792 32.7036 32.848C32.1622 32.9227 31.6209 32.9787 31.0796 33.016C30.9489 33.016 30.7809 33.016 30.5756 33.016C30.3702 33.0347 30.1742 33.0347 29.9876 33.016C29.7822 33.016 29.6049 33.0067 29.4556 32.988C29.3062 32.9693 29.2316 32.932 29.2316 32.876C29.2129 32.8387 29.2316 32.8013 29.2876 32.764C29.3436 32.7267 29.3902 32.6987 29.4276 32.68C29.6702 32.5493 29.9222 32.4467 30.1836 32.372C30.4262 32.2973 30.6689 32.2227 30.9116 32.148C31.6396 31.9427 32.3862 31.7373 33.1516 31.532C33.8982 31.3453 34.7009 31.1493 35.5596 30.944C36.4182 30.7387 37.2769 30.5333 38.1356 30.328C39.0129 30.104 39.9089 29.8893 40.8236 29.684L41.6636 28.34C42.2609 27.388 42.8676 26.4453 43.4836 25.512C44.1182 24.5787 44.7529 23.6453 45.3876 22.712C46.8249 20.6213 48.3556 18.484 49.9796 16.3C51.6222 14.0973 53.1996 11.9787 54.7116 9.944C53.5542 10.5787 52.2942 11.26 50.9316 11.988C49.5689 12.6973 48.2809 13.3133 47.0676 13.836C46.5822 14.0413 46.0316 14.2653 45.4156 14.508C44.7996 14.732 43.9222 15.04 42.7836 15.432C42.6529 15.4693 42.5036 15.516 42.3356 15.572C42.1676 15.6093 42.0089 15.6093 41.8596 15.572C41.8222 15.5533 41.8222 15.5253 41.8596 15.488C41.9156 15.432 41.9716 15.3853 42.0276 15.348C42.0836 15.292 42.1396 15.2453 42.1956 15.208C42.2702 15.1707 42.3076 15.152 42.3076 15.152C42.4196 15.096 42.5409 15.0307 42.6716 14.956C42.8022 14.8813 43.0076 14.7693 43.2876 14.62C43.5676 14.452 43.9502 14.2373 44.4356 13.976C44.9209 13.7147 45.5742 13.3693 46.3956 12.94C47.4036 12.3987 48.4022 11.8573 49.3916 11.316C50.3809 10.756 51.3796 10.1773 52.3876 9.58C52.9102 9.26267 53.4236 8.95467 53.9276 8.656C54.4316 8.33867 54.9356 8.012 55.4396 7.676C55.7009 7.508 55.9622 7.34 56.2236 7.172C56.4849 6.98533 56.7556 6.808 57.0356 6.64C57.2222 6.528 57.4182 6.5 57.6236 6.556C57.8476 6.59333 58.0249 6.70533 58.1556 6.892ZM76.3621 7.704C76.4368 8.096 76.4181 8.516 76.3061 8.964C76.2128 9.412 76.0541 9.86 75.8301 10.308C75.6248 10.756 75.3915 11.1853 75.1301 11.596C74.8688 12.0067 74.6168 12.3613 74.3741 12.66C73.7021 13.5373 72.9368 14.3493 72.0781 15.096C71.2381 15.8427 70.3328 16.4867 69.3621 17.028C69.7541 17.0093 70.1368 17.0467 70.5101 17.14C70.8835 17.2147 71.2195 17.3547 71.5181 17.56C71.8168 17.7653 72.0595 18.0267 72.2461 18.344C72.4328 18.6613 72.5448 19.044 72.5821 19.492C72.6195 20.2013 72.5075 20.92 72.2461 21.648C71.9848 22.3573 71.6675 23.0293 71.2941 23.664C70.0808 25.736 68.5408 27.6027 66.6741 29.264C64.8075 30.9253 62.7355 32.2507 60.4581 33.24C60.0661 33.408 59.6275 33.5667 59.1421 33.716C58.6568 33.8653 58.1528 33.9773 57.6301 34.052C57.1261 34.1267 56.6128 34.1453 56.0901 34.108C55.5675 34.0707 55.0821 33.9493 54.6341 33.744C54.0368 33.4827 53.6168 33.1093 53.3741 32.624C53.1128 32.1387 52.9821 31.6067 52.9821 31.028C52.9635 30.4493 53.0288 29.8707 53.1781 29.292C53.3275 28.6947 53.5048 28.1533 53.7101 27.668C54.1955 26.548 54.7928 25.4933 55.5021 24.504C56.2115 23.5147 56.9861 22.5813 57.8261 21.704C58.6101 20.8827 59.4501 20.1267 60.3461 19.436C61.2608 18.7267 62.2501 18.1573 63.3141 17.728C63.5195 17.6347 63.7341 17.56 63.9581 17.504C64.1821 17.4293 64.4061 17.3733 64.6301 17.336C64.7981 17.3173 64.8915 17.3267 64.9101 17.364C64.9101 17.4013 64.8821 17.4387 64.8261 17.476C64.7888 17.5133 64.7515 17.5413 64.7141 17.56L64.2101 17.896C63.7435 18.1947 63.2955 18.4933 62.8661 18.792C62.4555 19.0907 62.0355 19.4173 61.6061 19.772C60.6915 20.556 59.8421 21.4053 59.0581 22.32C58.2741 23.216 57.5555 24.168 56.9021 25.176C56.8088 25.344 56.6315 25.652 56.3701 26.1C56.1275 26.548 55.8661 27.0613 55.5861 27.64C55.3248 28.2 55.0821 28.788 54.8581 29.404C54.6341 30.02 54.4941 30.5893 54.4381 31.112C54.3635 31.6533 54.4008 32.1013 54.5501 32.456C54.6995 32.8107 55.0261 33.0067 55.5301 33.044C56.0715 33.1187 56.6688 33.0533 57.3221 32.848C57.9941 32.6427 58.6755 32.3533 59.3661 31.98C60.0755 31.6253 60.7848 31.2053 61.4941 30.72C62.2035 30.216 62.8755 29.7027 63.5101 29.18C64.1635 28.6573 64.7701 28.144 65.3301 27.64C65.8901 27.1173 66.3661 26.6507 66.7581 26.24C67.0568 25.9413 67.4581 25.5027 67.9621 24.924C68.4661 24.3267 68.9608 23.692 69.4461 23.02C69.9315 22.348 70.3421 21.676 70.6781 21.004C71.0328 20.332 71.2101 19.7627 71.2101 19.296C71.2101 18.8293 70.9675 18.5213 70.4821 18.372C70.0155 18.204 69.2035 18.2787 68.0461 18.596C67.5608 18.7453 67.0475 18.932 66.5061 19.156C65.9648 19.38 65.4235 19.6227 64.8821 19.884C64.3408 20.1267 63.8088 20.388 63.2861 20.668C62.7821 20.948 62.3155 21.2093 61.8861 21.452C61.6435 21.5827 61.4101 21.7133 61.1861 21.844C60.9621 21.9747 60.7288 22.1053 60.4861 22.236C60.3555 22.3107 60.2248 22.3853 60.0941 22.46C59.9635 22.5347 59.8235 22.5907 59.6741 22.628C59.5248 22.684 59.4781 22.6653 59.5341 22.572C59.5901 22.46 59.6461 22.376 59.7021 22.32C59.8515 22.152 60.0101 21.9933 60.1781 21.844C60.3461 21.676 60.5235 21.5173 60.7101 21.368C61.5875 20.6213 62.5021 19.94 63.4541 19.324C64.4248 18.6893 65.4421 18.1573 66.5061 17.728C65.9461 17.672 65.4795 17.4573 65.1061 17.084C64.7328 16.692 64.5088 16.216 64.4341 15.656C64.3595 15.0213 64.4341 14.3867 64.6581 13.752C64.9008 13.1173 65.1808 12.5293 65.4981 11.988C66.2821 10.7747 67.2248 9.70133 68.3261 8.768C69.4275 7.83467 70.6781 7.09733 72.0781 6.556C72.6008 6.332 73.1608 6.192 73.7581 6.136C74.2995 6.06133 74.8315 6.15467 75.3541 6.416C75.8768 6.67733 76.2128 7.10667 76.3621 7.704ZM73.1141 11.232C73.2821 10.952 73.4688 10.644 73.6741 10.308C73.8795 9.95333 74.0568 9.59867 74.2061 9.244C74.3741 8.88933 74.4861 8.56267 74.5421 8.264C74.5981 7.94667 74.5608 7.69467 74.4301 7.508C74.3181 7.30267 74.0848 7.18133 73.7301 7.144C73.3755 7.10667 72.8621 7.19067 72.1901 7.396C71.1635 7.732 70.2488 8.24533 69.4461 8.936C68.6621 9.62667 67.9435 10.5133 67.2901 11.596C67.1968 11.7453 67.0755 11.9973 66.9261 12.352C66.7768 12.688 66.6275 13.0707 66.4781 13.5C66.3288 13.9107 66.2075 14.34 66.1141 14.788C66.0208 15.2173 65.9928 15.5907 66.0301 15.908C66.0861 16.2253 66.2261 16.4587 66.4501 16.608C66.6741 16.7387 67.0288 16.72 67.5141 16.552C68.0741 16.3653 68.6155 16.076 69.1381 15.684C69.6795 15.292 70.1928 14.844 70.6781 14.34C71.1821 13.836 71.6395 13.3133 72.0501 12.772C72.4608 12.2307 72.8155 11.7173 73.1141 11.232Z" transform="translate(1016 198.396) rotate(-30.0003)" fill="#FCC968"/>
<g filter="url(#filter10_f)">
<path d="M20.888 8.684C20.9253 9.16933 20.8227 9.61733 20.58 10.028C20.356 10.4387 20.1133 10.8307 19.852 11.204C19.124 12.1747 18.34 13.0987 17.5 13.976C16.66 14.8347 15.8013 15.684 14.924 16.524C14.028 17.42 13.1227 18.2973 12.208 19.156C11.312 19.996 10.388 20.8453 9.436 21.704C7.66267 23.3093 5.87067 24.896 4.06 26.464C2.268 28.0133 0.438667 29.544 -1.428 31.056C-1.036 30.944 -0.644 30.832 -0.252 30.72C0.14 30.608 0.532 30.5053 0.924 30.412C2.156 30.1133 3.37867 29.8427 4.592 29.6C5.824 29.3387 7.056 29.0867 8.288 28.844C9.42667 28.6387 10.5653 28.424 11.704 28.2C12.8613 27.9573 14.056 27.7707 15.288 27.64C15.4 27.6213 15.5213 27.6027 15.652 27.584C15.7827 27.5653 15.904 27.5747 16.016 27.612C16.128 27.6493 16.128 27.7053 16.016 27.78C15.904 27.8547 15.8293 27.9013 15.792 27.92C15.4933 28.0693 15.1853 28.2 14.868 28.312C14.5507 28.424 14.196 28.5453 13.804 28.676C13.4307 28.788 13.0013 28.9093 12.516 29.04C12.0493 29.1707 11.5173 29.3293 10.92 29.516C9.70667 29.8893 8.50267 30.244 7.308 30.58C6.11333 30.916 4.9 31.2427 3.668 31.56C2.436 31.8773 1.22267 32.1573 0.028 32.4C-0.196 32.4373 -0.532 32.5027 -0.98 32.596C-1.44667 32.6893 -1.92267 32.7733 -2.408 32.848C-2.912 32.9227 -3.388 32.96 -3.836 32.96C-4.284 32.96 -4.61067 32.8947 -4.816 32.764C-4.90933 32.708 -4.94667 32.652 -4.928 32.596C-4.928 32.54 -4.9 32.4747 -4.844 32.4C-4.788 32.344 -4.71333 32.288 -4.62 32.232C-4.54533 32.1947 -4.48933 32.1667 -4.452 32.148C-4.20933 32.0173 -3.96667 31.9053 -3.724 31.812C-3.5 31.7187 -3.29467 31.6347 -3.108 31.56C-2.97733 31.448 -2.83733 31.336 -2.688 31.224C-2.576 31.1307 -2.45467 31.028 -2.324 30.916C-2.19333 30.804 -2.08133 30.7013 -1.988 30.608C-0.326667 28.9467 1.33467 27.3133 2.996 25.708C4.676 24.1027 6.356 22.4787 8.036 20.836C8.932 19.9587 9.81867 19.0813 10.696 18.204C11.592 17.3267 12.4787 16.4307 13.356 15.516C14.252 14.62 15.12 13.696 15.96 12.744C16.128 12.5573 16.3613 12.3053 16.66 11.988C16.9587 11.652 17.2573 11.2973 17.556 10.924C17.8733 10.5507 18.1533 10.1867 18.396 9.832C18.6387 9.45867 18.788 9.15067 18.844 8.908C18.8813 8.72133 18.76 8.6 18.48 8.544C18.2187 8.46933 17.9107 8.432 17.556 8.432C17.22 8.432 16.884 8.46 16.548 8.516C16.212 8.55333 15.988 8.58133 15.876 8.6C14.6813 8.84267 13.524 9.216 12.404 9.72C11.3027 10.224 10.248 10.8027 9.24 11.456C8.43733 11.9413 7.672 12.4827 6.944 13.08C6.23467 13.6773 5.50667 14.2747 4.76 14.872C4.704 14.928 4.65733 14.9653 4.62 14.984C4.58267 15.0213 4.55467 15.04 4.536 15.04C4.51733 15.04 4.51733 15.0213 4.536 14.984C4.66667 14.592 4.90933 14.172 5.264 13.724C5.61867 13.276 6.01067 12.828 6.44 12.38C6.888 11.932 7.336 11.512 7.784 11.12C8.232 10.7093 8.624 10.364 8.96 10.084C9.87467 9.356 10.8453 8.712 11.872 8.152C12.8987 7.57333 13.9813 7.12533 15.12 6.808C15.68 6.65867 16.2587 6.54667 16.856 6.472C17.4533 6.39733 18.0507 6.40667 18.648 6.5C19.2267 6.612 19.7307 6.85467 20.16 7.228C20.608 7.58267 20.8507 8.068 20.888 8.684ZM23.9393 15.768C23.902 15.7493 23.902 15.6933 23.9393 15.6C23.9767 15.5067 24.0233 15.4133 24.0793 15.32C24.154 15.2267 24.2193 15.1427 24.2753 15.068C24.35 14.9747 24.3967 14.9187 24.4153 14.9C25.666 13.2573 27.0473 11.7547 28.5593 10.392C30.09 9.02933 31.7047 7.88133 33.4033 6.948C33.8513 6.70533 34.3367 6.472 34.8593 6.248C35.4007 6.024 35.942 5.856 36.4833 5.744C37.0433 5.632 37.594 5.604 38.1353 5.66C38.6767 5.716 39.19 5.90267 39.6753 6.22C40.0673 6.48133 40.3753 6.808 40.5993 7.2C40.8233 7.57333 40.982 7.97467 41.0753 8.404C41.1687 8.83333 41.206 9.28133 41.1873 9.748C41.1687 10.196 41.1127 10.6347 41.0193 11.064C40.478 13.472 39.5913 15.7493 38.3593 17.896C37.146 20.0427 35.7367 22.04 34.1313 23.888C33.31 24.8213 32.4513 25.708 31.5553 26.548C30.6593 27.388 29.7167 28.1813 28.7273 28.928C27.7753 29.6373 26.758 30.2907 25.6753 30.888C24.5927 31.4667 23.4633 31.868 22.2873 32.092C21.7833 32.1667 21.2887 32.1853 20.8033 32.148C20.318 32.1293 19.8607 32.0453 19.4313 31.896C19.0207 31.7467 18.638 31.5227 18.2833 31.224C17.9473 30.9253 17.6673 30.5333 17.4433 30.048C17.182 29.488 17.0233 28.9093 16.9673 28.312C16.8927 27.696 16.8833 27.08 16.9393 26.464C16.9767 25.848 17.07 25.2413 17.2193 24.644C17.35 24.0467 17.4993 23.4773 17.6673 22.936C18.022 21.76 18.4513 20.6213 18.9553 19.52C19.4593 18.4187 20.0287 17.3453 20.6633 16.3C21.2607 15.292 21.9047 14.3213 22.5953 13.388C23.3047 12.4547 24.0793 11.568 24.9193 10.728C25.6473 10 26.422 9.31867 27.2433 8.684C28.0647 8.04933 28.9513 7.536 29.9033 7.144C29.922 7.12533 29.9593 7.10667 30.0153 7.088C30.0713 7.06933 30.1087 7.07867 30.1273 7.116C30.1647 7.15333 30.1553 7.19067 30.0993 7.228C30.062 7.26533 30.034 7.29333 30.0153 7.312C29.754 7.57333 29.4927 7.816 29.2313 8.04C28.97 8.24533 28.7087 8.46933 28.4473 8.712C27.122 9.888 25.946 11.1667 24.9193 12.548C23.9113 13.9107 22.9967 15.3293 22.1753 16.804C21.9327 17.2333 21.634 17.8027 21.2793 18.512C20.9247 19.2213 20.5607 20.0147 20.1873 20.892C19.814 21.7507 19.4687 22.656 19.1513 23.608C18.834 24.5413 18.6007 25.4467 18.4513 26.324C18.302 27.2013 18.2647 28.0133 18.3393 28.76C18.4327 29.5067 18.694 30.104 19.1233 30.552C19.4967 30.9627 19.9447 31.1867 20.4673 31.224C21.0087 31.28 21.5873 31.196 22.2033 30.972C22.838 30.7293 23.5007 30.3933 24.1913 29.964C24.882 29.516 25.5727 29.0213 26.2633 28.48C26.954 27.92 27.626 27.3413 28.2793 26.744C28.9327 26.1467 29.53 25.5773 30.0713 25.036C30.6127 24.4947 31.0793 24.0093 31.4713 23.58C31.882 23.132 32.19 22.796 32.3953 22.572C33.2167 21.6573 33.982 20.7147 34.6913 19.744C35.4007 18.7547 36.054 17.728 36.6513 16.664C36.8193 16.384 37.034 16.0107 37.2953 15.544C37.5753 15.0587 37.8553 14.536 38.1353 13.976C38.434 13.416 38.714 12.8373 38.9753 12.24C39.2553 11.624 39.4793 11.0267 39.6473 10.448C39.8153 9.86933 39.918 9.33733 39.9553 8.852C39.9927 8.36667 39.9273 7.96533 39.7593 7.648C39.498 7.2 39.106 6.948 38.5833 6.892C38.0793 6.81733 37.5007 6.87333 36.8473 7.06C36.2127 7.228 35.5407 7.48933 34.8313 7.844C34.1407 8.19867 33.478 8.572 32.8433 8.964C32.2273 9.356 31.6767 9.72 31.1913 10.056C30.706 10.392 30.3607 10.6347 30.1553 10.784C29.5393 11.2507 28.9327 11.7267 28.3353 12.212C27.7567 12.6973 27.1687 13.1827 26.5713 13.668C26.5153 13.724 26.3567 13.8733 26.0953 14.116C25.834 14.34 25.5447 14.5827 25.2273 14.844C24.9287 15.1053 24.6487 15.3387 24.3873 15.544C24.126 15.7307 23.9767 15.8053 23.9393 15.768ZM58.1556 6.892C58.3236 7.13467 58.3609 7.35867 58.2676 7.564C58.1742 7.76933 58.0529 7.97467 57.9036 8.18C57.4182 8.87067 56.9236 9.56133 56.4196 10.252C55.9156 10.924 55.4022 11.6147 54.8796 12.324C54.1889 13.276 53.4982 14.228 52.8076 15.18C52.1356 16.1133 51.4449 17.056 50.7356 18.008C49.3356 19.9307 47.9356 21.8347 46.5356 23.72C45.1356 25.6053 43.7076 27.4813 42.2516 29.348C43.3716 29.0867 44.4729 28.844 45.5556 28.62C46.6382 28.3773 47.7396 28.1533 48.8596 27.948C49.3822 27.8547 49.8956 27.7613 50.3996 27.668C50.9036 27.5747 51.4169 27.4907 51.9396 27.416C52.1822 27.3787 52.4156 27.3507 52.6396 27.332C52.8636 27.2947 53.0969 27.276 53.3396 27.276C53.3582 27.276 53.4049 27.276 53.4796 27.276C53.5542 27.276 53.6289 27.2853 53.7036 27.304C53.7782 27.304 53.8342 27.3227 53.8716 27.36C53.9276 27.3787 53.9276 27.416 53.8716 27.472C53.7596 27.6213 53.5916 27.7427 53.3676 27.836C53.1622 27.9107 52.9662 27.9853 52.7796 28.06C52.0702 28.3213 51.3609 28.564 50.6516 28.788C49.9609 29.012 49.2422 29.236 48.4956 29.46C47.3569 29.796 46.2182 30.1133 45.0796 30.412C43.9596 30.692 42.8209 30.9627 41.6636 31.224C41.4956 31.2613 41.3276 31.2893 41.1596 31.308C41.0102 31.3453 40.8609 31.3827 40.7116 31.42C40.6182 31.4387 40.5529 31.476 40.5156 31.532C40.3102 31.7373 40.1142 31.952 39.9276 32.176C39.7596 32.4 39.5542 32.6147 39.3116 32.82C39.2742 32.8573 39.2182 32.8853 39.1436 32.904C39.0689 32.9413 39.0502 32.904 39.0876 32.792C39.1249 32.5867 39.1996 32.3907 39.3116 32.204C39.4236 32.0173 39.5262 31.84 39.6196 31.672C38.7236 31.8587 37.8369 32.0267 36.9596 32.176C36.0822 32.344 35.1956 32.5027 34.2996 32.652C33.7582 32.7267 33.2262 32.792 32.7036 32.848C32.1622 32.9227 31.6209 32.9787 31.0796 33.016C30.9489 33.016 30.7809 33.016 30.5756 33.016C30.3702 33.0347 30.1742 33.0347 29.9876 33.016C29.7822 33.016 29.6049 33.0067 29.4556 32.988C29.3062 32.9693 29.2316 32.932 29.2316 32.876C29.2129 32.8387 29.2316 32.8013 29.2876 32.764C29.3436 32.7267 29.3902 32.6987 29.4276 32.68C29.6702 32.5493 29.9222 32.4467 30.1836 32.372C30.4262 32.2973 30.6689 32.2227 30.9116 32.148C31.6396 31.9427 32.3862 31.7373 33.1516 31.532C33.8982 31.3453 34.7009 31.1493 35.5596 30.944C36.4182 30.7387 37.2769 30.5333 38.1356 30.328C39.0129 30.104 39.9089 29.8893 40.8236 29.684L41.6636 28.34C42.2609 27.388 42.8676 26.4453 43.4836 25.512C44.1182 24.5787 44.7529 23.6453 45.3876 22.712C46.8249 20.6213 48.3556 18.484 49.9796 16.3C51.6222 14.0973 53.1996 11.9787 54.7116 9.944C53.5542 10.5787 52.2942 11.26 50.9316 11.988C49.5689 12.6973 48.2809 13.3133 47.0676 13.836C46.5822 14.0413 46.0316 14.2653 45.4156 14.508C44.7996 14.732 43.9222 15.04 42.7836 15.432C42.6529 15.4693 42.5036 15.516 42.3356 15.572C42.1676 15.6093 42.0089 15.6093 41.8596 15.572C41.8222 15.5533 41.8222 15.5253 41.8596 15.488C41.9156 15.432 41.9716 15.3853 42.0276 15.348C42.0836 15.292 42.1396 15.2453 42.1956 15.208C42.2702 15.1707 42.3076 15.152 42.3076 15.152C42.4196 15.096 42.5409 15.0307 42.6716 14.956C42.8022 14.8813 43.0076 14.7693 43.2876 14.62C43.5676 14.452 43.9502 14.2373 44.4356 13.976C44.9209 13.7147 45.5742 13.3693 46.3956 12.94C47.4036 12.3987 48.4022 11.8573 49.3916 11.316C50.3809 10.756 51.3796 10.1773 52.3876 9.58C52.9102 9.26267 53.4236 8.95467 53.9276 8.656C54.4316 8.33867 54.9356 8.012 55.4396 7.676C55.7009 7.508 55.9622 7.34 56.2236 7.172C56.4849 6.98533 56.7556 6.808 57.0356 6.64C57.2222 6.528 57.4182 6.5 57.6236 6.556C57.8476 6.59333 58.0249 6.70533 58.1556 6.892ZM76.3621 7.704C76.4368 8.096 76.4181 8.516 76.3061 8.964C76.2128 9.412 76.0541 9.86 75.8301 10.308C75.6248 10.756 75.3915 11.1853 75.1301 11.596C74.8688 12.0067 74.6168 12.3613 74.3741 12.66C73.7021 13.5373 72.9368 14.3493 72.0781 15.096C71.2381 15.8427 70.3328 16.4867 69.3621 17.028C69.7541 17.0093 70.1368 17.0467 70.5101 17.14C70.8835 17.2147 71.2195 17.3547 71.5181 17.56C71.8168 17.7653 72.0595 18.0267 72.2461 18.344C72.4328 18.6613 72.5448 19.044 72.5821 19.492C72.6195 20.2013 72.5075 20.92 72.2461 21.648C71.9848 22.3573 71.6675 23.0293 71.2941 23.664C70.0808 25.736 68.5408 27.6027 66.6741 29.264C64.8075 30.9253 62.7355 32.2507 60.4581 33.24C60.0661 33.408 59.6275 33.5667 59.1421 33.716C58.6568 33.8653 58.1528 33.9773 57.6301 34.052C57.1261 34.1267 56.6128 34.1453 56.0901 34.108C55.5675 34.0707 55.0821 33.9493 54.6341 33.744C54.0368 33.4827 53.6168 33.1093 53.3741 32.624C53.1128 32.1387 52.9821 31.6067 52.9821 31.028C52.9635 30.4493 53.0288 29.8707 53.1781 29.292C53.3275 28.6947 53.5048 28.1533 53.7101 27.668C54.1955 26.548 54.7928 25.4933 55.5021 24.504C56.2115 23.5147 56.9861 22.5813 57.8261 21.704C58.6101 20.8827 59.4501 20.1267 60.3461 19.436C61.2608 18.7267 62.2501 18.1573 63.3141 17.728C63.5195 17.6347 63.7341 17.56 63.9581 17.504C64.1821 17.4293 64.4061 17.3733 64.6301 17.336C64.7981 17.3173 64.8915 17.3267 64.9101 17.364C64.9101 17.4013 64.8821 17.4387 64.8261 17.476C64.7888 17.5133 64.7515 17.5413 64.7141 17.56L64.2101 17.896C63.7435 18.1947 63.2955 18.4933 62.8661 18.792C62.4555 19.0907 62.0355 19.4173 61.6061 19.772C60.6915 20.556 59.8421 21.4053 59.0581 22.32C58.2741 23.216 57.5555 24.168 56.9021 25.176C56.8088 25.344 56.6315 25.652 56.3701 26.1C56.1275 26.548 55.8661 27.0613 55.5861 27.64C55.3248 28.2 55.0821 28.788 54.8581 29.404C54.6341 30.02 54.4941 30.5893 54.4381 31.112C54.3635 31.6533 54.4008 32.1013 54.5501 32.456C54.6995 32.8107 55.0261 33.0067 55.5301 33.044C56.0715 33.1187 56.6688 33.0533 57.3221 32.848C57.9941 32.6427 58.6755 32.3533 59.3661 31.98C60.0755 31.6253 60.7848 31.2053 61.4941 30.72C62.2035 30.216 62.8755 29.7027 63.5101 29.18C64.1635 28.6573 64.7701 28.144 65.3301 27.64C65.8901 27.1173 66.3661 26.6507 66.7581 26.24C67.0568 25.9413 67.4581 25.5027 67.9621 24.924C68.4661 24.3267 68.9608 23.692 69.4461 23.02C69.9315 22.348 70.3421 21.676 70.6781 21.004C71.0328 20.332 71.2101 19.7627 71.2101 19.296C71.2101 18.8293 70.9675 18.5213 70.4821 18.372C70.0155 18.204 69.2035 18.2787 68.0461 18.596C67.5608 18.7453 67.0475 18.932 66.5061 19.156C65.9648 19.38 65.4235 19.6227 64.8821 19.884C64.3408 20.1267 63.8088 20.388 63.2861 20.668C62.7821 20.948 62.3155 21.2093 61.8861 21.452C61.6435 21.5827 61.4101 21.7133 61.1861 21.844C60.9621 21.9747 60.7288 22.1053 60.4861 22.236C60.3555 22.3107 60.2248 22.3853 60.0941 22.46C59.9635 22.5347 59.8235 22.5907 59.6741 22.628C59.5248 22.684 59.4781 22.6653 59.5341 22.572C59.5901 22.46 59.6461 22.376 59.7021 22.32C59.8515 22.152 60.0101 21.9933 60.1781 21.844C60.3461 21.676 60.5235 21.5173 60.7101 21.368C61.5875 20.6213 62.5021 19.94 63.4541 19.324C64.4248 18.6893 65.4421 18.1573 66.5061 17.728C65.9461 17.672 65.4795 17.4573 65.1061 17.084C64.7328 16.692 64.5088 16.216 64.4341 15.656C64.3595 15.0213 64.4341 14.3867 64.6581 13.752C64.9008 13.1173 65.1808 12.5293 65.4981 11.988C66.2821 10.7747 67.2248 9.70133 68.3261 8.768C69.4275 7.83467 70.6781 7.09733 72.0781 6.556C72.6008 6.332 73.1608 6.192 73.7581 6.136C74.2995 6.06133 74.8315 6.15467 75.3541 6.416C75.8768 6.67733 76.2128 7.10667 76.3621 7.704ZM73.1141 11.232C73.2821 10.952 73.4688 10.644 73.6741 10.308C73.8795 9.95333 74.0568 9.59867 74.2061 9.244C74.3741 8.88933 74.4861 8.56267 74.5421 8.264C74.5981 7.94667 74.5608 7.69467 74.4301 7.508C74.3181 7.30267 74.0848 7.18133 73.7301 7.144C73.3755 7.10667 72.8621 7.19067 72.1901 7.396C71.1635 7.732 70.2488 8.24533 69.4461 8.936C68.6621 9.62667 67.9435 10.5133 67.2901 11.596C67.1968 11.7453 67.0755 11.9973 66.9261 12.352C66.7768 12.688 66.6275 13.0707 66.4781 13.5C66.3288 13.9107 66.2075 14.34 66.1141 14.788C66.0208 15.2173 65.9928 15.5907 66.0301 15.908C66.0861 16.2253 66.2261 16.4587 66.4501 16.608C66.6741 16.7387 67.0288 16.72 67.5141 16.552C68.0741 16.3653 68.6155 16.076 69.1381 15.684C69.6795 15.292 70.1928 14.844 70.6781 14.34C71.1821 13.836 71.6395 13.3133 72.0501 12.772C72.4608 12.2307 72.8155 11.7173 73.1141 11.232Z" transform="translate(1016 198.396) rotate(-30.0003)" fill="#FCC968"/>
</g>
<g filter="url(#filter11_f)">
<path fill-rule="evenodd" clip-rule="evenodd" d="M0 5.95187V0L12.9514 12.7997L25.8705 0V25.5994H21.6072V10.3038L12.9514 18.8476L0 5.95187ZM81.2409 4.22391V21.3115L76.9453 25.5994V0L81.2409 4.22391ZM142.277 13.3437C141.276 14.7837 140.016 15.8077 138.498 16.4156L143.795 25.5994H138.853L131.36 12.7677L135.204 12.7997C136.366 12.7997 137.368 12.3837 138.207 11.5517C139.079 10.7198 139.499 9.69579 139.499 8.51181C139.499 7.35984 139.079 6.36786 138.207 5.53588C137.368 4.7039 136.366 4.28791 135.204 4.28791H126.58L126.096 3.80792L123.867 0H135.204C137.561 0 139.596 0.831982 141.276 2.49595C142.955 4.19191 143.795 6.17587 143.795 8.51181C143.795 10.3038 143.31 11.9037 142.277 13.3437ZM206.468 13.3437C205.467 14.7837 204.207 15.8077 202.69 16.4156L207.986 25.5994H203.045L195.552 12.7677L199.395 12.7997C200.558 12.7997 201.559 12.3837 202.399 11.5517C203.271 10.7198 203.691 9.69579 203.691 8.51181C203.691 7.35984 203.271 6.36786 202.399 5.53588C201.559 4.7039 200.558 4.28791 199.395 4.28791H190.772L190.287 3.80792L188.059 0H199.395C201.753 0 203.788 0.831982 205.467 2.49595C207.147 4.19191 207.986 6.17587 207.986 8.51181C207.986 10.3038 207.502 11.9037 206.468 13.3437ZM271.696 0C275.282 0 278.285 1.27997 280.804 3.77592C283.356 6.27186 284.648 9.2798 284.648 12.7997C284.648 16.3516 283.356 19.3596 280.804 21.8235C278.285 24.3195 275.282 25.5994 271.696 25.5994C268.111 25.5994 265.108 24.3195 262.588 21.8235C260.069 19.3276 258.777 16.3516 258.777 12.7997C258.777 9.2798 260.069 6.27186 262.588 3.77592C265.075 1.27997 268.111 0 271.696 0ZM271.693 4.28711C269.335 4.28711 267.3 5.08709 265.588 6.78306C263.909 8.44702 263.102 10.463 263.102 12.7989C263.102 15.1349 263.909 17.1828 265.588 18.8468C267.268 20.5108 269.335 21.3107 271.693 21.3107C274.051 21.3107 276.085 20.5108 277.765 18.8468C279.477 17.1508 280.284 15.1349 280.284 12.7989C280.284 10.463 279.444 8.44702 277.765 6.78306C276.085 5.11909 274.051 4.28711 271.693 4.28711ZM345.382 13.3437C344.381 14.7837 343.122 15.8077 341.604 16.4156L346.9 25.5994H341.959L334.466 12.7677L338.309 12.7997C339.472 12.7997 340.473 12.3837 341.313 11.5517C342.185 10.7198 342.605 9.69579 342.605 8.51181C342.605 7.35984 342.185 6.36786 341.313 5.53588C340.473 4.7039 339.472 4.28791 338.309 4.28791H329.686L329.201 3.80792L326.973 0H338.309C340.667 0 342.702 0.831982 344.381 2.49595C346.061 4.19191 346.9 6.17587 346.9 8.51181C346.9 10.3038 346.416 11.9037 345.382 13.3437ZM405.641 24.5755C404.058 23.9035 402.701 22.9755 401.506 21.8235C400.344 20.6395 399.407 19.2956 398.729 17.7276C398.051 16.1596 397.695 14.5277 397.695 12.7997C397.695 11.0398 398.051 9.3758 398.729 7.80783C399.407 6.27186 400.344 4.92789 401.506 3.77592C402.701 2.59194 404.058 1.69596 405.641 1.02398C407.191 0.351992 408.87 0 410.647 0C412.423 0 414.103 0.319993 415.653 0.991978C417.203 1.66396 418.592 2.59194 419.787 3.77592L416.719 6.75185C415.007 5.08789 412.972 4.28791 410.647 4.28791C409.452 4.28791 408.321 4.5119 407.288 4.92789C406.222 5.37588 405.318 5.98387 404.542 6.78385C403.767 7.55184 403.154 8.44782 402.701 9.47179C402.249 10.5278 402.023 11.6157 402.023 12.7997C402.023 13.9837 402.249 15.0717 402.701 16.1276C403.154 17.1516 403.767 18.0476 404.575 18.8156C405.35 19.6156 406.254 20.2236 407.288 20.6715C408.354 21.0875 409.452 21.3115 410.647 21.3115L415.653 24.6075C414.103 25.2794 412.423 25.5994 410.647 25.5994C408.87 25.5994 407.191 25.2474 405.641 24.5755ZM480.009 0C483.594 0 486.598 1.27997 489.117 3.77592C491.668 6.27186 492.96 9.2798 492.96 12.7997C492.96 16.3516 491.668 19.3596 489.117 21.8235C486.598 24.3195 483.594 25.5994 480.009 25.5994C476.424 25.5994 473.42 24.3195 470.901 21.8235C468.382 19.3276 467.09 16.3516 467.09 12.7997C467.09 9.2798 468.382 6.27186 470.901 3.77592C473.388 1.27997 476.424 0 480.009 0ZM480.009 4.28711C477.651 4.28711 475.617 5.08709 473.905 6.78306C472.225 8.44702 471.418 10.463 471.418 12.7989C471.418 15.1349 472.225 17.1828 473.905 18.8468C475.584 20.5108 477.651 21.3107 480.009 21.3107C482.367 21.3107 484.402 20.5108 486.081 18.8468C487.793 17.1508 488.6 15.1349 488.6 12.7989C488.6 10.463 487.761 8.44702 486.081 6.78306C484.402 5.11909 482.367 4.28711 480.009 4.28711ZM556.249 0H560.544V25.5994L539.066 6.46386V0L556.249 15.3277V0ZM611.625 12.7676H628.84V17.0875H615.921V25.5993H611.625V12.7676ZM611.625 0H628.84V4.28791H615.921L611.625 0Z" transform="translate(414.395 137.598)" fill="#F8AAFF"/>
</g>
<path fill-rule="evenodd" clip-rule="evenodd" d="M0 5.95187V0L12.9514 12.7997L25.8705 0V25.5994H21.6072V10.3038L12.9514 18.8476L0 5.95187ZM81.2409 4.22391V21.3115L76.9453 25.5994V0L81.2409 4.22391ZM142.277 13.3437C141.276 14.7837 140.016 15.8077 138.498 16.4156L143.795 25.5994H138.853L131.36 12.7677L135.204 12.7997C136.366 12.7997 137.368 12.3837 138.207 11.5517C139.079 10.7198 139.499 9.69579 139.499 8.51181C139.499 7.35984 139.079 6.36786 138.207 5.53588C137.368 4.7039 136.366 4.28791 135.204 4.28791H126.58L126.096 3.80792L123.867 0H135.204C137.561 0 139.596 0.831982 141.276 2.49595C142.955 4.19191 143.795 6.17587 143.795 8.51181C143.795 10.3038 143.31 11.9037 142.277 13.3437ZM206.468 13.3437C205.467 14.7837 204.207 15.8077 202.69 16.4156L207.986 25.5994H203.045L195.552 12.7677L199.395 12.7997C200.558 12.7997 201.559 12.3837 202.399 11.5517C203.271 10.7198 203.691 9.69579 203.691 8.51181C203.691 7.35984 203.271 6.36786 202.399 5.53588C201.559 4.7039 200.558 4.28791 199.395 4.28791H190.772L190.287 3.80792L188.059 0H199.395C201.753 0 203.788 0.831982 205.467 2.49595C207.147 4.19191 207.986 6.17587 207.986 8.51181C207.986 10.3038 207.502 11.9037 206.468 13.3437ZM271.696 0C275.282 0 278.285 1.27997 280.804 3.77592C283.356 6.27186 284.648 9.2798 284.648 12.7997C284.648 16.3516 283.356 19.3596 280.804 21.8235C278.285 24.3195 275.282 25.5994 271.696 25.5994C268.111 25.5994 265.108 24.3195 262.588 21.8235C260.069 19.3276 258.777 16.3516 258.777 12.7997C258.777 9.2798 260.069 6.27186 262.588 3.77592C265.075 1.27997 268.111 0 271.696 0ZM271.693 4.28711C269.335 4.28711 267.3 5.08709 265.588 6.78306C263.909 8.44702 263.102 10.463 263.102 12.7989C263.102 15.1349 263.909 17.1828 265.588 18.8468C267.268 20.5108 269.335 21.3107 271.693 21.3107C274.051 21.3107 276.085 20.5108 277.765 18.8468C279.477 17.1508 280.284 15.1349 280.284 12.7989C280.284 10.463 279.444 8.44702 277.765 6.78306C276.085 5.11909 274.051 4.28711 271.693 4.28711ZM345.382 13.3437C344.381 14.7837 343.122 15.8077 341.604 16.4156L346.9 25.5994H341.959L334.466 12.7677L338.309 12.7997C339.472 12.7997 340.473 12.3837 341.313 11.5517C342.185 10.7198 342.605 9.69579 342.605 8.51181C342.605 7.35984 342.185 6.36786 341.313 5.53588C340.473 4.7039 339.472 4.28791 338.309 4.28791H329.686L329.201 3.80792L326.973 0H338.309C340.667 0 342.702 0.831982 344.381 2.49595C346.061 4.19191 346.9 6.17587 346.9 8.51181C346.9 10.3038 346.416 11.9037 345.382 13.3437ZM405.641 24.5755C404.058 23.9035 402.701 22.9755 401.506 21.8235C400.344 20.6395 399.407 19.2956 398.729 17.7276C398.051 16.1596 397.695 14.5277 397.695 12.7997C397.695 11.0398 398.051 9.3758 398.729 7.80783C399.407 6.27186 400.344 4.92789 401.506 3.77592C402.701 2.59194 404.058 1.69596 405.641 1.02398C407.191 0.351992 408.87 0 410.647 0C412.423 0 414.103 0.319993 415.653 0.991978C417.203 1.66396 418.592 2.59194 419.787 3.77592L416.719 6.75185C415.007 5.08789 412.972 4.28791 410.647 4.28791C409.452 4.28791 408.321 4.5119 407.288 4.92789C406.222 5.37588 405.318 5.98387 404.542 6.78385C403.767 7.55184 403.154 8.44782 402.701 9.47179C402.249 10.5278 402.023 11.6157 402.023 12.7997C402.023 13.9837 402.249 15.0717 402.701 16.1276C403.154 17.1516 403.767 18.0476 404.575 18.8156C405.35 19.6156 406.254 20.2236 407.288 20.6715C408.354 21.0875 409.452 21.3115 410.647 21.3115L415.653 24.6075C414.103 25.2794 412.423 25.5994 410.647 25.5994C408.87 25.5994 407.191 25.2474 405.641 24.5755ZM480.009 0C483.594 0 486.598 1.27997 489.117 3.77592C491.668 6.27186 492.96 9.2798 492.96 12.7997C492.96 16.3516 491.668 19.3596 489.117 21.8235C486.598 24.3195 483.594 25.5994 480.009 25.5994C476.424 25.5994 473.42 24.3195 470.901 21.8235C468.382 19.3276 467.09 16.3516 467.09 12.7997C467.09 9.2798 468.382 6.27186 470.901 3.77592C473.388 1.27997 476.424 0 480.009 0ZM480.009 4.28711C477.651 4.28711 475.617 5.08709 473.905 6.78306C472.225 8.44702 471.418 10.463 471.418 12.7989C471.418 15.1349 472.225 17.1828 473.905 18.8468C475.584 20.5108 477.651 21.3107 480.009 21.3107C482.367 21.3107 484.402 20.5108 486.081 18.8468C487.793 17.1508 488.6 15.1349 488.6 12.7989C488.6 10.463 487.761 8.44702 486.081 6.78306C484.402 5.11909 482.367 4.28711 480.009 4.28711ZM556.249 0H560.544V25.5994L539.066 6.46386V0L556.249 15.3277V0ZM611.625 12.7676H628.84V17.0875H615.921V25.5993H611.625V12.7676ZM611.625 0H628.84V4.28791H615.921L611.625 0Z" transform="translate(414.395 137.598)" fill="url(#paint11_linear)"/>
<path fill-rule="evenodd" clip-rule="evenodd" d="M36.8395 0L73.679 21.2681L36.8395 42.5363L0 21.2681L36.8395 0Z" transform="translate(271.133 103.19)" fill="#EBE6E6"/>
<g filter="url(#filter12_f)">
<path fill-rule="evenodd" clip-rule="evenodd" d="M96.4281 0L179.937 48.1744V144.523L96.4281 192.698L12.9189 144.523V48.1744L96.4281 0Z" transform="translate(210.918 49.4844)" fill="url(#paint12_radial)"/>
</g>
<path fill-rule="evenodd" clip-rule="evenodd" d="M0 21.2681L36.8395 0V42.5363L0 63.8044V21.2681Z" transform="translate(307.969 124.459)" fill="#EBE6E6"/>
<path fill-rule="evenodd" clip-rule="evenodd" d="M36.7026 21.2681L0 0V42.5363L36.7026 63.8044V21.2681Z" transform="translate(271.27 124.459)" fill="#EBE6E6"/>
<path fill-rule="evenodd" clip-rule="evenodd" d="M24.1435 0L45.0525 12.0644V36.1932L24.1435 48.2576L3.23462 36.1932V12.0644L24.1435 0Z" transform="translate(283.328 113.164)" fill="#EBE6E6"/>
<path fill-rule="evenodd" clip-rule="evenodd" d="M21.4058 10.4287V35.9744L0 23.7933L0 0L21.4058 10.4287Z" transform="translate(286.562 124.708)" fill="#EBE6E6"/>
<path fill-rule="evenodd" clip-rule="evenodd" d="M0 10.235V35.6498L20.4127 23.7914V0L0 10.235Z" transform="translate(307.969 124.903)" fill="#EBE6E6"/>
<path fill-rule="evenodd" clip-rule="evenodd" d="M21.3262 0L41.8178 12.0644V36.1932L21.3262 48.2576L0 36.1932V12.0644L21.3262 0Z" transform="translate(286.562 129.084)" fill="#EBE6E6"/>
<path fill-rule="evenodd" clip-rule="evenodd" d="M6.61073 0L12.3358 3.23348V9.70045L6.61073 12.9339L0.88567 9.70045V3.23348L6.61073 0Z" transform="translate(294.141 160.405)" fill="#EBE6E6"/>
<path fill-rule="evenodd" clip-rule="evenodd" d="M2.93235 1.42213V8.05764L0 6.42142V0L2.93235 1.42213Z" transform="translate(295.031 163.638)" fill="#EBE6E6"/>
<path fill-rule="evenodd" clip-rule="evenodd" d="M5.72506 0V6.46697L0 9.70045L0 2.81167L5.72506 0Z" transform="translate(300.75 163.638)" fill="#EBE6E6"/>
<path fill-rule="evenodd" clip-rule="evenodd" d="M5.72506 0L11.4501 3.23348L5.72506 6.02142L0 3.23348L5.72506 0Z" transform="translate(295.031 160.404)" fill="#EBE6E6"/>
<path opacity="0.2" fill-rule="evenodd" clip-rule="evenodd" d="M129.347 74.6933L129.06 115.528L0.256282 189.629L0 0L129.347 74.6933Z" transform="translate(114.402 240.871) scale(1 -1)" fill="#EBE6E6"/>
<path opacity="0.6" fill-rule="evenodd" clip-rule="evenodd" d="M128.807 75.0072L128.521 116.013L0.255213 190.426L0 0L128.807 75.0072Z" transform="matrix(0.502095 0.864812 0.86723 -0.497908 127.242 31.6152)" fill="#EBE6E6"/>
<path fill-rule="evenodd" clip-rule="evenodd" d="M128.805 75.0673L128.807 115.856L0.255242 190.426L0 0L128.805 75.0673Z" transform="matrix(-0.502095 0.864812 -0.86723 -0.497908 475.469 32.0889)" fill="#EBE6E6"/>
<path opacity="0.6" fill-rule="evenodd" clip-rule="evenodd" d="M129.347 74.6933V115.438L0.256282 189.629L0 0L129.347 74.6933Z" transform="translate(489.605 240.397) rotate(-180)" fill="#EBE6E6"/>
<path opacity="0.2" fill-rule="evenodd" clip-rule="evenodd" d="M128.805 75.0673L128.807 115.856L0.255242 190.426L0 0L128.805 75.0673Z" transform="matrix(-0.502095 -0.864812 -0.86723 0.497908 479.27 259.577)" fill="#EBE6E6"/>
<path opacity="0.4" fill-rule="evenodd" clip-rule="evenodd" d="M11.6 21.016C18.0065 21.016 23.2 16.3114 23.2 10.508C23.2 4.70459 18.0065 0 11.6 0C5.1935 0 0 4.70459 0 10.508C0 16.3114 5.1935 21.016 11.6 21.016Z" transform="translate(1087.2 50.7285)" fill="url(#paint13_radial)"/>
<path opacity="0.6" fill-rule="evenodd" clip-rule="evenodd" d="M90.8 164.505C140.947 164.505 181.6 127.679 181.6 82.2523C181.6 36.8256 140.947 0 90.8 0C40.6525 0 0 36.8256 0 82.2523C0 127.679 40.6525 164.505 90.8 164.505Z" transform="translate(1187.2 47.1045)" fill="url(#paint14_radial)"/>
<path fill-rule="evenodd" clip-rule="evenodd" d="M175.972 67.0286C78.7852 67.0286 0 52.0238 0 33.5143C0 15.0049 78.7852 0 175.972 0C273.158 0 351.943 15.0049 351.943 33.5143C351.943 52.0238 273.158 67.0286 175.972 67.0286ZM176.197 63.3053C262.711 63.3053 332.844 49.9483 332.844 33.4715C332.844 16.9947 262.711 3.6377 176.197 3.6377C89.6838 3.6377 19.5508 16.9947 19.5508 33.4715C19.5508 49.9483 89.6838 63.3053 176.197 63.3053Z" transform="translate(1126.4 95.6582)" fill="#EBE6E6"/>
<path fill-rule="evenodd" clip-rule="evenodd" d="M175.972 67.0286C78.7852 67.0286 0 52.0238 0 33.5143C0 15.0049 78.7852 0 175.972 0C273.158 0 351.943 15.0049 351.943 33.5143C351.943 52.0238 273.158 67.0286 175.972 67.0286ZM176.196 65.1668C268.109 65.1668 342.619 50.9762 342.619 33.4711C342.619 15.966 268.109 1.77539 176.196 1.77539C84.2835 1.77539 9.77344 15.966 9.77344 33.4711C9.77344 50.9762 84.2835 65.1668 176.196 65.1668Z" transform="translate(1126.4 95.6582)" fill="#EBE6E6"/>
<g opacity="0.8">
<g filter="url(#filter13_d)">
<path fill-rule="evenodd" clip-rule="evenodd" d="M3.81413 5.1965L1.57224 6.26704L2.0004 3.9996L0.186677 2.3938L2.69318 2.06298L3.81413 0L4.93507 2.06298L7.44158 2.3938L5.62785 3.9996L6.05602 6.26704L3.81413 5.1965Z" transform="translate(928.84 136.099)" fill="url(#paint15_linear)"/>
</g>
<g filter="url(#filter14_d)">
<path fill-rule="evenodd" clip-rule="evenodd" d="M3.81413 5.1965L1.57224 6.26704L2.0004 3.9996L0.186677 2.3938L2.69318 2.06298L3.81413 0L4.93507 2.06298L7.44158 2.3938L5.62785 3.9996L6.05602 6.26704L3.81413 5.1965Z" transform="translate(1005.12 78.3594)" fill="url(#paint16_linear)"/>
</g>
<g opacity="0.4" filter="url(#filter15_d)">
<path fill-rule="evenodd" clip-rule="evenodd" d="M3.81413 5.1965L1.57224 6.26704L2.0004 3.9996L0.186677 2.3938L2.69318 2.06298L3.81413 0L4.93507 2.06298L7.44158 2.3938L5.62785 3.9996L6.05602 6.26704L3.81413 5.1965Z" transform="translate(1144.97 228.479)" fill="url(#paint17_linear)"/>
</g>
<g opacity="0.4" filter="url(#filter16_d)">
<path fill-rule="evenodd" clip-rule="evenodd" d="M3.81413 5.1965L1.57224 6.26704L2.0004 3.9996L0.186677 2.3938L2.69318 2.06298L3.81413 0L4.93507 2.06298L7.44158 2.3938L5.62785 3.9996L6.05602 6.26704L3.81413 5.1965Z" transform="translate(964.836 260.581)" fill="url(#paint18_linear)"/>
</g>
<g opacity="0.4" filter="url(#filter17_d)">
<path fill-rule="evenodd" clip-rule="evenodd" d="M2.54275 3.46433L1.04816 4.17802L1.3336 2.6664L0.124451 1.59586L1.79546 1.37532L2.54275 0L3.29005 1.37532L4.96105 1.59586L3.7519 2.6664L4.03734 4.17802L2.54275 3.46433Z" transform="translate(972.066 164.968)" fill="url(#paint19_linear)"/>
</g>
<g filter="url(#filter18_d)">
<path fill-rule="evenodd" clip-rule="evenodd" d="M3.81413 5.1965L1.57224 6.26704L2.0004 3.9996L0.186677 2.3938L2.69318 2.06298L3.81413 0L4.93507 2.06298L7.44158 2.3938L5.62785 3.9996L6.05602 6.26704L3.81413 5.1965Z" transform="translate(1080.13 246.957)" fill="url(#paint20_linear)"/>
</g>
<g filter="url(#filter19_d)">
<path fill-rule="evenodd" clip-rule="evenodd" d="M3.81413 5.1965L1.57224 6.26704L2.0004 3.9996L0.186677 2.3938L2.69318 2.06298L3.81413 0L4.93507 2.06298L7.44158 2.3938L5.62785 3.9996L6.05602 6.26704L3.81413 5.1965Z" transform="translate(1066.44 136.659)" fill="url(#paint21_linear)"/>
</g>
<g filter="url(#filter20_d)">
<path fill-rule="evenodd" clip-rule="evenodd" d="M3.81413 5.1965L1.57224 6.26704L2.0004 3.9996L0.186677 2.3938L2.69318 2.06298L3.81413 0L4.93507 2.06298L7.44158 2.3938L5.62785 3.9996L6.05602 6.26704L3.81413 5.1965Z" transform="translate(1184.6 121.439)" fill="url(#paint22_linear)"/>
</g>
<g opacity="0.4" filter="url(#filter21_d)">
<path fill-rule="evenodd" clip-rule="evenodd" d="M2.54275 3.46433L1.04816 4.17802L1.3336 2.6664L0.124451 1.59586L1.79546 1.37532L2.54275 0L3.29005 1.37532L4.96105 1.59586L3.7519 2.6664L4.03734 4.17802L2.54275 3.46433Z" transform="translate(891.238 230.144)" fill="url(#paint23_linear)"/>
</g>
</g>
<g opacity="0.8">
<g filter="url(#filter22_d)">
<path fill-rule="evenodd" clip-rule="evenodd" d="M3.16597 5.00238L1.30506 6.03293L1.66046 3.8502L0.154954 2.30437L2.23552 1.98592L3.16597 0L4.09643 1.98592L6.17699 2.30437L4.67148 3.8502L5.02688 6.03293L3.16597 5.00238Z" transform="matrix(0.537467 -0.843285 0.886126 0.463444 559.547 99.8828)" fill="url(#paint24_linear)"/>
</g>
<g filter="url(#filter23_d)">
<path fill-rule="evenodd" clip-rule="evenodd" d="M3.16597 5.00238L1.30506 6.03293L1.66046 3.8502L0.154954 2.30437L2.23552 1.98592L3.16597 0L4.09643 1.98592L6.17699 2.30437L4.67148 3.8502L5.02688 6.03293L3.16597 5.00238Z" transform="matrix(0.537467 -0.843285 0.886126 0.463444 544.324 20.7275)" fill="url(#paint25_linear)"/>
</g>
<g opacity="0.4" filter="url(#filter24_d)">
<path fill-rule="evenodd" clip-rule="evenodd" d="M3.16597 5.00238L1.30506 6.03293L1.66046 3.8502L0.154954 2.30437L2.23552 1.98592L3.16597 0L4.09643 1.98592L6.17699 2.30437L4.67148 3.8502L5.02688 6.03293L3.16597 5.00238Z" transform="matrix(0.537467 -0.843285 0.886126 0.463444 681.793 130.219)" fill="url(#paint26_linear)"/>
</g>
<g opacity="0.4" filter="url(#filter25_d)">
<path fill-rule="evenodd" clip-rule="evenodd" d="M2.11065 3.33492L0.87004 4.02195L1.10698 2.5668L0.103302 1.53625L1.49034 1.32395L2.11065 0L2.73095 1.32395L4.11799 1.53625L3.11432 2.5668L3.35126 4.02195L2.11065 3.33492Z" transform="matrix(0.537467 -0.843285 0.886126 0.463444 603.457 82.5049)" fill="url(#paint27_linear)"/>
</g>
<g filter="url(#filter26_d)">
<path fill-rule="evenodd" clip-rule="evenodd" d="M3.16597 5.00238L1.30506 6.03293L1.66046 3.8502L0.154954 2.30437L2.23552 1.98592L3.16597 0L4.09643 1.98592L6.17699 2.30437L4.67148 3.8502L5.02688 6.03293L3.16597 5.00238Z" transform="matrix(0.537467 -0.843285 0.886126 0.463444 683.293 206.592)" fill="url(#paint28_linear)"/>
</g>
<g filter="url(#filter27_d)">
<path fill-rule="evenodd" clip-rule="evenodd" d="M3.16597 5.00238L1.30506 6.03293L1.66046 3.8502L0.154954 2.30437L2.23552 1.98592L3.16597 0L4.09643 1.98592L6.17699 2.30437L4.67148 3.8502L5.02688 6.03293L3.16597 5.00238Z" transform="matrix(0.537467 -0.843285 0.886126 0.463444 721.605 43.4385)" fill="url(#paint29_linear)"/>
</g>
<g filter="url(#filter28_d)">
<path fill-rule="evenodd" clip-rule="evenodd" d="M3.16597 5.00238L1.30506 6.03293L1.66046 3.8502L0.154954 2.30437L2.23552 1.98592L3.16597 0L4.09643 1.98592L6.17699 2.30437L4.67148 3.8502L5.02688 6.03293L3.16597 5.00238Z" transform="matrix(0.537467 -0.843285 0.886126 0.463444 621.414 3.81641)" fill="url(#paint30_linear)"/>
</g>
<g opacity="0.4" filter="url(#filter29_d)">
<path fill-rule="evenodd" clip-rule="evenodd" d="M3.16597 5.00238L1.30506 6.03293L1.66046 3.8502L0.154954 2.30437L2.23552 1.98592L3.16597 0L4.09643 1.98592L6.17699 2.30437L4.67148 3.8502L5.02688 6.03293L3.16597 5.00238Z" transform="matrix(0.537467 -0.843285 0.886126 0.463444 912.055 12.5186)" fill="url(#paint31_linear)"/>
</g>
<g opacity="0.4" filter="url(#filter30_d)">
<path fill-rule="evenodd" clip-rule="evenodd" d="M2.11065 3.33492L0.87004 4.02195L1.10698 2.5668L0.103302 1.53625L1.49034 1.32395L2.11065 0L2.73095 1.32395L4.11799 1.53625L3.11432 2.5668L3.35126 4.02195L2.11065 3.33492Z" transform="matrix(0.537467 -0.843285 0.886126 0.463444 780.738 105.216)" fill="url(#paint32_linear)"/>
</g>
<g opacity="0.4" filter="url(#filter31_d)">
<path fill-rule="evenodd" clip-rule="evenodd" d="M2.11065 3.33492L0.87004 4.02195L1.10698 2.5668L0.103302 1.53625L1.49034 1.32395L2.11065 0L2.73095 1.32395L4.11799 1.53625L3.11432 2.5668L3.35126 4.02195L2.11065 3.33492Z" transform="matrix(0.537467 -0.843285 0.886126 0.463444 622.996 168.159)" fill="url(#paint33_linear)"/>
</g>
</g>
<g filter="url(#filter32_d)">
<path fill-rule="evenodd" clip-rule="evenodd" d="M2.20108 3.29028L0.907316 3.96811L1.1544 2.53244L0.107728 1.51568L1.5542 1.30622L2.20108 0L2.84796 1.30622L4.29442 1.51568L3.24775 2.53244L3.49484 3.96811L2.20108 3.29028Z" transform="matrix(0.752658 0.658411 -0.729338 0.684154 290.617 190.703)" fill="url(#paint34_linear)"/>
</g>
<g filter="url(#filter33_d)">
<path fill-rule="evenodd" clip-rule="evenodd" d="M2.20108 3.29028L0.907316 3.96811L1.1544 2.53244L0.107728 1.51568L1.5542 1.30622L2.20108 0L2.84796 1.30622L4.29442 1.51568L3.24775 2.53244L3.49484 3.96811L2.20108 3.29028Z" transform="matrix(0.752658 0.658411 -0.729338 0.684154 350.414 194.676)" fill="url(#paint35_linear)"/>
</g>
<g opacity="0.4" filter="url(#filter34_d)">
<path fill-rule="evenodd" clip-rule="evenodd" d="M1.46738 2.19352L0.604878 2.64541L0.769602 1.68829L0.0718189 1.01046L1.03613 0.870815L1.46738 0L1.89864 0.870815L2.86295 1.01046L2.16517 1.68829L2.32989 2.64541L1.46738 2.19352Z" transform="matrix(0.752658 0.658411 -0.729338 0.684154 296.059 219.634)" fill="url(#paint36_linear)"/>
</g>
<g filter="url(#filter35_d)">
<path fill-rule="evenodd" clip-rule="evenodd" d="M2.20108 3.29028L0.907316 3.96811L1.1544 2.53244L0.107728 1.51568L1.5542 1.30622L2.20108 0L2.84796 1.30622L4.29442 1.51568L3.24775 2.53244L3.49484 3.96811L2.20108 3.29028Z" transform="matrix(0.752658 0.658411 -0.729338 0.684154 434.73 231.703)" fill="url(#paint37_linear)"/>
</g>
<g opacity="0.4" filter="url(#filter36_d)">
<path fill-rule="evenodd" clip-rule="evenodd" d="M1.46738 2.19352L0.604878 2.64541L0.769602 1.68829L0.0718189 1.01046L1.03613 0.870815L1.46738 0L1.89864 0.870815L2.86295 1.01046L2.16517 1.68829L2.32989 2.64541L1.46738 2.19352Z" transform="matrix(0.752658 0.658411 -0.729338 0.684154 342.578 239.062)" fill="url(#paint38_linear)"/>
</g>
</g>
<rect width="144" height="1170.37" fill="url(#paint39_linear)"/>
<rect width="144" height="1170.37" transform="translate(1296)" fill="url(#paint40_linear)"/>
<rect width="1152" height="25.5994" transform="translate(144)" fill="url(#paint41_linear)"/>
<rect width="1152" height="25.5994" transform="translate(144 262.395)" fill="url(#paint42_linear)"/>
<rect width="32" height="646.386" transform="translate(1264 287.993)" fill="#111111"/>
<rect width="32" height="646.386" transform="translate(144 287.993)" fill="#111111"/>
<path opacity="0.2" d="M0 0H620.8L418.8 236.795H0V0Z" transform="translate(144 25.5996)" fill="url(#paint43_linear)"/>
</g>
<defs>
<filter id="filter0_d" x="1158.81" y="37.5049" width="12.338" height="11.908" filterUnits="userSpaceOnUse" color-interpolation-filters="sRGB">
<feFlood flood-opacity="0" result="BackgroundImageFix"/>
<feColorMatrix in="SourceAlpha" type="matrix" values="0 0 0 0 0 0 0 0 0 0 0 0 0 0 0 0 0 0 255 0"/>
<feOffset/>
<feGaussianBlur stdDeviation="2"/>
<feColorMatrix type="matrix" values="0 0 0 0 1 0 0 0 0 0 0 0 0 0 0.76002 0 0 0 1 0"/>
<feBlend mode="normal" in2="BackgroundImageFix" result="effect1_dropShadow"/>
<feBlend mode="normal" in="SourceGraphic" in2="effect1_dropShadow" result="shape"/>
</filter>
<filter id="filter1_d" x="1218.61" y="41.4775" width="12.338" height="11.908" filterUnits="userSpaceOnUse" color-interpolation-filters="sRGB">
<feFlood flood-opacity="0" result="BackgroundImageFix"/>
<feColorMatrix in="SourceAlpha" type="matrix" values="0 0 0 0 0 0 0 0 0 0 0 0 0 0 0 0 0 0 255 0"/>
<feOffset/>
<feGaussianBlur stdDeviation="2"/>
<feColorMatrix type="matrix" values="0 0 0 0 1 0 0 0 0 0 0 0 0 0 0.76002 0 0 0 1 0"/>
<feBlend mode="normal" in2="BackgroundImageFix" result="effect1_dropShadow"/>
<feBlend mode="normal" in="SourceGraphic" in2="effect1_dropShadow" result="shape"/>
</filter>
<filter id="filter2_d" x="1210.02" y="159.646" width="12.338" height="11.908" filterUnits="userSpaceOnUse" color-interpolation-filters="sRGB">
<feFlood flood-opacity="0" result="BackgroundImageFix"/>
<feColorMatrix in="SourceAlpha" type="matrix" values="0 0 0 0 0 0 0 0 0 0 0 0 0 0 0 0 0 0 255 0"/>
<feOffset/>
<feGaussianBlur stdDeviation="2"/>
<feColorMatrix type="matrix" values="0 0 0 0 1 0 0 0 0 0 0 0 0 0 0.76002 0 0 0 1 0"/>
<feBlend mode="normal" in2="BackgroundImageFix" result="effect1_dropShadow"/>
<feBlend mode="normal" in="SourceGraphic" in2="effect1_dropShadow" result="shape"/>
</filter>
<filter id="filter3_d" x="1164.99" y="66.0664" width="10.892" height="10.6053" filterUnits="userSpaceOnUse" color-interpolation-filters="sRGB">
<feFlood flood-opacity="0" result="BackgroundImageFix"/>
<feColorMatrix in="SourceAlpha" type="matrix" values="0 0 0 0 0 0 0 0 0 0 0 0 0 0 0 0 0 0 255 0"/>
<feOffset/>
<feGaussianBlur stdDeviation="2"/>
<feColorMatrix type="matrix" values="0 0 0 0 1 0 0 0 0 0 0 0 0 0 0.76002 0 0 0 1 0"/>
<feBlend mode="normal" in2="BackgroundImageFix" result="effect1_dropShadow"/>
<feBlend mode="normal" in="SourceGraphic" in2="effect1_dropShadow" result="shape"/>
</filter>
<filter id="filter4_d" x="1113.53" y="139.041" width="12.338" height="11.908" filterUnits="userSpaceOnUse" color-interpolation-filters="sRGB">
<feFlood flood-opacity="0" result="BackgroundImageFix"/>
<feColorMatrix in="SourceAlpha" type="matrix" values="0 0 0 0 0 0 0 0 0 0 0 0 0 0 0 0 0 0 255 0"/>
<feOffset/>
<feGaussianBlur stdDeviation="2"/>
<feColorMatrix type="matrix" values="0 0 0 0 1 0 0 0 0 0 0 0 0 0 0.76002 0 0 0 1 0"/>
<feBlend mode="normal" in2="BackgroundImageFix" result="effect1_dropShadow"/>
<feBlend mode="normal" in="SourceGraphic" in2="effect1_dropShadow" result="shape"/>
</filter>
<filter id="filter5_d" x="1173.33" y="143.014" width="12.338" height="11.908" filterUnits="userSpaceOnUse" color-interpolation-filters="sRGB">
<feFlood flood-opacity="0" result="BackgroundImageFix"/>
<feColorMatrix in="SourceAlpha" type="matrix" values="0 0 0 0 0 0 0 0 0 0 0 0 0 0 0 0 0 0 255 0"/>
<feOffset/>
<feGaussianBlur stdDeviation="2"/>
<feColorMatrix type="matrix" values="0 0 0 0 1 0 0 0 0 0 0 0 0 0 0.76002 0 0 0 1 0"/>
<feBlend mode="normal" in2="BackgroundImageFix" result="effect1_dropShadow"/>
<feBlend mode="normal" in="SourceGraphic" in2="effect1_dropShadow" result="shape"/>
</filter>
<filter id="filter6_d" x="1164.75" y="261.182" width="12.338" height="11.908" filterUnits="userSpaceOnUse" color-interpolation-filters="sRGB">
<feFlood flood-opacity="0" result="BackgroundImageFix"/>
<feColorMatrix in="SourceAlpha" type="matrix" values="0 0 0 0 0 0 0 0 0 0 0 0 0 0 0 0 0 0 255 0"/>
<feOffset/>
<feGaussianBlur stdDeviation="2"/>
<feColorMatrix type="matrix" values="0 0 0 0 1 0 0 0 0 0 0 0 0 0 0.76002 0 0 0 1 0"/>
<feBlend mode="normal" in2="BackgroundImageFix" result="effect1_dropShadow"/>
<feBlend mode="normal" in="SourceGraphic" in2="effect1_dropShadow" result="shape"/>
</filter>
<filter id="filter7_d" x="1119.71" y="167.602" width="10.892" height="10.6053" filterUnits="userSpaceOnUse" color-interpolation-filters="sRGB">
<feFlood flood-opacity="0" result="BackgroundImageFix"/>
<feColorMatrix in="SourceAlpha" type="matrix" values="0 0 0 0 0 0 0 0 0 0 0 0 0 0 0 0 0 0 255 0"/>
<feOffset/>
<feGaussianBlur stdDeviation="2"/>
<feColorMatrix type="matrix" values="0 0 0 0 1 0 0 0 0 0 0 0 0 0 0.76002 0 0 0 1 0"/>
<feBlend mode="normal" in2="BackgroundImageFix" result="effect1_dropShadow"/>
<feBlend mode="normal" in="SourceGraphic" in2="effect1_dropShadow" result="shape"/>
</filter>
<filter id="filter8_d" x="1211.51" y="85.4941" width="10.892" height="10.6053" filterUnits="userSpaceOnUse" color-interpolation-filters="sRGB">
<feFlood flood-opacity="0" result="BackgroundImageFix"/>
<feColorMatrix in="SourceAlpha" type="matrix" values="0 0 0 0 0 0 0 0 0 0 0 0 0 0 0 0 0 0 255 0"/>
<feOffset/>
<feGaussianBlur stdDeviation="2"/>
<feColorMatrix type="matrix" values="0 0 0 0 1 0 0 0 0 0 0 0 0 0 0.76002 0 0 0 1 0"/>
<feBlend mode="normal" in2="BackgroundImageFix" result="effect1_dropShadow"/>
<feBlend mode="normal" in="SourceGraphic" in2="effect1_dropShadow" result="shape"/>
</filter>
<filter id="filter9_f" x="-137.977" y="-226.14" width="1721.37" height="773.511" filterUnits="userSpaceOnUse" color-interpolation-filters="sRGB">
<feFlood flood-opacity="0" result="BackgroundImageFix"/>
<feBlend mode="normal" in="SourceGraphic" in2="BackgroundImageFix" result="shape"/>
<feGaussianBlur stdDeviation="100" result="effect1_foregroundBlur"/>
</filter>
<filter id="filter10_f" x="987.359" y="126.272" width="142.217" height="142.907" filterUnits="userSpaceOnUse" color-interpolation-filters="sRGB">
<feFlood flood-opacity="0" result="BackgroundImageFix"/>
<feBlend mode="normal" in="SourceGraphic" in2="BackgroundImageFix" result="shape"/>
<feGaussianBlur stdDeviation="20" result="effect1_foregroundBlur"/>
</filter>
<filter id="filter11_f" x="392.648" y="115.851" width="672.332" height="69.0919" filterUnits="userSpaceOnUse" color-interpolation-filters="sRGB">
<feFlood flood-opacity="0" result="BackgroundImageFix"/>
<feBlend mode="normal" in="SourceGraphic" in2="BackgroundImageFix" result="shape"/>
<feGaussianBlur stdDeviation="10.8731" result="effect1_foregroundBlur"/>
</filter>
<filter id="filter12_f" x="170.804" y="-3.54791" width="273.083" height="298.762" filterUnits="userSpaceOnUse" color-interpolation-filters="sRGB">
<feFlood flood-opacity="0" result="BackgroundImageFix"/>
<feBlend mode="normal" in="SourceGraphic" in2="BackgroundImageFix" result="shape"/>
<feGaussianBlur stdDeviation="26.5161" result="effect1_foregroundBlur"/>
</filter>
<filter id="filter13_d" x="925.027" y="132.099" width="15.2549" height="14.267" filterUnits="userSpaceOnUse" color-interpolation-filters="sRGB">
<feFlood flood-opacity="0" result="BackgroundImageFix"/>
<feColorMatrix in="SourceAlpha" type="matrix" values="0 0 0 0 0 0 0 0 0 0 0 0 0 0 0 0 0 0 255 0"/>
<feOffset/>
<feGaussianBlur stdDeviation="2"/>
<feColorMatrix type="matrix" values="0 0 0 0 1 0 0 0 0 0 0 0 0 0 0.76002 0 0 0 1 0"/>
<feBlend mode="normal" in2="BackgroundImageFix" result="effect1_dropShadow"/>
<feBlend mode="normal" in="SourceGraphic" in2="effect1_dropShadow" result="shape"/>
</filter>
<filter id="filter14_d" x="1001.31" y="74.3594" width="15.2549" height="14.267" filterUnits="userSpaceOnUse" color-interpolation-filters="sRGB">
<feFlood flood-opacity="0" result="BackgroundImageFix"/>
<feColorMatrix in="SourceAlpha" type="matrix" values="0 0 0 0 0 0 0 0 0 0 0 0 0 0 0 0 0 0 255 0"/>
<feOffset/>
<feGaussianBlur stdDeviation="2"/>
<feColorMatrix type="matrix" values="0 0 0 0 1 0 0 0 0 0 0 0 0 0 0.76002 0 0 0 1 0"/>
<feBlend mode="normal" in2="BackgroundImageFix" result="effect1_dropShadow"/>
<feBlend mode="normal" in="SourceGraphic" in2="effect1_dropShadow" result="shape"/>
</filter>
<filter id="filter15_d" x="1141.16" y="224.479" width="15.2549" height="14.267" filterUnits="userSpaceOnUse" color-interpolation-filters="sRGB">
<feFlood flood-opacity="0" result="BackgroundImageFix"/>
<feColorMatrix in="SourceAlpha" type="matrix" values="0 0 0 0 0 0 0 0 0 0 0 0 0 0 0 0 0 0 255 0"/>
<feOffset/>
<feGaussianBlur stdDeviation="2"/>
<feColorMatrix type="matrix" values="0 0 0 0 1 0 0 0 0 0 0 0 0 0 0.76002 0 0 0 1 0"/>
<feBlend mode="normal" in2="BackgroundImageFix" result="effect1_dropShadow"/>
<feBlend mode="normal" in="SourceGraphic" in2="effect1_dropShadow" result="shape"/>
</filter>
<filter id="filter16_d" x="961.023" y="256.581" width="15.2549" height="14.267" filterUnits="userSpaceOnUse" color-interpolation-filters="sRGB">
<feFlood flood-opacity="0" result="BackgroundImageFix"/>
<feColorMatrix in="SourceAlpha" type="matrix" values="0 0 0 0 0 0 0 0 0 0 0 0 0 0 0 0 0 0 255 0"/>
<feOffset/>
<feGaussianBlur stdDeviation="2"/>
<feColorMatrix type="matrix" values="0 0 0 0 1 0 0 0 0 0 0 0 0 0 0.76002 0 0 0 1 0"/>
<feBlend mode="normal" in2="BackgroundImageFix" result="effect1_dropShadow"/>
<feBlend mode="normal" in="SourceGraphic" in2="effect1_dropShadow" result="shape"/>
</filter>
<filter id="filter17_d" x="968.191" y="160.968" width="12.8366" height="12.178" filterUnits="userSpaceOnUse" color-interpolation-filters="sRGB">
<feFlood flood-opacity="0" result="BackgroundImageFix"/>
<feColorMatrix in="SourceAlpha" type="matrix" values="0 0 0 0 0 0 0 0 0 0 0 0 0 0 0 0 0 0 255 0"/>
<feOffset/>
<feGaussianBlur stdDeviation="2"/>
<feColorMatrix type="matrix" values="0 0 0 0 1 0 0 0 0 0 0 0 0 0 0.76002 0 0 0 1 0"/>
<feBlend mode="normal" in2="BackgroundImageFix" result="effect1_dropShadow"/>
<feBlend mode="normal" in="SourceGraphic" in2="effect1_dropShadow" result="shape"/>
</filter>
<filter id="filter18_d" x="1076.32" y="242.957" width="15.2549" height="14.267" filterUnits="userSpaceOnUse" color-interpolation-filters="sRGB">
<feFlood flood-opacity="0" result="BackgroundImageFix"/>
<feColorMatrix in="SourceAlpha" type="matrix" values="0 0 0 0 0 0 0 0 0 0 0 0 0 0 0 0 0 0 255 0"/>
<feOffset/>
<feGaussianBlur stdDeviation="2"/>
<feColorMatrix type="matrix" values="0 0 0 0 1 0 0 0 0 0 0 0 0 0 0.76002 0 0 0 1 0"/>
<feBlend mode="normal" in2="BackgroundImageFix" result="effect1_dropShadow"/>
<feBlend mode="normal" in="SourceGraphic" in2="effect1_dropShadow" result="shape"/>
</filter>
<filter id="filter19_d" x="1062.62" y="132.659" width="15.2549" height="14.267" filterUnits="userSpaceOnUse" color-interpolation-filters="sRGB">
<feFlood flood-opacity="0" result="BackgroundImageFix"/>
<feColorMatrix in="SourceAlpha" type="matrix" values="0 0 0 0 0 0 0 0 0 0 0 0 0 0 0 0 0 0 255 0"/>
<feOffset/>
<feGaussianBlur stdDeviation="2"/>
<feColorMatrix type="matrix" values="0 0 0 0 1 0 0 0 0 0 0 0 0 0 0.76002 0 0 0 1 0"/>
<feBlend mode="normal" in2="BackgroundImageFix" result="effect1_dropShadow"/>
<feBlend mode="normal" in="SourceGraphic" in2="effect1_dropShadow" result="shape"/>
</filter>
<filter id="filter20_d" x="1180.79" y="117.439" width="15.2549" height="14.267" filterUnits="userSpaceOnUse" color-interpolation-filters="sRGB">
<feFlood flood-opacity="0" result="BackgroundImageFix"/>
<feColorMatrix in="SourceAlpha" type="matrix" values="0 0 0 0 0 0 0 0 0 0 0 0 0 0 0 0 0 0 255 0"/>
<feOffset/>
<feGaussianBlur stdDeviation="2"/>
<feColorMatrix type="matrix" values="0 0 0 0 1 0 0 0 0 0 0 0 0 0 0.76002 0 0 0 1 0"/>
<feBlend mode="normal" in2="BackgroundImageFix" result="effect1_dropShadow"/>
<feBlend mode="normal" in="SourceGraphic" in2="effect1_dropShadow" result="shape"/>
</filter>
<filter id="filter21_d" x="887.363" y="226.144" width="12.8366" height="12.178" filterUnits="userSpaceOnUse" color-interpolation-filters="sRGB">
<feFlood flood-opacity="0" result="BackgroundImageFix"/>
<feColorMatrix in="SourceAlpha" type="matrix" values="0 0 0 0 0 0 0 0 0 0 0 0 0 0 0 0 0 0 255 0"/>
<feOffset/>
<feGaussianBlur stdDeviation="2"/>
<feColorMatrix type="matrix" values="0 0 0 0 1 0 0 0 0 0 0 0 0 0 0.76002 0 0 0 1 0"/>
<feBlend mode="normal" in2="BackgroundImageFix" result="effect1_dropShadow"/>
<feBlend mode="normal" in="SourceGraphic" in2="effect1_dropShadow" result="shape"/>
</filter>
<filter id="filter22_d" x="557.25" y="91.7422" width="14.3461" height="13.8364" filterUnits="userSpaceOnUse" color-interpolation-filters="sRGB">
<feFlood flood-opacity="0" result="BackgroundImageFix"/>
<feColorMatrix in="SourceAlpha" type="matrix" values="0 0 0 0 0 0 0 0 0 0 0 0 0 0 0 0 0 0 255 0"/>
<feOffset/>
<feGaussianBlur stdDeviation="2"/>
<feColorMatrix type="matrix" values="0 0 0 0 1 0 0 0 0 0 0 0 0 0 0.76002 0 0 0 1 0"/>
<feBlend mode="normal" in2="BackgroundImageFix" result="effect1_dropShadow"/>
<feBlend mode="normal" in="SourceGraphic" in2="effect1_dropShadow" result="shape"/>
</filter>
<filter id="filter23_d" x="542.027" y="12.5869" width="14.3461" height="13.8364" filterUnits="userSpaceOnUse" color-interpolation-filters="sRGB">
<feFlood flood-opacity="0" result="BackgroundImageFix"/>
<feColorMatrix in="SourceAlpha" type="matrix" values="0 0 0 0 0 0 0 0 0 0 0 0 0 0 0 0 0 0 255 0"/>
<feOffset/>
<feGaussianBlur stdDeviation="2"/>
<feColorMatrix type="matrix" values="0 0 0 0 1 0 0 0 0 0 0 0 0 0 0.76002 0 0 0 1 0"/>
<feBlend mode="normal" in2="BackgroundImageFix" result="effect1_dropShadow"/>
<feBlend mode="normal" in="SourceGraphic" in2="effect1_dropShadow" result="shape"/>
</filter>
<filter id="filter24_d" x="679.496" y="122.078" width="14.3461" height="13.8364" filterUnits="userSpaceOnUse" color-interpolation-filters="sRGB">
<feFlood flood-opacity="0" result="BackgroundImageFix"/>
<feColorMatrix in="SourceAlpha" type="matrix" values="0 0 0 0 0 0 0 0 0 0 0 0 0 0 0 0 0 0 255 0"/>
<feOffset/>
<feGaussianBlur stdDeviation="2"/>
<feColorMatrix type="matrix" values="0 0 0 0 1 0 0 0 0 0 0 0 0 0 0.76002 0 0 0 1 0"/>
<feBlend mode="normal" in2="BackgroundImageFix" result="effect1_dropShadow"/>
<feBlend mode="normal" in="SourceGraphic" in2="effect1_dropShadow" result="shape"/>
</filter>
<filter id="filter25_d" x="600.59" y="75.7441" width="12.2307" height="11.8909" filterUnits="userSpaceOnUse" color-interpolation-filters="sRGB">
<feFlood flood-opacity="0" result="BackgroundImageFix"/>
<feColorMatrix in="SourceAlpha" type="matrix" values="0 0 0 0 0 0 0 0 0 0 0 0 0 0 0 0 0 0 255 0"/>
<feOffset/>
<feGaussianBlur stdDeviation="2"/>
<feColorMatrix type="matrix" values="0 0 0 0 1 0 0 0 0 0 0 0 0 0 0.76002 0 0 0 1 0"/>
<feBlend mode="normal" in2="BackgroundImageFix" result="effect1_dropShadow"/>
<feBlend mode="normal" in="SourceGraphic" in2="effect1_dropShadow" result="shape"/>
</filter>
<filter id="filter26_d" x="680.996" y="198.451" width="14.3461" height="13.8364" filterUnits="userSpaceOnUse" color-interpolation-filters="sRGB">
<feFlood flood-opacity="0" result="BackgroundImageFix"/>
<feColorMatrix in="SourceAlpha" type="matrix" values="0 0 0 0 0 0 0 0 0 0 0 0 0 0 0 0 0 0 255 0"/>
<feOffset/>
<feGaussianBlur stdDeviation="2"/>
<feColorMatrix type="matrix" values="0 0 0 0 1 0 0 0 0 0 0 0 0 0 0.76002 0 0 0 1 0"/>
<feBlend mode="normal" in2="BackgroundImageFix" result="effect1_dropShadow"/>
<feBlend mode="normal" in="SourceGraphic" in2="effect1_dropShadow" result="shape"/>
</filter>
<filter id="filter27_d" x="719.309" y="35.2979" width="14.3461" height="13.8364" filterUnits="userSpaceOnUse" color-interpolation-filters="sRGB">
<feFlood flood-opacity="0" result="BackgroundImageFix"/>
<feColorMatrix in="SourceAlpha" type="matrix" values="0 0 0 0 0 0 0 0 0 0 0 0 0 0 0 0 0 0 255 0"/>
<feOffset/>
<feGaussianBlur stdDeviation="2"/>
<feColorMatrix type="matrix" values="0 0 0 0 1 0 0 0 0 0 0 0 0 0 0.76002 0 0 0 1 0"/>
<feBlend mode="normal" in2="BackgroundImageFix" result="effect1_dropShadow"/>
<feBlend mode="normal" in="SourceGraphic" in2="effect1_dropShadow" result="shape"/>
</filter>
<filter id="filter28_d" x="619.117" y="-4.32422" width="14.3461" height="13.8364" filterUnits="userSpaceOnUse" color-interpolation-filters="sRGB">
<feFlood flood-opacity="0" result="BackgroundImageFix"/>
<feColorMatrix in="SourceAlpha" type="matrix" values="0 0 0 0 0 0 0 0 0 0 0 0 0 0 0 0 0 0 255 0"/>
<feOffset/>
<feGaussianBlur stdDeviation="2"/>
<feColorMatrix type="matrix" values="0 0 0 0 1 0 0 0 0 0 0 0 0 0 0.76002 0 0 0 1 0"/>
<feBlend mode="normal" in2="BackgroundImageFix" result="effect1_dropShadow"/>
<feBlend mode="normal" in="SourceGraphic" in2="effect1_dropShadow" result="shape"/>
</filter>
<filter id="filter29_d" x="909.758" y="4.37793" width="14.3461" height="13.8364" filterUnits="userSpaceOnUse" color-interpolation-filters="sRGB">
<feFlood flood-opacity="0" result="BackgroundImageFix"/>
<feColorMatrix in="SourceAlpha" type="matrix" values="0 0 0 0 0 0 0 0 0 0 0 0 0 0 0 0 0 0 255 0"/>
<feOffset/>
<feGaussianBlur stdDeviation="2"/>
<feColorMatrix type="matrix" values="0 0 0 0 1 0 0 0 0 0 0 0 0 0 0.76002 0 0 0 1 0"/>
<feBlend mode="normal" in2="BackgroundImageFix" result="effect1_dropShadow"/>
<feBlend mode="normal" in="SourceGraphic" in2="effect1_dropShadow" result="shape"/>
</filter>
<filter id="filter30_d" x="777.871" y="98.4551" width="12.2307" height="11.8909" filterUnits="userSpaceOnUse" color-interpolation-filters="sRGB">
<feFlood flood-opacity="0" result="BackgroundImageFix"/>
<feColorMatrix in="SourceAlpha" type="matrix" values="0 0 0 0 0 0 0 0 0 0 0 0 0 0 0 0 0 0 255 0"/>
<feOffset/>
<feGaussianBlur stdDeviation="2"/>
<feColorMatrix type="matrix" values="0 0 0 0 1 0 0 0 0 0 0 0 0 0 0.76002 0 0 0 1 0"/>
<feBlend mode="normal" in2="BackgroundImageFix" result="effect1_dropShadow"/>
<feBlend mode="normal" in="SourceGraphic" in2="effect1_dropShadow" result="shape"/>
</filter>
<filter id="filter31_d" x="620.129" y="161.398" width="12.2307" height="11.8909" filterUnits="userSpaceOnUse" color-interpolation-filters="sRGB">
<feFlood flood-opacity="0" result="BackgroundImageFix"/>
<feColorMatrix in="SourceAlpha" type="matrix" values="0 0 0 0 0 0 0 0 0 0 0 0 0 0 0 0 0 0 255 0"/>
<feOffset/>
<feGaussianBlur stdDeviation="2"/>
<feColorMatrix type="matrix" values="0 0 0 0 1 0 0 0 0 0 0 0 0 0 0.76002 0 0 0 1 0"/>
<feBlend mode="normal" in2="BackgroundImageFix" result="effect1_dropShadow"/>
<feBlend mode="normal" in="SourceGraphic" in2="effect1_dropShadow" result="shape"/>
</filter>
<filter id="filter32_d" x="284.406" y="187.811" width="12.338" height="11.908" filterUnits="userSpaceOnUse" color-interpolation-filters="sRGB">
<feFlood flood-opacity="0" result="BackgroundImageFix"/>
<feColorMatrix in="SourceAlpha" type="matrix" values="0 0 0 0 0 0 0 0 0 0 0 0 0 0 0 0 0 0 255 0"/>
<feOffset/>
<feGaussianBlur stdDeviation="2"/>
<feColorMatrix type="matrix" values="0 0 0 0 1 0 0 0 0 0 0 0 0 0 0.76002 0 0 0 1 0"/>
<feBlend mode="normal" in2="BackgroundImageFix" result="effect1_dropShadow"/>
<feBlend mode="normal" in="SourceGraphic" in2="effect1_dropShadow" result="shape"/>
</filter>
<filter id="filter33_d" x="344.203" y="191.783" width="12.338" height="11.908" filterUnits="userSpaceOnUse" color-interpolation-filters="sRGB">
<feFlood flood-opacity="0" result="BackgroundImageFix"/>
<feColorMatrix in="SourceAlpha" type="matrix" values="0 0 0 0 0 0 0 0 0 0 0 0 0 0 0 0 0 0 255 0"/>
<feOffset/>
<feGaussianBlur stdDeviation="2"/>
<feColorMatrix type="matrix" values="0 0 0 0 1 0 0 0 0 0 0 0 0 0 0.76002 0 0 0 1 0"/>
<feBlend mode="normal" in2="BackgroundImageFix" result="effect1_dropShadow"/>
<feBlend mode="normal" in="SourceGraphic" in2="effect1_dropShadow" result="shape"/>
</filter>
<filter id="filter34_d" x="290.586" y="216.372" width="10.892" height="10.6053" filterUnits="userSpaceOnUse" color-interpolation-filters="sRGB">
<feFlood flood-opacity="0" result="BackgroundImageFix"/>
<feColorMatrix in="SourceAlpha" type="matrix" values="0 0 0 0 0 0 0 0 0 0 0 0 0 0 0 0 0 0 255 0"/>
<feOffset/>
<feGaussianBlur stdDeviation="2"/>
<feColorMatrix type="matrix" values="0 0 0 0 1 0 0 0 0 0 0 0 0 0 0.76002 0 0 0 1 0"/>
<feBlend mode="normal" in2="BackgroundImageFix" result="effect1_dropShadow"/>
<feBlend mode="normal" in="SourceGraphic" in2="effect1_dropShadow" result="shape"/>
</filter>
<filter id="filter35_d" x="428.52" y="228.811" width="12.338" height="11.908" filterUnits="userSpaceOnUse" color-interpolation-filters="sRGB">
<feFlood flood-opacity="0" result="BackgroundImageFix"/>
<feColorMatrix in="SourceAlpha" type="matrix" values="0 0 0 0 0 0 0 0 0 0 0 0 0 0 0 0 0 0 255 0"/>
<feOffset/>
<feGaussianBlur stdDeviation="2"/>
<feColorMatrix type="matrix" values="0 0 0 0 1 0 0 0 0 0 0 0 0 0 0.76002 0 0 0 1 0"/>
<feBlend mode="normal" in2="BackgroundImageFix" result="effect1_dropShadow"/>
<feBlend mode="normal" in="SourceGraphic" in2="effect1_dropShadow" result="shape"/>
</filter>
<filter id="filter36_d" x="337.105" y="235.8" width="10.892" height="10.6053" filterUnits="userSpaceOnUse" color-interpolation-filters="sRGB">
<feFlood flood-opacity="0" result="BackgroundImageFix"/>
<feColorMatrix in="SourceAlpha" type="matrix" values="0 0 0 0 0 0 0 0 0 0 0 0 0 0 0 0 0 0 255 0"/>
<feOffset/>
<feGaussianBlur stdDeviation="2"/>
<feColorMatrix type="matrix" values="0 0 0 0 1 0 0 0 0 0 0 0 0 0 0.76002 0 0 0 1 0"/>
<feBlend mode="normal" in2="BackgroundImageFix" result="effect1_dropShadow"/>
<feBlend mode="normal" in="SourceGraphic" in2="effect1_dropShadow" result="shape"/>
</filter>
<linearGradient id="paint0_linear" x2="1" gradientUnits="userSpaceOnUse" gradientTransform="translate(1152) scale(1152 287.994) rotate(90)">
<stop stop-color="#FF2995"/>
<stop offset="1" stop-color="#66008A"/>
</linearGradient>
<linearGradient id="paint1_linear" x2="1" gradientUnits="userSpaceOnUse" gradientTransform="translate(1152) scale(1152 287.994) rotate(90)">
<stop stop-color="#FF2995"/>
<stop offset="1" stop-color="#66008A"/>
</linearGradient>
<linearGradient id="paint2_linear" x2="1" gradientUnits="userSpaceOnUse" gradientTransform="translate(2.09335) scale(4.1867 3.96811) rotate(90)">
<stop stop-color="white"/>
<stop offset="0.986169" stop-color="#EA9CFF" stop-opacity="0.01"/>
</linearGradient>
<linearGradient id="paint3_linear" x2="1" gradientUnits="userSpaceOnUse" gradientTransform="translate(2.09335) scale(4.1867 3.96811) rotate(90)">
<stop stop-color="white"/>
<stop offset="0.986169" stop-color="#EA9CFF" stop-opacity="0.01"/>
</linearGradient>
<linearGradient id="paint4_linear" x2="1" gradientUnits="userSpaceOnUse" gradientTransform="translate(2.09335) scale(4.1867 3.96811) rotate(90)">
<stop stop-color="white"/>
<stop offset="0.986169" stop-color="#EA9CFF" stop-opacity="0.01"/>
</linearGradient>
<linearGradient id="paint5_linear" x2="1" gradientUnits="userSpaceOnUse" gradientTransform="translate(1.39557) scale(2.79113 2.64541) rotate(90)">
<stop stop-color="white"/>
<stop offset="0.986169" stop-color="#EA9CFF" stop-opacity="0.01"/>
</linearGradient>
<linearGradient id="paint6_linear" x2="1" gradientUnits="userSpaceOnUse" gradientTransform="translate(2.09335) scale(4.1867 3.96811) rotate(90)">
<stop stop-color="white"/>
<stop offset="0.986169" stop-color="#EA9CFF" stop-opacity="0.01"/>
</linearGradient>
<linearGradient id="paint7_linear" x2="1" gradientUnits="userSpaceOnUse" gradientTransform="translate(2.09335) scale(4.1867 3.96811) rotate(90)">
<stop stop-color="white"/>
<stop offset="0.986169" stop-color="#EA9CFF" stop-opacity="0.01"/>
</linearGradient>
<linearGradient id="paint8_linear" x2="1" gradientUnits="userSpaceOnUse" gradientTransform="translate(2.09335) scale(4.1867 3.96811) rotate(90)">
<stop stop-color="white"/>
<stop offset="0.986169" stop-color="#EA9CFF" stop-opacity="0.01"/>
</linearGradient>
<linearGradient id="paint9_linear" x2="1" gradientUnits="userSpaceOnUse" gradientTransform="translate(1.39557) scale(2.79113 2.64541) rotate(90)">
<stop stop-color="white"/>
<stop offset="0.986169" stop-color="#EA9CFF" stop-opacity="0.01"/>
</linearGradient>
<linearGradient id="paint10_linear" x2="1" gradientUnits="userSpaceOnUse" gradientTransform="translate(1.39557) scale(2.79113 2.64541) rotate(90)">
<stop stop-color="white"/>
<stop offset="0.986169" stop-color="#EA9CFF" stop-opacity="0.01"/>
</linearGradient>
<linearGradient id="paint11_linear" x2="1" gradientUnits="userSpaceOnUse" gradientTransform="translate(314.42) scale(618.454 25.1766) rotate(90)">
<stop stop-color="white"/>
<stop offset="1" stop-color="white" stop-opacity="0.1"/>
</linearGradient>
<radialGradient id="paint12_radial" cx="0.5" cy="0.5" r="0.5" gradientUnits="userSpaceOnUse" gradientTransform="translate(15.1088 -17.4318) scale(169.73 195.826) rotate(10.2552)">
<stop stop-color="#F54190" stop-opacity="0.781335"/>
<stop offset="0.228595" stop-color="#FFB8B8" stop-opacity="0.725827"/>
<stop offset="0.555817" stop-color="#FFC75E" stop-opacity="0.289232"/>
<stop offset="1" stop-color="#FF8876" stop-opacity="0.01"/>
</radialGradient>
<radialGradient id="paint13_radial" cx="0.5" cy="0.5" r="0.5" gradientUnits="userSpaceOnUse" gradientTransform="matrix(16.29 19.5553 -31.1619 21.3012 13.0102 -18.4497)">
<stop stop-color="white"/>
<stop offset="1" stop-color="#FF7CC4"/>
</radialGradient>
<radialGradient id="paint14_radial" cx="0.5" cy="0.5" r="0.5" gradientUnits="userSpaceOnUse" gradientTransform="matrix(139.933 187.882 -299.394 182.98 123.364 -169.944)">
<stop stop-color="#91FFB0"/>
<stop offset="1" stop-color="#00A49A" stop-opacity="0.04"/>
</radialGradient>
<linearGradient id="paint15_linear" x2="1" gradientUnits="userSpaceOnUse" gradientTransform="translate(3.62745) scale(7.2549 6.26704) rotate(90)">
<stop stop-color="white"/>
<stop offset="0.986169" stop-color="#EA9CFF" stop-opacity="0.01"/>
</linearGradient>
<linearGradient id="paint16_linear" x2="1" gradientUnits="userSpaceOnUse" gradientTransform="translate(3.62745) scale(7.2549 6.26704) rotate(90)">
<stop stop-color="white"/>
<stop offset="0.986169" stop-color="#EA9CFF" stop-opacity="0.01"/>
</linearGradient>
<linearGradient id="paint17_linear" x2="1" gradientUnits="userSpaceOnUse" gradientTransform="translate(3.62745) scale(7.2549 6.26704) rotate(90)">
<stop stop-color="white"/>
<stop offset="0.986169" stop-color="#EA9CFF" stop-opacity="0.01"/>
</linearGradient>
<linearGradient id="paint18_linear" x2="1" gradientUnits="userSpaceOnUse" gradientTransform="translate(3.62745) scale(7.2549 6.26704) rotate(90)">
<stop stop-color="white"/>
<stop offset="0.986169" stop-color="#EA9CFF" stop-opacity="0.01"/>
</linearGradient>
<linearGradient id="paint19_linear" x2="1" gradientUnits="userSpaceOnUse" gradientTransform="translate(2.4183) scale(4.8366 4.17802) rotate(90)">
<stop stop-color="white"/>
<stop offset="0.986169" stop-color="#EA9CFF" stop-opacity="0.01"/>
</linearGradient>
<linearGradient id="paint20_linear" x2="1" gradientUnits="userSpaceOnUse" gradientTransform="translate(3.62745) scale(7.2549 6.26704) rotate(90)">
<stop stop-color="white"/>
<stop offset="0.986169" stop-color="#EA9CFF" stop-opacity="0.01"/>
</linearGradient>
<linearGradient id="paint21_linear" x2="1" gradientUnits="userSpaceOnUse" gradientTransform="translate(3.62745) scale(7.2549 6.26704) rotate(90)">
<stop stop-color="white"/>
<stop offset="0.986169" stop-color="#EA9CFF" stop-opacity="0.01"/>
</linearGradient>
<linearGradient id="paint22_linear" x2="1" gradientUnits="userSpaceOnUse" gradientTransform="translate(3.62745) scale(7.2549 6.26704) rotate(90)">
<stop stop-color="white"/>
<stop offset="0.986169" stop-color="#EA9CFF" stop-opacity="0.01"/>
</linearGradient>
<linearGradient id="paint23_linear" x2="1" gradientUnits="userSpaceOnUse" gradientTransform="translate(2.4183) scale(4.8366 4.17802) rotate(90)">
<stop stop-color="white"/>
<stop offset="0.986169" stop-color="#EA9CFF" stop-opacity="0.01"/>
</linearGradient>
<linearGradient id="paint24_linear" x2="1" gradientUnits="userSpaceOnUse" gradientTransform="translate(3.01102) scale(6.02204 6.03293) rotate(90)">
<stop stop-color="white"/>
<stop offset="0.986169" stop-color="#EA9CFF" stop-opacity="0.01"/>
</linearGradient>
<linearGradient id="paint25_linear" x2="1" gradientUnits="userSpaceOnUse" gradientTransform="translate(3.01102) scale(6.02204 6.03293) rotate(90)">
<stop stop-color="white"/>
<stop offset="0.986169" stop-color="#EA9CFF" stop-opacity="0.01"/>
</linearGradient>
<linearGradient id="paint26_linear" x2="1" gradientUnits="userSpaceOnUse" gradientTransform="translate(3.01102) scale(6.02204 6.03293) rotate(90)">
<stop stop-color="white"/>
<stop offset="0.986169" stop-color="#EA9CFF" stop-opacity="0.01"/>
</linearGradient>
<linearGradient id="paint27_linear" x2="1" gradientUnits="userSpaceOnUse" gradientTransform="translate(2.00735) scale(4.01469 4.02195) rotate(90)">
<stop stop-color="white"/>
<stop offset="0.986169" stop-color="#EA9CFF" stop-opacity="0.01"/>
</linearGradient>
<linearGradient id="paint28_linear" x2="1" gradientUnits="userSpaceOnUse" gradientTransform="translate(3.01102) scale(6.02204 6.03293) rotate(90)">
<stop stop-color="white"/>
<stop offset="0.986169" stop-color="#EA9CFF" stop-opacity="0.01"/>
</linearGradient>
<linearGradient id="paint29_linear" x2="1" gradientUnits="userSpaceOnUse" gradientTransform="translate(3.01102) scale(6.02204 6.03293) rotate(90)">
<stop stop-color="white"/>
<stop offset="0.986169" stop-color="#EA9CFF" stop-opacity="0.01"/>
</linearGradient>
<linearGradient id="paint30_linear" x2="1" gradientUnits="userSpaceOnUse" gradientTransform="translate(3.01102) scale(6.02204 6.03293) rotate(90)">
<stop stop-color="white"/>
<stop offset="0.986169" stop-color="#EA9CFF" stop-opacity="0.01"/>
</linearGradient>
<linearGradient id="paint31_linear" x2="1" gradientUnits="userSpaceOnUse" gradientTransform="translate(3.01102) scale(6.02204 6.03293) rotate(90)">
<stop stop-color="white"/>
<stop offset="0.986169" stop-color="#EA9CFF" stop-opacity="0.01"/>
</linearGradient>
<linearGradient id="paint32_linear" x2="1" gradientUnits="userSpaceOnUse" gradientTransform="translate(2.00735) scale(4.01469 4.02195) rotate(90)">
<stop stop-color="white"/>
<stop offset="0.986169" stop-color="#EA9CFF" stop-opacity="0.01"/>
</linearGradient>
<linearGradient id="paint33_linear" x2="1" gradientUnits="userSpaceOnUse" gradientTransform="translate(2.00735) scale(4.01469 4.02195) rotate(90)">
<stop stop-color="white"/>
<stop offset="0.986169" stop-color="#EA9CFF" stop-opacity="0.01"/>
</linearGradient>
<linearGradient id="paint34_linear" x2="1" gradientUnits="userSpaceOnUse" gradientTransform="translate(2.09335) scale(4.1867 3.96811) rotate(90)">
<stop stop-color="white"/>
<stop offset="0.986169" stop-color="#EA9CFF" stop-opacity="0.01"/>
</linearGradient>
<linearGradient id="paint35_linear" x2="1" gradientUnits="userSpaceOnUse" gradientTransform="translate(2.09335) scale(4.1867 3.96811) rotate(90)">
<stop stop-color="white"/>
<stop offset="0.986169" stop-color="#EA9CFF" stop-opacity="0.01"/>
</linearGradient>
<linearGradient id="paint36_linear" x2="1" gradientUnits="userSpaceOnUse" gradientTransform="translate(1.39557) scale(2.79113 2.64541) rotate(90)">
<stop stop-color="white"/>
<stop offset="0.986169" stop-color="#EA9CFF" stop-opacity="0.01"/>
</linearGradient>
<linearGradient id="paint37_linear" x2="1" gradientUnits="userSpaceOnUse" gradientTransform="translate(2.09335) scale(4.1867 3.96811) rotate(90)">
<stop stop-color="white"/>
<stop offset="0.986169" stop-color="#EA9CFF" stop-opacity="0.01"/>
</linearGradient>
<linearGradient id="paint38_linear" x2="1" gradientUnits="userSpaceOnUse" gradientTransform="translate(1.39557) scale(2.79113 2.64541) rotate(90)">
<stop stop-color="white"/>
<stop offset="0.986169" stop-color="#EA9CFF" stop-opacity="0.01"/>
</linearGradient>
<linearGradient id="paint39_linear" x2="1" gradientUnits="userSpaceOnUse" gradientTransform="translate(144) scale(144 1170.37) rotate(90)">
<stop stop-color="#0D0D0D"/>
<stop offset="0.231119" stop-color="#363636"/>
<stop offset="0.274273" stop-color="#4B4B4B"/>
<stop offset="1" stop-color="#343434"/>
</linearGradient>
<linearGradient id="paint40_linear" x2="1" gradientUnits="userSpaceOnUse" gradientTransform="translate(144) scale(144 1170.37) rotate(90)">
<stop stop-color="#0D0D0D"/>
<stop offset="0.231119" stop-color="#363636"/>
<stop offset="0.274273" stop-color="#4B4B4B"/>
<stop offset="1" stop-color="#343434"/>
</linearGradient>
<linearGradient id="paint41_linear" x2="1" gradientUnits="userSpaceOnUse" gradientTransform="translate(1152) scale(1152 25.5994) rotate(90)">
<stop stop-color="#1C1C1C"/>
<stop offset="1" stop-color="#0F0F0F"/>
</linearGradient>
<linearGradient id="paint42_linear" x2="1" gradientUnits="userSpaceOnUse" gradientTransform="translate(1152) scale(1152 25.5994) rotate(90)">
<stop stop-color="#1C1C1C"/>
<stop offset="1" stop-color="#0F0F0F"/>
</linearGradient>
<linearGradient id="paint43_linear" x2="1" gradientUnits="userSpaceOnUse" gradientTransform="translate(620.8) scale(620.8 236.795) rotate(90)">
<stop stop-color="white"/>
<stop offset="1" stop-color="white" stop-opacity="0"/>
</linearGradient>
<clipPath id="clip0">
<rect width="1440" height="900" fill="white"/>
</clipPath>
</defs>
</svg>
