<svg width="61" height="16" viewBox="0 0 61 16" fill="none" xmlns="http://www.w3.org/2000/svg">
<path d="M13.78 14.18C13.56 13.46 12.78 12.9 12.04 13.26C11.46 13.52 10.9 13.44 10.16 13.38C9.96 13.36 9.7 13.28 9.38 13.28C8.9 13.28 8.32 13.42 7.92 13.84C7.62 14.1 7.58 14.52 7.64 14.74C7.72 15.08 7.98 15.46 8.4 15.64C9.04 15.94 9.72 15.84 10.24 15.84C11.56 15.86 11.36 16.2 11.38 16.94C11.4 17.16 11.34 17.3 11.18 17.48C10.54 18.02 9.82 18.24 9.02 18.12C8.06 17.96 7.2 17.7 6.48 17.08C6.18 16.8 5.94 16.58 5.72 16.3H5.74C4.7 14.72 4.74 13.1 5.36 11.34C5.54 10.88 5.76 10.48 6 10.02C6.44 9.16 7.1 8.58 7.98 8.08C8.26 7.9 8.6 7.86 9.08 7.8H9.2C9.86 8.06 10.46 8.34 11 8.74H11.02C11.42 9.02 12.38 9.72 13.16 9C14.5 7.66 11.86 6.26 11.22 5.98C10.88 5.82 10.52 5.6 10.1 5.42C9.9 5.32 9.58 5.24 9.34 5.24C8.4 5.24 7.36 5.34 6.42 5.9H6.4C5.54 6.46 4.78 7.1 4.1 7.9L4.12 7.88C3.48 8.58 2.98 9.36 2.68 10.26C2.5 10.78 2.32 11.32 2.16 11.86V11.84C2.08 12.12 2.02 12.44 2 12.68C1.96 13.06 2.24 15.38 2.4 16.1C2.9 17.42 3.62 18.68 4.92 19.48V19.5C5.62 19.9 6.34 20.3 7.22 20.44C7.36 20.44 7.52 20.5 7.78 20.56H7.8C8 20.62 8.22 20.64 8.4 20.68C9.5 20.84 10.68 20.72 11.68 20.1V20.12C12.22 19.78 12.7 19.48 13.22 19.18C13.58 19 13.86 18.54 13.88 18.18C13.9 17.86 13.94 17.54 13.92 17.18C13.88 16.5 13.88 15.82 13.94 15.14C13.98 14.78 13.86 14.42 13.78 14.18ZM30.3575 13.68C30.2775 14.2 30.2575 14.8 30.0975 15.44V15.46C29.9175 16.1 29.5575 16.72 29.1575 17.24C28.4575 18.12 27.6375 18.92 26.7975 19.62C26.5375 19.84 26.1775 20.1 25.7775 20.22H25.7575C25.1375 20.4 24.4575 20.58 23.7775 20.68C23.1775 20.76 22.4775 20.64 21.9375 20.28C21.4575 19.98 20.7775 19.86 20.1375 19.38C18.9375 18.5 17.9975 17.32 17.8175 15.7C17.6775 14.28 17.6975 12.82 17.9975 11.42C18.0175 11.36 18.0175 11.22 18.0775 11.02C18.2575 9.84 18.5575 8.78 19.3975 7.88L21.5375 6.1C21.8575 5.9 22.2775 5.72 22.8575 5.5C23.7175 5.14 24.5775 5.12 25.4175 5.58L25.4375 5.6C25.9575 5.9 26.5775 6.14 27.1775 6.52C28.3975 7.26 29.4375 8.36 29.7775 9.9C29.9575 10.82 30.1175 11.78 30.2575 12.7C30.3175 13.04 30.3175 13.36 30.3575 13.68ZM20.4575 13.26C20.4575 13.94 20.4375 14.3 20.4575 14.66C20.5175 15.82 21.0975 16.66 22.0575 17.3C22.6975 17.74 22.9175 17.96 23.8575 18.02C24.5775 18.02 25.2775 17.76 25.7375 17.2L25.7575 17.18C26.0775 16.82 26.4175 16.4 26.7775 16C27.3375 15.36 27.5175 14.74 27.5175 13.82C27.5175 13.54 27.5175 13.28 27.4975 13.02C27.4175 12 27.2575 11.16 26.9575 10.18C26.7575 9.5 26.6375 9.04 26.1775 8.72C25.5975 8.32 25.0775 8.1 24.3775 7.86C24.0975 7.74 23.3575 8 22.9775 8.18V8.2C22.0575 8.62 21.7775 8.84 21.2975 9.68C20.9775 10.28 20.7575 10.86 20.6575 11.52C20.5375 12.18 20.4975 12.86 20.4575 13.26ZM42.6084 17.84C41.1484 17.76 39.6684 17.6 38.1084 17.78C37.0284 17.92 37.2084 18.04 37.1484 16.94C37.1484 16.74 37.1884 16.5 37.1884 16.2V16.18C37.1684 15.5 37.2084 14.78 37.1284 14.04V14.06C37.0884 13.6 37.0684 13.18 37.0484 12.72C36.9884 11.64 37.0484 10.54 37.0884 9.42V9.4C37.0884 9.14 37.1484 8.74 37.0284 8.36C36.9284 7.98 36.9684 7.52 36.9484 6.98V6.4C36.9484 5.9 36.4284 5.42 35.9284 5.44C35.5484 5.44 34.9884 5.52 34.5884 5.94L34.6084 5.92C34.4084 6.12 34.0884 6.52 34.1684 7.02C34.3684 8.38 34.4084 9.72 34.2884 11.14V11.12C34.2084 11.9 34.1684 12.72 34.2484 13.52C34.3884 14.68 34.3084 15.84 34.2284 17.06C34.1884 17.44 34.1484 17.88 34.1684 18.32C34.1684 18.7 34.2284 19.1 34.3084 19.46V19.44C34.4284 20.12 35.0484 20.54 35.7084 20.5C36.7684 20.44 37.8284 20.36 38.9084 20.28C39.2484 20.26 39.6084 20.22 39.9484 20.2C40.6684 20.22 42.4084 20.82 43.2884 19.76C43.7684 19.14 43.7284 17.92 42.6084 17.84ZM61.4059 12.64C61.5259 11.78 61.0459 10.86 61.0659 10.42C60.6659 9.64 60.3659 8.52 59.4059 7.8C59.3459 7.7 59.2459 7.56 59.1059 7.42C58.3659 6.4 57.1659 6.1 56.3059 5.62H55.8859C54.7659 5.62 53.6259 5.4 52.3459 5.72C52.2059 5.76 52.1659 5.76 52.0059 5.72C51.1859 5.58 50.4459 5.44 49.7059 5.3C49.1659 5.12 48.5459 5.32 48.1459 5.64C47.8659 5.8 47.7659 6.1 47.7259 6.2C47.5859 6.4 47.5859 6.66 47.5859 6.74C47.5859 7.28 47.5859 7.86 47.6459 8.36C47.7859 9.36 47.7859 10.24 47.7259 11.26C47.7259 12.3 47.7859 13.32 47.7859 14.4C47.7859 14.88 47.7859 15.42 47.7259 15.94C47.7259 16.86 47.6459 17.76 47.6459 18.74C47.6459 19.58 48.2459 20.16 48.9059 20.38C49.4059 20.46 49.8659 20.46 50.3259 20.46C50.8659 20.32 51.3659 20.26 51.8459 20.26C52.7459 20.2 53.5859 20.06 54.4059 19.92C55.2459 19.76 56.2259 19.54 57.0259 19.1C57.4059 18.84 57.8859 18.58 58.3859 18.28C59.0259 17.86 59.5859 17.38 60.0259 16.72V16.74C60.9259 15.56 61.6059 14.26 61.4059 12.64ZM58.2859 14.12C58.2459 14.18 58.1459 14.34 58.1059 14.58C57.5459 16.04 56.4259 16.88 54.8859 17.24C53.6059 17.58 52.3259 17.76 51.0259 17.7C50.8059 17.7 50.9659 17.7 50.7459 17.66C50.8259 16.74 50.7659 15.76 50.7659 14.8C50.7659 13.84 50.6859 12.96 50.6259 12C50.6259 11.62 50.5459 11.36 50.5459 11.1C50.6259 10.46 50.6259 9.78 50.4659 9.1C50.4459 9.06 50.4859 8.94 50.4859 8.64C50.4859 7.9 50.4259 8.12 50.9259 8.12C51.4659 8.12 52.8459 8.18 53.2459 8.18C53.7459 8.18 54.1859 8.12 54.6059 8.18C55.5459 8.3 56.3259 8.64 57.0259 9.38C57.6659 10.08 58.1459 10.88 58.3859 11.78C58.6859 12.54 58.6859 13.34 58.2859 14.1V14.12Z" transform="translate(-1 -5)" fill="url(#paint0_linear)"/>
<defs>
<linearGradient id="paint0_linear" x2="1" gradientUnits="userSpaceOnUse" gradientTransform="matrix(6.40873e-08 -28.0002 68.9991 4.18352 0.423298 25.9084)">
<stop stop-color="#8A5C16" stop-opacity="0.7"/>
<stop offset="1" stop-color="#8A5C16" stop-opacity="0.05"/>
</linearGradient>
</defs>
</svg>
