<svg width="60" height="16" viewBox="0 0 60 16" fill="none" xmlns="http://www.w3.org/2000/svg"><path d="M12.208 9.18c-.22-.72-1-1.28-1.74-.92-.58.26-1.14.18-1.88.12-.2-.02-.46-.1-.78-.1-.48 0-1.06.14-1.46.56-.3.26-.34.68-.28.9.08.34.34.72.76.9.64.3 1.32.2 1.84.2 1.32.02 1.12.36 1.14 1.1.02.22-.04.36-.2.54-.64.54-1.36.76-2.16.64-.96-.16-1.82-.42-2.54-1.04-.3-.28-.54-.5-.76-.78h.02c-1.04-1.58-1-3.2-.38-4.96.18-.46.4-.86.64-1.32.44-.86 1.1-1.44 1.98-1.94.28-.18.62-.22 1.1-.28h.12c.66.26 1.26.54 1.8.94h.02c.4.28 1.36.98 2.14.26 1.34-1.34-1.3-2.74-1.94-3.02-.34-.16-.7-.38-1.12-.56-.2-.1-.52-.18-.76-.18-.94 0-1.98.1-2.92.66h-.02c-.86.56-1.62 1.2-2.3 2l.02-.02c-.64.7-1.14 1.48-1.44 2.38-.18.52-.36 1.06-.52 1.6v-.02c-.08.28-.14.6-.16.84-.04.38.24 2.7.4 3.42.5 1.32 1.22 2.58 2.52 3.38v.02c.7.4 1.42.8 2.3.94.14 0 .3.06.56.12h.02c.2.06.42.08.6.12 1.1.16 2.28.04 3.28-.58v.02c.54-.34 1.02-.64 1.54-.94.36-.18.64-.64.66-1 .02-.32.06-.64.04-1-.04-.68-.04-1.36.02-2.04.04-.36-.08-.72-.16-.96zm16.577-.5c-.08.52-.1 1.12-.26 1.76v.02c-.18.64-.54 1.26-.94 1.78a16.6 16.6 0 0 1-2.36 2.38c-.26.22-.62.48-1.02.6h-.02c-.62.18-1.3.36-1.98.46-.6.08-1.3-.04-1.84-.4-.48-.3-1.16-.42-1.8-.9-1.2-.88-2.14-2.06-2.32-3.68-.14-1.42-.12-2.88.18-4.28.02-.06.02-.2.08-.4.18-1.18.48-2.24 1.32-3.14l2.14-1.78c.32-.2.74-.38 1.32-.6.86-.36 1.72-.38 2.56.08l.02.02c.52.3 1.14.54 1.74.92 1.22.74 2.26 1.84 2.6 3.38.18.92.34 1.88.48 2.8.06.34.06.66.1.98zm-9.9-.42c0 .68-.02 1.04 0 1.4.06 1.16.64 2 1.6 2.64.64.44.86.66 1.8.72.72 0 1.42-.26 1.88-.82l.02-.02c.32-.36.66-.78 1.02-1.18.56-.64.74-1.26.74-2.18 0-.28 0-.54-.02-.8a12.5 12.5 0 0 0-.54-2.84c-.2-.68-.32-1.14-.78-1.46-.58-.4-1.1-.62-1.8-.86-.28-.12-1.02.14-1.4.32v.02c-.92.42-1.2.64-1.68 1.48-.32.6-.54 1.18-.64 1.84-.12.66-.16 1.34-.2 1.74zm22.151 4.58c-1.46-.08-2.94-.24-4.5-.06-1.08.14-.9.26-.96-.84 0-.2.04-.44.04-.74v-.02c-.02-.68.02-1.4-.06-2.14v.02c-.04-.46-.06-.88-.08-1.34-.06-1.08 0-2.18.04-3.3V4.4c0-.26.06-.66-.06-1.04-.1-.38-.06-.84-.08-1.38V1.4c0-.5-.52-.98-1.02-.96-.38 0-.94.08-1.34.5l.02-.02c-.2.2-.52.6-.44 1.1.2 1.36.24 2.7.12 4.12v-.02c-.08.78-.12 1.6-.04 2.4.14 1.16.06 2.32-.02 3.54-.04.38-.08.82-.06 1.26 0 .38.06.78.14 1.14v-.02c.12.68.74 1.1 1.4 1.06 1.06-.06 2.12-.14 3.2-.22.34-.02.7-.06 1.04-.08.72.02 2.46.62 3.34-.44.48-.62.44-1.84-.68-1.92zm18.798-5.2c.12-.86-.36-1.78-.34-2.22-.4-.78-.7-1.9-1.66-2.62-.06-.1-.16-.24-.3-.38-.74-1.02-1.94-1.32-2.8-1.8h-.42c-1.12 0-2.26-.22-3.54.1-.14.04-.18.04-.34 0-.82-.14-1.56-.28-2.3-.42-.54-.18-1.16.02-1.56.34-.28.16-.38.46-.42.56-.14.2-.14.46-.14.54 0 .54 0 1.12.06 1.62.14 1 .14 1.88.08 2.9 0 1.04.06 2.06.06 3.14 0 .48 0 1.02-.06 1.54 0 .92-.08 1.82-.08 2.8 0 .84.6 1.42 1.26 1.64.5.08.96.08 1.42.08.54-.14 1.04-.2 1.52-.2.9-.06 1.74-.2 2.56-.34.84-.16 1.82-.38 2.62-.82.38-.26.86-.52 1.36-.82.64-.42 1.2-.9 1.64-1.56v.02c.9-1.18 1.58-2.48 1.38-4.1zm-3.12 1.48c-.04.06-.14.22-.18.46-.56 1.46-1.68 2.3-3.22 2.66-1.28.34-2.56.52-3.86.46-.22 0-.06 0-.28-.04.08-.92.02-1.9.02-2.86s-.08-1.84-.14-2.8c0-.38-.08-.64-.08-.9.08-.64.08-1.32-.08-2-.02-.04.02-.16.02-.46 0-.74-.06-.52.44-.52.54 0 1.92.06 2.32.06.5 0 .94-.06 1.36 0 .94.12 1.72.46 2.42 1.2.64.7 1.12 1.5 1.36 2.4.3.76.3 1.56-.1 2.32v.02z" fill="url(#paint0_linear)"/><defs><linearGradient id="paint0_linear" x1="30.177" y1="-5" x2="31.995" y2="18.778" gradientUnits="userSpaceOnUse"><stop stop-color="#F7FCFF" stop-opacity=".3"/><stop offset="1" stop-color="#F7FCFF" stop-opacity=".1"/></linearGradient></defs></svg>
