<svg width="77" height="16" viewBox="0 0 77 16" fill="none" xmlns="http://www.w3.org/2000/svg">
<path d="M18.06 18.04C18 17.6 17.98 17.14 17.96 16.66C17.88 14.98 18 13.3 17.96 11.56C17.94 10.8 17.88 10.02 17.84 9.28C17.88 8.42 17.72 7.64 17.72 6.9C17.72 6.78 17.8 6.38 17.56 6.1C17.4 5.9 17.02 5.42 16.58 5.42H16.56C15.9 5.44 14.96 5.8 14.58 6.62V6.64C14 8 13.34 9.32 12.74 10.66C12.02 12.22 11.22 14.02 10.52 15.56C10.36 15.9 10.16 16.44 9.98 16.9C9.84 16.64 9.62 16.34 9.48 16.08L9.5 16.1C8.72 14.42 7.92 12.92 7.42 11.3C6.64 8.74 5.88 7.24 4.44 6.04C4.18 5.8 3.38 5.36 2.94 5.78C2.76 5.96 2.14 6.46 2.08 7.02V7C1.96 7.9 2 8.6 2.06 9.44C2.12 10.46 2.26 11.58 2.3 12.46C2.28 12.72 2.32 13.32 2.34 13.52L2.4 14.54C2.42 14.96 2.46 15.34 2.48 15.68C2.48 15.82 2.48 16.08 2.44 16.14C2.44 17.24 2.48 18.06 2.5 19.12C2.52 19.96 2.88 20.72 3.86 20.44H3.84C4.08 20.38 4.52 20.38 4.86 19.96C5.2 19.54 5.26 18.88 5.24 18.46C5.22 17.7 5.18 16.94 5.16 16.18C5.12 15.38 4.86 13.26 4.84 12.5C4.82 12.22 4.82 11.84 4.84 11.42C5.06 12.08 5.28 12.74 5.56 13.32C5.96 14.22 6.62 16.64 7.12 17.58C7.52 18.34 7.92 20.06 9.44 20.18C9.88 20.22 10.48 20.2 10.96 19.98C11.52 19.72 11.76 19.2 11.96 18.78C12.56 17.56 13 16.28 13.56 15.1C13.96 14.22 14.34 13.32 14.74 12.46L15.14 11.6C15.18 12.3 15.36 12.84 15.3 13.52C15.3 14.28 15.28 15 15.26 15.74C15.24 16.52 15.42 17.2 15.44 17.82C15.46 18.26 15.36 19.12 15.7 19.7C15.86 20.02 16.2 20.44 16.72 20.5C18.56 20.72 18.14 18.68 18.06 18.04ZM33.5563 18.82C33.3763 18.26 32.7363 17.74 32.1362 17.8H32.1162C31.5562 17.88 30.8563 17.8 30.1363 18C29.4762 17.92 28.7963 17.8 28.0963 17.74H28.1163C27.7162 17.7 27.2962 17.76 26.9963 17.76H26.9762C26.3963 17.78 25.8363 17.82 25.2962 17.82C25.2162 17.82 25.1162 17.72 25.1162 17.64C25.1362 16.56 25.1362 15.5 25.1562 14.42C26.4963 14.42 27.8363 14.42 29.1763 14.4C29.3963 14.4 29.6763 14.38 29.9163 14.3C30.1562 14.22 30.3762 13.94 30.4362 13.84C30.9362 12.7 30.0762 11.84 29.1363 11.86C28.7362 11.86 28.3162 11.84 27.8363 11.92C27.0762 12.04 26.2963 12 25.4962 11.96C25.2962 11.94 25.1762 11.92 25.0763 11.88C24.9163 10.66 24.8562 9.48 24.9962 8.24C25.0363 7.88 25.0363 7.86 25.3763 7.88H25.3962C25.6762 7.88 25.8763 7.86 26.0362 7.9C27.1763 8.18 28.3562 8.1 29.4362 7.96C30.2963 7.84 31.0962 7.8 31.9162 7.94C32.0763 7.96 32.2962 7.98 32.4962 7.96C32.6962 7.94 32.8963 7.88 33.0562 7.84C33.8762 7.54 34.1562 6.62 33.6563 5.94C33.3162 5.54 33.1362 5.62 33.2963 5.6C32.6962 5.28 31.9362 5.38 31.4163 5.4C30.6562 5.44 28.7963 5.5 27.8562 5.5C27.2962 5.5 26.5162 5.58 26.0163 5.48C25.3763 5.38 24.6962 5.42 24.0762 5.44H24.0562C23.6963 5.46 23.3562 5.6 23.0762 5.68C22.6163 5.78 22.2562 6.34 22.1763 6.7C22.1362 7.26 22.1962 7.6 22.1962 8.34C22.1962 8.62 22.1763 8.84 22.1763 8.92V8.94C22.1962 9.52 22.2163 10.06 22.2163 10.62C22.1962 11.72 22.1162 12.88 22.1962 14.04C22.2562 14.74 22.2762 15.42 22.2363 16.12L22.1763 17.82V17.84C22.1763 18.28 22.2163 18.7 22.2363 19.08C22.2762 19.7 22.7362 20.14 23.1363 20.32C23.3562 20.42 23.7163 20.48 23.9762 20.46C24.3962 20.44 24.7363 20.32 25.0163 20.32C26.4963 20.3 27.9562 20.3 29.4563 20.38C30.3363 20.42 31.2363 20.4 32.0963 20.38H32.0763C32.4563 20.38 32.7963 20.18 33.0163 20.1C33.4962 19.88 33.6962 19.3 33.5563 18.84V18.82ZM51.5231 12.64C51.6431 11.78 51.1631 10.86 51.1831 10.42C50.7831 9.64 50.4831 8.52 49.5231 7.8C49.4631 7.7 49.3631 7.56 49.2231 7.42C48.4831 6.4 47.2831 6.1 46.4231 5.62H46.0031C44.8831 5.62 43.7431 5.4 42.4631 5.72C42.3231 5.76 42.2831 5.76 42.1231 5.72C41.3031 5.58 40.5631 5.44 39.8231 5.3C39.2831 5.12 38.6631 5.32 38.2631 5.64C37.9831 5.8 37.8831 6.1 37.8431 6.2C37.7031 6.4 37.7031 6.66 37.7031 6.74C37.7031 7.28 37.7031 7.86 37.7631 8.36C37.9031 9.36 37.9031 10.24 37.8431 11.26C37.8431 12.3 37.9031 13.32 37.9031 14.4C37.9031 14.88 37.9031 15.42 37.8431 15.94C37.8431 16.86 37.7631 17.76 37.7631 18.74C37.7631 19.58 38.3631 20.16 39.0231 20.38C39.5231 20.46 39.9831 20.46 40.4431 20.46C40.9831 20.32 41.4831 20.26 41.9631 20.26C42.8631 20.2 43.7031 20.06 44.5231 19.92C45.3631 19.76 46.3431 19.54 47.1431 19.1C47.5231 18.84 48.0031 18.58 48.5031 18.28C49.1431 17.86 49.7031 17.38 50.1431 16.72V16.74C51.0431 15.56 51.7231 14.26 51.5231 12.64ZM48.4031 14.12C48.3631 14.18 48.2631 14.34 48.2231 14.58C47.6631 16.04 46.5431 16.88 45.0031 17.24C43.7231 17.58 42.4431 17.76 41.1431 17.7C40.9231 17.7 41.0831 17.7 40.8631 17.66C40.9431 16.74 40.8831 15.76 40.8831 14.8C40.8831 13.84 40.8031 12.96 40.7431 12C40.7431 11.62 40.6631 11.36 40.6631 11.1C40.7431 10.46 40.7431 9.78 40.5831 9.1C40.5631 9.06 40.6031 8.94 40.6031 8.64C40.6031 7.9 40.5431 8.12 41.0431 8.12C41.5831 8.12 42.9631 8.18 43.3631 8.18C43.8631 8.18 44.3031 8.12 44.7231 8.18C45.6631 8.3 46.4431 8.64 47.1431 9.38C47.7831 10.08 48.2631 10.88 48.5031 11.78C48.8031 12.54 48.8031 13.34 48.4031 14.1V14.12ZM56.1617 15.36C56.2617 13.84 55.9617 12.08 55.7817 10.24C55.6617 9.14 55.6217 8.02 55.7017 6.9V6.92C55.7217 6.24 56.2617 5.68 56.8417 5.46C57.6017 5.16 58.4817 5.68 58.5817 6.46V6.44C58.5817 6.5 58.6817 6.72 58.5817 7C58.3617 7.86 58.4617 8.7 58.6617 9.66V9.68C58.7617 10.3 58.7217 10.9 58.7817 11.4C59.0017 13.18 59.1417 15.38 59.1417 17.16C59.1417 17.32 59.1617 17.44 59.2217 17.6C59.5817 18.56 59.1617 19.42 58.7217 20.06C58.4617 20.44 58.0017 20.5 57.7617 20.5C57.1617 20.52 56.7417 20.22 56.5817 19.74C56.2217 18.86 56.0217 17.9 56.1617 16.9V16.92C56.2017 16.66 56.1617 15.92 56.1617 15.36ZM78.2378 19.02C78.1778 18.62 78.0378 18.24 77.8378 17.86C77.5778 17.22 77.2378 16.62 77.0778 15.98C77.0178 15.76 76.8578 15.42 76.6578 15.14C76.0778 14.06 75.6178 12.9 75.0578 11.7C74.4978 10.42 73.9978 9.32 73.3578 8.02C73.0778 7.4 72.7378 6.68 72.3778 6.04C72.1578 5.58 71.6778 5.3 71.2378 5.3C70.8778 5.3 70.3978 5.42 70.0778 5.86C69.0578 7.52 68.1178 9.06 67.4978 10.9C67.2578 11.52 66.9778 12.04 66.6778 12.6C65.8378 14.2 64.7178 16.48 63.7178 17.86C63.4778 18.14 63.4378 18.54 63.3978 18.46C63.2578 19.12 63.4978 19.88 64.0978 20.24C63.9978 20.06 64.1778 20.38 64.4978 20.46C64.7778 20.52 65.3178 20.5 65.5178 20.12C65.7378 19.78 65.9778 19.36 66.2178 18.96C66.4378 18.56 67.0578 17.5 67.2978 17.1C67.4978 16.82 67.6578 16.72 67.7378 16.76C68.2978 16.76 68.7778 16.76 69.3178 16.84C69.9378 16.84 70.5778 16.9 71.2378 16.84C72.0178 16.7 72.8778 16.76 73.7778 16.7C74.2778 16.7 74.4978 16.84 74.6778 17.34C74.7178 17.66 74.8578 17.98 74.9778 18.22C75.2178 18.9 75.4578 19.36 75.7978 19.96C76.1378 20.64 76.9178 20.92 77.1178 20.78C77.4578 20.56 77.6578 20.38 77.8778 20.22C78.1578 20 78.3378 19.46 78.2378 19.02ZM70.8578 14.16C70.1778 14.16 69.4978 14.22 68.8378 14.28C68.8978 14.12 68.8978 14 68.9178 13.92C69.0378 13.68 69.1578 13.44 69.2978 13.06C69.5178 12.48 69.8778 11.82 70.1378 11.08C70.2378 10.7 70.5178 10.34 70.7778 9.86C70.8578 9.68 70.9778 9.48 71.0778 9.26L71.0978 9.3C71.7378 10.74 72.3978 12.26 73.0578 13.8C73.0778 13.82 73.0778 13.88 73.0978 13.98C72.7978 14.02 72.4978 14.04 72.1378 14.08C71.7178 14.08 71.2378 14.16 70.8578 14.16Z" transform="translate(-2 -5)" fill="url(#paint0_linear)"/>
<defs>
<linearGradient id="paint0_linear" x2="1" gradientUnits="userSpaceOnUse" gradientTransform="matrix(3.96746e-06 23.9167 -68.1814 4.17193 74.3117 -2.08596)">
<stop stop-color="#F7FCFF" stop-opacity="0.2"/>
<stop offset="1" stop-color="#F7FCFF" stop-opacity="0.05"/>
</linearGradient>
</defs>
</svg>
