<svg width="178" height="16" viewBox="0 0 178 16" fill="none" xmlns="http://www.w3.org/2000/svg"><path d="M9.812 2.72c-.16-.32-.38-.64-.58-.94-.26-.36-.7-.82-1.24-.92-.68-.16-1.44-.54-2.4-.44-.42.04-.86 0-1.36 0h-.02s-.48.02-.7 0c-.22-.02-.5-.08-.84-.08-.32.02-.72.08-1.08.22-.6.28-1.16 1.36-1.1 1.98.06.5.18.92.16 1.3v.02C.632 5.04.632 6.22.612 7.4c-.02 1.16-.1 2.36 0 3.58.06.82.08 1.82-.02 2.62-.1.86.54 2.02 1.66 1.9.56-.08.92-.48 1.06-.92.38-1.14.14-2.46.12-3.46.38-.18.66-.34.96-.42.56-.16 1.1-.32 1.62-.4.56-.1 1.08-.34 1.52-.66l-.02.02c.36-.24.74-.5 1.08-.78.68-.54 1.26-1.3 1.5-2.22.18-.66.22-1.32.24-1.94V4.7c0-.72-.2-1.4-.52-1.98zm-2.72 4.04c-.68.84-1.5 1.26-2.54 1.52-.36.08-.76.1-1.18.16h-.06c.08-.7.04-1.38.06-2 .04-1.16.08-2.34-.02-3.5.3 0 .56.02.84.04.58-.18 1.12.06 1.88.14h.06c.72.48 1.24 1.08 1.32 1.92.02.2.04.4.04.58v.02c.02.42-.12.74-.4 1.12z" fill="url(#paint0_linear)"/><path d="M28.82 14.02c-.06-.4-.2-.78-.4-1.16-.26-.64-.6-1.24-.76-1.88-.06-.22-.22-.56-.42-.84-.58-1.08-1.04-2.24-1.6-3.44-.56-1.28-1.06-2.38-1.7-3.68-.28-.62-.62-1.34-.98-1.98-.22-.46-.7-.74-1.14-.74-.36 0-.84.12-1.16.56-1.02 1.66-1.96 3.2-2.58 5.04-.24.62-.52 1.14-.82 1.7-.84 1.6-1.96 3.88-2.96 5.26-.24.28-.28.68-.32.6-.14.66.1 1.42.7 1.78-.1-.18.08.14.4.22.28.06.82.04 1.02-.34.22-.34.46-.76.7-1.16.22-.4.84-1.46 1.08-1.86.2-.28.36-.38.44-.34.56 0 1.04 0 1.58.08.62 0 1.26.06 1.92 0 .78-.14 1.64-.08 2.54-.14.5 0 .72.14.9.64.04.32.18.64.3.88.24.68.48 1.14.82 1.74.34.68 1.12.96 1.32.82.34-.22.54-.4.76-.56.28-.22.46-.76.36-1.2zm-7.38-4.86c-.68 0-1.36.06-2.02.12.06-.16.06-.28.08-.36.12-.24.24-.48.38-.86.22-.58.58-1.24.84-1.98.1-.38.38-.74.64-1.22.08-.18.2-.38.3-.6l.02.04c.64 1.44 1.3 2.96 1.96 4.5.02.02.02.08.04.18-.3.04-.6.06-.96.1-.42 0-.9.08-1.28.08z" fill="url(#paint1_linear)"/><path d="M43.645 13.66c-.32-.38-.66-.76-1-1.12-.46-.42-.86-.86-1.24-1.34-.54-.72-1.12-1.38-1.68-2.04l-.02-.02 1.38-.84c1.46-.94 2.2-2.38 2-4.06-.02-.26-.08-.46-.1-.62-.16-1.1-.8-2.02-1.68-2.62-.28-.18-.66-.36-1.08-.38-.94 0-1.9-.1-2.94 0-.8.1-1.56.08-2.32-.12-.36-.1-.74-.08-1.04-.06-.64.04-1.28.68-1.28 1.32 0 .6-.1 1.3.08 2.04.08.36.06.72-.04 1.1-.18.8-.26 1.62-.12 2.44l-.02-.02c.04.3.02.58-.02.9-.14.76-.06 1.52-.04 2.18v-.02c0 .66.02 1.32.04 1.98v1.92c0 .42.34.76.58.9.72.4 1.66.48 2.46-.06-.04-.68-.1-1.32-.16-1.96-.04-.56-.12-1.1-.16-1.6-.06-1.18-1.02-1.24 1.44-1.54.3-.04.46.06.62.32h-.02c.24.44.58.9.96 1.28l-.02-.02c.5.54.94 1.04 1.32 1.64h.02c.3.46.64.88.98 1.32.28.32.6.64.9.88.24.2.66.24.88.24.5 0 .88-.3 1.14-.54.44-.4.6-.98.18-1.48zm-5.74-6.18c-.06.04-.1.04-.22.06-.36.04-.76.12-1.14.24-.38.14-.74.1-1.2 0v.02c-.1-.62-.2-1.1-.14-1.64l.08-1.08c.02-.5.04-.98.08-1.46.02-.14.18-.32.3-.36.32-.08.64-.12.98-.16.62-.06 1.28-.1 1.92-.14h-.02c.56-.02 1.06.1 1.38.44.5.54.68 1.08.46 1.84-.1.38-.26.62-.56.94-.52.54-1.2.88-1.92 1.3z" fill="url(#paint2_linear)"/><path d="M61.934 1.56c.14.52-.04 1.1-.44 1.46-.16.16-.5.36-.76.28-.74-.24-1.64-.08-2.62-.28-.52-.08-1-.06-1.72-.06l-.14.08c-.02.46-.02.92-.02 1.74-.14 1.34.2 2.84.28 4.58.04.58.08.96.06 1.54 0 .4-.02.58-.02.9.02.8-.06 1.48.18 2.06.26.64-.34 1.48-.98 1.52l-.72.08c-.92.16-1.48-.14-1.54-1.16-.02-.26-.04-.54-.02-.82.02-1.28.08-2.54.1-3.8 0-.44-.04-.88-.04-1.36-.02-.62-.04-1.02-.04-1.68.02-.54.1-.98 0-1.38-.1-.36-.02-.7-.02-.9.02-.36.04-.7.02-1.02 0-.44.02-.38-.28-.4-.54-.04-1.08-.04-1.66-.06-.28 0-.4.04-.74.04-.28 0-.62-.02-.9-.12-.6-.18-1.08-.38-1.6-.4-.46 0-.72-.42-.72-.82 0-.24.18-.62.4-.8.26-.2.7-.44 1.2-.42.5.04 1 .1 1.5.12 1.4.1 2.76.2 4.14-.06.34-.06.7-.06 1-.06.8 0 1.66-.04 2.48.04.82.08 1.6.18 2.42.24.42.04 1.04.26 1.2.92z" fill="url(#paint3_linear)"/><path d="M77.787 5.52c0-1.2.12-2.44.08-3.72v.02c0-.52-.54-1.28-1.06-1.38h.02c-.94-.24-1.7.6-1.68 1.48 0 .64-.02 1.26.02 1.94v-.02c.04 1.18.18 2.32.18 3.48-.02.92-.08 1.82-.16 2.74v.02l-.04.78c-.2-.22-.46-.44-.7-.76-.96-1.28-1.98-2.54-2.86-3.86-1.12-1.66-2.14-3.4-3.2-5.12-.28-.48-1.02-1.02-1.74-.48-.5.38-.7.94-.76 1.46-.06.76-.12 1.52-.12 2.3v-.02c-.02.6-.1 1.24-.1 1.9 0 1.54.16 3.08.08 4.58-.06 1.16-.04 2.28.02 3.42.04.96.82 1.26 1.5 1.1.26-.06 1.54-.04 1.38-1.38v-.02c-.08-.5-.14-1.02-.16-1.52-.04-1.34 0-2.72-.08-4.12-.06-.8-.14-1.58-.18-2.38l.1.14c.22.32.56 1 .82 1.4h.02c.28.4.56.8.82 1.2 1.24 1.78 2.48 3.6 3.8 5.3.24.34.54 1.26 1.32 1.5.48.14 1.36 0 1.76-.38l-.02.02c.82-.7.64-1.96.7-2.62v.02c.12-1.12.24-2.28.3-3.42.06-1.22-.08-2.42-.06-3.6z" fill="url(#paint4_linear)"/><path d="M93.259 13.82c-.18-.56-.82-1.08-1.42-1.02h-.02c-.56.08-1.26 0-1.98.2-.66-.08-1.34-.2-2.04-.26h.02c-.4-.04-.82.02-1.12.02h-.02c-.58.02-1.14.06-1.68.06-.08 0-.18-.1-.18-.18.02-1.08.02-2.14.04-3.22 1.34 0 2.68 0 4.02-.02.22 0 .5-.02.74-.1s.46-.36.52-.46c.5-1.14-.36-2-1.3-1.98-.4 0-.82-.02-1.3.06-.76.12-1.54.08-2.34.04-.2-.02-.32-.04-.42-.08-.16-1.22-.22-2.4-.08-3.64.04-.36.04-.38.38-.36h.02c.28 0 .48-.02.64.02 1.14.28 2.32.2 3.4.06.86-.12 1.66-.16 2.48-.02.16.02.38.04.58.02.2-.02.4-.08.56-.12.82-.3 1.1-1.22.6-1.9-.34-.4-.52-.32-.36-.34-.6-.32-1.36-.22-1.88-.2-.76.04-2.62.1-3.56.1-.56 0-1.34.08-1.84-.02-.64-.1-1.32-.06-1.94-.04h-.02c-.36.02-.7.16-.98.24-.46.1-.82.66-.9 1.02-.04.56.02.9.02 1.64 0 .28-.02.5-.02.58v.02c.02.58.04 1.12.04 1.68-.02 1.1-.1 2.26-.02 3.42.06.7.08 1.38.04 2.08l-.06 1.7v.02c0 .44.04.86.06 1.24.04.62.5 1.06.9 1.24.22.1.58.16.84.14.42-.02.76-.14 1.04-.14 1.48-.02 2.94-.02 4.44.06.88.04 1.78.02 2.64 0h-.02c.38 0 .72-.2.94-.28.48-.22.68-.8.54-1.26v-.02z" fill="url(#paint5_linear)"/><path d="M108.606 13.66c-.32-.38-.66-.76-1-1.12-.46-.42-.86-.86-1.24-1.34-.54-.72-1.12-1.38-1.68-2.04l-.02-.02 1.38-.84c1.46-.94 2.2-2.38 2-4.06-.02-.26-.08-.46-.1-.62-.16-1.1-.8-2.02-1.68-2.62-.28-.18-.66-.36-1.08-.38-.94 0-1.9-.1-2.94 0-.8.1-1.56.08-2.32-.12-.36-.1-.74-.08-1.04-.06-.64.04-1.28.68-1.28 1.32 0 .6-.1 1.3.08 2.04.08.36.06.72-.04 1.1-.18.8-.26 1.62-.12 2.44l-.02-.02c.04.3.02.58-.02.9-.14.76-.06 1.52-.04 2.18v-.02c0 .66.02 1.32.04 1.98v1.92c0 .42.34.76.58.9.72.4 1.66.48 2.46-.06-.04-.68-.1-1.32-.16-1.96-.04-.56-.12-1.1-.16-1.6-.06-1.18-1.02-1.24 1.44-1.54.3-.04.46.06.62.32h-.02c.24.44.58.9.96 1.28l-.02-.02c.5.54.94 1.04 1.32 1.64h.02c.3.46.64.88.98 1.32.28.32.6.64.9.88.24.2.66.24.88.24.5 0 .88-.3 1.14-.54.44-.4.6-.98.18-1.48zm-5.74-6.18c-.06.04-.1.04-.22.06-.36.04-.76.12-1.14.24-.38.14-.74.1-1.2 0v.02c-.1-.62-.2-1.1-.14-1.64l.08-1.08c.02-.5.04-.98.08-1.46.02-.14.18-.32.3-.36.32-.08.64-.12.98-.16.62-.06 1.28-.1 1.92-.14h-.02c.56-.02 1.06.1 1.38.44.5.54.68 1.08.46 1.84-.1.38-.26.62-.56.94-.52.54-1.2.88-1.92 1.3z" fill="url(#paint6_linear)"/><path d="M120.695 10.88c-.28-.48-.64-.82-1.14-1.08l-.02-.02c-.6-.34-1.18-.68-1.8-.94-.88-.34-1.66-.82-2.44-1.24-.72-.4-1.28-1.04-1.62-1.76-.16-.36-.28-.8-.26-1.2.06-1.72.96-3.08 2.42-3.96.74-.44 1.62-.52 2.34-.5.82.04 1.68.16 2.5.4.82.3 1.6.7 2.22 1.34.52.46.82 1.1.94 1.74.04.22-.1.62-.28.82-.56.56-1.52.54-2-.08-.02-.02-.16-.12-.24-.36-.14-.42-.46-.62-.96-.88-.5-.22-.96-.44-1.48-.56-.4-.1-.78-.14-1.16-.06v-.02c-.76.18-1.32.68-1.42 1.48v.16c-.08.56.12.9.6 1.16.82.48 1.56.96 2.42 1.24l.02.02c.46.16.9.38 1.34.6 1.16.58 2 1.56 2.72 2.52h.02c.26.38.34.8.4 1.1.36 1.38-.06 2.66-1.16 3.54-.22.16-.46.36-.72.54l.02-.02c-.14.1-.4.3-.66.36-1.24.28-2.56.58-3.94.44-.82-.08-1.6-.4-2.3-.7h.02c-.62-.24-1.06-.82-1.32-1.28-.38-.64-.72-1.36-.88-2.1-.08-.4.16-.96.56-1.14h-.02c.38-.2.84-.26 1.22-.24.3.02.82.32.9.68v-.02c.06.24.14.5.18.74.04.28.16.44.42.7h-.02c.52.52 1.2.78 1.96 1.06.96.04 1.78.02 2.58-.38h-.02c.06-.02.12-.12.22-.26v.02c.22-.32.32-.66.36-1.04l-.52-.82z" fill="url(#paint7_linear)"/><path d="M140.093 1.84c0-.22 0-.62-.14-1-.02-.04-.34-.32-.54-.44-.72-.24-1.7.2-1.9.98-.14.52-.28 1.08-.34 1.56-.08.92-.14 2.04-.26 2.92 0 .16 0 .24-.02.26l-.04.08c-.36.1-.48.2-.6.16-.18.08-.62-.02-1.08.1-1.2.24-2.42.16-3.68.48h-.38c-.28-.04-.36-.12-.38-.3-.06-.2-.06-.48-.06-.76-.06-1.22-.12-2.68 0-3.9v-.46c0-.5-.46-.96-1.02-.96-.3 0-.64.1-.94.32-.34.16-.58.58-.58.88l-.2 3.6c0 1.04.14 1.92 0 2.82 0 .32.06.54.06.64.14 1.28.26 3.18.2 4.5-.08.38.02.7 0 .88.26 1.24 1.14 1.58 2.26 1.06.26-.12.52-.42.6-.62.04-.28.22-.78.14-1.26-.12-.78-.06-2.26-.2-3.08 0-.5-.24-.9 1.04-1.12.1.02.3.06.54.06.28 0 .66 0 1.04-.08.62-.24 1.32-.24 2.04-.18.76 0 .96-.3 1.18-.12.2.18-.08.42 0 1.24.14.94.2 2.44.14 3.46 0 .24.06.38.06.48 0 .52.4.94.66 1.2.22.2.62.2.74.2.28 0 .64-.26.6-.22.58-.14.8-.72.88-1.06 0-.48 0-1.64-.08-2.16 0-.3-.06-.54-.06-.72.06-.78-.06-1.54-.06-2.22 0-.46-.06-.92-.06-1.34.12-1.22 0-2.34.26-3.22.06-.98.18-1.92.18-2.66z" fill="url(#paint8_linear)"/><path d="M144.985 10.36c.1-1.52-.2-3.28-.38-5.12-.12-1.1-.16-2.22-.08-3.34v.02c.02-.68.56-1.24 1.14-1.46.76-.3 1.64.22 1.74 1v-.02c0 .06.1.28 0 .56-.22.86-.12 1.7.08 2.66v.02c.1.62.06 1.22.12 1.72.22 1.78.36 3.98.36 5.76 0 .16.02.28.08.44.36.96-.06 1.82-.5 2.46-.26.38-.72.44-.96.44-.6.02-1.02-.28-1.18-.76-.36-.88-.56-1.84-.42-2.84v.02c.04-.26 0-1 0-1.56z" fill="url(#paint9_linear)"/><path d="M161.902 2.72c-.16-.32-.38-.64-.58-.94-.26-.36-.7-.82-1.24-.92-.68-.16-1.44-.54-2.4-.44-.42.04-.86 0-1.36 0h-.02s-.48.02-.7 0c-.22-.02-.5-.08-.84-.08-.32.02-.72.08-1.08.22-.6.28-1.16 1.36-1.1 1.98.06.5.18.92.16 1.3v.02c-.02 1.18-.02 2.36-.04 3.54-.02 1.16-.1 2.36 0 3.58.06.82.08 1.82-.02 2.62-.1.86.54 2.02 1.66 1.9.56-.08.92-.48 1.06-.92.38-1.14.14-2.46.12-3.46.38-.18.66-.34.96-.42.56-.16 1.1-.32 1.62-.4.56-.1 1.08-.34 1.52-.66l-.02.02c.36-.24.74-.5 1.08-.78.68-.54 1.26-1.3 1.5-2.22.18-.66.22-1.32.24-1.94V4.7c0-.72-.2-1.4-.52-1.98zm-2.72 4.04c-.68.84-1.5 1.26-2.54 1.52-.36.08-.76.1-1.18.16h-.06c.08-.7.04-1.38.06-2 .04-1.16.08-2.34-.02-3.5.3 0 .56.02.84.04.58-.18 1.12.06 1.88.14h.06c.72.48 1.24 1.08 1.32 1.92.02.2.04.4.04.58v.02c.02.42-.12.74-.4 1.12z" fill="url(#paint10_linear)"/><path d="M174.269 10.88c-.28-.48-.64-.82-1.14-1.08l-.02-.02c-.6-.34-1.18-.68-1.8-.94-.88-.34-1.66-.82-2.44-1.24-.72-.4-1.28-1.04-1.62-1.76-.16-.36-.28-.8-.26-1.2.06-1.72.96-3.08 2.42-3.96.74-.44 1.62-.52 2.34-.5.82.04 1.68.16 2.5.4.82.3 1.6.7 2.22 1.34.52.46.82 1.1.94 1.74.04.22-.1.62-.28.82-.56.56-1.52.54-2-.08-.02-.02-.16-.12-.24-.36-.14-.42-.46-.62-.96-.88-.5-.22-.96-.44-1.48-.56-.4-.1-.78-.14-1.16-.06v-.02c-.76.18-1.32.68-1.42 1.48v.16c-.08.56.12.9.6 1.16.82.48 1.56.96 2.42 1.24l.02.02c.46.16.9.38 1.34.6 1.16.58 2 1.56 2.72 2.52h.02c.26.38.34.8.4 1.1.36 1.38-.06 2.66-1.16 3.54-.22.16-.46.36-.72.54l.02-.02c-.14.1-.4.3-.66.36-1.24.28-2.56.58-3.94.44-.82-.08-1.6-.4-2.3-.7h.02c-.62-.24-1.06-.82-1.32-1.28-.38-.64-.72-1.36-.88-2.1-.08-.4.16-.96.56-1.14h-.02c.38-.2.84-.26 1.22-.24.3.02.82.32.9.68v-.02c.06.24.14.5.18.74.04.28.16.44.42.7h-.02c.52.52 1.2.78 1.96 1.06.96.04 1.78.02 2.58-.38h-.02c.06-.02.12-.12.22-.26v.02c.22-.32.32-.66.36-1.04l-.52-.82z" fill="url(#paint11_linear)"/><defs><linearGradient id="paint0_linear" x1="97.312" y1="23" x2="97.909" y2="-4.987" gradientUnits="userSpaceOnUse"><stop stop-color="#8A5C16"/><stop offset="1" stop-color="#8A5C16" stop-opacity=".2"/></linearGradient><linearGradient id="paint1_linear" x1="97.312" y1="23" x2="97.909" y2="-4.987" gradientUnits="userSpaceOnUse"><stop stop-color="#8A5C16"/><stop offset="1" stop-color="#8A5C16" stop-opacity=".2"/></linearGradient><linearGradient id="paint2_linear" x1="97.312" y1="23" x2="97.909" y2="-4.987" gradientUnits="userSpaceOnUse"><stop stop-color="#8A5C16"/><stop offset="1" stop-color="#8A5C16" stop-opacity=".2"/></linearGradient><linearGradient id="paint3_linear" x1="97.312" y1="23" x2="97.909" y2="-4.987" gradientUnits="userSpaceOnUse"><stop stop-color="#8A5C16"/><stop offset="1" stop-color="#8A5C16" stop-opacity=".2"/></linearGradient><linearGradient id="paint4_linear" x1="97.312" y1="23" x2="97.909" y2="-4.987" gradientUnits="userSpaceOnUse"><stop stop-color="#8A5C16"/><stop offset="1" stop-color="#8A5C16" stop-opacity=".2"/></linearGradient><linearGradient id="paint5_linear" x1="97.312" y1="23" x2="97.909" y2="-4.987" gradientUnits="userSpaceOnUse"><stop stop-color="#8A5C16"/><stop offset="1" stop-color="#8A5C16" stop-opacity=".2"/></linearGradient><linearGradient id="paint6_linear" x1="97.312" y1="23" x2="97.909" y2="-4.987" gradientUnits="userSpaceOnUse"><stop stop-color="#8A5C16"/><stop offset="1" stop-color="#8A5C16" stop-opacity=".2"/></linearGradient><linearGradient id="paint7_linear" x1="97.312" y1="23" x2="97.909" y2="-4.987" gradientUnits="userSpaceOnUse"><stop stop-color="#8A5C16"/><stop offset="1" stop-color="#8A5C16" stop-opacity=".2"/></linearGradient><linearGradient id="paint8_linear" x1="97.312" y1="23" x2="97.909" y2="-4.987" gradientUnits="userSpaceOnUse"><stop stop-color="#8A5C16"/><stop offset="1" stop-color="#8A5C16" stop-opacity=".2"/></linearGradient><linearGradient id="paint9_linear" x1="97.312" y1="23" x2="97.909" y2="-4.987" gradientUnits="userSpaceOnUse"><stop stop-color="#8A5C16"/><stop offset="1" stop-color="#8A5C16" stop-opacity=".2"/></linearGradient><linearGradient id="paint10_linear" x1="97.312" y1="23" x2="97.909" y2="-4.987" gradientUnits="userSpaceOnUse"><stop stop-color="#8A5C16"/><stop offset="1" stop-color="#8A5C16" stop-opacity=".2"/></linearGradient><linearGradient id="paint11_linear" x1="97.312" y1="23" x2="97.909" y2="-4.987" gradientUnits="userSpaceOnUse"><stop stop-color="#8A5C16"/><stop offset="1" stop-color="#8A5C16" stop-opacity=".2"/></linearGradient></defs></svg>
