<svg width="119" height="16" viewBox="0 0 119 16" fill="none" xmlns="http://www.w3.org/2000/svg"><path d="M9.687 2.72c-.16-.32-.38-.64-.58-.94-.26-.36-.7-.82-1.24-.92-.68-.16-1.44-.54-2.4-.44-.42.04-.86 0-1.36 0h-.02s-.48.02-.7 0c-.22-.02-.5-.08-.84-.08-.32.02-.72.08-1.08.22-.6.28-1.16 1.36-1.1 1.98.06.5.18.92.16 1.3v.02C.507 5.04.507 6.22.487 7.4c-.02 1.16-.1 2.36 0 3.58.06.82.08 1.82-.02 2.62-.1.86.54 2.02 1.66 1.9.56-.08.92-.48 1.06-.92.38-1.14.14-2.46.12-3.46.38-.18.66-.34.96-.42.56-.16 1.1-.32 1.62-.4.56-.1 1.08-.34 1.52-.66l-.02.02c.36-.24.74-.5 1.08-.78.68-.54 1.26-1.3 1.5-2.22.18-.66.22-1.32.24-1.94V4.7c0-.72-.2-1.4-.52-1.98zm-2.72 4.04c-.68.84-1.5 1.26-2.54 1.52-.36.08-.76.1-1.18.16h-.06c.08-.7.04-1.38.06-2 .04-1.16.08-2.34-.02-3.5.3 0 .56.02.84.04.58-.18 1.12.06 1.88.14h.06c.72.48 1.24 1.08 1.32 1.92.02.2.04.4.04.58v.02c.02.42-.12.74-.4 1.12zm15.708 6.08c-1.46-.08-2.94-.24-4.5-.06-1.08.14-.9.26-.96-.84 0-.2.04-.44.04-.74v-.02c-.02-.68.02-1.4-.06-2.14v.02c-.04-.46-.06-.88-.08-1.34-.06-1.08 0-2.18.04-3.3V4.4c0-.26.06-.66-.06-1.04-.1-.38-.06-.84-.08-1.38V1.4c0-.5-.52-.98-1.02-.96-.38 0-.94.08-1.34.5l.02-.02c-.2.2-.52.6-.44 1.1.2 1.36.24 2.7.12 4.12v-.02c-.08.78-.12 1.6-.04 2.4.14 1.16.06 2.32-.02 3.54-.04.38-.08.82-.06 1.26 0 .38.06.78.14 1.14v-.02c.12.68.74 1.1 1.4 1.06 1.06-.06 2.12-.14 3.2-.22.34-.02.7-.06 1.04-.08.72.02 2.46.62 3.34-.44.48-.62.44-1.84-.68-1.92zm19.457 1.18c-.06-.4-.2-.78-.4-1.16-.26-.64-.6-1.24-.76-1.88-.06-.22-.22-.56-.42-.84-.58-1.08-1.04-2.24-1.6-3.44-.56-1.28-1.06-2.38-1.7-3.68-.28-.62-.62-1.34-.98-1.98-.22-.46-.7-.74-1.14-.74-.36 0-.84.12-1.16.56-1.02 1.66-1.96 3.2-2.58 5.04-.24.62-.52 1.14-.82 1.7-.84 1.6-1.96 3.88-2.96 5.26-.24.28-.28.68-.32.6-.14.66.1 1.42.7 1.78-.1-.18.08.14.4.22.28.06.82.04 1.02-.34.22-.34.46-.76.7-1.16.22-.4.84-1.46 1.08-1.86.2-.28.36-.38.44-.34.56 0 1.04 0 1.58.08.62 0 1.26.06 1.92 0 .78-.14 1.64-.08 2.54-.14.5 0 .72.14.9.64.04.32.18.64.3.88.24.68.48 1.14.82 1.74.34.68 1.12.96 1.32.82.34-.22.54-.4.76-.56.28-.22.46-.76.36-1.2zm-7.38-4.86c-.68 0-1.36.06-2.02.12.06-.16.06-.28.08-.36.12-.24.24-.48.38-.86.22-.58.58-1.24.84-1.98.1-.38.38-.74.64-1.22.08-.18.2-.38.3-.6l.02.04c.64 1.44 1.3 2.96 1.96 4.5.02.02.02.08.04.18-.3.04-.6.06-.96.1-.42 0-.9.08-1.28.08zM58.1 1.56c.14.52-.04 1.1-.44 1.46-.16.16-.5.36-.76.28-.74-.24-1.64-.08-2.62-.28-.52-.08-1-.06-1.72-.06l-.14.08c-.02.46-.02.92-.02 1.74-.14 1.34.2 2.84.28 4.58.04.58.08.96.06 1.54 0 .4-.02.58-.02.9.02.8-.06 1.48.18 2.06.26.64-.34 1.48-.98 1.52l-.72.08c-.92.16-1.48-.14-1.54-1.16-.02-.26-.04-.54-.02-.82.02-1.28.08-2.54.1-3.8 0-.44-.04-.88-.04-1.36-.02-.62-.04-1.02-.04-1.68.02-.54.1-.98 0-1.38-.1-.36-.02-.7-.02-.9.02-.36.04-.7.02-1.02 0-.44.02-.38-.28-.4-.54-.04-1.08-.04-1.66-.06-.28 0-.4.04-.74.04-.28 0-.62-.02-.9-.12-.6-.18-1.08-.38-1.6-.4-.46 0-.72-.42-.72-.82 0-.24.18-.62.4-.8.26-.2.7-.44 1.2-.42.5.04 1 .1 1.5.12 1.4.1 2.76.2 4.14-.06.34-.06.7-.06 1-.06.8 0 1.66-.04 2.48.04.82.08 1.6.18 2.42.24.42.04 1.04.26 1.2.92zm4.633 8.8c.1-1.52-.2-3.28-.38-5.12-.12-1.1-.16-2.22-.08-3.34v.02c.02-.68.56-1.24 1.14-1.46.76-.3 1.64.22 1.74 1v-.02c0 .06.1.28 0 .56-.22.86-.12 1.7.08 2.66v.02c.1.62.06 1.22.12 1.72.22 1.78.36 3.98.36 5.76 0 .16.02.28.08.44.36.96-.06 1.82-.5 2.46-.26.38-.72.44-.96.44-.6.02-1.02-.28-1.18-.76-.36-.88-.56-1.84-.42-2.84v.02c.04-.26 0-1 0-1.56zm19.716-4.84c0-1.2.12-2.44.08-3.72v.02c0-.52-.54-1.28-1.06-1.38h.02c-.94-.24-1.7.6-1.68 1.48 0 .64-.02 1.26.02 1.94v-.02c.04 1.18.18 2.32.18 3.48-.02.92-.08 1.82-.16 2.74v.02l-.04.78c-.2-.22-.46-.44-.7-.76-.96-1.28-1.98-2.54-2.86-3.86-1.12-1.66-2.14-3.4-3.2-5.12-.28-.48-1.02-1.02-1.74-.48-.5.38-.7.94-.76 1.46-.06.76-.12 1.52-.12 2.3v-.02c-.02.6-.1 1.24-.1 1.9 0 1.54.16 3.08.08 4.58-.06 1.16-.04 2.28.02 3.42.04.96.82 1.26 1.5 1.1.26-.06 1.54-.04 1.38-1.38v-.02c-.08-.5-.14-1.02-.16-1.52-.04-1.34 0-2.72-.08-4.12-.06-.8-.14-1.58-.18-2.38l.1.14c.22.32.56 1 .82 1.4h.02c.28.4.56.8.82 1.2 1.24 1.78 2.48 3.6 3.8 5.3.24.34.54 1.26 1.32 1.5.48.14 1.36 0 1.76-.38l-.02.02c.82-.7.64-1.96.7-2.62v.02c.12-1.12.24-2.28.3-3.42.06-1.22-.08-2.42-.06-3.6zM96.7.44c-.1.02-.24.04-.38.1-.36.16-.72.56-.72 1.04-.02 1.06-.04 2.12-.04 3.22-.06.76-.22 1.62-.16 2.48.06.78-.32 1.58-.42 2.54-.44 1.1-.96 2.08-1.72 2.96-.3.36-.82.48-1.28.32l.02.02c-1.2-.44-1.88-1.26-2.1-2.52a5.27 5.27 0 0 1-.04-.56c-.06-1.36-.34-2.62-.34-3.92.02-.78-.02-1.58-.12-2.36-.08-.76-.18-1.48-.14-2.22v.02c.04-.54-.44-.94-.72-1.08-.92-.4-2.06.36-2.02 1.34.04.72.08 1.42.1 2.14.02.72.04 1.4-.02 2.08-.06.86.12 1.62.12 2.32 0 .94.18 1.82.26 2.64v.02c.22 1.88 1.44 3.22 2.88 4.12 1.4.88 3.74.84 5.18-.4.84-.76 1.54-1.7 2.04-2.7.7-1.4.9-2.92 1.16-4.32-.1-.72.06-1.48.08-2.32.02-1.16.1-2.32.16-3.5.06-1-.82-1.74-1.78-1.46zm21.837 12.6c-.06-.44-.08-.9-.1-1.38-.08-1.68.04-3.36 0-5.1-.02-.76-.08-1.54-.12-2.28.04-.86-.12-1.64-.12-2.38 0-.12.08-.52-.16-.8-.16-.2-.54-.68-.98-.68h-.02c-.66.02-1.6.38-1.98 1.2v.02c-.58 1.36-1.24 2.68-1.84 4.02-.72 1.56-1.52 3.36-2.22 4.9-.16.34-.36.88-.54 1.34-.14-.26-.36-.56-.5-.82l.02.02c-.78-1.68-1.58-3.18-2.08-4.8-.78-2.56-1.54-4.06-2.98-5.26-.26-.24-1.06-.68-1.5-.26-.18.18-.8.68-.86 1.24V2c-.12.9-.08 1.6-.02 2.44.06 1.02.2 2.14.24 3.02-.02.26.02.86.04 1.06l.06 1.02c.02.42.06.8.08 1.14 0 .14 0 .4-.04.46 0 1.1.04 1.92.06 2.98.02.84.38 1.6 1.36 1.32h-.02c.24-.06.68-.06 1.02-.48.34-.42.4-1.08.38-1.5-.02-.76-.06-1.52-.08-2.28-.04-.8-.3-2.92-.32-3.68-.02-.28-.02-.66 0-1.08.22.66.44 1.32.72 1.9.4.9 1.06 3.32 1.56 4.26.4.76.8 2.48 2.32 2.6.44.04 1.04.02 1.52-.2.56-.26.8-.78 1-1.2.6-1.22 1.04-2.5 1.6-3.68.4-.88.78-1.78 1.18-2.64l.4-.86c.04.7.22 1.24.16 1.92 0 .76-.02 1.48-.04 2.22-.02.78.16 1.46.18 2.08.02.44-.08 1.3.26 1.88.16.32.5.74 1.02.8 1.84.22 1.42-1.82 1.34-2.46z" fill="url(#paint0_linear)"/><defs><linearGradient id="paint0_linear" x1="59.84" y1="-5" x2="60.79" y2="18.879" gradientUnits="userSpaceOnUse"><stop stop-color="#F7FCFF" stop-opacity=".3"/><stop offset="1" stop-color="#F7FCFF" stop-opacity=".1"/></linearGradient></defs></svg>
