<svg width="120" height="16" viewBox="0 0 120 16" fill="none" xmlns="http://www.w3.org/2000/svg">
<path d="M11.32 7.72C11.16 7.4 10.94 7.08 10.74 6.78C10.48 6.42 10.04 5.96 9.5 5.86C8.82 5.7 8.06 5.32 7.1 5.42C6.68 5.46 6.24 5.42 5.74 5.42H5.72C5.72 5.42 5.24 5.44 5.02 5.42C4.8 5.4 4.52 5.34 4.18 5.34C3.86 5.36 3.46 5.42 3.1 5.56C2.5 5.84 1.94 6.92 2 7.54C2.06 8.04 2.18 8.46 2.16 8.84V8.86C2.14 10.04 2.14 11.22 2.12 12.4C2.1 13.56 2.02 14.76 2.12 15.98C2.18 16.8 2.2 17.8 2.1 18.6C2 19.46 2.64 20.62 3.76 20.5C4.32 20.42 4.68 20.02 4.82 19.58C5.2 18.44 4.96 17.12 4.94 16.12C5.32 15.94 5.6 15.78 5.9 15.7C6.46 15.54 7 15.38 7.52 15.3C8.08 15.2 8.6 14.96 9.04 14.64L9.02 14.66C9.38 14.42 9.76 14.16 10.1 13.88C10.78 13.34 11.36 12.58 11.6 11.66C11.78 11 11.82 10.34 11.84 9.72V9.7C11.84 8.98 11.64 8.3 11.32 7.72ZM8.6 11.76C7.92 12.6 7.1 13.02 6.06 13.28C5.7 13.36 5.3 13.38 4.88 13.44H4.82C4.9 12.74 4.86 12.06 4.88 11.44C4.92 10.28 4.96 9.1 4.86 7.94C5.16 7.94 5.42 7.96 5.7 7.98C6.28 7.8 6.82 8.04 7.58 8.12H7.64C8.36 8.6 8.88 9.2 8.96 10.04C8.98 10.24 9 10.44 9 10.62V10.64C9.02 11.06 8.88 11.38 8.6 11.76ZM24.3077 17.84C22.8477 17.76 21.3677 17.6 19.8077 17.78C18.7277 17.92 18.9077 18.04 18.8477 16.94C18.8477 16.74 18.8877 16.5 18.8877 16.2V16.18C18.8677 15.5 18.9077 14.78 18.8277 14.04V14.06C18.7877 13.6 18.7677 13.18 18.7477 12.72C18.6877 11.64 18.7477 10.54 18.7877 9.42V9.4C18.7877 9.14 18.8477 8.74 18.7277 8.36C18.6277 7.98 18.6677 7.52 18.6477 6.98V6.4C18.6477 5.9 18.1277 5.42 17.6277 5.44C17.2477 5.44 16.6877 5.52 16.2877 5.94L16.3077 5.92C16.1077 6.12 15.7877 6.52 15.8677 7.02C16.0677 8.38 16.1077 9.72 15.9877 11.14V11.12C15.9077 11.9 15.8677 12.72 15.9477 13.52C16.0877 14.68 16.0077 15.84 15.9277 17.06C15.8877 17.44 15.8477 17.88 15.8677 18.32C15.8677 18.7 15.9277 19.1 16.0077 19.46V19.44C16.1277 20.12 16.7477 20.54 17.4077 20.5C18.4677 20.44 19.5277 20.36 20.6077 20.28C20.9477 20.26 21.3077 20.22 21.6477 20.2C22.3677 20.22 24.1077 20.82 24.9877 19.76C25.4677 19.14 25.4277 17.92 24.3077 17.84ZM43.7652 19.02C43.7052 18.62 43.5652 18.24 43.3652 17.86C43.1052 17.22 42.7652 16.62 42.6052 15.98C42.5452 15.76 42.3852 15.42 42.1852 15.14C41.6052 14.06 41.1452 12.9 40.5852 11.7C40.0252 10.42 39.5252 9.32 38.8852 8.02C38.6052 7.4 38.2652 6.68 37.9052 6.04C37.6852 5.58 37.2052 5.3 36.7652 5.3C36.4052 5.3 35.9252 5.42 35.6052 5.86C34.5852 7.52 33.6452 9.06 33.0252 10.9C32.7852 11.52 32.5052 12.04 32.2052 12.6C31.3652 14.2 30.2452 16.48 29.2452 17.86C29.0052 18.14 28.9652 18.54 28.9252 18.46C28.7852 19.12 29.0252 19.88 29.6252 20.24C29.5252 20.06 29.7052 20.38 30.0252 20.46C30.3052 20.52 30.8452 20.5 31.0452 20.12C31.2652 19.78 31.5052 19.36 31.7452 18.96C31.9652 18.56 32.5852 17.5 32.8252 17.1C33.0252 16.82 33.1852 16.72 33.2652 16.76C33.8252 16.76 34.3052 16.76 34.8452 16.84C35.4652 16.84 36.1052 16.9 36.7652 16.84C37.5452 16.7 38.4052 16.76 39.3052 16.7C39.8052 16.7 40.0252 16.84 40.2052 17.34C40.2452 17.66 40.3852 17.98 40.5052 18.22C40.7452 18.9 40.9852 19.36 41.3252 19.96C41.6652 20.64 42.4452 20.92 42.6452 20.78C42.9852 20.56 43.1852 20.38 43.4052 20.22C43.6852 20 43.8652 19.46 43.7652 19.02ZM36.3852 14.16C35.7052 14.16 35.0252 14.22 34.3652 14.28C34.4252 14.12 34.4252 14 34.4452 13.92C34.5652 13.68 34.6852 13.44 34.8252 13.06C35.0452 12.48 35.4052 11.82 35.6652 11.08C35.7652 10.7 36.0452 10.34 36.3052 9.86C36.3852 9.68 36.5052 9.48 36.6052 9.26L36.6252 9.3C37.2652 10.74 37.9252 12.26 38.5852 13.8C38.6052 13.82 38.6052 13.88 38.6252 13.98C38.3252 14.02 38.0252 14.04 37.6652 14.08C37.2452 14.08 36.7652 14.16 36.3852 14.16ZM59.7314 6.56C59.8714 7.08 59.6914 7.66 59.2914 8.02C59.1314 8.18 58.7914 8.38 58.5314 8.3C57.7914 8.06 56.8914 8.22 55.9114 8.02C55.3914 7.94 54.9114 7.96 54.1914 7.96L54.0514 8.04C54.0314 8.5 54.0314 8.96 54.0314 9.78C53.8914 11.12 54.2314 12.62 54.3114 14.36C54.3514 14.94 54.3914 15.32 54.3714 15.9C54.3714 16.3 54.3514 16.48 54.3514 16.8C54.3714 17.6 54.2914 18.28 54.5314 18.86C54.7914 19.5 54.1914 20.34 53.5514 20.38L52.8314 20.46C51.9114 20.62 51.3514 20.32 51.2914 19.3C51.2714 19.04 51.2514 18.76 51.2714 18.48C51.2914 17.2 51.3514 15.94 51.3714 14.68C51.3714 14.24 51.3314 13.8 51.3314 13.32C51.3114 12.7 51.2914 12.3 51.2914 11.64C51.3114 11.1 51.3914 10.66 51.2914 10.26C51.1914 9.9 51.2714 9.56 51.2714 9.36C51.2914 9 51.3114 8.66 51.2914 8.34C51.2914 7.9 51.3114 7.96 51.0114 7.94C50.4714 7.9 49.9314 7.9 49.3514 7.88C49.0714 7.88 48.9514 7.92 48.6114 7.92C48.3314 7.92 47.9914 7.9 47.7114 7.8C47.1114 7.62 46.6314 7.42 46.1114 7.4C45.6514 7.4 45.3914 6.98 45.3914 6.58C45.3914 6.34 45.5714 5.96 45.7914 5.78C46.0514 5.58 46.4914 5.34 46.9914 5.36C47.4914 5.4 47.9914 5.46 48.4914 5.48C49.8914 5.58 51.2514 5.68 52.6314 5.42C52.9714 5.36 53.3314 5.36 53.6314 5.36C54.4314 5.36 55.2914 5.32 56.1114 5.4C56.9314 5.48 57.7114 5.58 58.5314 5.64C58.9514 5.68 59.5714 5.9 59.7314 6.56ZM64.3648 15.36C64.4648 13.84 64.1648 12.08 63.9848 10.24C63.8648 9.14 63.8248 8.02 63.9048 6.9V6.92C63.9248 6.24 64.4648 5.68 65.0448 5.46C65.8048 5.16 66.6848 5.68 66.7848 6.46V6.44C66.7848 6.5 66.8848 6.72 66.7848 7C66.5648 7.86 66.6648 8.7 66.8648 9.66V9.68C66.9648 10.3 66.9248 10.9 66.9848 11.4C67.2048 13.18 67.3448 15.38 67.3448 17.16C67.3448 17.32 67.3648 17.44 67.4248 17.6C67.7848 18.56 67.3648 19.42 66.9248 20.06C66.6648 20.44 66.2048 20.5 65.9648 20.5C65.3648 20.52 64.9448 20.22 64.7848 19.74C64.4248 18.86 64.2248 17.9 64.3648 16.9V16.92C64.4048 16.66 64.3648 15.92 64.3648 15.36ZM84.0809 10.52C84.0809 9.32 84.2009 8.08 84.1609 6.8V6.82C84.1609 6.3 83.6209 5.54 83.1009 5.44H83.1209C82.1809 5.2 81.4209 6.04 81.4409 6.92C81.4409 7.56 81.4209 8.18 81.4609 8.86V8.84C81.5009 10.02 81.6409 11.16 81.6409 12.32C81.6209 13.24 81.5609 14.14 81.4809 15.06V15.08L81.4409 15.86C81.2409 15.64 80.9809 15.42 80.7409 15.1C79.7809 13.82 78.7609 12.56 77.8809 11.24C76.7609 9.58 75.7409 7.84 74.6809 6.12C74.4009 5.64 73.6609 5.1 72.9409 5.64C72.4409 6.02 72.2409 6.58 72.1809 7.1C72.1209 7.86 72.0609 8.62 72.0609 9.4V9.38C72.0409 9.98 71.9609 10.62 71.9609 11.28C71.9609 12.82 72.1209 14.36 72.0409 15.86C71.9809 17.02 72.0009 18.14 72.0609 19.28C72.1009 20.24 72.8809 20.54 73.5609 20.38C73.8209 20.32 75.1009 20.34 74.9409 19V18.98C74.8609 18.48 74.8009 17.96 74.7809 17.46C74.7409 16.12 74.7809 14.74 74.7009 13.34C74.6409 12.54 74.5609 11.76 74.5209 10.96L74.6209 11.1C74.8409 11.42 75.1809 12.1 75.4409 12.5H75.4609C75.7409 12.9 76.0209 13.3 76.2809 13.7C77.5209 15.48 78.7609 17.3 80.0809 19C80.3209 19.34 80.6209 20.26 81.4009 20.5C81.8809 20.64 82.7609 20.5 83.1609 20.12L83.1409 20.14C83.9609 19.44 83.7809 18.18 83.8409 17.52V17.54C83.9609 16.42 84.0809 15.26 84.1409 14.12C84.2009 12.9 84.0609 11.7 84.0809 10.52ZM98.3323 5.44C98.2323 5.46 98.0923 5.48 97.9523 5.54C97.5923 5.7 97.2323 6.1 97.2323 6.58C97.2123 7.64 97.1923 8.7 97.1923 9.8C97.1323 10.56 96.9723 11.42 97.0323 12.28C97.0923 13.06 96.7123 13.86 96.6123 14.82C96.1723 15.92 95.6523 16.9 94.8923 17.78C94.5923 18.14 94.0723 18.26 93.6123 18.1L93.6323 18.12C92.4323 17.68 91.7523 16.86 91.5323 15.6C91.5123 15.42 91.4923 15.22 91.4923 15.04C91.4323 13.68 91.1523 12.42 91.1523 11.12C91.1723 10.34 91.1323 9.54 91.0323 8.76C90.9523 8 90.8523 7.28 90.8923 6.54V6.56C90.9323 6.02 90.4523 5.62 90.1723 5.48C89.2523 5.08 88.1123 5.84 88.1523 6.82C88.1923 7.54 88.2323 8.24 88.2523 8.96C88.2723 9.68 88.2923 10.36 88.2323 11.04C88.1723 11.9 88.3523 12.66 88.3523 13.36C88.3523 14.3 88.5323 15.18 88.6123 16V16.02C88.8323 17.9 90.0523 19.24 91.4923 20.14C92.8923 21.02 95.2323 20.98 96.6723 19.74C97.5123 18.98 98.2123 18.04 98.7123 17.04C99.4123 15.64 99.6123 14.12 99.8723 12.72C99.7723 12 99.9323 11.24 99.9523 10.4C99.9723 9.24 100.052 8.08 100.112 6.9C100.172 5.9 99.2923 5.16 98.3323 5.44ZM120.169 18.04C120.109 17.6 120.089 17.14 120.069 16.66C119.989 14.98 120.109 13.3 120.069 11.56C120.049 10.8 119.989 10.02 119.949 9.28C119.989 8.42 119.829 7.64 119.829 6.9C119.829 6.78 119.909 6.38 119.669 6.1C119.509 5.9 119.129 5.42 118.689 5.42H118.669C118.009 5.44 117.069 5.8 116.689 6.62V6.64C116.109 8 115.449 9.32 114.849 10.66C114.129 12.22 113.329 14.02 112.629 15.56C112.469 15.9 112.269 16.44 112.089 16.9C111.949 16.64 111.729 16.34 111.589 16.08L111.609 16.1C110.829 14.42 110.029 12.92 109.529 11.3C108.749 8.74 107.989 7.24 106.549 6.04C106.289 5.8 105.489 5.36 105.049 5.78C104.869 5.96 104.249 6.46 104.189 7.02V7C104.069 7.9 104.109 8.6 104.169 9.44C104.229 10.46 104.369 11.58 104.409 12.46C104.389 12.72 104.429 13.32 104.449 13.52L104.509 14.54C104.529 14.96 104.569 15.34 104.589 15.68C104.589 15.82 104.589 16.08 104.549 16.14C104.549 17.24 104.589 18.06 104.609 19.12C104.629 19.96 104.989 20.72 105.969 20.44H105.949C106.189 20.38 106.629 20.38 106.969 19.96C107.309 19.54 107.369 18.88 107.349 18.46C107.329 17.7 107.289 16.94 107.269 16.18C107.229 15.38 106.969 13.26 106.949 12.5C106.929 12.22 106.929 11.84 106.949 11.42C107.169 12.08 107.389 12.74 107.669 13.32C108.069 14.22 108.729 16.64 109.229 17.58C109.629 18.34 110.029 20.06 111.549 20.18C111.989 20.22 112.589 20.2 113.069 19.98C113.629 19.72 113.869 19.2 114.069 18.78C114.669 17.56 115.109 16.28 115.669 15.1C116.069 14.22 116.449 13.32 116.849 12.46L117.249 11.6C117.289 12.3 117.469 12.84 117.409 13.52C117.409 14.28 117.389 15 117.369 15.74C117.349 16.52 117.529 17.2 117.549 17.82C117.569 18.26 117.469 19.12 117.809 19.7C117.969 20.02 118.309 20.44 118.829 20.5C120.669 20.72 120.249 18.68 120.169 18.04Z" transform="translate(-1 -5)" fill="url(#paint0_linear)"/>
<defs>
<linearGradient id="paint0_linear" x2="1" gradientUnits="userSpaceOnUse" gradientTransform="matrix(1.23168e-07 -28.0002 132.608 4.18352 0.813526 25.9084)">
<stop stop-color="#8A5C16"/>
<stop offset="1" stop-color="#8A5C16" stop-opacity="0.2"/>
</linearGradient>
</defs>
</svg>
