<svg width="54" height="16" viewBox="0 0 54 16" fill="none" xmlns="http://www.w3.org/2000/svg">
<path d="M14.3923 12.7C14.2523 11.78 14.0923 10.82 13.9123 9.9C13.5723 8.36 12.5323 7.26 11.3123 6.52C10.7123 6.14 10.0923 5.9 9.57227 5.6L9.55227 5.58C8.71227 5.12 7.85227 5.14 6.99227 5.5C6.41227 5.72 5.99227 5.9 5.67227 6.1L3.53227 7.88C2.69227 8.78 2.39227 9.84 2.21227 11.02C2.15227 11.22 2.15227 11.36 2.13227 11.42C1.83227 12.82 1.81227 14.28 1.95227 15.7C2.13227 17.32 3.07227 18.5 4.27227 19.38C4.91227 19.86 5.59227 19.98 6.07227 20.28C6.61227 20.64 7.31227 20.76 7.91227 20.68C8.59227 20.58 9.27227 20.4 9.89227 20.22H9.91227C10.1523 20.14 10.3923 20.02 10.5923 19.88C11.1123 20.26 11.6923 20.66 12.3523 20.8C14.1123 21.2 14.5523 19.48 13.3323 18.5C13.1123 18.3 12.8723 18.14 12.6323 18C12.8723 17.76 13.0923 17.5 13.2923 17.24C13.6923 16.72 14.0523 16.1 14.2323 15.46V15.44C14.3923 14.8 14.4123 14.2 14.4923 13.68C14.4523 13.36 14.4523 13.04 14.3923 12.7ZM6.19227 17.3C5.23227 16.66 4.65227 15.82 4.59227 14.66C4.57227 14.3 4.59227 13.94 4.59227 13.26C4.63227 12.86 4.67227 12.18 4.79227 11.52C4.89227 10.86 5.11227 10.28 5.43227 9.68C5.91227 8.84 6.19227 8.62 7.11227 8.2V8.18C7.49227 8 8.23227 7.74 8.51227 7.86C9.21227 8.1 9.73227 8.32 10.3123 8.72C10.7723 9.04 10.8923 9.5 11.0923 10.18C11.3923 11.16 11.5523 12 11.6323 13.02C11.6523 13.28 11.6523 13.54 11.6523 13.82C11.6523 14.74 11.4723 15.36 10.9123 16L10.6323 16.32C10.3923 16.02 10.1123 15.72 9.77227 15.54C9.25227 15.26 8.63227 15.34 8.21227 15.58L8.19227 15.6C7.67227 15.92 7.45227 16.68 7.85227 17.2C8.01227 17.44 8.23227 17.7 8.47227 17.98C8.31227 18 8.15227 18.02 7.99227 18.02C7.05227 17.96 6.83227 17.74 6.19227 17.3ZM28.5804 5.44C28.4804 5.46 28.3404 5.48 28.2004 5.54C27.8404 5.7 27.4804 6.1 27.4804 6.58C27.4604 7.64 27.4404 8.7 27.4404 9.8C27.3804 10.56 27.2204 11.42 27.2804 12.28C27.3404 13.06 26.9604 13.86 26.8604 14.82C26.4204 15.92 25.9004 16.9 25.1404 17.78C24.8404 18.14 24.3204 18.26 23.8604 18.1L23.8804 18.12C22.6804 17.68 22.0004 16.86 21.7804 15.6C21.7604 15.42 21.7404 15.22 21.7404 15.04C21.6804 13.68 21.4004 12.42 21.4004 11.12C21.4204 10.34 21.3804 9.54 21.2804 8.76C21.2004 8 21.1004 7.28 21.1404 6.54V6.56C21.1804 6.02 20.7004 5.62 20.4204 5.48C19.5004 5.08 18.3604 5.84 18.4004 6.82C18.4404 7.54 18.4804 8.24 18.5004 8.96C18.5204 9.68 18.5404 10.36 18.4804 11.04C18.4204 11.9 18.6004 12.66 18.6004 13.36C18.6004 14.3 18.7804 15.18 18.8604 16V16.02C19.0804 17.9 20.3004 19.24 21.7404 20.14C23.1404 21.02 25.4804 20.98 26.9204 19.74C27.7604 18.98 28.4604 18.04 28.9604 17.04C29.6604 15.64 29.8604 14.12 30.1204 12.72C30.0204 12 30.1804 11.24 30.2004 10.4C30.2204 9.24 30.3004 8.08 30.3604 6.9C30.4204 5.9 29.5404 5.16 28.5804 5.44ZM35.2574 15.36C35.3574 13.84 35.0574 12.08 34.8774 10.24C34.7574 9.14 34.7174 8.02 34.7974 6.9V6.92C34.8174 6.24 35.3574 5.68 35.9374 5.46C36.6974 5.16 37.5774 5.68 37.6774 6.46V6.44C37.6774 6.5 37.7774 6.72 37.6774 7C37.4574 7.86 37.5574 8.7 37.7574 9.66V9.68C37.8574 10.3 37.8174 10.9 37.8774 11.4C38.0974 13.18 38.2374 15.38 38.2374 17.16C38.2374 17.32 38.2574 17.44 38.3174 17.6C38.6774 18.56 38.2574 19.42 37.8174 20.06C37.5574 20.44 37.0974 20.5 36.8574 20.5C36.2574 20.52 35.8374 20.22 35.6774 19.74C35.3174 18.86 35.1174 17.9 35.2574 16.9V16.92C35.2974 16.66 35.2574 15.92 35.2574 15.36ZM53.2735 17.74C52.2535 17.82 51.2335 17.94 50.2135 17.9H50.2335C49.3535 17.84 48.4935 17.82 47.6535 17.78H47.6735L47.1935 17.74C47.6135 17.06 47.9935 16.4 48.4735 15.82C49.0335 15.16 49.7735 14.5 50.2535 13.62C50.2935 13.5 51.8735 11.66 51.9935 11.52C52.8535 10.46 53.4935 9.24 54.2535 8.2C54.4935 7.9 54.6535 7.58 54.8135 7.3C55.1735 6.58 54.7335 5.6 53.8935 5.46C53.4935 5.4 53.0335 5.38 52.6135 5.38C51.8535 5.38 51.1135 5.44 50.3735 5.46H50.3535C49.9935 5.48 49.5535 5.44 49.0935 5.54H49.0735C48.3135 5.72 47.5335 5.66 46.6735 5.6C46.2935 5.58 45.9335 5.58 45.5735 5.58C45.2135 5.58 44.8335 5.78 44.6135 5.96C44.1535 6.34 44.1735 6.96 44.5535 7.36C44.8335 7.62 45.2535 7.88 45.7135 7.9C46.7135 7.94 47.6735 7.88 48.6335 7.78C49.4335 7.7 50.2535 7.72 51.1135 7.78C50.6135 8.82 49.9935 9.74 49.2535 10.64C48.8535 11.12 48.4535 11.58 48.0535 12.1C47.8135 12.42 47.5535 12.74 47.2935 13.04C46.6335 13.72 46.0535 14.42 45.4935 15.14C44.5535 16.3 43.8535 17.56 42.9935 18.6C42.7335 18.92 42.8735 19.52 43.1135 19.8C43.3735 20.14 43.8135 20.38 44.1935 20.46C44.6535 20.54 45.1535 20.54 45.5735 20.48C46.1135 20.36 46.6535 20.34 47.2535 20.34H47.2735C47.9335 20.32 48.6335 20.42 49.2935 20.44C50.0935 20.4 50.7535 20.3 51.4335 20.38C52.2735 20.44 53.0535 20.3 53.7535 20.18H53.7735C54.1135 20.1 54.4135 19.84 54.5735 19.58C54.6535 19.42 54.7535 19.22 54.8335 19.02C55.0935 18.4 54.5735 17.64 53.8935 17.68L53.2735 17.74ZM47.0535 17.96L46.9935 18.06V18.04L47.0535 17.96Z" transform="translate(-1 -5)" fill="url(#paint0_linear)"/>
<defs>
<linearGradient id="paint0_linear" x2="1" gradientUnits="userSpaceOnUse" gradientTransform="matrix(2.82681e-06 23.9167 -48.5793 4.17193 52.9471 -2.08596)">
<stop stop-color="#F7FCFF" stop-opacity="0.3"/>
<stop offset="1" stop-color="#F7FCFF" stop-opacity="0.1"/>
</linearGradient>
</defs>
</svg>
