<svg width="125" height="28" viewBox="0 0 125 28" fill="none" xmlns="http://www.w3.org/2000/svg">
<path fill-rule="evenodd" clip-rule="evenodd" d="M41.0605 4.4729L43.3862 0H50.0957V4.4729H41.0605ZM36.5879 13.5081L25.2266 13.5078V8.67725H39.0029L41.0605 4.4729L20.7539 4.47266V27.1052H29.7891L32.1147 22.5432H50.0957V17.981H34.3511L32.1147 22.5432L25.2266 22.543V17.6228H34.5303L36.5879 13.5081ZM36.5879 13.5081H50.0063V8.9458H38.8242L36.5879 13.5081ZM69.687 10.9136L72.9072 7.78271C70.9395 5.63574 67.9873 4.3833 64.4092 4.20435C57.521 4.20435 52.5112 9.12451 52.5112 15.9231C52.5112 23.2588 58.0576 27.6421 64.3193 27.6421C70.6709 27.6421 75.3228 22.8113 75.3228 16.0127C75.3228 15.5654 75.3228 15.2075 75.2334 14.7603H64.8564V18.5176H70.5815C69.9556 21.7378 67.8086 23.5271 64.1406 23.5271C60.2046 23.5271 57.0737 20.575 57.0737 16.0127C57.0737 11.6292 60.1152 8.58765 64.23 8.58765C66.5562 8.58765 68.4346 9.39282 69.687 10.9136ZM94.1089 27.3743L82.0322 12.2561V27.3743H77.4697V4.7417H81.6743L93.8403 19.8599V4.7417H98.4028V27.3743H94.1089ZM112.626 23.4377C108.511 23.4377 105.47 20.3962 105.47 16.0127C105.47 11.6294 108.422 8.67725 112.626 8.58789C116.831 8.58789 119.783 11.6294 119.783 16.0127C119.783 20.3962 116.831 23.4377 112.626 23.4377ZM112.537 27.7317C119.515 27.7317 124.435 22.8115 124.435 16.0127C124.435 9.30347 119.515 4.3833 112.537 4.29395C105.648 4.29395 100.729 9.30347 100.729 16.0127C100.729 22.8115 105.559 27.7317 112.537 27.7317ZM11.4507 14.0444L10.1982 13.8657C8.85645 13.6868 7.78271 13.4185 6.97754 13.0605C6.44092 12.7922 6.08301 12.5237 5.81494 12.166C5.63574 11.8975 5.54639 11.6292 5.54639 11.2715C5.54639 10.1084 6.35156 9.30322 7.69336 8.85596C8.22998 8.67725 8.85645 8.58765 9.48242 8.58765H9.84033C12.3452 8.58765 14.4922 9.39282 16.2812 10.4663L18.4282 6.79858C16.1919 5.45679 14.2236 4.74097 11.8979 4.56201C11.3608 4.47266 10.8242 4.47266 10.2876 4.47266H9.75098C4.91992 4.47266 0.71582 6.88794 0.71582 11.6292C0.71582 13.9551 1.69971 15.5654 3.22021 16.5493C3.43604 16.7112 3.68457 16.8406 3.9458 16.9766L3.9585 16.9832C4.12646 17.0708 4.2998 17.1611 4.47266 17.2649C5.36719 17.6228 6.44092 17.9807 7.51416 18.1597L8.9458 18.428C12.0767 18.9646 13.7764 19.5015 13.7764 21.1116C13.7764 22.8113 11.8979 23.7954 9.30371 23.7954C6.35156 23.7954 3.75732 22.6323 2.14697 21.3801L0 25.1372C2.41553 27.0159 5.99365 27.9998 9.30371 27.9998C14.1343 27.9998 18.5176 25.5845 18.5176 20.6643C18.6963 16.46 15.4761 14.6707 11.4507 14.0444Z" fill="url(#paint0_linear)"/>
<defs>
<linearGradient id="paint0_linear" x2="1" gradientUnits="userSpaceOnUse" gradientTransform="matrix(6.17111e-06 23.9165 -106.052 4.17189 115.587 -2.08595)">
<stop stop-color="#F7FCFF" stop-opacity="0.2"/>
<stop offset="1" stop-color="#F7FCFF" stop-opacity="0.05"/>
</linearGradient>
</defs>
</svg>
