<svg width="77" height="16" viewBox="0 0 77 16" fill="none" xmlns="http://www.w3.org/2000/svg">
<path d="M9.84 15.88C9.56 15.4 9.2 15.06 8.7 14.8L8.68 14.78C8.08 14.44 7.5 14.1 6.88 13.84C6 13.5 5.22 13.02 4.44 12.6C3.72 12.2 3.16 11.56 2.82 10.84C2.66 10.48 2.54 10.04 2.56 9.64C2.62 7.92 3.52 6.56 4.98 5.68C5.72 5.24 6.6 5.16 7.32 5.18C8.14 5.22 9 5.34 9.82 5.58C10.64 5.88 11.42 6.28 12.04 6.92C12.56 7.38 12.86 8.02 12.98 8.66C13.02 8.88 12.88 9.28 12.7 9.48C12.14 10.04 11.18 10.02 10.7 9.4C10.68 9.38 10.54 9.28 10.46 9.04C10.32 8.62 10 8.42 9.5 8.16C9 7.94 8.54 7.72 8.02 7.6C7.62 7.5 7.24 7.46 6.86 7.54V7.52C6.1 7.7 5.54 8.2 5.44 9V9.16C5.36 9.72 5.56 10.06 6.04 10.32C6.86 10.8 7.6 11.28 8.46 11.56L8.48 11.58C8.94 11.74 9.38 11.96 9.82 12.18C10.98 12.76 11.82 13.74 12.54 14.7H12.56C12.82 15.08 12.9 15.5 12.96 15.8C13.32 17.18 12.9 18.46 11.8 19.34C11.58 19.5 11.34 19.7 11.08 19.88L11.1 19.86C10.96 19.96 10.7 20.16 10.44 20.22C9.2 20.5 7.88 20.8 6.5 20.66C5.68 20.58 4.9 20.26 4.2 19.96H4.22C3.6 19.72 3.16 19.14 2.9 18.68C2.52 18.04 2.18 17.32 2.02 16.58C1.94 16.18 2.18 15.62 2.58 15.44H2.56C2.94 15.24 3.4 15.18 3.78 15.2C4.08 15.22 4.6 15.52 4.68 15.88V15.86C4.74 16.1 4.82 16.36 4.86 16.6C4.9 16.88 5.02 17.04 5.28 17.3H5.26C5.78 17.82 6.46 18.08 7.22 18.36C8.18 18.4 9 18.38 9.8 17.98H9.78C9.84 17.96 9.9 17.86 10 17.72V17.74C10.22 17.42 10.32 17.08 10.36 16.7L9.84 15.88ZM30.122 6.56C30.262 7.08 30.082 7.66 29.682 8.02C29.522 8.18 29.182 8.38 28.922 8.3C28.182 8.06 27.282 8.22 26.302 8.02C25.782 7.94 25.302 7.96 24.582 7.96L24.442 8.04C24.422 8.5 24.422 8.96 24.422 9.78C24.282 11.12 24.622 12.62 24.702 14.36C24.742 14.94 24.782 15.32 24.762 15.9C24.762 16.3 24.742 16.48 24.742 16.8C24.762 17.6 24.682 18.28 24.922 18.86C25.182 19.5 24.582 20.34 23.942 20.38L23.222 20.46C22.302 20.62 21.742 20.32 21.682 19.3C21.662 19.04 21.642 18.76 21.662 18.48C21.682 17.2 21.742 15.94 21.762 14.68C21.762 14.24 21.722 13.8 21.722 13.32C21.702 12.7 21.682 12.3 21.682 11.64C21.702 11.1 21.782 10.66 21.682 10.26C21.582 9.9 21.662 9.56 21.662 9.36C21.682 9 21.702 8.66 21.682 8.34C21.682 7.9 21.702 7.96 21.402 7.94C20.862 7.9 20.322 7.9 19.742 7.88C19.462 7.88 19.342 7.92 19.002 7.92C18.722 7.92 18.382 7.9 18.102 7.8C17.502 7.62 17.022 7.42 16.502 7.4C16.042 7.4 15.782 6.98 15.782 6.58C15.782 6.34 15.962 5.96 16.182 5.78C16.442 5.58 16.882 5.34 17.382 5.36C17.882 5.4 18.382 5.46 18.882 5.48C20.282 5.58 21.642 5.68 23.022 5.42C23.362 5.36 23.722 5.36 24.022 5.36C24.822 5.36 25.682 5.32 26.502 5.4C27.322 5.48 28.102 5.58 28.922 5.64C29.342 5.68 29.962 5.9 30.122 6.56ZM46.2755 13.68C46.1955 14.2 46.1755 14.8 46.0155 15.44V15.46C45.8355 16.1 45.4755 16.72 45.0755 17.24C44.3755 18.12 43.5555 18.92 42.7155 19.62C42.4555 19.84 42.0955 20.1 41.6955 20.22H41.6755C41.0555 20.4 40.3755 20.58 39.6955 20.68C39.0955 20.76 38.3955 20.64 37.8555 20.28C37.3755 19.98 36.6955 19.86 36.0555 19.38C34.8555 18.5 33.9155 17.32 33.7355 15.7C33.5955 14.28 33.6155 12.82 33.9155 11.42C33.9355 11.36 33.9355 11.22 33.9955 11.02C34.1755 9.84 34.4755 8.78 35.3155 7.88L37.4555 6.1C37.7755 5.9 38.1955 5.72 38.7755 5.5C39.6355 5.14 40.4955 5.12 41.3355 5.58L41.3555 5.6C41.8755 5.9 42.4955 6.14 43.0955 6.52C44.3155 7.26 45.3555 8.36 45.6955 9.9C45.8755 10.82 46.0355 11.78 46.1755 12.7C46.2355 13.04 46.2355 13.36 46.2755 13.68ZM36.3755 13.26C36.3755 13.94 36.3555 14.3 36.3755 14.66C36.4355 15.82 37.0155 16.66 37.9755 17.3C38.6155 17.74 38.8355 17.96 39.7755 18.02C40.4955 18.02 41.1955 17.76 41.6555 17.2L41.6755 17.18C41.9955 16.82 42.3355 16.4 42.6955 16C43.2555 15.36 43.4355 14.74 43.4355 13.82C43.4355 13.54 43.4355 13.28 43.4155 13.02C43.3355 12 43.1755 11.16 42.8755 10.18C42.6755 9.5 42.5555 9.04 42.0955 8.72C41.5155 8.32 40.9955 8.1 40.2955 7.86C40.0155 7.74 39.2755 8 38.8955 8.18V8.2C37.9755 8.62 37.6955 8.84 37.2155 9.68C36.8955 10.28 36.6755 10.86 36.5755 11.52C36.4555 12.18 36.4155 12.86 36.3755 13.26ZM62.1864 10.52C62.1864 9.32 62.3064 8.08 62.2664 6.8V6.82C62.2664 6.3 61.7264 5.54 61.2064 5.44H61.2264C60.2864 5.2 59.5264 6.04 59.5464 6.92C59.5464 7.56 59.5264 8.18 59.5664 8.86V8.84C59.6064 10.02 59.7464 11.16 59.7464 12.32C59.7264 13.24 59.6664 14.14 59.5864 15.06V15.08L59.5464 15.86C59.3464 15.64 59.0864 15.42 58.8464 15.1C57.8864 13.82 56.8664 12.56 55.9864 11.24C54.8664 9.58 53.8464 7.84 52.7864 6.12C52.5064 5.64 51.7664 5.1 51.0464 5.64C50.5464 6.02 50.3464 6.58 50.2864 7.1C50.2264 7.86 50.1664 8.62 50.1664 9.4V9.38C50.1464 9.98 50.0664 10.62 50.0664 11.28C50.0664 12.82 50.2264 14.36 50.1464 15.86C50.0864 17.02 50.1064 18.14 50.1664 19.28C50.2064 20.24 50.9864 20.54 51.6664 20.38C51.9264 20.32 53.2064 20.34 53.0464 19V18.98C52.9664 18.48 52.9064 17.96 52.8864 17.46C52.8464 16.12 52.8864 14.74 52.8064 13.34C52.7464 12.54 52.6664 11.76 52.6264 10.96L52.7264 11.1C52.9464 11.42 53.2864 12.1 53.5464 12.5H53.5664C53.8464 12.9 54.1264 13.3 54.3864 13.7C55.6264 15.48 56.8664 17.3 58.1864 19C58.4264 19.34 58.7264 20.26 59.5064 20.5C59.9864 20.64 60.8664 20.5 61.2664 20.12L61.2464 20.14C62.0664 19.44 61.8864 18.18 61.9464 17.52V17.54C62.0664 16.42 62.1864 15.26 62.2464 14.12C62.3064 12.9 62.1664 11.7 62.1864 10.52ZM77.6578 18.82C77.4778 18.26 76.8378 17.74 76.2378 17.8H76.2178C75.6578 17.88 74.9578 17.8 74.2378 18C73.5778 17.92 72.8978 17.8 72.1978 17.74H72.2178C71.8178 17.7 71.3978 17.76 71.0978 17.76H71.0778C70.4978 17.78 69.9378 17.82 69.3978 17.82C69.3178 17.82 69.2178 17.72 69.2178 17.64C69.2378 16.56 69.2378 15.5 69.2578 14.42C70.5978 14.42 71.9378 14.42 73.2778 14.4C73.4978 14.4 73.7778 14.38 74.0178 14.3C74.2578 14.22 74.4778 13.94 74.5378 13.84C75.0378 12.7 74.1778 11.84 73.2378 11.86C72.8378 11.86 72.4178 11.84 71.9378 11.92C71.1778 12.04 70.3978 12 69.5978 11.96C69.3978 11.94 69.2778 11.92 69.1778 11.88C69.0178 10.66 68.9578 9.48 69.0978 8.24C69.1378 7.88 69.1378 7.86 69.4778 7.88H69.4978C69.7778 7.88 69.9778 7.86 70.1378 7.9C71.2778 8.18 72.4578 8.1 73.5378 7.96C74.3978 7.84 75.1978 7.8 76.0178 7.94C76.1778 7.96 76.3978 7.98 76.5978 7.96C76.7978 7.94 76.9978 7.88 77.1578 7.84C77.9778 7.54 78.2578 6.62 77.7578 5.94C77.4178 5.54 77.2378 5.62 77.3978 5.6C76.7978 5.28 76.0378 5.38 75.5178 5.4C74.7578 5.44 72.8978 5.5 71.9578 5.5C71.3978 5.5 70.6178 5.58 70.1178 5.48C69.4778 5.38 68.7978 5.42 68.1778 5.44H68.1578C67.7978 5.46 67.4578 5.6 67.1778 5.68C66.7178 5.78 66.3578 6.34 66.2778 6.7C66.2378 7.26 66.2978 7.6 66.2978 8.34C66.2978 8.62 66.2778 8.84 66.2778 8.92V8.94C66.2978 9.52 66.3178 10.06 66.3178 10.62C66.2978 11.72 66.2178 12.88 66.2978 14.04C66.3578 14.74 66.3778 15.42 66.3378 16.12L66.2778 17.82V17.84C66.2778 18.28 66.3178 18.7 66.3378 19.08C66.3778 19.7 66.8378 20.14 67.2378 20.32C67.4578 20.42 67.8178 20.48 68.0778 20.46C68.4978 20.44 68.8378 20.32 69.1178 20.32C70.5978 20.3 72.0578 20.3 73.5578 20.38C74.4378 20.42 75.3378 20.4 76.1978 20.38H76.1778C76.5578 20.38 76.8978 20.18 77.1178 20.1C77.5978 19.88 77.7978 19.3 77.6578 18.84V18.82Z" transform="translate(-2 -5)" fill="url(#paint0_linear)"/>
<defs>
<linearGradient id="paint0_linear" x2="1" gradientUnits="userSpaceOnUse" gradientTransform="matrix(3.96746e-06 23.9167 -68.1814 4.17193 74.3117 -2.08596)">
<stop stop-color="#F7FCFF" stop-opacity="0.2"/>
<stop offset="1" stop-color="#F7FCFF" stop-opacity="0.05"/>
</linearGradient>
</defs>
</svg>
