<svg width="77" height="16" viewBox="0 0 77 16"  fill="none" xmlns="http://www.w3.org/2000/svg"><path d="M7.938 10.88c-.28-.48-.64-.82-1.14-1.08l-.02-.02c-.6-.34-1.18-.68-1.8-.94-.88-.34-1.66-.82-2.44-1.24-.72-.4-1.28-1.04-1.62-1.76-.16-.36-.28-.8-.26-1.2.06-1.72.96-3.08 2.42-3.96.74-.44 1.62-.52 2.34-.5.82.04 1.68.16 2.5.4.82.3 1.6.7 2.22 1.34.52.46.82 1.1.94 1.74.04.22-.1.62-.28.82-.56.56-1.52.54-2-.08-.02-.02-.16-.12-.24-.36-.14-.42-.46-.62-.96-.88-.5-.22-.96-.44-1.48-.56-.4-.1-.78-.14-1.16-.06v-.02c-.76.18-1.32.68-1.42 1.48v.16c-.08.56.12.9.6 1.16.82.48 1.56.96 2.42 1.24l.02.02c.46.16.9.38 1.34.6 1.16.58 2 1.56 2.72 2.52h.02c.26.38.34.8.4 1.1.36 1.38-.06 2.66-1.16 3.54-.22.16-.46.36-.72.54l.02-.02c-.14.1-.4.3-.66.36-1.24.28-2.56.58-3.94.44-.82-.08-1.6-.4-2.3-.7h.02c-.62-.24-1.06-.82-1.32-1.28-.38-.64-.72-1.36-.88-2.1-.08-.4.16-.96.56-1.14h-.02c.38-.2.84-.26 1.22-.24.3.02.82.32.9.68v-.02c.06.24.14.5.18.74.04.28.16.44.42.7h-.02c.52.52 1.2.78 1.96 1.06.96.04 1.78.02 2.58-.38h-.02c.06-.02.12-.12.22-.26v.02c.22-.32.32-.66.36-1.04l-.52-.82zM28.22 1.56c.14.52-.04 1.1-.44 1.46-.16.16-.5.36-.76.28-.74-.24-1.64-.08-2.62-.28-.52-.08-1-.06-1.72-.06l-.14.08c-.02.46-.02.92-.02 1.74-.14 1.34.2 2.84.28 4.58.04.58.08.96.06 1.54 0 .4-.02.58-.02.9.02.8-.06 1.48.18 2.06.26.64-.34 1.48-.98 1.52l-.72.08c-.92.16-1.48-.14-1.54-1.16-.02-.26-.04-.54-.02-.82.02-1.28.08-2.54.1-3.8 0-.44-.04-.88-.04-1.36-.02-.62-.04-1.02-.04-1.68.02-.54.1-.98 0-1.38-.1-.36-.02-.7-.02-.9.02-.36.04-.7.02-1.02 0-.44.02-.38-.28-.4-.54-.04-1.08-.04-1.66-.06-.28 0-.4.04-.74.04-.28 0-.62-.02-.9-.12-.6-.18-1.08-.38-1.6-.4-.46 0-.72-.42-.72-.82 0-.24.18-.62.4-.8.26-.2.7-.44 1.2-.42.5.04 1 .1 1.5.12 1.4.1 2.76.2 4.14-.06.34-.06.7-.06 1-.06.8 0 1.66-.04 2.48.04.82.08 1.6.18 2.42.24.42.04 1.04.26 1.2.92zm16.153 7.12c-.08.52-.1 1.12-.26 1.76v.02c-.18.64-.54 1.26-.94 1.78a16.6 16.6 0 0 1-2.36 2.38c-.26.22-.62.48-1.02.6h-.02c-.62.18-1.3.36-1.98.46-.6.08-1.3-.04-1.84-.4-.48-.3-1.16-.42-1.8-.9-1.2-.88-2.14-2.06-2.32-3.68-.14-1.42-.12-2.88.18-4.28.02-.06.02-.2.08-.4.18-1.18.48-2.24 1.32-3.14l2.14-1.78c.32-.2.74-.38 1.32-.6.86-.36 1.72-.38 2.56.08l.02.02c.52.3 1.14.54 1.74.92 1.22.74 2.26 1.84 2.6 3.38.18.92.34 1.88.48 2.8.06.34.06.66.1.98zm-9.9-.42c0 .68-.02 1.04 0 1.4.06 1.16.64 2 1.6 2.64.64.44.86.66 1.8.72.72 0 1.42-.26 1.88-.82l.02-.02c.32-.36.66-.78 1.02-1.18.56-.64.74-1.26.74-2.18 0-.28 0-.54-.02-.8a12.5 12.5 0 0 0-.54-2.84c-.2-.68-.32-1.14-.78-1.46-.58-.4-1.1-.62-1.8-.86-.28-.12-1.02.14-1.4.32v.02c-.92.42-1.2.64-1.68 1.48-.32.6-.54 1.18-.64 1.84-.12.66-.16 1.34-.2 1.74zm25.811-2.74c0-1.2.12-2.44.08-3.72v.02c0-.52-.54-1.28-1.06-1.38h.02c-.94-.24-1.7.6-1.68 1.48 0 .64-.02 1.26.02 1.94v-.02c.04 1.18.18 2.32.18 3.48-.02.92-.08 1.82-.16 2.74v.02l-.04.78c-.2-.22-.46-.44-.7-.76-.96-1.28-1.98-2.54-2.86-3.86-1.12-1.66-2.14-3.4-3.2-5.12-.28-.48-1.02-1.02-1.74-.48-.5.38-.7.94-.76 1.46-.06.76-.12 1.52-.12 2.3v-.02c-.02.6-.1 1.24-.1 1.9 0 1.54.16 3.08.08 4.58-.06 1.16-.04 2.28.02 3.42.04.96.82 1.26 1.5 1.1.26-.06 1.54-.04 1.38-1.38v-.02c-.08-.5-.14-1.02-.16-1.52-.04-1.34 0-2.72-.08-4.12-.06-.8-.14-1.58-.18-2.38l.1.14c.22.32.56 1 .82 1.4h.02c.28.4.56.8.82 1.2 1.24 1.78 2.48 3.6 3.8 5.3.24.34.54 1.26 1.32 1.5.48.14 1.36 0 1.76-.38l-.02.02c.82-.7.64-1.96.7-2.62v.02c.12-1.12.24-2.28.3-3.42.06-1.22-.08-2.42-.06-3.6zm15.471 8.3c-.18-.56-.82-1.08-1.42-1.02h-.02c-.56.08-1.26 0-1.98.2-.66-.08-1.34-.2-2.04-.26h.02c-.4-.04-.82.02-1.12.02h-.02c-.58.02-1.14.06-1.68.06-.08 0-.18-.1-.18-.18.02-1.08.02-2.14.04-3.22 1.34 0 2.68 0 4.02-.02.22 0 .5-.02.74-.1s.46-.36.52-.46c.5-1.14-.36-2-1.3-1.98-.4 0-.82-.02-1.3.06-.76.12-1.54.08-2.34.04-.2-.02-.32-.04-.42-.08-.16-1.22-.22-2.4-.08-3.64.04-.36.04-.38.38-.36h.02c.28 0 .48-.02.64.02 1.14.28 2.32.2 3.4.06.86-.12 1.66-.16 2.48-.02.16.02.38.04.58.02.2-.02.4-.08.56-.12.82-.3 1.1-1.22.6-1.9-.34-.4-.52-.32-.36-.34-.6-.32-1.36-.22-1.88-.2-.76.04-2.62.1-3.56.1-.56 0-1.34.08-1.84-.02-.64-.1-1.32-.06-1.94-.04h-.02c-.36.02-.7.16-.98.24-.46.1-.82.66-.9 1.02-.04.56.02.9.02 1.64 0 .28-.02.5-.02.58v.02c.02.58.04 1.12.04 1.68-.02 1.1-.1 2.26-.02 3.42.06.7.08 1.38.04 2.08l-.06 1.7v.02c0 .44.04.86.06 1.24.04.62.5 1.06.9 1.24.22.1.58.16.84.14.42-.02.76-.14 1.04-.14 1.48-.02 2.94-.02 4.44.06.88.04 1.78.02 2.64 0h-.02c.38 0 .72-.2.94-.28.48-.22.68-.8.54-1.26v-.02z" fill="url(#paint0_linear)"/><defs><linearGradient id="paint0_linear" x1="41.654" y1="23" x2="43.008" y2="-4.934" gradientUnits="userSpaceOnUse"><stop stop-color="#8A5C16"/><stop offset="1" stop-color="#8A5C16" stop-opacity=".2"/></linearGradient></defs></svg>
