<svg width="603" height="16" viewBox="0 0 603 16" fill="none" xmlns="http://www.w3.org/2000/svg">
<path d="M15.6772 14.0195C15.6172 13.6195 15.4771 13.2395 15.2772 12.8595C15.0171 12.2195 14.6772 11.6195 14.5172 10.9795C14.4572 10.7595 14.2972 10.4195 14.0972 10.1395C13.5172 9.05954 13.0572 7.89954 12.4972 6.69954C11.9372 5.41954 11.4372 4.31954 10.7972 3.01954C10.5172 2.39954 10.1772 1.67954 9.81715 1.03954C9.59715 0.579539 9.11715 0.299539 8.67715 0.299539C8.31715 0.299539 7.83715 0.419539 7.51715 0.859539C6.49715 2.51954 5.55715 4.05954 4.93715 5.89954C4.69715 6.51954 4.41715 7.03954 4.11715 7.59954C3.27715 9.19954 2.15715 11.4795 1.15715 12.8595C0.91715 13.1395 0.87715 13.5395 0.83715 13.4595C0.69715 14.1195 0.93715 14.8795 1.53715 15.2395C1.43715 15.0595 1.61715 15.3795 1.93715 15.4595C2.21715 15.5195 2.75715 15.4995 2.95715 15.1195C3.17715 14.7795 3.41715 14.3595 3.65715 13.9595C3.87715 13.5595 4.49715 12.4995 4.73715 12.0995C4.93715 11.8195 5.09715 11.7195 5.17715 11.7595C5.73715 11.7595 6.21715 11.7595 6.75715 11.8395C7.37715 11.8395 8.01715 11.8995 8.67715 11.8395C9.45715 11.6995 10.3172 11.7595 11.2172 11.6995C11.7172 11.6995 11.9372 11.8395 12.1172 12.3395C12.1571 12.6595 12.2972 12.9795 12.4172 13.2195C12.6572 13.8995 12.8972 14.3595 13.2372 14.9595C13.5772 15.6395 14.3572 15.9195 14.5572 15.7795C14.8972 15.5595 15.0972 15.3795 15.3172 15.2195C15.5972 14.9995 15.7772 14.4595 15.6772 14.0195ZM8.29715 9.15954C7.61715 9.15954 6.93715 9.21954 6.27715 9.27954C6.33715 9.11954 6.33715 8.99954 6.35715 8.91954C6.47715 8.67954 6.59715 8.43954 6.73715 8.05954C6.95715 7.47954 7.31715 6.81954 7.57715 6.07954C7.67715 5.69954 7.95715 5.33954 8.21715 4.85954C8.29715 4.67954 8.41715 4.47954 8.51715 4.25954L8.53715 4.29954C9.17715 5.73954 9.83715 7.25954 10.4972 8.79954C10.5172 8.81954 10.5172 8.87954 10.5372 8.97954C10.2372 9.01954 9.93715 9.03954 9.57715 9.07954C9.15715 9.07954 8.67715 9.15954 8.29715 9.15954Z" fill="url(#paint0_linear)"/>
<path d="M44.6304 0.739538C44.3504 0.459538 43.8904 0.339539 43.5104 0.439539C42.9304 0.579539 42.5304 1.05954 42.3704 1.49954C41.9704 2.51954 41.4904 3.57954 41.3104 4.75954C41.2304 5.17954 41.1504 5.55954 41.0504 5.95954C40.6904 7.27954 40.3904 8.61954 40.0904 9.93954L40.0104 10.2995L39.9904 10.2195C39.7704 9.19954 39.3904 8.21954 39.0504 7.27954V7.25954C38.8304 6.65954 38.5904 6.13954 38.5104 5.57954L38.4904 5.55954C38.2504 4.25954 37.7104 3.11954 37.4104 1.95954V1.93954C37.1704 1.13954 36.3504 0.839539 35.6304 1.25954H35.6504C35.2104 1.49954 34.8304 1.93954 34.7104 2.45954C34.5304 3.13954 34.3104 3.81954 34.1304 4.53954V4.51954C33.9704 5.05954 33.7304 5.63954 33.6904 6.27954V6.25954C33.5704 7.37954 33.2104 8.43954 32.9304 9.59954C32.8504 9.93954 32.7104 10.2995 32.5704 10.6795C32.4704 10.3995 32.3704 10.1395 32.3104 9.85954C32.0704 8.77954 31.5704 7.81954 31.2904 6.85954C31.1304 6.37954 30.9704 5.93954 30.8704 5.49954C30.5504 4.13954 30.1704 2.79954 29.9504 1.45954C29.7704 0.459538 28.7304 0.119539 27.9504 0.659539L27.9304 0.679539C27.8304 0.739538 27.7104 0.839539 27.6304 0.939539C27.5504 1.03954 27.1304 1.45954 27.3904 1.99954C27.6104 2.45954 27.6704 2.95954 27.7504 3.51954C27.8704 4.41954 28.1304 5.27954 28.3704 6.11954C28.6904 7.27954 29.0304 8.43954 29.3504 9.59954C29.3904 9.71954 29.4504 9.81954 29.4904 9.89954C30.0504 11.4195 30.5304 12.9195 30.7704 14.4995C30.8104 14.7395 30.9304 14.9195 30.9704 15.0195C31.1504 15.4595 31.7704 15.6795 32.1704 15.4195C32.4704 15.2195 32.6304 15.0595 32.7304 15.0195H32.7504C33.3104 14.8795 33.5704 14.4795 33.7704 14.1995C34.1504 13.6795 34.3904 13.0795 34.5704 12.4995C34.9304 11.2595 35.3104 9.99954 35.6904 8.75954C35.8304 8.29954 35.9904 7.77954 36.0104 7.23954C36.0304 7.03954 36.0504 6.83954 36.0904 6.65954C36.6104 8.35954 37.0504 10.0995 37.6304 11.7995C37.9504 12.6995 38.3504 13.4995 38.5304 14.3195L38.5504 14.3395C38.6104 14.6395 38.8504 14.8795 38.9504 14.9995C39.3104 15.4595 39.8704 15.5795 40.3704 15.2595H40.3904C40.7104 15.0395 40.8304 14.8795 40.9104 14.8795C41.1304 14.8595 41.4504 14.5395 41.5104 14.3595V14.3395C41.7704 13.4995 42.0304 12.6795 42.2304 11.7995C42.4904 10.6395 42.6904 9.45954 42.9504 8.27954C43.1704 7.19954 43.6304 6.05954 43.6504 4.79954L43.6904 4.73954C44.0304 3.93954 44.1904 3.17954 44.5904 2.55954C44.7504 2.35954 44.8704 2.09954 44.9304 1.89954C45.0104 1.57954 44.9704 1.05954 44.6304 0.739538Z" fill="url(#paint1_linear)"/>
<path d="M63.4506 14.0195C63.3906 13.6195 63.2506 13.2395 63.0506 12.8595C62.7906 12.2195 62.4506 11.6195 62.2906 10.9795C62.2306 10.7595 62.0706 10.4195 61.8706 10.1395C61.2906 9.05954 60.8306 7.89954 60.2706 6.69954C59.7106 5.41954 59.2106 4.31954 58.5706 3.01954C58.2906 2.39954 57.9506 1.67954 57.5906 1.03954C57.3706 0.579539 56.8906 0.299539 56.4506 0.299539C56.0906 0.299539 55.6106 0.419539 55.2906 0.859539C54.2706 2.51954 53.3306 4.05954 52.7106 5.89954C52.4706 6.51954 52.1906 7.03954 51.8906 7.59954C51.0506 9.19954 49.9306 11.4795 48.9306 12.8595C48.6906 13.1395 48.6506 13.5395 48.6106 13.4595C48.4706 14.1195 48.7106 14.8795 49.3106 15.2395C49.2106 15.0595 49.3906 15.3795 49.7106 15.4595C49.9906 15.5195 50.5306 15.4995 50.7306 15.1195C50.9506 14.7795 51.1906 14.3595 51.4306 13.9595C51.6506 13.5595 52.2706 12.4995 52.5106 12.0995C52.7106 11.8195 52.8706 11.7195 52.9506 11.7595C53.5106 11.7595 53.9906 11.7595 54.5306 11.8395C55.1506 11.8395 55.7906 11.8995 56.4506 11.8395C57.2306 11.6995 58.0906 11.7595 58.9906 11.6995C59.4906 11.6995 59.7106 11.8395 59.8906 12.3395C59.9306 12.6595 60.0706 12.9795 60.1906 13.2195C60.4306 13.8995 60.6706 14.3595 61.0106 14.9595C61.3506 15.6395 62.1306 15.9195 62.3306 15.7795C62.6706 15.5595 62.8706 15.3795 63.0906 15.2195C63.3706 14.9995 63.5506 14.4595 63.4506 14.0195ZM56.0706 9.15954C55.3906 9.15954 54.7106 9.21954 54.0506 9.27954C54.1106 9.11954 54.1106 8.99954 54.1306 8.91954C54.2506 8.67954 54.3706 8.43954 54.5106 8.05954C54.7306 7.47954 55.0906 6.81954 55.3506 6.07954C55.4506 5.69954 55.7306 5.33954 55.9906 4.85954C56.0706 4.67954 56.1906 4.47954 56.2906 4.25954L56.3106 4.29954C56.9506 5.73954 57.6106 7.25954 58.2706 8.79954C58.2906 8.81954 58.2906 8.87954 58.3106 8.97954C58.0106 9.01954 57.7106 9.03954 57.3506 9.07954C56.9306 9.07954 56.4506 9.15954 56.0706 9.15954Z" fill="url(#paint2_linear)"/>
<path d="M78.2761 13.6595C77.9561 13.2795 77.6161 12.8995 77.2761 12.5395C76.8161 12.1195 76.4161 11.6795 76.0361 11.1995C75.4961 10.4795 74.9161 9.81954 74.3561 9.15954L74.3361 9.13954L75.7161 8.29954C77.1761 7.35954 77.9161 5.91954 77.7161 4.23954C77.6961 3.97954 77.6361 3.77954 77.6161 3.61954C77.4561 2.51954 76.8161 1.59954 75.9361 0.999538C75.6561 0.819538 75.2761 0.639538 74.8561 0.619538C73.9161 0.619538 72.9561 0.519538 71.9161 0.619538C71.1161 0.719538 70.3561 0.699539 69.5961 0.499539C69.2361 0.399539 68.8561 0.419539 68.5561 0.439539C67.9161 0.479539 67.2761 1.11954 67.2761 1.75954C67.2761 2.35954 67.1761 3.05954 67.3561 3.79954C67.4361 4.15954 67.4161 4.51954 67.3161 4.89954C67.1361 5.69954 67.0561 6.51954 67.1961 7.33954L67.1761 7.31954C67.2161 7.61954 67.1961 7.89954 67.1561 8.21954C67.0161 8.97954 67.0961 9.73954 67.1161 10.3995V10.3795C67.1161 11.0395 67.1361 11.6995 67.1561 12.3595V14.2795C67.1561 14.6995 67.4961 15.0395 67.7361 15.1795C68.4561 15.5795 69.3961 15.6595 70.1961 15.1195C70.1561 14.4395 70.0961 13.7995 70.0361 13.1595C69.9961 12.5995 69.9161 12.0595 69.8761 11.5595C69.8161 10.3795 68.8561 10.3195 71.3161 10.0195C71.6161 9.97954 71.7761 10.0795 71.9361 10.3395H71.9161C72.1561 10.7795 72.4961 11.2395 72.8761 11.6195L72.8561 11.5995C73.3561 12.1395 73.7961 12.6395 74.1761 13.2395H74.1961C74.4961 13.6995 74.8361 14.1195 75.1761 14.5595C75.4561 14.8795 75.7761 15.1995 76.0761 15.4395C76.3161 15.6395 76.7361 15.6795 76.9561 15.6795C77.4561 15.6795 77.8361 15.3795 78.0961 15.1395C78.5361 14.7395 78.6961 14.1595 78.2761 13.6595ZM72.5361 7.47954C72.4761 7.51954 72.4361 7.51954 72.3161 7.53954C71.9561 7.57954 71.5561 7.65954 71.1761 7.77954C70.7961 7.91954 70.4361 7.87954 69.9761 7.77954V7.79954C69.8761 7.17954 69.7761 6.69954 69.8361 6.15954L69.9161 5.07954C69.9361 4.57954 69.9561 4.09954 69.9961 3.61954C70.0161 3.47954 70.1761 3.29954 70.2961 3.25954C70.6161 3.17954 70.9361 3.13954 71.2761 3.09954C71.8961 3.03954 72.5561 2.99954 73.1961 2.95954H73.1761C73.7361 2.93954 74.2361 3.05954 74.5561 3.39954C75.0561 3.93954 75.2361 4.47954 75.0161 5.23954C74.9161 5.61954 74.7561 5.85954 74.4561 6.17954C73.9361 6.71954 73.2561 7.05954 72.5361 7.47954Z" fill="url(#paint3_linear)"/>
<path d="M98.5853 13.0395C98.5253 12.5995 98.5053 12.1395 98.4853 11.6595C98.4053 9.97954 98.5253 8.29954 98.4853 6.55954C98.4653 5.79954 98.4053 5.01954 98.3653 4.27954C98.4053 3.41954 98.2453 2.63954 98.2453 1.89954C98.2453 1.77954 98.3253 1.37954 98.0853 1.09954C97.9253 0.899539 97.5453 0.419539 97.1053 0.419539H97.0853C96.4253 0.439538 95.4853 0.799539 95.1053 1.61954V1.63954C94.5253 2.99954 93.8653 4.31954 93.2653 5.65954C92.5453 7.21954 91.7453 9.01954 91.0453 10.5595C90.8853 10.8995 90.6853 11.4395 90.5053 11.8995C90.3653 11.6395 90.1453 11.3395 90.0053 11.0795L90.0253 11.0995C89.2453 9.41954 88.4453 7.91954 87.9453 6.29954C87.1653 3.73954 86.4053 2.23954 84.9653 1.03954C84.7053 0.799539 83.9053 0.359539 83.4653 0.779539C83.2853 0.959539 82.6653 1.45954 82.6053 2.01954V1.99954C82.4853 2.89954 82.5253 3.59954 82.5853 4.43954C82.6453 5.45954 82.7853 6.57954 82.8253 7.45954C82.8053 7.71954 82.8453 8.31954 82.8653 8.51954L82.9253 9.53954C82.9453 9.95954 82.9853 10.3395 83.0053 10.6795C83.0053 10.8195 83.0053 11.0795 82.9653 11.1395C82.9653 12.2395 83.0053 13.0595 83.0253 14.1195C83.0453 14.9595 83.4053 15.7195 84.3853 15.4395H84.3653C84.6053 15.3795 85.0453 15.3795 85.3853 14.9595C85.7253 14.5395 85.7853 13.8795 85.7653 13.4595C85.7453 12.6995 85.7053 11.9395 85.6853 11.1795C85.6453 10.3795 85.3853 8.25954 85.3653 7.49954C85.3453 7.21954 85.3453 6.83954 85.3653 6.41954C85.5853 7.07954 85.8053 7.73954 86.0853 8.31954C86.4853 9.21954 87.1453 11.6395 87.6453 12.5795C88.0453 13.3395 88.4453 15.0595 89.9653 15.1795C90.4053 15.2195 91.0053 15.1995 91.4853 14.9795C92.0453 14.7195 92.2853 14.1995 92.4853 13.7795C93.0853 12.5595 93.5253 11.2795 94.0853 10.0995C94.4853 9.21954 94.8653 8.31954 95.2653 7.45954L95.6653 6.59954C95.7053 7.29954 95.8853 7.83954 95.8253 8.51954C95.8253 9.27954 95.8053 9.99954 95.7853 10.7395C95.7653 11.5195 95.9453 12.1995 95.9653 12.8195C95.9853 13.2595 95.8853 14.1195 96.2253 14.6995C96.3853 15.0195 96.7253 15.4395 97.2453 15.4995C99.0853 15.7195 98.6653 13.6795 98.5853 13.0395Z" fill="url(#paint4_linear)"/>
<path d="M124.729 1.55954C124.869 2.07954 124.689 2.65954 124.289 3.01954C124.129 3.17954 123.789 3.37954 123.529 3.29954C122.789 3.05954 121.889 3.21954 120.909 3.01954C120.389 2.93954 119.909 2.95954 119.189 2.95954L119.049 3.03954C119.029 3.49954 119.029 3.95954 119.029 4.77954C118.889 6.11954 119.229 7.61954 119.309 9.35954C119.349 9.93954 119.389 10.3195 119.369 10.8995C119.369 11.2995 119.349 11.4795 119.349 11.7995C119.369 12.5995 119.289 13.2795 119.529 13.8595C119.789 14.4995 119.189 15.3395 118.549 15.3795L117.829 15.4595C116.909 15.6195 116.349 15.3195 116.289 14.2995C116.269 14.0395 116.249 13.7595 116.269 13.4795C116.289 12.1995 116.349 10.9395 116.369 9.67954C116.369 9.23954 116.329 8.79954 116.329 8.31954C116.309 7.69954 116.289 7.29954 116.289 6.63954C116.309 6.09954 116.389 5.65954 116.289 5.25954C116.189 4.89954 116.269 4.55954 116.269 4.35954C116.289 3.99954 116.309 3.65954 116.289 3.33954C116.289 2.89954 116.309 2.95954 116.009 2.93954C115.469 2.89954 114.929 2.89954 114.349 2.87954C114.069 2.87954 113.949 2.91954 113.609 2.91954C113.329 2.91954 112.989 2.89954 112.709 2.79954C112.109 2.61954 111.629 2.41954 111.109 2.39954C110.649 2.39954 110.389 1.97954 110.389 1.57954C110.389 1.33954 110.569 0.959539 110.789 0.779539C111.049 0.579539 111.489 0.339538 111.989 0.359538C112.489 0.399539 112.989 0.459538 113.489 0.479539C114.889 0.579539 116.249 0.679539 117.629 0.419539C117.969 0.359538 118.329 0.359538 118.629 0.359538C119.429 0.359538 120.289 0.319539 121.109 0.399539C121.929 0.479539 122.709 0.579539 123.529 0.639538C123.949 0.679539 124.569 0.899539 124.729 1.55954Z" fill="url(#paint5_linear)"/>
<path d="M140.623 1.83954C140.623 1.61954 140.623 1.21954 140.483 0.83954C140.463 0.799539 140.143 0.519539 139.943 0.399539C139.223 0.159539 138.243 0.599539 138.043 1.37954C137.903 1.89954 137.763 2.45954 137.703 2.93954C137.623 3.85954 137.563 4.97954 137.443 5.85954C137.443 6.01954 137.443 6.09954 137.423 6.11954L137.383 6.19954C137.023 6.29954 136.903 6.39954 136.783 6.35954C136.603 6.43954 136.163 6.33954 135.703 6.45954C134.503 6.69954 133.283 6.61954 132.023 6.93954H131.643C131.363 6.89954 131.283 6.81954 131.263 6.63954C131.203 6.43954 131.203 6.15954 131.203 5.87954C131.143 4.65954 131.083 3.19954 131.203 1.97954V1.51954C131.203 1.01954 130.743 0.559538 130.183 0.559538C129.883 0.559538 129.543 0.659539 129.243 0.879539C128.903 1.03954 128.663 1.45954 128.663 1.75954L128.463 5.35954C128.463 6.39954 128.603 7.27954 128.463 8.17954C128.463 8.49954 128.523 8.71954 128.523 8.81954C128.663 10.0995 128.783 11.9995 128.723 13.3195C128.643 13.6995 128.743 14.0195 128.723 14.1995C128.983 15.4395 129.863 15.7795 130.983 15.2595C131.243 15.1395 131.503 14.8395 131.583 14.6395C131.623 14.3595 131.803 13.8595 131.723 13.3795C131.603 12.5995 131.663 11.1195 131.523 10.2995C131.523 9.79954 131.283 9.39954 132.563 9.17954C132.663 9.19954 132.863 9.23954 133.103 9.23954C133.383 9.23954 133.763 9.23954 134.143 9.15954C134.763 8.91954 135.463 8.91954 136.183 8.97954C136.943 8.97954 137.143 8.67954 137.363 8.85954C137.563 9.03954 137.283 9.27954 137.363 10.0995C137.503 11.0395 137.563 12.5395 137.503 13.5595C137.503 13.7995 137.563 13.9395 137.563 14.0395C137.563 14.5595 137.963 14.9795 138.223 15.2395C138.443 15.4395 138.843 15.4395 138.963 15.4395C139.243 15.4395 139.603 15.1795 139.563 15.2195C140.143 15.0795 140.363 14.4995 140.443 14.1595C140.443 13.6795 140.443 12.5195 140.363 11.9995C140.363 11.6995 140.303 11.4595 140.303 11.2795C140.363 10.4995 140.243 9.73954 140.243 9.05954C140.243 8.59954 140.183 8.13954 140.183 7.71954C140.303 6.49954 140.183 5.37954 140.443 4.49954C140.503 3.51954 140.623 2.57954 140.623 1.83954Z" fill="url(#paint6_linear)"/>
<path d="M159.095 14.0195C159.035 13.6195 158.895 13.2395 158.695 12.8595C158.435 12.2195 158.095 11.6195 157.935 10.9795C157.875 10.7595 157.715 10.4195 157.515 10.1395C156.935 9.05954 156.475 7.89954 155.915 6.69954C155.355 5.41954 154.855 4.31954 154.215 3.01954C153.935 2.39954 153.595 1.67954 153.235 1.03954C153.015 0.579539 152.535 0.299539 152.095 0.299539C151.735 0.299539 151.255 0.419539 150.935 0.859539C149.915 2.51954 148.975 4.05954 148.355 5.89954C148.115 6.51954 147.835 7.03954 147.535 7.59954C146.695 9.19954 145.575 11.4795 144.575 12.8595C144.335 13.1395 144.295 13.5395 144.255 13.4595C144.115 14.1195 144.355 14.8795 144.955 15.2395C144.855 15.0595 145.035 15.3795 145.355 15.4595C145.635 15.5195 146.175 15.4995 146.375 15.1195C146.595 14.7795 146.835 14.3595 147.075 13.9595C147.295 13.5595 147.915 12.4995 148.155 12.0995C148.355 11.8195 148.515 11.7195 148.595 11.7595C149.155 11.7595 149.635 11.7595 150.175 11.8395C150.795 11.8395 151.435 11.8995 152.095 11.8395C152.875 11.6995 153.735 11.7595 154.635 11.6995C155.135 11.6995 155.355 11.8395 155.535 12.3395C155.575 12.6595 155.715 12.9795 155.835 13.2195C156.075 13.8995 156.315 14.3595 156.655 14.9595C156.995 15.6395 157.775 15.9195 157.975 15.7795C158.315 15.5595 158.515 15.3795 158.735 15.2195C159.015 14.9995 159.195 14.4595 159.095 14.0195ZM151.715 9.15954C151.035 9.15954 150.355 9.21954 149.695 9.27954C149.755 9.11954 149.755 8.99954 149.775 8.91954C149.895 8.67954 150.015 8.43954 150.155 8.05954C150.375 7.47954 150.735 6.81954 150.995 6.07954C151.095 5.69954 151.375 5.33954 151.635 4.85954C151.715 4.67954 151.835 4.47954 151.935 4.25954L151.955 4.29954C152.595 5.73954 153.255 7.25954 153.915 8.79954C153.935 8.81954 153.935 8.87954 153.955 8.97954C153.655 9.01954 153.355 9.03954 152.995 9.07954C152.575 9.07954 152.095 9.15954 151.715 9.15954Z" fill="url(#paint7_linear)"/>
<path d="M174.841 5.51954C174.841 4.31954 174.961 3.07954 174.921 1.79954V1.81954C174.921 1.29954 174.381 0.539538 173.861 0.439539H173.881C172.941 0.199539 172.181 1.03954 172.201 1.91954C172.201 2.55954 172.181 3.17954 172.221 3.85954V3.83954C172.261 5.01954 172.401 6.15954 172.401 7.31954C172.381 8.23954 172.321 9.13954 172.241 10.0595V10.0795L172.201 10.8595C172.001 10.6395 171.741 10.4195 171.501 10.0995C170.541 8.81954 169.521 7.55954 168.641 6.23954C167.521 4.57954 166.501 2.83954 165.441 1.11954C165.161 0.639538 164.421 0.0995381 163.701 0.639538C163.201 1.01954 163.001 1.57954 162.941 2.09954C162.881 2.85954 162.821 3.61954 162.821 4.39954V4.37954C162.801 4.97954 162.721 5.61954 162.721 6.27954C162.721 7.81954 162.881 9.35954 162.801 10.8595C162.741 12.0195 162.761 13.1395 162.821 14.2795C162.861 15.2395 163.641 15.5395 164.321 15.3795C164.581 15.3195 165.861 15.3395 165.701 13.9995V13.9795C165.621 13.4795 165.561 12.9595 165.541 12.4595C165.501 11.1195 165.541 9.73954 165.461 8.33954C165.401 7.53954 165.321 6.75954 165.281 5.95954L165.381 6.09954C165.601 6.41954 165.941 7.09954 166.201 7.49954H166.221C166.501 7.89954 166.781 8.29954 167.041 8.69954C168.281 10.4795 169.521 12.2995 170.841 13.9995C171.081 14.3395 171.381 15.2595 172.161 15.4995C172.641 15.6395 173.521 15.4995 173.921 15.1195L173.901 15.1395C174.721 14.4395 174.541 13.1795 174.601 12.5195V12.5395C174.721 11.4195 174.841 10.2595 174.901 9.11954C174.961 7.89954 174.821 6.69954 174.841 5.51954Z" fill="url(#paint8_linear)"/>
<path d="M190.212 13.4195C189.992 12.8595 189.612 12.3195 189.192 11.9395C188.152 10.9595 187.392 9.71954 186.332 8.65954C185.932 8.23954 185.592 7.69954 185.172 7.19954C184.952 6.93954 184.952 6.87954 185.252 6.49954C185.332 6.37954 185.352 6.33954 185.432 6.29954C186.052 5.91954 186.492 5.35954 186.912 4.93954H186.932C187.352 4.49954 187.752 4.05954 188.152 3.61954C188.412 3.33954 188.612 3.15954 188.892 3.05954C189.112 2.97954 189.272 2.83954 189.372 2.77954C190.032 2.31954 190.132 1.49954 189.632 0.879539C189.172 0.359538 188.472 0.219539 187.912 0.619538C187.732 0.739538 187.532 0.879539 187.372 1.05954C186.752 1.69954 186.112 2.33954 185.532 3.03954L185.552 3.01954C185.112 3.49954 184.692 3.93954 184.232 4.37954L184.252 4.35954C183.612 4.89954 182.952 5.49954 182.412 6.21954C182.232 6.47954 181.992 6.69954 181.712 6.93954L181.752 6.87954C181.692 6.65954 181.672 6.47954 181.712 6.29954C181.892 5.17954 181.672 3.59954 181.712 2.61954C181.732 2.21954 181.672 1.85954 181.652 1.53954C181.612 1.05954 181.032 0.439539 180.552 0.37954C179.892 0.299539 179.212 0.599539 179.072 1.29954V1.27954C179.012 1.49954 178.912 1.79954 178.912 2.13954C178.932 2.59954 179.012 3.23954 179.032 3.65954C179.072 5.59954 179.112 7.89954 179.052 9.83954C179.012 10.9595 179.172 12.0195 179.112 13.0595V13.0395C179.072 13.5795 179.232 14.0795 179.292 14.4595C179.352 14.7395 179.532 14.9595 179.592 15.0395C179.912 15.4795 180.572 15.5795 181.012 15.3795C181.512 15.1395 182.012 14.6195 181.992 13.8795V13.8995C181.992 13.5795 181.972 13.2995 181.972 13.0195V12.9995C181.952 12.3195 181.932 11.6595 181.932 10.9595C181.932 10.4795 182.072 10.0595 182.412 9.75954H182.432C182.672 9.53954 182.812 9.27954 182.932 9.13954L182.952 9.11954C183.412 9.59954 183.852 10.1395 184.412 10.5995H184.392C184.572 10.7395 184.652 10.8395 184.712 10.9795C184.992 11.6395 185.472 12.1195 185.872 12.5195C186.232 12.8995 186.572 13.2795 186.892 13.6795C187.352 14.2595 187.892 14.7195 188.352 15.1995C188.772 15.5995 189.292 15.5995 189.692 15.2595C190.352 14.7195 190.492 14.1795 190.212 13.4195Z" fill="url(#paint9_linear)"/>
<path d="M202.169 1.41954C202.269 1.37954 202.289 1.03954 202.489 0.739538C202.629 0.559538 202.909 0.359539 203.089 0.319539V0.339539C203.569 0.219539 204.109 0.399539 204.569 0.779539C205.089 1.21954 205.249 1.67954 205.529 2.01954C205.709 2.25954 205.809 2.47954 205.909 2.63954C206.249 3.19954 206.609 3.69954 207.029 4.17954C207.289 4.49954 207.549 4.85954 207.789 5.17954C207.809 5.19954 207.789 5.23954 207.889 5.33954C209.269 3.85954 210.589 2.29954 211.829 0.659539C212.529 -0.0404613 213.469 0.319539 213.629 0.339539H213.609C214.289 0.439539 214.589 1.21954 214.289 1.79954C214.049 2.33954 213.709 2.83954 213.349 3.25954V3.23954C213.029 3.63954 212.689 3.91954 212.469 4.25954C212.189 4.65954 211.889 4.99954 211.609 5.33954C211.049 5.99954 210.529 6.67954 209.989 7.35954V7.33954C209.809 7.57954 209.649 7.81954 209.489 8.05954C209.349 8.29954 209.289 8.43954 209.289 8.71954V8.73954C209.269 9.43954 209.089 9.97954 209.249 10.4395C209.289 10.5995 209.289 10.8195 209.269 10.9795V10.9595C209.109 11.8795 209.289 12.8395 209.269 13.8995C209.269 14.6195 208.869 15.1795 208.389 15.4195H208.369C207.769 15.7195 206.609 15.2195 206.609 14.3995C206.589 13.0795 206.529 11.6995 206.609 10.3395C206.689 9.13954 206.609 8.41954 206.029 7.73954C205.549 7.17954 205.049 6.53954 204.669 5.83954C204.549 5.61954 204.429 5.39954 204.289 5.23954C203.489 4.37954 202.989 3.27954 202.489 2.23954L202.169 1.41954Z" fill="url(#paint10_linear)"/>
<path d="M230.629 8.67954C230.549 9.19954 230.529 9.79954 230.369 10.4395V10.4595C230.189 11.0995 229.829 11.7195 229.429 12.2395C228.729 13.1195 227.909 13.9195 227.069 14.6195C226.809 14.8395 226.449 15.0995 226.049 15.2195H226.029C225.409 15.3995 224.729 15.5795 224.049 15.6795C223.449 15.7595 222.749 15.6395 222.209 15.2795C221.729 14.9795 221.049 14.8595 220.409 14.3795C219.209 13.4995 218.269 12.3195 218.089 10.6995C217.949 9.27954 217.969 7.81954 218.269 6.41954C218.289 6.35954 218.289 6.21954 218.349 6.01954C218.529 4.83954 218.829 3.77954 219.669 2.87954L221.809 1.09954C222.129 0.899539 222.549 0.719538 223.129 0.499539C223.989 0.139539 224.849 0.119539 225.689 0.579539L225.709 0.599539C226.229 0.899539 226.849 1.13954 227.449 1.51954C228.669 2.25954 229.709 3.35954 230.049 4.89954C230.229 5.81954 230.389 6.77954 230.529 7.69954C230.589 8.03954 230.589 8.35954 230.629 8.67954ZM220.729 8.25954C220.729 8.93954 220.709 9.29954 220.729 9.65954C220.789 10.8195 221.369 11.6595 222.329 12.2995C222.969 12.7395 223.189 12.9595 224.129 13.0195C224.849 13.0195 225.549 12.7595 226.009 12.1995L226.029 12.1795C226.349 11.8195 226.689 11.3995 227.049 10.9995C227.609 10.3595 227.789 9.73954 227.789 8.81954C227.789 8.53954 227.789 8.27954 227.769 8.01954C227.689 6.99954 227.529 6.15954 227.229 5.17954C227.029 4.49954 226.909 4.03954 226.449 3.71954C225.869 3.31954 225.349 3.09954 224.649 2.85954C224.369 2.73954 223.629 2.99954 223.249 3.17954V3.19954C222.329 3.61954 222.049 3.83954 221.569 4.67954C221.249 5.27954 221.029 5.85954 220.929 6.51954C220.809 7.17954 220.769 7.85954 220.729 8.25954Z" fill="url(#paint11_linear)"/>
<path d="M244.6 0.439539C244.5 0.459538 244.36 0.479539 244.22 0.539538C243.86 0.699539 243.5 1.09954 243.5 1.57954C243.48 2.63954 243.46 3.69954 243.46 4.79954C243.4 5.55954 243.24 6.41954 243.3 7.27954C243.36 8.05954 242.98 8.85954 242.88 9.81954C242.44 10.9195 241.92 11.8995 241.16 12.7795C240.86 13.1395 240.34 13.2595 239.88 13.0995L239.9 13.1195C238.7 12.6795 238.02 11.8595 237.8 10.5995C237.78 10.4195 237.76 10.2195 237.76 10.0395C237.7 8.67954 237.42 7.41954 237.42 6.11954C237.44 5.33954 237.4 4.53954 237.3 3.75954C237.22 2.99954 237.12 2.27954 237.16 1.53954V1.55954C237.2 1.01954 236.72 0.619538 236.44 0.479539C235.52 0.0795381 234.38 0.839539 234.42 1.81954C234.46 2.53954 234.5 3.23954 234.52 3.95954C234.54 4.67954 234.56 5.35954 234.5 6.03954C234.44 6.89954 234.62 7.65954 234.62 8.35954C234.62 9.29954 234.8 10.1795 234.88 10.9995V11.0195C235.1 12.8995 236.32 14.2395 237.76 15.1395C239.16 16.0195 241.5 15.9795 242.94 14.7395C243.78 13.9795 244.48 13.0395 244.98 12.0395C245.68 10.6395 245.88 9.11954 246.14 7.71954C246.04 6.99954 246.2 6.23954 246.22 5.39954C246.24 4.23954 246.32 3.07954 246.38 1.89954C246.44 0.899539 245.56 0.159539 244.6 0.439539Z" fill="url(#paint12_linear)"/>
<path d="M272.425 1.55954C272.565 2.07954 272.385 2.65954 271.985 3.01954C271.825 3.17954 271.485 3.37954 271.225 3.29954C270.485 3.05954 269.585 3.21954 268.605 3.01954C268.085 2.93954 267.605 2.95954 266.885 2.95954L266.745 3.03954C266.725 3.49954 266.725 3.95954 266.725 4.77954C266.585 6.11954 266.925 7.61954 267.005 9.35954C267.045 9.93954 267.085 10.3195 267.065 10.8995C267.065 11.2995 267.045 11.4795 267.045 11.7995C267.065 12.5995 266.985 13.2795 267.225 13.8595C267.485 14.4995 266.885 15.3395 266.245 15.3795L265.525 15.4595C264.605 15.6195 264.045 15.3195 263.985 14.2995C263.965 14.0395 263.945 13.7595 263.965 13.4795C263.985 12.1995 264.045 10.9395 264.065 9.67954C264.065 9.23954 264.025 8.79954 264.025 8.31954C264.005 7.69954 263.985 7.29954 263.985 6.63954C264.005 6.09954 264.085 5.65954 263.985 5.25954C263.885 4.89954 263.965 4.55954 263.965 4.35954C263.985 3.99954 264.005 3.65954 263.985 3.33954C263.985 2.89954 264.005 2.95954 263.705 2.93954C263.165 2.89954 262.625 2.89954 262.045 2.87954C261.765 2.87954 261.645 2.91954 261.305 2.91954C261.025 2.91954 260.685 2.89954 260.405 2.79954C259.805 2.61954 259.325 2.41954 258.805 2.39954C258.345 2.39954 258.085 1.97954 258.085 1.57954C258.085 1.33954 258.265 0.959539 258.485 0.779539C258.745 0.579539 259.185 0.339538 259.685 0.359538C260.185 0.399539 260.685 0.459538 261.185 0.479539C262.585 0.579539 263.945 0.679539 265.325 0.419539C265.665 0.359538 266.025 0.359538 266.325 0.359538C267.125 0.359538 267.985 0.319539 268.805 0.399539C269.625 0.479539 270.405 0.579539 271.225 0.639538C271.645 0.679539 272.265 0.899539 272.425 1.55954Z" fill="url(#paint13_linear)"/>
<path d="M288.578 8.67954C288.498 9.19954 288.478 9.79954 288.318 10.4395V10.4595C288.138 11.0995 287.778 11.7195 287.378 12.2395C286.678 13.1195 285.858 13.9195 285.018 14.6195C284.758 14.8395 284.398 15.0995 283.998 15.2195H283.978C283.358 15.3995 282.678 15.5795 281.998 15.6795C281.398 15.7595 280.698 15.6395 280.158 15.2795C279.678 14.9795 278.998 14.8595 278.358 14.3795C277.158 13.4995 276.218 12.3195 276.038 10.6995C275.898 9.27954 275.918 7.81954 276.218 6.41954C276.238 6.35954 276.238 6.21954 276.298 6.01954C276.478 4.83954 276.778 3.77954 277.618 2.87954L279.758 1.09954C280.078 0.899539 280.498 0.719538 281.078 0.499539C281.938 0.139539 282.798 0.119539 283.638 0.579539L283.658 0.599539C284.178 0.899539 284.798 1.13954 285.398 1.51954C286.618 2.25954 287.658 3.35954 287.998 4.89954C288.178 5.81954 288.338 6.77954 288.478 7.69954C288.538 8.03954 288.538 8.35954 288.578 8.67954ZM278.678 8.25954C278.678 8.93954 278.658 9.29954 278.678 9.65954C278.738 10.8195 279.318 11.6595 280.278 12.2995C280.918 12.7395 281.138 12.9595 282.078 13.0195C282.798 13.0195 283.498 12.7595 283.958 12.1995L283.978 12.1795C284.298 11.8195 284.638 11.3995 284.998 10.9995C285.558 10.3595 285.738 9.73954 285.738 8.81954C285.738 8.53954 285.738 8.27954 285.718 8.01954C285.638 6.99954 285.478 6.15954 285.178 5.17954C284.978 4.49954 284.858 4.03954 284.398 3.71954C283.818 3.31954 283.298 3.09954 282.598 2.85954C282.318 2.73954 281.578 2.99954 281.198 3.17954V3.19954C280.278 3.61954 279.998 3.83954 279.518 4.67954C279.198 5.27954 278.978 5.85954 278.878 6.51954C278.758 7.17954 278.718 7.85954 278.678 8.25954Z" fill="url(#paint14_linear)"/>
<path d="M312.797 8.67954C312.717 9.19954 312.697 9.79954 312.537 10.4395V10.4595C312.357 11.0995 311.997 11.7195 311.597 12.2395C310.897 13.1195 310.077 13.9195 309.237 14.6195C308.977 14.8395 308.617 15.0995 308.217 15.2195H308.197C307.577 15.3995 306.897 15.5795 306.217 15.6795C305.617 15.7595 304.917 15.6395 304.377 15.2795C303.897 14.9795 303.217 14.8595 302.577 14.3795C301.377 13.4995 300.437 12.3195 300.257 10.6995C300.117 9.27954 300.137 7.81954 300.437 6.41954C300.457 6.35954 300.457 6.21954 300.517 6.01954C300.697 4.83954 300.997 3.77954 301.837 2.87954L303.977 1.09954C304.297 0.899539 304.717 0.719538 305.297 0.499539C306.157 0.139539 307.017 0.119539 307.857 0.579539L307.877 0.599539C308.397 0.899539 309.017 1.13954 309.617 1.51954C310.837 2.25954 311.877 3.35954 312.217 4.89954C312.397 5.81954 312.557 6.77954 312.697 7.69954C312.757 8.03954 312.757 8.35954 312.797 8.67954ZM302.897 8.25954C302.897 8.93954 302.877 9.29954 302.897 9.65954C302.957 10.8195 303.537 11.6595 304.497 12.2995C305.137 12.7395 305.357 12.9595 306.297 13.0195C307.017 13.0195 307.717 12.7595 308.177 12.1995L308.197 12.1795C308.517 11.8195 308.857 11.3995 309.217 10.9995C309.777 10.3595 309.957 9.73954 309.957 8.81954C309.957 8.53954 309.957 8.27954 309.937 8.01954C309.857 6.99954 309.697 6.15954 309.397 5.17954C309.197 4.49954 309.077 4.03954 308.617 3.71954C308.037 3.31954 307.517 3.09954 306.817 2.85954C306.537 2.73954 305.797 2.99954 305.417 3.17954V3.19954C304.497 3.61954 304.217 3.83954 303.737 4.67954C303.417 5.27954 303.197 5.85954 303.097 6.51954C302.977 7.17954 302.937 7.85954 302.897 8.25954Z" fill="url(#paint15_linear)"/>
<path d="M326.768 0.439539C326.668 0.459538 326.528 0.479539 326.388 0.539538C326.028 0.699539 325.668 1.09954 325.668 1.57954C325.648 2.63954 325.628 3.69954 325.628 4.79954C325.568 5.55954 325.408 6.41954 325.468 7.27954C325.528 8.05954 325.148 8.85954 325.048 9.81954C324.608 10.9195 324.088 11.8995 323.328 12.7795C323.028 13.1395 322.508 13.2595 322.048 13.0995L322.068 13.1195C320.868 12.6795 320.188 11.8595 319.968 10.5995C319.948 10.4195 319.928 10.2195 319.928 10.0395C319.868 8.67954 319.588 7.41954 319.588 6.11954C319.608 5.33954 319.568 4.53954 319.468 3.75954C319.388 2.99954 319.288 2.27954 319.328 1.53954V1.55954C319.368 1.01954 318.888 0.619538 318.608 0.479539C317.688 0.0795381 316.548 0.839539 316.588 1.81954C316.628 2.53954 316.668 3.23954 316.688 3.95954C316.708 4.67954 316.728 5.35954 316.668 6.03954C316.608 6.89954 316.788 7.65954 316.788 8.35954C316.788 9.29954 316.968 10.1795 317.048 10.9995V11.0195C317.268 12.8995 318.488 14.2395 319.928 15.1395C321.328 16.0195 323.668 15.9795 325.108 14.7395C325.948 13.9795 326.648 13.0395 327.148 12.0395C327.848 10.6395 328.048 9.11954 328.308 7.71954C328.208 6.99954 328.368 6.23954 328.388 5.39954C328.408 4.23954 328.488 3.07954 328.548 1.89954C328.608 0.899539 327.728 0.159539 326.768 0.439539Z" fill="url(#paint16_linear)"/>
<path d="M343.745 13.6595C343.425 13.2795 343.085 12.8995 342.745 12.5395C342.285 12.1195 341.885 11.6795 341.505 11.1995C340.965 10.4795 340.385 9.81954 339.825 9.15954L339.805 9.13954L341.185 8.29954C342.645 7.35954 343.385 5.91954 343.185 4.23954C343.165 3.97954 343.105 3.77954 343.085 3.61954C342.925 2.51954 342.285 1.59954 341.405 0.999538C341.125 0.819538 340.745 0.639538 340.325 0.619538C339.385 0.619538 338.425 0.519538 337.385 0.619538C336.585 0.719538 335.825 0.699539 335.065 0.499539C334.705 0.399539 334.325 0.419539 334.025 0.439539C333.385 0.479539 332.745 1.11954 332.745 1.75954C332.745 2.35954 332.645 3.05954 332.825 3.79954C332.905 4.15954 332.885 4.51954 332.785 4.89954C332.605 5.69954 332.525 6.51954 332.665 7.33954L332.645 7.31954C332.685 7.61954 332.665 7.89954 332.625 8.21954C332.485 8.97954 332.565 9.73954 332.585 10.3995V10.3795C332.585 11.0395 332.605 11.6995 332.625 12.3595V14.2795C332.625 14.6995 332.965 15.0395 333.205 15.1795C333.925 15.5795 334.865 15.6595 335.665 15.1195C335.625 14.4395 335.565 13.7995 335.505 13.1595C335.465 12.5995 335.385 12.0595 335.345 11.5595C335.285 10.3795 334.325 10.3195 336.785 10.0195C337.085 9.97954 337.245 10.0795 337.405 10.3395H337.385C337.625 10.7795 337.965 11.2395 338.345 11.6195L338.325 11.5995C338.825 12.1395 339.265 12.6395 339.645 13.2395H339.665C339.965 13.6995 340.305 14.1195 340.645 14.5595C340.925 14.8795 341.245 15.1995 341.545 15.4395C341.785 15.6395 342.205 15.6795 342.425 15.6795C342.925 15.6795 343.305 15.3795 343.565 15.1395C344.005 14.7395 344.165 14.1595 343.745 13.6595ZM338.005 7.47954C337.945 7.51954 337.905 7.51954 337.785 7.53954C337.425 7.57954 337.025 7.65954 336.645 7.77954C336.265 7.91954 335.905 7.87954 335.445 7.77954V7.79954C335.345 7.17954 335.245 6.69954 335.305 6.15954L335.385 5.07954C335.405 4.57954 335.425 4.09954 335.465 3.61954C335.485 3.47954 335.645 3.29954 335.765 3.25954C336.085 3.17954 336.405 3.13954 336.745 3.09954C337.365 3.03954 338.025 2.99954 338.665 2.95954H338.645C339.205 2.93954 339.705 3.05954 340.025 3.39954C340.525 3.93954 340.705 4.47954 340.485 5.23954C340.385 5.61954 340.225 5.85954 339.925 6.17954C339.405 6.71954 338.725 7.05954 338.005 7.47954Z" fill="url(#paint17_linear)"/>
<path d="M370.482 14.0195C370.422 13.6195 370.282 13.2395 370.082 12.8595C369.822 12.2195 369.482 11.6195 369.322 10.9795C369.262 10.7595 369.102 10.4195 368.902 10.1395C368.322 9.05954 367.862 7.89954 367.302 6.69954C366.742 5.41954 366.242 4.31954 365.602 3.01954C365.322 2.39954 364.982 1.67954 364.622 1.03954C364.402 0.579539 363.922 0.299539 363.482 0.299539C363.122 0.299539 362.642 0.419539 362.322 0.859539C361.302 2.51954 360.362 4.05954 359.742 5.89954C359.502 6.51954 359.222 7.03954 358.922 7.59954C358.082 9.19954 356.962 11.4795 355.962 12.8595C355.722 13.1395 355.682 13.5395 355.642 13.4595C355.502 14.1195 355.742 14.8795 356.342 15.2395C356.242 15.0595 356.422 15.3795 356.742 15.4595C357.022 15.5195 357.562 15.4995 357.762 15.1195C357.982 14.7795 358.222 14.3595 358.462 13.9595C358.682 13.5595 359.302 12.4995 359.542 12.0995C359.742 11.8195 359.902 11.7195 359.982 11.7595C360.542 11.7595 361.022 11.7595 361.562 11.8395C362.182 11.8395 362.822 11.8995 363.482 11.8395C364.262 11.6995 365.122 11.7595 366.022 11.6995C366.522 11.6995 366.742 11.8395 366.922 12.3395C366.962 12.6595 367.102 12.9795 367.222 13.2195C367.462 13.8995 367.702 14.3595 368.042 14.9595C368.382 15.6395 369.162 15.9195 369.362 15.7795C369.702 15.5595 369.902 15.3795 370.122 15.2195C370.402 14.9995 370.582 14.4595 370.482 14.0195ZM363.102 9.15954C362.422 9.15954 361.742 9.21954 361.082 9.27954C361.142 9.11954 361.142 8.99954 361.162 8.91954C361.282 8.67954 361.402 8.43954 361.542 8.05954C361.762 7.47954 362.122 6.81954 362.382 6.07954C362.482 5.69954 362.762 5.33954 363.022 4.85954C363.102 4.67954 363.222 4.47954 363.322 4.25954L363.342 4.29954C363.982 5.73954 364.642 7.25954 365.302 8.79954C365.322 8.81954 365.322 8.87954 365.342 8.97954C365.042 9.01954 364.742 9.03954 364.382 9.07954C363.962 9.07954 363.482 9.15954 363.102 9.15954Z" fill="url(#paint18_linear)"/>
<path d="M390.167 13.0395C390.107 12.5995 390.087 12.1395 390.067 11.6595C389.987 9.97954 390.107 8.29954 390.067 6.55954C390.047 5.79954 389.987 5.01954 389.947 4.27954C389.987 3.41954 389.827 2.63954 389.827 1.89954C389.827 1.77954 389.907 1.37954 389.667 1.09954C389.507 0.899539 389.127 0.419539 388.687 0.419539H388.667C388.007 0.439538 387.067 0.799539 386.687 1.61954V1.63954C386.107 2.99954 385.447 4.31954 384.847 5.65954C384.127 7.21954 383.327 9.01954 382.627 10.5595C382.467 10.8995 382.267 11.4395 382.087 11.8995C381.947 11.6395 381.727 11.3395 381.587 11.0795L381.607 11.0995C380.827 9.41954 380.027 7.91954 379.527 6.29954C378.747 3.73954 377.987 2.23954 376.547 1.03954C376.287 0.799539 375.487 0.359539 375.047 0.779539C374.867 0.959539 374.247 1.45954 374.187 2.01954V1.99954C374.067 2.89954 374.107 3.59954 374.167 4.43954C374.227 5.45954 374.367 6.57954 374.407 7.45954C374.387 7.71954 374.427 8.31954 374.447 8.51954L374.507 9.53954C374.527 9.95954 374.567 10.3395 374.587 10.6795C374.587 10.8195 374.587 11.0795 374.547 11.1395C374.547 12.2395 374.587 13.0595 374.607 14.1195C374.627 14.9595 374.987 15.7195 375.967 15.4395H375.947C376.187 15.3795 376.627 15.3795 376.967 14.9595C377.307 14.5395 377.367 13.8795 377.347 13.4595C377.327 12.6995 377.287 11.9395 377.267 11.1795C377.227 10.3795 376.967 8.25954 376.947 7.49954C376.927 7.21954 376.927 6.83954 376.947 6.41954C377.167 7.07954 377.387 7.73954 377.667 8.31954C378.067 9.21954 378.727 11.6395 379.227 12.5795C379.627 13.3395 380.027 15.0595 381.547 15.1795C381.987 15.2195 382.587 15.1995 383.067 14.9795C383.627 14.7195 383.867 14.1995 384.067 13.7795C384.667 12.5595 385.107 11.2795 385.667 10.0995C386.067 9.21954 386.447 8.31954 386.847 7.45954L387.247 6.59954C387.287 7.29954 387.467 7.83954 387.407 8.51954C387.407 9.27954 387.387 9.99954 387.367 10.7395C387.347 11.5195 387.527 12.1995 387.547 12.8195C387.567 13.2595 387.467 14.1195 387.807 14.6995C387.967 15.0195 388.307 15.4395 388.827 15.4995C390.667 15.7195 390.247 13.6795 390.167 13.0395Z" fill="url(#paint19_linear)"/>
<path d="M408.744 14.0195C408.684 13.6195 408.544 13.2395 408.344 12.8595C408.084 12.2195 407.744 11.6195 407.584 10.9795C407.524 10.7595 407.364 10.4195 407.164 10.1395C406.584 9.05954 406.124 7.89954 405.564 6.69954C405.004 5.41954 404.504 4.31954 403.864 3.01954C403.584 2.39954 403.244 1.67954 402.884 1.03954C402.664 0.579539 402.184 0.299539 401.744 0.299539C401.384 0.299539 400.904 0.419539 400.584 0.859539C399.564 2.51954 398.624 4.05954 398.004 5.89954C397.764 6.51954 397.484 7.03954 397.184 7.59954C396.344 9.19954 395.224 11.4795 394.224 12.8595C393.984 13.1395 393.944 13.5395 393.904 13.4595C393.764 14.1195 394.004 14.8795 394.604 15.2395C394.504 15.0595 394.684 15.3795 395.004 15.4595C395.284 15.5195 395.824 15.4995 396.024 15.1195C396.244 14.7795 396.484 14.3595 396.724 13.9595C396.944 13.5595 397.564 12.4995 397.804 12.0995C398.004 11.8195 398.164 11.7195 398.244 11.7595C398.804 11.7595 399.284 11.7595 399.824 11.8395C400.444 11.8395 401.084 11.8995 401.744 11.8395C402.524 11.6995 403.384 11.7595 404.284 11.6995C404.784 11.6995 405.004 11.8395 405.184 12.3395C405.224 12.6595 405.364 12.9795 405.484 13.2195C405.724 13.8995 405.964 14.3595 406.304 14.9595C406.644 15.6395 407.424 15.9195 407.624 15.7795C407.964 15.5595 408.164 15.3795 408.384 15.2195C408.664 14.9995 408.844 14.4595 408.744 14.0195ZM401.364 9.15954C400.684 9.15954 400.004 9.21954 399.344 9.27954C399.404 9.11954 399.404 8.99954 399.424 8.91954C399.544 8.67954 399.664 8.43954 399.804 8.05954C400.024 7.47954 400.384 6.81954 400.644 6.07954C400.744 5.69954 401.024 5.33954 401.284 4.85954C401.364 4.67954 401.484 4.47954 401.584 4.25954L401.604 4.29954C402.244 5.73954 402.904 7.25954 403.564 8.79954C403.584 8.81954 403.584 8.87954 403.604 8.97954C403.304 9.01954 403.004 9.03954 402.644 9.07954C402.224 9.07954 401.744 9.15954 401.364 9.15954Z" fill="url(#paint20_linear)"/>
<path d="M422.789 12.7395C421.769 12.8195 420.749 12.9395 419.729 12.8995H419.749C418.869 12.8395 418.009 12.8195 417.169 12.7795H417.189L416.709 12.7395C417.129 12.0595 417.509 11.3995 417.989 10.8195C418.549 10.1595 419.289 9.49954 419.769 8.61954C419.809 8.49954 421.389 6.65954 421.509 6.51954C422.369 5.45954 423.009 4.23954 423.769 3.19954C424.009 2.89954 424.169 2.57954 424.329 2.29954C424.689 1.57954 424.249 0.599539 423.409 0.459538C423.009 0.399539 422.549 0.37954 422.129 0.37954C421.369 0.37954 420.629 0.439539 419.889 0.459538H419.869C419.509 0.479539 419.069 0.439539 418.609 0.539538H418.589C417.829 0.719538 417.049 0.659539 416.189 0.599539C415.809 0.579539 415.449 0.579539 415.089 0.579539C414.729 0.579539 414.349 0.779539 414.129 0.959539C413.669 1.33954 413.689 1.95954 414.069 2.35954C414.349 2.61954 414.769 2.87954 415.229 2.89954C416.229 2.93954 417.189 2.87954 418.149 2.77954C418.949 2.69954 419.769 2.71954 420.629 2.77954C420.129 3.81954 419.509 4.73954 418.769 5.63954C418.369 6.11954 417.969 6.57954 417.569 7.09954C417.329 7.41954 417.069 7.73954 416.809 8.03954C416.149 8.71954 415.569 9.41954 415.009 10.1395C414.069 11.2995 413.369 12.5595 412.509 13.5995C412.249 13.9195 412.389 14.5195 412.629 14.7995C412.889 15.1395 413.329 15.3795 413.709 15.4595C414.169 15.5395 414.669 15.5395 415.089 15.4795C415.629 15.3595 416.169 15.3395 416.769 15.3395H416.789C417.449 15.3195 418.149 15.4195 418.809 15.4395C419.609 15.3995 420.269 15.2995 420.949 15.3795C421.789 15.4395 422.569 15.2995 423.269 15.1795H423.289C423.629 15.0995 423.929 14.8395 424.089 14.5795C424.169 14.4195 424.269 14.2195 424.349 14.0195C424.609 13.3995 424.089 12.6395 423.409 12.6795L422.789 12.7395ZM416.569 12.9595L416.509 13.0595V13.0395L416.569 12.9595Z" fill="url(#paint21_linear)"/>
<path d="M429.343 10.3595C429.443 8.83954 429.143 7.07954 428.963 5.23954C428.843 4.13954 428.803 3.01954 428.883 1.89954V1.91954C428.903 1.23954 429.443 0.679539 430.023 0.459538C430.783 0.159539 431.663 0.679539 431.763 1.45954V1.43954C431.763 1.49954 431.863 1.71954 431.763 1.99954C431.543 2.85954 431.643 3.69954 431.843 4.65954V4.67954C431.943 5.29954 431.903 5.89954 431.963 6.39954C432.183 8.17954 432.323 10.3795 432.323 12.1595C432.323 12.3195 432.343 12.4395 432.403 12.5995C432.763 13.5595 432.343 14.4195 431.903 15.0595C431.643 15.4395 431.183 15.4995 430.943 15.4995C430.343 15.5195 429.923 15.2195 429.763 14.7395C429.403 13.8595 429.203 12.8995 429.343 11.8995V11.9195C429.383 11.6595 429.343 10.9195 429.343 10.3595Z" fill="url(#paint22_linear)"/>
<path d="M449.059 5.51954C449.059 4.31954 449.179 3.07954 449.139 1.79954V1.81954C449.139 1.29954 448.599 0.539538 448.079 0.439539H448.099C447.159 0.199539 446.399 1.03954 446.419 1.91954C446.419 2.55954 446.399 3.17954 446.439 3.85954V3.83954C446.479 5.01954 446.619 6.15954 446.619 7.31954C446.599 8.23954 446.539 9.13954 446.459 10.0595V10.0795L446.419 10.8595C446.219 10.6395 445.959 10.4195 445.719 10.0995C444.759 8.81954 443.739 7.55954 442.859 6.23954C441.739 4.57954 440.719 2.83954 439.659 1.11954C439.379 0.639538 438.639 0.0995381 437.919 0.639538C437.419 1.01954 437.219 1.57954 437.159 2.09954C437.099 2.85954 437.039 3.61954 437.039 4.39954V4.37954C437.019 4.97954 436.939 5.61954 436.939 6.27954C436.939 7.81954 437.099 9.35954 437.019 10.8595C436.959 12.0195 436.979 13.1395 437.039 14.2795C437.079 15.2395 437.859 15.5395 438.539 15.3795C438.799 15.3195 440.079 15.3395 439.919 13.9995V13.9795C439.839 13.4795 439.779 12.9595 439.759 12.4595C439.719 11.1195 439.759 9.73954 439.679 8.33954C439.619 7.53954 439.539 6.75954 439.499 5.95954L439.599 6.09954C439.819 6.41954 440.159 7.09954 440.419 7.49954H440.439C440.719 7.89954 440.999 8.29954 441.259 8.69954C442.499 10.4795 443.739 12.2995 445.059 13.9995C445.299 14.3395 445.599 15.2595 446.379 15.4995C446.859 15.6395 447.739 15.4995 448.139 15.1195L448.119 15.1395C448.939 14.4395 448.759 13.1795 448.819 12.5195V12.5395C448.939 11.4195 449.059 10.2595 449.119 9.11954C449.179 7.89954 449.039 6.69954 449.059 5.51954Z" fill="url(#paint23_linear)"/>
<path d="M464.911 9.17954C464.691 8.45954 463.911 7.89954 463.171 8.25954C462.591 8.51954 462.031 8.43954 461.291 8.37954C461.091 8.35954 460.831 8.27954 460.511 8.27954C460.031 8.27954 459.451 8.41954 459.051 8.83954C458.751 9.09954 458.711 9.51954 458.771 9.73954C458.851 10.0795 459.111 10.4595 459.531 10.6395C460.171 10.9395 460.851 10.8395 461.371 10.8395C462.691 10.8595 462.491 11.1995 462.511 11.9395C462.531 12.1595 462.471 12.2995 462.311 12.4795C461.671 13.0195 460.951 13.2395 460.151 13.1195C459.191 12.9595 458.331 12.6995 457.611 12.0795C457.311 11.7995 457.071 11.5795 456.851 11.2995H456.871C455.831 9.71954 455.871 8.09954 456.491 6.33954C456.671 5.87954 456.891 5.47954 457.131 5.01954C457.571 4.15954 458.231 3.57954 459.111 3.07954C459.391 2.89954 459.731 2.85954 460.211 2.79954H460.331C460.991 3.05954 461.591 3.33954 462.131 3.73954H462.151C462.551 4.01954 463.511 4.71954 464.291 3.99954C465.631 2.65954 462.991 1.25954 462.351 0.979539C462.011 0.819539 461.651 0.599539 461.231 0.419539C461.031 0.319539 460.711 0.239539 460.471 0.239539C459.531 0.239539 458.491 0.339539 457.551 0.899539H457.531C456.671 1.45954 455.911 2.09954 455.231 2.89954L455.251 2.87954C454.611 3.57954 454.111 4.35954 453.811 5.25954C453.631 5.77954 453.451 6.31954 453.291 6.85954V6.83954C453.211 7.11954 453.151 7.43954 453.131 7.67954C453.091 8.05954 453.371 10.3795 453.531 11.0995C454.031 12.4195 454.751 13.6795 456.051 14.4795V14.4995C456.751 14.8995 457.471 15.2995 458.351 15.4395C458.491 15.4395 458.651 15.4995 458.911 15.5595H458.931C459.131 15.6195 459.351 15.6395 459.531 15.6795C460.631 15.8395 461.811 15.7195 462.811 15.0995V15.1195C463.351 14.7795 463.831 14.4795 464.351 14.1795C464.711 13.9995 464.991 13.5395 465.011 13.1795C465.031 12.8595 465.071 12.5395 465.051 12.1795C465.011 11.4995 465.011 10.8195 465.071 10.1395C465.111 9.77954 464.991 9.41954 464.911 9.17954Z" fill="url(#paint24_linear)"/>
<path d="M484.916 10.8795C484.636 10.3995 484.276 10.0595 483.776 9.79954L483.756 9.77954C483.156 9.43954 482.576 9.09954 481.956 8.83954C481.076 8.49954 480.296 8.01954 479.516 7.59954C478.796 7.19954 478.236 6.55954 477.896 5.83954C477.736 5.47954 477.616 5.03954 477.636 4.63954C477.696 2.91954 478.596 1.55954 480.056 0.679539C480.796 0.239538 481.676 0.159539 482.396 0.179538C483.216 0.219539 484.076 0.339539 484.896 0.579539C485.716 0.879539 486.496 1.27954 487.116 1.91954C487.636 2.37954 487.936 3.01954 488.056 3.65954C488.096 3.87954 487.956 4.27954 487.776 4.47954C487.216 5.03954 486.256 5.01954 485.776 4.39954C485.756 4.37954 485.616 4.27954 485.536 4.03954C485.396 3.61954 485.076 3.41954 484.576 3.15954C484.076 2.93954 483.616 2.71954 483.096 2.59954C482.696 2.49954 482.316 2.45954 481.936 2.53954V2.51954C481.176 2.69954 480.616 3.19954 480.516 3.99954V4.15954C480.436 4.71954 480.636 5.05954 481.116 5.31954C481.936 5.79954 482.676 6.27954 483.536 6.55954L483.556 6.57954C484.016 6.73954 484.456 6.95954 484.896 7.17954C486.056 7.75954 486.896 8.73954 487.616 9.69954H487.636C487.896 10.0795 487.976 10.4995 488.036 10.7995C488.396 12.1795 487.976 13.4595 486.876 14.3395C486.656 14.4995 486.416 14.6995 486.156 14.8795L486.176 14.8595C486.036 14.9595 485.776 15.1595 485.516 15.2195C484.276 15.4995 482.956 15.7995 481.576 15.6595C480.756 15.5795 479.976 15.2595 479.276 14.9595H479.296C478.676 14.7195 478.236 14.1395 477.976 13.6795C477.596 13.0395 477.256 12.3195 477.096 11.5795C477.016 11.1795 477.256 10.6195 477.656 10.4395H477.636C478.016 10.2395 478.476 10.1795 478.856 10.1995C479.156 10.2195 479.676 10.5195 479.756 10.8795V10.8595C479.816 11.0995 479.896 11.3595 479.936 11.5995C479.976 11.8795 480.096 12.0395 480.356 12.2995H480.336C480.856 12.8195 481.536 13.0795 482.296 13.3595C483.256 13.3995 484.076 13.3795 484.876 12.9795H484.856C484.916 12.9595 484.976 12.8595 485.076 12.7195V12.7395C485.296 12.4195 485.396 12.0795 485.436 11.6995L484.916 10.8795Z" fill="url(#paint25_linear)"/>
<path d="M501.474 2.71954C501.314 2.39954 501.094 2.07954 500.894 1.77954C500.634 1.41954 500.194 0.959539 499.654 0.859539C498.974 0.699539 498.214 0.319539 497.254 0.419539C496.834 0.459538 496.394 0.419539 495.894 0.419539H495.874C495.874 0.419539 495.394 0.439538 495.174 0.419539C494.954 0.399539 494.674 0.339539 494.334 0.339539C494.014 0.359538 493.614 0.419539 493.254 0.559538C492.654 0.839539 492.094 1.91954 492.154 2.53954C492.214 3.03954 492.334 3.45954 492.314 3.83954V3.85954C492.294 5.03954 492.294 6.21954 492.274 7.39954C492.254 8.55954 492.174 9.75954 492.274 10.9795C492.334 11.7995 492.354 12.7995 492.254 13.5995C492.154 14.4595 492.794 15.6195 493.914 15.4995C494.474 15.4195 494.834 15.0195 494.974 14.5795C495.354 13.4395 495.114 12.1195 495.094 11.1195C495.474 10.9395 495.754 10.7795 496.054 10.6995C496.614 10.5395 497.154 10.3795 497.674 10.2995C498.234 10.1995 498.754 9.95954 499.194 9.63954L499.174 9.65954C499.534 9.41954 499.914 9.15954 500.254 8.87954C500.934 8.33954 501.514 7.57954 501.754 6.65954C501.934 5.99954 501.974 5.33954 501.994 4.71954V4.69954C501.994 3.97954 501.794 3.29954 501.474 2.71954ZM498.754 6.75954C498.074 7.59954 497.254 8.01954 496.214 8.27954C495.854 8.35954 495.454 8.37954 495.034 8.43954H494.974C495.054 7.73954 495.014 7.05954 495.034 6.43954C495.074 5.27954 495.114 4.09954 495.014 2.93954C495.314 2.93954 495.574 2.95954 495.854 2.97954C496.434 2.79954 496.974 3.03954 497.734 3.11954H497.794C498.514 3.59954 499.034 4.19954 499.114 5.03954C499.134 5.23954 499.154 5.43954 499.154 5.61954V5.63954C499.174 6.05954 499.034 6.37954 498.754 6.75954Z" fill="url(#paint26_linear)"/>
<path d="M518.422 8.67954C518.342 9.19954 518.322 9.79954 518.162 10.4395V10.4595C517.982 11.0995 517.622 11.7195 517.222 12.2395C516.522 13.1195 515.702 13.9195 514.862 14.6195C514.602 14.8395 514.242 15.0995 513.842 15.2195H513.822C513.202 15.3995 512.522 15.5795 511.842 15.6795C511.242 15.7595 510.542 15.6395 510.002 15.2795C509.522 14.9795 508.842 14.8595 508.202 14.3795C507.002 13.4995 506.062 12.3195 505.882 10.6995C505.742 9.27954 505.762 7.81954 506.062 6.41954C506.082 6.35954 506.082 6.21954 506.142 6.01954C506.322 4.83954 506.622 3.77954 507.462 2.87954L509.602 1.09954C509.922 0.899539 510.342 0.719538 510.922 0.499539C511.782 0.139539 512.642 0.119539 513.482 0.579539L513.502 0.599539C514.022 0.899539 514.642 1.13954 515.242 1.51954C516.462 2.25954 517.502 3.35954 517.842 4.89954C518.022 5.81954 518.182 6.77954 518.322 7.69954C518.382 8.03954 518.382 8.35954 518.422 8.67954ZM508.522 8.25954C508.522 8.93954 508.502 9.29954 508.522 9.65954C508.582 10.8195 509.162 11.6595 510.122 12.2995C510.762 12.7395 510.982 12.9595 511.922 13.0195C512.642 13.0195 513.342 12.7595 513.802 12.1995L513.822 12.1795C514.142 11.8195 514.482 11.3995 514.842 10.9995C515.402 10.3595 515.582 9.73954 515.582 8.81954C515.582 8.53954 515.582 8.27954 515.562 8.01954C515.482 6.99954 515.322 6.15954 515.022 5.17954C514.822 4.49954 514.702 4.03954 514.242 3.71954C513.662 3.31954 513.142 3.09954 512.442 2.85954C512.162 2.73954 511.422 2.99954 511.042 3.17954V3.19954C510.122 3.61954 509.842 3.83954 509.362 4.67954C509.042 5.27954 508.822 5.85954 508.722 6.51954C508.602 7.17954 508.562 7.85954 508.522 8.25954Z" fill="url(#paint27_linear)"/>
<path d="M534.333 5.51954C534.333 4.31954 534.453 3.07954 534.413 1.79954V1.81954C534.413 1.29954 533.873 0.539538 533.353 0.439539H533.373C532.433 0.199539 531.673 1.03954 531.693 1.91954C531.693 2.55954 531.673 3.17954 531.713 3.85954V3.83954C531.753 5.01954 531.893 6.15954 531.893 7.31954C531.873 8.23954 531.813 9.13954 531.733 10.0595V10.0795L531.693 10.8595C531.493 10.6395 531.233 10.4195 530.993 10.0995C530.033 8.81954 529.013 7.55954 528.133 6.23954C527.013 4.57954 525.993 2.83954 524.933 1.11954C524.653 0.639538 523.913 0.0995381 523.193 0.639538C522.693 1.01954 522.493 1.57954 522.433 2.09954C522.373 2.85954 522.313 3.61954 522.313 4.39954V4.37954C522.293 4.97954 522.213 5.61954 522.213 6.27954C522.213 7.81954 522.373 9.35954 522.293 10.8595C522.233 12.0195 522.253 13.1395 522.313 14.2795C522.353 15.2395 523.133 15.5395 523.813 15.3795C524.073 15.3195 525.353 15.3395 525.193 13.9995V13.9795C525.113 13.4795 525.053 12.9595 525.033 12.4595C524.993 11.1195 525.033 9.73954 524.953 8.33954C524.893 7.53954 524.813 6.75954 524.773 5.95954L524.873 6.09954C525.093 6.41954 525.433 7.09954 525.693 7.49954H525.713C525.993 7.89954 526.273 8.29954 526.533 8.69954C527.773 10.4795 529.013 12.2995 530.333 13.9995C530.573 14.3395 530.873 15.2595 531.653 15.4995C532.133 15.6395 533.013 15.4995 533.413 15.1195L533.393 15.1395C534.213 14.4395 534.033 13.1795 534.093 12.5195V12.5395C534.213 11.4195 534.333 10.2595 534.393 9.11954C534.453 7.89954 534.313 6.69954 534.333 5.51954Z" fill="url(#paint28_linear)"/>
<path d="M546.244 10.8795C545.964 10.3995 545.604 10.0595 545.104 9.79954L545.084 9.77954C544.484 9.43954 543.904 9.09954 543.284 8.83954C542.404 8.49954 541.624 8.01954 540.844 7.59954C540.124 7.19954 539.564 6.55954 539.224 5.83954C539.064 5.47954 538.944 5.03954 538.964 4.63954C539.024 2.91954 539.924 1.55954 541.384 0.679539C542.124 0.239538 543.004 0.159539 543.724 0.179538C544.544 0.219539 545.404 0.339539 546.224 0.579539C547.044 0.879539 547.824 1.27954 548.444 1.91954C548.964 2.37954 549.264 3.01954 549.384 3.65954C549.424 3.87954 549.284 4.27954 549.104 4.47954C548.544 5.03954 547.584 5.01954 547.104 4.39954C547.084 4.37954 546.944 4.27954 546.864 4.03954C546.724 3.61954 546.404 3.41954 545.904 3.15954C545.404 2.93954 544.944 2.71954 544.424 2.59954C544.024 2.49954 543.644 2.45954 543.264 2.53954V2.51954C542.504 2.69954 541.944 3.19954 541.844 3.99954V4.15954C541.764 4.71954 541.964 5.05954 542.444 5.31954C543.264 5.79954 544.004 6.27954 544.864 6.55954L544.884 6.57954C545.344 6.73954 545.784 6.95954 546.224 7.17954C547.384 7.75954 548.224 8.73954 548.944 9.69954H548.964C549.224 10.0795 549.304 10.4995 549.364 10.7995C549.724 12.1795 549.304 13.4595 548.204 14.3395C547.984 14.4995 547.744 14.6995 547.484 14.8795L547.504 14.8595C547.364 14.9595 547.104 15.1595 546.844 15.2195C545.604 15.4995 544.284 15.7995 542.904 15.6595C542.084 15.5795 541.304 15.2595 540.604 14.9595H540.624C540.004 14.7195 539.564 14.1395 539.304 13.6795C538.924 13.0395 538.584 12.3195 538.424 11.5795C538.344 11.1795 538.584 10.6195 538.984 10.4395H538.964C539.344 10.2395 539.804 10.1795 540.184 10.1995C540.484 10.2195 541.004 10.5195 541.084 10.8795V10.8595C541.144 11.0995 541.224 11.3595 541.264 11.5995C541.304 11.8795 541.424 12.0395 541.684 12.2995H541.664C542.184 12.8195 542.864 13.0795 543.624 13.3595C544.584 13.3995 545.404 13.3795 546.204 12.9795H546.184C546.244 12.9595 546.304 12.8595 546.404 12.7195V12.7395C546.624 12.4195 546.724 12.0795 546.764 11.6995L546.244 10.8795Z" fill="url(#paint29_linear)"/>
<path d="M565.902 8.67954C565.822 9.19954 565.802 9.79954 565.642 10.4395V10.4595C565.462 11.0995 565.102 11.7195 564.702 12.2395C564.002 13.1195 563.182 13.9195 562.342 14.6195C562.082 14.8395 561.722 15.0995 561.322 15.2195H561.302C560.682 15.3995 560.002 15.5795 559.322 15.6795C558.722 15.7595 558.022 15.6395 557.482 15.2795C557.002 14.9795 556.322 14.8595 555.682 14.3795C554.482 13.4995 553.542 12.3195 553.362 10.6995C553.222 9.27954 553.242 7.81954 553.542 6.41954C553.562 6.35954 553.562 6.21954 553.622 6.01954C553.802 4.83954 554.102 3.77954 554.942 2.87954L557.082 1.09954C557.402 0.899539 557.822 0.719538 558.402 0.499539C559.262 0.139539 560.122 0.119539 560.962 0.579539L560.982 0.599539C561.502 0.899539 562.122 1.13954 562.722 1.51954C563.942 2.25954 564.982 3.35954 565.322 4.89954C565.502 5.81954 565.662 6.77954 565.802 7.69954C565.862 8.03954 565.862 8.35954 565.902 8.67954ZM556.002 8.25954C556.002 8.93954 555.982 9.29954 556.002 9.65954C556.062 10.8195 556.642 11.6595 557.602 12.2995C558.242 12.7395 558.462 12.9595 559.402 13.0195C560.122 13.0195 560.822 12.7595 561.282 12.1995L561.302 12.1795C561.622 11.8195 561.962 11.3995 562.322 10.9995C562.882 10.3595 563.062 9.73954 563.062 8.81954C563.062 8.53954 563.062 8.27954 563.042 8.01954C562.962 6.99954 562.802 6.15954 562.502 5.17954C562.302 4.49954 562.182 4.03954 561.722 3.71954C561.142 3.31954 560.622 3.09954 559.922 2.85954C559.642 2.73954 558.902 2.99954 558.522 3.17954V3.19954C557.602 3.61954 557.322 3.83954 556.842 4.67954C556.522 5.27954 556.302 5.85954 556.202 6.51954C556.082 7.17954 556.042 7.85954 556.002 8.25954Z" fill="url(#paint30_linear)"/>
<path d="M580.893 13.6595C580.573 13.2795 580.233 12.8995 579.893 12.5395C579.433 12.1195 579.033 11.6795 578.653 11.1995C578.113 10.4795 577.533 9.81954 576.973 9.15954L576.953 9.13954L578.333 8.29954C579.793 7.35954 580.533 5.91954 580.333 4.23954C580.313 3.97954 580.253 3.77954 580.233 3.61954C580.073 2.51954 579.433 1.59954 578.553 0.999538C578.273 0.819538 577.893 0.639538 577.473 0.619538C576.533 0.619538 575.573 0.519538 574.533 0.619538C573.733 0.719538 572.973 0.699539 572.213 0.499539C571.853 0.399539 571.473 0.419539 571.173 0.439539C570.533 0.479539 569.893 1.11954 569.893 1.75954C569.893 2.35954 569.793 3.05954 569.973 3.79954C570.053 4.15954 570.033 4.51954 569.933 4.89954C569.753 5.69954 569.673 6.51954 569.813 7.33954L569.793 7.31954C569.833 7.61954 569.813 7.89954 569.773 8.21954C569.633 8.97954 569.713 9.73954 569.733 10.3995V10.3795C569.733 11.0395 569.753 11.6995 569.773 12.3595V14.2795C569.773 14.6995 570.113 15.0395 570.353 15.1795C571.073 15.5795 572.013 15.6595 572.813 15.1195C572.773 14.4395 572.713 13.7995 572.653 13.1595C572.613 12.5995 572.533 12.0595 572.493 11.5595C572.433 10.3795 571.473 10.3195 573.933 10.0195C574.233 9.97954 574.393 10.0795 574.553 10.3395H574.533C574.773 10.7795 575.113 11.2395 575.493 11.6195L575.473 11.5995C575.973 12.1395 576.413 12.6395 576.793 13.2395H576.813C577.113 13.6995 577.453 14.1195 577.793 14.5595C578.073 14.8795 578.393 15.1995 578.693 15.4395C578.933 15.6395 579.353 15.6795 579.573 15.6795C580.073 15.6795 580.453 15.3795 580.713 15.1395C581.153 14.7395 581.313 14.1595 580.893 13.6595ZM575.153 7.47954C575.093 7.51954 575.053 7.51954 574.933 7.53954C574.573 7.57954 574.173 7.65954 573.793 7.77954C573.413 7.91954 573.053 7.87954 572.593 7.77954V7.79954C572.493 7.17954 572.393 6.69954 572.453 6.15954L572.533 5.07954C572.553 4.57954 572.573 4.09954 572.613 3.61954C572.633 3.47954 572.793 3.29954 572.913 3.25954C573.233 3.17954 573.553 3.13954 573.893 3.09954C574.513 3.03954 575.173 2.99954 575.813 2.95954H575.793C576.353 2.93954 576.853 3.05954 577.173 3.39954C577.673 3.93954 577.853 4.47954 577.633 5.23954C577.533 5.61954 577.373 5.85954 577.073 6.17954C576.553 6.71954 575.873 7.05954 575.153 7.47954Z" fill="url(#paint31_linear)"/>
<path d="M592.182 10.8795C591.902 10.3995 591.542 10.0595 591.042 9.79954L591.022 9.77954C590.422 9.43954 589.842 9.09954 589.222 8.83954C588.342 8.49954 587.562 8.01954 586.782 7.59954C586.062 7.19954 585.502 6.55954 585.162 5.83954C585.002 5.47954 584.882 5.03954 584.902 4.63954C584.962 2.91954 585.862 1.55954 587.322 0.679539C588.062 0.239538 588.942 0.159539 589.662 0.179538C590.482 0.219539 591.342 0.339539 592.162 0.579539C592.982 0.879539 593.762 1.27954 594.382 1.91954C594.902 2.37954 595.202 3.01954 595.322 3.65954C595.362 3.87954 595.222 4.27954 595.042 4.47954C594.482 5.03954 593.522 5.01954 593.042 4.39954C593.022 4.37954 592.882 4.27954 592.802 4.03954C592.662 3.61954 592.342 3.41954 591.842 3.15954C591.342 2.93954 590.882 2.71954 590.362 2.59954C589.962 2.49954 589.582 2.45954 589.202 2.53954V2.51954C588.442 2.69954 587.882 3.19954 587.782 3.99954V4.15954C587.702 4.71954 587.902 5.05954 588.382 5.31954C589.202 5.79954 589.942 6.27954 590.802 6.55954L590.822 6.57954C591.282 6.73954 591.722 6.95954 592.162 7.17954C593.322 7.75954 594.162 8.73954 594.882 9.69954H594.902C595.162 10.0795 595.242 10.4995 595.302 10.7995C595.662 12.1795 595.242 13.4595 594.142 14.3395C593.922 14.4995 593.682 14.6995 593.422 14.8795L593.442 14.8595C593.302 14.9595 593.042 15.1595 592.782 15.2195C591.542 15.4995 590.222 15.7995 588.842 15.6595C588.022 15.5795 587.242 15.2595 586.542 14.9595H586.562C585.942 14.7195 585.502 14.1395 585.242 13.6795C584.862 13.0395 584.522 12.3195 584.362 11.5795C584.282 11.1795 584.522 10.6195 584.922 10.4395H584.902C585.282 10.2395 585.742 10.1795 586.122 10.1995C586.422 10.2195 586.942 10.5195 587.022 10.8795V10.8595C587.082 11.0995 587.162 11.3595 587.202 11.5995C587.242 11.8795 587.362 12.0395 587.622 12.2995H587.602C588.122 12.8195 588.802 13.0795 589.562 13.3595C590.522 13.3995 591.342 13.3795 592.142 12.9795H592.122C592.182 12.9595 592.242 12.8595 592.342 12.7195V12.7395C592.562 12.4195 592.662 12.0795 592.702 11.6995L592.182 10.8795Z" fill="url(#paint32_linear)"/>
<path d="M600.44 15.6795C600.46 15.6595 600.04 15.5595 599.86 15.2395C599.74 15.0395 599.6 14.8595 599.48 14.6795C599.3 14.2795 599.56 13.4595 599.9 13.2395C600.04 13.1595 600.16 13.0995 600.3 13.0395C600.8 12.7795 601.42 12.6795 601.96 12.8995C602.12 12.9595 602.36 13.0595 602.5 13.2595C602.7 13.4595 602.8 13.7995 602.8 13.9595C602.8 14.3595 602.6 14.8795 602.16 15.1595C601.78 15.4195 601.28 15.6595 600.76 15.7195L600.44 15.6795Z" fill="url(#paint33_linear)"/>
<defs>
<linearGradient id="paint0_linear" x1="329.676" y1="23.0002" x2="329.855" y2="-4.99885" gradientUnits="userSpaceOnUse">
<stop stop-color="#8A5C16"/>
<stop offset="1" stop-color="#8A5C16" stop-opacity="0.2"/>
</linearGradient>
<linearGradient id="paint1_linear" x1="329.676" y1="23.0002" x2="329.855" y2="-4.99885" gradientUnits="userSpaceOnUse">
<stop stop-color="#8A5C16"/>
<stop offset="1" stop-color="#8A5C16" stop-opacity="0.2"/>
</linearGradient>
<linearGradient id="paint2_linear" x1="329.676" y1="23.0002" x2="329.855" y2="-4.99885" gradientUnits="userSpaceOnUse">
<stop stop-color="#8A5C16"/>
<stop offset="1" stop-color="#8A5C16" stop-opacity="0.2"/>
</linearGradient>
<linearGradient id="paint3_linear" x1="329.676" y1="23.0002" x2="329.855" y2="-4.99885" gradientUnits="userSpaceOnUse">
<stop stop-color="#8A5C16"/>
<stop offset="1" stop-color="#8A5C16" stop-opacity="0.2"/>
</linearGradient>
<linearGradient id="paint4_linear" x1="329.676" y1="23.0002" x2="329.855" y2="-4.99885" gradientUnits="userSpaceOnUse">
<stop stop-color="#8A5C16"/>
<stop offset="1" stop-color="#8A5C16" stop-opacity="0.2"/>
</linearGradient>
<linearGradient id="paint5_linear" x1="329.676" y1="23.0002" x2="329.855" y2="-4.99885" gradientUnits="userSpaceOnUse">
<stop stop-color="#8A5C16"/>
<stop offset="1" stop-color="#8A5C16" stop-opacity="0.2"/>
</linearGradient>
<linearGradient id="paint6_linear" x1="329.676" y1="23.0002" x2="329.855" y2="-4.99885" gradientUnits="userSpaceOnUse">
<stop stop-color="#8A5C16"/>
<stop offset="1" stop-color="#8A5C16" stop-opacity="0.2"/>
</linearGradient>
<linearGradient id="paint7_linear" x1="329.676" y1="23.0002" x2="329.855" y2="-4.99885" gradientUnits="userSpaceOnUse">
<stop stop-color="#8A5C16"/>
<stop offset="1" stop-color="#8A5C16" stop-opacity="0.2"/>
</linearGradient>
<linearGradient id="paint8_linear" x1="329.676" y1="23.0002" x2="329.855" y2="-4.99885" gradientUnits="userSpaceOnUse">
<stop stop-color="#8A5C16"/>
<stop offset="1" stop-color="#8A5C16" stop-opacity="0.2"/>
</linearGradient>
<linearGradient id="paint9_linear" x1="329.676" y1="23.0002" x2="329.855" y2="-4.99885" gradientUnits="userSpaceOnUse">
<stop stop-color="#8A5C16"/>
<stop offset="1" stop-color="#8A5C16" stop-opacity="0.2"/>
</linearGradient>
<linearGradient id="paint10_linear" x1="329.676" y1="23.0002" x2="329.855" y2="-4.99885" gradientUnits="userSpaceOnUse">
<stop stop-color="#8A5C16"/>
<stop offset="1" stop-color="#8A5C16" stop-opacity="0.2"/>
</linearGradient>
<linearGradient id="paint11_linear" x1="329.676" y1="23.0002" x2="329.855" y2="-4.99885" gradientUnits="userSpaceOnUse">
<stop stop-color="#8A5C16"/>
<stop offset="1" stop-color="#8A5C16" stop-opacity="0.2"/>
</linearGradient>
<linearGradient id="paint12_linear" x1="329.676" y1="23.0002" x2="329.855" y2="-4.99885" gradientUnits="userSpaceOnUse">
<stop stop-color="#8A5C16"/>
<stop offset="1" stop-color="#8A5C16" stop-opacity="0.2"/>
</linearGradient>
<linearGradient id="paint13_linear" x1="329.676" y1="23.0002" x2="329.855" y2="-4.99885" gradientUnits="userSpaceOnUse">
<stop stop-color="#8A5C16"/>
<stop offset="1" stop-color="#8A5C16" stop-opacity="0.2"/>
</linearGradient>
<linearGradient id="paint14_linear" x1="329.676" y1="23.0002" x2="329.855" y2="-4.99885" gradientUnits="userSpaceOnUse">
<stop stop-color="#8A5C16"/>
<stop offset="1" stop-color="#8A5C16" stop-opacity="0.2"/>
</linearGradient>
<linearGradient id="paint15_linear" x1="329.676" y1="23.0002" x2="329.855" y2="-4.99885" gradientUnits="userSpaceOnUse">
<stop stop-color="#8A5C16"/>
<stop offset="1" stop-color="#8A5C16" stop-opacity="0.2"/>
</linearGradient>
<linearGradient id="paint16_linear" x1="329.676" y1="23.0002" x2="329.855" y2="-4.99885" gradientUnits="userSpaceOnUse">
<stop stop-color="#8A5C16"/>
<stop offset="1" stop-color="#8A5C16" stop-opacity="0.2"/>
</linearGradient>
<linearGradient id="paint17_linear" x1="329.676" y1="23.0002" x2="329.855" y2="-4.99885" gradientUnits="userSpaceOnUse">
<stop stop-color="#8A5C16"/>
<stop offset="1" stop-color="#8A5C16" stop-opacity="0.2"/>
</linearGradient>
<linearGradient id="paint18_linear" x1="329.676" y1="23.0002" x2="329.855" y2="-4.99885" gradientUnits="userSpaceOnUse">
<stop stop-color="#8A5C16"/>
<stop offset="1" stop-color="#8A5C16" stop-opacity="0.2"/>
</linearGradient>
<linearGradient id="paint19_linear" x1="329.676" y1="23.0002" x2="329.855" y2="-4.99885" gradientUnits="userSpaceOnUse">
<stop stop-color="#8A5C16"/>
<stop offset="1" stop-color="#8A5C16" stop-opacity="0.2"/>
</linearGradient>
<linearGradient id="paint20_linear" x1="329.676" y1="23.0002" x2="329.855" y2="-4.99885" gradientUnits="userSpaceOnUse">
<stop stop-color="#8A5C16"/>
<stop offset="1" stop-color="#8A5C16" stop-opacity="0.2"/>
</linearGradient>
<linearGradient id="paint21_linear" x1="329.676" y1="23.0002" x2="329.855" y2="-4.99885" gradientUnits="userSpaceOnUse">
<stop stop-color="#8A5C16"/>
<stop offset="1" stop-color="#8A5C16" stop-opacity="0.2"/>
</linearGradient>
<linearGradient id="paint22_linear" x1="329.676" y1="23.0002" x2="329.855" y2="-4.99885" gradientUnits="userSpaceOnUse">
<stop stop-color="#8A5C16"/>
<stop offset="1" stop-color="#8A5C16" stop-opacity="0.2"/>
</linearGradient>
<linearGradient id="paint23_linear" x1="329.676" y1="23.0002" x2="329.855" y2="-4.99885" gradientUnits="userSpaceOnUse">
<stop stop-color="#8A5C16"/>
<stop offset="1" stop-color="#8A5C16" stop-opacity="0.2"/>
</linearGradient>
<linearGradient id="paint24_linear" x1="329.676" y1="23.0002" x2="329.855" y2="-4.99885" gradientUnits="userSpaceOnUse">
<stop stop-color="#8A5C16"/>
<stop offset="1" stop-color="#8A5C16" stop-opacity="0.2"/>
</linearGradient>
<linearGradient id="paint25_linear" x1="329.676" y1="23.0002" x2="329.855" y2="-4.99885" gradientUnits="userSpaceOnUse">
<stop stop-color="#8A5C16"/>
<stop offset="1" stop-color="#8A5C16" stop-opacity="0.2"/>
</linearGradient>
<linearGradient id="paint26_linear" x1="329.676" y1="23.0002" x2="329.855" y2="-4.99885" gradientUnits="userSpaceOnUse">
<stop stop-color="#8A5C16"/>
<stop offset="1" stop-color="#8A5C16" stop-opacity="0.2"/>
</linearGradient>
<linearGradient id="paint27_linear" x1="329.676" y1="23.0002" x2="329.855" y2="-4.99885" gradientUnits="userSpaceOnUse">
<stop stop-color="#8A5C16"/>
<stop offset="1" stop-color="#8A5C16" stop-opacity="0.2"/>
</linearGradient>
<linearGradient id="paint28_linear" x1="329.676" y1="23.0002" x2="329.855" y2="-4.99885" gradientUnits="userSpaceOnUse">
<stop stop-color="#8A5C16"/>
<stop offset="1" stop-color="#8A5C16" stop-opacity="0.2"/>
</linearGradient>
<linearGradient id="paint29_linear" x1="329.676" y1="23.0002" x2="329.855" y2="-4.99885" gradientUnits="userSpaceOnUse">
<stop stop-color="#8A5C16"/>
<stop offset="1" stop-color="#8A5C16" stop-opacity="0.2"/>
</linearGradient>
<linearGradient id="paint30_linear" x1="329.676" y1="23.0002" x2="329.855" y2="-4.99885" gradientUnits="userSpaceOnUse">
<stop stop-color="#8A5C16"/>
<stop offset="1" stop-color="#8A5C16" stop-opacity="0.2"/>
</linearGradient>
<linearGradient id="paint31_linear" x1="329.676" y1="23.0002" x2="329.855" y2="-4.99885" gradientUnits="userSpaceOnUse">
<stop stop-color="#8A5C16"/>
<stop offset="1" stop-color="#8A5C16" stop-opacity="0.2"/>
</linearGradient>
<linearGradient id="paint32_linear" x1="329.676" y1="23.0002" x2="329.855" y2="-4.99885" gradientUnits="userSpaceOnUse">
<stop stop-color="#8A5C16"/>
<stop offset="1" stop-color="#8A5C16" stop-opacity="0.2"/>
</linearGradient>
<linearGradient id="paint33_linear" x1="329.676" y1="23.0002" x2="329.855" y2="-4.99885" gradientUnits="userSpaceOnUse">
<stop stop-color="#8A5C16"/>
<stop offset="1" stop-color="#8A5C16" stop-opacity="0.2"/>
</linearGradient>
</defs>
</svg>
