<svg width="64" height="16" viewBox="0 0 64 16" fill="none" xmlns="http://www.w3.org/2000/svg">
<path d="M19.4919 5.74C19.2119 5.46 18.7519 5.34 18.3719 5.44C17.7919 5.58 17.3919 6.06 17.2319 6.5C16.8319 7.52 16.3519 8.58 16.1719 9.76C16.0919 10.18 16.0119 10.56 15.9119 10.96C15.5519 12.28 15.2519 13.62 14.9519 14.94L14.8719 15.3L14.8519 15.22C14.6319 14.2 14.2519 13.22 13.9119 12.28V12.26C13.6919 11.66 13.4519 11.14 13.3719 10.58L13.3519 10.56C13.1119 9.26 12.5719 8.12 12.2719 6.96V6.94C12.0319 6.14 11.2119 5.84 10.4919 6.26H10.5119C10.0719 6.5 9.69188 6.94 9.57187 7.46C9.39187 8.14 9.17187 8.82 8.99188 9.54V9.52C8.83187 10.06 8.59188 10.64 8.55187 11.28V11.26C8.43187 12.38 8.07188 13.44 7.79188 14.6C7.71188 14.94 7.57188 15.3 7.43188 15.68C7.33188 15.4 7.23187 15.14 7.17187 14.86C6.93187 13.78 6.43187 12.82 6.15187 11.86C5.99188 11.38 5.83187 10.94 5.73187 10.5C5.41187 9.14 5.03188 7.8 4.81187 6.46C4.63188 5.46 3.59188 5.12 2.81187 5.66L2.79187 5.68C2.69188 5.74 2.57187 5.84 2.49187 5.94C2.41188 6.04 1.99187 6.46 2.25188 7C2.47188 7.46 2.53188 7.96 2.61188 8.52C2.73188 9.42 2.99188 10.28 3.23187 11.12C3.55187 12.28 3.89188 13.44 4.21188 14.6C4.25187 14.72 4.31188 14.82 4.35188 14.9C4.91188 16.42 5.39188 17.92 5.63188 19.5C5.67188 19.74 5.79187 19.92 5.83187 20.02C6.01187 20.46 6.63188 20.68 7.03187 20.42C7.33188 20.22 7.49187 20.06 7.59187 20.02H7.61188C8.17188 19.88 8.43187 19.48 8.63188 19.2C9.01188 18.68 9.25187 18.08 9.43187 17.5C9.79188 16.26 10.1719 15 10.5519 13.76C10.6919 13.3 10.8519 12.78 10.8719 12.24C10.8919 12.04 10.9119 11.84 10.9519 11.66C11.4719 13.36 11.9119 15.1 12.4919 16.8C12.8119 17.7 13.2119 18.5 13.3919 19.32L13.4119 19.34C13.4719 19.64 13.7119 19.88 13.8119 20C14.1719 20.46 14.7319 20.58 15.2319 20.26H15.2519C15.5719 20.04 15.6919 19.88 15.7719 19.88C15.9919 19.86 16.3119 19.54 16.3719 19.36V19.34C16.6319 18.5 16.8919 17.68 17.0919 16.8C17.3519 15.64 17.5519 14.46 17.8119 13.28C18.0319 12.2 18.4919 11.06 18.5119 9.8L18.5519 9.74C18.8919 8.94 19.0519 8.18 19.4519 7.56C19.6119 7.36 19.7319 7.1 19.7919 6.9C19.8719 6.58 19.8319 6.06 19.4919 5.74ZM24.732 15.36C24.832 13.84 24.532 12.08 24.352 10.24C24.232 9.14 24.192 8.02 24.272 6.9V6.92C24.292 6.24 24.832 5.68 25.412 5.46C26.172 5.16 27.052 5.68 27.152 6.46V6.44C27.152 6.5 27.252 6.72 27.152 7C26.932 7.86 27.032 8.7 27.232 9.66V9.68C27.332 10.3 27.292 10.9 27.352 11.4C27.572 13.18 27.712 15.38 27.712 17.16C27.712 17.32 27.732 17.44 27.792 17.6C28.152 18.56 27.732 19.42 27.292 20.06C27.032 20.44 26.572 20.5 26.332 20.5C25.732 20.52 25.312 20.22 25.152 19.74C24.792 18.86 24.592 17.9 24.732 16.9V16.92C24.772 16.66 24.732 15.92 24.732 15.36ZM37.3881 15.56C36.6281 15.56 35.0681 15.68 34.3681 15.52C34.3281 15.48 34.1481 15.58 33.7681 15.58C33.3881 15.6 33.0081 15.46 32.7481 15.26C32.2481 14.9 32.1681 14.1 32.6681 13.68C33.0481 13.36 33.5881 13.12 34.1281 13.12C34.6281 13.12 35.9481 13.12 36.4281 13.06C37.5281 13.02 41.1081 13.02 42.2281 12.98H42.2481C42.5081 12.98 42.7281 13.02 42.9081 13.02C43.3081 13.06 43.7881 13.62 43.6681 14.12C43.5681 14.58 43.4081 15.12 42.8081 15.5C42.5481 15.68 42.0481 15.8 41.7081 15.62C41.4681 15.48 39.7881 15.5 39.4281 15.54C39.0481 15.58 37.6681 15.56 37.3881 15.56ZM57.8397 5.56C57.6597 5.5 57.3797 5.42 57.1197 5.42C56.3597 5.42 55.6997 5.5 55.0397 5.42C53.9197 5.32 52.8397 5.58 51.9197 5.46H51.8997C51.1397 5.4 50.5397 5.58 50.0597 5.46H50.0397C49.6197 5.36 49.1397 5.4 48.7397 5.52C48.2197 5.68 47.6997 6.28 47.7397 6.84C47.7997 7.68 47.5997 8.66 47.7597 9.66C47.6197 11.34 47.7997 12.94 47.6997 14.52C47.6197 15.9 47.8997 17.14 47.8997 18.38C47.8797 18.88 48.0397 19.32 48.0997 19.64L48.1197 19.66C48.2997 20.36 49.0397 20.68 49.7197 20.44L50.0197 20.32C50.5797 20.12 50.8597 19.7 50.8397 19.18C50.8197 18.72 50.7797 18.32 50.8397 17.92C50.8997 17.36 50.6997 16.88 50.6797 16.52C50.6597 16.18 50.6997 15.84 50.7397 15.44C50.8997 15.38 51.0197 15.32 51.1597 15.32C51.4597 15.28 51.7797 15.28 52.1397 15.28C52.8797 15.3 53.5797 14.96 54.1397 14.62C54.3597 14.5 54.5197 14.08 54.5197 13.9L54.4997 13.8C54.3397 13.08 53.7397 12.58 53.0197 12.68H53.0397C52.6397 12.72 52.2997 12.8 51.9797 12.84C51.5197 12.9 51.0597 12.94 50.5997 12.96L50.5797 12.78C50.5397 11.74 50.5797 10.62 50.3997 9.52L50.4197 9.54C50.3597 9.12 50.4797 8.6 50.5597 8.04C50.7397 8.02 50.8397 7.98 50.9397 7.98L53.8997 7.92C54.4597 7.94 55.2397 7.96 55.9997 8.02C56.4797 8.06 57.0397 8.04 57.5397 7.9C58.0397 7.76 58.3597 7.3 58.4997 6.88V6.86C58.6397 6.32 58.4197 5.8 57.8397 5.56ZM62.232 15.36C62.332 13.84 62.032 12.08 61.852 10.24C61.732 9.14 61.692 8.02 61.772 6.9V6.92C61.792 6.24 62.332 5.68 62.912 5.46C63.672 5.16 64.552 5.68 64.652 6.46V6.44C64.652 6.5 64.752 6.72 64.652 7C64.432 7.86 64.532 8.7 64.732 9.66V9.68C64.832 10.3 64.792 10.9 64.852 11.4C65.072 13.18 65.212 15.38 65.212 17.16C65.212 17.32 65.232 17.44 65.292 17.6C65.652 18.56 65.232 19.42 64.792 20.06C64.532 20.44 64.072 20.5 63.832 20.5C63.232 20.52 62.812 20.22 62.652 19.74C62.292 18.86 62.092 17.9 62.232 16.9V16.92C62.272 16.66 62.232 15.92 62.232 15.36Z" transform="translate(-2 -5)" fill="url(#paint0_linear)"/>
<defs>
<linearGradient id="paint0_linear" x2="1" gradientUnits="userSpaceOnUse" gradientTransform="matrix(3.37234e-06 23.9167 -57.9542 4.17193 63.1649 -2.08596)">
<stop stop-color="#F7FCFF" stop-opacity="0.3"/>
<stop offset="1" stop-color="#F7FCFF" stop-opacity="0.1"/>
</linearGradient>
</defs>
</svg>
