<?xml version="1.0" encoding="UTF-8"?>
<svg width="551px" height="309px" viewBox="0 0 551 309" version="1.1" xmlns="http://www.w3.org/2000/svg" xmlns:xlink="http://www.w3.org/1999/xlink">
    <!-- Generator: Sketch 49 (51002) - http://www.bohemiancoding.com/sketch -->
    <title>Artboard 4</title>
    <desc>Created with Sketch.</desc>
    <defs>
        <linearGradient x1="79.6657231%" y1="4.56973136%" x2="-6.0994923%" y2="93.5386796%" id="Artboard 4--linearGradient-1">
            <stop stop-color="#203449" stop-opacity="0.4" offset="0%"></stop>
            <stop stop-color="#203449" stop-opacity="0" offset="100%"></stop>
        </linearGradient>
        <linearGradient x1="19.2125606%" y1="60.2032961%" x2="79.6657231%" y2="4.56973136%" id="Artboard 4--linearGradient-2">
            <stop stop-color="#203449" stop-opacity="0.4" offset="0%"></stop>
            <stop stop-color="#203449" stop-opacity="0" offset="100%"></stop>
        </linearGradient>
        <radialGradient cx="63.7580395%" cy="0%" fx="63.7580395%" fy="0%" r="78.7098419%" gradientTransform="translate(0.637580,0.000000),scale(1.000000,0.809590),rotate(90.000000),scale(1.000000,0.956679),translate(-0.637580,-0.000000)" id="Artboard 4--radialGradient-3">
            <stop stop-color="#203449" stop-opacity="0.4" offset="0%"></stop>
            <stop stop-color="#203449" stop-opacity="0" offset="100%"></stop>
        </radialGradient>
    </defs>
    <g id="Artboard 4--Page-1" stroke="none" stroke-width="1" fill="none" fill-rule="evenodd">
        <g id="Artboard 4--Group-11" transform="translate(261.000000, 37.000000)">
            <path d="M63.7323517,62.6084902 L69.7723756,57.1441061 L75.7047803,56 L79.2650728,57.1441061 L82.2815497,56 L88.622715,59.2710456 L93.6924437,63.7587277 L100.035798,48.5551818 L100.035798,55.7239172 L96.6142913,70.5598855 L94.3129885,79.9647791 L87.2943689,89.9687195 L68.2240034,88.5029666 L61.8752399,82.0097522 L55.325378,62.7680281 L53,40 L57.4383281,52.5120065 L61.8752399,60.6904827 L63.7323517,62.6084902 Z M88.4904146,68.7196927 L84.6641803,64.8952253 L81.2815497,63.5353552 L75.7047803,62.7233447 L70.5750923,64.2285247 L68.1133081,67.1331005 L68.2240034,67.2474256 L73.0360322,69.5598855 L77.6908643,69.5598855 L83.8077181,70.5598855 L88.4904146,68.7196927 Z" id="Artboard 4--Combined-Shape" fill="#203449" opacity="0.800000012"></path>
            <polygon id="Artboard 4--Path-12" fill="#203449" opacity="0.400000006" points="64.1875043 95 68.6953176 95 72.4433652 103.476564 66.3154347 109.601565 66.3154347 114.943363 67.4433652 124.95313 64.3154347 182.32814 51.9492209 195.314471 40 182.32814 41 162.082043 52.9492209 120.208989 60.7089881 106.501955 60.7089881 99.7656259"></polygon>
            <g id="Artboard 4--Group-8" opacity="0.800000012" transform="translate(49.000000, 34.000000)">
                <polygon id="Artboard 4--Path-10" stroke="#203449" points="9.53961752 4.55914202 10.6578108 7.73391901 13.9587818 10.3939571 21.6983682 10.9874487 25.2583692 9.04092897 26.9449102 4.55914202 26.9449102 3.08513841 18.7935327 0.681283806 12.3922676 0.681283806 9.65774894 1.03916759"></polygon>
                <polygon id="Artboard 4--Path-10" stroke="#203449" points="33.5396175 6.55914202 34.6578108 9.73391901 37.9587818 12.3939571 45.6983682 12.9874487 49.2583692 11.040929 50.9449102 6.55914202 50.9449102 5.08513841 42.7935327 2.68128381 36.3922676 2.68128381 33.6577489 3.03916759"></polygon>
                <polygon id="Artboard 4--Path-9" fill="#203449" points="1.47531532 1.34891972 0.79087919 1.7034043 9.1075121 1.67040375 9.1075121 4.81518453 10.253845 1.952896 13.1024667 1.34891972 20.3364908 1.34891972 26.804805 3.48332831 26.804805 4.81518453 29.9781719 3.48332831 32.8076756 4.81518453 36.3893803 2.74279414 44.3559559 3.48332831 48.961882 4.81518453 51.0355004 8.21267669 51.8337545 5.59931565 53.4253503 5.59931565 53.4253503 4.44154022 48.961882 3.48332831 45.0000856 2.07901518 36.3893803 1.34891972 32.8076756 2.74279414 29.9781719 2.07901518 26.9503328 2.74279414 20.3364908 0.670403752 13.1024667 0.0324145329 10.6254229 0.0324145329"></polygon>
            </g>
            <polygon id="Artboard 4--Path-14" fill="#203449" opacity="0.200000003" points="55.6435252 77 34.9601132 91.2569576 40.0892506 97.7706013 31.3988803 95.6404759 28 129.139215 33.3988803 171.398978 37.9601132 179.010005 40.0892506 131.005002 49.1238684 99.7534067 55.6435252 88.0940897"></polygon>
            <polygon id="Artboard 4--Path-16" fill="#203449" opacity="0.400000006" transform="translate(91.653571, 33.621603) scale(-1, 1) rotate(-15.000000) translate(-91.653571, -33.621603) " points="85.3148238 33.1886352 89.175337 31.5707059 92.2025554 32.0465449 95.3204164 32.5366317 97.9923184 35.194738 97.8643023 35.6725009 94.8896683 34.3633854 92.9310082 33.6633501 90.983179 33.1414309 85.5974171 33.7728268"></polygon>
            <polygon id="Artboard 4--Path-11" fill="#203449" opacity="0.400000006" points="53.554688 38.5878968 54.7177912 29.8384951 58.6777357 19.2343784 72.1191444 12.3789085 72.1191444 16.9980499 77.083989 14.5234401 77.083989 16.9980499 81.6992242 16.9980499 81.6992242 23.4834026 88.365241 19.2343784 91.9550854 23.4834026 96.373055 23.4834026 100.000009 27.4472705 100.000009 34.5878968 100.000009 47.70118 104.201181 40.0976632 104.201181 31.6425838 106.574229 22.4834026 104.521849 16.5066634 100.000009 10.5234401 93.9550854 8.01562661 88.365241 2.87304739 81.6992242 0 74.933598 0 67.3886748 2.87304739 58.6777357 9.01562661 53.554688 14.5234401 51 22.85059 50 32.6425838"></polygon>
            <polygon id="Artboard 4--Path-13" fill="#203449" opacity="0.200000003" points="100.76045 70 109.157684 80.9039268 109.157684 91.8078536 100.76045 97.1128729 109.157684 100.00816 91.6927609 132.356902 79.6260592 159.585526 72 182.496776 74.7163984 140.609822 79.6260592 116.575634 88.2653185 91.8078536"></polygon>
            <polygon id="Artboard 4--Path-16" fill="#203449" opacity="0.400000006" points="63 31.1002913 66.7923649 30 73.1962633 30 75.7401492 32.1358692 75.9506185 33.5679443 73.800121 32.9284408 70.9854236 31.3923066 67.3983744 30.969818 63.1487824 31.3923066"></polygon>
            <polygon id="Artboard 4--Path-28" fill="#203449" opacity="0.200000003" points="75 178.759239 82.2043015 167.222945 89.4413147 142 80.5901899 160.565963"></polygon>
            <polygon id="Artboard 4--Path-26" fill="#203449" opacity="0.200000003" points="58 80 58 85.7449344 64.2873016 92.5557054 69.0627784 92.5557054 60.092021 84.7449344"></polygon>
            <polygon id="Artboard 4--Path-27" fill="#203449" opacity="0.200000003" points="70 92.5103744 79.6891643 91 86.6215307 91.2551872 85.0800727 92.8533458 79.6891643 94.5103744"></polygon>
            <polygon id="Artboard 4--Path-34" fill="#203449" opacity="0.200000003" points="158 84.2295145 163.012395 87.0876498 165.59112 86.0030369 168.807765 84.2295145 163.572183 85.5498056 159.807765 82.5489297 158.530126 78.6188531 158.012395 74 153 69 154.404426 73.4041686 154.896836 77.5489297 155.896836 82.2295145"></polygon>
            <polygon id="Artboard 4--Path-35" fill="#203449" opacity="0.200000003" points="164.769647 64.7472977 164.187275 67.3127525 165.278455 70.5462632 162.41092 67.3446161 161 66.3446161 163.489846 63.8298685 164.769647 61"></polygon>
            <polyline id="Artboard 4--Path-38" stroke="url(#Artboard 4--linearGradient-1)" opacity="0.600000024" points="0 150.487131 0.330500013 113.904284 5.13800484 96.8797237 51.8886779 78"></polyline>
            <path d="M111,77 L152.320787,85.0503772" id="Artboard 4--Path-39" stroke="url(#Artboard 4--linearGradient-2)"></path>
            <polygon id="Artboard 4--Path-37" stroke="url(#Artboard 4--radialGradient-3)" opacity="0.800000012" points="135 127.558025 135 137.974771 143.668784 151.675349 154.936371 160.00339 170.19157 160.00339 187.050619 154.803813 193.238531 146.765342 196.531567 132.875175 192.647382 122.854372 188.8363 114.879333 184.29129 103.576985 179.446301 95.3497427 178.069655 85.9763283 174.152123 89 166.156077 91.3497427 157.674316 88.5120512 152.936371 84 155.585382 101.491338 156.990442 116.209039 152.936371 125.014034"></polygon>
            <polygon id="Artboard 4--Path-43" stroke="#203449" opacity="0.800000012" points="157.569904 85.2065653 155.250556 83.547646 153.871379 80.9665468 152.871379 78.4891355 153.202183 75.0807062 152.871379 72.2260057 150.084593 65.5933712 147 61.0689233 146 58.3531338 147 55.5879946 149.460392 55.8208022 152.784952 58.5879946 155.543762 62.0689233 156.543762 65.5933712 158.569904 65.5933712 162.749306 61.0689233 164.738758 56.5879946 167.412083 48.2975772 170.735089 43.5337734 173.847658 40 176.336638 40 176.521926 43.5337734 174.336638 48.2975772 171.847658 53.3448676 170.847658 57.5879946 170.847658 61.0689233 172.847658 60.0689233 176.336638 55.5879946 179.401637 52.3448676 182.596251 49.4067067 184.885063 48.2975772 186.747932 47.9706689 187.954724 49.4067067 187.954724 51.2245033 185.747932 53.3448676 182.885063 55.5879946 179.596251 58.5879946 177.401637 62.0689233 178.319621 62.6032826 180.90757 61.0689233 184.668348 59.1316223 186.747932 57.5879946 188.70939 56.1779192 190.948356 55.5879946 191.727759 56.5879946 191.727759 58.5879946 190.948356 60.0689233 189.701384 61.0689233 185.747932 63.3962767 183.645304 64.8410392 181.844361 66.4095383 180.90757 67.9189244 182.596251 67.9189244 185.747932 67.3262912 188.70939 66.4095383 191.727759 65.5933712 193.740607 65.8410392 195.072153 66.8410392 194.476472 67.9880281 192.072153 69.7665451 188.948356 71.4287233 183.885063 73.2982981 182.885063 75.0807062 180.378057 79.6283137 178.319621 82.9665468 175.376995 86.2065653 170.847658 88.7192843 166.412083 89.1851751 162.142453 88.2065653"></polygon>
        </g>
    </g>
</svg>